<?xml version="1.0" standalone="no"?>
<!DOCTYPE svg PUBLIC "-//W3C//DTD SVG 1.1//EN" "http://www.w3.org/Graphics/SVG/1.1/DTD/svg11.dtd" >
<svg xmlns="http://www.w3.org/2000/svg" xmlns:xlink="http://www.w3.org/1999/xlink" version="1.1">
<metadata>
Created by FontForge 20200427 at Mon Nov  3 02:35:06 2014
 By www
Copyright (c) 2012 by Ryoichi Tsunekawa. All rights reserved.
</metadata>
<defs>
<font id="AllRoundGothicW03-Demi" horiz-adv-x="608" >
  <font-face 
    font-family="AllRoundGothicW03-Demi"
    font-weight="600"
    font-stretch="normal"
    units-per-em="1000"
    panose-1="2 11 7 3 2 2 2 2 1 4"
    ascent="800"
    descent="-200"
    x-height="494"
    cap-height="654"
    bbox="-60 -257 4589 920"
    underline-thickness="50"
    underline-position="-125"
    unicode-range="U+0020-FB02"
  />
<missing-glyph horiz-adv-x="650" 
d="M100 0v654h450v-654h-450zM484 588h-318v-522h318v522z" />
    <glyph glyph-name="IJ" unicode="IJ" horiz-adv-x="834" 
d="M68 0v654h128v-654h-128zM654 654h128v-422q0 -56 -16.5 -101t-48 -77t-78.5 -49.5t-107 -17.5q-59 0 -105 17.5t-77.5 49.5t-48 77t-16.5 101v5h125v-5q0 -60 30 -93.5t93 -33.5q61 0 91 33.5t30 93.5v422z" />
    <glyph glyph-name="ij" unicode="ij" horiz-adv-x="502" 
d="M125 553q-33 0 -56 23t-23 56q0 34 23 57t56 23q34 0 56.5 -23t22.5 -57q0 -33 -22.5 -56t-56.5 -23zM66 0v494h119v-494h-119zM376 553q-33 0 -56 23t-23 56q0 34 23 57t56 23q34 0 56.5 -23t22.5 -57q0 -33 -22.5 -56t-56.5 -23zM233 -218v103h15q38 0 53.5 18.5
t15.5 61.5v529h119v-521q0 -94 -41 -142.5t-136 -48.5h-26z" />
    <glyph glyph-name="uniFB01" unicode="fi" horiz-adv-x="745" 
d="M65 0v505q0 55 16 96t44.5 68t68.5 40.5t88 13.5t88 -13.5t68.5 -41t44 -68.5t15.5 -95v-1h-118v1q0 58 -27 82.5t-71 24.5t-71 -25t-27 -82v-80h254v-108h-254v-317h-119zM619 553q-33 0 -56 23t-23 56q0 34 23 57t56 23q34 0 56.5 -23t22.5 -57q0 -33 -22.5 -56
t-56.5 -23zM560 0v494h119v-494h-119z" />
    <glyph glyph-name="uniFB02" unicode="fl" horiz-adv-x="745" 
d="M65 0v505q0 55 16 96t44.5 68t68.5 40.5t88 13.5t88 -13.5t68.5 -41t44 -68.5t15.5 -95v-1h-118v1q0 58 -27 82.5t-71 24.5t-71 -25t-27 -82v-80h254v-108h-254v-317h-119zM560 0v710h119v-710h-119z" />
    <glyph glyph-name=".notdef" horiz-adv-x="650" 
d="M100 0v654h450v-654h-450zM484 588h-318v-522h318v522z" />
    <glyph glyph-name=".null" horiz-adv-x="0" 
 />
    <glyph glyph-name="nonmarkingreturn" horiz-adv-x="333" 
 />
    <glyph glyph-name="space" unicode=" " horiz-adv-x="266" 
 />
    <glyph glyph-name="exclam" unicode="!" horiz-adv-x="272" 
d="M136 -13q-33 0 -56 23t-23 56t23 56t56 23t56 -23t23 -56t-23 -56t-56 -23zM85 205l-16 449h134l-16 -449h-102z" />
    <glyph glyph-name="quotedbl" unicode="&#x22;" horiz-adv-x="416" 
d="M71 381l-17 273h128l-17 -273h-94zM251 381l-17 273h128l-17 -273h-94z" />
    <glyph glyph-name="numbersign" unicode="#" horiz-adv-x="582" 
d="M306 0l21 150h-122l-20 -150h-91l21 150h-79l12 89h80l24 176h-79l12 89h80l20 150h91l-21 -150h122l20 150h91l-21 -150h79l-12 -89h-80l-24 -176h79l-12 -89h-80l-20 -150h-91zM364 415h-122l-24 -176h122z" />
    <glyph glyph-name="dollar" unicode="$" horiz-adv-x="522" 
d="M233 -70v75q-43 3 -78.5 17.5t-61 39t-40 58t-15.5 75.5h118q2 -72 75 -82h2v164q-33 6 -65.5 14.5t-59 27t-43 51t-16.5 85.5q0 40 13.5 73.5t37.5 59t58 41t75 19.5v76h60v-76q39 -5 71 -20.5t55 -39.5t36.5 -55.5t15.5 -69.5h-114q-2 29 -17 49t-45 27h-2v-160
q33 -6 66.5 -14.5t60.5 -27.5t44.5 -51t17.5 -86q0 -84 -52 -135t-137 -60v-75h-60zM295 114q68 14 68 82q0 31 -19.5 46t-48.5 23h-2v-151h2zM167 459q0 -30 18 -45t46 -23h2v149h-2q-32 -7 -48 -28.5t-16 -52.5z" />
    <glyph glyph-name="percent" unicode="%" horiz-adv-x="684" 
d="M94 0l406 654h88l-406 -654h-88zM182 353q-32 0 -60.5 12.5t-49.5 34t-33.5 50t-12.5 61.5q0 32 12.5 60.5t33.5 49.5t49.5 33.5t60.5 12.5q33 0 61.5 -12.5t49.5 -33.5t33.5 -49.5t12.5 -60.5q0 -33 -12.5 -61.5t-33.5 -50t-49.5 -34t-61.5 -12.5zM182 432q32 0 54.5 23
t22.5 56q0 32 -22.5 54.5t-54.5 22.5t-54.5 -22.5t-22.5 -54.5q0 -33 22.5 -56t54.5 -23zM502 -13q-33 0 -61.5 12.5t-49.5 34t-33.5 50t-12.5 60.5t12.5 60.5t33.5 50t49.5 34t61.5 12.5q32 0 60.5 -12.5t49.5 -34t33.5 -50t12.5 -60.5t-12.5 -60.5t-33.5 -50t-49.5 -34
t-60.5 -12.5zM502 66q32 0 54.5 23t22.5 55t-22.5 55t-54.5 23t-54.5 -23t-22.5 -55t22.5 -55t54.5 -23z" />
    <glyph glyph-name="ampersand" unicode="&#x26;" horiz-adv-x="566" 
d="M435 295v-2q29 -17 45 -45t16 -70q0 -44 -16.5 -79t-47 -60t-73.5 -38.5t-95 -13.5t-95 14t-73.5 40t-47.5 63t-17 82q0 60 28.5 99.5t81.5 59.5v2q-42 19 -64.5 54.5t-22.5 86.5q0 40 15 73.5t42 56.5t66 36t87 13q94 0 149.5 -46t60.5 -134h-116q-4 32 -28 51.5
t-64 19.5q-44 0 -69 -23.5t-25 -57.5q0 -38 25.5 -59t78.5 -21h259v-102h-100zM378 197q0 47 -29 72.5t-82 25.5h-7q-52 0 -81 -25t-29 -73q0 -47 28.5 -74t85.5 -27q56 0 85 27t29 74z" />
    <glyph glyph-name="quotesingle" unicode="'" horiz-adv-x="236" 
d="M71 381l-17 273h128l-17 -273h-94z" />
    <glyph glyph-name="parenleft" unicode="(" horiz-adv-x="377" 
d="M342 -219q-67 30 -120.5 75.5t-91 104.5t-57.5 130.5t-20 154.5q0 82 20 154t57.5 131t91 104.5t120.5 75.5v-112q-80 -50 -128.5 -137t-48.5 -216t48.5 -216t128.5 -137v-112z" />
    <glyph glyph-name="parenright" unicode=")" horiz-adv-x="377" 
d="M35 -107q80 50 128.5 137t48.5 216t-48.5 216t-128.5 137v112q67 -30 120.5 -75.5t91 -104.5t57.5 -131t20 -154q0 -83 -20 -154.5t-57.5 -130.5t-91 -104.5t-120.5 -75.5v112z" />
    <glyph glyph-name="asterisk" unicode="*" horiz-adv-x="526" 
d="M341 209l-77 173h-2l-77 -173l-108 79l144 127l-1 2l-191 19l41 127l165 -97l2 1l-41 187h134l-41 -187l2 -1l165 97l41 -127l-191 -19l-1 -2l144 -127z" />
    <glyph glyph-name="plus" unicode="+" horiz-adv-x="562" 
d="M230 29v182h-182v102h182v182h102v-182h182v-102h-182v-182h-102z" />
    <glyph glyph-name="comma" unicode="," horiz-adv-x="256" 
d="M55 -136l42 130q-22 8 -35 27.5t-13 44.5q0 33 23 56t56 23t56 -23t23 -56q0 -19 -10 -42l-72 -160h-70z" />
    <glyph glyph-name="hyphen" unicode="-" horiz-adv-x="346" 
d="M23 214v115h300v-115h-300z" />
    <glyph glyph-name="period" unicode="." horiz-adv-x="256" 
d="M128 -13q-33 0 -56 23t-23 56t23 56t56 23t56 -23t23 -56t-23 -56t-56 -23z" />
    <glyph glyph-name="slash" unicode="/" horiz-adv-x="426" 
d="M-6 -100l308 754h110l-308 -754h-110z" />
    <glyph glyph-name="zero" unicode="0" horiz-adv-x="522" 
d="M494 221q0 -53 -17 -96.5t-48 -74t-74 -47t-94 -16.5t-94 16.5t-74 47t-48 74t-17 96.5v212q0 53 17 96.5t48 74t74 47t94 16.5t94 -16.5t74 -47t48 -74t17 -96.5v-212zM375 433q0 58 -30 90.5t-84 32.5t-84 -32.5t-30 -90.5v-212q0 -58 30 -90.5t84 -32.5t84 32.5
t30 90.5v212z" />
    <glyph glyph-name="one" unicode="1" horiz-adv-x="522" 
d="M246 0v547h-130v107h249v-654h-119z" />
    <glyph glyph-name="two" unicode="2" horiz-adv-x="522" 
d="M53 0v102l225 219q34 32 54.5 64.5t20.5 68.5q0 45 -22.5 73.5t-67.5 28.5t-68 -29t-23 -80v-9h-118v9q0 50 14.5 90.5t41.5 69.5t66 44.5t88 15.5q48 0 87 -16t66.5 -44.5t42 -68t14.5 -85.5q0 -32 -7.5 -58.5t-21.5 -50.5t-34 -46.5t-45 -46.5l-150 -142v-2h250v-107
h-413z" />
    <glyph glyph-name="three" unicode="3" horiz-adv-x="522" 
d="M173 292v107h74q51 0 73.5 20.5t22.5 58.5q0 33 -22 55.5t-64 22.5t-63.5 -22t-23.5 -57h-116q1 46 16.5 81.5t42.5 59.5t64 36.5t82 12.5q46 0 83.5 -13t64.5 -36.5t41.5 -56.5t14.5 -74q0 -100 -83 -140v-2q51 -20 78.5 -59.5t27.5 -99.5q0 -46 -17 -82.5t-47 -62.5
t-72 -40t-91 -14q-50 0 -91.5 14t-71.5 40t-47 64.5t-17 87.5h115q1 -42 29.5 -68.5t80.5 -26.5t80 26.5t28 68.5q0 46 -28.5 72.5t-89.5 26.5h-74z" />
    <glyph glyph-name="four" unicode="4" horiz-adv-x="522" 
d="M322 0v136h-296v103l296 415h119v-411h64v-107h-64v-136h-119zM322 488l-169 -243v-2h171v245h-2z" />
    <glyph glyph-name="five" unicode="5" horiz-adv-x="522" 
d="M187 547l-22 -156h2q20 23 48.5 36.5t68.5 13.5q42 0 80 -15.5t66 -44t44.5 -69t16.5 -89.5v-9q0 -50 -17 -91.5t-48 -71.5t-74 -47t-94 -17q-48 0 -88.5 15t-71 41.5t-49.5 63.5t-23 81h122q8 -40 36.5 -65t73.5 -25q53 0 83 32.5t30 83.5v9q0 51 -30 83.5t-83 32.5
q-37 0 -62.5 -17t-39.5 -45l-106 32l45 345h344v-107h-252z" />
    <glyph glyph-name="six" unicode="6" horiz-adv-x="522" 
d="M498 218q0 -51 -17 -93.5t-48 -73t-74 -47.5t-94 -17t-94 17t-74 47.5t-48 73t-17 93.5v5q0 50 15 92t47 94l153 245h132l-143 -221v-2q14 7 30 11.5t33 4.5q44 0 80.5 -17.5t63 -47t41 -69t14.5 -82.5v-13zM377 226q0 54 -30 87t-82 33t-82 -33t-30 -87v-8q0 -54 30 -87
t82 -33t82 33t30 87v8z" />
    <glyph glyph-name="seven" unicode="7" horiz-adv-x="522" 
d="M201 0h-129l273 545v2h-295v107h427v-102z" />
    <glyph glyph-name="eight" unicode="8" horiz-adv-x="522" 
d="M493 186q0 -45 -17 -82t-47.5 -63t-73 -40t-94.5 -14t-94.5 14t-73 40t-47.5 63t-17 82q0 60 28.5 99.5t80.5 59.5v2q-42 19 -64.5 54t-22.5 86q0 41 15 74t42.5 56.5t66 36.5t86.5 13t86.5 -13t66 -36.5t42.5 -56.5t15 -74q0 -51 -22.5 -86t-64.5 -54v-2
q52 -20 80.5 -59.5t28.5 -99.5zM375 197q0 47 -29 72t-82 25h-6q-53 0 -82 -25t-29 -72q0 -45 28.5 -72t85.5 -27t85.5 27t28.5 72zM353 477q0 34 -22.5 56.5t-69.5 22.5t-69.5 -22.5t-22.5 -56.5q0 -37 23 -58.5t66 -21.5h6q43 0 66 21.5t23 58.5z" />
    <glyph glyph-name="nine" unicode="9" horiz-adv-x="522" 
d="M143 0l143 221v2q-14 -7 -30 -11.5t-33 -4.5q-44 0 -81 17.5t-63 47t-40.5 68.5t-14.5 83v13q0 51 17 93.5t48 73t74 47.5t94 17t94 -17t74 -47.5t48 -73t17 -93.5v-5q0 -50 -15 -92t-47 -94l-153 -245h-132zM369 436q0 54 -30 87t-82 33t-82 -33t-30 -87v-8
q0 -54 30 -87t82 -33t82 33t30 87v8z" />
    <glyph glyph-name="colon" unicode=":" horiz-adv-x="256" 
d="M128 -13q-33 0 -56 23t-23 56t23 56t56 23t56 -23t23 -56t-23 -56t-56 -23zM128 323q-33 0 -56 23t-23 56t23 56t56 23t56 -23t23 -56t-23 -56t-56 -23z" />
    <glyph glyph-name="semicolon" unicode=";" horiz-adv-x="256" 
d="M55 -136l42 130q-22 8 -35 27.5t-13 44.5q0 33 23 56t56 23t56 -23t23 -56q0 -19 -10 -42l-72 -160h-70zM128 323q-33 0 -56 23t-23 56t23 56t56 23t56 -23t23 -56t-23 -56t-56 -23z" />
    <glyph glyph-name="less" unicode="&#x3c;" horiz-adv-x="562" 
d="M48 211v102l466 187v-113l-330 -124v-2l330 -124v-113z" />
    <glyph glyph-name="equal" unicode="=" horiz-adv-x="562" 
d="M48 327v103h466v-103h-466zM48 94v103h466v-103h-466z" />
    <glyph glyph-name="greater" unicode="&#x3e;" horiz-adv-x="562" 
d="M48 24v113l330 124v2l-330 124v113l466 -187v-102z" />
    <glyph glyph-name="question" unicode="?" horiz-adv-x="467" 
d="M147 205v10q0 43 12.5 72t31.5 48.5t41.5 33.5t41.5 28t31.5 31.5t12.5 44.5q0 40 -24.5 61.5t-63.5 21.5q-38 0 -63.5 -22t-25.5 -64v-8h-113v12q0 44 15.5 80t43 61t65 38.5t81.5 13.5q45 0 82.5 -13.5t64.5 -38t42.5 -60.5t15.5 -81q0 -46 -13.5 -75.5t-33.5 -49
t-43 -32t-43 -26t-33.5 -31t-13.5 -45.5v-10h-111zM204 -13q-33 0 -56 23t-23 56t23 56t56 23t56 -23t23 -56t-23 -56t-56 -23z" />
    <glyph glyph-name="at" unicode="@" horiz-adv-x="767" 
d="M529 154q-31 0 -54.5 16t-27.5 54h-2q-23 -32 -55 -51t-72 -19q-54 0 -79.5 34.5t-25.5 84.5q0 36 13 75.5t37 73t58 55t76 21.5q34 0 56.5 -19t27.5 -51h2l18 57h73l-55 -206q-2 -6 -3 -12t-1 -11q0 -28 29 -28q18 0 37 12t35 34.5t26 53.5t10 70t-13 77t-41.5 68
t-74 49t-110.5 19q-64 0 -118 -22.5t-93.5 -62t-61.5 -93.5t-22 -118q0 -61 19.5 -111t55 -86t86 -55.5t113.5 -19.5q56 0 106.5 15t87.5 39l-6 -76q-42 -24 -90.5 -36t-99.5 -12q-78 0 -142.5 25.5t-111 70.5t-72 107t-25.5 136q0 79 28 146.5t78.5 117t119 77.5t149.5 28
q82 0 141 -25t97.5 -65.5t57 -91.5t18.5 -103q0 -51 -16 -95t-43 -76.5t-63.5 -51.5t-76.5 -19zM350 228q25 0 44.5 13t33.5 32.5t21.5 43t7.5 43.5q0 29 -14.5 46.5t-40.5 17.5q-24 0 -43 -13.5t-33 -34t-21.5 -44t-7.5 -44.5q0 -26 12.5 -43t40.5 -17z" />
    <glyph glyph-name="A" unicode="A" horiz-adv-x="675" 
d="M495 0v196h-319v-196h-125v383q0 66 18.5 118.5t54.5 89t89.5 56.5t122.5 20t122.5 -20t90 -56.5t55.5 -89t19 -118.5v-383h-128zM495 383q0 79 -39.5 122t-120.5 43t-120 -43t-39 -122v-71h319v71z" />
    <glyph glyph-name="B" unicode="B" horiz-adv-x="625" 
d="M67 0v654h313q46 0 81.5 -12.5t59.5 -35t36 -54t12 -68.5q0 -50 -22 -87t-63 -57v-2q54 -17 84.5 -59.5t30.5 -101.5q0 -38 -12.5 -70.5t-36.5 -56t-60 -37t-84 -13.5h-339zM195 275v-157h189q45 0 64.5 23t19.5 55q0 33 -21.5 56t-61.5 23h-190zM195 535v-146h169
q40 0 59 21t19 52q0 32 -17 52.5t-62 20.5h-168z" />
    <glyph glyph-name="C" unicode="C" horiz-adv-x="751" 
d="M584 417q-23 60 -76 95.5t-126 35.5q-49 0 -89 -16.5t-68.5 -46t-44.5 -70t-16 -88.5t16 -88.5t44.5 -70.5t68.5 -46.5t89 -16.5q73 0 126 36t76 96h135q-14 -56 -44.5 -102t-74 -79t-99 -51t-119.5 -18q-77 0 -140.5 25.5t-110 71t-72 107.5t-25.5 136q0 73 25.5 135.5
t72 108t110 71t140.5 25.5q64 0 119.5 -18t99 -51t74 -79t44.5 -102h-135z" />
    <glyph glyph-name="D" unicode="D" horiz-adv-x="682" 
d="M67 0v654h232q86 0 151 -23.5t109 -66.5t66.5 -103.5t22.5 -133.5q0 -74 -22.5 -134t-66.5 -103t-109 -66.5t-151 -23.5h-232zM299 118q57 0 98 15t68 42t40 65.5t13 86.5q0 95 -53 151.5t-166 56.5h-104v-417h104z" />
    <glyph glyph-name="E" unicode="E" horiz-adv-x="595" 
d="M195 275v-157h354v-118h-482v654h482v-119h-354v-146h296v-114h-296z" />
    <glyph glyph-name="F" unicode="F" horiz-adv-x="570" 
d="M67 0v654h474v-119h-346v-144h288v-116h-288v-275h-128z" />
    <glyph glyph-name="G" unicode="G" horiz-adv-x="757" 
d="M569 446q-26 48 -75 75t-112 27q-49 0 -89 -16.5t-68.5 -46t-44.5 -70t-16 -88.5t16 -88.5t44.5 -70.5t68.5 -46.5t89 -16.5q78 0 131.5 35t76.5 99v2h-248v114h387v-61q-6 -67 -33.5 -123.5t-73.5 -97t-107 -63.5t-133 -23q-77 0 -140.5 25.5t-110 71t-72 107.5
t-25.5 136q0 73 25.5 135.5t72 108t110 71t140.5 25.5q60 0 112.5 -16t95 -45t73.5 -69.5t48 -90.5h-142z" />
    <glyph glyph-name="H" unicode="H" horiz-adv-x="703" 
d="M508 0v273h-313v-273h-128v654h128v-263h313v263h128v-654h-128z" />
    <glyph glyph-name="I" unicode="I" horiz-adv-x="264" 
d="M68 0v654h128v-654h-128z" />
    <glyph glyph-name="J" unicode="J" horiz-adv-x="570" 
d="M390 654h128v-422q0 -56 -16.5 -101t-48 -77t-78.5 -49.5t-107 -17.5q-59 0 -105 17.5t-77.5 49.5t-48 77t-16.5 101v5h125v-5q0 -60 30 -93.5t93 -33.5q61 0 91 33.5t30 93.5v422z" />
    <glyph glyph-name="K" unicode="K" horiz-adv-x="614" 
d="M67 0v654h128v-284h2l232 284h161l-278 -321l288 -333h-165l-238 292h-2v-292h-128z" />
    <glyph glyph-name="L" unicode="L" horiz-adv-x="563" 
d="M67 0v654h128v-536h342v-118h-470z" />
    <glyph glyph-name="M" unicode="M" horiz-adv-x="932" 
d="M180 0h-128v421q0 63 17.5 109.5t48 76.5t72.5 45t90 15q63 0 110 -25.5t75 -73.5h2q27 48 74.5 73.5t110.5 25.5q48 0 90 -15t72.5 -45t48 -76.5t17.5 -109.5v-421h-128v421q0 67 -32 97t-79 30q-48 0 -79.5 -30t-31.5 -97v-421h-128v421q0 67 -31.5 97t-79.5 30
q-47 0 -79 -30t-32 -97v-421z" />
    <glyph glyph-name="N" unicode="N" horiz-adv-x="660" 
d="M480 0v394q0 73 -37.5 113.5t-112.5 40.5t-112.5 -40.5t-37.5 -113.5v-394h-128v394q0 63 18.5 113.5t53.5 86t87 54.5t119 19t119 -19t87 -54.5t53.5 -86t18.5 -113.5v-394h-128z" />
    <glyph glyph-name="O" unicode="O" horiz-adv-x="764" 
d="M730 327q0 -74 -25.5 -136t-72 -107.5t-110.5 -71t-140 -25.5q-77 0 -140.5 25.5t-110 71t-72 107.5t-25.5 136q0 73 25.5 135.5t72 108t110 71t140.5 25.5q76 0 140 -25.5t110.5 -71t72 -108t25.5 -135.5zM382 105q49 0 89 16.5t68.5 46.5t44.5 70.5t16 88.5t-16 88.5
t-44.5 70t-68.5 46t-89 16.5t-89 -16.5t-68.5 -46t-44.5 -70t-16 -88.5t16 -88.5t44.5 -70.5t68.5 -46.5t89 -16.5z" />
    <glyph glyph-name="P" unicode="P" horiz-adv-x="601" 
d="M67 0v654h267q64 0 110.5 -16.5t76.5 -46.5t44.5 -70.5t14.5 -88.5t-14.5 -88.5t-44.5 -70.5t-76.5 -46.5t-110.5 -16.5h-139v-210h-128zM336 328q64 0 89 29.5t25 74.5q0 44 -25 73.5t-89 29.5h-141v-207h141z" />
    <glyph glyph-name="Q" unicode="Q" horiz-adv-x="764" 
d="M730 327q0 -80 -29.5 -145.5t-82.5 -111.5l126 -173h-148l-78 114q-31 -11 -65 -17.5t-71 -6.5q-77 0 -140.5 25.5t-110 71t-72 107.5t-25.5 136q0 73 25.5 135.5t72 108t110 71t140.5 25.5q76 0 140 -25.5t110.5 -71t72 -108t25.5 -135.5zM382 105q31 0 61 8v2l-103 139
h148l56 -80h2q54 60 54 153q0 48 -16 88.5t-44.5 70t-68.5 46t-89 16.5t-89 -16.5t-68.5 -46t-44.5 -70t-16 -88.5t16 -88.5t44.5 -70.5t68.5 -46.5t89 -16.5z" />
    <glyph glyph-name="R" unicode="R" horiz-adv-x="626" 
d="M452 0l-139 221h-118v-221h-128v654h274q62 0 107 -16t74.5 -45t43.5 -68.5t14 -86.5q0 -72 -33 -125.5t-103 -76.5v-2l160 -234h-152zM343 340q61 0 84.5 28t23.5 70t-23.5 69.5t-84.5 27.5h-148v-195h148z" />
    <glyph glyph-name="S" unicode="S" horiz-adv-x="553" 
d="M387 465q-1 38 -28 62t-81 24t-81 -25.5t-27 -61.5q0 -26 15 -40t39.5 -23t56 -14t64 -12t64 -18t56 -31t39.5 -52.5t15 -81.5q0 -48 -17.5 -86t-49.5 -64.5t-76.5 -41t-99.5 -14.5q-54 0 -98.5 14t-76 40t-49.5 63.5t-19 84.5h125q1 -39 30 -63t88 -24q60 0 89 24t29 63
q0 25 -15 40t-39.5 23.5t-55.5 13.5t-64 12t-64 18t-55.5 31.5t-39.5 52.5t-15 81q0 45 16.5 83t47 65.5t73 42.5t94.5 15q51 0 92.5 -14.5t71.5 -41t47.5 -63.5t19.5 -82h-121z" />
    <glyph glyph-name="T" unicode="T" horiz-adv-x="572" 
d="M222 0v535h-195v119h518v-119h-195v-535h-128z" />
    <glyph glyph-name="U" unicode="U" horiz-adv-x="655" 
d="M479 654h125v-394q0 -63 -18 -113.5t-53 -86t-86 -54.5t-117 -19q-67 0 -119 19t-87 54.5t-53.5 86t-18.5 113.5v394h128v-394q0 -73 37 -114t112 -41q76 0 113 41t37 114v394z" />
    <glyph glyph-name="V" unicode="V" horiz-adv-x="654" 
d="M257 0l-238 654h139l170 -502h2l169 502h136l-237 -654h-141z" />
    <glyph glyph-name="W" unicode="W" horiz-adv-x="932" 
d="M752 654h128v-421q0 -63 -17.5 -109.5t-48 -76.5t-72.5 -45t-90 -15q-63 0 -110 25.5t-75 73.5h-2q-27 -48 -74.5 -73.5t-110.5 -25.5q-48 0 -90 15t-72.5 45t-48 76.5t-17.5 109.5v421h128v-421q0 -68 32 -97.5t79 -29.5q48 0 79.5 30t31.5 97v421h128v-421
q0 -67 31.5 -97t79.5 -30q47 0 79 29.5t32 97.5v421z" />
    <glyph glyph-name="X" unicode="X" horiz-adv-x="658" 
d="M17 0l226 335l-216 319h153l150 -237h2l151 237h148l-217 -319l227 -335h-153l-160 254h-2l-162 -254h-147z" />
    <glyph glyph-name="Y" unicode="Y" horiz-adv-x="651" 
d="M263 0v276l-250 378h151l161 -262h2l163 262h148l-247 -375v-279h-128z" />
    <glyph glyph-name="Z" unicode="Z" horiz-adv-x="605" 
d="M204 120v-2h353v-118h-514v114l343 419v2h-328v119h489v-114z" />
    <glyph glyph-name="bracketleft" unicode="[" horiz-adv-x="377" 
d="M83 -197v886h266v-96h-154v-694h154v-96h-266z" />
    <glyph glyph-name="backslash" unicode="\" horiz-adv-x="426" 
d="M322 -100l-308 754h110l308 -754h-110z" />
    <glyph glyph-name="bracketright" unicode="]" horiz-adv-x="377" 
d="M28 -197v96h154v694h-154v96h266v-886h-266z" />
    <glyph glyph-name="asciicircum" unicode="^" horiz-adv-x="562" 
d="M29 230l200 424h102l202 -424h-117l-135 297h-2l-133 -297h-117z" />
    <glyph glyph-name="underscore" unicode="_" horiz-adv-x="500" 
d="M0 -142v73h500v-73h-500z" />
    <glyph glyph-name="grave" unicode="`" horiz-adv-x="320" 
d="M173 563l-129 157h124l107 -157h-102z" />
    <glyph glyph-name="a" unicode="a" 
d="M559 0h-109v92h-2q-20 -48 -66 -76.5t-109 -28.5q-44 0 -88 16t-78.5 48.5t-56 81t-21.5 114.5q0 56 19.5 104t55 82.5t84 54t107.5 19.5q58 0 107 -19t83.5 -53.5t54 -83t19.5 -108.5v-243zM295 98q66 0 105.5 41.5t39.5 107.5t-39.5 107.5t-105.5 41.5t-106 -41.5
t-40 -107.5t40 -107.5t106 -41.5z" />
    <glyph glyph-name="b" unicode="b" 
d="M49 710h119v-285h2q24 38 66.5 60t98.5 22q44 0 88 -16t78.5 -48.5t56 -81t21.5 -114.5q0 -56 -19.5 -104t-55 -82.5t-84.5 -54t-107 -19.5q-59 0 -107.5 18.5t-83 53t-54 83.5t-19.5 109v459zM313 98q66 0 106 41.5t40 107.5t-40 107.5t-106 41.5t-105.5 -41.5
t-39.5 -107.5t39.5 -107.5t105.5 -41.5z" />
    <glyph glyph-name="c" unicode="c" horiz-adv-x="580" 
d="M431 309q-16 40 -51.5 63.5t-84.5 23.5q-66 0 -106 -41.5t-40 -107.5t40 -107.5t106 -41.5q49 0 84.5 23.5t51.5 63.5h120q-9 -44 -31.5 -80.5t-55.5 -62.5t-76 -40.5t-93 -14.5q-59 0 -107.5 19.5t-84 54t-55 82.5t-19.5 104t19.5 104t55 82.5t84 54t107.5 19.5
q50 0 93 -14.5t76 -40.5t55.5 -62.5t31.5 -80.5h-120z" />
    <glyph glyph-name="d" unicode="d" 
d="M559 251q0 -60 -19.5 -109t-54 -83.5t-83.5 -53t-107 -18.5q-59 0 -107.5 19.5t-84 54t-55 82.5t-19.5 104q0 66 21.5 114.5t56 81t78.5 48.5t88 16q56 0 98.5 -22t66.5 -60h2v285h119v-459zM295 98q66 0 105.5 41.5t39.5 107.5t-39.5 107.5t-105.5 41.5t-106 -41.5
t-40 -107.5t40 -107.5t106 -41.5z" />
    <glyph glyph-name="e" unicode="e" horiz-adv-x="588" 
d="M154 205v-2q12 -50 48.5 -79t92.5 -29q80 0 117 47h127q-28 -71 -92 -113t-152 -42q-59 0 -107.5 19.5t-84 54t-55 82.5t-19.5 104t19.5 104t55 82.5t84 54t107.5 19.5q58 0 107 -19.5t83.5 -54t54 -82.5t19.5 -104v-42h-405zM295 399q-53 0 -88.5 -26t-49.5 -71v-2h276
v2q-14 45 -50 71t-88 26z" />
    <glyph glyph-name="f" unicode="f" horiz-adv-x="494" 
d="M65 0v505q0 55 16 96t44.5 68t68.5 40.5t88 13.5t88 -13.5t68.5 -41t44 -68.5t15.5 -95v-1h-118v1q0 58 -27 82.5t-71 24.5t-71 -25t-27 -82v-80h254v-108h-254v-317h-119z" />
    <glyph glyph-name="g" unicode="g" 
d="M440 75h-2q-24 -38 -66.5 -60t-98.5 -22q-44 0 -88 15t-78.5 46.5t-56 79t-21.5 113.5q0 56 19.5 104t55 82.5t84 54t107.5 19.5q58 0 107 -19t83.5 -53.5t54 -83t19.5 -108.5v-204q0 -71 -20.5 -121t-56 -81.5t-83.5 -46t-102 -14.5q-46 0 -86.5 10t-73.5 31t-56 53
t-35 76h120q15 -35 49 -51t82 -16q66 0 104.5 35t38.5 121v40zM440 247q0 66 -39.5 107.5t-105.5 41.5t-106 -41.5t-40 -107.5t40 -104.5t106 -38.5t105.5 38.5t39.5 104.5z" />
    <glyph glyph-name="h" unicode="h" horiz-adv-x="602" 
d="M184 0h-119v710h119v-282h2q22 36 59 57.5t86 21.5q43 0 83 -14.5t71 -44.5t49.5 -77.5t18.5 -113.5v-257h-119v257q0 71 -34 105t-91 34q-55 0 -90 -35t-35 -104v-257z" />
    <glyph glyph-name="i" unicode="i" horiz-adv-x="251" 
d="M125 553q-33 0 -56 23t-23 56q0 34 23 57t56 23q34 0 56.5 -23t22.5 -57q0 -33 -22.5 -56t-56.5 -23zM66 0v494h119v-494h-119z" />
    <glyph glyph-name="j" unicode="j" horiz-adv-x="251" 
d="M125 553q-33 0 -56 23t-23 56q0 34 23 57t56 23q34 0 56.5 -23t22.5 -57q0 -33 -22.5 -56t-56.5 -23zM-18 -218v103h15q38 0 53.5 18.5t15.5 61.5v529h119v-521q0 -94 -41 -142.5t-136 -48.5h-26z" />
    <glyph glyph-name="k" unicode="k" horiz-adv-x="555" 
d="M65 0v710h119v-430h2l194 214h152l-232 -242l241 -252h-155l-200 221h-2v-221h-119z" />
    <glyph glyph-name="l" unicode="l" horiz-adv-x="251" 
d="M66 0v710h119v-710h-119z" />
    <glyph glyph-name="m" unicode="m" horiz-adv-x="854" 
d="M368 0v282q0 60 -28.5 87t-71.5 27q-44 0 -72 -26.5t-28 -87.5v-282h-119v282q0 58 16 100.5t43.5 70t65.5 41t82 13.5q56 0 99.5 -22.5t70.5 -64.5h2q26 42 69.5 64.5t100.5 22.5q44 0 82 -13.5t65.5 -41t43.5 -70t16 -100.5v-282h-119v282q0 61 -28 87.5t-72 26.5
q-43 0 -71 -27t-28 -87v-282h-119z" />
    <glyph glyph-name="n" unicode="n" horiz-adv-x="586" 
d="M418 0v257q0 71 -34 105t-91 34t-91 -34t-34 -105v-257h-119v257q0 62 17.5 108.5t49.5 78t77 47.5t100 16t100 -15.5t77 -47t49.5 -78.5t17.5 -109v-257h-119z" />
    <glyph glyph-name="o" unicode="o" horiz-adv-x="590" 
d="M561 247q0 -56 -19.5 -104t-55 -82.5t-84.5 -54t-107 -19.5q-59 0 -107.5 19.5t-84 54t-55 82.5t-19.5 104t19.5 104t55 82.5t84 54t107.5 19.5q58 0 107 -19.5t84.5 -54t55 -82.5t19.5 -104zM295 98q66 0 105.5 41.5t39.5 107.5t-39.5 107.5t-105.5 41.5t-106 -41.5
t-40 -107.5t40 -107.5t106 -41.5z" />
    <glyph glyph-name="p" unicode="p" 
d="M49 243q0 60 19.5 108.5t54 83t83 53.5t107.5 19q58 0 107 -19.5t84.5 -54t55 -82.5t19.5 -104q0 -66 -21.5 -114.5t-56 -81t-78.5 -48.5t-88 -16q-56 0 -98.5 22t-66.5 60h-2v-280h-119v454zM313 396q-66 0 -105.5 -41.5t-39.5 -107.5t39.5 -107.5t105.5 -41.5t106 41.5
t40 107.5t-40 107.5t-106 41.5z" />
    <glyph glyph-name="q" unicode="q" 
d="M559 -211h-119v280h-2q-24 -38 -66.5 -60t-98.5 -22q-44 0 -88 16t-78.5 48.5t-56 81t-21.5 114.5q0 56 19.5 104t55 82.5t84 54t107.5 19.5q58 0 107 -19t83.5 -53.5t54 -83t19.5 -108.5v-454zM295 396q-66 0 -106 -41.5t-40 -107.5t40 -107.5t106 -41.5t105.5 41.5
t39.5 107.5t-39.5 107.5t-105.5 41.5z" />
    <glyph glyph-name="r" unicode="r" horiz-adv-x="497" 
d="M364 282v5q0 60 -27 84.5t-71 24.5t-71 -24.5t-27 -84.5v-287h-119v287q0 56 16 97.5t44.5 68.5t68.5 40.5t88 13.5t88 -13.5t68.5 -41t44 -69t15.5 -98.5v-3h-118z" />
    <glyph glyph-name="s" unicode="s" horiz-adv-x="475" 
d="M316 352q-2 23 -22 37t-55 14q-40 0 -59.5 -16t-19.5 -41q0 -22 21 -31t53 -14t68.5 -10t68.5 -20t53 -43t21 -79q0 -35 -14.5 -65t-41.5 -51.5t-65.5 -33.5t-85.5 -12t-85 12t-65 33t-42 50t-16 64h120q1 -25 22.5 -40t63.5 -15q48 0 68.5 16t20.5 42q0 22 -21 30.5
t-53 13t-68.5 9.5t-68.5 19.5t-53 43.5t-21 81q0 35 14 64.5t39.5 51t62 33.5t81.5 12t81 -12t61.5 -33t39.5 -49t15 -61h-118z" />
    <glyph glyph-name="t" unicode="t" horiz-adv-x="480" 
d="M453 190q0 -51 -14.5 -89.5t-41.5 -63.5t-64 -37.5t-82 -12.5t-82 12.5t-64 37.5t-41.5 63.5t-14.5 89.5v469h119v-165h255v-108h-255v-196q0 -50 23 -71t60 -21t60 20.5t23 71.5v13h119v-13z" />
    <glyph glyph-name="u" unicode="u" horiz-adv-x="586" 
d="M418 494h119v-257q0 -62 -17.5 -108.5t-49.5 -78t-77 -47.5t-100 -16t-100 15.5t-77 47t-49.5 78.5t-17.5 109v257h119v-257q0 -71 34 -105t91 -34t91 34t34 105v257z" />
    <glyph glyph-name="v" unicode="v" horiz-adv-x="565" 
d="M211 0l-194 494h130l136 -382h2l136 382h127l-194 -494h-143z" />
    <glyph glyph-name="w" unicode="w" horiz-adv-x="854" 
d="M486 494v-282q0 -60 28.5 -87t71.5 -27q44 0 72 26.5t28 87.5v282h119v-282q0 -58 -16 -100.5t-43.5 -70t-65.5 -41t-82 -13.5q-56 0 -99.5 22.5t-70.5 64.5h-2q-26 -42 -69.5 -64.5t-100.5 -22.5q-44 0 -82 13.5t-65.5 41t-43.5 70t-16 100.5v282h119v-282
q0 -61 28 -87.5t72 -26.5q43 0 71 27t28 87v282h119z" />
    <glyph glyph-name="x" unicode="x" horiz-adv-x="567" 
d="M14 0l182 252l-174 242h144l118 -177h2l118 177h141l-176 -242l184 -252h-144l-127 189h-2l-126 -189h-140z" />
    <glyph glyph-name="y" unicode="y" horiz-adv-x="602" 
d="M418 72h-2q-22 -37 -59 -58t-86 -21q-43 0 -83 14.5t-71 44.5t-49.5 77.5t-18.5 113.5v251h119v-251q0 -71 34 -105t91 -34q55 0 90 35t35 104v251h119v-477q0 -65 -19 -110.5t-52.5 -74.5t-78.5 -42.5t-96 -13.5q-43 0 -81.5 10t-70 31t-54 53t-32.5 76h119
q29 -67 119 -67q61 0 94 31.5t33 103.5v58z" />
    <glyph glyph-name="z" unicode="z" horiz-adv-x="534" 
d="M37 0v99l284 288v2h-269v105h430v-99l-284 -288v-2h294v-105h-455z" />
    <glyph glyph-name="braceleft" unicode="{" horiz-adv-x="377" 
d="M309 -197q-98 0 -145 43t-47 144v166q0 42 -41 42h-28v96h28q41 0 41 42v166q0 101 47 144t145 43h46v-95h-47q-38 0 -59 -21t-21 -64v-168q0 -39 -17 -64t-55 -30v-2q38 -6 55 -30.5t17 -63.5v-168q0 -43 21 -64t59 -21h47v-95h-46z" />
    <glyph glyph-name="bar" unicode="|" horiz-adv-x="346" 
d="M127 -211v1000h91v-1000h-91z" />
    <glyph glyph-name="braceright" unicode="}" horiz-adv-x="377" 
d="M21 -197v95h47q38 0 59 21t21 64v168q0 39 17 63.5t55 30.5v2q-38 5 -55 30t-17 64v168q0 43 -21 64t-59 21h-47v95h46q98 0 145 -43t47 -144v-166q0 -42 41 -42h28v-96h-28q-41 0 -41 -42v-166q0 -101 -47 -144t-145 -43h-46z" />
    <glyph glyph-name="asciitilde" unicode="~" horiz-adv-x="562" 
d="M522 353q-2 -91 -38 -140.5t-105 -49.5q-38 0 -64.5 14t-47 30.5t-38 30.5t-37.5 14q-27 0 -40.5 -21t-15.5 -60h-96q1 91 37.5 140t105.5 49q38 0 64.5 -14t47 -30.5t38 -30t37.5 -13.5q27 0 40.5 21t15.5 60h96z" />
    <glyph glyph-name="uni00A0" unicode="&#xa0;" horiz-adv-x="266" 
 />
    <glyph glyph-name="exclamdown" unicode="&#xa1;" horiz-adv-x="272" 
d="M136 456q33 0 56 -23t23 -56t-23 -56t-56 -23t-56 23t-23 56t23 56t56 23zM187 238l16 -449h-134l16 449h102z" />
    <glyph glyph-name="cent" unicode="&#xa2;" horiz-adv-x="522" 
d="M236 668h60v-109q78 -8 131 -55.5t69 -118.5h-124q-22 48 -74 61h-2v-237h2q52 13 74 62h124q-16 -72 -69 -119t-131 -56v-110h-60v110q-47 4 -86 23.5t-66.5 50t-43 71t-15.5 87.5t15.5 87.5t43 71t66.5 49.5t86 24v108zM144 328q0 -46 24.5 -78.5t65.5 -40.5h2v238h-2
q-41 -9 -65.5 -41t-24.5 -78z" />
    <glyph glyph-name="sterling" unicode="&#xa3;" horiz-adv-x="522" 
d="M252 224q-1 -38 -17.5 -68t-48.5 -47h1v-2h274v-107h-412v102q51 14 74.5 43t23.5 70v9h-98v85l63 7v2q-20 31 -38 68t-18 91q0 40 15 75t42.5 60.5t66 40t85.5 14.5q49 0 88 -15.5t66 -44.5t41.5 -69.5t14.5 -90.5v-9h-118v9q0 51 -23 80t-68 29t-67.5 -24t-22.5 -62
q0 -24 5 -43t13 -35.5t17.5 -32t17.5 -33.5h185v-102h-162z" />
    <glyph glyph-name="currency" unicode="&#xa4;" horiz-adv-x="522" 
d="M357 175q-41 -26 -98 -26q-28 0 -52 6.5t-44 17.5l-85 -89l-59 59l87 83q-29 43 -29 102q0 55 28 99l-86 83l59 59l83 -88q21 12 45 19t53 7q56 0 100 -27l85 89l59 -59l-89 -86q28 -42 28 -96q0 -58 -29 -99l90 -86l-59 -59zM259 225q46 0 74.5 29t28.5 74
q0 44 -28.5 73t-74.5 29t-74 -29t-28 -73q0 -45 28 -74t74 -29z" />
    <glyph glyph-name="yen" unicode="&#xa5;" horiz-adv-x="522" 
d="M320 90v-90h-118v90h-154v85h154v59h-154v85h154v2l-194 333h136l117 -234h2l117 234h134l-194 -333v-2h154v-85h-154v-59h154v-85h-154z" />
    <glyph glyph-name="brokenbar" unicode="&#xa6;" horiz-adv-x="346" 
d="M127 -211v400h91v-400h-91zM127 389v400h91v-400h-91z" />
    <glyph glyph-name="section" unicode="&#xa7;" horiz-adv-x="556" 
d="M183 -25q1 -30 24 -50.5t67 -20.5q48 0 69.5 21t21.5 52q0 27 -23 40t-58 21t-75.5 16.5t-75.5 27.5t-58 53.5t-23 94.5q0 48 24 82t66 54v2q-32 16 -52 45t-20 82q0 38 15 69.5t42.5 54.5t66.5 35.5t86 12.5t85.5 -12.5t66 -35t42.5 -54t16 -68.5h-117q-2 30 -25 50.5
t-67 20.5q-48 0 -69.5 -21t-21.5 -52q0 -27 23.5 -40t58 -21t75.5 -16.5t75.5 -27.5t58 -53.5t23.5 -94.5q0 -48 -24.5 -82.5t-66.5 -53.5v-2q31 -17 51.5 -46.5t20.5 -80.5q0 -38 -15 -69.5t-42.5 -54.5t-66.5 -35.5t-86 -12.5t-85 12.5t-65.5 35t-43 54t-16.5 68.5h118z
M391 234q0 24 -9.5 40.5t-25 27t-36.5 17.5t-45 12q-21 0 -40.5 -6t-35.5 -18t-25.5 -29.5t-9.5 -39.5q0 -25 9.5 -41.5t25 -27t36.5 -17t45 -11.5q21 0 40.5 6t35.5 18t25.5 29t9.5 40z" />
    <glyph glyph-name="dieresis" unicode="&#xa8;" horiz-adv-x="320" 
d="M260 567q-29 0 -49 20t-20 49t20 49t49 20t49.5 -20t20.5 -49t-20.5 -49t-49.5 -20zM60 567q-29 0 -49 20t-20 49t20 49t49 20t49 -20t20 -49t-20 -49t-49 -20z" />
    <glyph glyph-name="copyright" unicode="&#xa9;" horiz-adv-x="764" 
d="M730 327q0 -74 -25.5 -136t-72 -107.5t-110.5 -71t-140 -25.5q-77 0 -140.5 25.5t-110 71t-72 107.5t-25.5 136q0 73 25.5 135.5t72 108t110 71t140.5 25.5q76 0 140 -25.5t110.5 -71t72 -108t25.5 -135.5zM473 370q-12 26 -35.5 41t-55.5 15q-44 0 -71.5 -27t-27.5 -72
t27.5 -72t71.5 -27q32 0 55.5 15t35.5 41h77q-13 -57 -58 -93t-110 -36q-39 0 -71 13t-55.5 36t-36.5 54.5t-13 68.5t13 68.5t36.5 54.5t55.5 36t71 13q65 0 110 -36t58 -93h-77zM654 327q0 58 -19.5 107t-55.5 85t-86 56t-111 20t-111 -20t-86 -56t-55.5 -85t-19.5 -107
t19.5 -107t55.5 -85t86 -56t111 -20t111 20t86 56t55.5 85t19.5 107z" />
    <glyph glyph-name="ordfeminine" unicode="&#xaa;" horiz-adv-x="444" 
d="M314 317v63h-2q-17 -33 -50 -52.5t-68 -19.5q-28 0 -57.5 10.5t-53.5 32t-39 55.5t-15 82q0 39 13.5 71.5t38 56.5t58 37.5t74.5 13.5q40 0 73.5 -13t57.5 -37t37.5 -57.5t13.5 -74.5v-168h-81zM39 172v77h356v-77h-356zM213 393q42 0 67 26.5t25 68.5t-25 68t-67 26
t-67 -26t-25 -68t25 -68.5t67 -26.5z" />
    <glyph glyph-name="guillemotleft" unicode="&#xab;" horiz-adv-x="586" 
d="M200 48l-151 199l151 199h124l-152 -199l152 -199h-124zM412 48l-151 199l151 199h124l-152 -199l152 -199h-124z" />
    <glyph glyph-name="logicalnot" unicode="&#xac;" horiz-adv-x="562" 
d="M411 59v182h-363v102h466v-284h-103z" />
    <glyph glyph-name="uni00AD" unicode="&#xad;" horiz-adv-x="346" 
d="M23 214v115h300v-115h-300z" />
    <glyph glyph-name="registered" unicode="&#xae;" horiz-adv-x="764" 
d="M730 327q0 -74 -25.5 -136t-72 -107.5t-110.5 -71t-140 -25.5q-77 0 -140.5 25.5t-110 71t-72 107.5t-25.5 136q0 73 25.5 135.5t72 108t110 71t140.5 25.5q76 0 140 -25.5t110.5 -71t72 -108t25.5 -135.5zM654 327q0 58 -19.5 107t-55.5 85t-86 56t-111 20t-111 -20
t-86 -56t-55.5 -85t-19.5 -107t19.5 -107t55.5 -85t86 -56t111 -20t111 20t86 56t55.5 85t19.5 107zM456 165l-72 106h-60v-106h-75v324h169q54 0 85 -30t31 -78q0 -38 -19 -65.5t-54 -38.5v-2l84 -110h-89zM324 424v-89h86q25 0 36 12.5t11 32.5t-11 32t-36 12h-86z" />
    <glyph glyph-name="macron" unicode="&#xaf;" horiz-adv-x="320" 
d="M4 579v82h312v-82h-312z" />
    <glyph glyph-name="degree" unicode="&#xb0;" horiz-adv-x="342" 
d="M171 382q-30 0 -56 11t-45.5 30.5t-30.5 45.5t-11 56q0 29 11 55t30.5 45.5t45.5 30.5t56 11q29 0 55 -11t45.5 -30.5t30.5 -45.5t11 -55q0 -30 -11 -56t-30.5 -45.5t-45.5 -30.5t-55 -11zM230 525q0 25 -17 42t-42 17t-42 -17t-17 -42t17 -42.5t42 -17.5t42 17.5
t17 42.5z" />
    <glyph glyph-name="plusminus" unicode="&#xb1;" horiz-adv-x="562" 
d="M48 4v103h182v134h-182v102h182v159h102v-159h182v-102h-182v-134h182v-103h-466z" />
    <glyph glyph-name="uni00B2" unicode="&#xb2;" horiz-adv-x="340" 
d="M38 242v76l136 137q20 20 31 36.5t11 36.5q0 23 -11 37.5t-34 14.5t-34.5 -15t-11.5 -41v-6h-86v6q0 63 35 100.5t97 37.5t97.5 -38t35.5 -97q0 -40 -17.5 -68t-48.5 -58l-81 -78v-2h142v-79h-261z" />
    <glyph glyph-name="uni00B3" unicode="&#xb3;" horiz-adv-x="340" 
d="M112 420v75h47q29 0 40 12t11 32q0 18 -11.5 30t-32.5 12q-20 0 -31 -11.5t-13 -30.5h-84q1 61 36.5 92t93.5 31q59 0 94.5 -31t35.5 -84q0 -61 -49 -87v-2q62 -26 62 -98q0 -59 -40 -92.5t-103 -33.5t-103 34t-41 98h86q0 -23 15 -36.5t41 -13.5t41 13.5t15 36.5
q0 26 -15 40t-50 14h-45z" />
    <glyph glyph-name="acute" unicode="&#xb4;" horiz-adv-x="320" 
d="M44 563l107 157h124l-129 -157h-102z" />
    <glyph glyph-name="uni00B5" unicode="&#xb5;" horiz-adv-x="604" 
d="M66 -211v705h119v-257q0 -69 35 -104t90 -35q57 0 91 34t34 105v257h119v-257q0 -66 -18.5 -113.5t-49.5 -77.5t-71 -44.5t-83 -14.5q-49 0 -86 21t-59 58h-2v-277h-119z" />
    <glyph glyph-name="paragraph" unicode="&#xb6;" horiz-adv-x="596" 
d="M249 -172v368q-49 5 -88.5 24t-67.5 49t-43 69.5t-15 86.5q0 49 17.5 91t49.5 73t77 48t101 17h251v-826h-89v742h-105v-742h-88z" />
    <glyph glyph-name="periodcentered" unicode="&#xb7;" horiz-adv-x="256" 
d="M128 248q-33 0 -56 23t-23 56t23 56t56 23t56 -23t23 -56t-23 -56t-56 -23z" />
    <glyph glyph-name="cedilla" unicode="&#xb8;" horiz-adv-x="320" 
d="M90 -85l36 85h63l-24 -54v-1q5 2 10 2h10q38 0 61.5 -22t23.5 -59q0 -43 -30 -66.5t-81 -23.5q-50 0 -79.5 21.5t-30.5 61.5h74q1 -14 11.5 -20t24.5 -6q16 0 26 7t10 24q0 14 -9 22t-22 8t-23 -6z" />
    <glyph glyph-name="uni00B9" unicode="&#xb9;" horiz-adv-x="340" 
d="M154 242v333h-75v79h163v-412h-88z" />
    <glyph glyph-name="ordmasculine" unicode="&#xba;" horiz-adv-x="424" 
d="M395 488q0 -39 -13.5 -72t-38 -56.5t-58 -37t-73.5 -13.5t-73.5 13.5t-58 37t-38 56.5t-13.5 72t13.5 71.5t38 56.5t58 37.5t73.5 13.5t73.5 -13.5t58 -37.5t38 -56.5t13.5 -71.5zM212 393q42 0 67 26.5t25 68.5t-25 68t-67 26q-41 0 -66.5 -26t-25.5 -68t25.5 -68.5
t66.5 -26.5zM38 172v77h346v-77h-346z" />
    <glyph glyph-name="guillemotright" unicode="&#xbb;" horiz-adv-x="586" 
d="M50 48l152 199l-152 199h124l151 -199l-151 -199h-124zM262 48l152 199l-152 199h124l151 -199l-151 -199h-124z" />
    <glyph glyph-name="onequarter" unicode="&#xbc;" horiz-adv-x="824" 
d="M165 0l406 654h88l-406 -654h-88zM154 242v333h-75v79h163v-412h-88zM681 0v83h-175v76l176 253h87v-251h38v-78h-38v-83h-88zM680 287l-82 -124v-2h84v126h-2z" />
    <glyph glyph-name="onehalf" unicode="&#xbd;" horiz-adv-x="824" 
d="M165 0l406 654h88l-406 -654h-88zM154 242v333h-75v79h163v-412h-88zM522 0v76l136 137q20 20 31 36.5t11 36.5q0 23 -11 37.5t-34 14.5t-34.5 -15t-11.5 -41v-6h-86v6q0 63 35 100.5t97 37.5t97.5 -38t35.5 -97q0 -40 -17.5 -68t-48.5 -58l-81 -78v-2h142v-79h-261z" />
    <glyph glyph-name="threequarters" unicode="&#xbe;" horiz-adv-x="824" 
d="M208 0l406 654h88l-406 -654h-88zM681 0v83h-175v76l176 253h87v-251h38v-78h-38v-83h-88zM680 287l-82 -124v-2h84v126h-2zM112 420v75h47q29 0 40 12t11 32q0 18 -11.5 30t-32.5 12q-20 0 -31 -11.5t-13 -30.5h-84q1 61 36.5 92t93.5 31q59 0 94.5 -31t35.5 -84
q0 -61 -49 -87v-2q62 -26 62 -98q0 -59 -40 -92.5t-103 -33.5t-103 34t-41 98h86q0 -23 15 -36.5t41 -13.5t41 13.5t15 36.5q0 26 -15 40t-50 14h-45z" />
    <glyph glyph-name="questiondown" unicode="&#xbf;" horiz-adv-x="467" 
d="M320 238v-10q0 -43 -12.5 -72t-31.5 -48.5t-41.5 -33.5t-41.5 -28t-31.5 -31.5t-12.5 -44.5q0 -40 24.5 -61.5t63.5 -21.5q38 0 63.5 22t25.5 64v8h113v-12q0 -44 -15.5 -80t-43 -61t-65 -38.5t-81.5 -13.5q-45 0 -82.5 13.5t-64.5 38t-42.5 60.5t-15.5 81
q0 46 13.5 75.5t33.5 49t43 32t43 26t33.5 31t13.5 45.5v10h111zM263 456q33 0 56 -23t23 -56t-23 -56t-56 -23t-56 23t-23 56t23 56t56 23z" />
    <glyph glyph-name="Agrave" unicode="&#xc0;" horiz-adv-x="675" 
d="M495 0v196h-319v-196h-125v383q0 66 18.5 118.5t54.5 89t89.5 56.5t122.5 20t122.5 -20t90 -56.5t55.5 -89t19 -118.5v-383h-128zM495 383q0 79 -39.5 122t-120.5 43t-120 -43t-39 -122v-71h319v71zM313 713l-129 157h124l107 -157h-102z" />
    <glyph glyph-name="Aacute" unicode="&#xc1;" horiz-adv-x="675" 
d="M495 0v196h-319v-196h-125v383q0 66 18.5 118.5t54.5 89t89.5 56.5t122.5 20t122.5 -20t90 -56.5t55.5 -89t19 -118.5v-383h-128zM495 383q0 79 -39.5 122t-120.5 43t-120 -43t-39 -122v-71h319v71zM260 713l107 157h124l-129 -157h-102z" />
    <glyph glyph-name="Acircumflex" unicode="&#xc2;" horiz-adv-x="675" 
d="M495 0v196h-319v-196h-125v383q0 66 18.5 118.5t54.5 89t89.5 56.5t122.5 20t122.5 -20t90 -56.5t55.5 -89t19 -118.5v-383h-128zM495 383q0 79 -39.5 122t-120.5 43t-120 -43t-39 -122v-71h319v71zM412 713l-74 91h-2l-74 -91h-101l115 157h122l115 -157h-101z" />
    <glyph glyph-name="Atilde" unicode="&#xc3;" horiz-adv-x="675" 
d="M495 0v196h-319v-196h-125v383q0 66 18.5 118.5t54.5 89t89.5 56.5t122.5 20t122.5 -20t90 -56.5t55.5 -89t19 -118.5v-383h-128zM495 383q0 79 -39.5 122t-120.5 43t-120 -43t-39 -122v-71h319v71zM522 861q-14 -146 -116 -146q-26 0 -44 8.5t-32.5 18t-26.5 18t-27 8.5
q-36 0 -43 -54h-81q14 146 116 146q26 0 44 -8.5t32 -18t26.5 -18t27.5 -8.5q35 0 43 54h81z" />
    <glyph glyph-name="Adieresis" unicode="&#xc4;" horiz-adv-x="675" 
d="M495 0v196h-319v-196h-125v383q0 66 18.5 118.5t54.5 89t89.5 56.5t122.5 20t122.5 -20t90 -56.5t55.5 -89t19 -118.5v-383h-128zM495 383q0 79 -39.5 122t-120.5 43t-120 -43t-39 -122v-71h319v71zM437 717q-29 0 -49 20t-20 49t20 49t49 20t49.5 -20t20.5 -49
t-20.5 -49t-49.5 -20zM237 717q-29 0 -49 20t-20 49t20 49t49 20t49 -20t20 -49t-20 -49t-49 -20z" />
    <glyph glyph-name="Aring" unicode="&#xc5;" horiz-adv-x="675" 
d="M495 0v196h-319v-196h-125v383q0 66 18.5 118.5t54.5 89t89.5 56.5t122.5 20t122.5 -20t90 -56.5t55.5 -89t19 -118.5v-383h-128zM495 383q0 79 -39.5 122t-120.5 43t-120 -43t-39 -122v-71h319v71zM337 694q-45 0 -74.5 29.5t-29.5 74.5t29.5 74.5t74.5 29.5
q22 0 41.5 -8t33 -22t21.5 -33t8 -41t-8 -41t-21.5 -33t-33 -22t-41.5 -8zM372 798q0 16 -10 26t-25 10t-25 -10t-10 -26q0 -15 10 -25t25 -10t25 10t10 25z" />
    <glyph glyph-name="AE" unicode="&#xc6;" horiz-adv-x="991" 
d="M467 0v196h-291v-196h-125v370q0 66 18.5 118.5t54.5 89t89.5 56.5t122.5 20h609v-119h-350v-146h292v-114h-292v-157h350v-118h-478zM467 535h-132q-81 0 -120 -43t-39 -122v-58h291v223z" />
    <glyph glyph-name="Ccedilla" unicode="&#xc7;" horiz-adv-x="751" 
d="M306 -85l30 73v2q-68 7 -123.5 35t-95 72.5t-61.5 103t-22 126.5q0 73 25.5 135.5t72 108t110 71t140.5 25.5q64 0 119.5 -18t99 -51t74 -79t44.5 -102h-135q-23 60 -76 95.5t-126 35.5q-49 0 -89 -16.5t-68.5 -46t-44.5 -70t-16 -88.5t16 -88.5t44.5 -70.5t68.5 -46.5
t89 -16.5q73 0 126 36t76 96h135q-14 -54 -42.5 -98.5t-70 -77t-94 -51.5t-113.5 -22l-18 -42v-1q5 2 10 2h10q38 0 61.5 -22t23.5 -59q0 -43 -30 -66.5t-81 -23.5q-50 0 -79.5 21.5t-30.5 61.5h74q1 -14 11.5 -20t24.5 -6q16 0 26 7t10 24q0 14 -9 22t-22 8t-23 -6z" />
    <glyph glyph-name="Egrave" unicode="&#xc8;" horiz-adv-x="595" 
d="M195 275v-157h354v-118h-482v654h482v-119h-354v-146h296v-114h-296zM284 713l-129 157h124l107 -157h-102z" />
    <glyph glyph-name="Eacute" unicode="&#xc9;" horiz-adv-x="595" 
d="M195 275v-157h354v-118h-482v654h482v-119h-354v-146h296v-114h-296zM231 713l107 157h124l-129 -157h-102z" />
    <glyph glyph-name="Ecircumflex" unicode="&#xca;" horiz-adv-x="595" 
d="M195 275v-157h354v-118h-482v654h482v-119h-354v-146h296v-114h-296zM384 713l-74 91h-2l-74 -91h-101l115 157h122l115 -157h-101z" />
    <glyph glyph-name="Edieresis" unicode="&#xcb;" horiz-adv-x="595" 
d="M195 275v-157h354v-118h-482v654h482v-119h-354v-146h296v-114h-296zM408 717q-29 0 -49 20t-20 49t20 49t49 20t49.5 -20t20.5 -49t-20.5 -49t-49.5 -20zM208 717q-29 0 -49 20t-20 49t20 49t49 20t49 -20t20 -49t-20 -49t-49 -20z" />
    <glyph glyph-name="Igrave" unicode="&#xcc;" horiz-adv-x="264" 
d="M68 0v654h128v-654h-128zM108 713l-129 157h124l107 -157h-102z" />
    <glyph glyph-name="Iacute" unicode="&#xcd;" horiz-adv-x="264" 
d="M68 0v654h128v-654h-128zM55 713l107 157h124l-129 -157h-102z" />
    <glyph glyph-name="Icircumflex" unicode="&#xce;" horiz-adv-x="264" 
d="M68 0v654h128v-654h-128zM207 713l-74 91h-2l-74 -91h-101l115 157h122l115 -157h-101z" />
    <glyph glyph-name="Idieresis" unicode="&#xcf;" horiz-adv-x="264" 
d="M68 0v654h128v-654h-128zM232 717q-29 0 -49 20t-20 49t20 49t49 20t49.5 -20t20.5 -49t-20.5 -49t-49.5 -20zM32 717q-29 0 -49 20t-20 49t20 49t49 20t49 -20t20 -49t-20 -49t-49 -20z" />
    <glyph glyph-name="Eth" unicode="&#xd0;" horiz-adv-x="690" 
d="M75 0v275h-60v114h60v265h232q86 0 151 -23.5t109 -66.5t66.5 -103.5t22.5 -133.5q0 -74 -22.5 -134t-66.5 -103t-109 -66.5t-151 -23.5h-232zM307 118q57 0 98 15t68 42t40 65.5t13 86.5q0 95 -53 151.5t-166 56.5h-104v-146h159v-114h-159v-157h104z" />
    <glyph glyph-name="Ntilde" unicode="&#xd1;" horiz-adv-x="660" 
d="M480 0v394q0 73 -37.5 113.5t-112.5 40.5t-112.5 -40.5t-37.5 -113.5v-394h-128v394q0 63 18.5 113.5t53.5 86t87 54.5t119 19t119 -19t87 -54.5t53.5 -86t18.5 -113.5v-394h-128zM515 861q-14 -146 -116 -146q-26 0 -44 8.5t-32.5 18t-26.5 18t-27 8.5q-36 0 -43 -54
h-81q14 146 116 146q26 0 44 -8.5t32 -18t26.5 -18t27.5 -8.5q35 0 43 54h81z" />
    <glyph glyph-name="Ograve" unicode="&#xd2;" horiz-adv-x="764" 
d="M730 327q0 -74 -25.5 -136t-72 -107.5t-110.5 -71t-140 -25.5q-77 0 -140.5 25.5t-110 71t-72 107.5t-25.5 136q0 73 25.5 135.5t72 108t110 71t140.5 25.5q76 0 140 -25.5t110.5 -71t72 -108t25.5 -135.5zM382 105q49 0 89 16.5t68.5 46.5t44.5 70.5t16 88.5t-16 88.5
t-44.5 70t-68.5 46t-89 16.5t-89 -16.5t-68.5 -46t-44.5 -70t-16 -88.5t16 -88.5t44.5 -70.5t68.5 -46.5t89 -16.5zM357 713l-129 157h124l107 -157h-102z" />
    <glyph glyph-name="Oacute" unicode="&#xd3;" horiz-adv-x="764" 
d="M730 327q0 -74 -25.5 -136t-72 -107.5t-110.5 -71t-140 -25.5q-77 0 -140.5 25.5t-110 71t-72 107.5t-25.5 136q0 73 25.5 135.5t72 108t110 71t140.5 25.5q76 0 140 -25.5t110.5 -71t72 -108t25.5 -135.5zM382 105q49 0 89 16.5t68.5 46.5t44.5 70.5t16 88.5t-16 88.5
t-44.5 70t-68.5 46t-89 16.5t-89 -16.5t-68.5 -46t-44.5 -70t-16 -88.5t16 -88.5t44.5 -70.5t68.5 -46.5t89 -16.5zM304 713l107 157h124l-129 -157h-102z" />
    <glyph glyph-name="Ocircumflex" unicode="&#xd4;" horiz-adv-x="764" 
d="M730 327q0 -74 -25.5 -136t-72 -107.5t-110.5 -71t-140 -25.5q-77 0 -140.5 25.5t-110 71t-72 107.5t-25.5 136q0 73 25.5 135.5t72 108t110 71t140.5 25.5q76 0 140 -25.5t110.5 -71t72 -108t25.5 -135.5zM382 105q49 0 89 16.5t68.5 46.5t44.5 70.5t16 88.5t-16 88.5
t-44.5 70t-68.5 46t-89 16.5t-89 -16.5t-68.5 -46t-44.5 -70t-16 -88.5t16 -88.5t44.5 -70.5t68.5 -46.5t89 -16.5zM457 713l-74 91h-2l-74 -91h-101l115 157h122l115 -157h-101z" />
    <glyph glyph-name="Otilde" unicode="&#xd5;" horiz-adv-x="764" 
d="M730 327q0 -74 -25.5 -136t-72 -107.5t-110.5 -71t-140 -25.5q-77 0 -140.5 25.5t-110 71t-72 107.5t-25.5 136q0 73 25.5 135.5t72 108t110 71t140.5 25.5q76 0 140 -25.5t110.5 -71t72 -108t25.5 -135.5zM382 105q49 0 89 16.5t68.5 46.5t44.5 70.5t16 88.5t-16 88.5
t-44.5 70t-68.5 46t-89 16.5t-89 -16.5t-68.5 -46t-44.5 -70t-16 -88.5t16 -88.5t44.5 -70.5t68.5 -46.5t89 -16.5zM567 861q-14 -146 -116 -146q-26 0 -44 8.5t-32.5 18t-26.5 18t-27 8.5q-36 0 -43 -54h-81q14 146 116 146q26 0 44 -8.5t32 -18t26.5 -18t27.5 -8.5
q35 0 43 54h81z" />
    <glyph glyph-name="Odieresis" unicode="&#xd6;" horiz-adv-x="764" 
d="M730 327q0 -74 -25.5 -136t-72 -107.5t-110.5 -71t-140 -25.5q-77 0 -140.5 25.5t-110 71t-72 107.5t-25.5 136q0 73 25.5 135.5t72 108t110 71t140.5 25.5q76 0 140 -25.5t110.5 -71t72 -108t25.5 -135.5zM382 105q49 0 89 16.5t68.5 46.5t44.5 70.5t16 88.5t-16 88.5
t-44.5 70t-68.5 46t-89 16.5t-89 -16.5t-68.5 -46t-44.5 -70t-16 -88.5t16 -88.5t44.5 -70.5t68.5 -46.5t89 -16.5zM481 717q-29 0 -49 20t-20 49t20 49t49 20t49.5 -20t20.5 -49t-20.5 -49t-49.5 -20zM281 717q-29 0 -49 20t-20 49t20 49t49 20t49 -20t20 -49t-20 -49
t-49 -20z" />
    <glyph glyph-name="multiply" unicode="&#xd7;" horiz-adv-x="562" 
d="M281 189l-154 -154l-73 73l154 154l-154 154l73 73l154 -154l154 154l73 -73l-154 -154l154 -154l-73 -73z" />
    <glyph glyph-name="Oslash" unicode="&#xd8;" horiz-adv-x="764" 
d="M34 0l83 99q-40 45 -61.5 102.5t-21.5 125.5q0 73 25.5 135.5t72 108t110 71t140.5 25.5q49 0 93 -11t82 -31l25 29h148l-83 -99q39 -45 61 -102.5t22 -125.5q0 -74 -25.5 -136t-72 -107.5t-110.5 -71t-140 -25.5q-50 0 -94 11t-82 31l-24 -29h-148zM382 105
q49 0 89 16.5t68.5 46.5t44.5 70.5t16 88.5q0 71 -36 127h-2l-275 -329v-2q20 -8 44 -13t51 -5zM164 327q0 -37 8.5 -69.5t26.5 -58.5h2l275 328v2q-44 19 -94 19q-49 0 -89 -16.5t-68.5 -46t-44.5 -70t-16 -88.5z" />
    <glyph glyph-name="Ugrave" unicode="&#xd9;" horiz-adv-x="655" 
d="M479 654h125v-394q0 -63 -18 -113.5t-53 -86t-86 -54.5t-117 -19q-67 0 -119 19t-87 54.5t-53.5 86t-18.5 113.5v394h128v-394q0 -73 37 -114t112 -41q76 0 113 41t37 114v394zM303 713l-129 157h124l107 -157h-102z" />
    <glyph glyph-name="Uacute" unicode="&#xda;" horiz-adv-x="655" 
d="M479 654h125v-394q0 -63 -18 -113.5t-53 -86t-86 -54.5t-117 -19q-67 0 -119 19t-87 54.5t-53.5 86t-18.5 113.5v394h128v-394q0 -73 37 -114t112 -41q76 0 113 41t37 114v394zM250 713l107 157h124l-129 -157h-102z" />
    <glyph glyph-name="Ucircumflex" unicode="&#xdb;" horiz-adv-x="655" 
d="M479 654h125v-394q0 -63 -18 -113.5t-53 -86t-86 -54.5t-117 -19q-67 0 -119 19t-87 54.5t-53.5 86t-18.5 113.5v394h128v-394q0 -73 37 -114t112 -41q76 0 113 41t37 114v394zM402 713l-74 91h-2l-74 -91h-101l115 157h122l115 -157h-101z" />
    <glyph glyph-name="Udieresis" unicode="&#xdc;" horiz-adv-x="655" 
d="M479 654h125v-394q0 -63 -18 -113.5t-53 -86t-86 -54.5t-117 -19q-67 0 -119 19t-87 54.5t-53.5 86t-18.5 113.5v394h128v-394q0 -73 37 -114t112 -41q76 0 113 41t37 114v394zM427 717q-29 0 -49 20t-20 49t20 49t49 20t49.5 -20t20.5 -49t-20.5 -49t-49.5 -20zM227 717
q-29 0 -49 20t-20 49t20 49t49 20t49 -20t20 -49t-20 -49t-49 -20z" />
    <glyph glyph-name="Yacute" unicode="&#xdd;" horiz-adv-x="651" 
d="M263 0v276l-250 378h151l161 -262h2l163 262h148l-247 -375v-279h-128zM247 713l107 157h124l-129 -157h-102z" />
    <glyph glyph-name="Thorn" unicode="&#xde;" horiz-adv-x="603" 
d="M67 0v654h128v-78h144q60 0 105.5 -17t75.5 -46.5t45 -70t15 -88.5t-15 -89t-45 -70.5t-75.5 -46.5t-105.5 -17h-144v-131h-128zM339 250q61 0 86 29.5t25 74.5t-25 74t-86 29h-144v-207h144z" />
    <glyph glyph-name="germandbls" unicode="&#xdf;" horiz-adv-x="616" 
d="M421 383q85 -14 125 -67t40 -128q0 -43 -13 -79.5t-38.5 -63.5t-64.5 -42.5t-90 -15.5q-77 0 -125.5 33t-68.5 91h-2v-111h-119v505q0 54 16 95t44.5 68.5t68.5 41t88 13.5t88 -13.5t68.5 -38.5t44 -61t15.5 -80q0 -52 -20.5 -88t-56.5 -57v-2zM266 308v107h16
q44 0 71.5 24t27.5 74q0 51 -27.5 75t-71.5 24q-43 0 -70.5 -25t-27.5 -82v-325h94q2 -38 25.5 -62.5t68.5 -24.5q47 0 70.5 27t23.5 75q0 55 -34.5 84t-109.5 29h-56z" />
    <glyph glyph-name="agrave" unicode="&#xe0;" 
d="M559 0h-109v92h-2q-20 -48 -66 -76.5t-109 -28.5q-44 0 -88 16t-78.5 48.5t-56 81t-21.5 114.5q0 56 19.5 104t55 82.5t84 54t107.5 19.5q58 0 107 -19t83.5 -53.5t54 -83t19.5 -108.5v-243zM295 98q66 0 105.5 41.5t39.5 107.5t-39.5 107.5t-105.5 41.5t-106 -41.5
t-40 -107.5t40 -107.5t106 -41.5zM275 563l-129 157h124l107 -157h-102z" />
    <glyph glyph-name="aacute" unicode="&#xe1;" 
d="M559 0h-109v92h-2q-20 -48 -66 -76.5t-109 -28.5q-44 0 -88 16t-78.5 48.5t-56 81t-21.5 114.5q0 56 19.5 104t55 82.5t84 54t107.5 19.5q58 0 107 -19t83.5 -53.5t54 -83t19.5 -108.5v-243zM295 98q66 0 105.5 41.5t39.5 107.5t-39.5 107.5t-105.5 41.5t-106 -41.5
t-40 -107.5t40 -107.5t106 -41.5zM222 563l107 157h124l-129 -157h-102z" />
    <glyph glyph-name="acircumflex" unicode="&#xe2;" 
d="M559 0h-109v92h-2q-20 -48 -66 -76.5t-109 -28.5q-44 0 -88 16t-78.5 48.5t-56 81t-21.5 114.5q0 56 19.5 104t55 82.5t84 54t107.5 19.5q58 0 107 -19t83.5 -53.5t54 -83t19.5 -108.5v-243zM295 98q66 0 105.5 41.5t39.5 107.5t-39.5 107.5t-105.5 41.5t-106 -41.5
t-40 -107.5t40 -107.5t106 -41.5zM375 563l-74 91h-2l-74 -91h-101l115 157h122l115 -157h-101z" />
    <glyph glyph-name="atilde" unicode="&#xe3;" 
d="M559 0h-109v92h-2q-20 -48 -66 -76.5t-109 -28.5q-44 0 -88 16t-78.5 48.5t-56 81t-21.5 114.5q0 56 19.5 104t55 82.5t84 54t107.5 19.5q58 0 107 -19t83.5 -53.5t54 -83t19.5 -108.5v-243zM295 98q66 0 105.5 41.5t39.5 107.5t-39.5 107.5t-105.5 41.5t-106 -41.5
t-40 -107.5t40 -107.5t106 -41.5zM485 711q-14 -146 -116 -146q-26 0 -44 8.5t-32.5 18t-26.5 18t-27 8.5q-36 0 -43 -54h-81q14 146 116 146q26 0 44 -8.5t32 -18t26.5 -18t27.5 -8.5q35 0 43 54h81z" />
    <glyph glyph-name="adieresis" unicode="&#xe4;" 
d="M559 0h-109v92h-2q-20 -48 -66 -76.5t-109 -28.5q-44 0 -88 16t-78.5 48.5t-56 81t-21.5 114.5q0 56 19.5 104t55 82.5t84 54t107.5 19.5q58 0 107 -19t83.5 -53.5t54 -83t19.5 -108.5v-243zM295 98q66 0 105.5 41.5t39.5 107.5t-39.5 107.5t-105.5 41.5t-106 -41.5
t-40 -107.5t40 -107.5t106 -41.5zM399 567q-29 0 -49 20t-20 49t20 49t49 20t49.5 -20t20.5 -49t-20.5 -49t-49.5 -20zM199 567q-29 0 -49 20t-20 49t20 49t49 20t49 -20t20 -49t-20 -49t-49 -20z" />
    <glyph glyph-name="aring" unicode="&#xe5;" 
d="M559 0h-109v92h-2q-20 -48 -66 -76.5t-109 -28.5q-44 0 -88 16t-78.5 48.5t-56 81t-21.5 114.5q0 56 19.5 104t55 82.5t84 54t107.5 19.5q58 0 107 -19t83.5 -53.5t54 -83t19.5 -108.5v-243zM295 98q66 0 105.5 41.5t39.5 107.5t-39.5 107.5t-105.5 41.5t-106 -41.5
t-40 -107.5t40 -107.5t106 -41.5zM300 544q-45 0 -74.5 29.5t-29.5 74.5t29.5 74.5t74.5 29.5q22 0 41.5 -8t33 -22t21.5 -33t8 -41t-8 -41t-21.5 -33t-33 -22t-41.5 -8zM335 648q0 16 -10 26t-25 10t-25 -10t-10 -26q0 -15 10 -25t25 -10t25 10t10 25z" />
    <glyph glyph-name="ae" unicode="&#xe6;" horiz-adv-x="999" 
d="M295 98q66 0 105.5 41.5t39.5 107.5t-39.5 107.5t-105.5 41.5t-106 -41.5t-40 -107.5t40 -107.5t106 -41.5zM950 142q-14 -35 -36.5 -63.5t-52 -49t-64 -31.5t-71.5 -11q-60 0 -103.5 25.5t-65.5 69.5h-2v-82h-110v82h-2q-23 -43 -66.5 -69t-103.5 -26q-44 0 -88 16
t-78.5 48.5t-56 81t-21.5 114.5q0 56 19 104t53 82.5t82 54t105 19.5q76 0 129 -30t83 -81h2q30 51 83 81t129 30q57 0 104 -19.5t81 -54t52.5 -82.5t18.5 -104v-42h-405v-2q12 -50 48.5 -79t92.5 -29q80 0 117 47h127zM706 399q-53 0 -88.5 -26t-49.5 -71v-2h276v2
q-14 45 -50 71t-88 26z" />
    <glyph glyph-name="ccedilla" unicode="&#xe7;" horiz-adv-x="580" 
d="M217 -85l31 73v2q-50 7 -90 29t-69 56t-44.5 77.5t-15.5 94.5q0 56 19.5 104t55 82.5t84 54t107.5 19.5q50 0 93 -14.5t76 -40.5t55.5 -62.5t31.5 -80.5h-120q-16 40 -51.5 63.5t-84.5 23.5q-66 0 -106 -41.5t-40 -107.5t40 -107.5t106 -41.5q49 0 84.5 23.5t51.5 63.5
h120q-9 -42 -30 -77.5t-52 -61t-71.5 -41t-87.5 -17.5l-18 -42v-1q5 2 10 2h10q38 0 61.5 -22t23.5 -59q0 -43 -30 -66.5t-81 -23.5q-50 0 -79.5 21.5t-30.5 61.5h74q1 -14 11.5 -20t24.5 -6q16 0 26 7t10 24q0 14 -9 22t-22 8t-23 -6z" />
    <glyph glyph-name="egrave" unicode="&#xe8;" horiz-adv-x="588" 
d="M154 205v-2q12 -50 48.5 -79t92.5 -29q80 0 117 47h127q-28 -71 -92 -113t-152 -42q-59 0 -107.5 19.5t-84 54t-55 82.5t-19.5 104t19.5 104t55 82.5t84 54t107.5 19.5q58 0 107 -19.5t83.5 -54t54 -82.5t19.5 -104v-42h-405zM295 399q-53 0 -88.5 -26t-49.5 -71v-2h276
v2q-14 45 -50 71t-88 26zM271 563l-129 157h124l107 -157h-102z" />
    <glyph glyph-name="eacute" unicode="&#xe9;" horiz-adv-x="588" 
d="M154 205v-2q12 -50 48.5 -79t92.5 -29q80 0 117 47h127q-28 -71 -92 -113t-152 -42q-59 0 -107.5 19.5t-84 54t-55 82.5t-19.5 104t19.5 104t55 82.5t84 54t107.5 19.5q58 0 107 -19.5t83.5 -54t54 -82.5t19.5 -104v-42h-405zM295 399q-53 0 -88.5 -26t-49.5 -71v-2h276
v2q-14 45 -50 71t-88 26zM218 563l107 157h124l-129 -157h-102z" />
    <glyph glyph-name="ecircumflex" unicode="&#xea;" horiz-adv-x="588" 
d="M154 205v-2q12 -50 48.5 -79t92.5 -29q80 0 117 47h127q-28 -71 -92 -113t-152 -42q-59 0 -107.5 19.5t-84 54t-55 82.5t-19.5 104t19.5 104t55 82.5t84 54t107.5 19.5q58 0 107 -19.5t83.5 -54t54 -82.5t19.5 -104v-42h-405zM295 399q-53 0 -88.5 -26t-49.5 -71v-2h276
v2q-14 45 -50 71t-88 26zM370 563l-74 91h-2l-74 -91h-101l115 157h122l115 -157h-101z" />
    <glyph glyph-name="edieresis" unicode="&#xeb;" horiz-adv-x="588" 
d="M154 205v-2q12 -50 48.5 -79t92.5 -29q80 0 117 47h127q-28 -71 -92 -113t-152 -42q-59 0 -107.5 19.5t-84 54t-55 82.5t-19.5 104t19.5 104t55 82.5t84 54t107.5 19.5q58 0 107 -19.5t83.5 -54t54 -82.5t19.5 -104v-42h-405zM295 399q-53 0 -88.5 -26t-49.5 -71v-2h276
v2q-14 45 -50 71t-88 26zM395 567q-29 0 -49 20t-20 49t20 49t49 20t49.5 -20t20.5 -49t-20.5 -49t-49.5 -20zM195 567q-29 0 -49 20t-20 49t20 49t49 20t49 -20t20 -49t-20 -49t-49 -20z" />
    <glyph glyph-name="igrave" unicode="&#xec;" horiz-adv-x="251" 
d="M101 563l-129 157h124l107 -157h-102zM66 0v494h119v-494h-119z" />
    <glyph glyph-name="iacute" unicode="&#xed;" horiz-adv-x="251" 
d="M48 563l107 157h124l-129 -157h-102zM66 0v494h119v-494h-119z" />
    <glyph glyph-name="icircumflex" unicode="&#xee;" horiz-adv-x="251" 
d="M66 0v494h119v-494h-119zM201 563l-74 91h-2l-74 -91h-101l115 157h122l115 -157h-101z" />
    <glyph glyph-name="idieresis" unicode="&#xef;" horiz-adv-x="251" 
d="M220 567q-29 0 -49 20t-20 49t20 49t49 20t49 -20t20 -49t-20 -49t-49 -20zM31 567q-29 0 -49 20t-20 49t20 49t49 20t49 -20t20 -49t-20 -49t-49 -20zM66 0v494h119v-494h-119z" />
    <glyph glyph-name="eth" unicode="&#xf0;" horiz-adv-x="590" 
d="M561 267q0 -65 -19.5 -117t-55 -88t-84.5 -55.5t-107 -19.5q-59 0 -107.5 19.5t-84 54t-55 82.5t-19.5 104t17 101t47 77t70.5 49t86.5 17q82 0 145 -51h2q-19 31 -44 59t-54 53l-211 -59v75l133 37v2q-62 34 -132 57l136 46q71 -26 129 -67l137 39v-75l-69 -19v-2
q64 -63 101.5 -144.5t37.5 -174.5zM295 98q66 0 105.5 41.5t39.5 107.5t-39.5 107.5t-105.5 41.5t-106 -41.5t-40 -107.5t40 -107.5t106 -41.5z" />
    <glyph glyph-name="ntilde" unicode="&#xf1;" horiz-adv-x="586" 
d="M418 0v257q0 71 -34 105t-91 34t-91 -34t-34 -105v-257h-119v257q0 62 17.5 108.5t49.5 78t77 47.5t100 16t100 -15.5t77 -47t49.5 -78.5t17.5 -109v-257h-119zM478 711q-14 -146 -116 -146q-26 0 -44 8.5t-32.5 18t-26.5 18t-27 8.5q-36 0 -43 -54h-81q14 146 116 146
q26 0 44 -8.5t32 -18t26.5 -18t27.5 -8.5q35 0 43 54h81z" />
    <glyph glyph-name="ograve" unicode="&#xf2;" horiz-adv-x="590" 
d="M561 247q0 -56 -19.5 -104t-55 -82.5t-84.5 -54t-107 -19.5q-59 0 -107.5 19.5t-84 54t-55 82.5t-19.5 104t19.5 104t55 82.5t84 54t107.5 19.5q58 0 107 -19.5t84.5 -54t55 -82.5t19.5 -104zM295 98q66 0 105.5 41.5t39.5 107.5t-39.5 107.5t-105.5 41.5t-106 -41.5
t-40 -107.5t40 -107.5t106 -41.5zM270 563l-129 157h124l107 -157h-102z" />
    <glyph glyph-name="oacute" unicode="&#xf3;" horiz-adv-x="590" 
d="M561 247q0 -56 -19.5 -104t-55 -82.5t-84.5 -54t-107 -19.5q-59 0 -107.5 19.5t-84 54t-55 82.5t-19.5 104t19.5 104t55 82.5t84 54t107.5 19.5q58 0 107 -19.5t84.5 -54t55 -82.5t19.5 -104zM295 98q66 0 105.5 41.5t39.5 107.5t-39.5 107.5t-105.5 41.5t-106 -41.5
t-40 -107.5t40 -107.5t106 -41.5zM217 563l107 157h124l-129 -157h-102z" />
    <glyph glyph-name="ocircumflex" unicode="&#xf4;" horiz-adv-x="590" 
d="M561 247q0 -56 -19.5 -104t-55 -82.5t-84.5 -54t-107 -19.5q-59 0 -107.5 19.5t-84 54t-55 82.5t-19.5 104t19.5 104t55 82.5t84 54t107.5 19.5q58 0 107 -19.5t84.5 -54t55 -82.5t19.5 -104zM295 98q66 0 105.5 41.5t39.5 107.5t-39.5 107.5t-105.5 41.5t-106 -41.5
t-40 -107.5t40 -107.5t106 -41.5zM370 563l-74 91h-2l-74 -91h-101l115 157h122l115 -157h-101z" />
    <glyph glyph-name="otilde" unicode="&#xf5;" horiz-adv-x="590" 
d="M561 247q0 -56 -19.5 -104t-55 -82.5t-84.5 -54t-107 -19.5q-59 0 -107.5 19.5t-84 54t-55 82.5t-19.5 104t19.5 104t55 82.5t84 54t107.5 19.5q58 0 107 -19.5t84.5 -54t55 -82.5t19.5 -104zM295 98q66 0 105.5 41.5t39.5 107.5t-39.5 107.5t-105.5 41.5t-106 -41.5
t-40 -107.5t40 -107.5t106 -41.5zM480 711q-14 -146 -116 -146q-26 0 -44 8.5t-32.5 18t-26.5 18t-27 8.5q-36 0 -43 -54h-81q14 146 116 146q26 0 44 -8.5t32 -18t26.5 -18t27.5 -8.5q35 0 43 54h81z" />
    <glyph glyph-name="odieresis" unicode="&#xf6;" horiz-adv-x="590" 
d="M561 247q0 -56 -19.5 -104t-55 -82.5t-84.5 -54t-107 -19.5q-59 0 -107.5 19.5t-84 54t-55 82.5t-19.5 104t19.5 104t55 82.5t84 54t107.5 19.5q58 0 107 -19.5t84.5 -54t55 -82.5t19.5 -104zM295 98q66 0 105.5 41.5t39.5 107.5t-39.5 107.5t-105.5 41.5t-106 -41.5
t-40 -107.5t40 -107.5t106 -41.5zM394 567q-29 0 -49 20t-20 49t20 49t49 20t49.5 -20t20.5 -49t-20.5 -49t-49.5 -20zM194 567q-29 0 -49 20t-20 49t20 49t49 20t49 -20t20 -49t-20 -49t-49 -20z" />
    <glyph glyph-name="divide" unicode="&#xf7;" horiz-adv-x="562" 
d="M281 -1q-30 0 -51 20.5t-21 50.5q0 31 21 51.5t51 20.5t51 -20.5t21 -51.5q0 -30 -21 -50.5t-51 -20.5zM281 382q-30 0 -51 20.5t-21 51.5q0 30 21 50.5t51 20.5t51 -20.5t21 -50.5q0 -31 -21 -51.5t-51 -20.5zM48 211v102h466v-102h-466z" />
    <glyph glyph-name="oslash" unicode="&#xf8;" horiz-adv-x="590" 
d="M29 0l61 74q-29 34 -45 78t-16 95q0 56 19.5 104t55 82.5t84 54t107.5 19.5q36 0 68.5 -8t61.5 -22l14 17h122l-62 -75q29 -34 45.5 -77.5t16.5 -94.5q0 -56 -19.5 -104t-55 -82.5t-84.5 -54t-107 -19.5q-37 0 -69.5 8t-60.5 22l-14 -17h-122zM149 247q0 -43 19 -78h2
l179 216v2q-26 9 -54 9q-66 0 -106 -41.5t-40 -107.5zM295 98q66 0 105.5 41.5t39.5 107.5q0 42 -19 77h-2l-178 -215v-2q24 -9 54 -9z" />
    <glyph glyph-name="ugrave" unicode="&#xf9;" horiz-adv-x="586" 
d="M418 494h119v-257q0 -62 -17.5 -108.5t-49.5 -78t-77 -47.5t-100 -16t-100 15.5t-77 47t-49.5 78.5t-17.5 109v257h119v-257q0 -71 34 -105t91 -34t91 34t34 105v257zM268 563l-129 157h124l107 -157h-102z" />
    <glyph glyph-name="uacute" unicode="&#xfa;" horiz-adv-x="586" 
d="M418 494h119v-257q0 -62 -17.5 -108.5t-49.5 -78t-77 -47.5t-100 -16t-100 15.5t-77 47t-49.5 78.5t-17.5 109v257h119v-257q0 -71 34 -105t91 -34t91 34t34 105v257zM215 563l107 157h124l-129 -157h-102z" />
    <glyph glyph-name="ucircumflex" unicode="&#xfb;" horiz-adv-x="586" 
d="M418 494h119v-257q0 -62 -17.5 -108.5t-49.5 -78t-77 -47.5t-100 -16t-100 15.5t-77 47t-49.5 78.5t-17.5 109v257h119v-257q0 -71 34 -105t91 -34t91 34t34 105v257zM368 563l-74 91h-2l-74 -91h-101l115 157h122l115 -157h-101z" />
    <glyph glyph-name="udieresis" unicode="&#xfc;" horiz-adv-x="586" 
d="M418 494h119v-257q0 -62 -17.5 -108.5t-49.5 -78t-77 -47.5t-100 -16t-100 15.5t-77 47t-49.5 78.5t-17.5 109v257h119v-257q0 -71 34 -105t91 -34t91 34t34 105v257zM392 567q-29 0 -49 20t-20 49t20 49t49 20t49.5 -20t20.5 -49t-20.5 -49t-49.5 -20zM192 567
q-29 0 -49 20t-20 49t20 49t49 20t49 -20t20 -49t-20 -49t-49 -20z" />
    <glyph glyph-name="yacute" unicode="&#xfd;" horiz-adv-x="602" 
d="M418 72h-2q-22 -37 -59 -58t-86 -21q-43 0 -83 14.5t-71 44.5t-49.5 77.5t-18.5 113.5v251h119v-251q0 -71 34 -105t91 -34q55 0 90 35t35 104v251h119v-477q0 -65 -19 -110.5t-52.5 -74.5t-78.5 -42.5t-96 -13.5q-43 0 -81.5 10t-70 31t-54 53t-32.5 76h119
q29 -67 119 -67q61 0 94 31.5t33 103.5v58zM223 563l107 157h124l-129 -157h-102z" />
    <glyph glyph-name="thorn" unicode="&#xfe;" horiz-adv-x="624" 
d="M65 -211v921h119v-285h2q24 38 66.5 60t98.5 22q44 0 88 -16t78.5 -48.5t56 -81t21.5 -114.5t-21.5 -114.5t-56 -81t-78.5 -48.5t-88 -16q-56 0 -98.5 22t-66.5 60h-2v-280h-119zM329 98q66 0 106 41.5t40 107.5t-40 107.5t-106 41.5t-105.5 -41.5t-39.5 -107.5
t39.5 -107.5t105.5 -41.5z" />
    <glyph glyph-name="ydieresis" unicode="&#xff;" horiz-adv-x="602" 
d="M418 72h-2q-22 -37 -59 -58t-86 -21q-43 0 -83 14.5t-71 44.5t-49.5 77.5t-18.5 113.5v251h119v-251q0 -71 34 -105t91 -34q55 0 90 35t35 104v251h119v-477q0 -65 -19 -110.5t-52.5 -74.5t-78.5 -42.5t-96 -13.5q-43 0 -81.5 10t-70 31t-54 53t-32.5 76h119
q29 -67 119 -67q61 0 94 31.5t33 103.5v58zM400 567q-29 0 -49 20t-20 49t20 49t49 20t49.5 -20t20.5 -49t-20.5 -49t-49.5 -20zM200 567q-29 0 -49 20t-20 49t20 49t49 20t49 -20t20 -49t-20 -49t-49 -20z" />
    <glyph glyph-name="Amacron" unicode="&#x100;" horiz-adv-x="675" 
d="M495 0v196h-319v-196h-125v383q0 66 18.5 118.5t54.5 89t89.5 56.5t122.5 20t122.5 -20t90 -56.5t55.5 -89t19 -118.5v-383h-128zM495 383q0 79 -39.5 122t-120.5 43t-120 -43t-39 -122v-71h319v71zM181 729v82h312v-82h-312z" />
    <glyph glyph-name="amacron" unicode="&#x101;" 
d="M559 0h-109v92h-2q-20 -48 -66 -76.5t-109 -28.5q-44 0 -88 16t-78.5 48.5t-56 81t-21.5 114.5q0 56 19.5 104t55 82.5t84 54t107.5 19.5q58 0 107 -19t83.5 -53.5t54 -83t19.5 -108.5v-243zM295 98q66 0 105.5 41.5t39.5 107.5t-39.5 107.5t-105.5 41.5t-106 -41.5
t-40 -107.5t40 -107.5t106 -41.5zM144 579v82h312v-82h-312z" />
    <glyph glyph-name="Abreve" unicode="&#x102;" horiz-adv-x="675" 
d="M495 0v196h-319v-196h-125v383q0 66 18.5 118.5t54.5 89t89.5 56.5t122.5 20t122.5 -20t90 -56.5t55.5 -89t19 -118.5v-383h-128zM495 383q0 79 -39.5 122t-120.5 43t-120 -43t-39 -122v-71h319v71zM493 866q-1 -75 -43.5 -116t-112.5 -41t-112.5 41t-43.5 116h85
q3 -39 22 -55.5t49 -16.5t49 16.5t22 55.5h85z" />
    <glyph glyph-name="abreve" unicode="&#x103;" 
d="M559 0h-109v92h-2q-20 -48 -66 -76.5t-109 -28.5q-44 0 -88 16t-78.5 48.5t-56 81t-21.5 114.5q0 56 19.5 104t55 82.5t84 54t107.5 19.5q58 0 107 -19t83.5 -53.5t54 -83t19.5 -108.5v-243zM295 98q66 0 105.5 41.5t39.5 107.5t-39.5 107.5t-105.5 41.5t-106 -41.5
t-40 -107.5t40 -107.5t106 -41.5zM456 716q-1 -75 -43.5 -116t-112.5 -41t-112.5 41t-43.5 116h85q3 -39 22 -55.5t49 -16.5t49 16.5t22 55.5h85z" />
    <glyph glyph-name="Aogonek" unicode="&#x104;" horiz-adv-x="675" 
d="M631 -181q-14 -17 -41 -30t-65 -13q-55 0 -87.5 27t-32.5 72q0 42 22.5 75t67.5 53v193h-319v-196h-125v383q0 66 18.5 118.5t54.5 89t89.5 56.5t122.5 20t122.5 -20t90 -56.5t55.5 -89t19 -118.5v-383h-34q-47 -8 -72.5 -31t-25.5 -54q0 -28 16 -39.5t36 -11.5
q48 0 88 43v-88zM495 383q0 79 -39.5 122t-120.5 43t-120 -43t-39 -122v-71h319v71z" />
    <glyph glyph-name="aogonek" unicode="&#x105;" 
d="M567 -181q-14 -17 -41 -30t-65 -13q-55 0 -87.5 27t-32.5 72q0 47 27 81.5t82 54.5v81h-2q-20 -48 -66 -76.5t-109 -28.5q-44 0 -88 16t-78.5 48.5t-56 81t-21.5 114.5q0 56 19.5 104t55 82.5t84 54t107.5 19.5q58 0 107 -19t83.5 -53.5t54 -83t19.5 -108.5v-243h-34
q-47 -8 -72.5 -31t-25.5 -54q0 -28 16 -39.5t36 -11.5q48 0 88 43v-88zM295 98q66 0 105.5 41.5t39.5 107.5t-39.5 107.5t-105.5 41.5t-106 -41.5t-40 -107.5t40 -107.5t106 -41.5z" />
    <glyph glyph-name="Cacute" unicode="&#x106;" horiz-adv-x="751" 
d="M584 417q-23 60 -76 95.5t-126 35.5q-49 0 -89 -16.5t-68.5 -46t-44.5 -70t-16 -88.5t16 -88.5t44.5 -70.5t68.5 -46.5t89 -16.5q73 0 126 36t76 96h135q-14 -56 -44.5 -102t-74 -79t-99 -51t-119.5 -18q-77 0 -140.5 25.5t-110 71t-72 107.5t-25.5 136q0 73 25.5 135.5
t72 108t110 71t140.5 25.5q64 0 119.5 -18t99 -51t74 -79t44.5 -102h-135zM304 713l107 157h124l-129 -157h-102z" />
    <glyph glyph-name="cacute" unicode="&#x107;" horiz-adv-x="580" 
d="M431 309q-16 40 -51.5 63.5t-84.5 23.5q-66 0 -106 -41.5t-40 -107.5t40 -107.5t106 -41.5q49 0 84.5 23.5t51.5 63.5h120q-9 -44 -31.5 -80.5t-55.5 -62.5t-76 -40.5t-93 -14.5q-59 0 -107.5 19.5t-84 54t-55 82.5t-19.5 104t19.5 104t55 82.5t84 54t107.5 19.5
q50 0 93 -14.5t76 -40.5t55.5 -62.5t31.5 -80.5h-120zM216 563l107 157h124l-129 -157h-102z" />
    <glyph glyph-name="Ccircumflex" unicode="&#x108;" horiz-adv-x="751" 
d="M584 417q-23 60 -76 95.5t-126 35.5q-49 0 -89 -16.5t-68.5 -46t-44.5 -70t-16 -88.5t16 -88.5t44.5 -70.5t68.5 -46.5t89 -16.5q73 0 126 36t76 96h135q-14 -56 -44.5 -102t-74 -79t-99 -51t-119.5 -18q-77 0 -140.5 25.5t-110 71t-72 107.5t-25.5 136q0 73 25.5 135.5
t72 108t110 71t140.5 25.5q64 0 119.5 -18t99 -51t74 -79t44.5 -102h-135zM456 713l-74 91h-2l-74 -91h-101l115 157h122l115 -157h-101z" />
    <glyph glyph-name="ccircumflex" unicode="&#x109;" horiz-adv-x="580" 
d="M431 309q-16 40 -51.5 63.5t-84.5 23.5q-66 0 -106 -41.5t-40 -107.5t40 -107.5t106 -41.5q49 0 84.5 23.5t51.5 63.5h120q-9 -44 -31.5 -80.5t-55.5 -62.5t-76 -40.5t-93 -14.5q-59 0 -107.5 19.5t-84 54t-55 82.5t-19.5 104t19.5 104t55 82.5t84 54t107.5 19.5
q50 0 93 -14.5t76 -40.5t55.5 -62.5t31.5 -80.5h-120zM369 563l-74 91h-2l-74 -91h-101l115 157h122l115 -157h-101z" />
    <glyph glyph-name="Cdotaccent" unicode="&#x10a;" horiz-adv-x="751" 
d="M584 417q-23 60 -76 95.5t-126 35.5q-49 0 -89 -16.5t-68.5 -46t-44.5 -70t-16 -88.5t16 -88.5t44.5 -70.5t68.5 -46.5t89 -16.5q73 0 126 36t76 96h135q-14 -56 -44.5 -102t-74 -79t-99 -51t-119.5 -18q-77 0 -140.5 25.5t-110 71t-72 107.5t-25.5 136q0 73 25.5 135.5
t72 108t110 71t140.5 25.5q64 0 119.5 -18t99 -51t74 -79t44.5 -102h-135zM381 717q-29 0 -49 20t-20 49t20 49t49 20t49 -20t20 -49t-20 -49t-49 -20z" />
    <glyph glyph-name="cdotaccent" unicode="&#x10b;" horiz-adv-x="580" 
d="M431 309q-16 40 -51.5 63.5t-84.5 23.5q-66 0 -106 -41.5t-40 -107.5t40 -107.5t106 -41.5q49 0 84.5 23.5t51.5 63.5h120q-9 -44 -31.5 -80.5t-55.5 -62.5t-76 -40.5t-93 -14.5q-59 0 -107.5 19.5t-84 54t-55 82.5t-19.5 104t19.5 104t55 82.5t84 54t107.5 19.5
q50 0 93 -14.5t76 -40.5t55.5 -62.5t31.5 -80.5h-120zM294 567q-29 0 -49 20t-20 49t20 49t49 20t49 -20t20 -49t-20 -49t-49 -20z" />
    <glyph glyph-name="Ccaron" unicode="&#x10c;" horiz-adv-x="751" 
d="M584 417q-23 60 -76 95.5t-126 35.5q-49 0 -89 -16.5t-68.5 -46t-44.5 -70t-16 -88.5t16 -88.5t44.5 -70.5t68.5 -46.5t89 -16.5q73 0 126 36t76 96h135q-14 -56 -44.5 -102t-74 -79t-99 -51t-119.5 -18q-77 0 -140.5 25.5t-110 71t-72 107.5t-25.5 136q0 73 25.5 135.5
t72 108t110 71t140.5 25.5q64 0 119.5 -18t99 -51t74 -79t44.5 -102h-135zM320 713l-115 157h101l74 -91h2l74 91h101l-115 -157h-122z" />
    <glyph glyph-name="ccaron" unicode="&#x10d;" horiz-adv-x="580" 
d="M431 309q-16 40 -51.5 63.5t-84.5 23.5q-66 0 -106 -41.5t-40 -107.5t40 -107.5t106 -41.5q49 0 84.5 23.5t51.5 63.5h120q-9 -44 -31.5 -80.5t-55.5 -62.5t-76 -40.5t-93 -14.5q-59 0 -107.5 19.5t-84 54t-55 82.5t-19.5 104t19.5 104t55 82.5t84 54t107.5 19.5
q50 0 93 -14.5t76 -40.5t55.5 -62.5t31.5 -80.5h-120zM233 563l-115 157h101l74 -91h2l74 91h101l-115 -157h-122z" />
    <glyph glyph-name="Dcaron" unicode="&#x10e;" horiz-adv-x="682" 
d="M67 0v654h232q86 0 151 -23.5t109 -66.5t66.5 -103.5t22.5 -133.5q0 -74 -22.5 -134t-66.5 -103t-109 -66.5t-151 -23.5h-232zM299 118q57 0 98 15t68 42t40 65.5t13 86.5q0 95 -53 151.5t-166 56.5h-104v-417h104zM253 713l-115 157h101l74 -91h2l74 91h101l-115 -157
h-122z" />
    <glyph glyph-name="dcaron" unicode="&#x10f;" horiz-adv-x="767" 
d="M559 251q0 -60 -19.5 -109t-54 -83.5t-83.5 -53t-107 -18.5q-59 0 -107.5 19.5t-84 54t-55 82.5t-19.5 104q0 66 21.5 114.5t56 81t78.5 48.5t88 16q56 0 98.5 -22t66.5 -60h2v285h119v-459zM295 98q66 0 105.5 41.5t39.5 107.5t-39.5 107.5t-105.5 41.5t-106 -41.5
t-40 -107.5t40 -107.5t106 -41.5zM626 417l37 116q-19 7 -30.5 24t-11.5 40q0 29 20.5 49.5t49.5 20.5t49.5 -20.5t20.5 -49.5q0 -19 -9 -38l-64 -142h-62z" />
    <glyph glyph-name="Dcroat" unicode="&#x110;" horiz-adv-x="690" 
d="M75 0v275h-60v114h60v265h232q86 0 151 -23.5t109 -66.5t66.5 -103.5t22.5 -133.5q0 -74 -22.5 -134t-66.5 -103t-109 -66.5t-151 -23.5h-232zM307 118q57 0 98 15t68 42t40 65.5t13 86.5q0 95 -53 151.5t-166 56.5h-104v-146h159v-114h-159v-157h104z" />
    <glyph glyph-name="dcroat" unicode="&#x111;" 
d="M559 626h49v-88h-49v-287q0 -60 -19.5 -109t-54 -83.5t-83.5 -53t-107 -18.5q-59 0 -107.5 19.5t-84 54t-55 82.5t-19.5 104q0 66 21.5 114.5t56 81t78.5 48.5t88 16q56 0 98.5 -22t66.5 -60h2v113h-137v88h137v84h119v-84zM295 98q66 0 105.5 41.5t39.5 107.5
t-39.5 107.5t-105.5 41.5t-106 -41.5t-40 -107.5t40 -107.5t106 -41.5z" />
    <glyph glyph-name="Emacron" unicode="&#x112;" horiz-adv-x="595" 
d="M195 275v-157h354v-118h-482v654h482v-119h-354v-146h296v-114h-296zM153 729v82h312v-82h-312z" />
    <glyph glyph-name="emacron" unicode="&#x113;" horiz-adv-x="588" 
d="M154 205v-2q12 -50 48.5 -79t92.5 -29q80 0 117 47h127q-28 -71 -92 -113t-152 -42q-59 0 -107.5 19.5t-84 54t-55 82.5t-19.5 104t19.5 104t55 82.5t84 54t107.5 19.5q58 0 107 -19.5t83.5 -54t54 -82.5t19.5 -104v-42h-405zM295 399q-53 0 -88.5 -26t-49.5 -71v-2h276
v2q-14 45 -50 71t-88 26zM139 579v82h312v-82h-312z" />
    <glyph glyph-name="Ebreve" unicode="&#x114;" horiz-adv-x="595" 
d="M195 275v-157h354v-118h-482v654h482v-119h-354v-146h296v-114h-296zM465 866q-1 -75 -43.5 -116t-112.5 -41t-112.5 41t-43.5 116h85q3 -39 22 -55.5t49 -16.5t49 16.5t22 55.5h85z" />
    <glyph glyph-name="ebreve" unicode="&#x115;" horiz-adv-x="588" 
d="M154 205v-2q12 -50 48.5 -79t92.5 -29q80 0 117 47h127q-28 -71 -92 -113t-152 -42q-59 0 -107.5 19.5t-84 54t-55 82.5t-19.5 104t19.5 104t55 82.5t84 54t107.5 19.5q58 0 107 -19.5t83.5 -54t54 -82.5t19.5 -104v-42h-405zM295 399q-53 0 -88.5 -26t-49.5 -71v-2h276
v2q-14 45 -50 71t-88 26zM451 716q-1 -75 -43.5 -116t-112.5 -41t-112.5 41t-43.5 116h85q3 -39 22 -55.5t49 -16.5t49 16.5t22 55.5h85z" />
    <glyph glyph-name="Edotaccent" unicode="&#x116;" horiz-adv-x="595" 
d="M195 275v-157h354v-118h-482v654h482v-119h-354v-146h296v-114h-296zM309 717q-29 0 -49 20t-20 49t20 49t49 20t49 -20t20 -49t-20 -49t-49 -20z" />
    <glyph glyph-name="edotaccent" unicode="&#x117;" horiz-adv-x="588" 
d="M154 205v-2q12 -50 48.5 -79t92.5 -29q80 0 117 47h127q-28 -71 -92 -113t-152 -42q-59 0 -107.5 19.5t-84 54t-55 82.5t-19.5 104t19.5 104t55 82.5t84 54t107.5 19.5q58 0 107 -19.5t83.5 -54t54 -82.5t19.5 -104v-42h-405zM295 399q-53 0 -88.5 -26t-49.5 -71v-2h276
v2q-14 45 -50 71t-88 26zM295 567q-29 0 -49 20t-20 49t20 49t49 20t49 -20t20 -49t-20 -49t-49 -20z" />
    <glyph glyph-name="Eogonek" unicode="&#x118;" horiz-adv-x="595" 
d="M549 -181q-14 -17 -41 -30t-65 -13q-55 0 -87.5 27t-32.5 72q0 82 78 123v2h-334v654h482v-119h-354v-146h296v-114h-296v-157h354v-118h-42q-47 -8 -72.5 -31t-25.5 -54q0 -28 16 -39.5t36 -11.5q48 0 88 43v-88z" />
    <glyph glyph-name="eogonek" unicode="&#x119;" horiz-adv-x="588" 
d="M330 -10q-18 -3 -35 -3q-59 0 -107.5 19.5t-84 54t-55 82.5t-19.5 104t19.5 104t55 82.5t84 54t107.5 19.5q58 0 107 -19.5t83.5 -54t54 -82.5t19.5 -104v-42h-405v-2q12 -50 48.5 -79t92.5 -29q80 0 117 47h127q-33 -84 -113 -125q-32 -17 -50 -44.5t-18 -57.5
q0 -28 16 -39.5t36 -11.5q49 0 88 43v-88q-14 -17 -41 -30t-65 -13q-54 0 -87 27t-33 72q0 35 14.5 62.5t43.5 50.5v2zM295 399q-53 0 -88.5 -26t-49.5 -71v-2h276v2q-14 45 -50 71t-88 26z" />
    <glyph glyph-name="Ecaron" unicode="&#x11a;" horiz-adv-x="595" 
d="M195 275v-157h354v-118h-482v654h482v-119h-354v-146h296v-114h-296zM248 713l-115 157h101l74 -91h2l74 91h101l-115 -157h-122z" />
    <glyph glyph-name="ecaron" unicode="&#x11b;" horiz-adv-x="588" 
d="M154 205v-2q12 -50 48.5 -79t92.5 -29q80 0 117 47h127q-28 -71 -92 -113t-152 -42q-59 0 -107.5 19.5t-84 54t-55 82.5t-19.5 104t19.5 104t55 82.5t84 54t107.5 19.5q58 0 107 -19.5t83.5 -54t54 -82.5t19.5 -104v-42h-405zM295 399q-53 0 -88.5 -26t-49.5 -71v-2h276
v2q-14 45 -50 71t-88 26zM234 563l-115 157h101l74 -91h2l74 91h101l-115 -157h-122z" />
    <glyph glyph-name="Gcircumflex" unicode="&#x11c;" horiz-adv-x="757" 
d="M569 446q-26 48 -75 75t-112 27q-49 0 -89 -16.5t-68.5 -46t-44.5 -70t-16 -88.5t16 -88.5t44.5 -70.5t68.5 -46.5t89 -16.5q78 0 131.5 35t76.5 99v2h-248v114h387v-61q-6 -67 -33.5 -123.5t-73.5 -97t-107 -63.5t-133 -23q-77 0 -140.5 25.5t-110 71t-72 107.5
t-25.5 136q0 73 25.5 135.5t72 108t110 71t140.5 25.5q60 0 112.5 -16t95 -45t73.5 -69.5t48 -90.5h-142zM456 713l-74 91h-2l-74 -91h-101l115 157h122l115 -157h-101z" />
    <glyph glyph-name="gcircumflex" unicode="&#x11d;" 
d="M440 75h-2q-24 -38 -66.5 -60t-98.5 -22q-44 0 -88 15t-78.5 46.5t-56 79t-21.5 113.5q0 56 19.5 104t55 82.5t84 54t107.5 19.5q58 0 107 -19t83.5 -53.5t54 -83t19.5 -108.5v-204q0 -71 -20.5 -121t-56 -81.5t-83.5 -46t-102 -14.5q-46 0 -86.5 10t-73.5 31t-56 53
t-35 76h120q15 -35 49 -51t82 -16q66 0 104.5 35t38.5 121v40zM440 247q0 66 -39.5 107.5t-105.5 41.5t-106 -41.5t-40 -107.5t40 -104.5t106 -38.5t105.5 38.5t39.5 104.5zM375 563l-74 91h-2l-74 -91h-101l115 157h122l115 -157h-101z" />
    <glyph glyph-name="Gbreve" unicode="&#x11e;" horiz-adv-x="757" 
d="M569 446q-26 48 -75 75t-112 27q-49 0 -89 -16.5t-68.5 -46t-44.5 -70t-16 -88.5t16 -88.5t44.5 -70.5t68.5 -46.5t89 -16.5q78 0 131.5 35t76.5 99v2h-248v114h387v-61q-6 -67 -33.5 -123.5t-73.5 -97t-107 -63.5t-133 -23q-77 0 -140.5 25.5t-110 71t-72 107.5
t-25.5 136q0 73 25.5 135.5t72 108t110 71t140.5 25.5q60 0 112.5 -16t95 -45t73.5 -69.5t48 -90.5h-142zM537 866q-1 -75 -43.5 -116t-112.5 -41t-112.5 41t-43.5 116h85q3 -39 22 -55.5t49 -16.5t49 16.5t22 55.5h85z" />
    <glyph glyph-name="gbreve" unicode="&#x11f;" 
d="M440 75h-2q-24 -38 -66.5 -60t-98.5 -22q-44 0 -88 15t-78.5 46.5t-56 79t-21.5 113.5q0 56 19.5 104t55 82.5t84 54t107.5 19.5q58 0 107 -19t83.5 -53.5t54 -83t19.5 -108.5v-204q0 -71 -20.5 -121t-56 -81.5t-83.5 -46t-102 -14.5q-46 0 -86.5 10t-73.5 31t-56 53
t-35 76h120q15 -35 49 -51t82 -16q66 0 104.5 35t38.5 121v40zM440 247q0 66 -39.5 107.5t-105.5 41.5t-106 -41.5t-40 -107.5t40 -104.5t106 -38.5t105.5 38.5t39.5 104.5zM456 716q-1 -75 -43.5 -116t-112.5 -41t-112.5 41t-43.5 116h85q3 -39 22 -55.5t49 -16.5t49 16.5
t22 55.5h85z" />
    <glyph glyph-name="Gdotaccent" unicode="&#x120;" horiz-adv-x="757" 
d="M569 446q-26 48 -75 75t-112 27q-49 0 -89 -16.5t-68.5 -46t-44.5 -70t-16 -88.5t16 -88.5t44.5 -70.5t68.5 -46.5t89 -16.5q78 0 131.5 35t76.5 99v2h-248v114h387v-61q-6 -67 -33.5 -123.5t-73.5 -97t-107 -63.5t-133 -23q-77 0 -140.5 25.5t-110 71t-72 107.5
t-25.5 136q0 73 25.5 135.5t72 108t110 71t140.5 25.5q60 0 112.5 -16t95 -45t73.5 -69.5t48 -90.5h-142zM381 717q-29 0 -49 20t-20 49t20 49t49 20t49 -20t20 -49t-20 -49t-49 -20z" />
    <glyph glyph-name="gdotaccent" unicode="&#x121;" 
d="M440 75h-2q-24 -38 -66.5 -60t-98.5 -22q-44 0 -88 15t-78.5 46.5t-56 79t-21.5 113.5q0 56 19.5 104t55 82.5t84 54t107.5 19.5q58 0 107 -19t83.5 -53.5t54 -83t19.5 -108.5v-204q0 -71 -20.5 -121t-56 -81.5t-83.5 -46t-102 -14.5q-46 0 -86.5 10t-73.5 31t-56 53
t-35 76h120q15 -35 49 -51t82 -16q66 0 104.5 35t38.5 121v40zM440 247q0 66 -39.5 107.5t-105.5 41.5t-106 -41.5t-40 -107.5t40 -104.5t106 -38.5t105.5 38.5t39.5 104.5zM300 567q-29 0 -49 20t-20 49t20 49t49 20t49 -20t20 -49t-20 -49t-49 -20z" />
    <glyph glyph-name="Gcommaaccent" unicode="&#x122;" horiz-adv-x="757" 
d="M569 446q-26 48 -75 75t-112 27q-49 0 -89 -16.5t-68.5 -46t-44.5 -70t-16 -88.5t16 -88.5t44.5 -70.5t68.5 -46.5t89 -16.5q78 0 131.5 35t76.5 99v2h-248v114h387v-61q-6 -67 -33.5 -123.5t-73.5 -97t-107 -63.5t-133 -23q-77 0 -140.5 25.5t-110 71t-72 107.5
t-25.5 136q0 73 25.5 135.5t72 108t110 71t140.5 25.5q60 0 112.5 -16t95 -45t73.5 -69.5t48 -90.5h-142zM324 -257l29 66q-17 7 -28.5 23.5t-11.5 37.5q0 29 19.5 49t48.5 20t48.5 -20t19.5 -49q0 -9 -2.5 -17.5t-9.5 -20.5l-53 -89h-60z" />
    <glyph glyph-name="gcommaaccent" unicode="&#x123;" 
d="M357 763l-29 -66q17 -7 28.5 -23.5t11.5 -37.5q0 -29 -19.5 -49t-48.5 -20t-48.5 20t-19.5 49q0 9 2.5 17.5t9.5 20.5l53 89h60zM440 75h-2q-24 -38 -66.5 -60t-98.5 -22q-44 0 -88 15t-78.5 46.5t-56 79t-21.5 113.5q0 56 19.5 104t55 82.5t84 54t107.5 19.5
q58 0 107 -19t83.5 -53.5t54 -83t19.5 -108.5v-204q0 -71 -20.5 -121t-56 -81.5t-83.5 -46t-102 -14.5q-46 0 -86.5 10t-73.5 31t-56 53t-35 76h120q15 -35 49 -51t82 -16q66 0 104.5 35t38.5 121v40zM440 247q0 66 -39.5 107.5t-105.5 41.5t-106 -41.5t-40 -107.5
t40 -104.5t106 -38.5t105.5 38.5t39.5 104.5z" />
    <glyph glyph-name="Hcircumflex" unicode="&#x124;" horiz-adv-x="703" 
d="M508 0v273h-313v-273h-128v654h128v-263h313v263h128v-654h-128zM426 713l-74 91h-2l-74 -91h-101l115 157h122l115 -157h-101z" />
    <glyph glyph-name="hcircumflex" unicode="&#x125;" horiz-adv-x="602" 
d="M184 0h-119v710h119v-282h2q22 36 59 57.5t86 21.5q43 0 83 -14.5t71 -44.5t49.5 -77.5t18.5 -113.5v-257h-119v257q0 71 -34 105t-91 34q-55 0 -90 -35t-35 -104v-257zM201 763l-74 91h-2l-74 -91h-101l115 157h122l115 -157h-101z" />
    <glyph glyph-name="Hbar" unicode="&#x126;" horiz-adv-x="703" 
d="M508 0v273h-313v-273h-128v473h-57v86h57v95h128v-95h313v95h128v-95h57v-86h-57v-473h-128zM508 391v82h-313v-82h313z" />
    <glyph glyph-name="hbar" unicode="&#x127;" horiz-adv-x="602" 
d="M184 0h-119v538h-65v88h65v84h119v-84h121v-88h-121v-110h2q22 36 59 57.5t86 21.5q43 0 83 -14.5t71 -44.5t49.5 -77.5t18.5 -113.5v-257h-119v257q0 71 -34 105t-91 34q-55 0 -90 -35t-35 -104v-257z" />
    <glyph glyph-name="Itilde" unicode="&#x128;" horiz-adv-x="264" 
d="M68 0v654h128v-654h-128zM317 861q-14 -146 -116 -146q-26 0 -44 8.5t-32.5 18t-26.5 18t-27 8.5q-36 0 -43 -54h-81q14 146 116 146q26 0 44 -8.5t32 -18t26.5 -18t27.5 -8.5q35 0 43 54h81z" />
    <glyph glyph-name="itilde" unicode="&#x129;" horiz-adv-x="251" 
d="M310 711q-14 -146 -116 -146q-26 0 -44 8.5t-32.5 18t-26.5 18t-27 8.5q-36 0 -43 -54h-81q14 146 116 146q26 0 44 -8.5t32 -18t26.5 -18t27.5 -8.5q35 0 43 54h81zM66 0v494h119v-494h-119z" />
    <glyph glyph-name="Imacron" unicode="&#x12a;" horiz-adv-x="264" 
d="M68 0v654h128v-654h-128zM-24 729v82h312v-82h-312z" />
    <glyph glyph-name="imacron" unicode="&#x12b;" horiz-adv-x="251" 
d="M2 579v82h247v-82h-247zM66 0v494h119v-494h-119z" />
    <glyph glyph-name="Ibreve" unicode="&#x12c;" horiz-adv-x="264" 
d="M68 0v654h128v-654h-128zM288 866q-1 -75 -43.5 -116t-112.5 -41t-112.5 41t-43.5 116h85q3 -39 22 -55.5t49 -16.5t49 16.5t22 55.5h85z" />
    <glyph glyph-name="ibreve" unicode="&#x12d;" horiz-adv-x="251" 
d="M281 716q-1 -75 -43.5 -116t-112.5 -41t-112.5 41t-43.5 116h85q3 -39 22 -55.5t49 -16.5t49 16.5t22 55.5h85zM66 0v494h119v-494h-119z" />
    <glyph glyph-name="Iogonek" unicode="&#x12e;" horiz-adv-x="264" 
d="M183 0q-40 -11 -63 -32t-23 -53q0 -28 16 -39.5t36 -11.5q48 0 88 43v-88q-14 -17 -41 -30t-65 -13q-55 0 -88 27t-33 72q0 81 75 123v2h-17v654h128v-654h-13z" />
    <glyph glyph-name="iogonek" unicode="&#x12f;" horiz-adv-x="251" 
d="M178 0q-39 -11 -62.5 -32t-23.5 -53q0 -28 16 -39.5t36 -11.5q48 0 88 43v-88q-14 -17 -41 -30t-65 -13q-55 0 -88 27t-33 72q0 81 75 123v2h-14v494h119v-494h-7zM125 553q-33 0 -56 23t-23 56q0 34 23 57t56 23q34 0 56.5 -23t22.5 -57q0 -33 -22.5 -56t-56.5 -23z" />
    <glyph glyph-name="Idotaccent" unicode="&#x130;" horiz-adv-x="264" 
d="M68 0v654h128v-654h-128zM132 717q-29 0 -49 20t-20 49t20 49t49 20t49 -20t20 -49t-20 -49t-49 -20z" />
    <glyph glyph-name="dotlessi" unicode="&#x131;" horiz-adv-x="251" 
d="M66 0v494h119v-494h-119z" />
    <glyph glyph-name="Jcircumflex" unicode="&#x134;" horiz-adv-x="570" 
d="M390 654h128v-422q0 -56 -16.5 -101t-48 -77t-78.5 -49.5t-107 -17.5q-59 0 -105 17.5t-77.5 49.5t-48 77t-16.5 101v5h125v-5q0 -60 30 -93.5t93 -33.5q61 0 91 33.5t30 93.5v422zM510 713l-74 91h-2l-74 -91h-101l115 157h122l115 -157h-101z" />
    <glyph glyph-name="jcircumflex" unicode="&#x135;" horiz-adv-x="251" 
d="M-18 -218v103h15q38 0 53.5 18.5t15.5 61.5v529h119v-521q0 -94 -41 -142.5t-136 -48.5h-26zM201 563l-74 91h-2l-74 -91h-101l115 157h122l115 -157h-101z" />
    <glyph glyph-name="Kcommaaccent" unicode="&#x136;" horiz-adv-x="614" 
d="M67 0v654h128v-284h2l232 284h161l-278 -321l288 -333h-165l-238 292h-2v-292h-128zM250 -257l29 66q-17 7 -28.5 23.5t-11.5 37.5q0 29 19.5 49t48.5 20t48.5 -20t19.5 -49q0 -9 -2.5 -17.5t-9.5 -20.5l-53 -89h-60z" />
    <glyph glyph-name="kcommaaccent" unicode="&#x137;" horiz-adv-x="555" 
d="M65 0v710h119v-430h2l194 214h152l-232 -242l241 -252h-155l-200 221h-2v-221h-119zM219 -257l29 66q-17 7 -28.5 23.5t-11.5 37.5q0 29 19.5 49t48.5 20t48.5 -20t19.5 -49q0 -9 -2.5 -17.5t-9.5 -20.5l-53 -89h-60z" />
    <glyph glyph-name="kgreenlandic" unicode="&#x138;" horiz-adv-x="555" 
d="M184 0h-119v494h119v-214h2l194 214h152l-232 -242l241 -252h-155l-200 221h-2v-221z" />
    <glyph glyph-name="Lacute" unicode="&#x139;" horiz-adv-x="563" 
d="M67 0v654h128v-536h342v-118h-470zM56 713l107 157h124l-129 -157h-102z" />
    <glyph glyph-name="lacute" unicode="&#x13a;" horiz-adv-x="251" 
d="M66 0v710h119v-710h-119zM48 763l107 157h124l-129 -157h-102z" />
    <glyph glyph-name="Lcommaaccent" unicode="&#x13b;" horiz-adv-x="563" 
d="M67 0v654h128v-536h342v-118h-470zM234 -257l29 66q-17 7 -28.5 23.5t-11.5 37.5q0 29 19.5 49t48.5 20t48.5 -20t19.5 -49q0 -9 -2.5 -17.5t-9.5 -20.5l-53 -89h-60z" />
    <glyph glyph-name="lcommaaccent" unicode="&#x13c;" horiz-adv-x="251" 
d="M66 0v710h119v-710h-119zM69 -257l29 66q-17 7 -28.5 23.5t-11.5 37.5q0 29 19.5 49t48.5 20t48.5 -20t19.5 -49q0 -9 -2.5 -17.5t-9.5 -20.5l-53 -89h-60z" />
    <glyph glyph-name="Lcaron" unicode="&#x13d;" horiz-adv-x="563" 
d="M67 0v654h128v-536h342v-118h-470zM282 417l37 116q-19 7 -30.5 24t-11.5 40q0 29 20.5 49.5t49.5 20.5t49.5 -20.5t20.5 -49.5q0 -19 -9 -38l-64 -142h-62z" />
    <glyph glyph-name="lcaron" unicode="&#x13e;" horiz-adv-x="400" 
d="M66 0v710h119v-710h-119zM259 417l37 116q-19 7 -30.5 24t-11.5 40q0 29 20.5 49.5t49.5 20.5t49.5 -20.5t20.5 -49.5q0 -19 -9 -38l-64 -142h-62z" />
    <glyph glyph-name="Ldot" unicode="&#x13f;" horiz-adv-x="563" 
d="M67 0v654h128v-536h342v-118h-470zM413 292q-33 0 -56 23t-23 56t23 56t56 23t56 -23t23 -56t-23 -56t-56 -23z" />
    <glyph glyph-name="ldot" unicode="&#x140;" horiz-adv-x="413" 
d="M66 0v710h119v-710h-119zM332 248q-33 0 -56 23t-23 56t23 56t56 23t56 -23t23 -56t-23 -56t-56 -23z" />
    <glyph glyph-name="Lslash" unicode="&#x141;" horiz-adv-x="563" 
d="M67 0v187h-2l-65 -43v135l67 44v331h128v-245h2l207 137v-136l-209 -138v-154h342v-118h-470z" />
    <glyph glyph-name="lslash" unicode="&#x142;" horiz-adv-x="261" 
d="M71 0v278h-2l-64 -40v132l66 41v299h119v-223h2l84 53v-131l-86 -55v-354h-119z" />
    <glyph glyph-name="Nacute" unicode="&#x143;" horiz-adv-x="660" 
d="M480 0v394q0 73 -37.5 113.5t-112.5 40.5t-112.5 -40.5t-37.5 -113.5v-394h-128v394q0 63 18.5 113.5t53.5 86t87 54.5t119 19t119 -19t87 -54.5t53.5 -86t18.5 -113.5v-394h-128zM252 713l107 157h124l-129 -157h-102z" />
    <glyph glyph-name="nacute" unicode="&#x144;" horiz-adv-x="586" 
d="M418 0v257q0 71 -34 105t-91 34t-91 -34t-34 -105v-257h-119v257q0 62 17.5 108.5t49.5 78t77 47.5t100 16t100 -15.5t77 -47t49.5 -78.5t17.5 -109v-257h-119zM215 563l107 157h124l-129 -157h-102z" />
    <glyph glyph-name="Ncommaaccent" unicode="&#x145;" horiz-adv-x="660" 
d="M480 0v394q0 73 -37.5 113.5t-112.5 40.5t-112.5 -40.5t-37.5 -113.5v-394h-128v394q0 63 18.5 113.5t53.5 86t87 54.5t119 19t119 -19t87 -54.5t53.5 -86t18.5 -113.5v-394h-128zM273 -257l29 66q-17 7 -28.5 23.5t-11.5 37.5q0 29 19.5 49t48.5 20t48.5 -20t19.5 -49
q0 -9 -2.5 -17.5t-9.5 -20.5l-53 -89h-60z" />
    <glyph glyph-name="ncommaaccent" unicode="&#x146;" horiz-adv-x="586" 
d="M418 0v257q0 71 -34 105t-91 34t-91 -34t-34 -105v-257h-119v257q0 62 17.5 108.5t49.5 78t77 47.5t100 16t100 -15.5t77 -47t49.5 -78.5t17.5 -109v-257h-119zM236 -257l29 66q-17 7 -28.5 23.5t-11.5 37.5q0 29 19.5 49t48.5 20t48.5 -20t19.5 -49q0 -9 -2.5 -17.5
t-9.5 -20.5l-53 -89h-60z" />
    <glyph glyph-name="Ncaron" unicode="&#x147;" horiz-adv-x="660" 
d="M480 0v394q0 73 -37.5 113.5t-112.5 40.5t-112.5 -40.5t-37.5 -113.5v-394h-128v394q0 63 18.5 113.5t53.5 86t87 54.5t119 19t119 -19t87 -54.5t53.5 -86t18.5 -113.5v-394h-128zM269 713l-115 157h101l74 -91h2l74 91h101l-115 -157h-122z" />
    <glyph glyph-name="ncaron" unicode="&#x148;" horiz-adv-x="586" 
d="M418 0v257q0 71 -34 105t-91 34t-91 -34t-34 -105v-257h-119v257q0 62 17.5 108.5t49.5 78t77 47.5t100 16t100 -15.5t77 -47t49.5 -78.5t17.5 -109v-257h-119zM232 563l-115 157h101l74 -91h2l74 91h101l-115 -157h-122z" />
    <glyph glyph-name="napostrophe" unicode="&#x149;" horiz-adv-x="724" 
d="M556 0v257q0 71 -34 105t-91 34t-91 -34t-34 -105v-257h-119v257q0 62 17.5 108.5t49.5 78t77 47.5t100 16t100 -15.5t77 -47t49.5 -78.5t17.5 -109v-257h-119zM50 356l42 130q-22 8 -35 27.5t-13 44.5q0 33 23 56t56 23t56 -23t23 -56q0 -19 -10 -42l-72 -160h-70z" />
    <glyph glyph-name="Eng" unicode="&#x14a;" horiz-adv-x="660" 
d="M395 -218v118h20q35 0 50 17t15 57v420q0 73 -37.5 113.5t-112.5 40.5t-112.5 -40.5t-37.5 -113.5v-394h-128v394q0 63 18.5 113.5t53.5 86t87 54.5t119 19t119 -19t87 -54.5t53.5 -86t18.5 -113.5v-421q0 -94 -41 -142.5t-136 -48.5h-36z" />
    <glyph glyph-name="eng" unicode="&#x14b;" horiz-adv-x="586" 
d="M334 -218v103h15q38 0 53.5 18.5t15.5 61.5v292q0 71 -34 105t-91 34t-91 -34t-34 -105v-257h-119v257q0 62 17.5 108.5t49.5 78t77 47.5t100 16t100 -15.5t77 -47t49.5 -78.5t17.5 -109v-284q0 -93 -41 -142t-136 -49h-26z" />
    <glyph glyph-name="Omacron" unicode="&#x14c;" horiz-adv-x="764" 
d="M730 327q0 -74 -25.5 -136t-72 -107.5t-110.5 -71t-140 -25.5q-77 0 -140.5 25.5t-110 71t-72 107.5t-25.5 136q0 73 25.5 135.5t72 108t110 71t140.5 25.5q76 0 140 -25.5t110.5 -71t72 -108t25.5 -135.5zM382 105q49 0 89 16.5t68.5 46.5t44.5 70.5t16 88.5t-16 88.5
t-44.5 70t-68.5 46t-89 16.5t-89 -16.5t-68.5 -46t-44.5 -70t-16 -88.5t16 -88.5t44.5 -70.5t68.5 -46.5t89 -16.5zM226 729v82h312v-82h-312z" />
    <glyph glyph-name="omacron" unicode="&#x14d;" horiz-adv-x="590" 
d="M561 247q0 -56 -19.5 -104t-55 -82.5t-84.5 -54t-107 -19.5q-59 0 -107.5 19.5t-84 54t-55 82.5t-19.5 104t19.5 104t55 82.5t84 54t107.5 19.5q58 0 107 -19.5t84.5 -54t55 -82.5t19.5 -104zM295 98q66 0 105.5 41.5t39.5 107.5t-39.5 107.5t-105.5 41.5t-106 -41.5
t-40 -107.5t40 -107.5t106 -41.5zM139 579v82h312v-82h-312z" />
    <glyph glyph-name="Obreve" unicode="&#x14e;" horiz-adv-x="764" 
d="M730 327q0 -74 -25.5 -136t-72 -107.5t-110.5 -71t-140 -25.5q-77 0 -140.5 25.5t-110 71t-72 107.5t-25.5 136q0 73 25.5 135.5t72 108t110 71t140.5 25.5q76 0 140 -25.5t110.5 -71t72 -108t25.5 -135.5zM382 105q49 0 89 16.5t68.5 46.5t44.5 70.5t16 88.5t-16 88.5
t-44.5 70t-68.5 46t-89 16.5t-89 -16.5t-68.5 -46t-44.5 -70t-16 -88.5t16 -88.5t44.5 -70.5t68.5 -46.5t89 -16.5zM538 866q-1 -75 -43.5 -116t-112.5 -41t-112.5 41t-43.5 116h85q3 -39 22 -55.5t49 -16.5t49 16.5t22 55.5h85z" />
    <glyph glyph-name="obreve" unicode="&#x14f;" horiz-adv-x="590" 
d="M561 247q0 -56 -19.5 -104t-55 -82.5t-84.5 -54t-107 -19.5q-59 0 -107.5 19.5t-84 54t-55 82.5t-19.5 104t19.5 104t55 82.5t84 54t107.5 19.5q58 0 107 -19.5t84.5 -54t55 -82.5t19.5 -104zM295 98q66 0 105.5 41.5t39.5 107.5t-39.5 107.5t-105.5 41.5t-106 -41.5
t-40 -107.5t40 -107.5t106 -41.5zM451 716q-1 -75 -43.5 -116t-112.5 -41t-112.5 41t-43.5 116h85q3 -39 22 -55.5t49 -16.5t49 16.5t22 55.5h85z" />
    <glyph glyph-name="Ohungarumlaut" unicode="&#x150;" horiz-adv-x="764" 
d="M730 327q0 -74 -25.5 -136t-72 -107.5t-110.5 -71t-140 -25.5q-77 0 -140.5 25.5t-110 71t-72 107.5t-25.5 136q0 73 25.5 135.5t72 108t110 71t140.5 25.5q76 0 140 -25.5t110.5 -71t72 -108t25.5 -135.5zM382 105q49 0 89 16.5t68.5 46.5t44.5 70.5t16 88.5t-16 88.5
t-44.5 70t-68.5 46t-89 16.5t-89 -16.5t-68.5 -46t-44.5 -70t-16 -88.5t16 -88.5t44.5 -70.5t68.5 -46.5t89 -16.5zM210 713l107 157h124l-130 -157h-101zM398 713l107 157h124l-130 -157h-101z" />
    <glyph glyph-name="ohungarumlaut" unicode="&#x151;" horiz-adv-x="590" 
d="M561 247q0 -56 -19.5 -104t-55 -82.5t-84.5 -54t-107 -19.5q-59 0 -107.5 19.5t-84 54t-55 82.5t-19.5 104t19.5 104t55 82.5t84 54t107.5 19.5q58 0 107 -19.5t84.5 -54t55 -82.5t19.5 -104zM295 98q66 0 105.5 41.5t39.5 107.5t-39.5 107.5t-105.5 41.5t-106 -41.5
t-40 -107.5t40 -107.5t106 -41.5zM123 563l107 157h124l-130 -157h-101zM311 563l107 157h124l-130 -157h-101z" />
    <glyph glyph-name="OE" unicode="&#x152;" horiz-adv-x="1124" 
d="M600 0v107h-2q-29 -52 -87 -86t-143 -34q-61 0 -120.5 21t-107 63.5t-77 106t-29.5 149.5q0 85 29.5 149t77 106.5t107 63.5t120.5 21q85 0 143 -34t87 -86h2v107h478v-119h-349v-146h291v-114h-291v-157h349v-118h-478zM382 105q49 0 89 16.5t68.5 46.5t44.5 70.5
t16 88.5t-16 88.5t-44.5 70t-68.5 46t-89 16.5t-89 -16.5t-68.5 -46t-44.5 -70t-16 -88.5t16 -88.5t44.5 -70.5t68.5 -46.5t89 -16.5z" />
    <glyph glyph-name="oe" unicode="&#x153;" horiz-adv-x="999" 
d="M288 507q76 0 129 -30t83 -81h2q30 51 83 81t129 30q57 0 104 -19.5t81 -54t52.5 -82.5t18.5 -104v-42h-405v-2q12 -50 48.5 -79t92.5 -29q80 0 117 47h127q-27 -70 -88.5 -112.5t-147.5 -42.5q-76 0 -129.5 29.5t-83.5 81.5h-2q-30 -51 -82.5 -81t-128.5 -30
q-57 0 -105 19.5t-82 54t-53 82.5t-19 104t19 104t53 82.5t82 54t105 19.5zM295 98q66 0 105.5 41.5t39.5 107.5t-39.5 107.5t-105.5 41.5t-106 -41.5t-40 -107.5t40 -107.5t106 -41.5zM706 399q-53 0 -88.5 -26t-49.5 -71v-2h276v2q-14 45 -50 71t-88 26z" />
    <glyph glyph-name="Racute" unicode="&#x154;" horiz-adv-x="626" 
d="M452 0l-139 221h-118v-221h-128v654h274q62 0 107 -16t74.5 -45t43.5 -68.5t14 -86.5q0 -72 -33 -125.5t-103 -76.5v-2l160 -234h-152zM343 340q61 0 84.5 28t23.5 70t-23.5 69.5t-84.5 27.5h-148v-195h148zM226 713l107 157h124l-129 -157h-102z" />
    <glyph glyph-name="racute" unicode="&#x155;" horiz-adv-x="497" 
d="M364 282v5q0 60 -27 84.5t-71 24.5t-71 -24.5t-27 -84.5v-287h-119v287q0 56 16 97.5t44.5 68.5t68.5 40.5t88 13.5t88 -13.5t68.5 -41t44 -69t15.5 -98.5v-3h-118zM185 563l107 157h124l-129 -157h-102z" />
    <glyph glyph-name="Rcommaaccent" unicode="&#x156;" horiz-adv-x="626" 
d="M452 0l-139 221h-118v-221h-128v654h274q62 0 107 -16t74.5 -45t43.5 -68.5t14 -86.5q0 -72 -33 -125.5t-103 -76.5v-2l160 -234h-152zM343 340q61 0 84.5 28t23.5 70t-23.5 69.5t-84.5 27.5h-148v-195h148zM260 -257l29 66q-17 7 -28.5 23.5t-11.5 37.5q0 29 19.5 49
t48.5 20t48.5 -20t19.5 -49q0 -9 -2.5 -17.5t-9.5 -20.5l-53 -89h-60z" />
    <glyph glyph-name="rcommaaccent" unicode="&#x157;" horiz-adv-x="497" 
d="M364 282v5q0 60 -27 84.5t-71 24.5t-71 -24.5t-27 -84.5v-287h-119v287q0 56 16 97.5t44.5 68.5t68.5 40.5t88 13.5t88 -13.5t68.5 -41t44 -69t15.5 -98.5v-3h-118zM53 -257l29 66q-17 7 -28.5 23.5t-11.5 37.5q0 29 19.5 49t48.5 20t48.5 -20t19.5 -49q0 -9 -2.5 -17.5
t-9.5 -20.5l-53 -89h-60z" />
    <glyph glyph-name="Rcaron" unicode="&#x158;" horiz-adv-x="626" 
d="M452 0l-139 221h-118v-221h-128v654h274q62 0 107 -16t74.5 -45t43.5 -68.5t14 -86.5q0 -72 -33 -125.5t-103 -76.5v-2l160 -234h-152zM343 340q61 0 84.5 28t23.5 70t-23.5 69.5t-84.5 27.5h-148v-195h148zM243 713l-115 157h101l74 -91h2l74 91h101l-115 -157h-122z
" />
    <glyph glyph-name="rcaron" unicode="&#x159;" horiz-adv-x="497" 
d="M364 282v5q0 60 -27 84.5t-71 24.5t-71 -24.5t-27 -84.5v-287h-119v287q0 56 16 97.5t44.5 68.5t68.5 40.5t88 13.5t88 -13.5t68.5 -41t44 -69t15.5 -98.5v-3h-118zM201 563l-115 157h101l74 -91h2l74 91h101l-115 -157h-122z" />
    <glyph glyph-name="Sacute" unicode="&#x15a;" horiz-adv-x="553" 
d="M387 465q-1 38 -28 62t-81 24t-81 -25.5t-27 -61.5q0 -26 15 -40t39.5 -23t56 -14t64 -12t64 -18t56 -31t39.5 -52.5t15 -81.5q0 -48 -17.5 -86t-49.5 -64.5t-76.5 -41t-99.5 -14.5q-54 0 -98.5 14t-76 40t-49.5 63.5t-19 84.5h125q1 -39 30 -63t88 -24q60 0 89 24t29 63
q0 25 -15 40t-39.5 23.5t-55.5 13.5t-64 12t-64 18t-55.5 31.5t-39.5 52.5t-15 81q0 45 16.5 83t47 65.5t73 42.5t94.5 15q51 0 92.5 -14.5t71.5 -41t47.5 -63.5t19.5 -82h-121zM201 713l107 157h124l-129 -157h-102z" />
    <glyph glyph-name="sacute" unicode="&#x15b;" horiz-adv-x="475" 
d="M316 352q-2 23 -22 37t-55 14q-40 0 -59.5 -16t-19.5 -41q0 -22 21 -31t53 -14t68.5 -10t68.5 -20t53 -43t21 -79q0 -35 -14.5 -65t-41.5 -51.5t-65.5 -33.5t-85.5 -12t-85 12t-65 33t-42 50t-16 64h120q1 -25 22.5 -40t63.5 -15q48 0 68.5 16t20.5 42q0 22 -21 30.5
t-53 13t-68.5 9.5t-68.5 19.5t-53 43.5t-21 81q0 35 14 64.5t39.5 51t62 33.5t81.5 12t81 -12t61.5 -33t39.5 -49t15 -61h-118zM161 563l107 157h124l-129 -157h-102z" />
    <glyph glyph-name="Scircumflex" unicode="&#x15c;" horiz-adv-x="553" 
d="M387 465q-1 38 -28 62t-81 24t-81 -25.5t-27 -61.5q0 -26 15 -40t39.5 -23t56 -14t64 -12t64 -18t56 -31t39.5 -52.5t15 -81.5q0 -48 -17.5 -86t-49.5 -64.5t-76.5 -41t-99.5 -14.5q-54 0 -98.5 14t-76 40t-49.5 63.5t-19 84.5h125q1 -39 30 -63t88 -24q60 0 89 24t29 63
q0 25 -15 40t-39.5 23.5t-55.5 13.5t-64 12t-64 18t-55.5 31.5t-39.5 52.5t-15 81q0 45 16.5 83t47 65.5t73 42.5t94.5 15q51 0 92.5 -14.5t71.5 -41t47.5 -63.5t19.5 -82h-121zM354 713l-74 91h-2l-74 -91h-101l115 157h122l115 -157h-101z" />
    <glyph glyph-name="scircumflex" unicode="&#x15d;" horiz-adv-x="475" 
d="M316 352q-2 23 -22 37t-55 14q-40 0 -59.5 -16t-19.5 -41q0 -22 21 -31t53 -14t68.5 -10t68.5 -20t53 -43t21 -79q0 -35 -14.5 -65t-41.5 -51.5t-65.5 -33.5t-85.5 -12t-85 12t-65 33t-42 50t-16 64h120q1 -25 22.5 -40t63.5 -15q48 0 68.5 16t20.5 42q0 22 -21 30.5
t-53 13t-68.5 9.5t-68.5 19.5t-53 43.5t-21 81q0 35 14 64.5t39.5 51t62 33.5t81.5 12t81 -12t61.5 -33t39.5 -49t15 -61h-118zM314 563l-74 91h-2l-74 -91h-101l115 157h122l115 -157h-101z" />
    <glyph glyph-name="Scedilla" unicode="&#x15e;" horiz-adv-x="553" 
d="M201 -85l30 72v2q-91 10 -143.5 62t-54.5 137h125q1 -39 30 -63t88 -24q60 0 89 24t29 63q0 25 -15 40t-39.5 23.5t-55.5 13.5t-64 12t-64 18t-55.5 31.5t-39.5 52.5t-15 81q0 45 16.5 83t47 65.5t73 42.5t94.5 15q51 0 92.5 -14.5t71.5 -41t47.5 -63.5t19.5 -82h-121
q-1 38 -28 62t-81 24t-81 -25.5t-27 -61.5q0 -26 15 -40t39.5 -23t56 -14t64 -12t64 -18t56 -31t39.5 -52.5t15 -81.5q0 -46 -16 -83t-45.5 -63t-71 -41.5t-92.5 -17.5l-18 -41v-1q5 2 10 2h10q38 0 61.5 -22t23.5 -59q0 -43 -30 -66.5t-81 -23.5q-50 0 -79.5 21.5
t-30.5 61.5h74q1 -14 11.5 -20t24.5 -6q16 0 26 7t10 24q0 14 -9 22t-22 8t-23 -6z" />
    <glyph glyph-name="scedilla" unicode="&#x15f;" horiz-adv-x="475" 
d="M163 -85l30 73v2q-75 10 -118 52.5t-45 103.5h120q1 -25 22.5 -40t63.5 -15q48 0 68.5 16t20.5 42q0 22 -21 30.5t-53 13t-68.5 9.5t-68.5 19.5t-53 43.5t-21 81q0 35 14 64.5t39.5 51t62 33.5t81.5 12t81 -12t61.5 -33t39.5 -49t15 -61h-118q-2 23 -22 37t-55 14
q-40 0 -59.5 -16t-19.5 -41q0 -22 21 -31t53 -14t68.5 -10t68.5 -20t53 -43t21 -79q0 -34 -13 -62.5t-38 -49.5t-60 -34t-78 -15l-18 -42v-1q5 2 10 2h10q38 0 61.5 -22t23.5 -59q0 -43 -30 -66.5t-81 -23.5q-50 0 -79.5 21.5t-30.5 61.5h74q1 -14 11.5 -20t24.5 -6
q16 0 26 7t10 24q0 14 -9 22t-22 8t-23 -6z" />
    <glyph glyph-name="Scaron" unicode="&#x160;" horiz-adv-x="553" 
d="M387 465q-1 38 -28 62t-81 24t-81 -25.5t-27 -61.5q0 -26 15 -40t39.5 -23t56 -14t64 -12t64 -18t56 -31t39.5 -52.5t15 -81.5q0 -48 -17.5 -86t-49.5 -64.5t-76.5 -41t-99.5 -14.5q-54 0 -98.5 14t-76 40t-49.5 63.5t-19 84.5h125q1 -39 30 -63t88 -24q60 0 89 24t29 63
q0 25 -15 40t-39.5 23.5t-55.5 13.5t-64 12t-64 18t-55.5 31.5t-39.5 52.5t-15 81q0 45 16.5 83t47 65.5t73 42.5t94.5 15q51 0 92.5 -14.5t71.5 -41t47.5 -63.5t19.5 -82h-121zM218 713l-115 157h101l74 -91h2l74 91h101l-115 -157h-122z" />
    <glyph glyph-name="scaron" unicode="&#x161;" horiz-adv-x="475" 
d="M316 352q-2 23 -22 37t-55 14q-40 0 -59.5 -16t-19.5 -41q0 -22 21 -31t53 -14t68.5 -10t68.5 -20t53 -43t21 -79q0 -35 -14.5 -65t-41.5 -51.5t-65.5 -33.5t-85.5 -12t-85 12t-65 33t-42 50t-16 64h120q1 -25 22.5 -40t63.5 -15q48 0 68.5 16t20.5 42q0 22 -21 30.5
t-53 13t-68.5 9.5t-68.5 19.5t-53 43.5t-21 81q0 35 14 64.5t39.5 51t62 33.5t81.5 12t81 -12t61.5 -33t39.5 -49t15 -61h-118zM178 563l-115 157h101l74 -91h2l74 91h101l-115 -157h-122z" />
    <glyph glyph-name="Tcommaaccent" unicode="&#x162;" horiz-adv-x="572" 
d="M212 -85l35 83v2h-25v535h-195v119h518v-119h-195v-535h-39l-24 -54v-1q5 2 10 2h10q38 0 61.5 -22t23.5 -59q0 -43 -30 -66.5t-81 -23.5q-50 0 -79.5 21.5t-30.5 61.5h74q1 -14 11.5 -20t24.5 -6q16 0 26 7t10 24q0 14 -9 22t-22 8t-23 -6z" />
    <glyph glyph-name="tcommaaccent" unicode="&#x163;" horiz-adv-x="480" 
d="M161 -85l32 76v2q-67 14 -105.5 62.5t-38.5 134.5v469h119v-165h255v-108h-255v-196q0 -50 23 -71t60 -21t60 20.5t23 71.5v13h119v-13q0 -51 -14.5 -89t-41 -63t-63 -38t-80.5 -13l-18 -41v-1q5 2 10 2h10q38 0 61.5 -22t23.5 -59q0 -43 -30 -66.5t-81 -23.5
q-50 0 -79.5 21.5t-30.5 61.5h74q1 -14 11.5 -20t24.5 -6q16 0 26 7t10 24q0 14 -9 22t-22 8t-23 -6z" />
    <glyph glyph-name="Tcaron" unicode="&#x164;" horiz-adv-x="572" 
d="M222 0v535h-195v119h518v-119h-195v-535h-128zM225 713l-115 157h101l74 -91h2l74 91h101l-115 -157h-122z" />
    <glyph glyph-name="tcaron" unicode="&#x165;" horiz-adv-x="480" 
d="M453 190q0 -51 -14.5 -89.5t-41.5 -63.5t-64 -37.5t-82 -12.5t-82 12.5t-64 37.5t-41.5 63.5t-14.5 89.5v469h119v-165h255v-108h-255v-196q0 -50 23 -71t60 -21t60 20.5t23 71.5v13h119v-13zM333 536l37 116q-19 7 -30.5 24t-11.5 40q0 29 20.5 49.5t49.5 20.5
t49.5 -20.5t20.5 -49.5q0 -19 -9 -38l-64 -142h-62z" />
    <glyph glyph-name="Tbar" unicode="&#x166;" horiz-adv-x="572" 
d="M222 0v275h-121v114h121v146h-195v119h518v-119h-195v-146h120v-114h-120v-275h-128z" />
    <glyph glyph-name="tbar" unicode="&#x167;" horiz-adv-x="480" 
d="M453 190q0 -51 -14.5 -89.5t-41.5 -63.5t-64 -37.5t-82 -12.5t-82 12.5t-64 37.5t-41.5 63.5t-14.5 89.5v59h-39v83h39v327h119v-165h255v-108h-255v-54h162v-83h-162v-59q0 -50 23 -71t60 -21t60 20.5t23 71.5v13h119v-13z" />
    <glyph glyph-name="Utilde" unicode="&#x168;" horiz-adv-x="655" 
d="M479 654h125v-394q0 -63 -18 -113.5t-53 -86t-86 -54.5t-117 -19q-67 0 -119 19t-87 54.5t-53.5 86t-18.5 113.5v394h128v-394q0 -73 37 -114t112 -41q76 0 113 41t37 114v394zM512 861q-14 -146 -116 -146q-26 0 -44 8.5t-32.5 18t-26.5 18t-27 8.5q-36 0 -43 -54h-81
q14 146 116 146q26 0 44 -8.5t32 -18t26.5 -18t27.5 -8.5q35 0 43 54h81z" />
    <glyph glyph-name="utilde" unicode="&#x169;" horiz-adv-x="586" 
d="M418 494h119v-257q0 -62 -17.5 -108.5t-49.5 -78t-77 -47.5t-100 -16t-100 15.5t-77 47t-49.5 78.5t-17.5 109v257h119v-257q0 -71 34 -105t91 -34t91 34t34 105v257zM478 711q-14 -146 -116 -146q-26 0 -44 8.5t-32.5 18t-26.5 18t-27 8.5q-36 0 -43 -54h-81
q14 146 116 146q26 0 44 -8.5t32 -18t26.5 -18t27.5 -8.5q35 0 43 54h81z" />
    <glyph glyph-name="Umacron" unicode="&#x16a;" horiz-adv-x="655" 
d="M479 654h125v-394q0 -63 -18 -113.5t-53 -86t-86 -54.5t-117 -19q-67 0 -119 19t-87 54.5t-53.5 86t-18.5 113.5v394h128v-394q0 -73 37 -114t112 -41q76 0 113 41t37 114v394zM171 729v82h312v-82h-312z" />
    <glyph glyph-name="umacron" unicode="&#x16b;" horiz-adv-x="586" 
d="M418 494h119v-257q0 -62 -17.5 -108.5t-49.5 -78t-77 -47.5t-100 -16t-100 15.5t-77 47t-49.5 78.5t-17.5 109v257h119v-257q0 -71 34 -105t91 -34t91 34t34 105v257zM137 579v82h312v-82h-312z" />
    <glyph glyph-name="Ubreve" unicode="&#x16c;" horiz-adv-x="655" 
d="M479 654h125v-394q0 -63 -18 -113.5t-53 -86t-86 -54.5t-117 -19q-67 0 -119 19t-87 54.5t-53.5 86t-18.5 113.5v394h128v-394q0 -73 37 -114t112 -41q76 0 113 41t37 114v394zM483 866q-1 -75 -43.5 -116t-112.5 -41t-112.5 41t-43.5 116h85q3 -39 22 -55.5t49 -16.5
t49 16.5t22 55.5h85z" />
    <glyph glyph-name="ubreve" unicode="&#x16d;" horiz-adv-x="586" 
d="M418 494h119v-257q0 -62 -17.5 -108.5t-49.5 -78t-77 -47.5t-100 -16t-100 15.5t-77 47t-49.5 78.5t-17.5 109v257h119v-257q0 -71 34 -105t91 -34t91 34t34 105v257zM449 716q-1 -75 -43.5 -116t-112.5 -41t-112.5 41t-43.5 116h85q3 -39 22 -55.5t49 -16.5t49 16.5
t22 55.5h85z" />
    <glyph glyph-name="Uring" unicode="&#x16e;" horiz-adv-x="655" 
d="M479 654h125v-394q0 -63 -18 -113.5t-53 -86t-86 -54.5t-117 -19q-67 0 -119 19t-87 54.5t-53.5 86t-18.5 113.5v394h128v-394q0 -73 37 -114t112 -41q76 0 113 41t37 114v394zM327 694q-45 0 -74.5 29.5t-29.5 74.5t29.5 74.5t74.5 29.5q22 0 41.5 -8t33 -22t21.5 -33
t8 -41t-8 -41t-21.5 -33t-33 -22t-41.5 -8zM362 798q0 16 -10 26t-25 10t-25 -10t-10 -26q0 -15 10 -25t25 -10t25 10t10 25z" />
    <glyph glyph-name="uring" unicode="&#x16f;" horiz-adv-x="586" 
d="M418 494h119v-257q0 -62 -17.5 -108.5t-49.5 -78t-77 -47.5t-100 -16t-100 15.5t-77 47t-49.5 78.5t-17.5 109v257h119v-257q0 -71 34 -105t91 -34t91 34t34 105v257zM293 544q-45 0 -74.5 29.5t-29.5 74.5t29.5 74.5t74.5 29.5q22 0 41.5 -8t33 -22t21.5 -33t8 -41
t-8 -41t-21.5 -33t-33 -22t-41.5 -8zM328 648q0 16 -10 26t-25 10t-25 -10t-10 -26q0 -15 10 -25t25 -10t25 10t10 25z" />
    <glyph glyph-name="Uhungarumlaut" unicode="&#x170;" horiz-adv-x="655" 
d="M479 654h125v-394q0 -63 -18 -113.5t-53 -86t-86 -54.5t-117 -19q-67 0 -119 19t-87 54.5t-53.5 86t-18.5 113.5v394h128v-394q0 -73 37 -114t112 -41q76 0 113 41t37 114v394zM156 713l107 157h124l-130 -157h-101zM344 713l107 157h124l-130 -157h-101z" />
    <glyph glyph-name="uhungarumlaut" unicode="&#x171;" horiz-adv-x="586" 
d="M418 494h119v-257q0 -62 -17.5 -108.5t-49.5 -78t-77 -47.5t-100 -16t-100 15.5t-77 47t-49.5 78.5t-17.5 109v257h119v-257q0 -71 34 -105t91 -34t91 34t34 105v257zM121 563l107 157h124l-130 -157h-101zM309 563l107 157h124l-130 -157h-101z" />
    <glyph glyph-name="Uogonek" unicode="&#x172;" horiz-adv-x="655" 
d="M376 -11q-23 -3 -46 -3q-67 0 -119 19t-87 54.5t-53.5 86t-18.5 113.5v394h128v-394q0 -73 37 -114t112 -41q76 0 113 41t37 114v394h125v-394q0 -87 -33.5 -149t-98.5 -94q-32 -17 -50 -44t-18 -57q0 -28 16 -39.5t36 -11.5q49 0 88 43v-88q-14 -17 -41 -30t-65 -13
q-54 0 -87 27t-33 72q0 35 14.5 62t43.5 50v2z" />
    <glyph glyph-name="uogonek" unicode="&#x173;" horiz-adv-x="586" 
d="M418 495h119v-257q0 -82 -30 -137.5t-84 -83.5q-32 -17 -49.5 -44.5t-17.5 -57.5q0 -28 16 -39.5t36 -11.5q48 0 88 43v-88q-14 -17 -41.5 -30t-64.5 -13q-55 0 -88 27t-33 72q0 35 15 62t44 51v2q-8 -1 -17 -1.5t-18 -0.5q-55 0 -100 15.5t-77 47t-49.5 78.5t-17.5 109
v257h119v-257q0 -71 34 -105t91 -34t91 34t34 105v257z" />
    <glyph glyph-name="Wcircumflex" unicode="&#x174;" horiz-adv-x="932" 
d="M752 654h128v-421q0 -63 -17.5 -109.5t-48 -76.5t-72.5 -45t-90 -15q-63 0 -110 25.5t-75 73.5h-2q-27 -48 -74.5 -73.5t-110.5 -25.5q-48 0 -90 15t-72.5 45t-48 76.5t-17.5 109.5v421h128v-421q0 -68 32 -97.5t79 -29.5q48 0 79.5 30t31.5 97v421h128v-421
q0 -67 31.5 -97t79.5 -30q47 0 79 29.5t32 97.5v421zM541 713l-74 91h-2l-74 -91h-101l115 157h122l115 -157h-101z" />
    <glyph glyph-name="wcircumflex" unicode="&#x175;" horiz-adv-x="854" 
d="M486 494v-282q0 -60 28.5 -87t71.5 -27q44 0 72 26.5t28 87.5v282h119v-282q0 -58 -16 -100.5t-43.5 -70t-65.5 -41t-82 -13.5q-56 0 -99.5 22.5t-70.5 64.5h-2q-26 -42 -69.5 -64.5t-100.5 -22.5q-44 0 -82 13.5t-65.5 41t-43.5 70t-16 100.5v282h119v-282
q0 -61 28 -87.5t72 -26.5q43 0 71 27t28 87v282h119zM502 563l-74 91h-2l-74 -91h-101l115 157h122l115 -157h-101z" />
    <glyph glyph-name="Ycircumflex" unicode="&#x176;" horiz-adv-x="651" 
d="M263 0v276l-250 378h151l161 -262h2l163 262h148l-247 -375v-279h-128zM400 713l-74 91h-2l-74 -91h-101l115 157h122l115 -157h-101z" />
    <glyph glyph-name="ycircumflex" unicode="&#x177;" horiz-adv-x="602" 
d="M418 72h-2q-22 -37 -59 -58t-86 -21q-43 0 -83 14.5t-71 44.5t-49.5 77.5t-18.5 113.5v251h119v-251q0 -71 34 -105t91 -34q55 0 90 35t35 104v251h119v-477q0 -65 -19 -110.5t-52.5 -74.5t-78.5 -42.5t-96 -13.5q-43 0 -81.5 10t-70 31t-54 53t-32.5 76h119
q29 -67 119 -67q61 0 94 31.5t33 103.5v58zM376 563l-74 91h-2l-74 -91h-101l115 157h122l115 -157h-101z" />
    <glyph glyph-name="Ydieresis" unicode="&#x178;" horiz-adv-x="651" 
d="M263 0v276l-250 378h151l161 -262h2l163 262h148l-247 -375v-279h-128zM424 717q-29 0 -49 20t-20 49t20 49t49 20t49.5 -20t20.5 -49t-20.5 -49t-49.5 -20zM224 717q-29 0 -49 20t-20 49t20 49t49 20t49 -20t20 -49t-20 -49t-49 -20z" />
    <glyph glyph-name="Zacute" unicode="&#x179;" horiz-adv-x="605" 
d="M204 120v-2h353v-118h-514v114l343 419v2h-328v119h489v-114zM225 713l107 157h124l-129 -157h-102z" />
    <glyph glyph-name="zacute" unicode="&#x17a;" horiz-adv-x="534" 
d="M37 0v99l284 288v2h-269v105h430v-99l-284 -288v-2h294v-105h-455zM189 563l107 157h124l-129 -157h-102z" />
    <glyph glyph-name="Zdotaccent" unicode="&#x17b;" horiz-adv-x="605" 
d="M204 120v-2h353v-118h-514v114l343 419v2h-328v119h489v-114zM302 717q-29 0 -49 20t-20 49t20 49t49 20t49 -20t20 -49t-20 -49t-49 -20z" />
    <glyph glyph-name="zdotaccent" unicode="&#x17c;" horiz-adv-x="534" 
d="M37 0v99l284 288v2h-269v105h430v-99l-284 -288v-2h294v-105h-455zM267 567q-29 0 -49 20t-20 49t20 49t49 20t49 -20t20 -49t-20 -49t-49 -20z" />
    <glyph glyph-name="Zcaron" unicode="&#x17d;" horiz-adv-x="605" 
d="M204 120v-2h353v-118h-514v114l343 419v2h-328v119h489v-114zM241 713l-115 157h101l74 -91h2l74 91h101l-115 -157h-122z" />
    <glyph glyph-name="zcaron" unicode="&#x17e;" horiz-adv-x="534" 
d="M37 0v99l284 288v2h-269v105h430v-99l-284 -288v-2h294v-105h-455zM206 563l-115 157h101l74 -91h2l74 91h101l-115 -157h-122z" />
    <glyph glyph-name="florin" unicode="&#x192;" horiz-adv-x="522" 
d="M56 -109v103h42q38 0 54.5 19.5t20.5 60.5l21 237h-108v106h116l7 75q8 91 52 141t140 50h65v-103h-62q-38 0 -54.5 -19.5t-20.5 -60.5l-8 -83h130v-106h-139l-19 -228q-4 -46 -16.5 -82t-35.5 -60.5t-57.5 -37t-82.5 -12.5h-45z" />
    <glyph glyph-name="AEacute" unicode="&#x1fc;" horiz-adv-x="991" 
d="M467 0v196h-291v-196h-125v370q0 66 18.5 118.5t54.5 89t89.5 56.5t122.5 20h609v-119h-350v-146h292v-114h-292v-157h350v-118h-478zM467 535h-132q-81 0 -120 -43t-39 -122v-58h291v223zM418 713l107 157h124l-129 -157h-102z" />
    <glyph glyph-name="aeacute" unicode="&#x1fd;" horiz-adv-x="999" 
d="M295 98q66 0 105.5 41.5t39.5 107.5t-39.5 107.5t-105.5 41.5t-106 -41.5t-40 -107.5t40 -107.5t106 -41.5zM950 142q-14 -35 -36.5 -63.5t-52 -49t-64 -31.5t-71.5 -11q-60 0 -103.5 25.5t-65.5 69.5h-2v-82h-110v82h-2q-23 -43 -66.5 -69t-103.5 -26q-44 0 -88 16
t-78.5 48.5t-56 81t-21.5 114.5q0 56 19 104t53 82.5t82 54t105 19.5q76 0 129 -30t83 -81h2q30 51 83 81t129 30q57 0 104 -19.5t81 -54t52.5 -82.5t18.5 -104v-42h-405v-2q12 -50 48.5 -79t92.5 -29q80 0 117 47h127zM706 399q-53 0 -88.5 -26t-49.5 -71v-2h276v2
q-14 45 -50 71t-88 26zM422 563l107 157h124l-129 -157h-102z" />
    <glyph glyph-name="Oslashacute" unicode="&#x1fe;" horiz-adv-x="764" 
d="M304 713l107 157h124l-129 -157h-102zM34 0l83 99q-40 45 -61.5 102.5t-21.5 125.5q0 73 25.5 135.5t72 108t110 71t140.5 25.5q49 0 93 -11t82 -31l25 29h148l-83 -99q39 -45 61 -102.5t22 -125.5q0 -74 -25.5 -136t-72 -107.5t-110.5 -71t-140 -25.5q-50 0 -94 11
t-82 31l-24 -29h-148zM382 105q49 0 89 16.5t68.5 46.5t44.5 70.5t16 88.5q0 71 -36 127h-2l-275 -329v-2q20 -8 44 -13t51 -5zM164 327q0 -37 8.5 -69.5t26.5 -58.5h2l275 328v2q-44 19 -94 19q-49 0 -89 -16.5t-68.5 -46t-44.5 -70t-16 -88.5z" />
    <glyph glyph-name="oslashacute" unicode="&#x1ff;" horiz-adv-x="590" 
d="M217 563l107 157h124l-129 -157h-102zM29 0l61 74q-29 34 -45 78t-16 95q0 56 19.5 104t55 82.5t84 54t107.5 19.5q36 0 68.5 -8t61.5 -22l14 17h122l-62 -75q29 -34 45.5 -77.5t16.5 -94.5q0 -56 -19.5 -104t-55 -82.5t-84.5 -54t-107 -19.5q-37 0 -69.5 8t-60.5 22
l-14 -17h-122zM149 247q0 -43 19 -78h2l179 216v2q-26 9 -54 9q-66 0 -106 -41.5t-40 -107.5zM295 98q66 0 105.5 41.5t39.5 107.5q0 42 -19 77h-2l-178 -215v-2q24 -9 54 -9z" />
    <glyph glyph-name="Scommaaccent" unicode="&#x218;" horiz-adv-x="553" 
d="M387 465q-1 38 -28 62t-81 24t-81 -25.5t-27 -61.5q0 -26 15 -40t39.5 -23t56 -14t64 -12t64 -18t56 -31t39.5 -52.5t15 -81.5q0 -48 -17.5 -86t-49.5 -64.5t-76.5 -41t-99.5 -14.5q-54 0 -98.5 14t-76 40t-49.5 63.5t-19 84.5h125q1 -39 30 -63t88 -24q60 0 89 24t29 63
q0 25 -15 40t-39.5 23.5t-55.5 13.5t-64 12t-64 18t-55.5 31.5t-39.5 52.5t-15 81q0 45 16.5 83t47 65.5t73 42.5t94.5 15q51 0 92.5 -14.5t71.5 -41t47.5 -63.5t19.5 -82h-121zM218 -257l29 66q-17 7 -28.5 23.5t-11.5 37.5q0 29 19.5 49t48.5 20t48.5 -20t19.5 -49
q0 -9 -2.5 -17.5t-9.5 -20.5l-53 -89h-60z" />
    <glyph glyph-name="scommaaccent" unicode="&#x219;" horiz-adv-x="475" 
d="M316 352q-2 23 -22 37t-55 14q-40 0 -59.5 -16t-19.5 -41q0 -22 21 -31t53 -14t68.5 -10t68.5 -20t53 -43t21 -79q0 -35 -14.5 -65t-41.5 -51.5t-65.5 -33.5t-85.5 -12t-85 12t-65 33t-42 50t-16 64h120q1 -25 22.5 -40t63.5 -15q48 0 68.5 16t20.5 42q0 22 -21 30.5
t-53 13t-68.5 9.5t-68.5 19.5t-53 43.5t-21 81q0 35 14 64.5t39.5 51t62 33.5t81.5 12t81 -12t61.5 -33t39.5 -49t15 -61h-118zM178 -257l29 66q-17 7 -28.5 23.5t-11.5 37.5q0 29 19.5 49t48.5 20t48.5 -20t19.5 -49q0 -9 -2.5 -17.5t-9.5 -20.5l-53 -89h-60z" />
    <glyph glyph-name="uni021A" unicode="&#x21a;" horiz-adv-x="572" 
d="M222 0v535h-195v119h518v-119h-195v-535h-128zM229 -257l29 66q-17 7 -28.5 23.5t-11.5 37.5q0 29 19.5 49t48.5 20t48.5 -20t19.5 -49q0 -9 -2.5 -17.5t-9.5 -20.5l-53 -89h-60z" />
    <glyph glyph-name="uni021B" unicode="&#x21b;" horiz-adv-x="480" 
d="M453 190q0 -51 -14.5 -89.5t-41.5 -63.5t-64 -37.5t-82 -12.5t-82 12.5t-64 37.5t-41.5 63.5t-14.5 89.5v469h119v-165h255v-108h-255v-196q0 -50 23 -71t60 -21t60 20.5t23 71.5v13h119v-13zM174 -257l29 66q-17 7 -28.5 23.5t-11.5 37.5q0 29 19.5 49t48.5 20t48.5 -20
t19.5 -49q0 -9 -2.5 -17.5t-9.5 -20.5l-53 -89h-60z" />
    <glyph glyph-name="uni0237" unicode="&#x237;" horiz-adv-x="251" 
d="M-18 -218v103h15q38 0 53.5 18.5t15.5 61.5v529h119v-521q0 -94 -41 -142.5t-136 -48.5h-26z" />
    <glyph glyph-name="circumflex" unicode="&#x2c6;" horiz-adv-x="320" 
d="M235 563l-74 91h-2l-74 -91h-101l115 157h122l115 -157h-101z" />
    <glyph glyph-name="caron" unicode="&#x2c7;" horiz-adv-x="320" 
d="M99 563l-115 157h101l74 -91h2l74 91h101l-115 -157h-122z" />
    <glyph glyph-name="breve" unicode="&#x2d8;" horiz-adv-x="320" 
d="M316 716q-1 -75 -43.5 -116t-112.5 -41t-112.5 41t-43.5 116h85q3 -39 22 -55.5t49 -16.5t49 16.5t22 55.5h85z" />
    <glyph glyph-name="dotaccent" unicode="&#x2d9;" horiz-adv-x="320" 
d="M160 567q-29 0 -49 20t-20 49t20 49t49 20t49 -20t20 -49t-20 -49t-49 -20z" />
    <glyph glyph-name="ring" unicode="&#x2da;" horiz-adv-x="320" 
d="M160 544q-45 0 -74.5 29.5t-29.5 74.5t29.5 74.5t74.5 29.5q22 0 41.5 -8t33 -22t21.5 -33t8 -41t-8 -41t-21.5 -33t-33 -22t-41.5 -8zM195 648q0 16 -10 26t-25 10t-25 -10t-10 -26q0 -15 10 -25t25 -10t25 10t10 25z" />
    <glyph glyph-name="ogonek" unicode="&#x2db;" horiz-adv-x="320" 
d="M274 -181q-14 -17 -41 -30t-65 -13q-55 0 -87.5 27t-32.5 72q0 54 36 92t109 55l39 -22q-47 -8 -72.5 -31t-25.5 -54q0 -28 16 -39.5t36 -11.5q48 0 88 43v-88z" />
    <glyph glyph-name="tilde" unicode="&#x2dc;" horiz-adv-x="320" 
d="M345 711q-14 -146 -116 -146q-26 0 -44 8.5t-32.5 18t-26.5 18t-27 8.5q-36 0 -43 -54h-81q14 146 116 146q26 0 44 -8.5t32 -18t26.5 -18t27.5 -8.5q35 0 43 54h81z" />
    <glyph glyph-name="hungarumlaut" unicode="&#x2dd;" horiz-adv-x="320" 
d="M-49 563l107 157h124l-130 -157h-101zM139 563l107 157h124l-130 -157h-101z" />
    <glyph glyph-name="pi" unicode="&#x3c0;" horiz-adv-x="621" 
d="M436 0v386h-251v-386h-119v494h489v-494h-119z" />
    <glyph glyph-name="uni1E02" unicode="&#x1e02;" horiz-adv-x="625" 
d="M67 0v654h313q46 0 81.5 -12.5t59.5 -35t36 -54t12 -68.5q0 -50 -22 -87t-63 -57v-2q54 -17 84.5 -59.5t30.5 -101.5q0 -38 -12.5 -70.5t-36.5 -56t-60 -37t-84 -13.5h-339zM195 275v-157h189q45 0 64.5 23t19.5 55q0 33 -21.5 56t-61.5 23h-190zM195 535v-146h169
q40 0 59 21t19 52q0 32 -17 52.5t-62 20.5h-168zM313 717q-29 0 -49 20t-20 49t20 49t49 20t49 -20t20 -49t-20 -49t-49 -20z" />
    <glyph glyph-name="uni1E03" unicode="&#x1e03;" 
d="M49 710h119v-285h2q24 38 66.5 60t98.5 22q44 0 88 -16t78.5 -48.5t56 -81t21.5 -114.5q0 -56 -19.5 -104t-55 -82.5t-84.5 -54t-107 -19.5q-59 0 -107.5 18.5t-83 53t-54 83.5t-19.5 109v459zM313 98q66 0 106 41.5t40 107.5t-40 107.5t-106 41.5t-105.5 -41.5
t-39.5 -107.5t39.5 -107.5t105.5 -41.5zM338 567q-29 0 -49 20t-20 49t20 49t49 20t49 -20t20 -49t-20 -49t-49 -20z" />
    <glyph glyph-name="uni1E0A" unicode="&#x1e0a;" horiz-adv-x="682" 
d="M67 0v654h232q86 0 151 -23.5t109 -66.5t66.5 -103.5t22.5 -133.5q0 -74 -22.5 -134t-66.5 -103t-109 -66.5t-151 -23.5h-232zM299 118q57 0 98 15t68 42t40 65.5t13 86.5q0 95 -53 151.5t-166 56.5h-104v-417h104zM314 717q-29 0 -49 20t-20 49t20 49t49 20t49 -20
t20 -49t-20 -49t-49 -20z" />
    <glyph glyph-name="uni1E0B" unicode="&#x1e0b;" 
d="M559 251q0 -60 -19.5 -109t-54 -83.5t-83.5 -53t-107 -18.5q-59 0 -107.5 19.5t-84 54t-55 82.5t-19.5 104q0 66 21.5 114.5t56 81t78.5 48.5t88 16q56 0 98.5 -22t66.5 -60h2v285h119v-459zM295 98q66 0 105.5 41.5t39.5 107.5t-39.5 107.5t-105.5 41.5t-106 -41.5
t-40 -107.5t40 -107.5t106 -41.5zM270 567q-29 0 -49 20t-20 49t20 49t49 20t49 -20t20 -49t-20 -49t-49 -20z" />
    <glyph glyph-name="uni1E1E" unicode="&#x1e1e;" horiz-adv-x="570" 
d="M67 0v654h474v-119h-346v-144h288v-116h-288v-275h-128zM308 717q-29 0 -49 20t-20 49t20 49t49 20t49 -20t20 -49t-20 -49t-49 -20z" />
    <glyph glyph-name="uni1E1F" unicode="&#x1e1f;" horiz-adv-x="494" 
d="M65 0v505q0 55 16 96t44.5 68t68.5 40.5t88 13.5t88 -13.5t68.5 -41t44 -68.5t15.5 -95v-1h-118v1q0 58 -27 82.5t-71 24.5t-71 -25t-27 -82v-80h254v-108h-254v-317h-119zM275 763q-29 0 -49 20t-20 49t20 49t49 20t49 -20t20 -49t-20 -49t-49 -20z" />
    <glyph glyph-name="uni1E40" unicode="&#x1e40;" horiz-adv-x="932" 
d="M180 0h-128v421q0 63 17.5 109.5t48 76.5t72.5 45t90 15q63 0 110 -25.5t75 -73.5h2q27 48 74.5 73.5t110.5 25.5q48 0 90 -15t72.5 -45t48 -76.5t17.5 -109.5v-421h-128v421q0 67 -32 97t-79 30q-48 0 -79.5 -30t-31.5 -97v-421h-128v421q0 67 -31.5 97t-79.5 30
q-47 0 -79 -30t-32 -97v-421zM466 717q-29 0 -49 20t-20 49t20 49t49 20t49 -20t20 -49t-20 -49t-49 -20z" />
    <glyph glyph-name="uni1E41" unicode="&#x1e41;" horiz-adv-x="854" 
d="M368 0v282q0 60 -28.5 87t-71.5 27q-44 0 -72 -26.5t-28 -87.5v-282h-119v282q0 58 16 100.5t43.5 70t65.5 41t82 13.5q56 0 99.5 -22.5t70.5 -64.5h2q26 42 69.5 64.5t100.5 22.5q44 0 82 -13.5t65.5 -41t43.5 -70t16 -100.5v-282h-119v282q0 61 -28 87.5t-72 26.5
q-43 0 -71 -27t-28 -87v-282h-119zM427 567q-29 0 -49 20t-20 49t20 49t49 20t49 -20t20 -49t-20 -49t-49 -20z" />
    <glyph glyph-name="uni1E56" unicode="&#x1e56;" horiz-adv-x="601" 
d="M67 0v654h267q64 0 110.5 -16.5t76.5 -46.5t44.5 -70.5t14.5 -88.5t-14.5 -88.5t-44.5 -70.5t-76.5 -46.5t-110.5 -16.5h-139v-210h-128zM336 328q64 0 89 29.5t25 74.5q0 44 -25 73.5t-89 29.5h-141v-207h141zM306 717q-29 0 -49 20t-20 49t20 49t49 20t49 -20t20 -49
t-20 -49t-49 -20z" />
    <glyph glyph-name="uni1E57" unicode="&#x1e57;" 
d="M49 243q0 60 19.5 108.5t54 83t83 53.5t107.5 19q58 0 107 -19.5t84.5 -54t55 -82.5t19.5 -104q0 -66 -21.5 -114.5t-56 -81t-78.5 -48.5t-88 -16q-56 0 -98.5 22t-66.5 60h-2v-280h-119v454zM313 396q-66 0 -105.5 -41.5t-39.5 -107.5t39.5 -107.5t105.5 -41.5t106 41.5
t40 107.5t-40 107.5t-106 41.5zM312 567q-29 0 -49 20t-20 49t20 49t49 20t49 -20t20 -49t-20 -49t-49 -20z" />
    <glyph glyph-name="uni1E60" unicode="&#x1e60;" horiz-adv-x="553" 
d="M387 465q-1 38 -28 62t-81 24t-81 -25.5t-27 -61.5q0 -26 15 -40t39.5 -23t56 -14t64 -12t64 -18t56 -31t39.5 -52.5t15 -81.5q0 -48 -17.5 -86t-49.5 -64.5t-76.5 -41t-99.5 -14.5q-54 0 -98.5 14t-76 40t-49.5 63.5t-19 84.5h125q1 -39 30 -63t88 -24q60 0 89 24t29 63
q0 25 -15 40t-39.5 23.5t-55.5 13.5t-64 12t-64 18t-55.5 31.5t-39.5 52.5t-15 81q0 45 16.5 83t47 65.5t73 42.5t94.5 15q51 0 92.5 -14.5t71.5 -41t47.5 -63.5t19.5 -82h-121zM279 717q-29 0 -49 20t-20 49t20 49t49 20t49 -20t20 -49t-20 -49t-49 -20z" />
    <glyph glyph-name="uni1E61" unicode="&#x1e61;" horiz-adv-x="475" 
d="M316 352q-2 23 -22 37t-55 14q-40 0 -59.5 -16t-19.5 -41q0 -22 21 -31t53 -14t68.5 -10t68.5 -20t53 -43t21 -79q0 -35 -14.5 -65t-41.5 -51.5t-65.5 -33.5t-85.5 -12t-85 12t-65 33t-42 50t-16 64h120q1 -25 22.5 -40t63.5 -15q48 0 68.5 16t20.5 42q0 22 -21 30.5
t-53 13t-68.5 9.5t-68.5 19.5t-53 43.5t-21 81q0 35 14 64.5t39.5 51t62 33.5t81.5 12t81 -12t61.5 -33t39.5 -49t15 -61h-118zM239 567q-29 0 -49 20t-20 49t20 49t49 20t49 -20t20 -49t-20 -49t-49 -20z" />
    <glyph glyph-name="uni1E6A" unicode="&#x1e6a;" horiz-adv-x="572" 
d="M222 0v535h-195v119h518v-119h-195v-535h-128zM285 717q-29 0 -49 20t-20 49t20 49t49 20t49 -20t20 -49t-20 -49t-49 -20z" />
    <glyph glyph-name="uni1E6B" unicode="&#x1e6b;" horiz-adv-x="480" 
d="M453 190q0 -51 -14.5 -89.5t-41.5 -63.5t-64 -37.5t-82 -12.5t-82 12.5t-64 37.5t-41.5 63.5t-14.5 89.5v469h119v-165h255v-108h-255v-196q0 -50 23 -71t60 -21t60 20.5t23 71.5v13h119v-13zM108 716q-29 0 -49 20t-20 49t20 49t49 20t49 -20t20 -49t-20 -49t-49 -20z
" />
    <glyph glyph-name="Wgrave" unicode="&#x1e80;" horiz-adv-x="932" 
d="M752 654h128v-421q0 -63 -17.5 -109.5t-48 -76.5t-72.5 -45t-90 -15q-63 0 -110 25.5t-75 73.5h-2q-27 -48 -74.5 -73.5t-110.5 -25.5q-48 0 -90 15t-72.5 45t-48 76.5t-17.5 109.5v421h128v-421q0 -68 32 -97.5t79 -29.5q48 0 79.5 30t31.5 97v421h128v-421
q0 -67 31.5 -97t79.5 -30q47 0 79 29.5t32 97.5v421zM441 713l-129 157h124l107 -157h-102z" />
    <glyph glyph-name="wgrave" unicode="&#x1e81;" horiz-adv-x="854" 
d="M486 494v-282q0 -60 28.5 -87t71.5 -27q44 0 72 26.5t28 87.5v282h119v-282q0 -58 -16 -100.5t-43.5 -70t-65.5 -41t-82 -13.5q-56 0 -99.5 22.5t-70.5 64.5h-2q-26 -42 -69.5 -64.5t-100.5 -22.5q-44 0 -82 13.5t-65.5 41t-43.5 70t-16 100.5v282h119v-282
q0 -61 28 -87.5t72 -26.5q43 0 71 27t28 87v282h119zM402 563l-129 157h124l107 -157h-102z" />
    <glyph glyph-name="Wacute" unicode="&#x1e82;" horiz-adv-x="932" 
d="M752 654h128v-421q0 -63 -17.5 -109.5t-48 -76.5t-72.5 -45t-90 -15q-63 0 -110 25.5t-75 73.5h-2q-27 -48 -74.5 -73.5t-110.5 -25.5q-48 0 -90 15t-72.5 45t-48 76.5t-17.5 109.5v421h128v-421q0 -68 32 -97.5t79 -29.5q48 0 79.5 30t31.5 97v421h128v-421
q0 -67 31.5 -97t79.5 -30q47 0 79 29.5t32 97.5v421zM388 713l107 157h124l-129 -157h-102z" />
    <glyph glyph-name="wacute" unicode="&#x1e83;" horiz-adv-x="854" 
d="M486 494v-282q0 -60 28.5 -87t71.5 -27q44 0 72 26.5t28 87.5v282h119v-282q0 -58 -16 -100.5t-43.5 -70t-65.5 -41t-82 -13.5q-56 0 -99.5 22.5t-70.5 64.5h-2q-26 -42 -69.5 -64.5t-100.5 -22.5q-44 0 -82 13.5t-65.5 41t-43.5 70t-16 100.5v282h119v-282
q0 -61 28 -87.5t72 -26.5q43 0 71 27t28 87v282h119zM349 563l107 157h124l-129 -157h-102z" />
    <glyph glyph-name="Wdieresis" unicode="&#x1e84;" horiz-adv-x="932" 
d="M752 654h128v-421q0 -63 -17.5 -109.5t-48 -76.5t-72.5 -45t-90 -15q-63 0 -110 25.5t-75 73.5h-2q-27 -48 -74.5 -73.5t-110.5 -25.5q-48 0 -90 15t-72.5 45t-48 76.5t-17.5 109.5v421h128v-421q0 -68 32 -97.5t79 -29.5q48 0 79.5 30t31.5 97v421h128v-421
q0 -67 31.5 -97t79.5 -30q47 0 79 29.5t32 97.5v421zM565 717q-29 0 -49 20t-20 49t20 49t49 20t49.5 -20t20.5 -49t-20.5 -49t-49.5 -20zM365 717q-29 0 -49 20t-20 49t20 49t49 20t49 -20t20 -49t-20 -49t-49 -20z" />
    <glyph glyph-name="wdieresis" unicode="&#x1e85;" horiz-adv-x="854" 
d="M486 494v-282q0 -60 28.5 -87t71.5 -27q44 0 72 26.5t28 87.5v282h119v-282q0 -58 -16 -100.5t-43.5 -70t-65.5 -41t-82 -13.5q-56 0 -99.5 22.5t-70.5 64.5h-2q-26 -42 -69.5 -64.5t-100.5 -22.5q-44 0 -82 13.5t-65.5 41t-43.5 70t-16 100.5v282h119v-282
q0 -61 28 -87.5t72 -26.5q43 0 71 27t28 87v282h119zM526 567q-29 0 -49 20t-20 49t20 49t49 20t49.5 -20t20.5 -49t-20.5 -49t-49.5 -20zM326 567q-29 0 -49 20t-20 49t20 49t49 20t49 -20t20 -49t-20 -49t-49 -20z" />
    <glyph glyph-name="Ygrave" unicode="&#x1ef2;" horiz-adv-x="651" 
d="M263 0v276l-250 378h151l161 -262h2l163 262h148l-247 -375v-279h-128zM301 713l-129 157h124l107 -157h-102z" />
    <glyph glyph-name="ygrave" unicode="&#x1ef3;" horiz-adv-x="602" 
d="M418 72h-2q-22 -37 -59 -58t-86 -21q-43 0 -83 14.5t-71 44.5t-49.5 77.5t-18.5 113.5v251h119v-251q0 -71 34 -105t91 -34q55 0 90 35t35 104v251h119v-477q0 -65 -19 -110.5t-52.5 -74.5t-78.5 -42.5t-96 -13.5q-43 0 -81.5 10t-70 31t-54 53t-32.5 76h119
q29 -67 119 -67q61 0 94 31.5t33 103.5v58zM276 563l-129 157h124l107 -157h-102z" />
    <glyph glyph-name="figuredash" unicode="&#x2012;" horiz-adv-x="522" 
d="M50 227v92h422v-92h-422z" />
    <glyph glyph-name="endash" unicode="&#x2013;" horiz-adv-x="500" 
d="M50 227v92h400v-92h-400z" />
    <glyph glyph-name="emdash" unicode="&#x2014;" horiz-adv-x="1000" 
d="M50 227v92h900v-92h-900z" />
    <glyph glyph-name="quoteleft" unicode="&#x2018;" horiz-adv-x="256" 
d="M131 654h70l-42 -130q22 -8 35 -27.5t13 -45.5q0 -33 -23 -56t-56 -23t-56 23t-23 56q0 20 10 43z" />
    <glyph glyph-name="quoteright" unicode="&#x2019;" horiz-adv-x="256" 
d="M55 386l42 130q-22 8 -35 27.5t-13 44.5q0 33 23 56t56 23t56 -23t23 -56q0 -19 -10 -42l-72 -160h-70z" />
    <glyph glyph-name="quotesinglbase" unicode="&#x201a;" horiz-adv-x="256" 
d="M55 -136l42 130q-22 8 -35 27.5t-13 44.5q0 33 23 56t56 23t56 -23t23 -56q0 -19 -10 -42l-72 -160h-70z" />
    <glyph glyph-name="quotedblleft" unicode="&#x201c;" horiz-adv-x="451" 
d="M131 654h70l-42 -130q22 -8 35 -27.5t13 -45.5q0 -33 -23 -56t-56 -23t-56 23t-23 56q0 20 10 43zM326 654h70l-42 -130q22 -8 35 -27.5t13 -45.5q0 -33 -23 -56t-56 -23t-56 23t-23 56q0 20 10 43z" />
    <glyph glyph-name="quotedblright" unicode="&#x201d;" horiz-adv-x="451" 
d="M55 386l42 130q-22 8 -35 27.5t-13 44.5q0 33 23 56t56 23t56 -23t23 -56q0 -19 -10 -42l-72 -160h-70zM250 386l42 130q-22 8 -35 27.5t-13 44.5q0 33 23 56t56 23t56 -23t23 -56q0 -19 -10 -42l-72 -160h-70z" />
    <glyph glyph-name="quotedblbase" unicode="&#x201e;" horiz-adv-x="451" 
d="M55 -136l42 130q-22 8 -35 27.5t-13 44.5q0 33 23 56t56 23t56 -23t23 -56q0 -19 -10 -42l-72 -160h-70zM250 -136l42 130q-22 8 -35 27.5t-13 44.5q0 33 23 56t56 23t56 -23t23 -56q0 -19 -10 -42l-72 -160h-70z" />
    <glyph glyph-name="dagger" unicode="&#x2020;" horiz-adv-x="556" 
d="M257 -104l-46 310l38 193l-1 1l-194 -37v134l194 -38l1 1l-38 194h134l-38 -194l1 -1l194 38v-134l-194 37l-1 -1l38 -193l-47 -310h-41z" />
    <glyph glyph-name="daggerdbl" unicode="&#x2021;" horiz-adv-x="556" 
d="M211 -104l38 194l-1 1l-194 -38v134l194 -37l1 1l-38 124l38 124l-1 1l-194 -37v134l194 -38l1 1l-38 194h134l-38 -194l1 -1l194 38v-134l-194 37l-1 -1l38 -124l-38 -124l1 -1l194 37v-134l-194 38l-1 -1l38 -194h-134z" />
    <glyph glyph-name="bullet" unicode="&#x2022;" horiz-adv-x="396" 
d="M198 136q-28 0 -53 10.5t-43.5 29t-29 43.5t-10.5 53t10.5 53t29 43.5t43.5 29t53 10.5t53 -10.5t43.5 -29t29 -43.5t10.5 -53t-10.5 -53t-29 -43.5t-43.5 -29t-53 -10.5z" />
    <glyph glyph-name="ellipsis" unicode="&#x2026;" horiz-adv-x="1000" 
d="M192 -13q-33 0 -56 23t-23 56t23 56t56 23t56 -23t23 -56t-23 -56t-56 -23zM500 -13q-33 0 -56 23t-23 56t23 56t56 23t56 -23t23 -56t-23 -56t-56 -23zM808 -13q-33 0 -56 23t-23 56t23 56t56 23t56 -23t23 -56t-23 -56t-56 -23z" />
    <glyph glyph-name="perthousand" unicode="&#x2030;" horiz-adv-x="1034" 
d="M852 -13q-33 0 -61.5 12.5t-49.5 34t-33.5 50t-12.5 60.5t12.5 60.5t33.5 50t49.5 34t61.5 12.5q32 0 60.5 -12.5t49.5 -34t33.5 -50t12.5 -60.5t-12.5 -60.5t-33.5 -50t-49.5 -34t-60.5 -12.5zM852 66q32 0 54.5 23t22.5 55t-22.5 55t-54.5 23t-54.5 -23t-22.5 -55
t22.5 -55t54.5 -23zM94 0l406 654h88l-406 -654h-88zM182 353q-32 0 -60.5 12.5t-49.5 34t-33.5 50t-12.5 61.5q0 32 12.5 60.5t33.5 49.5t49.5 33.5t60.5 12.5q33 0 61.5 -12.5t49.5 -33.5t33.5 -49.5t12.5 -60.5q0 -33 -12.5 -61.5t-33.5 -50t-49.5 -34t-61.5 -12.5z
M182 432q32 0 54.5 23t22.5 56q0 32 -22.5 54.5t-54.5 22.5t-54.5 -22.5t-22.5 -54.5q0 -33 22.5 -56t54.5 -23zM502 -13q-33 0 -61.5 12.5t-49.5 34t-33.5 50t-12.5 60.5t12.5 60.5t33.5 50t49.5 34t61.5 12.5q32 0 60.5 -12.5t49.5 -34t33.5 -50t12.5 -60.5t-12.5 -60.5
t-33.5 -50t-49.5 -34t-60.5 -12.5zM502 66q32 0 54.5 23t22.5 55t-22.5 55t-54.5 23t-54.5 -23t-22.5 -55t22.5 -55t54.5 -23z" />
    <glyph glyph-name="guilsinglleft" unicode="&#x2039;" horiz-adv-x="374" 
d="M200 48l-151 199l151 199h124l-152 -199l152 -199h-124z" />
    <glyph glyph-name="guilsinglright" unicode="&#x203a;" horiz-adv-x="374" 
d="M50 48l152 199l-152 199h124l151 -199l-151 -199h-124z" />
    <glyph glyph-name="fraction" unicode="&#x2044;" horiz-adv-x="442" 
d="M-26 0l406 654h88l-406 -654h-88z" />
    <glyph glyph-name="uni2070" unicode="&#x2070;" horiz-adv-x="340" 
d="M317 381q0 -67 -40.5 -107t-106.5 -40q-65 0 -106 40t-41 107v134q0 67 41 107t106 40q66 0 106.5 -40t40.5 -107v-134zM229 515q0 31 -15 48t-44 17q-28 0 -43.5 -17t-15.5 -48v-134q0 -31 15.5 -48t43.5 -17q29 0 44 17t15 48v134z" />
    <glyph glyph-name="uni2074" unicode="&#x2074;" horiz-adv-x="340" 
d="M197 242v83h-175v76l176 253h87v-251h38v-78h-38v-83h-88zM196 529l-82 -124v-2h84v126h-2z" />
    <glyph glyph-name="uni2075" unicode="&#x2075;" horiz-adv-x="340" 
d="M133 575l-12 -82h2q11 13 27 20t39 7q25 0 48 -9.5t40 -27.5t27.5 -43.5t10.5 -56.5v-6q0 -31 -10.5 -57.5t-30 -45.5t-46.5 -29.5t-60 -10.5q-30 0 -56 9.5t-45.5 26.5t-31 40.5t-14.5 52.5h90q5 -21 19.5 -34t37.5 -13q28 0 43 17.5t15 43.5v6q0 27 -15 44.5t-43 17.5
q-19 0 -32 -8.5t-22 -22.5l-77 21l28 219h219v-79h-151z" />
    <glyph glyph-name="uni2076" unicode="&#x2076;" horiz-adv-x="340" 
d="M319 379q0 -32 -10.5 -58.5t-30 -46t-46.5 -30t-60 -10.5q-32 0 -59 10.5t-46.5 30t-30.5 46t-11 58.5v5q0 32 9 58.5t29 59.5l92 152h98l-89 -137v-2q8 5 17 6.5t17 1.5q27 0 49.5 -11t38 -29.5t24.5 -43t9 -50.5v-10zM230 386q0 28 -15 45.5t-43 17.5
q-27 0 -42.5 -17.5t-15.5 -45.5v-7q0 -28 15 -45.5t43 -17.5t43 17.5t15 45.5v7z" />
    <glyph glyph-name="uni2077" unicode="&#x2077;" horiz-adv-x="340" 
d="M145 242h-95l162 331v2h-175v79h269v-76z" />
    <glyph glyph-name="uni2078" unicode="&#x2078;" horiz-adv-x="340" 
d="M252 458q31 -13 48 -37.5t17 -60.5q0 -58 -40.5 -92t-106.5 -34t-106.5 34t-40.5 92q0 72 65 98v2q-51 26 -51 87q0 53 36 84t97 31t97.5 -31t36.5 -84q0 -31 -13.5 -52.5t-38.5 -34.5v-2zM170 422q-29 0 -44.5 -14t-15.5 -40q0 -54 60 -54t60 54q0 26 -15.5 40t-43.5 14
h-1zM171 496q23 0 35 12t12 31t-12.5 31t-35.5 12t-35.5 -12t-12.5 -31t12.5 -31t35.5 -12h1z" />
    <glyph glyph-name="uni2079" unicode="&#x2079;" horiz-adv-x="340" 
d="M21 517q0 32 10.5 58.5t30 46t46.5 30t60 10.5q32 0 59 -10.5t46.5 -30t30.5 -46t11 -58.5v-5q0 -32 -9 -58.5t-29 -59.5l-92 -152h-98l89 137v2q-8 -5 -17 -6.5t-17 -1.5q-27 0 -49.5 11t-38 29.5t-24.5 43t-9 50.5v10zM110 510q0 -28 15 -45.5t43 -17.5q27 0 42.5 17.5
t15.5 45.5v7q0 28 -15 45.5t-43 17.5t-43 -17.5t-15 -45.5v-7z" />
    <glyph glyph-name="uni2080" unicode="&#x2080;" horiz-adv-x="340" 
d="M317 139q0 -67 -40.5 -107t-106.5 -40q-65 0 -106 40t-41 107v134q0 67 41 107t106 40q66 0 106.5 -40t40.5 -107v-134zM229 273q0 31 -15 48t-44 17q-28 0 -43.5 -17t-15.5 -48v-134q0 -31 15.5 -48t43.5 -17q29 0 44 17t15 48v134z" />
    <glyph glyph-name="uni2081" unicode="&#x2081;" horiz-adv-x="340" 
d="M154 0v333h-75v79h163v-412h-88z" />
    <glyph glyph-name="uni2082" unicode="&#x2082;" horiz-adv-x="340" 
d="M38 0v76l136 137q20 20 31 36.5t11 36.5q0 23 -11 37.5t-34 14.5t-34.5 -15t-11.5 -41v-6h-86v6q0 63 35 100.5t97 37.5t97.5 -38t35.5 -97q0 -40 -17.5 -68t-48.5 -58l-81 -78v-2h142v-79h-261z" />
    <glyph glyph-name="uni2083" unicode="&#x2083;" horiz-adv-x="340" 
d="M112 178v75h47q29 0 40 12t11 32q0 18 -11.5 30t-32.5 12q-20 0 -31 -11.5t-13 -30.5h-84q1 61 36.5 92t93.5 31q59 0 94.5 -31t35.5 -84q0 -61 -49 -87v-2q62 -26 62 -98q0 -59 -40 -92.5t-103 -33.5t-103 34t-41 98h86q0 -23 15 -36.5t41 -13.5t41 13.5t15 36.5
q0 26 -15 40t-50 14h-45z" />
    <glyph glyph-name="uni2084" unicode="&#x2084;" horiz-adv-x="340" 
d="M197 0v83h-175v76l176 253h87v-251h38v-78h-38v-83h-88zM196 287l-82 -124v-2h84v126h-2z" />
    <glyph glyph-name="uni2085" unicode="&#x2085;" horiz-adv-x="340" 
d="M133 333l-12 -82h2q11 13 27 20t39 7q25 0 48 -9.5t40 -27.5t27.5 -43.5t10.5 -56.5v-6q0 -31 -10.5 -57.5t-30 -45.5t-46.5 -29.5t-60 -10.5q-30 0 -56 9.5t-45.5 26.5t-31 40.5t-14.5 52.5h90q5 -21 19.5 -34t37.5 -13q28 0 43 17.5t15 43.5v6q0 27 -15 44.5t-43 17.5
q-19 0 -32 -8.5t-22 -22.5l-77 21l28 219h219v-79h-151z" />
    <glyph glyph-name="uni2086" unicode="&#x2086;" horiz-adv-x="340" 
d="M319 137q0 -32 -10.5 -58.5t-30 -46t-46.5 -30t-60 -10.5q-32 0 -59 10.5t-46.5 30t-30.5 46t-11 58.5v5q0 32 9 58.5t29 59.5l92 152h98l-89 -137v-2q8 5 17 6.5t17 1.5q27 0 49.5 -11t38 -29.5t24.5 -43t9 -50.5v-10zM230 144q0 28 -15 45.5t-43 17.5
q-27 0 -42.5 -17.5t-15.5 -45.5v-7q0 -28 15 -45.5t43 -17.5t43 17.5t15 45.5v7z" />
    <glyph glyph-name="uni2087" unicode="&#x2087;" horiz-adv-x="340" 
d="M145 0h-95l162 331v2h-175v79h269v-76z" />
    <glyph glyph-name="uni2088" unicode="&#x2088;" horiz-adv-x="340" 
d="M252 216q31 -13 48 -37.5t17 -60.5q0 -58 -40.5 -92t-106.5 -34t-106.5 34t-40.5 92q0 72 65 98v2q-51 26 -51 87q0 53 36 84t97 31t97.5 -31t36.5 -84q0 -31 -13.5 -52.5t-38.5 -34.5v-2zM170 180q-29 0 -44.5 -14t-15.5 -40q0 -54 60 -54t60 54q0 26 -15.5 40t-43.5 14
h-1zM171 254q23 0 35 12t12 31t-12.5 31t-35.5 12t-35.5 -12t-12.5 -31t12.5 -31t35.5 -12h1z" />
    <glyph glyph-name="uni2089" unicode="&#x2089;" horiz-adv-x="340" 
d="M21 275q0 32 10.5 58.5t30 46t46.5 30t60 10.5q32 0 59 -10.5t46.5 -30t30.5 -46t11 -58.5v-5q0 -32 -9 -58.5t-29 -59.5l-92 -152h-98l89 137v2q-8 -5 -17 -6.5t-17 -1.5q-27 0 -49.5 11t-38 29.5t-24.5 43t-9 50.5v10zM110 268q0 -28 15 -45.5t43 -17.5q27 0 42.5 17.5
t15.5 45.5v7q0 28 -15 45.5t-43 17.5t-43 -17.5t-15 -45.5v-7z" />
    <glyph glyph-name="Euro" unicode="&#x20ac;" horiz-adv-x="522" 
d="M160 432h230l-25 -80h-205v-54h190l-25 -80h-165v-6q0 -54 28 -84t77 -30q42 0 68.5 22t34.5 57h118q-5 -42 -23 -76.5t-47 -60t-67.5 -39.5t-83.5 -14q-50 0 -91 16t-70.5 45t-46 70.5t-16.5 91.5v234q0 50 16.5 91t46 70.5t70.5 45.5t91 16q45 0 83.5 -14t67.5 -39.5
t47 -60t23 -76.5h-118q-8 35 -34.5 57t-68.5 22q-49 0 -77 -30t-28 -84v-10z" />
    <glyph glyph-name="uni20B9" unicode="&#x20b9;" horiz-adv-x="522" 
d="M304 0l-252 247l27 71h107q51 0 79.5 20t38.5 53v2h-268l29 79h239v2q-10 33 -38.5 53t-79.5 20h-149l40 107h112q109 0 168.5 -49.5t69.5 -132.5h87l-29 -79h-61q-13 -71 -64 -114.5t-139 -50.5v-2l243 -226h-160z" />
    <glyph glyph-name="uni2117" unicode="&#x2117;" horiz-adv-x="764" 
d="M730 327q0 -74 -25.5 -136t-72 -107.5t-110.5 -71t-140 -25.5q-77 0 -140.5 25.5t-110 71t-72 107.5t-25.5 136q0 73 25.5 135.5t72 108t110 71t140.5 25.5q76 0 140 -25.5t110.5 -71t72 -108t25.5 -135.5zM654 327q0 58 -19.5 107t-55.5 85t-86 56t-111 20t-111 -20
t-86 -56t-55.5 -85t-19.5 -107t19.5 -107t55.5 -85t86 -56t111 -20t111 20t86 56t55.5 85t19.5 107zM264 156v323h163q58 0 90 -30.5t32 -81.5t-32 -82.5t-90 -31.5h-88v-97h-75zM421 320q27 0 39 12.5t12 34.5q0 20 -12 32.5t-39 12.5h-82v-92h82z" />
    <glyph glyph-name="trademark" unicode="&#x2122;" horiz-adv-x="896" 
d="M754 282v284h-2l-106 -284h-72l-106 284h-2v-284h-72v372h118l98 -262h2l97 262h120v-372h-75zM141 282v304h-114v68h303v-68h-114v-304h-75z" />
    <glyph glyph-name="uni2126" unicode="&#x2126;" horiz-adv-x="596" 
d="M34 0v107h119v2q-33 34 -56 67t-37.5 67.5t-20.5 72t-6 80.5q0 63 19.5 113.5t55 85.5t84 53.5t106.5 18.5t106.5 -18.5t84 -53.5t55 -85.5t19.5 -113.5q0 -43 -6.5 -80.5t-20.5 -72t-37 -67.5t-56 -67v-2h119v-107h-224v91q29 39 49.5 74.5t33 71t18 73.5t5.5 82
q0 78 -40.5 120.5t-105.5 42.5t-105.5 -42.5t-40.5 -120.5q0 -44 5.5 -82t18 -73.5t33 -71t49.5 -74.5v-91h-224z" />
    <glyph glyph-name="onethird" unicode="&#x2153;" horiz-adv-x="824" 
d="M165 0l406 654h88l-406 -654h-88zM154 242v333h-75v79h163v-412h-88zM596 178v75h47q29 0 40 12t11 32q0 18 -11.5 30t-32.5 12q-20 0 -31 -11.5t-13 -30.5h-84q1 61 36.5 92t93.5 31q59 0 94.5 -31t35.5 -84q0 -61 -49 -87v-2q62 -26 62 -98q0 -59 -40 -92.5t-103 -33.5
t-103 34t-41 98h86q0 -23 15 -36.5t41 -13.5t41 13.5t15 36.5q0 26 -15 40t-50 14h-45z" />
    <glyph glyph-name="twothirds" unicode="&#x2154;" horiz-adv-x="824" 
d="M165 0l406 654h88l-406 -654h-88zM38 242v76l136 137q20 20 31 36.5t11 36.5q0 23 -11 37.5t-34 14.5t-34.5 -15t-11.5 -41v-6h-86v6q0 63 35 100.5t97 37.5t97.5 -38t35.5 -97q0 -40 -17.5 -68t-48.5 -58l-81 -78v-2h142v-79h-261zM596 178v75h47q29 0 40 12t11 32
q0 18 -11.5 30t-32.5 12q-20 0 -31 -11.5t-13 -30.5h-84q1 61 36.5 92t93.5 31q59 0 94.5 -31t35.5 -84q0 -61 -49 -87v-2q62 -26 62 -98q0 -59 -40 -92.5t-103 -33.5t-103 34t-41 98h86q0 -23 15 -36.5t41 -13.5t41 13.5t15 36.5q0 26 -15 40t-50 14h-45z" />
    <glyph glyph-name="oneeighth" unicode="&#x215b;" horiz-adv-x="824" 
d="M165 0l406 654h88l-406 -654h-88zM154 242v333h-75v79h163v-412h-88zM736 216q31 -13 48 -37.5t17 -60.5q0 -58 -40.5 -92t-106.5 -34t-106.5 34t-40.5 92q0 72 65 98v2q-51 26 -51 87q0 53 36 84t97 31t97.5 -31t36.5 -84q0 -31 -13.5 -52.5t-38.5 -34.5v-2zM654 180
q-29 0 -44.5 -14t-15.5 -40q0 -54 60 -54t60 54q0 26 -15.5 40t-43.5 14h-1zM655 254q23 0 35 12t12 31t-12.5 31t-35.5 12t-35.5 -12t-12.5 -31t12.5 -31t35.5 -12h1z" />
    <glyph glyph-name="threeeighths" unicode="&#x215c;" horiz-adv-x="824" 
d="M165 0l406 654h88l-406 -654h-88zM736 216q31 -13 48 -37.5t17 -60.5q0 -58 -40.5 -92t-106.5 -34t-106.5 34t-40.5 92q0 72 65 98v2q-51 26 -51 87q0 53 36 84t97 31t97.5 -31t36.5 -84q0 -31 -13.5 -52.5t-38.5 -34.5v-2zM654 180q-29 0 -44.5 -14t-15.5 -40
q0 -54 60 -54t60 54q0 26 -15.5 40t-43.5 14h-1zM655 254q23 0 35 12t12 31t-12.5 31t-35.5 12t-35.5 -12t-12.5 -31t12.5 -31t35.5 -12h1zM112 420v75h47q29 0 40 12t11 32q0 18 -11.5 30t-32.5 12q-20 0 -31 -11.5t-13 -30.5h-84q1 61 36.5 92t93.5 31q59 0 94.5 -31
t35.5 -84q0 -61 -49 -87v-2q62 -26 62 -98q0 -59 -40 -92.5t-103 -33.5t-103 34t-41 98h86q0 -23 15 -36.5t41 -13.5t41 13.5t15 36.5q0 26 -15 40t-50 14h-45z" />
    <glyph glyph-name="fiveeighths" unicode="&#x215d;" horiz-adv-x="824" 
d="M165 0l406 654h88l-406 -654h-88zM133 575l-12 -82h2q11 13 27 20t39 7q25 0 48 -9.5t40 -27.5t27.5 -43.5t10.5 -56.5v-6q0 -31 -10.5 -57.5t-30 -45.5t-46.5 -29.5t-60 -10.5q-30 0 -56 9.5t-45.5 26.5t-31 40.5t-14.5 52.5h90q5 -21 19.5 -34t37.5 -13q28 0 43 17.5
t15 43.5v6q0 27 -15 44.5t-43 17.5q-19 0 -32 -8.5t-22 -22.5l-77 21l28 219h219v-79h-151zM736 216q31 -13 48 -37.5t17 -60.5q0 -58 -40.5 -92t-106.5 -34t-106.5 34t-40.5 92q0 72 65 98v2q-51 26 -51 87q0 53 36 84t97 31t97.5 -31t36.5 -84q0 -31 -13.5 -52.5
t-38.5 -34.5v-2zM654 180q-29 0 -44.5 -14t-15.5 -40q0 -54 60 -54t60 54q0 26 -15.5 40t-43.5 14h-1zM655 254q23 0 35 12t12 31t-12.5 31t-35.5 12t-35.5 -12t-12.5 -31t12.5 -31t35.5 -12h1z" />
    <glyph glyph-name="seveneighths" unicode="&#x215e;" horiz-adv-x="824" 
d="M122 0l406 654h88l-406 -654h-88zM736 216q31 -13 48 -37.5t17 -60.5q0 -58 -40.5 -92t-106.5 -34t-106.5 34t-40.5 92q0 72 65 98v2q-51 26 -51 87q0 53 36 84t97 31t97.5 -31t36.5 -84q0 -31 -13.5 -52.5t-38.5 -34.5v-2zM654 180q-29 0 -44.5 -14t-15.5 -40
q0 -54 60 -54t60 54q0 26 -15.5 40t-43.5 14h-1zM655 254q23 0 35 12t12 31t-12.5 31t-35.5 12t-35.5 -12t-12.5 -31t12.5 -31t35.5 -12h1zM145 242h-95l162 331v2h-175v79h269v-76z" />
    <glyph glyph-name="partialdiff" unicode="&#x2202;" horiz-adv-x="522" 
d="M477 209q0 -54 -16 -95t-45 -69.5t-69.5 -43t-89.5 -14.5q-50 0 -90.5 14.5t-69.5 42.5t-45 69t-16 95q0 52 15 92.5t41 68t61 41.5t76 14q38 0 71.5 -14t56.5 -42h2v45q0 66 -32.5 104.5t-98.5 38.5q-45 0 -74 -10.5t-58 -30.5v114q32 21 70.5 29.5t68.5 8.5
q119 0 180.5 -62.5t61.5 -184.5v-211zM359 211q0 54 -28.5 81t-73.5 27t-73.5 -27t-28.5 -82v-4q0 -55 28.5 -81.5t73.5 -26.5t73.5 27t28.5 81v5z" />
    <glyph glyph-name="uni2206" unicode="&#x2206;" horiz-adv-x="596" 
d="M32 0v103l217 551h98l217 -551v-103h-532zM447 109l-148 383h-2l-148 -383v-2h298v2z" />
    <glyph glyph-name="product" unicode="&#x220f;" horiz-adv-x="666" 
d="M499 -132v679h-332v-679h-118v786h568v-786h-118z" />
    <glyph glyph-name="summation" unicode="&#x2211;" horiz-adv-x="666" 
d="M44 -132v103l269 290l-269 291v102h578v-107h-424v-2l264 -284l-264 -284v-2h424v-107h-578z" />
    <glyph glyph-name="minus" unicode="&#x2212;" horiz-adv-x="562" 
d="M48 211v102h466v-102h-466z" />
    <glyph glyph-name="radical" unicode="&#x221a;" horiz-adv-x="562" 
d="M182 -109l-135 419h106l80 -268h2l210 721h110l-267 -872h-106z" />
    <glyph glyph-name="integral" unicode="&#x222b;" horiz-adv-x="402" 
d="M73 -109v80h19q43 0 66.5 27t23.5 78q0 63 -11 125.5t-24.5 125t-24.5 125.5t-11 126q0 85 42 135t130 50h46v-80h-19q-43 0 -66.5 -27t-23.5 -78q0 -62 11 -124t24.5 -124.5t24.5 -125t11 -125.5q0 -87 -42 -137.5t-130 -50.5h-46z" />
    <glyph glyph-name="approxequal" unicode="&#x2248;" horiz-adv-x="562" 
d="M522 475q-2 -91 -38 -140.5t-105 -49.5q-38 0 -64.5 14t-47 30.5t-38 30.5t-37.5 14q-27 0 -40.5 -21t-15.5 -60h-96q1 91 37.5 140t105.5 49q38 0 64.5 -14t47 -30.5t38 -30t37.5 -13.5q27 0 40.5 21t15.5 60h96zM522 232q-2 -91 -38 -140.5t-105 -49.5q-38 0 -64.5 14
t-47 30.5t-38 30.5t-37.5 14q-27 0 -40.5 -21t-15.5 -60h-96q1 91 37.5 140t105.5 49q38 0 64.5 -14t47 -30.5t38 -30t37.5 -13.5q27 0 40.5 21t15.5 60h96z" />
    <glyph glyph-name="notequal" unicode="&#x2260;" horiz-adv-x="562" 
d="M230 99l-70 -95h-110l70 93v2h-72v103h134l87 118v2h-221v103h283l71 95h110l-70 -93v-2h72v-103h-135l-86 -118v-2h221v-103h-284z" />
    <glyph glyph-name="lessequal" unicode="&#x2264;" horiz-adv-x="562" 
d="M514 216v-212h-466v103h451v2l-451 152v102l466 157v-112l-339 -95v-2z" />
    <glyph glyph-name="greaterequal" unicode="&#x2265;" horiz-adv-x="562" 
d="M387 311v2l-339 95v112l466 -157v-102l-451 -152v-2h451v-103h-466v212z" />
    <glyph glyph-name="lozenge" unicode="&#x25ca;" horiz-adv-x="616" 
d="M256 0l-219 327l219 327h103l220 -327l-220 -327h-103zM456 327l-148 226h-2l-147 -226l147 -226h2z" />
    <glyph glyph-name="uniF8FF" unicode="&#xf8ff;" horiz-adv-x="4638" 
d="M1879 368h-2l-80 -368h-111l130 599h133l1 -314h2l139 314h135l-130 -599h-111l80 368h-2l-112 -243h-74zM383 112q-13 -58 -43 -85t-77 -27h-215l130 599h207q39 0 62 -18.5t23 -56.5q0 -7 -1 -15t-3 -16zM1076 0l25 118h-94l-25 -118h-111l106 493q11 53 44 79.5
t79 26.5h112q39 0 62.5 -19t23.5 -56q0 -15 -4 -31l-108 -493h-110zM1641 224q-7 -31 -23.5 -53.5t-36.5 -33.5l27 -137h-108l-23 118h-54l-26 -118h-111l130 599h202q38 0 61.5 -19t23.5 -56q0 -15 -4 -31zM3800 225q-11 -53 -43.5 -80t-78.5 -27h-105l-26 -118h-111
l130 599h210q38 0 61.5 -19t23.5 -56q0 -15 -4 -31zM771 0h-111l26 118h-92l-26 -118h-111l130 599h111l-84 -387h92l84 387h111zM3284 599l-80 -367q-5 -20 13 -20h55q20 0 24 20l79 367h112l-81 -374q-11 -52 -42 -78.5t-75 -28.5l-59 -118h-115l60 118q-39 0 -63 19.5
t-24 57.5q0 14 4 30l81 374h111zM4096 180h-123l-19 -86h158l-20 -94h-269l130 599h268l-21 -94h-156l-51 -231h123zM2899 0h-111l109 505h-91l21 94h292l-21 -94h-90zM248 94q21 0 25 19l81 373q5 19 -13 19h-72l-90 -411h69zM3745 486q5 19 -13 19h-75l-64 -293h72
q19 0 25 20zM1112 505q-21 0 -25 -19l-59 -274h94l59 274q6 19 -13 19h-56zM1587 486q5 19 -14 19h-67l-63 -293h64q21 0 25 20zM4589 366h-34v178h-1l-39 -122h-23l-40 122h-1v-178h-33v207h52l33 -105h1l33 105h52v-207zM4386 543h-49v-177h-34v177h-49v30h132v-30z
M2393 0l25 118h-94l-25 -118h-111l106 493q11 53 44 79.5t79 26.5h112q39 0 62.5 -19t23.5 -56q0 -15 -4 -31l-108 -493h-110zM2429 505q-21 0 -25 -19l-59 -274h94l59 274q5 19 -13 19h-56z" />
    <glyph glyph-name="glyph420" horiz-adv-x="320" 
d="M103 -257l29 66q-17 7 -28.5 23.5t-11.5 37.5q0 29 19.5 49t48.5 20t48.5 -20t19.5 -49q0 -9 -2.5 -17.5t-9.5 -20.5l-53 -89h-60z" />
    <glyph glyph-name="i.aalt" horiz-adv-x="251" 
d="M125 553q-33 0 -56 23t-23 56q0 34 23 57t56 23q34 0 56.5 -23t22.5 -57q0 -33 -22.5 -56t-56.5 -23zM66 0v494h119v-494h-119z" />
    </font>
</defs>
</svg>
