<svg xmlns="http://www.w3.org/2000/svg" width="13.239" height="14.053" viewBox="0 0 13.239 14.053">
  <g id="Menu" transform="translate(-2.695 -1.778)">
    <g id="Iconly_Light_Setting" data-name="Iconly/Light/Setting" transform="translate(3.28 2.278)">
      <g id="Setting">
        <path id="Path_33946" d="M11.9,3.629,11.475,2.9A1.3,1.3,0,0,0,9.7,2.42h0a1.29,1.29,0,0,1-1.771-.46,1.243,1.243,0,0,1-.169-.62h0A1.3,1.3,0,0,0,6.461,0H5.61A1.29,1.29,0,0,0,4.32,1.3h0a1.3,1.3,0,0,1-1.3,1.281,1.243,1.243,0,0,1-.62-.175h0a1.3,1.3,0,0,0-1.771.475l-.453.747A1.3,1.3,0,0,0,.649,5.4h0A1.3,1.3,0,0,1,1.3,6.523,1.3,1.3,0,0,1,.65,7.648h0A1.29,1.29,0,0,0,.174,9.413h0l.429.739a1.3,1.3,0,0,0,1.773.5h0a1.286,1.286,0,0,1,1.765.475,1.243,1.243,0,0,1,.174.621h0a1.3,1.3,0,0,0,1.3,1.3h.848a1.3,1.3,0,0,0,1.3-1.29h0a1.29,1.29,0,0,1,1.3-1.3,1.324,1.324,0,0,1,.621.174h0a1.3,1.3,0,0,0,1.771-.475h0l.447-.747a1.29,1.29,0,0,0-.475-1.771h0a1.29,1.29,0,0,1-.475-1.771,1.273,1.273,0,0,1,.475-.475h0A1.3,1.3,0,0,0,11.9,3.633h0Z" transform="translate(-0.001)" fill="none" stroke="#fff" stroke-linecap="round" stroke-linejoin="round" stroke-width="1" fill-rule="evenodd"/>
        <circle id="Ellipse_737" cx="1.789" cy="1.789" r="1.789" transform="translate(4.249 4.734)" fill="none" stroke="#fff" stroke-linecap="round" stroke-linejoin="round" stroke-width="1"/>
      </g>
    </g>
  </g>
</svg>
