<svg xmlns="http://www.w3.org/2000/svg" width="15.66" height="15.66" viewBox="0 0 15.66 15.66">
  <g id="payment_icon" data-name="payment icon" transform="translate(0 0)">
    <g id="Group_11484" data-name="Group 11484" transform="translate(0 0)">
      <path id="Path_44348" data-name="Path 44348" d="M15.613,8.111l-1.9-7.09A1.378,1.378,0,0,0,12.027.047L1.982,2.739a1.378,1.378,0,0,0-.973,1.686l.306,1.144A1.378,1.378,0,0,0,0,6.943v7.34A1.378,1.378,0,0,0,1.376,15.66h10.4a1.378,1.378,0,0,0,1.376-1.376V10.2l1.488-.4A1.378,1.378,0,0,0,15.613,8.111ZM13.341,3.178l.237.886-5.606,1.5H4.427ZM2.22,3.625,12.265.934a.459.459,0,0,1,.562.324L13.1,2.292,2.173,5.221,1.9,4.187a.459.459,0,0,1,.324-.562ZM12.234,14.284a.459.459,0,0,1-.459.459H1.376a.459.459,0,0,1-.459-.459V6.943a.459.459,0,0,1,.459-.459h10.4a.459.459,0,0,1,.459.459ZM14.4,8.91l-1.25.335v-2.3a1.378,1.378,0,0,0-1.376-1.376h-.258l2.3-.616.91,3.4a.459.459,0,0,1-.324.562Z" transform="translate(0 0)" fill="#fff"/>
      <path id="Path_44349" data-name="Path 44349" d="M60.459,244.753h3.059a.459.459,0,0,0,.459-.459v-1.835a.459.459,0,0,0-.459-.459H60.459a.459.459,0,0,0-.459.459v1.835A.459.459,0,0,0,60.459,244.753Zm.459-1.835h2.141v.918H60.918Z" transform="translate(-58.165 -234.598)" fill="#fff"/>
      <path id="Path_44350" data-name="Path 44350" d="M291.988,242h-1.529a.459.459,0,1,0,0,.918h1.529a.459.459,0,1,0,0-.918Z" transform="translate(-281.13 -234.598)" fill="#fff"/>
      <path id="Path_44351" data-name="Path 44351" d="M291.988,302h-1.529a.459.459,0,1,0,0,.918h1.529a.459.459,0,1,0,0-.918Z" transform="translate(-281.13 -292.763)" fill="#fff"/>
      <path id="Path_44352" data-name="Path 44352" d="M63.517,422H60.459a.459.459,0,1,0,0,.918h3.059a.459.459,0,1,0,0-.918Z" transform="translate(-58.165 -409.093)" fill="#fff"/>
      <path id="Path_44353" data-name="Path 44353" d="M60.459,362.918h.918a.459.459,0,1,0,0-.918h-.918a.459.459,0,1,0,0,.918Z" transform="translate(-58.165 -350.928)" fill="#fff"/>
      <path id="Path_44354" data-name="Path 44354" d="M151.376,362h-.918a.459.459,0,1,0,0,.918h.918a.459.459,0,0,0,0-.918Z" transform="translate(-145.412 -350.928)" fill="#fff"/>
      <path id="Path_44355" data-name="Path 44355" d="M241.376,362h-.918a.459.459,0,1,0,0,.918h.918a.459.459,0,0,0,0-.918Z" transform="translate(-232.66 -350.928)" fill="#fff"/>
    </g>
  </g>
</svg>
