<svg xmlns="http://www.w3.org/2000/svg" width="14.982" height="18.386" viewBox="0 0 14.982 18.386">
  <g id="Group_14853" data-name="Group 14853" transform="translate(-16.132 -13.859)">
    <path id="Path_44730" data-name="Path 44730" d="M23.626,32.245a.621.621,0,0,1-.453-.178c-.06-.054-6.035-5.6-6.88-9.3a.294.294,0,0,0-.008-.064.237.237,0,0,1-.007-.048,7.278,7.278,0,0,1-.146-1.456A7.526,7.526,0,0,1,28.985,16.07a7.318,7.318,0,0,1,1.969,6.685.177.177,0,0,1-.008.046.2.2,0,0,0-.008.049c-.735,3.16-5.386,7.81-6.792,9.162l-.037.036-.016.016A.7.7,0,0,1,23.626,32.245Zm-.016-17.1a6.116,6.116,0,0,0-6.167,6.05,6.426,6.426,0,0,0,.13,1.235.134.134,0,0,1,.016.079c.621,2.721,4.779,6.954,6.035,8.186,1.251-1.225,5.391-5.433,6.021-8.124v-.048a5.968,5.968,0,0,0,.146-1.331,6.124,6.124,0,0,0-6.184-6.049Z" transform="translate(0 0)" fill="#4e4e78"/>
    <path id="Path_44731" data-name="Path 44731" d="M23.9,23.5a2.766,2.766,0,1,1,2.826-2.765A2.8,2.8,0,0,1,23.9,23.5Zm0-4.113a1.332,1.332,0,1,0,.937.4,1.332,1.332,0,0,0-.937-.4Z" transform="translate(-0.28 -0.164)" fill="#4e4e78"/>
  </g>
</svg>
