<svg id="search" xmlns="http://www.w3.org/2000/svg" width="22.25" height="22.25" viewBox="0 0 22.25 22.25">
  <path id="Shape" d="M4.931,7.437l-.774,2.891-2.831.06A11.144,11.144,0,0,1,1.244,0h0l2.52.462,1.1,2.505a6.639,6.639,0,0,0,.062,4.47Z" transform="translate(0 6.009)" fill="#fbbb00"/>
  <path id="Shape-2" data-name="Shape" d="M10.686,0a11.137,11.137,0,0,1,.194,2.078A11.146,11.146,0,0,1,10.637,4.4,11.123,11.123,0,0,1,6.72,10.754h0l-3.174-.162L3.1,7.787A6.63,6.63,0,0,0,5.949,4.4H0V0H10.686Z" transform="translate(11.37 9.047)" fill="#518ef8"/>
  <path id="Shape-3" data-name="Shape" d="M16.763,6.354h0A11.078,11.078,0,0,1,9.8,8.8,11.123,11.123,0,0,1,0,2.951L3.605,0A6.615,6.615,0,0,0,9.8,4.292a6.578,6.578,0,0,0,3.341-.9l3.624,2.966Z" transform="translate(1.326 13.446)" fill="#28b446"/>
  <path id="Shape-4" data-name="Shape" d="M16.982,2.561l-3.6,2.951A6.616,6.616,0,0,0,3.625,8.976L0,6.009H0A11.127,11.127,0,0,1,16.982,2.561Z" transform="translate(1.244)" fill="#f14336"/>
</svg>
