<svg xmlns="http://www.w3.org/2000/svg" width="30" height="30" viewBox="0 0 30 30">
  <g id="Group_15903" data-name="Group 15903" transform="translate(-83 -273)">
    <g id="Rectangle_76" data-name="Rectangle 76" transform="translate(83 273)" fill="#fff" stroke="#96a1ab" stroke-width="1">
      <rect width="30" height="30" rx="15" stroke="none"/>
      <rect x="0.5" y="0.5" width="29" height="29" rx="14.5" fill="none"/>
    </g>
    <g id="building" transform="translate(51.949 279)">
      <path id="Path_44331" data-name="Path 44331" d="M272.29,102.632h1.61a.35.35,0,0,0,.35-.35V100.67a.35.35,0,0,0-.35-.35h-1.61a.35.35,0,0,0-.35.35v1.613A.35.35,0,0,0,272.29,102.632Zm.35-1.613h.911v.914h-.911Z" transform="translate(-225.716 -96.813)" fill="#96a1ab"/>
      <path id="Path_44332" data-name="Path 44332" d="M181.562,102.632h1.61a.35.35,0,0,0,.35-.35V100.67a.35.35,0,0,0-.35-.35h-1.61a.35.35,0,0,0-.35.35v1.613A.35.35,0,0,0,181.562,102.632Zm.35-1.613h.911v.914h-.911Z" transform="translate(-138.158 -96.813)" fill="#96a1ab"/>
      <path id="Path_44333" data-name="Path 44333" d="M272.29,204.212h1.61a.35.35,0,0,0,.35-.35V202.25a.35.35,0,0,0-.35-.35h-1.61a.35.35,0,0,0-.35.35v1.613A.35.35,0,0,0,272.29,204.212Zm.35-1.613h.911v.914h-.911Z" transform="translate(-225.716 -194.843)" fill="#96a1ab"/>
      <path id="Path_44334" data-name="Path 44334" d="M181.562,204.212h1.61a.35.35,0,0,0,.35-.35V202.25a.35.35,0,0,0-.35-.35h-1.61a.35.35,0,0,0-.35.35v1.613A.35.35,0,0,0,181.562,204.212Zm.35-1.613h.911v.914h-.911Z" transform="translate(-138.158 -194.843)" fill="#96a1ab"/>
      <path id="Path_44335" data-name="Path 44335" d="M272.29,305.789h1.61a.35.35,0,0,0,.35-.35v-1.613a.35.35,0,0,0-.35-.35h-1.61a.35.35,0,0,0-.35.35v1.613A.349.349,0,0,0,272.29,305.789Zm.35-1.613h.911v.914h-.911Z" transform="translate(-225.716 -292.869)" fill="#96a1ab"/>
      <path id="Path_44336" data-name="Path 44336" d="M183.172,305.789a.35.35,0,0,0,.35-.35v-1.613a.35.35,0,0,0-.35-.35h-1.61a.35.35,0,0,0-.35.35v1.613a.35.35,0,0,0,.35.35Zm-1.261-1.613h.911v.914h-.911Z" transform="translate(-138.158 -292.869)" fill="#96a1ab"/>
      <path id="Path_44337" data-name="Path 44337" d="M52.937,17.2h-.325V6.639a.35.35,0,0,0-.35-.35H49.985V1.956a.35.35,0,0,0-.35-.35h-.745V.35a.35.35,0,0,0-.35-.35H43.048a.35.35,0,0,0-.35.35V1.606h-.745a.35.35,0,0,0-.35.35V8.683H39.686a.35.35,0,0,0-.35.35V17.2H38.4a.35.35,0,1,0,0,.7H52.937a.35.35,0,1,0,0-.7ZM43.4.7h4.795v.907H43.4ZM40.036,9.382H41.6V17.2H40.036ZM42.3,2.305h6.983V17.2h-1.74V14.891a.35.35,0,0,0-.35-.35h-2.8a.35.35,0,0,0-.35.35V17.2H42.3ZM44.742,17.2V15.241h2.1V17.2Zm5.243,0V6.989h1.928V17.2Z" fill="#96a1ab"/>
    </g>
  </g>
</svg>
