<svg xmlns="http://www.w3.org/2000/svg" width="30" height="30" viewBox="0 0 30 30">
  <g id="Group_15904" data-name="Group 15904" transform="translate(-140 -273)">
    <g id="Rectangle_76" data-name="Rectangle 76" transform="translate(140 273)" fill="#fff" stroke="#0D1863" stroke-width="1">
      <rect width="30" height="30" rx="15" stroke="none"/>
      <rect x="0.5" y="0.5" width="29" height="29" rx="14.5" fill="none"/>
    </g>
    <g id="home" transform="translate(144.123 277.416)">
      <path id="Path_44313" data-name="Path 44313" d="M18.274,8.725l.391.266a.3.3,0,0,0,.413-.079l.668-.985a.3.3,0,0,0-.079-.413L11,1.635a.3.3,0,0,0-.334,0L2.007,7.514a.3.3,0,0,0-.079.413l.668.985a.3.3,0,0,0,.413.079L3.4,8.725V11.7a.74.74,0,0,0-.391.4,14.091,14.091,0,0,0-1.1,3.586A1.96,1.96,0,0,0,3.4,17.742v1.219H1.913v.595H19.762v-.595H18.274ZM2.921,8.331l-.334-.493,8.25-5.6,8.25,5.6-.334.493L11,3.073a.3.3,0,0,0-.334,0Zm-.413,7.357A13.269,13.269,0,0,1,3.56,12.326a.148.148,0,0,1,.275,0,13.269,13.269,0,0,1,1.052,3.363c0,.862-.5,1.487-1.19,1.487s-1.19-.626-1.19-1.487ZM4,17.742a1.96,1.96,0,0,0,1.487-2.053,14.091,14.091,0,0,0-1.1-3.586A.74.74,0,0,0,4,11.7V8.321l6.842-4.643,6.842,4.643v5.79l-.05-.075a.309.309,0,0,0-.5,0l-.595.892a.3.3,0,0,0-.05.165v.595h-.595v-.595a.3.3,0,0,0-.05-.165l-.595-.892a.309.309,0,0,0-.495,0l-.595.892a.3.3,0,0,0-.05.165v.595h-.595v-.595a.3.3,0,0,0-.05-.165l-.595-.892a.309.309,0,0,0-.5,0l-.595.892a.3.3,0,0,0-.05.165v3.867H9.945V13.309a.3.3,0,0,0-.3-.3H6.375a.3.3,0,0,0-.3.3v5.652H4Zm8.924,1.219h-.595V15.184l.3-.446.3.446Zm.595-2.677h.595v.595h-.595Zm0,1.19h.595v1.487h-.595ZM15.3,18.961H14.7V15.184l.3-.446.3.446Zm.595-2.677h.595v.595h-.595Zm0,1.19h.595v1.487h-.595ZM9.35,18.961H6.673V13.606H9.35Zm7.734,0V15.184l.3-.446.3.446v3.777Z" transform="translate(0)" fill="#0D1863"/>
      <path id="Path_44314" data-name="Path 44314" d="M26.19,23.165h1.785a1.191,1.191,0,0,0,1.19-1.19V20.19A1.191,1.191,0,0,0,27.975,19H26.19A1.191,1.191,0,0,0,25,20.19v1.785A1.191,1.191,0,0,0,26.19,23.165Zm-.595-1.19V21.38h1.19v1.19H26.19A.6.6,0,0,1,25.595,21.975Zm2.38.595H27.38V21.38h1.19v.595A.6.6,0,0,1,27.975,22.57Zm.595-2.38v.595H27.38v-1.19h.595A.6.6,0,0,1,28.57,20.19Zm-2.38-.595h.595v1.19h-1.19V20.19A.6.6,0,0,1,26.19,19.595Z" transform="translate(-16.245 -12.236)" fill="#0D1863"/>
      <path id="Path_44315" data-name="Path 44315" d="M23,50h.595v.595H23Z" transform="translate(-14.84 -34.014)" fill="#0D1863"/>
    </g>
  </g>
</svg>
