<svg xmlns="http://www.w3.org/2000/svg" width="30" height="30" viewBox="0 0 30 30">
  <g id="Group_15906" data-name="Group 15906" transform="translate(-255 -273)">
    <g id="Rectangle_76" data-name="Rectangle 76" transform="translate(255 273)" fill="#fff" stroke="#96a1ab" stroke-width="1">
      <rect width="30" height="30" rx="15" stroke="none"/>
      <rect x="0.5" y="0.5" width="29" height="29" rx="14.5" fill="none"/>
    </g>
    <g id="location" transform="translate(256.445 274.439)">
      <path id="Path_44329" data-name="Path 44329" d="M53.578,24.423A2.177,2.177,0,1,0,51.4,26.6,2.177,2.177,0,0,0,53.578,24.423Zm-3.839,0A1.662,1.662,0,1,1,51.4,26.085,1.662,1.662,0,0,1,49.739,24.423Z" transform="translate(-38.085 -15.08)" fill="#96a1ab"/>
      <path id="Path_44330" data-name="Path 44330" d="M22.058,21.728l-2.1-5.511a.258.258,0,0,0-.241-.166H15.736l.073-.118A13.243,13.243,0,0,0,18.1,9.344a4.784,4.784,0,1,0-9.568,0,13.242,13.242,0,0,0,2.29,6.59l.073.118H6.916a.258.258,0,0,0-.241.166l-2.1,5.511a.258.258,0,0,0,.241.35h17a.258.258,0,0,0,.241-.35ZM9.047,9.343a4.268,4.268,0,0,1,8.536,0c.022,3.664-3.4,8.182-4.268,9.265-.866-1.083-4.29-5.6-4.268-9.266Zm4.072,9.84a.258.258,0,0,0,.393,0,27.366,27.366,0,0,0,1.9-2.617h4.124l.33.866L11.808,20.3,8.935,16.566h2.283a27.367,27.367,0,0,0,1.9,2.617ZM11.8,20.848h0l4.808-1.709,1.865,2.423H9.794ZM7.094,16.566H8.284L11.3,20.48,8.255,21.562H5.188Zm12.031,5-2.005-2.606,2.932-1.043,1.391,3.648Z" transform="translate(0)" fill="#96a1ab"/>
    </g>
  </g>
</svg>
