<svg xmlns="http://www.w3.org/2000/svg" width="30" height="30" viewBox="0 0 30 30">
  <g id="Group_15905" data-name="Group 15905" transform="translate(-198 -273)">
    <g id="Rectangle_76" data-name="Rectangle 76" transform="translate(198 273)" fill="#fff" stroke="#96a1ab" stroke-width="1">
      <rect width="30" height="30" rx="15" stroke="none"/>
      <rect x="0.5" y="0.5" width="29" height="29" rx="14.5" fill="none"/>
    </g>
    <g id="parthenon" transform="translate(202 277)">
      <path id="Path_44316" data-name="Path 44316" d="M19.716,7.135H2.257A.257.257,0,0,1,2,6.878v-.77a.257.257,0,0,1,.154-.235l8.73-3.851a.257.257,0,0,1,.207,0l8.73,3.851a.257.257,0,0,1,.153.235v.77A.257.257,0,0,1,19.716,7.135Zm-17.2-.514H19.459V6.276L10.986,2.538,2.514,6.276Z" fill="#96a1ab"/>
      <path id="Path_44317" data-name="Path 44317" d="M52.851,59.541H49.257A.257.257,0,0,1,49,59.284V58.257A.257.257,0,0,1,49.257,58h3.595a.257.257,0,0,1,.257.257v1.027A.257.257,0,0,1,52.851,59.541Zm-3.338-.514h3.081v-.514H49.514Z" transform="translate(-34.933 -41.622)" fill="#96a1ab"/>
      <path id="Path_44318" data-name="Path 44318" d="M52.851,27.541H49.257A.257.257,0,0,1,49,27.284V26.257A.257.257,0,0,1,49.257,26h3.595a.257.257,0,0,1,.257.257v1.027A.257.257,0,0,1,52.851,27.541Zm-3.338-.514h3.081v-.514H49.514Z" transform="translate(-34.933 -17.838)" fill="#96a1ab"/>
      <path id="Path_44319" data-name="Path 44319" d="M54.311,37.7H52.257A.257.257,0,0,1,52,37.446V30.257A.257.257,0,0,1,52.257,30h2.054a.257.257,0,0,1,.257.257v7.189A.257.257,0,0,1,54.311,37.7Zm-1.8-.514h1.541V30.514H52.514Z" transform="translate(-37.162 -20.811)" fill="#96a1ab"/>
      <path id="Path_44320" data-name="Path 44320" d="M32.851,59.541H29.257A.257.257,0,0,1,29,59.284V58.257A.257.257,0,0,1,29.257,58h3.595a.257.257,0,0,1,.257.257v1.027A.257.257,0,0,1,32.851,59.541Zm-3.338-.514h3.081v-.514H29.514Z" transform="translate(-20.068 -41.622)" fill="#96a1ab"/>
      <path id="Path_44321" data-name="Path 44321" d="M32.851,27.541H29.257A.257.257,0,0,1,29,27.284V26.257A.257.257,0,0,1,29.257,26h3.595a.257.257,0,0,1,.257.257v1.027A.257.257,0,0,1,32.851,27.541Zm-3.338-.514h3.081v-.514H29.514Z" transform="translate(-20.068 -17.838)" fill="#96a1ab"/>
      <path id="Path_44322" data-name="Path 44322" d="M34.311,37.7H32.257A.257.257,0,0,1,32,37.446V30.257A.257.257,0,0,1,32.257,30h2.054a.257.257,0,0,1,.257.257v7.189A.257.257,0,0,1,34.311,37.7Zm-1.8-.514h1.541V30.514H32.514Z" transform="translate(-22.297 -20.811)" fill="#96a1ab"/>
      <path id="Path_44323" data-name="Path 44323" d="M12.851,59.541H9.257A.257.257,0,0,1,9,59.284V58.257A.257.257,0,0,1,9.257,58h3.595a.257.257,0,0,1,.257.257v1.027A.257.257,0,0,1,12.851,59.541Zm-3.338-.514h3.081v-.514H9.514Z" transform="translate(-5.203 -41.622)" fill="#96a1ab"/>
      <path id="Path_44324" data-name="Path 44324" d="M12.851,27.541H9.257A.257.257,0,0,1,9,27.284V26.257A.257.257,0,0,1,9.257,26h3.595a.257.257,0,0,1,.257.257v1.027A.257.257,0,0,1,12.851,27.541Zm-3.338-.514h3.081v-.514H9.514Z" transform="translate(-5.203 -17.838)" fill="#96a1ab"/>
      <path id="Path_44325" data-name="Path 44325" d="M14.311,37.7H12.257A.257.257,0,0,1,12,37.446V30.257A.257.257,0,0,1,12.257,30h2.054a.257.257,0,0,1,.257.257v7.189A.257.257,0,0,1,14.311,37.7Zm-1.8-.514h1.541V30.514H12.514Z" transform="translate(-7.432 -20.811)" fill="#96a1ab"/>
      <path id="Path_44326" data-name="Path 44326" d="M21.662,22.054H6.257A.257.257,0,0,1,6,21.8V20.257A.257.257,0,0,1,6.257,20H21.662a.257.257,0,0,1,.257.257V21.8A.257.257,0,0,1,21.662,22.054ZM6.514,21.541H21.405V20.514H6.514Z" transform="translate(-2.973 -13.378)" fill="#96a1ab"/>
      <path id="Path_44327" data-name="Path 44327" d="M19.716,67.541H2.257A.257.257,0,0,1,2,67.284V66.257A.257.257,0,0,1,2.257,66H19.716a.257.257,0,0,1,.257.257v1.027A.257.257,0,0,1,19.716,67.541Zm-17.2-.514H19.459v-.514H2.514Z" transform="translate(0 -47.568)" fill="#96a1ab"/>
      <path id="Path_44328" data-name="Path 44328" d="M21.176,63.541H5.257A.257.257,0,0,1,5,63.284V62.257A.257.257,0,0,1,5.257,62H21.176a.257.257,0,0,1,.257.257v1.027A.257.257,0,0,1,21.176,63.541ZM5.514,63.027H20.919v-.514H5.514Z" transform="translate(-2.23 -44.595)" fill="#96a1ab"/>
    </g>
  </g>
</svg>
