<svg xmlns="http://www.w3.org/2000/svg" xmlns:xlink="http://www.w3.org/1999/xlink" width="17" height="18" viewBox="0 0 17 18">
  <defs>
    <radialGradient id="radial-gradient" cx="0.5" cy="0.154" r="0.922" gradientUnits="objectBoundingBox">
      <stop offset="0" stop-color="#4ea3f8"/>
      <stop offset="1" stop-color="#0073e4"/>
    </radialGradient>
  </defs>
  <g id="Artboard" transform="translate(0.154 0.5)">
    <g id="Group-8">
      <ellipse id="Oval" cx="8" cy="8.5" rx="8" ry="8.5" transform="translate(0.346 0)" stroke="#fff" stroke-width="1" fill="url(#radial-gradient)"/>
      <g id="svgexport-11_4_" data-name="svgexport-11 (4)" transform="translate(-7.276 -0.893)">
        <path id="Path_46347" data-name="Path 46347" d="M20.1,10.262a2.009,2.009,0,0,0,.9-.213v.36l-.691.4,0,.246.9.749c.14-.269.521-1,.656-1.258l-.213-.306a.193.193,0,0,0-.256-.058c-.008.016,0-.393,0-.389a2.118,2.118,0,0,0,.313-.33,1.137,1.137,0,0,0,.712-.911.816.816,0,0,0,.2-1.431,6.009,6.009,0,0,0,.157-1.375,2,2,0,0,0-2.548-1.692l-1.291.379c-1.117.006-1.514.395-1.514,1.475V7.281a.8.8,0,0,0-.174.5.817.817,0,0,0,.815.817h.066A2,2,0,0,0,18.82,9.8v.389a.194.194,0,0,0-.261.058l-.2.3s.617,1.2.645,1.264c.13-.107.807-.675.918-.767l0-.211-.718-.416v-.36a1.967,1.967,0,0,0,.9.213Zm2.039-2.048h-.033v-.86A.43.43,0,1,1,22.142,8.214Zm-4.5-.43a.432.432,0,0,1,.463-.43v.86a.432.432,0,0,1-.463-.43Zm.85.472c0-.429,0-1.386,0-1.808a2.7,2.7,0,0,0,2.294-.283,2.87,2.87,0,0,0,.941.207V8.256a1.6,1.6,0,0,1-.259.877c-.056.013-.653.022-.653.022a.179.179,0,0,0-.191-.141h-.794a.177.177,0,0,0-.194.152v.364a.177.177,0,0,0,.194.152h.794a.179.179,0,0,0,.191-.141h.275a1.594,1.594,0,0,1-.981.332,1.62,1.62,0,0,1-1.616-1.618Z" transform="translate(-4.484 0)" fill="#fff"/>
        <path id="Path_46348" data-name="Path 46348" d="M35.884,39.57l-1.024-.31c-.121.234-.6,1.144-.728,1.394a.192.192,0,0,1-.134.1.194.194,0,0,1-.163-.041l-.834-.7-.012,3.258h3.547a.194.194,0,0,0,.194-.194V40.708a1.2,1.2,0,0,0-.846-1.138Z" transform="translate(-17.176 -28.458)" fill="#fff"/>
        <path id="Path_46349" data-name="Path 46349" d="M14.46,40.758a.2.2,0,0,1-.174-.1l-.709-1.394-1.04.31a1.2,1.2,0,0,0-.848,1.138v2.373a.194.194,0,0,0,.194.194h3.543c0-.006.012-3.276.012-3.276l-.854.714a.2.2,0,0,1-.124.045Z" transform="translate(0 -28.458)" fill="#fff"/>
      </g>
    </g>
  </g>
</svg>
