<svg xmlns="http://www.w3.org/2000/svg" width="18.519" height="21.165" viewBox="0 0 18.519 21.165">
  <path id="Icon_awesome-trash-alt" data-name="Icon awesome-trash-alt" d="M1.323,19.181a1.984,1.984,0,0,0,1.984,1.984H15.212A1.984,1.984,0,0,0,17.2,19.181V5.291H1.323ZM12.567,8.6a.661.661,0,1,1,1.323,0v9.26a.661.661,0,1,1-1.323,0ZM8.6,8.6a.661.661,0,0,1,1.323,0v9.26a.661.661,0,0,1-1.323,0ZM4.63,8.6a.661.661,0,1,1,1.323,0v9.26a.661.661,0,1,1-1.323,0ZM17.858,1.323H12.9L12.509.55A.992.992,0,0,0,11.62,0H6.9a.981.981,0,0,0-.885.55l-.389.773H.661A.661.661,0,0,0,0,1.984V3.307a.661.661,0,0,0,.661.661h17.2a.661.661,0,0,0,.661-.661V1.984A.661.661,0,0,0,17.858,1.323Z" transform="translate(0 0)" fill="#aab2b7"/>
</svg>
