<svg xmlns="http://www.w3.org/2000/svg" viewBox="0 0 17.502 20">
  <path id="Fill_929" data-name="Fill 929"
    d="M15.06,20H2.441a2.418,2.418,0,0,1-1.824-.839,2.541,2.541,0,0,1-.6-1.953L1.261,6.375A2.464,2.464,0,0,1,3.686,4.167h.995A4.125,4.125,0,0,1,8.751,0,4.124,4.124,0,0,1,12.82,4.167h.995A2.464,2.464,0,0,1,16.24,6.375l1.245,10.833a2.541,2.541,0,0,1-.6,1.953A2.418,2.418,0,0,1,15.06,20ZM3.686,5.834a.821.821,0,0,0-.808.734L1.633,17.4a.851.851,0,0,0,.2.654.806.806,0,0,0,.608.279H15.06a.806.806,0,0,0,.608-.279.851.851,0,0,0,.2-.654L14.623,6.567a.82.82,0,0,0-.808-.734h-1v.833a.814.814,0,1,1-1.628,0V5.834H6.309v.833a.814.814,0,1,1-1.628,0V5.834ZM8.751,1.667a2.475,2.475,0,0,0-2.442,2.5h4.884A2.517,2.517,0,0,0,10.477,2.4a2.4,2.4,0,0,0-1.726-.733Z"
    fill="currentColor" />
</svg>
