<svg xmlns="http://www.w3.org/2000/svg" width="11" height="15.367" viewBox="0 0 11 15.367">
  <path id="Fill_1178" data-name="Fill 1178" d="M4.81,15.367a2.116,2.116,0,0,1-1.367-.5A1.93,1.93,0,0,1,2.761,13.6h-.7A2.021,2.021,0,0,1,0,11.63V3.738A2.021,2.021,0,0,1,2.062,1.765h.7A1.93,1.93,0,0,1,3.443.5,2.117,2.117,0,0,1,4.81,0a2.149,2.149,0,0,1,.684.112L9.619,1.493A1.985,1.985,0,0,1,11,3.356v8.656a1.984,1.984,0,0,1-1.381,1.863L5.494,15.255A2.15,2.15,0,0,1,4.81,15.367Zm0-14.052h0a.7.7,0,0,0-.48.188.638.638,0,0,0-.206.47V13.393a.673.673,0,0,0,.686.658.719.719,0,0,0,.229-.038l4.125-1.381a.66.66,0,0,0,.46-.621V3.356a.662.662,0,0,0-.46-.621L5.04,1.354a.719.719,0,0,0-.229-.038ZM2.062,3.08a.674.674,0,0,0-.687.658V11.63a.674.674,0,0,0,.687.658H2.75V3.08ZM6.188,9A.674.674,0,0,1,5.5,8.341V7.026a.688.688,0,0,1,1.375,0V8.341A.674.674,0,0,1,6.188,9Z" transform="translate(0 0)" fill="#ff002a"/>
</svg>
