<svg xmlns="http://www.w3.org/2000/svg" xmlns:xlink="http://www.w3.org/1999/xlink" width="539" height="689" viewBox="0 0 539 689">
  <defs>
    <linearGradient id="linear-gradient" x2="1" y2="1" gradientUnits="objectBoundingBox">
      <stop offset="0" stop-color="#0d1863"/>
      <stop offset="0.5" stop-color="#ff002a"/>
      <stop offset="1" stop-color="#0d1863"/>
    </linearGradient>
  </defs>
  <path id="Rectangle_3_Copy_Difference" data-name="Rectangle 3 Copy Difference" d="M524,689H15A15,15,0,0,1,0,674V15A15,15,0,0,1,15,0H524a15,15,0,0,1,15,15V674a15,15,0,0,1-15,15ZM20,11.954a10.012,10.012,0,0,0-10,10V669.219a10.011,10.011,0,0,0,10,10H519a10.011,10.011,0,0,0,10-10V21.955a10.012,10.012,0,0,0-10-10Z" transform="translate(0 0)" fill="url(#linear-gradient)"/>
</svg>
