<svg xmlns="http://www.w3.org/2000/svg" width="18.544" height="18.524" viewBox="0 0 18.544 18.524">
  <g id="discount" transform="translate(-0.149 511.853)">
    <path id="Path_45847" data-name="Path 45847" d="M6.956-511.794c-.58.152-.9.467-1.329,1.3a4.919,4.919,0,0,1-.362.633c-.047.04-.217.047-.841.04-.9-.014-1.08.022-1.474.271a1.676,1.676,0,0,0-.707.949,2.884,2.884,0,0,0-.062,1.018c.007.62,0,.794-.04.841a4.65,4.65,0,0,1-.633.362,3.825,3.825,0,0,0-.783.485,1.749,1.749,0,0,0-.528,1.71,2.715,2.715,0,0,0,.51.975,4.824,4.824,0,0,1,.333.569c.025.1-.029.2-.369.724a2.493,2.493,0,0,0-.467.924,1.741,1.741,0,0,0,.528,1.707,4.5,4.5,0,0,0,.8.492,2.433,2.433,0,0,1,.633.4,3.289,3.289,0,0,1,.022.814,2.469,2.469,0,0,0,.058.989,1.843,1.843,0,0,0,1.043,1.137c.2.08.25.083,1.065.083a2.8,2.8,0,0,1,.913.051,4.439,4.439,0,0,1,.362.624,4.142,4.142,0,0,0,.481.786,1.752,1.752,0,0,0,1.714.532,2.715,2.715,0,0,0,.982-.5,4.823,4.823,0,0,1,.569-.333c.1-.025.2.029.724.369a2.494,2.494,0,0,0,.924.467,1.752,1.752,0,0,0,1.714-.532,4.14,4.14,0,0,0,.481-.786,4.442,4.442,0,0,1,.362-.623,2.8,2.8,0,0,1,.914-.039c.814,0,.866,0,1.065-.083a1.852,1.852,0,0,0,1.04-1.123,2.715,2.715,0,0,0,.065-1.025c-.007-.623,0-.794.04-.841a4.885,4.885,0,0,1,.623-.362,4.14,4.14,0,0,0,.786-.481,1.752,1.752,0,0,0,.532-1.714,2.493,2.493,0,0,0-.467-.924c-.34-.525-.395-.633-.369-.724a4.824,4.824,0,0,1,.333-.569,2.714,2.714,0,0,0,.5-.982,1.749,1.749,0,0,0-.532-1.709,3.529,3.529,0,0,0-.783-.485,5.454,5.454,0,0,1-.633-.355,2.818,2.818,0,0,1-.051-.917c0-.814,0-.866-.083-1.065a1.852,1.852,0,0,0-1.123-1.04,2.715,2.715,0,0,0-1.025-.065c-.623.007-.794,0-.841-.04a4.873,4.873,0,0,1-.362-.623,4.14,4.14,0,0,0-.481-.786,1.752,1.752,0,0,0-1.714-.532,2.715,2.715,0,0,0-.982.5,4.827,4.827,0,0,1-.569.333c-.1.025-.2-.029-.724-.369a2.493,2.493,0,0,0-.924-.467,1.752,1.752,0,0,0-.861.01Zm.62,1.438c.058.029.319.192.58.362a2.058,2.058,0,0,0,1.267.467,2.162,2.162,0,0,0,1.329-.507,6.384,6.384,0,0,1,.62-.362.362.362,0,0,1,.188.025c.09.036.163.156.434.667.362.7.569.942.942,1.141a2.329,2.329,0,0,0,1.394.2l.707-.025.09.091.1.09-.025.724a2.317,2.317,0,0,0,.2,1.4,2.371,2.371,0,0,0,1.159.949c.5.261.613.333.649.423a.362.362,0,0,1,.025.188,6.369,6.369,0,0,1-.362.62,2.162,2.162,0,0,0-.507,1.329,2.162,2.162,0,0,0,.507,1.329,6.373,6.373,0,0,1,.362.62.362.362,0,0,1-.025.188c-.036.09-.152.166-.671.434-.7.369-.938.569-1.137.942a2.328,2.328,0,0,0-.2,1.394l.025.707-.09.091-.09.1-.724-.025a2.3,2.3,0,0,0-1.394.2c-.373.2-.576.442-.942,1.141-.271.51-.347.633-.434.667a.362.362,0,0,1-.188.025,6.365,6.365,0,0,1-.62-.362,2.162,2.162,0,0,0-1.329-.507,2.153,2.153,0,0,0-1.326.507,6.056,6.056,0,0,1-.62.362.367.367,0,0,1-.181-.027c-.09-.036-.163-.148-.423-.649a2.353,2.353,0,0,0-.947-1.161,2.318,2.318,0,0,0-1.4-.2l-.724.025-.09-.1-.09-.09.024-.707a3.7,3.7,0,0,0-.033-.949c-.145-.616-.474-.964-1.347-1.416-.481-.246-.591-.315-.627-.405a.362.362,0,0,1-.025-.188,6.128,6.128,0,0,1,.369-.627,2.15,2.15,0,0,0,.5-1.322,2.15,2.15,0,0,0-.5-1.322,6.578,6.578,0,0,1-.369-.627.362.362,0,0,1,.025-.188c.036-.091.148-.163.649-.423a2.353,2.353,0,0,0,1.159-.949,2.341,2.341,0,0,0,.2-1.4l-.025-.707.09-.09.09-.1.724.025a2.318,2.318,0,0,0,1.4-.2,2.371,2.371,0,0,0,.949-1.167c.366-.7.446-.769.714-.633Z" transform="translate(0)" fill="currentColor"/>
    <path id="Path_45848" data-name="Path 45848" d="M114.823-384.721a2,2,0,0,0-.985.58,1.972,1.972,0,0,0-.58,1,2.172,2.172,0,0,0,.188,1.546,2.665,2.665,0,0,0,.888.888,2.172,2.172,0,0,0,1.546.188,1.957,1.957,0,0,0,1-.58,1.99,1.99,0,0,0,.58-1,2.172,2.172,0,0,0-.188-1.546,2.666,2.666,0,0,0-.888-.888A2.234,2.234,0,0,0,114.823-384.721Zm.935,1.5a.649.649,0,0,1,.308.6.652.652,0,0,1-.318.609.779.779,0,0,1-.761.011.749.749,0,0,1-.319-.83.814.814,0,0,1,.445-.474.879.879,0,0,1,.645.083Z" transform="translate(-108.942 -122.466)" fill="currentColor"/>
    <path id="Path_45849" data-name="Path 45849" d="M173.9-374.921c-.025.047-1.069,1.982-2.326,4.3s-2.289,4.242-2.3,4.267.152.043.8.036l.823-.011,2.322-4.293c1.275-2.362,2.329-4.314,2.336-4.343s-.159-.043-.8-.043C173.951-375,173.944-375,173.9-374.921Z" transform="translate(-162.995 -131.896)" fill="currentColor"/>
    <path id="Path_45850" data-name="Path 45850" d="M279.823-244.721a2,2,0,0,0-.985.58,1.971,1.971,0,0,0-.58,1,2.172,2.172,0,0,0,.188,1.546,2.666,2.666,0,0,0,.888.888,2.172,2.172,0,0,0,1.546.188,1.972,1.972,0,0,0,1-.58,1.971,1.971,0,0,0,.58-1,2.172,2.172,0,0,0-.188-1.546,2.666,2.666,0,0,0-.888-.888,2.234,2.234,0,0,0-1.556-.188Zm.935,1.5a.649.649,0,0,1,.308.6.652.652,0,0,1-.319.609.779.779,0,0,1-.761.011.749.749,0,0,1-.318-.83.814.814,0,0,1,.445-.474.878.878,0,0,1,.645.083Z" transform="translate(-267.965 -257.394)" fill="currentColor"/>
  </g>
</svg>
