<svg xmlns="http://www.w3.org/2000/svg" width="24.031" height="24.005" viewBox="0 0 24.031 24.005">
  <g id="Group_15001" data-name="Group 15001" transform="translate(-2928.103 7438.327)">
    <path id="Path_43918" data-name="Path 43918" d="M207.5,99.379v.691a.479.479,0,0,1-.479.479h0l-2.025,0V98.9h2.023a.479.479,0,0,1,.48.478Z" transform="translate(2743.318 -7528.308)" fill="#fff"/>
    <path id="Path_43919" data-name="Path 43919" d="M203.66,99.372a.16.16,0,0,1-.16-.16V97.56a.16.16,0,0,1,.16-.16h2.024a.639.639,0,0,1,.638.638v.691a.639.639,0,0,1-.638.638h-.011l-2.012,0Zm2.183-.162h0Zm-2.023-1.491v1.334l1.864,0h.01a.32.32,0,0,0,.31-.319V98.04a.32.32,0,0,0-.311-.319h-.009Z" transform="translate(2744.659 -7526.968)" fill="#aab2b7"/>
    <path id="Path_43920" data-name="Path 43920" d="M155.326,19.37l-.082-.121a2.138,2.138,0,0,0-1.774-.945h-1.71V16.675h-2.648V18.3H147.4a2.138,2.138,0,0,0-1.775.946l-.081.121,1.406,1.43.857,4.388h5.253l.857-4.388Z" transform="translate(2796.447 -7454.831)" fill="#fff"/>
    <path id="Path_43921" data-name="Path 43921" d="M151.724,24.007h-5.253a.16.16,0,0,1-.157-.129l-.848-4.341-1.372-1.4a.16.16,0,0,1-.019-.2l.081-.121a2.294,2.294,0,0,1,1.907-1.017h1.55V15.335a.16.16,0,0,1,.16-.16h2.648a.16.16,0,0,1,.16.16V16.8h1.55a2.294,2.294,0,0,1,1.907,1.016l.082.121a.16.16,0,0,1-.019.2l-1.373,1.4-.848,4.341A.16.16,0,0,1,151.724,24.007Zm-5.121-.319h4.989l.832-4.259a.16.16,0,0,1,.043-.081l1.315-1.337L153.772,18a1.975,1.975,0,0,0-1.642-.875h-1.709a.16.16,0,0,1-.16-.16V15.494h-2.329v1.469a.16.16,0,0,1-.16.16h-1.71a1.975,1.975,0,0,0-1.642.875l-.008.013,1.315,1.337a.16.16,0,0,1,.043.081Z" transform="translate(2797.786 -7453.49)" fill="#aab2b7"/>
    <path id="Path_43922" data-name="Path 43922" d="M185.284,84.827v1.867h1.325V70.1h-1.325Z" transform="translate(2760.937 -7502.572)" fill="#fff"/>
    <path id="Path_43923" data-name="Path 43923" d="M185.269,85.512h-1.325a.16.16,0,0,1-.16-.16V83.486a.16.16,0,1,1,.319,0v1.707h1.006V68.919H184.1V81.9a.16.16,0,1,1-.319,0V68.76a.16.16,0,0,1,.16-.16h1.325a.16.16,0,0,1,.16.16V85.353a.16.16,0,0,1-.16.16Z" transform="translate(2762.277 -7501.231)" fill="#aab2b7"/>
    <path id="Path_43924" data-name="Path 43924" d="M163.875,226.083h3.65a1.248,1.248,0,0,1,1.248,1.248v.138h-6.146v-.138a1.248,1.248,0,0,1,1.248-1.248Z" transform="translate(2781.184 -7641.961)" fill="#fff"/>
    <path id="Path_43925" data-name="Path 43925" d="M167.435,226.293H161.29a.16.16,0,0,1-.16-.16V226a1.409,1.409,0,0,1,1.407-1.407h3.65A1.409,1.409,0,0,1,167.595,226v.138A.16.16,0,0,1,167.435,226.293Zm-5.986-.319h5.826a1.09,1.09,0,0,0-1.088-1.068h-3.65a1.09,1.09,0,0,0-1.088,1.068Z" transform="translate(2782.521 -7640.625)" fill="#aab2b7"/>
    <path id="Path_43926" data-name="Path 43926" d="M165.737,55.45l-.287,1.47-.57,2.918h-5.252l-.57-2.918-.287-1.47Z" transform="translate(2784.63 -7489.48)" fill="#fff"/>
    <path id="Path_43927" data-name="Path 43927" d="M163.537,58.663h-5.252a.16.16,0,0,1-.157-.129l-.858-4.388a.16.16,0,0,1,.156-.19h6.967a.16.16,0,0,1,.156.19l-.858,4.388a.159.159,0,0,1-.156.129Zm-5.12-.319h4.989l.8-4.069h-6.58Z" transform="translate(2785.973 -7488.145)" fill="#aab2b7"/>
    <path id="Path_43928" data-name="Path 43928" d="M164.058,31.985h.814v2.5h-.814Z" transform="translate(2779.905 -7468.512)" fill="#fff"/>
    <path id="Path_43929" data-name="Path 43929" d="M163.531,33.3h-.814a.16.16,0,0,1-.16-.16v-2.5a.16.16,0,0,1,.16-.16h.814a.16.16,0,0,1,.16.16v2.5A.16.16,0,0,1,163.531,33.3Zm-.654-.319h.495V30.8h-.495Z" transform="translate(2781.245 -7467.171)" fill="#aab2b7"/>
    <path id="Path_43930" data-name="Path 43930" d="M211.048,31.985h.814v2.5h-.814Z" transform="translate(2737.913 -7468.512)" fill="#fff"/>
    <path id="Path_43931" data-name="Path 43931" d="M210.524,33.3h-.814a.16.16,0,0,1-.16-.16v-2.5a.16.16,0,0,1,.16-.16h.814a.16.16,0,0,1,.16.16v2.5A.16.16,0,0,1,210.524,33.3Zm-.654-.319h.495V30.8h-.495Z" transform="translate(2739.251 -7467.171)" fill="#aab2b7"/>
    <path id="Path_43932" data-name="Path 43932" d="M165.735,55.454l-.287,1.47h-2.577l-.622-1.011-.621,1.011h-2.572l-.287-1.47Z" transform="translate(2784.632 -7489.484)" fill="#fff"/>
    <path id="Path_43933" data-name="Path 43933" d="M164.111,55.744h-2.577a.16.16,0,0,1-.136-.076l-.486-.79-.485.79a.16.16,0,0,1-.136.076h-2.572a.16.16,0,0,1-.156-.129l-.287-1.47a.16.16,0,0,1,.156-.19H164.4a.16.16,0,0,1,.156.19l-.287,1.47A.16.16,0,0,1,164.111,55.744Zm-2.487-.319h2.356l.225-1.151h-6.579l.225,1.151H160.2l.574-.935a.16.16,0,0,1,.136-.076h0a.16.16,0,0,1,.136.076Z" transform="translate(2785.969 -7488.144)" fill="#aab2b7"/>
    <path id="Path_43934" data-name="Path 43934" d="M153.833,106.266H143.65c0-3.592.95-6.744,2.38-8.528h5.423c1.43,1.784,2.38,4.936,2.38,8.528Z" transform="translate(2798.142 -7527.27)" fill="#fff"/>
    <path id="Path_43935" data-name="Path 43935" d="M152.493,105.085H142.31a.16.16,0,0,1-.16-.16c0-3.516.9-6.741,2.415-8.627a.16.16,0,0,1,.124-.06h5.423a.16.16,0,0,1,.124.06c1.512,1.886,2.415,5.111,2.415,8.627a.16.16,0,0,1-.16.16Zm-10.023-.319h9.863c-.026-3.346-.88-6.4-2.3-8.208h-5.269C143.35,98.368,142.5,101.419,142.47,104.766Z" transform="translate(2799.482 -7525.929)" fill="#aab2b7"/>
    <path id="Path_43936" data-name="Path 43936" d="M207.026,124.372H205.9l.563-6.372Z" transform="translate(2742.514 -7545.376)" fill="#fff"/>
    <path id="Path_43937" data-name="Path 43937" d="M205.685,123.2H204.56a.16.16,0,0,1-.159-.174l.563-6.372a.16.16,0,0,1,.318,0l.563,6.372a.16.16,0,0,1-.159.174Zm-.951-.319h.777l-.388-4.4Z" transform="translate(2743.854 -7544.042)" fill="#aab2b7"/>
    <path id="Path_43938" data-name="Path 43938" d="M171,89.69l-.061.856h-5.423l-.061-.856Z" transform="translate(2778.66 -7520.078)" fill="#f3dec3"/>
    <path id="Path_43939" data-name="Path 43939" d="M169.592,89.365h-5.423a.16.16,0,0,1-.16-.148l-.061-.856a.16.16,0,0,1,.16-.171h5.545a.16.16,0,0,1,.16.171l-.061.856a.16.16,0,0,1-.16.148Zm-5.275-.319h5.126l.038-.537h-5.2Z" transform="translate(2780.003 -7518.737)"/>
    <path id="Path_43940" data-name="Path 43940" d="M171,89.691l-.061.856h-5.423l-.061-.856Z" transform="translate(2778.66 -7520.079)" fill="#f3dec3"/>
    <path id="Path_43941" data-name="Path 43941" d="M169.592,89.365h-5.423a.16.16,0,0,1-.16-.148l-.061-.856a.16.16,0,0,1,.16-.171h5.545a.16.16,0,0,1,.16.171l-.061.856a.16.16,0,0,1-.16.148Zm-5.275-.319h5.126l.038-.537h-5.2Z" transform="translate(2780.003 -7518.737)"/>
    <path id="Path_43942" data-name="Path 43942" d="M157.7,83.9v1.66a.479.479,0,0,0-.479-.479H149.27V83.439h7.969a.463.463,0,0,1,.463.463Z" transform="translate(2793.119 -7514.492)" fill="#fff"/>
    <path id="Path_43943" data-name="Path 43943" d="M156.36,84.382a.16.16,0,0,1-.16-.16.32.32,0,0,0-.319-.319h-7.953a.16.16,0,0,1-.16-.16V82.1a.16.16,0,0,1,.16-.16H155.9a.624.624,0,0,1,.623.623v1.66A.16.16,0,0,1,156.36,84.382Zm-8.272-.8h7.793a.635.635,0,0,1,.319.086V82.562a.3.3,0,0,0-.3-.3h-7.809Z" transform="translate(2794.461 -7513.151)" fill="#aab2b7"/>
    <path id="Path_43944" data-name="Path 43944" d="M156.293,82.937a.16.16,0,0,1-.16-.16V82.1a.16.16,0,1,1,.319,0v.677A.16.16,0,0,1,156.293,82.937Z" transform="translate(2786.987 -7513.153)" fill="#aab2b7"/>
    <path id="Path_43945" data-name="Path 43945" d="M164.108,83.3a.16.16,0,0,1-.16-.16V82.1a.16.16,0,0,1,.319,0v1.044A.16.16,0,0,1,164.108,83.3Z" transform="translate(2780.003 -7513.152)" fill="#aab2b7"/>
    <path id="Path_43946" data-name="Path 43946" d="M171.927,82.937a.16.16,0,0,1-.16-.16V82.1a.16.16,0,1,1,.319,0v.677A.16.16,0,0,1,171.927,82.937Z" transform="translate(2773.016 -7513.153)" fill="#aab2b7"/>
    <path id="Path_43947" data-name="Path 43947" d="M179.743,83.3a.16.16,0,0,1-.16-.16V82.1a.16.16,0,0,1,.319,0v1.044A.16.16,0,0,1,179.743,83.3Z" transform="translate(2766.031 -7513.152)" fill="#aab2b7"/>
    <path id="Path_43948" data-name="Path 43948" d="M187.56,82.937a.16.16,0,0,1-.16-.16V82.1a.16.16,0,1,1,.319,0v.677A.16.16,0,0,1,187.56,82.937Z" transform="translate(2759.046 -7513.153)" fill="#aab2b7"/>
    <path id="Path_43949" data-name="Path 43949" d="M195.377,83.3a.16.16,0,0,1-.16-.16V82.1a.16.16,0,0,1,.319,0v1.044A.16.16,0,0,1,195.377,83.3Z" transform="translate(2752.06 -7513.152)" fill="#aab2b7"/>
    <path id="Path_43950" data-name="Path 43950" d="M203.195,82.937a.16.16,0,0,1-.16-.16V82.1a.16.16,0,1,1,.319,0v.677A.16.16,0,0,1,203.195,82.937Z" transform="translate(2745.074 -7513.153)" fill="#aab2b7"/>
    <path id="Path_43951" data-name="Path 43951" d="M211.011,83.3a.16.16,0,0,1-.16-.16V82.1a.16.16,0,0,1,.319,0v1.044A.16.16,0,0,1,211.011,83.3Z" transform="translate(2738.09 -7513.152)" fill="#aab2b7"/>
    <path id="Path_43952" data-name="Path 43952" d="M218.829,82.937a.16.16,0,0,1-.16-.16V82.1a.16.16,0,1,1,.319,0v.677A.16.16,0,0,1,218.829,82.937Z" transform="translate(2731.103 -7513.153)" fill="#aab2b7"/>
    <path id="Path_43953" data-name="Path 43953" d="M42.055,160.271s.363,1.347,1.407,1.409c0,0-1.394.481-1.417,1.511,0,0-.274-1.444-1.375-1.5a1.648,1.648,0,0,0,1.385-1.424Z" transform="translate(2890.167 -7583.151)" fill="#fff"/>
    <path id="Path_43954" data-name="Path 43954" d="M40.7,162.011a.16.16,0,0,1-.157-.13c0-.013-.265-1.321-1.226-1.366a.16.16,0,0,1-.016-.317,1.477,1.477,0,0,0,1.25-1.28.16.16,0,0,1,.313-.028c0,.012.347,1.237,1.262,1.291a.16.16,0,0,1,.043.31c-.013,0-1.289.459-1.31,1.364a.16.16,0,0,1-.146.155H40.7Zm-.823-1.673a1.859,1.859,0,0,1,.807.944,2.268,2.268,0,0,1,.952-.9,1.948,1.948,0,0,1-.887-.928A1.713,1.713,0,0,1,39.879,160.338Z" transform="translate(2891.509 -7581.812)" fill="#aab2b7"/>
    <path id="Path_43955" data-name="Path 43955" d="M23.768,177.254s.256.953.995,1c0,0-.986.34-1,1.069,0,0-.194-1.021-.973-1.058A1.166,1.166,0,0,0,23.768,177.254Z" transform="translate(2906.146 -7598.327)" fill="#fff"/>
    <path id="Path_43956" data-name="Path 43956" d="M22.412,178.138a.16.16,0,0,1-.157-.13c0-.009-.181-.9-.823-.928a.16.16,0,0,1-.016-.317,1,1,0,0,0,.845-.863.16.16,0,0,1,.313-.028c0,.015.239.842.85.879a.16.16,0,0,1,.043.31c-.009,0-.881.314-.895.921a.16.16,0,0,1-.146.155Zm-.481-1.226a1.363,1.363,0,0,1,.473.562,1.668,1.668,0,0,1,.571-.529,1.424,1.424,0,0,1-.526-.556A1.272,1.272,0,0,1,21.931,176.912Z" transform="translate(2907.494 -7596.986)" fill="#aab2b7"/>
    <path id="Path_43957" data-name="Path 43957" d="M23.768,150.6s.256.953.995,1c0,0-.986.34-1,1.069,0,0-.194-1.021-.973-1.058A1.166,1.166,0,0,0,23.768,150.6Z" transform="translate(2906.146 -7574.508)" fill="#fff"/>
    <path id="Path_43958" data-name="Path 43958" d="M22.412,151.481a.16.16,0,0,1-.157-.13c0-.009-.181-.9-.823-.928a.16.16,0,0,1-.016-.317,1,1,0,0,0,.845-.863.16.16,0,0,1,.313-.028c0,.008.237.843.85.879a.16.16,0,0,1,.043.31c-.009,0-.881.314-.895.921a.16.16,0,0,1-.146.155Zm-.481-1.226a1.364,1.364,0,0,1,.473.562,1.666,1.666,0,0,1,.571-.529,1.425,1.425,0,0,1-.526-.556,1.272,1.272,0,0,1-.518.523Z" transform="translate(2907.494 -7573.165)" fill="#aab2b7"/>
    <path id="Path_43959" data-name="Path 43959" d="M47.711,26.31H46.035a.16.16,0,0,1,0-.319h1.677a.16.16,0,0,1,0,.319Z" transform="translate(2885.515 -7463.155)" fill="#aab2b7"/>
    <path id="Path_43960" data-name="Path 43960" d="M85.669,16.769h3.894V27.656H85.669Z" transform="translate(2849.955 -7454.915)" fill="#fff"/>
    <path id="Path_43961" data-name="Path 43961" d="M88.223,26.475H84.329a.16.16,0,0,1-.16-.16V15.429a.16.16,0,0,1,.16-.16h3.894a.16.16,0,0,1,.16.16V26.315A.16.16,0,0,1,88.223,26.475Zm-3.735-.319h3.575V15.588H84.488Z" transform="translate(2851.295 -7453.574)" fill="#aab2b7"/>
    <path id="Path_43962" data-name="Path 43962" d="M81.338,35.812h-3.42a1.188,1.188,0,0,1-1.188-1.188V28.317a1.188,1.188,0,0,1,1.188-1.188h3.421a1.188,1.188,0,0,1,1.188,1.188v6.306a1.188,1.188,0,0,1-1.188,1.188Z" transform="translate(2857.943 -7464.172)" fill="#fff"/>
    <path id="Path_43963" data-name="Path 43963" d="M80,34.631h-3.42a1.349,1.349,0,0,1-1.348-1.348V26.977a1.349,1.349,0,0,1,1.348-1.348H80a1.349,1.349,0,0,1,1.348,1.348v6.306A1.349,1.349,0,0,1,80,34.631Zm-3.42-8.683a1.03,1.03,0,0,0-1.029,1.029v6.306a1.03,1.03,0,0,0,1.029,1.029H80a1.03,1.03,0,0,0,1.029-1.029V26.977A1.03,1.03,0,0,0,80,25.948H76.578Z" transform="translate(2859.283 -7462.832)" fill="#aab2b7"/>
    <path id="Path_43964" data-name="Path 43964" d="M31.809,16.561a1.11,1.11,0,0,0-1.109,1.11c0,.613,1.11,9.821,1.11,9.821s1.11-9.209,1.11-9.821a1.11,1.11,0,0,0-1.11-1.11Zm0,1.562a.411.411,0,1,1,.411-.411A.411.411,0,0,1,31.809,18.123Z" transform="translate(2899.076 -7454.729)" fill="#fff"/>
    <g id="Group_14765" data-name="Group 14765" transform="translate(2928.103 -7438.327)">
      <path id="Path_43965" data-name="Path 43965" d="M30.467,26.313a.16.16,0,0,1-.158-.14c-.045-.376-1.111-9.225-1.111-9.84a1.269,1.269,0,1,1,2.538,0c0,.615-1.065,9.464-1.111,9.84a.16.16,0,0,1-.159.141Zm0-10.931a.951.951,0,0,0-.95.95c0,.457.644,5.909.95,8.478.306-2.57.95-8.022.95-8.478A.951.951,0,0,0,30.467,15.382Zm0,1.562a.571.571,0,1,1,.571-.571A.571.571,0,0,1,30.467,16.943Zm0-.822a.251.251,0,1,0,.251.251A.251.251,0,0,0,30.467,16.122Z" transform="translate(-27.685 -15.063)" fill="#aab2b7"/>
      <path id="Path_43966" data-name="Path 43966" d="M81.548,33.9h-5.7a.16.16,0,1,1,0-.319h5.7a.16.16,0,0,1,0,.319Z" transform="translate(-69.232 -31.608)" fill="#aab2b7"/>
      <path id="Path_43967" data-name="Path 43967" d="M81.179,41.2h-5.8a.16.16,0,0,1,0-.319h5.8a.16.16,0,1,1,0,.319Z" transform="translate(-68.812 -38.134)" fill="#aab2b7"/>
      <path id="Path_43968" data-name="Path 43968" d="M81.179,48.5h-5.8a.16.16,0,0,1,0-.319h5.8a.16.16,0,1,1,0,.319Z" transform="translate(-68.812 -44.654)" fill="#aab2b7"/>
      <path id="Path_43969" data-name="Path 43969" d="M81.179,55.8h-5.8a.16.16,0,0,1,0-.319h5.8a.16.16,0,1,1,0,.319Z" transform="translate(-68.812 -51.182)" fill="#aab2b7"/>
      <path id="Path_43970" data-name="Path 43970" d="M81.179,63.106h-5.8a.16.16,0,0,1,0-.319h5.8a.16.16,0,1,1,0,.319Z" transform="translate(-68.812 -57.71)" fill="#aab2b7"/>
      <path id="Path_43971" data-name="Path 43971" d="M81.179,70.411h-5.8a.16.16,0,0,1,0-.319h5.8a.16.16,0,1,1,0,.319Z" transform="translate(-68.812 -64.238)" fill="#aab2b7"/>
      <path id="Path_43972" data-name="Path 43972" d="M81.179,77.708h-5.8a.16.16,0,0,1,0-.319h5.8a.16.16,0,1,1,0,.319Z" transform="translate(-68.812 -70.759)" fill="#aab2b7"/>
      <path id="Path_43973" data-name="Path 43973" d="M81.179,85.012h-5.8a.16.16,0,0,1,0-.319h5.8a.16.16,0,1,1,0,.319Z" transform="translate(-68.812 -77.286)" fill="#aab2b7"/>
      <path id="Path_43974" data-name="Path 43974" d="M81.179,92.319h-5.8a.16.16,0,0,1,0-.319h5.8a.16.16,0,1,1,0,.319Z" transform="translate(-68.812 -83.815)" fill="#aab2b7"/>
      <path id="Path_43975" data-name="Path 43975" d="M81.548,99.627h-5.7a.16.16,0,0,1,0-.319h5.7a.16.16,0,0,1,0,.319Z" transform="translate(-69.232 -90.346)" fill="#aab2b7"/>
      <path id="Path_43976" data-name="Path 43976" d="M22.005,34.111H16.412a1.443,1.443,0,0,1-1.441-1.441v-.111a1.443,1.443,0,0,1,1.441-1.441h2.637a1.122,1.122,0,0,0,0-2.244H16.412a1.441,1.441,0,0,1,0-2.882h1.677a.16.16,0,0,1,0,.319H16.412a1.122,1.122,0,0,0,0,2.244h2.637a1.441,1.441,0,1,1,0,2.882H16.412a1.123,1.123,0,0,0-1.122,1.122v.111a1.123,1.123,0,0,0,1.122,1.122h5.593a.16.16,0,1,1,0,.319Z" transform="translate(-14.971 -24.829)" fill="#aab2b7"/>
    </g>
    <path id="Path_43977" data-name="Path 43977" d="M73.98,134.978l2.772,8.927,1.109-1.981-3.324-7.7a.583.583,0,0,0-.557.755Z" transform="translate(2860.423 -7559.874)" fill="#fff"/>
    <path id="Path_43978" data-name="Path 43978" d="M75.415,142.72H75.4a.16.16,0,0,1-.136-.111l-2.772-8.927a.742.742,0,0,1,.709-.963.16.16,0,0,1,.147.1l3.324,7.7a.16.16,0,0,1-.007.141l-1.109,1.981A.16.16,0,0,1,75.415,142.72ZM72.8,133.586l2.662,8.573.889-1.588L73.1,133.049a.424.424,0,0,0-.3.537Z" transform="translate(2861.761 -7558.528)" fill="#aab2b7"/>
    <path id="Path_43979" data-name="Path 43979" d="M73.926,141.288H73.9l-.275.636L74.73,143.9l2.772-8.927a.583.583,0,0,0-.557-.755l-2.362,5.473Z" transform="translate(2860.721 -7559.872)" fill="#fff"/>
    <path id="Path_43980" data-name="Path 43980" d="M73.388,142.72a.16.16,0,0,1-.139-.082l-1.109-1.981a.16.16,0,0,1-.007-.141l.275-.636a.158.158,0,0,1,.151-.1h.019a.163.163,0,0,1,.163.16.16.16,0,0,1-.072.135l-.212.491.889,1.588,2.662-8.573a.424.424,0,0,0-.3-.537l-2.315,5.365a.16.16,0,0,1-.293-.126l2.362-5.473a.16.16,0,0,1,.147-.1.742.742,0,0,1,.709.962l-2.772,8.927a.16.16,0,0,1-.136.111h-.017Z" transform="translate(2862.062 -7558.528)" fill="#aab2b7"/>
    <path id="Path_43981" data-name="Path 43981" d="M53.721,206.128a1.795,1.795,0,1,0-.026,2.323,1.794,1.794,0,0,0,.026-2.323Zm-.934.574a.728.728,0,1,1-.887-.01A.728.728,0,0,1,52.787,206.7Z" transform="translate(2881.341 -7623.55)" fill="#fff" fill-rule="evenodd"/>
    <path id="Path_43982" data-name="Path 43982" d="M50.88,207.832h-.022a1.957,1.957,0,1,1,.021,0Zm0-3.589a1.657,1.657,0,1,0,.018,0Zm0,2.521a.886.886,0,1,1,.533-.177.887.887,0,0,1-.533.177Zm0-1.454a.568.568,0,1,0,.351.12.568.568,0,0,0-.351-.12Z" transform="translate(2882.802 -7622.153)" fill="#aab2b7"/>
    <path id="Path_43983" data-name="Path 43983" d="M89.788,176.392a.319.319,0,1,1-.319-.319A.319.319,0,0,1,89.788,176.392Z" transform="translate(2846.844 -7597.271)" fill-rule="evenodd"/>
    <path id="Path_43984" data-name="Path 43984" d="M103.193,206.128a1.795,1.795,0,1,0-.026,2.323,1.794,1.794,0,0,0,.026-2.323Zm-.934.574a.728.728,0,1,1-.887-.01.728.728,0,0,1,.887.01Z" transform="translate(2837.132 -7623.55)" fill="#fff" fill-rule="evenodd"/>
    <path id="Path_43985" data-name="Path 43985" d="M100.353,207.832h-.022a1.957,1.957,0,1,1,.021,0Zm0-3.589a1.635,1.635,0,1,0-.018,3.269h.018a1.635,1.635,0,1,0,.018-3.269h-.018Zm0,2.521a.887.887,0,1,1,.549-1.584h0a.886.886,0,0,1-.549,1.583Zm0-1.454a.568.568,0,1,0,.351.12h0a.564.564,0,0,0-.351-.12Z" transform="translate(2838.592 -7622.153)" fill="#aab2b7"/>
    <path id="Path_43986" data-name="Path 43986" d="M107.372,110.208V111h-1.6v-.783H107.3C107.321,110.212,107.346,110.21,107.372,110.208Z" transform="translate(2831.987 -7538.413)" fill="#aab2b7"/>
    <path id="Path_43987" data-name="Path 43987" d="M107.547,102.308a1.029,1.029,0,0,1-.9.526h-1.6a1.029,1.029,0,0,0,.9-.526Z" transform="translate(2832.63 -7531.354)" fill="#d9d9e0"/>
    <path id="Path_43988" data-name="Path 43988" d="M116.17,95v.274a1.049,1.049,0,0,1-.018.184h-1.6a1.049,1.049,0,0,0,.018-.184V95Z" transform="translate(2824.141 -7524.823)" fill="#d9d9e0"/>
    <path id="Path_43989" data-name="Path 43989" d="M114.726,80.387h1.6v.459h-1.6Z" transform="translate(2823.989 -7511.765)" fill="#d9d9e0"/>
    <path id="Path_43990" data-name="Path 43990" d="M114.726,73.088h1.6v.457h-1.6Z" transform="translate(2823.989 -7505.242)" fill="#d9d9e0"/>
    <path id="Path_43991" data-name="Path 43991" d="M114.726,87.7h1.6v.457h-1.6Z" transform="translate(2823.989 -7518.299)" fill="#d9d9e0"/>
    <path id="Path_43992" data-name="Path 43992" d="M107.372,18.268v.787c-.026,0-.051,0-.077,0h-1.519v-.783Z" transform="translate(2831.987 -7456.254)" fill="#fff"/>
    <path id="Path_43993" data-name="Path 43993" d="M114.726,65.788h1.6v.457h-1.6Z" transform="translate(2823.989 -7498.719)" fill="#d9d9e0"/>
    <path id="Path_43994" data-name="Path 43994" d="M114.726,51.178h1.6v.457h-1.6Z" transform="translate(2823.989 -7485.663)" fill="#d9d9e0"/>
    <path id="Path_43995" data-name="Path 43995" d="M114.726,58.478h1.6v.458h-1.6Z" transform="translate(2823.989 -7492.186)" fill="#d9d9e0"/>
    <path id="Path_43996" data-name="Path 43996" d="M107.548,29.155h-1.6a1.03,1.03,0,0,0-.9-.527h1.6A1.03,1.03,0,0,1,107.548,29.155Z" transform="translate(2832.63 -7465.512)" fill="#d9d9e0"/>
    <path id="Path_43997" data-name="Path 43997" d="M116.17,36.763v.274h-1.6v-.274a1.036,1.036,0,0,0-.018-.183h1.6A1.035,1.035,0,0,1,116.17,36.763Z" transform="translate(2824.141 -7472.618)" fill="#d9d9e0"/>
    <path id="Path_43998" data-name="Path 43998" d="M114.726,43.877h1.6v.457h-1.6Z" transform="translate(2823.989 -7479.139)" fill="#d9d9e0"/>
  </g>
</svg>
