<svg xmlns="http://www.w3.org/2000/svg" width="13.595" height="19.792" viewBox="0 0 13.595 19.792">
  <g id="svgexport-18" transform="translate(-88.043 -8.739)">
    <path id="Path_46211" data-name="Path 46211" d="M101.329,16.7a.468.468,0,0,0-.417-.256h-5.12l.918-6.911a.468.468,0,0,0-.85-.326l-7.477,10.92a.468.468,0,0,0,.386.732h5.063L92.5,27.708a.468.468,0,0,0,.837.365l7.954-10.886A.468.468,0,0,0,101.329,16.7Zm-7.511,9.128,1.041-5.347a.468.468,0,0,0-.459-.557H89.657l5.867-8.569-.73,5.5a.468.468,0,0,0,.464.53h4.733Z" stroke="#000" stroke-width="0.5"/>
  </g>
</svg>
