<svg xmlns="http://www.w3.org/2000/svg" width="48" height="59.008" viewBox="0 0 48 59.008">
  <g id="get_it_-scissors" data-name="get it -scissors" transform="translate(0 -0.492)">
    <text id="_20_" data-name="20%" transform="translate(24 54.5)" font-size="20" font-family="Muli-Regular, Muli" letter-spacing="-0.027em"><tspan x="-23" y="0">Get It</tspan></text>
    <path id="Fill_985" data-name="Fill 985" d="M5.523,27A5.523,5.523,0,0,1,3.272,16.434L9.6,13.5,3.272,10.567A5.522,5.522,0,1,1,8.4,10.238l4.123,1.91,12.733-5.9a1.211,1.211,0,0,1,.515-.115,1.231,1.231,0,0,1,1.113.712,1.224,1.224,0,0,1-.6,1.628L15.443,13.5l10.844,5.024a1.225,1.225,0,0,1,.6,1.628,1.232,1.232,0,0,1-1.114.713,1.212,1.212,0,0,1-.514-.114l-12.733-5.9L8.4,16.763A5.523,5.523,0,0,1,5.523,27Zm0-8.59a3.068,3.068,0,1,0,3.068,3.067A3.071,3.071,0,0,0,5.523,18.41Zm0-15.955A3.068,3.068,0,1,0,8.591,5.523,3.072,3.072,0,0,0,5.523,2.454Z" transform="translate(10 0.492)" fill="#1f2d35"/>
  </g>
</svg>
