<svg xmlns="http://www.w3.org/2000/svg" width="20.018" height="18.766" viewBox="0 0 20.018 18.766">
  <g id="Group_15237" data-name="Group 15237" transform="translate(-2595 7447.934)">
    <circle id="Ellipse_444" data-name="Ellipse 444" cx="8.132" cy="8.132" r="8.132" transform="translate(2596.877 -7447.309)" fill="#fff"/>
    <path id="Path_44964" data-name="Path 44964" d="M63.283,408.81A8.108,8.108,0,0,1,62.656,410H48.947a8.105,8.105,0,0,1-.627-1.188Z" transform="translate(2549.207 -7844.795)" fill="#0276b4"/>
    <path id="Path_44972" data-name="Path 44972" d="M63.283,408.81A8.108,8.108,0,0,1,62.656,410H48.947a8.105,8.105,0,0,1-.627-1.188Z" transform="translate(2549.207 -7844.795)" fill="#d9d9e0"/>
    <g id="Group_14978" data-name="Group 14978" transform="translate(2599.379 -7444.807)">
      <circle id="Ellipse_445" data-name="Ellipse 445" cx="5.63" cy="5.63" r="5.63" transform="translate(0 0)" fill="#eaeae8"/>
      <path id="Path_44973" data-name="Path 44973" d="M85.908,297.434l-6.95,8.845a5.634,5.634,0,0,1-1.538-2.125l5.807-7.744A5.6,5.6,0,0,1,85.908,297.434Z" transform="translate(-76.996 -296.378)" fill="#eaeae8"/>
      <path id="Path_44974" data-name="Path 44974" d="M146.742,336.645l-4.617,5.877a.626.626,0,1,1-.984-.773l5.107-6.5A5.544,5.544,0,0,1,146.742,336.645Z" transform="translate(-135.604 -332.181)" fill="#eaeae8"/>
    </g>
    <path id="Path_44975" data-name="Path 44975" d="M24,424H42.767v.313A4.692,4.692,0,0,1,38.075,429H28.692A4.692,4.692,0,0,1,24,424.313Z" transform="translate(2571.625 -7858.797)" fill="#fff"/>
    <path id="Path_44976" data-name="Path 44976" d="M85.908,297.434l-6.95,8.845a5.634,5.634,0,0,1-1.538-2.125l5.807-7.744A5.6,5.6,0,0,1,85.908,297.434Z" transform="translate(2522.383 -7741.184)" fill="#fbfdff"/>
    <path id="Path_44977" data-name="Path 44977" d="M142.33,336.644l-4.617,5.877a.625.625,0,0,1-.878.106c-.272-.214-.785-.006-.572-.278l5.573-7.1a5.544,5.544,0,0,1,.494,1.4Z" transform="translate(2468.188 -7776.987)" fill="#fbfdff"/>
    <rect id="Rectangle_5100" data-name="Rectangle 5100" width="6.256" height="2.502" rx="1.251" transform="translate(2601.881 -7434.798)" fill="#d9d9e0"/>
    <path id="Path_44985" data-name="Path 44985" d="M16,269.151v.313a5.323,5.323,0,0,0,5.317,5.317H30.7a5.323,5.323,0,0,0,5.317-5.317v-.313a.625.625,0,0,0-.626-.626h-1.47a8.758,8.758,0,1,0-15.827,0h-1.47A.625.625,0,0,0,16,269.151Zm10.009-11.886a7.507,7.507,0,0,1,6.5,11.26H31.015a6.257,6.257,0,1,0-10.011,0h-1.5a7.507,7.507,0,0,1,6.5-11.26Zm.879,2.581a4.965,4.965,0,0,1,1.479.513l-6.087,7.747a5.006,5.006,0,0,1-.753-1.112Zm-5.825,5.682a5,5,0,0,1,4.287-5.716Zm8.326-4.443a5.026,5.026,0,0,1,1.2,1.677s-4.5,5.728-4.513,5.763H23.543Zm-5.256,8.691h3.753a.626.626,0,0,1,0,1.251H24.132a.626.626,0,0,1,0-1.251Zm3.521-1.251,3.335-4.245c.016.162.024.326.024.492a4.981,4.981,0,0,1-1.7,3.753Zm-5.29,1.251a1.876,1.876,0,0,0,1.769,2.5h3.753a1.876,1.876,0,0,0,1.769-2.5h5.1a4.072,4.072,0,0,1-4.054,3.753H21.317a4.072,4.072,0,0,1-4.054-3.753Z" transform="translate(2579 -7703.949)" fill="#aeb5ba"/>
  </g>
</svg>
