<svg id="help" xmlns="http://www.w3.org/2000/svg" width="17.641" height="17.638" viewBox="0 0 17.641 17.638">
  <path id="Shape" d="M9.335,17.637H.551A.82.82,0,0,1,0,17.086V8.3a.2.2,0,0,1,.011-.047.564.564,0,0,0,.018-.1A8.342,8.342,0,0,1,1.035,4.679,8.717,8.717,0,0,1,7.282.139c.228-.044.464-.072.691-.1Q8.138.023,8.3,0H9.335l.041.01a.489.489,0,0,0,.093.018A8.329,8.329,0,0,1,12.96,1.035,8.718,8.718,0,0,1,17.5,7.284c.044.227.072.462.1.689.013.111.026.22.041.329V9.335a.216.216,0,0,1-.011.049.621.621,0,0,0-.019.1A8.321,8.321,0,0,1,16.6,12.957a8.719,8.719,0,0,1-6.248,4.54c-.228.044-.463.072-.691.1-.11.013-.22.026-.329.041ZM8.892,1.378a8.148,8.148,0,0,0-1.023.066,7.254,7.254,0,0,0-4.8,2.66A7.321,7.321,0,0,0,1.377,8.922c0,1.647,0,3.319,0,4.936v2.4H8.665a8.579,8.579,0,0,0,1.1-.065,7.268,7.268,0,0,0,5.27-3.3,7.109,7.109,0,0,0,1.157-5.017,7.247,7.247,0,0,0-3.318-5.291A7.076,7.076,0,0,0,8.892,1.378Z" fill="#fff"/>
  <path id="Shape-2" data-name="Shape" d="M2.391,0A3,3,0,0,1,4.174.538a1.814,1.814,0,0,1,.551,2.29A3.626,3.626,0,0,1,3.814,3.98c-.191.165-.385.327-.564.5a1.135,1.135,0,0,0-.33.755c-.01.16-.019.321-.026.481a.39.39,0,0,1-.324.393,1.962,1.962,0,0,1-.595.034c-.259-.027-.39-.179-.419-.469A2.3,2.3,0,0,1,2.39,3.5a7.713,7.713,0,0,0,.723-.634,1.109,1.109,0,0,0,.256-.458.752.752,0,0,0-.641-.986,2.959,2.959,0,0,0-.767-.01.833.833,0,0,0-.593.346c-.066.086-.129.175-.2.262a.572.572,0,0,1-.753.211.646.646,0,0,1-.41-.717A1.693,1.693,0,0,1,1.118.238,3.153,3.153,0,0,1,2.391,0Z" transform="translate(6.342 4.821)" fill="#fff"/>
  <path id="Shape-3" data-name="Shape" d="M0,.92A.924.924,0,0,1,.917,0a.942.942,0,0,1,.914.93.942.942,0,0,1-.924.919A.921.921,0,0,1,0,.92Z" transform="translate(7.641 11.822)" fill="#fff"/>
</svg>
