<svg xmlns="http://www.w3.org/2000/svg" width="20.059" height="14.904" viewBox="0 0 20.059 14.904">
  <g id="Group_15036" data-name="Group 15036" transform="translate(-1309 6979)">
    <path id="Path_45152" data-name="Path 45152" d="M26.505,67.223a7.765,7.765,0,0,0-1.093.05,3.146,3.146,0,0,0-2.107,1.047,1.1,1.1,0,0,1-1.158.326l-.384-.123s-.2,4.1.988,4.619h7.57v-2.1A3.816,3.816,0,0,0,26.505,67.223Z" transform="translate(1288.1 -7046.166)" fill="#d9d9e0"/>
    <path id="Path_45153" data-name="Path 45153" d="M25.8,335.275H24.642a1.6,1.6,0,0,0-1.6,1.6v2.653h8.519V336.87a1.6,1.6,0,0,0-1.6-1.6H25.8Z" transform="translate(1286.857 -7303.716)" fill="#fff"/>
    <path id="Path_45154" data-name="Path 45154" d="M93.192,304.593v1.2a1.506,1.506,0,1,0,3.012,0v-1.2Z" transform="translate(1219.459 -7274.237)" fill="#fff"/>
    <path id="Path_45155" data-name="Path 45155" d="M93.192,305.8a1.522,1.522,0,0,0,.014.205,3.672,3.672,0,0,0,2.982.007,1.52,1.52,0,0,0,.015-.212v-1.2H93.192Z" transform="translate(1219.459 -7274.237)" fill="#d9d9e0"/>
    <path id="Path_45156" data-name="Path 45156" d="M10.595,196.267H8.733a1.233,1.233,0,1,1,0-2.466h1.862Z" transform="translate(1301.794 -7167.786)" fill="#d9d9e0"/>
    <path id="Path_45157" data-name="Path 45157" d="M177.056,193.8h1.862a1.233,1.233,0,1,1,0,2.466h-1.862Z" transform="translate(1138.881 -7167.786)" fill="#d9d9e0"/>
    <path id="Path_45158" data-name="Path 45158" d="M39.279,120.026v1.359a3.626,3.626,0,0,0,7.251,0v-1.359a3.626,3.626,0,0,0-7.251,0Z" transform="translate(1271.26 -7093.458)" fill="#fff"/>
    <g id="Group_15023" data-name="Group 15023" transform="translate(1311.07 -6971.555)">
      <path id="Path_45159" data-name="Path 45159" d="M53.807,256.5h-.63a.342.342,0,0,1,0-.683h.63a.342.342,0,0,1,0,.683Z" transform="translate(-52.836 -255.821)" fill="#d9d9e0"/>
    </g>
    <path id="Path_45160" data-name="Path 45160" d="M124.922,116.506a3.692,3.692,0,0,0-.409.034,3.6,3.6,0,0,1,3.11,3.548v1.359a3.6,3.6,0,0,1-3.11,3.548,3.671,3.671,0,0,0,.409.034,3.6,3.6,0,0,0,3.5-3.582v-1.359a3.6,3.6,0,0,0-3.5-3.582Z" transform="translate(1189.364 -7093.519)" fill="#d9d9e0"/>
    <path id="Path_45161" data-name="Path 45161" d="M66.074,67.336h-.641c-.1.006-.247.019-.6.047a3.146,3.146,0,0,0-2.053.988v1.593A2.327,2.327,0,0,0,65.1,72.291h4.635V71.148A3.815,3.815,0,0,0,66.074,67.336Z" transform="translate(1248.683 -7046.275)" fill="#fff"/>
    <path id="Path_45162" data-name="Path 45162" d="M120.185,67.336h-.641c-.088,0-.2.015-.451.034a3.815,3.815,0,0,1,3.28,3.777v1.143h1.476V71.148A3.815,3.815,0,0,0,120.185,67.336Z" transform="translate(1194.573 -7046.275)" fill="#d9d9e0"/>
    <g id="Group_15024" data-name="Group 15024" transform="translate(1315.614 -6968.442)">
      <path id="Path_45163" data-name="Path 45163" d="M170.029,335.275h-1.213a1.6,1.6,0,0,1,1.549,1.594v2.653h1.259V336.87A1.6,1.6,0,0,0,170.029,335.275Z" transform="translate(-168.816 -335.275)" fill="#d9d9e0"/>
    </g>
    <g id="Group_15025" data-name="Group 15025" transform="translate(1315.931 -6971.555)">
      <path id="Path_45164" data-name="Path 45164" d="M177.885,256.5h-.63a.342.342,0,0,1,0-.683h.63a.342.342,0,0,1,0,.683Z" transform="translate(-176.914 -255.821)" fill="#d9d9e0"/>
    </g>
    <path id="Path_45165" data-name="Path 45165" d="M267.126,341.071h-.157a1.54,1.54,0,0,0-1.54,1.54v2.523h7.853v-2.523a1.54,1.54,0,0,0-1.54-1.54Z" transform="translate(1053.969 -7309.286)" fill="#fff"/>
    <path id="Path_45166" data-name="Path 45166" d="M395.637,341.071h-1.261a1.54,1.54,0,0,1,1.54,1.54v2.523h1.261v-2.523A1.54,1.54,0,0,0,395.637,341.071Z" transform="translate(930.075 -7309.286)" fill="#d9d9e0"/>
    <path id="Path_45167" data-name="Path 45167" d="M332.626,270.42a1.341,1.341,0,0,1-1.341-1.341v-3.227h2.682v3.227A1.341,1.341,0,0,1,332.626,270.42Z" transform="translate(990.694 -7237.013)" fill="#fff"/>
    <path id="Path_45168" data-name="Path 45168" d="M331.286,268.888a3.267,3.267,0,0,0,2.682,0v-3.035h-2.682v3.036Z" transform="translate(990.693 -7237.014)" fill="#d9d9e0"/>
    <path id="Path_45169" data-name="Path 45169" d="M439.531,258.45h.67V256.6a1.952,1.952,0,0,0-1.952-1.952h-.67V256.5A1.952,1.952,0,0,0,439.531,258.45Z" transform="translate(888.563 -7226.254)" fill="#fff"/>
    <path id="Path_45170" data-name="Path 45170" d="M438.25,254.653h-.67v.056a1.952,1.952,0,0,1,1.487,1.9v1.789a1.957,1.957,0,0,0,.465.056h.67V256.6a1.952,1.952,0,0,0-1.952-1.952Z" transform="translate(888.563 -7226.254)" fill="#d9d9e0"/>
    <path id="Path_45171" data-name="Path 45171" d="M226.95,258.45h-.67V256.6a1.952,1.952,0,0,1,1.952-1.952h.67V256.5A1.952,1.952,0,0,1,226.95,258.45Z" transform="translate(1091.585 -7226.254)" fill="#fff"/>
    <path id="Path_45172" data-name="Path 45172" d="M257.478,211.954h-1.662a1.1,1.1,0,0,1,0-2.2h1.662Z" transform="translate(1064.262 -7183.116)" fill="#d9d9e0"/>
    <path id="Path_45173" data-name="Path 45173" d="M405.588,209.756h1.662a1.1,1.1,0,1,1,0,2.2h-1.662Z" transform="translate(919.302 -7183.116)" fill="#d9d9e0"/>
    <path id="Path_45174" data-name="Path 45174" d="M286.227,140.93a3.212,3.212,0,0,0-3.232,3.192v1.208a3.232,3.232,0,0,0,6.464,0v-1.208A3.212,3.212,0,0,0,286.227,140.93Z" transform="translate(1037.092 -7116.986)" fill="#fff"/>
    <path id="Path_45175" data-name="Path 45175" d="M353.217,140.93a3.3,3.3,0,0,0-.5.038,3.205,3.205,0,0,1,2.732,3.154v1.208a3.205,3.205,0,0,1-2.732,3.154,3.3,3.3,0,0,0,.5.038,3.212,3.212,0,0,0,3.232-3.192v-1.208A3.212,3.212,0,0,0,353.217,140.93Z" transform="translate(970.102 -7116.986)" fill="#d9d9e0"/>
    <g id="Group_15027" data-name="Group 15027" transform="translate(1320.56 -6971.137)">
      <path id="Path_45176" data-name="Path 45176" d="M296,267.171h-.615a.334.334,0,0,1,0-.667H296a.334.334,0,1,1,0,.667Z" transform="translate(-295.056 -266.504)" fill="#d9d9e0"/>
    </g>
    <g id="Group_15028" data-name="Group 15028" transform="translate(1324.808 -6971.137)">
      <path id="Path_45177" data-name="Path 45177" d="M404.458,267.171h-.615a.334.334,0,0,1,0-.667h.615a.334.334,0,0,1,0,.667Z" transform="translate(-403.509 -266.504)" fill="#d9d9e0"/>
    </g>
    <path id="Path_45178" data-name="Path 45178" d="M266.65,93.358a.343.343,0,0,1-.685,0,3.7,3.7,0,0,0-3.7,3.7v.863h2.158a1.883,1.883,0,0,0,1.883-1.882,1.883,1.883,0,0,0,1.883,1.882h2.158v-.863A3.7,3.7,0,0,0,266.65,93.358Z" transform="translate(1057.008 -7071.278)" fill="#fff"/>
    <g id="Group_15029" data-name="Group 15029" transform="translate(1323.409 -6977.92)">
      <path id="Path_45179" data-name="Path 45179" d="M368.033,93.358a.341.341,0,0,0-.249.108,3.7,3.7,0,0,1,2.811,3.59v.863h1.135v-.863A3.7,3.7,0,0,0,368.033,93.358Z" transform="translate(-367.784 -93.358)" fill="#d9d9e0"/>
    </g>
    <g id="Group_15032" data-name="Group 15032" transform="translate(1309 -6979)">
      <path id="Path_45180" data-name="Path 45180" d="M345.207,269.1a.965.965,0,0,0,.964-.964.294.294,0,1,0-.588,0,.376.376,0,0,1-.753,0,.294.294,0,1,0-.588,0A.965.965,0,0,0,345.207,269.1Z" transform="translate(-330.756 -259.928)" fill="#aab2b7"/>
      <path id="Path_45181" data-name="Path 45181" d="M400.969,228.789a.294.294,0,0,0,.294-.294v-.307a.294.294,0,0,0-.036-.585h-.257a.294.294,0,0,0-.294.294v.6A.294.294,0,0,0,400.969,228.789Z" transform="translate(-384.978 -221.264)" fill="#aab2b7"/>
      <path id="Path_45182" data-name="Path 45182" d="M315.715,228.189v.307a.294.294,0,0,0,.588,0v-.6a.294.294,0,0,0-.294-.294h-.257a.294.294,0,0,0-.036.585Z" transform="translate(-303.099 -221.265)" fill="#aab2b7"/>
      <path id="Path_45183" data-name="Path 45183" d="M18.842,73.076a1.362,1.362,0,0,0-.212-1.484.292.292,0,0,0,.054-.169,5.656,5.656,0,0,0-.218-2.129.294.294,0,1,0-.555.194,4.331,4.331,0,0,1,.185,1.641h-1.81a1.544,1.544,0,0,1-1.542-1.542.294.294,0,1,0-.588,0,1.544,1.544,0,0,1-1.542,1.542H10.8v-.547a3.315,3.315,0,0,1,3.312-3.312.04.04,0,0,1,.04.04.294.294,0,0,0,.588,0,.04.04,0,0,1,.04-.04,3.313,3.313,0,0,1,2.5,1.136.294.294,0,1,0,.443-.386,3.9,3.9,0,0,0-2.94-1.338.624.624,0,0,0-.334.1.624.624,0,0,0-.334-.1,3.9,3.9,0,0,0-3.9,3.9v.841a.292.292,0,0,0,.054.169,1.367,1.367,0,0,0-.238.379,1.486,1.486,0,0,0-.58-1.063V69.788a4,4,0,0,0-4-4,7.782,7.782,0,0,0-1.085.05,3.338,3.338,0,0,0-2.544,1.509l-.885-.283a.294.294,0,0,0-.383.266A13.83,13.83,0,0,0,.825,70.76,1.491,1.491,0,0,0,1.3,73.574a3.816,3.816,0,0,0,1.76,2.41H2.439A1.844,1.844,0,0,0,.6,77.826V80.4a.294.294,0,0,0,.294.294h.488a.294.294,0,0,0,0-.588H1.184V77.826a1.256,1.256,0,0,1,1.255-1.255h.855a1.756,1.756,0,0,0,3.462,0h.855a1.256,1.256,0,0,1,1.255,1.255v2.281H2.75a.294.294,0,0,0,0,.588h6.41a.294.294,0,0,0,.294-.294V77.826a1.832,1.832,0,0,0-.135-.692H9.79a2.184,2.184,0,0,0,.835-.165,1.784,1.784,0,0,0-.287.972V80.4a.294.294,0,0,0,.294.294h7.657a.294.294,0,0,0,.294-.294V77.94a1.784,1.784,0,0,0-.28-.961,2.184,2.184,0,0,0,.809.155h.653a.294.294,0,0,0,.294-.294v-1.8A2.211,2.211,0,0,0,18.842,73.076Zm-6.227-1.359a2.13,2.13,0,0,0,1.836-1.051,2.131,2.131,0,0,0,1.836,1.051h1.321a.778.778,0,1,1-.031,1.555.293.293,0,0,0-.3.245,2.865,2.865,0,0,1-5.307.951.3.3,0,0,0-.017-.035,2.844,2.844,0,0,1-.271-.677l0-.014c-.017-.066-.033-.137-.047-.225a.294.294,0,0,0-.3-.245.778.778,0,1,1-.031-1.555h1.321Zm1.841,6.01a1.015,1.015,0,0,1-1.014-1.014V76.34a3.462,3.462,0,0,0,2.028,0v.375a1.015,1.015,0,0,1-.962,1.013h-.052Zm-2.323-1.581h0a1.787,1.787,0,0,0-.576.1,2.187,2.187,0,0,0,.38-.838,3.411,3.411,0,0,0,.917.7v.047Zm3.924-.051a3.422,3.422,0,0,0,.908-.691,2.187,2.187,0,0,0,.374.83,3.778,3.778,0,0,0-1.281-.087v-.051ZM1.137,67.747l.733.234a.294.294,0,0,0,.347-.138,2.752,2.752,0,0,1,2.2-1.416,7.382,7.382,0,0,1,1.039-.048,3.413,3.413,0,0,1,3.409,3.409v.849A37.954,37.954,0,0,0,4.66,70.6a1.967,1.967,0,0,1-1.928-1.586.294.294,0,0,0-.5-.144,3.825,3.825,0,0,0-.881,1.547,13,13,0,0,1-.211-2.674Zm.693,5.5A.294.294,0,0,0,1.541,73H1.492a.9.9,0,0,1-.033-1.807h.073a.293.293,0,0,0,.3-.245,3.2,3.2,0,0,1,.41-1.116q.044-.073.092-.144A2.559,2.559,0,0,0,4.66,71.192H8.59a.914.914,0,0,1,.419.126l.007,0A.9.9,0,0,1,8.547,73H8.51a.3.3,0,0,0-.3.245,3.234,3.234,0,0,1-6.378,0Zm3.136,4.2a1.17,1.17,0,0,1-1.1-1.046v-.013q0-.019,0-.038a3.846,3.846,0,0,0,2.331,0A1.17,1.17,0,0,1,4.966,77.445Zm2.645-1.461H6.982a3.816,3.816,0,0,0,1.76-2.41,1.5,1.5,0,0,0,1.2-.936,1.354,1.354,0,0,0,.123.438,2.211,2.211,0,0,0-1.217,1.965v1.417A1.835,1.835,0,0,0,7.611,75.984Zm1.819.563V75.041a1.619,1.619,0,0,1,1-1.489,1.377,1.377,0,0,0,.665.294,3.477,3.477,0,0,0,.3.8v.287A1.611,1.611,0,0,1,9.79,76.546H9.43ZM18,80.107h-7.07V77.94a1.209,1.209,0,0,1,1.208-1.208h.721a1.6,1.6,0,0,0,3.2,0h.731A1.209,1.209,0,0,1,18,77.94v2.167Zm1.476-3.561h-.36A1.611,1.611,0,0,1,17.5,74.937V74.65a3.475,3.475,0,0,0,.3-.8,1.364,1.364,0,0,0,.637-.273l.028-.021a1.619,1.619,0,0,1,1,1.489Z" transform="translate(0 -65.791)" fill="#aab2b7"/>
      <path id="Path_45184" data-name="Path 45184" d="M102.539,263.63a1.044,1.044,0,0,0,1.043-1.043.294.294,0,0,0-.588,0,.455.455,0,0,1-.911,0,.294.294,0,0,0-.588,0A1.044,1.044,0,0,0,102.539,263.63Z" transform="translate(-97.52 -254.595)" fill="#aab2b7"/>
      <path id="Path_45185" data-name="Path 45185" d="M76.962,217.564a.294.294,0,0,0-.294.294v.65a.294.294,0,0,0,.588,0v-.65A.294.294,0,0,0,76.962,217.564Z" transform="translate(-73.664 -211.618)" fill="#aab2b7"/>
      <path id="Path_45186" data-name="Path 45186" d="M164.866,218.8a.294.294,0,0,0,.294-.294v-.65a.294.294,0,0,0-.588,0v.65A.294.294,0,0,0,164.866,218.8Z" transform="translate(-158.125 -211.618)" fill="#aab2b7"/>
    </g>
  </g>
</svg>
