<svg xmlns="http://www.w3.org/2000/svg" width="21.494" height="21.5" viewBox="0 0 21.494 21.5">
  <path id="Fill_735" data-name="Fill 735" d="M10.748,21.5A3.755,3.755,0,0,1,7,17.75v-.728a3.826,3.826,0,0,0-.16-1.061,9.147,9.147,0,0,0-1.98-3.174,7.75,7.75,0,1,1,11.78,0,9.156,9.156,0,0,0-1.98,3.174,3.826,3.826,0,0,0-.16,1.061v.728A3.754,3.754,0,0,1,10.748,21.5Zm-2.281-5a4.36,4.36,0,0,1,.031.522v.728a2.25,2.25,0,1,0,4.5,0v-.728a4.556,4.556,0,0,1,.03-.522Zm2.281-15A6.249,6.249,0,0,0,6,11.811,12.021,12.021,0,0,1,8.1,15h5.3a12.035,12.035,0,0,1,2.1-3.19A6.249,6.249,0,0,0,10.748,1.5Zm10,14a.74.74,0,0,1-.53-.219l-1-1a.756.756,0,0,1,0-1.06.749.749,0,0,1,1.06,0l1,1a.757.757,0,0,1,0,1.06A.742.742,0,0,1,20.747,15.5Zm-20,0a.74.74,0,0,1-.53-.219.755.755,0,0,1,0-1.06l1-1a.749.749,0,0,1,1.06,0,.756.756,0,0,1,0,1.06l-1,1A.74.74,0,0,1,.747,15.5Zm19-13a.739.739,0,0,1-.53-.22.755.755,0,0,1,0-1.059l1-1a.75.75,0,0,1,1.06,0,.756.756,0,0,1,0,1.06l-1,1A.741.741,0,0,1,19.747,2.5Zm-18,0a.739.739,0,0,1-.53-.22l-1-1a.755.755,0,0,1,0-1.06A.74.74,0,0,1,.747,0a.74.74,0,0,1,.53.219l1,1a.755.755,0,0,1,0,1.059A.741.741,0,0,1,1.747,2.5Z" fill="#9b9b9b"/>
</svg>
