<svg id="svgexport-6_20_" data-name="svgexport-6 (20)" xmlns="http://www.w3.org/2000/svg" width="17.861" height="17.861" viewBox="0 0 17.861 17.861">
  <path id="Path_46207" data-name="Path 46207" d="M8.931,0a8.931,8.931,0,1,0,8.931,8.931A8.95,8.95,0,0,0,8.931,0ZM6.281,1.505A8.834,8.834,0,0,0,4.925,4.186H2.638A7.92,7.92,0,0,1,6.281,1.505ZM1.969,5.232H4.633a16.025,16.025,0,0,0-.4,3.175H1.064a7.829,7.829,0,0,1,.905-3.175ZM1.064,9.454H4.229a16.037,16.037,0,0,0,.4,3.14H1.951a7.826,7.826,0,0,1-.887-3.14ZM2.611,13.64h2.3a8.87,8.87,0,0,0,1.368,2.716A7.921,7.921,0,0,1,2.611,13.64Zm5.8,3.085c-1.173-.4-1.971-1.918-2.389-3.085H8.407Zm0-4.132H5.7a14.778,14.778,0,0,1-.425-3.14H8.407Zm0-4.186H5.276A14.748,14.748,0,0,1,5.71,5.233h2.7Zm0-4.221H6.031c.419-1.155,1.213-2.656,2.377-3.05Zm6.816,0H12.936A8.834,8.834,0,0,0,11.58,1.505,7.92,7.92,0,0,1,15.223,4.186ZM9.454,1.136c1.164.394,1.958,1.895,2.377,3.05H9.454Zm0,4.1h2.7a14.75,14.75,0,0,1,.434,3.175H9.454Zm0,4.221h3.131a14.778,14.778,0,0,1-.425,3.14H9.454Zm0,7.272V13.64h2.389C11.425,14.807,10.627,16.328,9.454,16.725Zm2.126-.369a8.868,8.868,0,0,0,1.368-2.716h2.3A7.919,7.919,0,0,1,11.58,16.356Zm4.33-3.763H13.236a16.037,16.037,0,0,0,.4-3.14H16.8A7.827,7.827,0,0,1,15.91,12.594ZM16.8,8.407H13.632a16.019,16.019,0,0,0-.4-3.175h2.664A7.826,7.826,0,0,1,16.8,8.407Z" fill="#0d1863"/>
</svg>
