<svg xmlns="http://www.w3.org/2000/svg" xmlns:xlink="http://www.w3.org/1999/xlink" width="16" height="17" viewBox="0 0 16 17">
  <defs>
    <radialGradient id="radial-gradient" cx="0.5" cy="0.154" r="0.922" gradientUnits="objectBoundingBox">
      <stop offset="0" stop-color="#4ea3f8"/>
      <stop offset="1" stop-color="#0073e4"/>
    </radialGradient>
  </defs>
  <g id="Page-1" transform="translate(-0.346 0)">
    <g id="Artboard" transform="translate(0 0)">
      <g id="Group-8">
        <ellipse id="Oval" cx="8" cy="8.5" rx="8" ry="8.5" transform="translate(0.346 0)" fill="url(#radial-gradient)"/>
        <path id="Shape" d="M142.689,105.058a.121.121,0,0,0-.068.112q.025,1.033.025,1.2v.31l-.052.109c-.058.122-.088.173-.515.866-.167.272-.388.644-.491.827a1.457,1.457,0,0,0-.186.716l.006,3.347a.744.744,0,0,0,.744.742h3.661l.133-.065a.962.962,0,0,0,.521-.811.436.436,0,0,0-.066-.27,1.211,1.211,0,0,1-.063-.14l.154-.068a.841.841,0,0,0,.575-.684.627.627,0,0,0-.145-.427,1.406,1.406,0,0,1-.086-.138c0-.005.012-.009.026-.009a.87.87,0,0,0,.6-.84.943.943,0,0,0-.367-.554l-.075-.066.086-.092a1.072,1.072,0,0,0,.223-.324.551.551,0,0,0,.036-.249.763.763,0,0,0-.2-.575.8.8,0,0,0-.346-.214l-.121-.041q-2.5-.014-2.5-.02c0-.006.014-.126.031-.267a5.7,5.7,0,0,0,.008-1.124,1.563,1.563,0,0,0-.851-1.253.688.688,0,0,0-.308-.051,1.663,1.663,0,0,0-.256.01A.732.732,0,0,0,142.689,105.058Zm-3.463,3.608h1.418a.226.226,0,0,1,.226.226v4.483a.226.226,0,0,1-.226.226h-1.418a.226.226,0,0,1-.226-.226v-4.483A.226.226,0,0,1,139.226,108.666Z" transform="translate(-134.505 -101.568)" fill="#fff" fill-rule="evenodd"/>
      </g>
    </g>
  </g>
</svg>
