<svg xmlns="http://www.w3.org/2000/svg" width="17.188" height="17.187" viewBox="0 0 17.188 17.187">
  <path id="Icon_awesome-thumbs-up" data-name="Icon awesome-thumbs-up" d="M3.491,7.519H.806A.806.806,0,0,0,0,8.325v8.056a.806.806,0,0,0,.806.806H3.491a.806.806,0,0,0,.806-.806V8.325A.806.806,0,0,0,3.491,7.519ZM2.148,15.844a.806.806,0,1,1,.806-.806A.806.806,0,0,1,2.148,15.844ZM12.89,2.734c0,1.424-.872,2.222-1.117,3.174h3.415a2.006,2.006,0,0,1,2,1.95,2.43,2.43,0,0,1-.653,1.651h0a2.8,2.8,0,0,1-.312,2.668,2.654,2.654,0,0,1-.55,2.509,1.782,1.782,0,0,1-.206,1.5c-.685.984-2.383,1-3.819,1h-.1a9.636,9.636,0,0,1-4.013-1.065,5.283,5.283,0,0,0-1.767-.543.4.4,0,0,1-.4-.4V8a.4.4,0,0,1,.119-.286c1.33-1.314,1.9-2.705,2.991-3.8A4.065,4.065,0,0,0,9.334,1.94C9.483,1.319,9.8,0,10.473,0,11.279,0,12.89.269,12.89,2.734Z" fill="#a2a2a2"/>
</svg>
