<svg xmlns="http://www.w3.org/2000/svg" width="20.015" height="23.88" viewBox="0 0 20.015 23.88">
  <g id="Group_15042" data-name="Group 15042" transform="translate(-1552 6675)">
    <path id="Path_45187" data-name="Path 45187" d="M34.823,79.6a2.611,2.611,0,0,0-1.99-2.263l-4.855-1.16-.192-2.264a7.33,7.33,0,0,1-1,.615,2.649,2.649,0,0,1-2.409,0,7.3,7.3,0,0,1-1-.615l-.192,2.264-4.857,1.16a2.611,2.611,0,0,0-1.99,2.263l-.416,3.911H35.239Z" transform="translate(1536.424 -6734.979)" fill="#fff"/>
    <path id="Path_45188" data-name="Path 45188" d="M56.868,92.515V85.181a2.394,2.394,0,0,1-4.789,0v7.334Z" transform="translate(1507.534 -6743.987)" fill="#fff"/>
    <path id="Path_45189" data-name="Path 45189" d="M40.177,85.573l-.936,4.513,2.579-.9v-4Z" transform="translate(1517.793 -6743.987)" fill="#fff"/>
    <path id="Path_45190" data-name="Path 45190" d="M77.564,85.573l.936,4.513-2.579-.9v-4Z" transform="translate(1488.481 -6743.987)" fill="#fff"/>
    <path id="Path_45191" data-name="Path 45191" d="M36.247,14.037l.813-.82a2.452,2.452,0,0,0,.691-1.411l.167-1.289a14.323,14.323,0,0,0,3.3.352,14.323,14.323,0,0,0,3.3-.352l.167,1.289a2.45,2.45,0,0,0,.691,1.411l.813.82a1.638,1.638,0,0,1,.753-.141V11.6a4.985,4.985,0,0,0-4.987-5.294H36.027a2.443,2.443,0,0,0,1.237,2.022,2.663,2.663,0,0,0-1.771,2.509V13.9a1.638,1.638,0,0,1,.753.14Z" transform="translate(1520.788 -6680.956)" fill="#fff"/>
    <path id="Path_45192" data-name="Path 45192" d="M32.959,44.212s-1.123-.539-1.5.455a1.5,1.5,0,0,0,1.829,1.927h9.29a1.5,1.5,0,0,0,1.829-1.927c-.378-.993-1.5-.455-1.5-.455Z" transform="translate(1524.075 -6711.13)" fill="#fff"/>
    <path id="Path_45193" data-name="Path 45193" d="M39.241,30.785l.813-.82a2.452,2.452,0,0,0,.691-1.411l.167-1.289a15.675,15.675,0,0,0,6.6,0l.167,1.289a2.45,2.45,0,0,0,.691,1.411l.813.82a6.837,6.837,0,0,1-3.769,6.464,2.649,2.649,0,0,1-2.409,0A6.837,6.837,0,0,1,39.241,30.785Z" transform="translate(1517.793 -6697.703)" fill="#fff"/>
    <path id="Path_45194" data-name="Path 45194" d="M56.682,73.908a7.33,7.33,0,0,1-1,.615,2.65,2.65,0,0,1-2.409,0,7.3,7.3,0,0,1-1-.615l-.192,2.264a2.394,2.394,0,1,0,4.789,0l-.192-2.264Z" transform="translate(1507.527 -6734.979)" fill="#fff"/>
    <g id="Group_15034" data-name="Group 15034" transform="translate(1552 -6675)">
      <path id="Path_45195" data-name="Path 45195" d="M14.839,107.143a.351.351,0,0,0-.387.312l-.274,2.571a.352.352,0,0,0,.313.387l.038,0a.352.352,0,0,0,.349-.314l.274-2.571A.352.352,0,0,0,14.839,107.143Z" transform="translate(-14.176 -86.536)" fill="red"/>
      <path id="Path_45196" data-name="Path 45196" d="M36.207,28.047l-.416-3.911a2.968,2.968,0,0,0-2.258-2.568l-4.608-1.1-.154-1.82a6.907,6.907,0,0,0,2.32-3.244c.058,0,.117.009.174.009a1.762,1.762,0,0,0,1.4-.619A1.914,1.914,0,0,0,33,12.968a1.227,1.227,0,0,0-.687-.737l-.038-.013V10.2a5.667,5.667,0,0,0-1.245-3.808.352.352,0,0,0-.534.458,4.986,4.986,0,0,1,1.076,3.35v1.956a2.024,2.024,0,0,0-.312.071l-.654-.659a2.113,2.113,0,0,1-.591-1.209l-.167-1.289a.352.352,0,0,0-.437-.294,14.063,14.063,0,0,1-3.214.34,14.127,14.127,0,0,1-3.214-.341.352.352,0,0,0-.437.3l-.167,1.289a2.113,2.113,0,0,1-.592,1.209l-.652.66a2.034,2.034,0,0,0-.312-.071V9.439a2.316,2.316,0,0,1,1.537-2.178.351.351,0,0,0,.047-.642A2.167,2.167,0,0,1,21.4,5.26h5.525a.351.351,0,1,0,0-.7H21.01a.351.351,0,0,0-.351.351,2.629,2.629,0,0,0,.913,1.957,3.022,3.022,0,0,0-1.446,2.574v2.779l-.038.013a1.228,1.228,0,0,0-.687.737,1.914,1.914,0,0,0,.343,1.826,1.761,1.761,0,0,0,1.4.619c.057,0,.115,0,.174-.009a6.907,6.907,0,0,0,2.321,3.244l-.155,1.819-4.608,1.1a2.969,2.969,0,0,0-2.155,2.049.351.351,0,1,0,.675.2,2.265,2.265,0,0,1,1.644-1.562l2.674-.639-.824,3.972a.352.352,0,0,0,.46.4l2.111-.74v2.836a.351.351,0,1,0,.7,0V22.579a2.733,2.733,0,0,0,4.086,0v5.505a.351.351,0,1,0,.7,0V25.248l2.111.74a.351.351,0,0,0,.461-.4L30.7,21.613l2.674.639a2.264,2.264,0,0,1,1.722,1.959l.416,3.911a.351.351,0,0,0,.349.314.267.267,0,0,0,.038,0,.351.351,0,0,0,.312-.387ZM32.348,13.218a1.215,1.215,0,0,1-.225,1.125,1.061,1.061,0,0,1-.83.367,8.737,8.737,0,0,0,.228-1.822.893.893,0,0,1,.537,0A.533.533,0,0,1,32.348,13.218ZM20.282,14.343a1.214,1.214,0,0,1-.224-1.125.532.532,0,0,1,.289-.333.893.893,0,0,1,.537,0,8.749,8.749,0,0,0,.229,1.822,1.062,1.062,0,0,1-.831-.367Zm1.3-1.561.71-.716a2.819,2.819,0,0,0,.789-1.614l.118-.908a15.8,15.8,0,0,0,3,.277,15.8,15.8,0,0,0,3-.277l.118.908a2.819,2.819,0,0,0,.789,1.614l.71.716a6.5,6.5,0,0,1-3.575,6.007,2.3,2.3,0,0,1-2.089,0A6.5,6.5,0,0,1,21.582,12.782ZM21.7,25.119l.763-3.686.993-.237V24.5Zm4.5-2.326a2.045,2.045,0,0,1-2.043-2.034l.141-1.649c.189.117.37.218.538.3a3.006,3.006,0,0,0,2.729,0c.168-.086.349-.187.538-.3l.141,1.649A2.045,2.045,0,0,1,26.2,22.794Zm4.5,2.326L28.948,24.5V21.2l.992.237Z" transform="translate(-16.194 -4.557)" fill="red"/>
      <path id="Path_45197" data-name="Path 45197" d="M58.911,61.879a.352.352,0,0,0-.345-.613,2.865,2.865,0,0,1-2.248,0,.352.352,0,1,0-.346.612,3.536,3.536,0,0,0,2.94,0Z" transform="translate(-47.434 -49.839)" fill="red"/>
      <path id="Path_45198" data-name="Path 45198" d="M50.235,40.077a.352.352,0,1,0,.468-.525,1.747,1.747,0,0,0-2.07,0,.348.348,0,0,0-.026.488.355.355,0,0,0,.493.037,1.077,1.077,0,0,1,1.135,0Z" transform="translate(-41.621 -32.251)" fill="red"/>
      <path id="Path_45199" data-name="Path 45199" d="M52.793,46.276a.485.485,0,1,0-.485.485.485.485,0,0,0,.485-.485Z" transform="translate(-44.261 -37.509)" fill="red"/>
      <path id="Path_45200" data-name="Path 45200" d="M68.624,40.084a1.076,1.076,0,0,1,1.135,0,.352.352,0,0,0,.468-.525,1.747,1.747,0,0,0-2.07,0,.348.348,0,0,0-.026.488A.355.355,0,0,0,68.624,40.084Z" transform="translate(-57.223 -32.258)" fill="red"/>
      <path id="Path_45201" data-name="Path 45201" d="M71.831,45.792a.485.485,0,1,0,.485.485.485.485,0,0,0-.485-.485Z" transform="translate(-59.863 -37.51)" fill="red"/>
      <path id="Path_45202" data-name="Path 45202" d="M74.595,6.822a5.123,5.123,0,0,1,.746.321.351.351,0,1,0,.329-.621,5.859,5.859,0,0,0-.848-.365.352.352,0,1,0-.227.665Z" transform="translate(-62.269 -5.821)" fill="red"/>
    </g>
  </g>
</svg>
