<svg xmlns="http://www.w3.org/2000/svg" width="18.27" height="20.215" viewBox="0 0 18.27 20.215">
  <g id="svgexport-6_51_" data-name="svgexport-6 (51)" transform="translate(-17.848 0.1)">
    <g id="Group_14841" data-name="Group 14841" transform="translate(17.95)">
      <g id="Group_14840" data-name="Group 14840">
        <path id="Path_44726" data-name="Path 44726"
          d="M36.005,14.942A2.317,2.317,0,0,0,33.689,12.9a.253.253,0,0,1-.255-.255v-3.8a6.65,6.65,0,0,0-4.294-6.2,2.258,2.258,0,0,0,.045-.442,2.2,2.2,0,1,0-4.406,0,2.359,2.359,0,0,0,.042.429,6.446,6.446,0,0,0-4.29,6.077v3.939a.255.255,0,0,1-.255.255,2.314,2.314,0,0,0-2.316,2.039,2.259,2.259,0,0,0,2.248,2.477H24.1a2.9,2.9,0,0,0,5.768,0h3.89a2.259,2.259,0,0,0,2.248-2.477ZM26.983,1.29a.914.914,0,0,1,.917.91.789.789,0,0,1-.013.123,5.717,5.717,0,0,0-.665-.061,6.647,6.647,0,0,0-1.135.065.789.789,0,0,1-.013-.123.915.915,0,0,1,.913-.916Zm0,17.419a1.618,1.618,0,0,1-1.581-1.29h3.161a1.618,1.618,0,0,1-1.58,1.291Zm7.49-2.9a.96.96,0,0,1-.716.316H20.208a.96.96,0,0,1-.716-.316.948.948,0,0,1-.245-.748,1.014,1.014,0,0,1,1.032-.871,1.547,1.547,0,0,0,1.545-1.545V8.71a5.163,5.163,0,0,1,5.158-5.161h.19a5.278,5.278,0,0,1,4.971,5.3v3.8a1.547,1.547,0,0,0,1.545,1.545,1.014,1.014,0,0,1,1.032.871.966.966,0,0,1-.247.748Z"
          transform="translate(-17.95)" fill="rgba(currentColor,0.7)" style="fill: color-mix(in srgb, currentColor 70%, transparent)" stroke="currentColor" stroke-width="0.2" />
        <path id="Path_44727" data-name="Path 44727"
          d="M19.155,49.852a.636.636,0,0,0,.621-.5A7.441,7.441,0,0,1,21.8,45.67a.637.637,0,1,0-.9-.9,8.71,8.71,0,0,0-2.368,4.313.633.633,0,0,0,.484.758.737.737,0,0,0,.14.013Z"
          transform="translate(-18.485 -42.213)" fill="rgba(currentColor,0.7)" style="fill: color-mix(in srgb, currentColor 70%, transparent)" stroke="currentColor" stroke-width="0.2" />
        <path id="Path_44728" data-name="Path 44728"
          d="M290.235,49.794a.672.672,0,0,0,.137-.016.634.634,0,0,0,.484-.758,8.723,8.723,0,0,0-2.368-4.313.637.637,0,0,0-.9.9,7.466,7.466,0,0,1,2.024,3.683.641.641,0,0,0,.623.5Z"
          transform="translate(-272.838 -42.155)" fill="rgba(currentColor,0.7)" style="fill: color-mix(in srgb, currentColor 70%, transparent)" stroke="currentColor" stroke-width="0.2" />
      </g>
    </g>
  </g>
</svg>
