<svg xmlns="http://www.w3.org/2000/svg" viewBox="0 0 14.976 12.672">
  <g id="svgexport-6" transform="translate(0 -36)">
    <g id="Group_15837" data-name="Group 15837" transform="translate(0 36)">
      <path id="Path_44955" data-name="Path 44955" d="M0,140.5l5.406,3.1,1.4-1.762-5.692-3.006Z" transform="translate(0 -135.538)" fill="currentColor"/>
      <path id="Path_44956" data-name="Path 44956" d="M254.7,138.136l1.41,1.769,5.416-3.1-1.133-1.789Z" transform="translate(-246.553 -131.847)" fill="currentColor"/>
      <path id="Path_44957" data-name="Path 44957" d="M60.576,38.732l5.541,2.926,5.549-3.042L66.129,36Z" transform="translate(-58.638 -36)" fill="currentColor"/>
      <path id="Path_44958" data-name="Path 44958" d="M44.112,250.848l5.633,2.974v-5.263l-1.188,1.49a.438.438,0,0,1-.56.107l-3.885-2.224Z" transform="translate(-42.7 -241.15)" fill="currentColor"/>
      <path id="Path_44959" data-name="Path 44959" d="M247.542,248.558v5.249l5.633-3.093v-2.784l-3.885,2.224a.438.438,0,0,1-.56-.107Z" transform="translate(-239.621 -241.149)" fill="currentColor"/>
    </g>
  </g>
</svg>
