<svg xmlns="http://www.w3.org/2000/svg" width="11.781" height="11.805" viewBox="0 0 11.781 11.805">
  <path id="Intersection_1" data-name="Intersection 1" d="M1.512,11.8A1.516,1.516,0,0,1,0,10.3V3.543a1.362,1.362,0,0,1,.282-.852L1.677.661A1.514,1.514,0,0,1,2.854,0H8.945a1.621,1.621,0,0,1,1.21.636l1.391,2.031a1.444,1.444,0,0,1,.235.876V10.3a1.505,1.505,0,0,1-.437,1.072,1.52,1.52,0,0,1-1.072.437Zm-.329-7.72V10.3a.3.3,0,0,0,.094.236.336.336,0,0,0,.236.1H10.3a.336.336,0,0,0,.236-.1.3.3,0,0,0,.094-.236h.047V4.084a.309.309,0,0,0-.305-.307H1.489A.31.31,0,0,0,1.183,4.084ZM6.5,2.6h3.541L9.162,1.324a.333.333,0,0,0-.282-.14H6.5ZM2.645,1.324,1.77,2.6H5.311V1.184H2.927a.029.029,0,0,0-.013,0A.344.344,0,0,0,2.645,1.324ZM4.131,6.142a.587.587,0,0,1-.418-.174.549.549,0,0,1-.169-.418.568.568,0,0,1,.169-.418.583.583,0,0,1,.418-.17H7.672a.57.57,0,0,1,.418.17.594.594,0,0,1,.174.418.593.593,0,0,1-.592.591Z" transform="translate(-0.002)" fill="#0d1863"/>
</svg>
