<svg xmlns="http://www.w3.org/2000/svg" width="31.706" height="29.065" viewBox="0 0 31.706 29.065">
  <g id="svgexport-10_2_" data-name="svgexport-10 (2)" transform="translate(-0.001 -2)">
    <g id="Group_16007" data-name="Group 16007" transform="translate(5.284 2)">
      <path id="Path_46295" data-name="Path 46295" d="M30.423,4.973V20.166a2.977,2.977,0,0,1-2.973,2.973H6.973a3.49,3.49,0,0,1-.383-.026A2.956,2.956,0,0,1,4.013,20.4L4,20.166V4.973A2.977,2.977,0,0,1,6.973,2H27.45a2.977,2.977,0,0,1,2.973,2.973Z" transform="translate(-4 -2)" fill="#eceff1"/>
      <path id="Path_46296" data-name="Path 46296" d="M17.376,2H6.973A2.977,2.977,0,0,0,4,4.973V20.166l.013.238a2.956,2.956,0,0,0,2.576,2.708,3.49,3.49,0,0,0,.383.026h10.4Z" transform="translate(-4 -2)" fill="#cdd0d2"/>
    </g>
    <g id="Group_16008" data-name="Group 16008" transform="translate(7.874 8.83)">
      <path id="Path_46297" data-name="Path 46297" d="M29.793,14.793v3.712a2.977,2.977,0,0,1-2.973,2.973H6.343a3.49,3.49,0,0,1-.383-.026L19.568,7.844a2.328,2.328,0,0,1,3.276,0Z" transform="translate(-5.96 -7.17)" fill="#0d1863"/>
      <path id="Path_46298" data-name="Path 46298" d="M21.094,7.172a2.311,2.311,0,0,0-1.526.671L5.96,21.451a3.49,3.49,0,0,0,.383.026h14.75Z" transform="translate(-5.96 -7.169)" fill="#04043f"/>
    </g>
    <path id="Path_46299" data-name="Path 46299" d="M22.572,20.354H6.969a3.49,3.49,0,0,1-.383-.026A2.956,2.956,0,0,1,4.01,17.619l6.275-6.275a2.328,2.328,0,0,1,3.276,0Z" transform="translate(1.288 2.784)" fill="#0d1863"/>
    <path id="Path_46300" data-name="Path 46300" d="M11.924,10.67a2.31,2.31,0,0,0-1.638.674L4.01,17.619a2.956,2.956,0,0,0,2.576,2.708,3.49,3.49,0,0,0,.383.026h5.023V10.671h-.069Z" transform="translate(1.288 2.784)" fill="#04043f"/>
    <path id="Path_46301" data-name="Path 46301" d="M9.642,5a2.642,2.642,0,1,0,2.642,2.642A2.645,2.645,0,0,0,9.642,5Z" transform="translate(2.248 0.963)" fill="#ffc107"/>
    <path id="Path_46302" data-name="Path 46302" d="M9.642,5a2.642,2.642,0,1,0,0,5.285h.082V5H9.642Z" transform="translate(2.248 0.963)" fill="#dea806"/>
    <path id="Path_46303" data-name="Path 46303" d="M8.257,22.893a4.946,4.946,0,0,1-4.679-3.37l-.046-.152A4.819,4.819,0,0,1,3.3,17.939V8.933L.1,19.63a3,3,0,0,0,2.1,3.64L22.63,28.741a3.03,3.03,0,0,0,.761.1,2.945,2.945,0,0,0,2.855-2.16l1.189-3.785Z" transform="translate(0 2.226)" fill="#eceff1"/>
    <path id="Path_46304" data-name="Path 46304" d="M3.3,8.933.1,19.63a3,3,0,0,0,2.1,3.64l10.021,2.683,1.012-3.06H8.257a4.946,4.946,0,0,1-4.679-3.37l-.046-.152A4.819,4.819,0,0,1,3.3,17.939Z" transform="translate(0 2.226)" fill="#cdd0d2"/>
  </g>
</svg>
