<svg xmlns="http://www.w3.org/2000/svg" width="24.528" height="20.378" viewBox="0 0 24.528 20.378">
  <g id="svgexport-7" transform="translate(0 -43.309)">
    <path id="Path_46307" data-name="Path 46307" d="M111.865,269.91s2.463.023,2.463-2.078a10.378,10.378,0,0,0-.177-2.615h-3.7l-.377,2.346Z" transform="translate(-104.8 -211.278)" fill="#ef5350"/>
    <path id="Path_46308" data-name="Path 46308" d="M67.228,289.876a.7.7,0,0,1-.7-.655,13.148,13.148,0,0,0-.929-4.48,3.2,3.2,0,0,0-2.81-1.648l-.616,1.2c1.463,1.391,1.848,3.745,1.95,5.6a1.833,1.833,0,0,0,1.83,1.734h1.273a.874.874,0,0,0,0-1.747Z" transform="translate(-59.196 -228.295)" fill="#409fff"/>
    <path id="Path_46309" data-name="Path 46309" d="M98.161,91.155a12.255,12.255,0,0,1-8.722,3.276h-.17l-3.738,3.8,3.738,3.8h.17a12.256,12.256,0,0,1,8.722,3.276l1.19-7.075Z" transform="translate(-81.434 -45.554)" fill="#f5f5f5"/>
    <path id="Path_46310" data-name="Path 46310" d="M350.362,66.323h0a1.189,1.189,0,0,0-1.189,1.189v14.15a1.189,1.189,0,0,0,1.189,1.189h0a1.189,1.189,0,0,0,1.189-1.189V67.512A1.189,1.189,0,0,0,350.362,66.323Z" transform="translate(-332.445 -21.911)" fill="#ef5350"/>
    <path id="Path_46311" data-name="Path 46311" d="M350.362,357.709h0a1.189,1.189,0,0,1-1.189-1.189v1.437a1.189,1.189,0,0,0,1.189,1.189h0a1.189,1.189,0,0,0,1.189-1.189V356.52A1.189,1.189,0,0,1,350.362,357.709Z" transform="translate(-332.445 -298.206)" fill="#d44a47"/>
    <path id="Path_46312" data-name="Path 46312" d="M135.033,287.528h-.17q-.768,0-1.444-.03l1.444,1.467h.17a12.255,12.255,0,0,1,8.722,3.276V290.8A12.255,12.255,0,0,0,135.033,287.528Z" transform="translate(-127.027 -232.49)" fill="#e0e0e0"/>
    <path id="Path_46313" data-name="Path 46313" d="M65.6,284.74a3.2,3.2,0,0,0-2.81-1.648l-.616,1.2a5.173,5.173,0,0,1,1.151,1.7,24.26,24.26,0,0,0,2.782.208A6.588,6.588,0,0,0,65.6,284.74Z" transform="translate(-59.196 -228.295)" fill="#3a8fe6"/>
    <path id="Path_46314" data-name="Path 46314" d="M14.976,159.543v7.6c-5.589-.019-7.476-1-7.476-3.8S9.388,159.562,14.976,159.543Z" transform="translate(-7.141 -110.665)" fill="#ef5350"/>
    <path id="Path_46315" data-name="Path 46315" d="M7.547,223.835c-.008.053-.014.107-.02.161l0,.017c-.006.056-.011.112-.014.169h0c0,.053-.006.107-.008.162,0,.013,0,.026,0,.039,0,.056,0,.112,0,.169,0,2.8,1.888,3.78,7.476,3.8v-1.437C9.895,226.9,7.873,226.086,7.547,223.835Z" transform="translate(-7.14 -171.877)" fill="#d44a47"/>
    <path id="Path_46316" data-name="Path 46316" d="M427.505,232.055h3.346a.359.359,0,0,0,0-.719h-3.346a.359.359,0,0,0,0,.719Z" transform="translate(-406.683 -179.019)"/>
    <path id="Path_46317" data-name="Path 46317" d="M431.022,46.394a.358.358,0,0,0,.254-.105l2.366-2.366a.359.359,0,0,0-.508-.508l-2.366,2.366a.359.359,0,0,0,.254.613Z" transform="translate(-410.031 0)"/>
    <path id="Path_46318" data-name="Path 46318" d="M433.642,372.947a.359.359,0,0,0,0-.508l-2.366-2.366a.359.359,0,0,0-.508.508l2.366,2.366A.364.364,0,0,0,433.642,372.947Z" transform="translate(-410.031 -311.009)"/>
    <path id="Path_46319" data-name="Path 46319" d="M2.791,71.083c1.058,1.049,1.641,2.785,1.778,5.3a2.193,2.193,0,0,0,2.189,2.074H8.031a1.233,1.233,0,0,0,0-2.466.341.341,0,0,1-.34-.319c-.032-.511-.093-1.209-.207-1.942a3.733,3.733,0,0,0,1-.267,2.176,2.176,0,0,0,1.378-1.736,12.665,12.665,0,0,1,4.45,1.453,9.9,9.9,0,0,1,2.067,1.495,1.549,1.549,0,0,0,3.09-.155V60.372a1.549,1.549,0,0,0-3.09-.155,12.139,12.139,0,0,1-8.371,3.072H7.835c-2.952.01-4.8.286-6,.9a3.813,3.813,0,0,0,0,6.524A5.682,5.682,0,0,0,2.791,71.083Zm5.24,5.628a.514.514,0,0,1,0,1.029H6.758a1.475,1.475,0,0,1-1.471-1.395,9.885,9.885,0,0,0-1.356-5,19,19,0,0,0,2.227.222h.015a12.411,12.411,0,0,1,.8,4.153A1.061,1.061,0,0,0,8.031,76.711Zm.161-3.905a3.027,3.027,0,0,1-.834.218l-.006-.029a9.7,9.7,0,0,0-.341-1.266.979.979,0,0,0-.049-.135q.373.009.773.011c.47,0,.94.01,1.408.048A1.467,1.467,0,0,1,8.193,72.806Zm9.724-13.264a.831.831,0,0,1,.83.83v14.15a.83.83,0,1,1-1.66,0h0V60.372h0A.831.831,0,0,1,17.917,59.542ZM.719,67.447a2.577,2.577,0,0,1,1.447-2.622,12.852,12.852,0,0,1,5.311-.815v1.439a.359.359,0,0,0,.719,0V64.006a13.632,13.632,0,0,0,6.492-1.682,11.487,11.487,0,0,0,1.681-1.138V73.708a11.486,11.486,0,0,0-1.681-1.138A13.706,13.706,0,0,0,8.2,70.888v-4a.359.359,0,1,0-.719,0v4c-.392-.007-.851-.019-.988-.023a10.931,10.931,0,0,1-4.323-.79A2.577,2.577,0,0,1,.719,67.447Z" transform="translate(0 -14.771)"/>
  </g>
</svg>
