<svg xmlns="http://www.w3.org/2000/svg" width="8.417" height="18.5" viewBox="0 0 8.417 18.5">
  <g id="Group_15235" data-name="Group 15235" transform="translate(-46.75 -212.75)">
    <path id="Path_45269" data-name="Path 45269" d="M21.353,11.75H18.936a2,2,0,0,0-2,2v2.417a2,2,0,0,0,2,2h2.417a2,2,0,0,0,2-2V13.75A2,2,0,0,0,21.353,11.75Z" transform="translate(30.814 202)" fill="none" stroke="#ff002a" stroke-linecap="round" stroke-linejoin="round" stroke-width="2"/>
    <path id="Path_45272" data-name="Path 45272" d="M21.353,21.833H18.936a2,2,0,0,0-2,2V26.25a2,2,0,0,0,2,2h2.417a2,2,0,0,0,2-2V23.833A2,2,0,0,0,21.353,21.833Z" transform="translate(30.814 202)" fill="none" stroke="#ff002a" stroke-linecap="round" stroke-linejoin="round" stroke-width="2"/>
  </g>
</svg>
