<svg id="Group_14852" data-name="Group 14852" xmlns="http://www.w3.org/2000/svg" width="19.302" height="20.047" viewBox="0 0 19.302 20.047">
  <g id="sell">
    <g id="Group_10744" data-name="Group 10744">
      <g id="Group_10743" data-name="Group 10743">
        <path id="Path_44225" data-name="Path 44225" d="M330.772,8.066h1.511a.756.756,0,1,0,0-1.511h-.756V.774a.756.756,0,1,0-1.511,0V7.31a.756.756,0,0,0,.756.756Z" transform="translate(-317.597 0.01)" fill="#fff"/>
        <path id="Path_44226" data-name="Path 44226" d="M2.008,8.066H3.256a2.331,2.331,0,0,0,1.605-.627,2.182,2.182,0,0,0,.7-1.6v-.4a2.291,2.291,0,0,0-2.3-2.276H2.488a.754.754,0,0,1-.749-.776V2.27a.728.728,0,0,1,.749-.74h.726a.492.492,0,0,1,.528.453.756.756,0,0,0,1.511,0A2,2,0,0,0,3.214.018H2.488A2.232,2.232,0,0,0,.228,2.27v.113A2.276,2.276,0,0,0,2.488,4.67h.768a.778.778,0,0,1,.788.765v.4a.749.749,0,0,1-.788.721H2.008a.489.489,0,0,1-.5-.491A.756.756,0,1,0,0,6.063a2.008,2.008,0,0,0,2.008,2Z" transform="translate(0.021 0.01)" fill="#fff"/>
        <path id="Path_44227" data-name="Path 44227" d="M432.764,8.066h1.511a.756.756,0,1,0,0-1.511h-.756V.774a.756.756,0,1,0-1.511,0V7.31a.756.756,0,0,0,.756.756Z" transform="translate(-415.757 0.01)" fill="#fff"/>
        <path id="Path_44228" data-name="Path 44228" d="M358.265,252h-4.5a.756.756,0,0,0,0,1.511h4.5a.756.756,0,1,0,0-1.511Z" transform="translate(-339.747 -242.099)" fill="#fff"/>
        <path id="Path_44229" data-name="Path 44229" d="M205.591,235.992l-4.035-3.641-.02-.017a1.527,1.527,0,0,0-2.511,1.165v5.64a1.582,1.582,0,0,0,1.544,1.562h.005a.756.756,0,0,0,.01-1.511c-.017-.005-.048-.031-.048-.051V233.5a.046.046,0,0,1,0-.006.045.045,0,0,1,.019-.008h0l3.983,3.593a.058.058,0,0,1-.012.032h-1.877a.756.756,0,0,0-.681,1.083l1.889,3.929a.756.756,0,1,0,1.362-.655l-1.368-2.846h.727a1.538,1.538,0,0,0,1.053-2.59.565.565,0,0,0-.04-.04Z" transform="translate(-191.54 -222.525)" fill="#fff"/>
        <path id="Path_44230" data-name="Path 44230" d="M169.259,7.356a.758.758,0,1,0-1.4-.583,1.209,1.209,0,0,1-2.325-.466V5.552h3.136a.756.756,0,0,0,.756-.756V3.323a.755.755,0,0,0-.015-.147,2.669,2.669,0,0,0-.94-1.553,2.757,2.757,0,0,0-1.728-.6,2.723,2.723,0,0,0-2.72,2.72V6.308a2.721,2.721,0,0,0,5.231,1.048Zm-3.72-3.617a1.21,1.21,0,0,1,1.209-1.209,1.184,1.184,0,0,1,1.171.877v.634h-2.38Z" transform="translate(-157.851 -0.952)" fill="#fff"/>
        <path id="Path_44231" data-name="Path 44231" d="M5.292,252H.8a.756.756,0,1,0,0,1.511H5.3A.756.756,0,1,0,5.3,252Z" transform="translate(-0.017 -242.099)" fill="#fff"/>
      </g>
    </g>
  </g>
</svg>
