<svg xmlns="http://www.w3.org/2000/svg" width="21.385" height="21.383" viewBox="0 0 21.385 21.383">
  <path id="Fill_101" data-name="Fill 101" d="M11.957,21.383a2.457,2.457,0,0,1-2.395-1.772l-1.59-5.2a1.485,1.485,0,0,0-.37-.624,1.506,1.506,0,0,0-.63-.374l-5.2-1.584a2.5,2.5,0,0,1-.25-4.694L17.9.2a2.475,2.475,0,0,1,3.067.931,2.454,2.454,0,0,1,.213,2.345l-6.93,16.376A2.458,2.458,0,0,1,11.957,21.383ZM13.642,7.242a.484.484,0,0,1,.35.146.493.493,0,0,1,0,.708l-5.37,5.369a2.521,2.521,0,0,1,.311.652l1.58,5.2a1.5,1.5,0,0,0,2.821.147l6.93-16.376a1.474,1.474,0,0,0-.13-1.407,1.484,1.484,0,0,0-1.84-.559L1.912,8.055a1.5,1.5,0,0,0,.149,2.816l5.21,1.583a2.549,2.549,0,0,1,.65.306l5.37-5.371A.484.484,0,0,1,13.642,7.242Z" fill="#ff002a"/>
</svg>
