<svg xmlns="http://www.w3.org/2000/svg" width="18.757" height="19" viewBox="0 0 18.757 19">
  <path id="Fill_903" data-name="Fill 903" d="M8.75,19a2.584,2.584,0,0,1-1.46-4.718L4.233,2.368A.859.859,0,0,0,3.4,1.722H.861A.861.861,0,1,1,.861,0H3.4A2.582,2.582,0,0,1,5.9,1.937L8.955,13.843a2.6,2.6,0,0,1,1.921,1.11l6.794-1.825a.864.864,0,0,1,.446,1.67l-6.8,1.816A2.573,2.573,0,0,1,8.75,19Zm-.009-3.446a.861.861,0,1,0,.838.64.861.861,0,0,0-.838-.64ZM12.4,12.675A2.585,2.585,0,0,1,9.9,10.761L9.013,7.43a2.585,2.585,0,0,1,1.826-3.16l3.326-.895A2.578,2.578,0,0,1,17.328,5.2l.891,3.332a2.584,2.584,0,0,1-1.825,3.16l-3.327.9a2.586,2.586,0,0,1-.672.088Zm2.434-7.667a.859.859,0,0,0-.219.028l-3.327.9a.846.846,0,0,0-.52.4A.866.866,0,0,0,10.675,7l.892,3.323a.863.863,0,0,0,1.054.611l3.326-.9a.855.855,0,0,0,.609-1.05l-.891-3.332a.867.867,0,0,0-.836-.643Z" fill="#1f2d35"/>
</svg>
