<svg xmlns="http://www.w3.org/2000/svg" width="15.3" height="18" viewBox="0 0 15.3 18">
  <path id="Vector" d="M13.686,6.117a3.5,3.5,0,0,0,.956,2.564A3.025,3.025,0,0,1,15.3,10.76a3.253,3.253,0,0,1-.776,2.14,4.083,4.083,0,0,1-2.61,1.272c-1.414.121-2.829.222-4.263.222a37.475,37.475,0,0,1-4.263-.222A4.079,4.079,0,0,1,.777,12.9,3.254,3.254,0,0,1,0,10.76,3.03,3.03,0,0,1,.657,8.681a3.418,3.418,0,0,0,.957-2.564V5.733A5.065,5.065,0,0,1,2.769,2.261,6.366,6.366,0,0,1,7.61,0h.08a6.337,6.337,0,0,1,4.921,2.362,4.99,4.99,0,0,1,1.075,3.371ZM5.016,16.255c0-.453.416-.661.8-.75a23.267,23.267,0,0,1,3.641,0c.385.089.8.3.8.75a1.4,1.4,0,0,1-.625,1.057,3.271,3.271,0,0,1-1.542.658,3.416,3.416,0,0,1-.907,0,3.256,3.256,0,0,1-1.542-.659A1.4,1.4,0,0,1,5.016,16.255Z" fill="#0d1863"/>
</svg>
