<svg xmlns="http://www.w3.org/2000/svg" width="19.997" height="19.997" viewBox="0 0 19.997 19.997">
  <g id="svgexport-6_50_" data-name="svgexport-6 (50)" transform="translate(-3 -3)">
    <path id="Path_44716" data-name="Path 44716" d="M41.435,28.288a4.133,4.133,0,0,1-.382.54.172.172,0,0,0,.264.221,4.52,4.52,0,0,0,.414-.584.174.174,0,1,0-.3-.176Zm.486-1.225a4.2,4.2,0,0,1-.194.632.172.172,0,1,0,.32.127,4.517,4.517,0,0,0,.21-.684.172.172,0,1,0-.336-.075ZM42,25.748a4.237,4.237,0,0,1,.011.661.172.172,0,0,0,.344.021,4.507,4.507,0,0,0-.012-.715.172.172,0,0,0-.343.033Zm-.331-1.276a4.173,4.173,0,0,1,.216.625.172.172,0,1,0,.334-.086,4.514,4.514,0,0,0-.234-.676.172.172,0,1,0-.316.138Zm-.714-1.108a4.209,4.209,0,0,1,.4.526.172.172,0,1,0,.289-.187,4.467,4.467,0,0,0-.434-.569.172.172,0,0,0-.256.23Z" transform="translate(-24.839 -13.151)" fill="rgba(4,4,63,0.7)"/>
    <path id="Path_44717" data-name="Path 44717" d="M20.865,15a5.865,5.865,0,1,0,5.865,5.865A5.865,5.865,0,0,0,20.865,15Zm.345.7a5.175,5.175,0,0,1,0,10.328Z" transform="translate(-7.865 -7.865)" fill="rgba(4,4,63,0.7)"/>
    <path id="Path_44718" data-name="Path 44718" d="M29.161,3.978V5.562a.978.978,0,1,0,1.956,0V3.978a.978.978,0,0,0-1.956,0Z" transform="translate(-17.139)" fill="rgba(4,4,63,0.7)"/>
    <path id="Path_44719" data-name="Path 44719" d="M45.815,10.949l-1.12,1.12a.978.978,0,1,0,1.383,1.383l1.12-1.12a.978.978,0,1,0-1.383-1.383Z" transform="translate(-27.126 -5.023)" fill="rgba(4,4,63,0.7)"/>
    <path id="Path_44720" data-name="Path 44720" d="M53.286,29.161H51.7a.978.978,0,1,0,0,1.956h1.584a.978.978,0,0,0,0-1.956Z" transform="translate(-31.265 -17.139)" fill="rgba(4,4,63,0.7)"/>
    <path id="Path_44721" data-name="Path 44721" d="M47.2,45.815l-1.12-1.12a.978.978,0,1,0-1.38,1.384l1.12,1.12a.978.978,0,0,0,1.38-1.384Z" transform="translate(-27.126 -27.126)" fill="rgba(4,4,63,0.7)"/>
    <path id="Path_44722" data-name="Path 44722" d="M31.117,53.286V51.7a.978.978,0,0,0-1.956,0v1.584a.978.978,0,1,0,1.956,0Z" transform="translate(-17.139 -31.265)" fill="rgba(4,4,63,0.7)"/>
    <path id="Path_44723" data-name="Path 44723" d="M12.333,47.2l1.12-1.12a.978.978,0,1,0-1.384-1.38l-1.12,1.12a.978.978,0,0,0,1.384,1.38Z" transform="translate(-5.023 -27.126)" fill="rgba(4,4,63,0.7)"/>
    <path id="Path_44724" data-name="Path 44724" d="M3.978,31.117H5.562a.978.978,0,0,0,0-1.956H3.978a.978.978,0,1,0,0,1.956Z" transform="translate(0 -17.139)" fill="rgba(4,4,63,0.7)"/>
    <path id="Path_44725" data-name="Path 44725" d="M10.949,12.333l1.12,1.12a.978.978,0,1,0,1.383-1.383l-1.12-1.12a.978.978,0,1,0-1.383,1.383Z" transform="translate(-5.023 -5.023)" fill="rgba(4,4,63,0.7)"/>
  </g>
</svg>
