<svg xmlns="http://www.w3.org/2000/svg" width="20.043" height="20.043" viewBox="0 0 20.043 20.043">
  <g id="Group_15038" data-name="Group 15038" transform="translate(-1063 6976)">
    <path id="Path_45203" data-name="Path 45203" d="M48,57.023a3.06,3.06,0,0,0,1.053-1.042,2.175,2.175,0,0,0,.284-1.251,9.649,9.649,0,0,1-2.134-2.052,9.648,9.648,0,0,1-2.134,2.052,2.174,2.174,0,0,0,.284,1.251,3.059,3.059,0,0,0,1.053,1.042c0,1.142-1.2.937-1.2.937h0a1.176,1.176,0,0,0,1.176,1.176h1.629a1.176,1.176,0,0,0,1.176-1.176h0S48,58.162,48,57.023Z" transform="translate(1019.693 -7026.616)" fill="#fff"/>
    <path id="Path_45204" data-name="Path 45204" d="M16.081,184.458H14.708a1.327,1.327,0,0,0,.782.124,1.176,1.176,0,0,1-1.176,1.176H12.685a1.176,1.176,0,0,1-1.176-1.176,1.354,1.354,0,0,0,.795-.124h-1.37a.933.933,0,0,0-.933.933v2.564h7.014v-2.564A.933.933,0,0,0,16.081,184.458Z" transform="translate(1053.391 -7153.237)" fill="#fff"/>
    <path id="Path_45205" data-name="Path 45205" d="M15.087,16.829h1.37a.855.855,0,0,0,.407-.814,3.059,3.059,0,0,1-1.053-1.042,2.175,2.175,0,0,1-.284-1.251,9.649,9.649,0,0,0,2.134-2.052,9.649,9.649,0,0,0,2.134,2.052,2.175,2.175,0,0,1-.284,1.251,3.06,3.06,0,0,1-1.053,1.042.856.856,0,0,0,.4.814h1.373a.931.931,0,0,1,.764.4V13.338A3.338,3.338,0,0,0,17.661,10h0a3.338,3.338,0,0,0-3.338,3.338v3.889A.932.932,0,0,1,15.087,16.829Z" transform="translate(1049.238 -6985.608)" fill="#fff"/>
    <path id="Path_45206" data-name="Path 45206" d="M7.628,7.507V3.729a3.729,3.729,0,0,0-7.458,0V7.507A1.316,1.316,0,0,0,0,8.154v2.564a.391.391,0,0,0,.391.391H7.405a.391.391,0,0,0,.391-.391V8.154A1.316,1.316,0,0,0,7.628,7.507ZM.952,3.729a2.946,2.946,0,0,1,5.893,0V6.883h0c-.029-.008-.058-.016-.088-.023h0q-.044-.01-.09-.016H6.656l-.077-.008-.02,0c-.028,0-.057,0-.086,0H5.224a.417.417,0,0,1-.117-.223,3.352,3.352,0,0,0,.986-1.056l.014-.026a2.578,2.578,0,0,0,.317-1.4A.391.391,0,0,0,6.2,3.758a9.129,9.129,0,0,1-1.991-1.94.391.391,0,0,0-.613,0A9.132,9.132,0,0,1,1.6,3.758a.391.391,0,0,0-.228.365,2.579,2.579,0,0,0,.317,1.4l.014.026A3.351,3.351,0,0,0,2.69,6.607a.416.416,0,0,1-.118.223H1.324c-.029,0-.058,0-.086,0l-.02,0-.077.008H1.133q-.045.007-.09.016h0Q1,6.87.953,6.883h0ZM2.889,7.561h0a1.23,1.23,0,0,0,.6-1.153A.391.391,0,0,0,3.3,6.07a2.671,2.671,0,0,1-.908-.892l-.015-.027a1.574,1.574,0,0,1-.213-.813A9.675,9.675,0,0,0,3.9,2.676,9.676,9.676,0,0,0,5.632,4.338a1.573,1.573,0,0,1-.213.813L5.4,5.178A2.671,2.671,0,0,1,4.5,6.07a.391.391,0,0,0-.192.337A1.232,1.232,0,0,0,4.9,7.56h0a1.429,1.429,0,0,0,.486.167.786.786,0,0,1-.685.4H3.076a.785.785,0,0,1-.684-.4A1.45,1.45,0,0,0,2.889,7.561Zm4.125,2.766H.783V8.154A.537.537,0,0,1,.89,7.832L.916,7.8.93,7.784l.029-.029.014-.013a.539.539,0,0,1,.045-.035h0a.545.545,0,0,1,.053-.032l.008,0,.047-.021.014-.005.044-.014.016,0,.045-.008.016,0a.535.535,0,0,1,.061,0h.207a1.57,1.57,0,0,0,1.545,1.3H4.705a1.57,1.57,0,0,0,1.545-1.3h.223a.534.534,0,0,1,.061,0l.016,0,.045.008.016,0,.044.014.014.005.046.021.009,0a.544.544,0,0,1,.053.032l0,0c.015.01.029.022.043.034l.014.013.029.028.015.016.026.033a.538.538,0,0,1,.107.321v2.173h0Z" transform="translate(1063 -6976)" fill="#aab2b7"/>
    <path id="Path_45207" data-name="Path 45207" d="M351.044,10.929c-.417-.531-.858-.645-1.186-.486a1.884,1.884,0,0,0-1.3-.444,2.175,2.175,0,0,0-2.271,2.127,6.814,6.814,0,0,0,.2,1.748,1.691,1.691,0,0,1,1.49-1.123,1.834,1.834,0,0,0,1.487-.65c.131.342.768.486,1.017.707a2.953,2.953,0,0,1,.665.779A2.7,2.7,0,0,0,351.044,10.929Z" transform="translate(730.267 -6985.608)" fill="#fff"/>
    <path id="Path_45208" data-name="Path 45208" d="M356.048,65.178a2.953,2.953,0,0,0-.665-.779c-.25-.221-.886-.365-1.017-.707a1.834,1.834,0,0,1-1.487.65,1.691,1.691,0,0,0-1.49,1.123V65.8a2.389,2.389,0,0,0,1.517,2.224l0,.76h.077l.8,1.182.8-1.182h.077l0-.76a2.389,2.389,0,0,0,1.516-2.224v-.91A2.68,2.68,0,0,1,356.048,65.178Z" transform="translate(725.367 -7037.199)" fill="#fff"/>
    <path id="Path_45209" data-name="Path 45209" d="M328.905,193.864h-1.777l-.8,1.182-.8-1.182h-1.777a.933.933,0,0,0-.933.933v2.2h7.014v-2.2A.933.933,0,0,0,328.905,193.864Z" transform="translate(752.813 -7162.275)" fill="#fff"/>
    <path id="Path_45210" data-name="Path 45210" d="M319.3,7.2h-1.309V7.081A2.763,2.763,0,0,0,319.5,4.605V3.763a2.844,2.844,0,0,0-.306-2.684h0A1.463,1.463,0,0,0,317.776.4,2.331,2.331,0,0,0,316.4,0a2.564,2.564,0,0,0-2.662,2.518,7.5,7.5,0,0,0,.2,1.8v.287a2.763,2.763,0,0,0,1.516,2.476V7.2h-1.309a1.326,1.326,0,0,0-1.324,1.324v2.2a.392.392,0,0,0,.391.391h7.014a.392.392,0,0,0,.391-.391v-2.2A1.326,1.326,0,0,0,319.3,7.2ZM316.4.783a1.493,1.493,0,0,1,1.044.35.391.391,0,0,0,.426.054c.184-.09.454.054.706.375h0a1.907,1.907,0,0,1,.275,1.6l-.013-.013-.038-.039-.023-.023-.037-.036-.025-.024-.041-.038-.024-.022-.066-.06h0l-.035-.029-.017-.014,0,0a1.688,1.688,0,0,0-.246-.152c-.059-.031-.121-.061-.184-.092a2.693,2.693,0,0,1-.365-.2.205.205,0,0,1-.062-.063.391.391,0,0,0-.662-.116q-.029.033-.058.064a1.575,1.575,0,0,1-.121.115,1.4,1.4,0,0,1-.129.1,1.528,1.528,0,0,1-.883.237c-.039,0-.078,0-.116,0l-.036,0-.076.007-.039.005-.07.011-.037.007-.075.016-.027.006q-.05.013-.1.028l-.015.005-.078.028-.03.012-.06.026-.031.014-.057.028-.028.014L314.888,3l-.016.009-.076.049-.018.013-.054.039-.024.019-.045.036-.024.02-.044.038-.02.018-.007.007c-.02-.213-.034-.458-.034-.73A1.792,1.792,0,0,1,316.4.783Zm-1.68,3.822V4.342l0-.009,0-.007.008-.018,0-.005.027-.054,0-.008.012-.022.006-.011.012-.021.007-.012.013-.021.008-.013.015-.024.007-.011.022-.033,0,0,.026-.037.008-.011.02-.026.011-.014.019-.023.013-.015.02-.023.013-.015.022-.023.013-.014.028-.027.009-.009.039-.035.011-.009.03-.025.016-.012.027-.02.018-.013.028-.019.019-.012.03-.018.019-.011.035-.018.016-.008.053-.024.011,0,.045-.017.021-.007.038-.011.024-.006.037-.009.025-.005.039-.006.025,0,.045,0,.022,0,.069,0h0a2.261,2.261,0,0,0,1.467-.479c.037.027.076.053.115.077a4,4,0,0,0,.356.189l.089.044h0a1.2,1.2,0,0,1,.216.126l.075.068.021.02.048.046.024.024.039.039.027.028.03.032.029.032.023.026.031.036.015.018.033.04.008.01.035.045h0a1.588,1.588,0,0,1,.135.2l.005.008a.389.389,0,0,0,.026.042l.013.016c.008.01.016.02.025.029l.006.007v.346a1.986,1.986,0,0,1-1.268,1.859.391.391,0,0,0-.248.366v.526l-.01.014-.473.7-.473-.7-.009-.014V6.83a.391.391,0,0,0-.248-.365A1.986,1.986,0,0,1,314.725,4.605Zm5.113,5.721h-6.231v-1.8a.542.542,0,0,1,.541-.541h1.569L316.4,8.99a.391.391,0,0,0,.649,0l.681-1.009H319.3a.542.542,0,0,1,.541.541v1.8Z" transform="translate(762.422 -6976)" fill="#aab2b7"/>
    <path id="Path_45211" data-name="Path 45211" d="M416.541,492.788a.385.385,0,0,1-.076-.008.36.36,0,0,1-.073-.022.412.412,0,0,1-.068-.036.391.391,0,0,1-.06-.049.38.38,0,0,1-.049-.06.387.387,0,0,1-.036-.068.392.392,0,0,1-.022-.073.377.377,0,0,1,0-.153.408.408,0,0,1,.022-.074.4.4,0,0,1,.036-.067.374.374,0,0,1,.049-.06.42.42,0,0,1,.06-.049.412.412,0,0,1,.068-.036.364.364,0,0,1,.073-.022.387.387,0,0,1,.153,0,.364.364,0,0,1,.073.022.391.391,0,0,1,.067.036.42.42,0,0,1,.06.049.4.4,0,0,1,.085.127.406.406,0,0,1,.022.074.4.4,0,0,1,0,.153.391.391,0,0,1-.022.073.385.385,0,0,1-.036.068.4.4,0,0,1-.049.06.4.4,0,0,1-.127.085.36.36,0,0,1-.073.022A.386.386,0,0,1,416.541,492.788Z" transform="translate(663.141 -7448.746)" fill="#aab2b7"/>
    <path id="Path_45212" data-name="Path 45212" d="M189.909,372.285h-5.614L185.746,367h2.712Z" transform="translate(885.919 -7328.633)" fill="#fff"/>
    <rect id="Rectangle_5117" data-name="Rectangle 5117" width="19.166" height="1.971" transform="translate(1063.438 -6963.604)" fill="#fff"/>
    <path id="Path_45213" data-name="Path 45213" d="M246.392,390.148a.387.387,0,0,1-.076-.007.4.4,0,0,1-.073-.022.386.386,0,0,1-.068-.036.37.37,0,0,1-.059-.049.393.393,0,0,1-.049-.06.416.416,0,0,1-.036-.068.366.366,0,0,1-.022-.073.377.377,0,0,1,0-.153.364.364,0,0,1,.022-.073.386.386,0,0,1,.036-.068.393.393,0,0,1,.049-.06.374.374,0,0,1,.059-.049.384.384,0,0,1,.068-.036.392.392,0,0,1,.073-.022.385.385,0,0,1,.153,0,.4.4,0,0,1,.074.022.394.394,0,0,1,.067.036.374.374,0,0,1,.06.049.384.384,0,0,1,.049.06.416.416,0,0,1,.036.068.4.4,0,0,1,.023.073.388.388,0,0,1,.007.077.36.36,0,0,1-.008.076.365.365,0,0,1-.022.073.414.414,0,0,1-.036.068.39.39,0,0,1-.049.06.374.374,0,0,1-.06.049.394.394,0,0,1-.067.036.413.413,0,0,1-.074.022A.387.387,0,0,1,246.392,390.148Z" transform="translate(826.629 -7350.123)" fill="#aab2b7"/>
    <path id="Path_45214" data-name="Path 45214" d="M20.756,306.65H1.59a.392.392,0,0,0-.391.391v1.971a.392.392,0,0,0,.391.391H9.3l-1.236,4.5H4.513a.391.391,0,1,0,0,.783h11.95a.391.391,0,1,0,0-.783H14.279l-1.236-4.5h7.713a.392.392,0,0,0,.391-.391v-1.971A.392.392,0,0,0,20.756,306.65Zm-7.289,7.256h-1.9v-2.255a.391.391,0,1,0-.783,0v2.255H8.88l1.236-4.5h2.116Zm6.9-5.285H1.982v-1.188H20.365Z" transform="translate(1061.848 -7270.646)" fill="#aab2b7"/>
  </g>
</svg>
