<svg xmlns="http://www.w3.org/2000/svg" width="21" height="21" viewBox="0 0 21 21">
  <g id="svgexport-7_20_" data-name="svgexport-7 (20)" transform="translate(-3.4 -3.4)">
    <g id="Layer_35" data-name="Layer 35" transform="translate(3.4 3.4)">
      <path id="Path_44790" data-name="Path 44790" d="M13.9,3.4A10.5,10.5,0,1,0,24.4,13.9,10.5,10.5,0,0,0,13.9,3.4Zm0,18.063a1.586,1.586,0,1,1,1.582-1.582A1.586,1.586,0,0,1,13.9,21.463Zm1.92-13.07-.6,8.077a.22.22,0,0,1-.22.206H12.8a.22.22,0,0,1-.22-.206l-.6-8.077a1.924,1.924,0,1,1,3.84,0Z" transform="translate(-3.4 -3.4)" fill="#ffc048"/>
    </g>
  </g>
</svg>
