<svg xmlns="http://www.w3.org/2000/svg" width="38.443" height="39.282" viewBox="0 0 38.443 39.282">
  <g id="svgexport-11_1_" data-name="svgexport-11 (1)" transform="translate(0 0.001)">
    <path id="Path_46320" data-name="Path 46320" d="M38.443,30.156A19.222,19.222,0,1,1,19.222,10.934,19.222,19.222,0,0,1,38.443,30.156Zm0,0" transform="translate(0 -10.096)" fill="#f5585c"/>
    <path id="Path_46321" data-name="Path 46321" d="M192.441,123.018a5.415,5.415,0,0,1-.172-1.863l.441-4.448a10.006,10.006,0,0,0-.93-5.265c-2.075-4.221-1.6-4.527-1.663-8.716a1.549,1.549,0,1,0-3.1,0c0,17.035.032,15.785-.073,16.285v2.231a3.412,3.412,0,0,1-3.408,3.408h-8.482a12.038,12.038,0,0,0,5.155,4.09l.038.016a5.074,5.074,0,0,1,3.01,3.79,19.15,19.15,0,0,0,10.47-4.805Zm0,0" transform="translate(-161.624 -93.414)" fill="#f9d6bf"/>
    <path id="Path_46322" data-name="Path 46322" d="M57.94,90.863l-.472-.437a1.8,1.8,0,1,0-2.451,2.645l2.923,2.709Zm0,0" transform="translate(-50.265 -83.046)" fill="#f9d6bf"/>
    <path id="Path_46323" data-name="Path 46323" d="M55.976,94.127a1.8,1.8,0,0,1-.558-1.568,1.781,1.781,0,0,0-.5.375,1.809,1.809,0,0,0,.1,2.548l2.923,2.709V95.947Zm0,0" transform="translate(-50.265 -85.458)" fill="#efc1a8"/>
    <path id="Path_46324" data-name="Path 46324" d="M113.394,0H102.412A3.412,3.412,0,0,0,99,3.408V27.9a3.412,3.412,0,0,0,3.408,3.408h10.982A3.412,3.412,0,0,0,116.8,27.9V3.408A3.412,3.412,0,0,0,113.394,0Zm0,0" transform="translate(-91.408 -0.001)" fill="#494970"/>
    <path id="Path_46325" data-name="Path 46325" d="M103.185,27.9V3.408A3.412,3.412,0,0,1,106.594,0h-4.181A3.412,3.412,0,0,0,99,3.408V27.9a3.412,3.412,0,0,0,3.408,3.408h4.181A3.412,3.412,0,0,1,103.185,27.9Zm0,0" transform="translate(-91.408)" fill="#3a3a60"/>
    <path id="Path_46326" data-name="Path 46326" d="M137.635,50.624a1.52,1.52,0,0,1-1.52,1.52H125.133a1.52,1.52,0,0,1-1.52-1.52V26.133a1.52,1.52,0,0,1,1.52-1.52h.837a.569.569,0,0,1,.569.569v.361a.882.882,0,0,0,.88.88h6.41a.882.882,0,0,0,.88-.88v-.361a.569.569,0,0,1,.569-.569h.838a1.52,1.52,0,0,1,1.52,1.52Zm0,0" transform="translate(-114.212 -22.767)" fill="#e2e9f2"/>
    <path id="Path_46327" data-name="Path 46327" d="M125.907,50.624V26.133a3.388,3.388,0,0,1,.327-1.455.565.565,0,0,0-.263-.065h-.838a1.52,1.52,0,0,0-1.52,1.52V50.624a1.52,1.52,0,0,0,1.52,1.52h1.132a3.386,3.386,0,0,1-.359-1.52Zm0,0" transform="translate(-114.129 -22.725)" fill="#c7d6e5"/>
    <path id="Path_46328" data-name="Path 46328" d="M210.891,18.542h-1.883a.55.55,0,1,1,0-1.1h1.883a.55.55,0,1,1,0,1.1Zm0,0" transform="translate(-192.464 -16.104)" fill="#5d5d84"/>
    <path id="Path_46329" data-name="Path 46329" d="M183.836,18.539a.55.55,0,0,1-.107-1.09.529.529,0,0,1,.215,0,.55.55,0,0,1-.108,1.09Zm0,0" transform="translate(-169.223 -16.101)" fill="#5d5d84"/>
    <path id="Path_46330" data-name="Path 46330" d="M69.436,164.392a1.58,1.58,0,0,1-2.233.085l-2.647-2.452a1.58,1.58,0,1,1,2.148-2.318l2.647,2.452A1.58,1.58,0,0,1,69.436,164.392Zm0,0" transform="translate(-59.137 -147.065)" fill="#f9d6bf"/>
    <path id="Path_46331" data-name="Path 46331" d="M68.293,164.134l-2.647-2.452a1.58,1.58,0,0,1-.454-1.56,1.578,1.578,0,0,0-.634,2.675l2.647,2.452a1.58,1.58,0,0,0,2.6-.758,1.578,1.578,0,0,1-1.513-.357Zm0,0" transform="translate(-59.137 -147.837)" fill="#efc1a8"/>
    <path id="Path_46332" data-name="Path 46332" d="M231.6,373.887a12.609,12.609,0,0,1-13.952,5.651,12,12,0,0,0,1.886.988l.038.016a5.075,5.075,0,0,1,3.01,3.79,19.146,19.146,0,0,0,10.47-4.805l-1.285-4.722a5.417,5.417,0,0,1-.166-.919Zm0,0" transform="translate(-200.95 -345.202)" fill="#efc1a8"/>
    <path id="Path_46333" data-name="Path 46333" d="M69.436,276.74a1.58,1.58,0,0,1-2.233.085l-2.647-2.452a1.58,1.58,0,0,1,2.148-2.318l2.647,2.452A1.58,1.58,0,0,1,69.436,276.74Zm0,0" transform="translate(-59.137 -250.794)" fill="#f9d6bf"/>
    <path id="Path_46334" data-name="Path 46334" d="M68.293,276.482l-2.647-2.452a1.58,1.58,0,0,1-.454-1.56,1.578,1.578,0,0,0-.634,2.675L67.2,277.6a1.58,1.58,0,0,0,2.6-.758A1.578,1.578,0,0,1,68.293,276.482Zm0,0" transform="translate(-59.137 -251.565)" fill="#efc1a8"/>
    <path id="Path_46335" data-name="Path 46335" d="M69.436,220.568a1.58,1.58,0,0,1-2.233.085L64.557,218.2a1.58,1.58,0,1,1,2.148-2.318l2.647,2.452A1.58,1.58,0,0,1,69.436,220.568Zm0,0" transform="translate(-59.137 -198.931)" fill="#f9d6bf"/>
    <path id="Path_46336" data-name="Path 46336" d="M68.293,220.306l-2.647-2.452a1.58,1.58,0,0,1-.454-1.561,1.578,1.578,0,0,0-.634,2.675l2.647,2.452a1.58,1.58,0,0,0,2.6-.758A1.577,1.577,0,0,1,68.293,220.306Zm0,0" transform="translate(-59.137 -199.699)" fill="#efc1a8"/>
    <g id="Group_16073" data-name="Group 16073" transform="translate(12.423 11.918)">
      <g id="Group_16074" data-name="Group 16074" transform="translate(0 3.956)">
        <path id="Path_44777" data-name="Path 44777" d="M281.45,1200.468a.183.183,0,0,0-.228.183v1.044a.273.273,0,0,1-.546-.006v-1.05a.188.188,0,0,0-.376,0v1.055a.273.273,0,0,1-.545-.011v-1.025a.188.188,0,1,0-.376,0v1.088a.522.522,0,0,0,.52.523h1.177a.522.522,0,0,0,.521-.523v-1.109A.171.171,0,0,0,281.45,1200.468Z" transform="translate(-279.38 -1199.565)" fill="#04043f" fill-rule="evenodd"/>
        <path id="Path_44778" data-name="Path 44778" d="M417.654,1200.8a.826.826,0,0,0-.824.826v.779a.187.187,0,0,0,.187.187h.008a.186.186,0,0,0,.186-.187v-.765a.451.451,0,0,1,.344-.447.445.445,0,0,1,.543.433v.779a.186.186,0,0,0,.186.187.2.2,0,0,0,.194-.194v-.771A.826.826,0,0,0,417.654,1200.8Z" transform="translate(-414.372 -1199.905)" fill="#04043f" fill-rule="evenodd"/>
        <path id="Path_44779" data-name="Path 44779" d="M634.558,1199.682a.9.9,0,1,1-.9-.9.9.9,0,0,1,.9.9Zm-.9-.558a.559.559,0,1,0,.557.559A.559.559,0,0,0,633.659,1199.124Z" transform="translate(-626.441 -1197.921)" fill="#04043f" fill-rule="evenodd"/>
        <path id="Path_44780" data-name="Path 44780" d="M281.577,1317.709a.031.031,0,0,1-.009-.024v-.385a.031.031,0,0,1,.009-.024.041.041,0,0,1,.051,0,.032.032,0,0,1,.01.024v.159h.241v-.158a.032.032,0,0,1,.01-.024.036.036,0,0,1,.026-.009.037.037,0,0,1,.026.009.032.032,0,0,1,.01.025v.385a.031.031,0,0,1-.01.024.042.042,0,0,1-.052,0,.032.032,0,0,1-.01-.024v-.17h-.241v.17a.031.031,0,0,1-.009.024.037.037,0,0,1-.026.009A.036.036,0,0,1,281.577,1317.709Z" transform="translate(-281.528 -1314.289)" fill="#04043f"/>
        <path id="Path_44781" data-name="Path 44781" d="M306.563,1324.915a.091.091,0,0,1-.036-.075.087.087,0,0,1,.038-.074.169.169,0,0,1,.1-.028.15.15,0,0,1,.1.029v-.024a.059.059,0,0,0-.02-.048.088.088,0,0,0-.058-.017.173.173,0,0,0-.092.024.05.05,0,0,1-.024.008.028.028,0,0,1-.021-.01.023.023,0,0,1-.006-.016.028.028,0,0,1,.013-.024.168.168,0,0,1,.057-.027.262.262,0,0,1,.072-.01.173.173,0,0,1,.111.032.107.107,0,0,1,.04.088v.168a.029.029,0,0,1-.009.023.036.036,0,0,1-.026.008.037.037,0,0,1-.025-.008.029.029,0,0,1-.009-.023v-.012a.136.136,0,0,1-.109.042A.149.149,0,0,1,306.563,1324.915Zm.177-.037a.042.042,0,0,0,.025-.038.042.042,0,0,0-.024-.038.136.136,0,0,0-.067-.014.1.1,0,0,0-.057.014.047.047,0,0,0,0,.077.1.1,0,0,0,.057.013A.135.135,0,0,0,306.74,1324.877Z" transform="translate(-306.042 -1321.514)" fill="#04043f"/>
        <path id="Path_44782" data-name="Path 44782" d="M327.426,1325.119a.032.032,0,0,1-.009-.025v-.434a.032.032,0,0,1,.009-.024.034.034,0,0,1,.025-.009.036.036,0,0,1,.026.009.032.032,0,0,1,.009.024v.022a.17.17,0,0,1,.057-.042.174.174,0,0,1,.071-.014.161.161,0,0,1,.118.042.155.155,0,0,1,.044.117.174.174,0,0,1-.02.085.138.138,0,0,1-.057.056.186.186,0,0,1-.087.019.177.177,0,0,1-.069-.013.16.16,0,0,1-.056-.041v.2a.031.031,0,0,1-.01.024.035.035,0,0,1-.026.009A.034.034,0,0,1,327.426,1325.119Zm.25-.256a.1.1,0,0,0,.028-.077.1.1,0,0,0-.028-.076.108.108,0,0,0-.078-.027.119.119,0,0,0-.083.027.11.11,0,0,0,0,.151.116.116,0,0,0,.082.028.105.105,0,0,0,.08-.028Z" transform="translate(-326.558 -1321.517)" fill="#04043f"/>
        <path id="Path_44783" data-name="Path 44783" d="M350.685,1325.119a.032.032,0,0,1-.009-.025v-.434a.032.032,0,0,1,.009-.024.041.041,0,0,1,.051,0,.032.032,0,0,1,.009.024v.022a.179.179,0,0,1,.245-.013.155.155,0,0,1,.044.117.172.172,0,0,1-.02.085.135.135,0,0,1-.057.056.183.183,0,0,1-.087.019.178.178,0,0,1-.069-.013.162.162,0,0,1-.055-.041v.2a.032.032,0,0,1-.01.024.041.041,0,0,1-.051,0Zm.25-.256a.1.1,0,0,0,.028-.077.1.1,0,0,0-.027-.075.108.108,0,0,0-.078-.027.12.12,0,0,0-.083.027.11.11,0,0,0,0,.151.116.116,0,0,0,.082.028.106.106,0,0,0,.079-.027Z" transform="translate(-349.401 -1321.518)" fill="#04043f"/>
        <path id="Path_44784" data-name="Path 44784" d="M373.442,1325.143a.122.122,0,0,1-.056-.038.032.032,0,0,1-.007-.018.031.031,0,0,1,.013-.025.029.029,0,0,1,.018-.005.037.037,0,0,1,.028.014.09.09,0,0,0,.036.023.145.145,0,0,0,.049.008.1.1,0,0,0,.074-.027.106.106,0,0,0,.026-.077v-.032a.119.119,0,0,1-.042.029.133.133,0,0,1-.052.011.165.165,0,0,1-.121-.042.157.157,0,0,1-.043-.118v-.127a.029.029,0,0,1,.01-.022.037.037,0,0,1,.026-.009.036.036,0,0,1,.024.009.029.029,0,0,1,.01.022v.127a.113.113,0,0,0,.025.078.089.089,0,0,0,.069.028.085.085,0,0,0,.067-.027.111.111,0,0,0,.024-.077v-.122a.039.039,0,0,1,.009-.028.04.04,0,0,1,.052,0,.039.039,0,0,1,.009.028v.265a.154.154,0,0,1-.167.167A.23.23,0,0,1,373.442,1325.143Z" transform="translate(-371.684 -1321.578)" fill="#04043f"/>
        <path id="Path_44785" data-name="Path 44785" d="M404.616,1317.682a.244.244,0,0,1-.088-.058.024.024,0,0,1-.008-.018.031.031,0,0,1,.011-.023.025.025,0,0,1,.018-.008.04.04,0,0,1,.027.013.191.191,0,0,0,.068.042.242.242,0,0,0,.085.015.132.132,0,0,0,.072-.016.051.051,0,0,0,.025-.046.054.054,0,0,0-.026-.047.278.278,0,0,0-.089-.032.325.325,0,0,1-.135-.054.1.1,0,0,1-.042-.085.093.093,0,0,1,.021-.06.137.137,0,0,1,.061-.041.286.286,0,0,1,.194.005.142.142,0,0,1,.068.054.036.036,0,0,1,.006.019.027.027,0,0,1-.014.023.029.029,0,0,1-.016.005.032.032,0,0,1-.015,0,.036.036,0,0,1-.013-.01.117.117,0,0,0-.05-.036.186.186,0,0,0-.07-.013.155.155,0,0,0-.075.015.047.047,0,0,0-.026.043.05.05,0,0,0,.025.043.293.293,0,0,0,.088.031.358.358,0,0,1,.138.056.105.105,0,0,1,.042.086.1.1,0,0,1-.021.063.131.131,0,0,1-.059.042.246.246,0,0,1-.089.015A.3.3,0,0,1,404.616,1317.682Z" transform="translate(-402.282 -1314.274)" fill="#04043f"/>
        <path id="Path_44786" data-name="Path 44786" d="M429.247,1316.02a.031.031,0,0,1-.009-.024v-.415a.032.032,0,0,1,.009-.025.042.042,0,0,1,.051,0,.032.032,0,0,1,.009.025v.187a.148.148,0,0,1,.122-.058.122.122,0,0,1,.093.036.141.141,0,0,1,.034.1v.15a.031.031,0,0,1-.01.024.042.042,0,0,1-.051,0,.032.032,0,0,1-.009-.024v-.15a.086.086,0,0,0-.018-.059.068.068,0,0,0-.054-.021.1.1,0,0,0-.079.03.111.111,0,0,0-.029.081v.12a.032.032,0,0,1-.01.024.036.036,0,0,1-.025.009A.035.035,0,0,1,429.247,1316.02Z" transform="translate(-426.557 -1312.6)" fill="#04043f"/>
        <path id="Path_44787" data-name="Path 44787" d="M449.725,1324.939a.152.152,0,0,1-.063-.057.167.167,0,0,1,0-.166.149.149,0,0,1,.063-.057.234.234,0,0,1,.191,0,.15.15,0,0,1,.064.057.166.166,0,0,1,0,.166.152.152,0,0,1-.064.057A.236.236,0,0,1,449.725,1324.939Zm.176-.064a.111.111,0,0,0,0-.152.132.132,0,0,0-.161,0,.112.112,0,0,0,0,.152A.132.132,0,0,0,449.9,1324.876Z" transform="translate(-446.595 -1321.531)" fill="#04043f"/>
        <path id="Path_44788" data-name="Path 44788" d="M473.136,1325.119a.032.032,0,0,1-.009-.025v-.434a.032.032,0,0,1,.009-.024.035.035,0,0,1,.025-.009.036.036,0,0,1,.026.009.032.032,0,0,1,.009.024v.022a.179.179,0,0,1,.245-.013.156.156,0,0,1,.044.117.173.173,0,0,1-.02.085.137.137,0,0,1-.057.056.184.184,0,0,1-.087.019.178.178,0,0,1-.069-.013.161.161,0,0,1-.055-.041v.2a.032.032,0,0,1-.01.024.036.036,0,0,1-.026.009A.035.035,0,0,1,473.136,1325.119Zm.25-.256a.1.1,0,0,0,.028-.077.1.1,0,0,0-.028-.075.107.107,0,0,0-.078-.027.119.119,0,0,0-.083.027.11.11,0,0,0,0,.151.116.116,0,0,0,.082.028.106.106,0,0,0,.079-.028Z" transform="translate(-469.662 -1321.517)" fill="#04043f"/>
        <path id="Path_44789" data-name="Path 44789" d="M496.4,1325.117a.032.032,0,0,1-.009-.024v-.434a.032.032,0,0,1,.009-.024.034.034,0,0,1,.025-.009.036.036,0,0,1,.026.009.032.032,0,0,1,.009.024v.022a.172.172,0,0,1,.057-.042.175.175,0,0,1,.071-.013.162.162,0,0,1,.118.042.155.155,0,0,1,.044.117.174.174,0,0,1-.02.085.138.138,0,0,1-.057.056.184.184,0,0,1-.087.019.179.179,0,0,1-.069-.013.165.165,0,0,1-.056-.041v.2a.032.032,0,0,1-.01.024.037.037,0,0,1-.026.009A.035.035,0,0,1,496.4,1325.117Zm.25-.256a.1.1,0,0,0,.028-.077.1.1,0,0,0-.028-.076.108.108,0,0,0-.078-.027.12.12,0,0,0-.083.027.11.11,0,0,0,0,.151.116.116,0,0,0,.082.028.1.1,0,0,0,.079-.027Z" transform="translate(-492.506 -1321.516)" fill="#04043f"/>
        <path id="Path_44790" data-name="Path 44790" d="M519.664,1317.38a.041.041,0,0,1,0-.06.047.047,0,0,1,.033-.012.048.048,0,0,1,.033.012.04.04,0,0,1,0,.06.052.052,0,0,1-.066,0Zm.008.37a.032.032,0,0,1-.009-.024v-.253a.032.032,0,0,1,.009-.024.035.035,0,0,1,.025-.009.037.037,0,0,1,.026.009.031.031,0,0,1,.01.024v.253a.031.031,0,0,1-.01.024.036.036,0,0,1-.026.009.035.035,0,0,1-.025-.009Z" transform="translate(-515.354 -1314.33)" fill="#04043f"/>
        <path id="Path_44791" data-name="Path 44791" d="M528.556,1324.929a.031.031,0,0,1-.009-.024v-.253a.032.032,0,0,1,.009-.024.033.033,0,0,1,.025-.009.035.035,0,0,1,.025.009.032.032,0,0,1,.009.024v.025a.15.15,0,0,1,.124-.058.122.122,0,0,1,.093.036.141.141,0,0,1,.034.1v.15a.031.031,0,0,1-.01.024.036.036,0,0,1-.026.009.034.034,0,0,1-.025-.008.032.032,0,0,1-.009-.024v-.15a.086.086,0,0,0-.019-.059.068.068,0,0,0-.054-.021.1.1,0,0,0-.079.03.111.111,0,0,0-.029.081v.12a.032.032,0,0,1-.01.024.041.041,0,0,1-.051,0Z" transform="translate(-524.091 -1321.509)" fill="#04043f"/>
        <path id="Path_44792" data-name="Path 44792" d="M549.553,1325.147a.146.146,0,0,1-.062-.039.027.027,0,0,1-.008-.018.028.028,0,0,1,.013-.024.027.027,0,0,1,.018-.006.045.045,0,0,1,.03.015.1.1,0,0,0,.039.023.154.154,0,0,0,.052.009.11.11,0,0,0,.082-.029.112.112,0,0,0,.028-.083v-.036a.152.152,0,0,1-.125.054.163.163,0,0,1-.12-.042.156.156,0,0,1-.043-.116.159.159,0,0,1,.044-.118.168.168,0,0,1,.124-.044.159.159,0,0,1,.066.014.168.168,0,0,1,.055.041v-.022a.031.031,0,0,1,.01-.024.037.037,0,0,1,.025-.009.035.035,0,0,1,.025.009.031.031,0,0,1,.009.024v.27a.175.175,0,0,1-.021.087.147.147,0,0,1-.061.059.2.2,0,0,1-.093.021A.262.262,0,0,1,549.553,1325.147Zm.161-.219a.1.1,0,0,0,.031-.076.1.1,0,0,0-.029-.076.113.113,0,0,0-.082-.028.107.107,0,0,0-.079.027.1.1,0,0,0-.028.078.1.1,0,0,0,.027.075.107.107,0,0,0,.078.027.12.12,0,0,0,.081-.027Z" transform="translate(-544.627 -1321.581)" fill="#04043f"/>
        <path id="Path_44793" data-name="Path 44793" d="M654.461,1305.423a.2.2,0,0,1,.2.188v.009a.171.171,0,0,0-.091-.228.2.2,0,0,0-.252.082h0A.208.208,0,0,1,654.461,1305.423Z" transform="translate(-647.615 -1302.61)" fill="#ff002a" fill-rule="evenodd"/>
        <path id="Path_44794" data-name="Path 44794" d="M587.276,1311.469a.034.034,0,0,1,.036.036.632.632,0,0,1-.063.24.577.577,0,0,1-.031.057.57.57,0,0,1-.034.05l-.015.019-.01.012a.637.637,0,0,1-.058.061.746.746,0,0,1-.51.2.762.762,0,0,1-.231-.036l-.033-.011a.715.715,0,0,1-.3-.211l-.031-.039-.01-.014a.677.677,0,0,1-.064-.116.635.635,0,0,1-.049-.211.034.034,0,0,1,.01-.026.034.034,0,0,1,.026-.01h0a.035.035,0,0,1,.036.029c.028.215.353.387.6.409l.05,0a.627.627,0,0,0,.076-.005c.243-.03.548-.2.575-.406a.035.035,0,0,1,.036-.029Z" transform="translate(-580.388 -1308.594)" fill="#ff002a" fill-rule="evenodd"/>
        <path id="Path_44795" data-name="Path 44795" d="M578.3,1305.421a.2.2,0,0,0-.2.188v.009a.171.171,0,0,1,.091-.227.2.2,0,0,1,.252.083h0A.209.209,0,0,0,578.3,1305.421Z" transform="translate(-572.742 -1302.608)" fill="#ff002a" fill-rule="evenodd"/>
        <path id="Path_44796" data-name="Path 44796" d="M520.721,1150.947v2.333a.17.17,0,0,1-.057.127l-.009.008-.014.01a.187.187,0,0,1-.295-.143.891.891,0,0,1-.524.171.9.9,0,1,1,0-1.8.89.89,0,0,1,.523.17v-.872A.188.188,0,0,1,520.721,1150.947Zm-.9,1.046a.558.558,0,1,0,.557.558A.558.558,0,0,0,519.822,1151.993Z" transform="translate(-514.636 -1150.76)" fill="#04043f" fill-rule="evenodd"/>
      </g>
      <g id="Group_16075" data-name="Group 16075" transform="translate(2.649 0)">
        <rect id="Rectangle_5057" data-name="Rectangle 5057" width="2.62" height="2.958" transform="translate(0 0.636)" fill="#ff002a"/>
        <path id="Path_44797" data-name="Path 44797" d="M129.568,1280.1a.192.192,0,0,1-.055-.146v-.584a.189.189,0,0,1,.054-.143.2.2,0,0,1,.148-.052h.2a.579.579,0,0,1,.27.059.418.418,0,0,1,.175.169.587.587,0,0,1,0,.521.408.408,0,0,1-.175.168.588.588,0,0,1-.271.058h-.187A.21.21,0,0,1,129.568,1280.1Zm.327-.072a.36.36,0,0,0,.268-.091.456.456,0,0,0,0-.544.36.36,0,0,0-.268-.093h-.158a.059.059,0,0,0-.047.02.078.078,0,0,0-.017.054v.583a.078.078,0,0,0,.017.054.059.059,0,0,0,.047.02Z" transform="translate(-129.138 -1276.898)" fill="#fff"/>
        <path id="Path_44798" data-name="Path 44798" d="M130.322,1217.28a.051.051,0,0,0-.051.051v.573a.286.286,0,0,1-.027.143.088.088,0,0,1-.082.04.091.091,0,0,1-.067-.027.227.227,0,0,1-.043-.155v-.573a.051.051,0,0,0-.051-.051h-.048a.05.05,0,0,0-.051.051v.573a.254.254,0,0,1-.031.138.1.1,0,0,1-.162,0,.293.293,0,0,1-.027-.143v-.573a.051.051,0,0,0-.051-.051h-.05a.051.051,0,0,0-.051.051v.573a.419.419,0,0,0,.068.252.224.224,0,0,0,.19.095.189.189,0,0,0,.118-.043.289.289,0,0,0,.07-.082.277.277,0,0,0,.07.083.192.192,0,0,0,.12.043.223.223,0,0,0,.19-.095.423.423,0,0,0,.067-.252v-.573a.051.051,0,0,0-.015-.036.051.051,0,0,0-.036-.015Z" transform="translate(-129.155 -1216.106)" fill="#fff"/>
        <path id="Path_44799" data-name="Path 44799" d="M129.715,1188.862a.225.225,0,0,1-.219-.231v-.011a.221.221,0,0,0,.1.279.2.2,0,0,0,.273-.1h0A.212.212,0,0,1,129.715,1188.862Z" transform="translate(-129.105 -1187.959)" fill="#fff" fill-rule="evenodd"/>
        <path id="Path_44800" data-name="Path 44800" d="M138.051,1152.466a.04.04,0,0,1-.039-.043.859.859,0,0,1,.068-.3.78.78,0,0,1,.034-.07c.012-.022.025-.043.039-.064l.014-.02.011-.016a.791.791,0,0,1,.063-.074.762.762,0,0,1,.554-.242.751.751,0,0,1,.25.043l.036.014a.784.784,0,0,1,.267.185.85.85,0,0,1,.063.074l.033.048.01.017a.851.851,0,0,1,.123.4.04.04,0,0,1-.039.043h0a.039.039,0,0,1-.038-.036c-.03-.263-.384-.475-.652-.5l-.055,0a.618.618,0,0,0-.082.006c-.264.038-.6.245-.625.5a.039.039,0,0,1-.038.036Z" transform="translate(-137.486 -1151.64)" fill="#fff" fill-rule="evenodd"/>
        <path id="Path_44801" data-name="Path 44801" d="M212.583,1188.862a.225.225,0,0,0,.219-.231v-.011a.221.221,0,0,1-.1.279.2.2,0,0,1-.273-.1h0A.212.212,0,0,0,212.583,1188.862Z" transform="translate(-210.573 -1187.959)" fill="#fff" fill-rule="evenodd"/>
        <path id="Path_44802" data-name="Path 44802" d="M189.843,1279.292a.215.215,0,0,0-.154-.052h-.395a.2.2,0,0,0-.148.052.189.189,0,0,0-.054.143v.584a.191.191,0,0,0,.055.146.215.215,0,0,0,.154.052h.4a.206.206,0,0,0,.148-.052.189.189,0,0,0,.054-.143v-.584A.2.2,0,0,0,189.843,1279.292Zm-.148.765H189.3a.052.052,0,0,1-.052-.053v-.554a.052.052,0,0,1,.052-.052h.391a.052.052,0,0,1,.052.052V1280a.052.052,0,0,1-.052.053Z" transform="translate(-187.653 -1276.958)" fill="#fff"/>
        <path id="Path_44803" data-name="Path 44803" d="M189.254,1217.49a.052.052,0,0,1,.052-.052h.391a.052.052,0,0,1,.052.052v.692a.055.055,0,0,0,.055.055h.041a.055.055,0,0,0,.055-.055v-.7a.189.189,0,0,0-.055-.146.216.216,0,0,0-.154-.052H189.3a.2.2,0,0,0-.148.052.189.189,0,0,0-.054.142v.709a.055.055,0,0,0,.055.055h.049a.055.055,0,0,0,.055-.055Z" transform="translate(-187.655 -1216.106)" fill="#fff"/>
      </g>
    </g>
  </g>
</svg>
