<svg xmlns="http://www.w3.org/2000/svg" width="20.014" height="24.027" viewBox="0 0 20.014 24.027">
  <g id="Group_15040" data-name="Group 15040" transform="translate(-1105 6920)">
    <path id="Path_45215" data-name="Path 45215" d="M93.593,336.009h-3.6l-2,2-2-2h-3.6a2.4,2.4,0,0,0-2.4,2.4v4.4H96v-4.4A2.4,2.4,0,0,0,93.593,336.009Z" transform="translate(1027.019 -7239.19)" fill="#fff"/>
    <path id="Path_45216" data-name="Path 45216" d="M66.587,26.021a2.4,2.4,0,0,0-1.791-4h-.4a1.2,1.2,0,0,0,0-2.4H64V14.589a6.526,6.526,0,0,0-6.1-6.581,6.407,6.407,0,0,0-6.709,6.09q-.008.155-.007.31v5.206h-.4a1.2,1.2,0,1,0,0,2.4h-.4a2.4,2.4,0,0,0-2.4,2.4c0,1.262.365,2.295,1.6,2.393v.81a1.6,1.6,0,0,0,1.6,1.6h2a2.4,2.4,0,1,0,0-4.805H64l1.2,1.2v.4h1.2" transform="translate(1057.417 -6927.6)" fill="#fff"/>
    <path id="Path_45217" data-name="Path 45217" d="M160.436,68.414a1.6,1.6,0,0,1-1.554-1.213l-.9-3.191-.822,2.888a2,2,0,0,1-1.941,1.516h-3.244v2.4a4.4,4.4,0,0,0,2.4,3.92h0v2.887l2,2,2-2V74.737h0a4.4,4.4,0,0,0,2.4-3.92v-2.4Z" transform="translate(958.623 -6980.805)" fill="#fff"/>
    <path id="Path_45218" data-name="Path 45218" d="M71.978,76.832a.4.4,0,0,0,.4.4H88.4a.4.4,0,0,0,.4-.4v-4.4a2.806,2.806,0,0,0-2.8-2.8h-3.2V67.372a4.805,4.805,0,0,0,2.4-4.155v-2h.4v-.8H84.441a1.2,1.2,0,0,1-1.168-.921l-.9-3.191a.4.4,0,0,0-.386-.292h0a.4.4,0,0,0-.385.291l-.825,2.9a1.6,1.6,0,0,1-1.553,1.213H75.181v.8h.4v2a4.805,4.805,0,0,0,2.4,4.155v2.652a.4.4,0,0,0,.117.283l2,2a.4.4,0,0,0,.566,0l1.885-1.885h3.438a2,2,0,0,1,2,2v4H72.779v-.4h-.8v.8Zm4.4-13.615v-2h2.843a2.4,2.4,0,0,0,2.328-1.807l.434-1.528L82.5,59.7a2,2,0,0,0,1.892,1.512v2.006a4,4,0,0,1-8.009,0Zm4,8.243-1.6-1.6V67.742a4.717,4.717,0,0,0,3.2,0v2.117Z" transform="translate(1034.618 -6973.205)" fill="#aab2b7"/>
    <path id="Path_45219" data-name="Path 45219" d="M75.982,332.814h-2a1.2,1.2,0,0,1-1.2-1.2h-.8a2,2,0,0,0,2,2h2a2.8,2.8,0,1,0,0-5.606h-1.2v.8h1.2a2,2,0,1,1,0,4Z" transform="translate(1034.618 -7231.591)" fill="#aab2b7"/>
    <path id="Path_45220" data-name="Path 45220" d="M58.181,14.161A1.595,1.595,0,0,0,56.9,11.613V6.989A6.891,6.891,0,0,0,50.416.008a6.807,6.807,0,0,0-7.128,6.471q-.008.164-.008.329v4.805a1.595,1.595,0,0,0-1.285,2.548,2.8,2.8,0,0,0,.885,5.461h2.4v-.8h-2.4a2,2,0,0,1,0-4h2.4v-.8h-2a.8.8,0,1,1,0-1.6h.4a.4.4,0,0,0,.4-.4V6.808A6.007,6.007,0,0,1,50.087.8q.146,0,.291.007a6.092,6.092,0,0,1,5.715,6.181v5.025a.4.4,0,0,0,.4.4h.4a.8.8,0,1,1,0,1.6h-2v.8h2.4a2,2,0,0,1,1.492,3.337l.6.534a2.8,2.8,0,0,0-1.2-4.525Z" transform="translate(1064.918 -6920)" fill="#aab2b7"/>
    <path id="Path_45221" data-name="Path 45221" d="M186.679,178.009a.7.7,0,1,0,.7.7A.7.7,0,0,0,186.679,178.009Zm-.1.7a.1.1,0,1,1,.2,0C186.779,178.82,186.579,178.82,186.579,178.71Z" transform="translate(926.325 -7089.099)" fill="#aab2b7"/>
    <path id="Path_45222" data-name="Path 45222" d="M266.679,179.411a.7.7,0,1,0-.7-.7A.7.7,0,0,0,266.679,179.411Zm0-.8a.1.1,0,0,1,.1.1c0,.11-.2.11-.2,0A.1.1,0,0,1,266.679,178.61Z" transform="translate(850.329 -7089.099)" fill="#aab2b7"/>
    <path id="Path_45223" data-name="Path 45223" d="M212.981,232.009h-.6a.9.9,0,1,1-1.8,0h-.6a1.5,1.5,0,1,0,3,0Z" transform="translate(903.526 -7140.396)" fill="#aab2b7"/>
  </g>
</svg>
