<?xml version="1.0" standalone="no"?>
<!DOCTYPE svg PUBLIC "-//W3C//DTD SVG 1.1//EN" "http://www.w3.org/Graphics/SVG/1.1/DTD/svg11.dtd" >
<svg xmlns="http://www.w3.org/2000/svg" xmlns:xlink="http://www.w3.org/1999/xlink" version="1.1">
<metadata>
Created by FontForge 20170731 at Fri Aug  6 10:15:40 2021
 By Aleksey,,,
Copyright 2015 The El Messiri Project Authors (https://github.com/Gue3bara/El-Messiri)
</metadata>
<defs>
<font id="ElMessiri-SemiBold" horiz-adv-x="0" >
  <font-face 
    font-family="El Messiri SemiBold"
    font-weight="600"
    font-stretch="normal"
    units-per-em="1000"
    panose-1="0 0 0 0 0 0 0 0 0 0"
    ascent="800"
    descent="-200"
    x-height="470"
    cap-height="660"
    bbox="-166.333 -498.684 1395 1000.78"
    underline-thickness="50"
    underline-position="-175"
    unicode-range="U+000D-FEFC"
  />
<missing-glyph horiz-adv-x="500" 
d="M50 0v700h398l2 -700h-400zM100 50h300v600h-300v-600z" />
    <glyph glyph-name="uniFEF5" unicode="&#xfedf;&#xfe82;" horiz-adv-x="667" arabic-form="isolated" 
d="M90 0q-17 0 -28.5 12.5t-11.5 33.5q0 20 11.5 32.5t29.5 12.5h321q26 0 43 15t25 38.5t8 46.5v322q0 34 -9 53.5t-21 29.5t-20 15q2 7 10 18.5t24 21t39 9.5q26 0 46 -13t32 -39t12 -64v-353q0 -55 -24.5 -98t-66.5 -68t-98 -25h-322zM212 91v281q0 34 -9 53.5
t-20.5 29.5t-20.5 15q2 7 10.5 18.5t24 21t39.5 9.5q25 0 45.5 -13t32.5 -39t12 -64v-312h-114zM297 570q-32 0 -57 11t-48 21.5t-48 10.5q-21 0 -29 -8t-19 -8q-8 0 -8.5 11.5t8.5 27t28 27t49 11.5q28 0 54 -9t50 -19t48 -10q17 0 26 5t14.5 9.5t12.5 4.5q7 -1 7.5 -13.5
t-8 -29t-28 -29.5t-52.5 -13z" />
    <glyph glyph-name="uniFEF6" unicode="&#xfee0;&#xfe82;" horiz-adv-x="722" arabic-form="final" 
d="M677 0q-55 0 -97.5 25t-67 68t-24.5 98h113q0 -23 8 -46.5t25 -38.5t43 -15h45v-91h-45zM90 0q-17 0 -28.5 12.5t-11.5 33.5q0 20 11.5 32.5t29.5 12.5h321q26 0 43 15t25 38.5t8 46.5v322q0 34 -9 53.5t-21 29.5t-20 15q2 7 10 18.5t24 21t39 9.5q26 0 46 -13t32 -39
t12 -64v-353q0 -55 -24.5 -98t-66.5 -68t-98 -25h-322zM212 91v281q0 34 -9 53.5t-20.5 29.5t-20.5 15q2 7 10.5 18.5t24 21t39.5 9.5q25 0 45.5 -13t32.5 -39t12 -64v-312h-114zM722 0v91q11 0 15.5 -12t4.5 -33t-4.5 -33.5t-15.5 -12.5zM297 570q-32 0 -57 11t-48 21.5
t-48 10.5q-21 0 -29 -8t-19 -8q-8 0 -8.5 11.5t8.5 27t28 27t49 11.5q28 0 54 -9t50 -19t48 -10q17 0 26 5t14.5 9.5t12.5 4.5q7 -1 7.5 -13.5t-8 -29t-28 -29.5t-52.5 -13z" />
    <glyph glyph-name="uniFEF7" unicode="&#xfedf;&#xfe84;" horiz-adv-x="667" arabic-form="isolated" 
d="M90 0q-17 0 -28.5 12.5t-11.5 33.5q0 20 11.5 32.5t29.5 12.5h321q26 0 43 15t25 38.5t8 46.5v322q0 34 -9 53.5t-21 29.5t-20 15q2 7 10 18.5t24 21t39 9.5q26 0 46 -13t32 -39t12 -64v-353q0 -55 -24.5 -98t-66.5 -68t-98 -25h-322zM212 91v281q0 34 -9 53.5
t-20.5 29.5t-20.5 15q2 7 10.5 18.5t24 21t39.5 9.5q25 0 45.5 -13t32.5 -39t12 -64v-312h-114zM152 564q-11 7 -15 18t-1 21t14.5 16.5t31.5 4.5q-12 8 -25 28t-13 46q0 23 11.5 45.5t35.5 36.5t60 14q24 0 38.5 -6.5t20.5 -16.5t6 -24q0 -18 -9 -25.5t-20.5 -7t-21.5 4.5
q1 15 -8 27t-24 13q-7 -5 -15.5 -18.5t-8.5 -33.5q0 -23 10.5 -38t27.5 -22.5t35 -7.5q12 0 21.5 2t15.5 3q15 0 19.5 -12t0.5 -23.5t-13 -12.5q-12 -1 -33 -2.5t-44.5 -4t-45.5 -6t-36.5 -8.5t-14.5 -11z" />
    <glyph glyph-name="uniFEF8" unicode="&#xfee0;&#xfe84;" horiz-adv-x="722" arabic-form="final" 
d="M677 0q-55 0 -97.5 25t-67 68t-24.5 98h113q0 -23 8 -46.5t25 -38.5t43 -15h45v-91h-45zM90 0q-17 0 -28.5 12.5t-11.5 33.5q0 20 11.5 32.5t29.5 12.5h321q26 0 43 15t25 38.5t8 46.5v322q0 34 -9 53.5t-21 29.5t-20 15q2 7 10 18.5t24 21t39 9.5q26 0 46 -13t32 -39
t12 -64v-353q0 -55 -24.5 -98t-66.5 -68t-98 -25h-322zM212 91v281q0 34 -9 53.5t-20.5 29.5t-20.5 15q2 7 10.5 18.5t24 21t39.5 9.5q25 0 45.5 -13t32.5 -39t12 -64v-312h-114zM722 0v91q11 0 15.5 -12t4.5 -33t-4.5 -33.5t-15.5 -12.5zM152 564q-11 7 -15 18t-1 21
t14.5 16.5t31.5 4.5q-12 8 -25 28t-13 46q0 23 11.5 45.5t35.5 36.5t60 14q24 0 38.5 -6.5t20.5 -16.5t6 -24q0 -18 -9 -25.5t-20.5 -7t-21.5 4.5q1 15 -8 27t-24 13q-7 -5 -15.5 -18.5t-8.5 -33.5q0 -23 10.5 -38t27.5 -22.5t35 -7.5q12 0 21.5 2t15.5 3q15 0 19.5 -12
t0.5 -23.5t-13 -12.5q-12 -1 -33 -2.5t-44.5 -4t-45.5 -6t-36.5 -8.5t-14.5 -11z" />
    <glyph glyph-name="uniFEF9" unicode="&#xfedf;&#xfe88;" horiz-adv-x="667" arabic-form="isolated" 
d="M90 0q-17 0 -28.5 12.5t-11.5 33.5q0 20 11.5 32.5t29.5 12.5h321q26 0 43 15t25 38.5t8 46.5v322q0 34 -9 53.5t-21 29.5t-20 15q2 7 10 18.5t24 21t39 9.5q26 0 46 -13t32 -39t12 -64v-353q0 -55 -24.5 -98t-66.5 -68t-98 -25h-322zM212 91v281q0 34 -9 53.5
t-20.5 29.5t-20.5 15q2 7 10.5 18.5t24 21t39.5 9.5q25 0 45.5 -13t32.5 -39t12 -64v-312h-114zM164 -291q-11 6 -15 17t-0.5 21.5t14.5 16.5t31 5q-11 8 -24 27.5t-13 45.5q0 23 11.5 45.5t35.5 36.5t61 14q23 0 37.5 -6t21 -16.5t6.5 -23.5q0 -18 -9.5 -25.5t-21 -7.5
t-21.5 5q1 15 -7.5 27t-24.5 13q-8 -5 -16 -18.5t-8 -34.5q0 -22 10.5 -37t27.5 -23t35 -8q12 0 21.5 2.5t15.5 2.5q15 0 19.5 -11.5t0.5 -23.5t-13 -12q-12 -1 -33 -3t-44.5 -4.5t-45.5 -6t-36.5 -8t-15.5 -10.5z" />
    <glyph glyph-name="uniFEFA" unicode="&#xfee0;&#xfe88;" horiz-adv-x="722" arabic-form="final" 
d="M677 0q-55 0 -97.5 25t-67 68t-24.5 98h113q0 -23 8 -46.5t25 -38.5t43 -15h45v-91h-45zM90 0q-17 0 -28.5 12.5t-11.5 33.5q0 20 11.5 32.5t29.5 12.5h321q26 0 43 15t25 38.5t8 46.5v322q0 34 -9 53.5t-21 29.5t-20 15q2 7 10 18.5t24 21t39 9.5q26 0 46 -13t32 -39
t12 -64v-353q0 -55 -24.5 -98t-66.5 -68t-98 -25h-322zM212 91v281q0 34 -9 53.5t-20.5 29.5t-20.5 15q2 7 10.5 18.5t24 21t39.5 9.5q25 0 45.5 -13t32.5 -39t12 -64v-312h-114zM722 0v91q11 0 15.5 -12t4.5 -33t-4.5 -33.5t-15.5 -12.5zM164 -291q-11 6 -15 17t-0.5 21.5
t14.5 16.5t31 5q-11 8 -24 27.5t-13 45.5q0 23 11.5 45.5t35.5 36.5t61 14q23 0 37.5 -6t21 -16.5t6.5 -23.5q0 -18 -9.5 -25.5t-21 -7.5t-21.5 5q1 15 -7.5 27t-24.5 13q-8 -5 -16 -18.5t-8 -34.5q0 -22 10.5 -37t27.5 -23t35 -8q12 0 21.5 2.5t15.5 2.5q15 0 19.5 -11.5
t0.5 -23.5t-13 -12q-12 -1 -33 -3t-44.5 -4.5t-45.5 -6t-36.5 -8t-15.5 -10.5z" />
    <glyph glyph-name="uniFEFB" unicode="&#xfedf;&#xfe8e;" horiz-adv-x="667" arabic-form="isolated" 
d="M90 0q-17 0 -28.5 12.5t-11.5 33.5q0 20 11.5 32.5t29.5 12.5h321q26 0 43 15t25 38.5t8 46.5v322q0 34 -9 53.5t-21 29.5t-20 15q2 7 10 18.5t24 21t39 9.5q26 0 46 -13t32 -39t12 -64v-353q0 -55 -24.5 -98t-66.5 -68t-98 -25h-322zM212 91v281q0 34 -9 53.5
t-20.5 29.5t-20.5 15q2 7 10.5 18.5t24 21t39.5 9.5q25 0 45.5 -13t32.5 -39t12 -64v-312h-114z" />
    <glyph glyph-name="uniFEFC" unicode="&#xfee0;&#xfe8e;" horiz-adv-x="722" arabic-form="final" 
d="M677 0q-55 0 -97.5 25t-67 68t-24.5 98h113q0 -23 8 -46.5t25 -38.5t43 -15h45v-91h-45zM90 0q-17 0 -28.5 12.5t-11.5 33.5q0 20 11.5 32.5t29.5 12.5h321q26 0 43 15t25 38.5t8 46.5v322q0 34 -9 53.5t-21 29.5t-20 15q2 7 10 18.5t24 21t39 9.5q26 0 46 -13t32 -39
t12 -64v-353q0 -55 -24.5 -98t-66.5 -68t-98 -25h-322zM212 91v281q0 34 -9 53.5t-20.5 29.5t-20.5 15q2 7 10.5 18.5t24 21t39.5 9.5q25 0 45.5 -13t32.5 -39t12 -64v-312h-114zM722 0v91q11 0 15.5 -12t4.5 -33t-4.5 -33.5t-15.5 -12.5z" />
    <glyph glyph-name="lam_alefWaslaar" unicode="&#xfedf;&#xfb51;" horiz-adv-x="667" 
d="M90 0q-17 0 -28.5 12.5t-11.5 33.5q0 20 11.5 32.5t29.5 12.5h321q26 0 43 15t25 38.5t8 46.5v322q0 34 -9 53.5t-21 29.5t-20 15q2 7 10 18.5t24 21t39 9.5q26 0 46 -13t32 -39t12 -64v-353q0 -55 -24.5 -98t-66.5 -68t-98 -25h-322zM212 91v281q0 34 -9 53.5
t-20.5 29.5t-20.5 15q2 7 10.5 18.5t24 21t39.5 9.5q25 0 45.5 -13t32.5 -39t12 -64v-312h-114zM136 569q-6 0 -8 11t0 21.5t8 10.5h23q0 3 6 18t18.5 33t33.5 31.5t51 13.5q21 0 39 -8t28.5 -24.5t10.5 -43.5q0 -33 -17 -48t-39 -15h-154zM181 612h91q12 0 16.5 8.5
t4.5 18.5q0 15 -9.5 25t-28.5 10q-20 0 -37 -11t-27 -25.5t-10 -25.5z" />
    <glyph glyph-name="lam_alefWaslaar.fina" unicode="&#xfee0;&#xfb51;" horiz-adv-x="722" 
d="M677 0q-55 0 -97.5 25t-67 68t-24.5 98h113q0 -23 8 -46.5t25 -38.5t43 -15h45v-91h-45zM90 0q-17 0 -28.5 12.5t-11.5 33.5q0 20 11.5 32.5t29.5 12.5h321q26 0 43 15t25 38.5t8 46.5v322q0 34 -9 53.5t-21 29.5t-20 15q2 7 10 18.5t24 21t39 9.5q26 0 46 -13t32 -39
t12 -64v-353q0 -55 -24.5 -98t-66.5 -68t-98 -25h-322zM212 91v281q0 34 -9 53.5t-20.5 29.5t-20.5 15q2 7 10.5 18.5t24 21t39.5 9.5q25 0 45.5 -13t32.5 -39t12 -64v-312h-114zM722 0v91q11 0 15.5 -12t4.5 -33t-4.5 -33.5t-15.5 -12.5zM136 569q-6 0 -8 11t0 21.5t8 10.5
h23q0 3 6 18t18.5 33t33.5 31.5t51 13.5q21 0 39 -8t28.5 -24.5t10.5 -43.5q0 -33 -17 -48t-39 -15h-154zM181 612h91q12 0 16.5 8.5t4.5 18.5q0 15 -9.5 25t-28.5 10q-20 0 -37 -11t-27 -25.5t-10 -25.5z" />
    <glyph glyph-name="uni066E.init" unicode="&#x66e;" horiz-adv-x="346" 
d="M0 0v91h82q19 0 33.5 10t24.5 26t16.5 37t9 44.5t2.5 46.5q0 40 -7.5 72t-23.5 59t-44 50q2 8 10 18.5t22.5 18t34.5 7.5q32 0 55.5 -20t37.5 -53t21 -73t7 -81q0 -118 -52.5 -185.5t-146.5 -67.5h-82zM0 0q-11 0 -15.5 12.5t-4.5 33.5t4.5 33t15.5 12v-91z" />
    <glyph glyph-name="uni066E.medi" unicode="&#x66e;" horiz-adv-x="350" 
d="M0 0v91h40q27 0 43.5 15t24.5 38.5t8 46.5v232q0 24 13.5 40.5t43.5 16.5q29 0 42.5 -16.5t13.5 -40.5v-232q0 -55 -24.5 -98t-66.5 -68t-98 -25h-40zM305 0q-55 0 -97.5 25t-67 68t-24.5 98h113q0 -23 8 -46.5t25.5 -38.5t42.5 -15h45v-91h-45zM350 0v91q11 0 15.5 -12
t4.5 -33t-4.5 -33.5t-15.5 -12.5zM0 0q-11 0 -15.5 12.5t-4.5 33.5t4.5 33t15.5 12v-91z" />
    <glyph glyph-name="uni066E.fina" unicode="&#x66e;" horiz-adv-x="833" 
d="M804 0q-54 0 -97 25t-67.5 68t-24.5 98h114q0 -23 8 -46.5t25 -38.5t42 -15h29v-91h-29zM264 0q-94 0 -146.5 67.5t-52.5 185.5q0 41 7 81t21 73t37.5 53t55.5 20q21 0 35 -7.5t22.5 -18t10.5 -18.5q-28 -23 -44.5 -50t-23.5 -59t-7 -72q0 -23 2.5 -46.5t8.5 -44.5
t16 -37t24.5 -26t33.5 -10h276q26 0 42.5 15t24.5 38.5t8 46.5v181q0 25 13.5 42t43.5 17q29 0 43 -17t14 -42v-181q0 -55 -24.5 -98t-67 -68t-97.5 -25h-276zM833 0v91q11 0 15.5 -12t4.5 -33t-4.5 -33.5t-15.5 -12.5z" />
    <glyph glyph-name="uni066F.init" unicode="&#x66f;" horiz-adv-x="539" 
d="M0 0v91h277q39 0 61 25.5t22 71.5v181q-4 9 -19.5 14.5t-42.5 5.5q-58 0 -87.5 -36t-29.5 -112q0 -72 29 -109.5t84 -40.5l-19 -90q-58 6 -104.5 33.5t-75 79t-28.5 127.5q0 113 63 176t168 63q78 0 127 -31.5t49 -79.5v-181q0 -54 -25.5 -96.5t-69.5 -67t-102 -24.5
h-277zM0 0q-11 0 -15.5 12.5t-4.5 33.5t4.5 33t15.5 12v-91z" />
    <glyph glyph-name="uni066F.medi" unicode="&#x66f;" horiz-adv-x="594" 
d="M549 0q-54 0 -97 25t-67.5 68t-24.5 98h114q0 -23 8 -46.5t25 -38.5t42 -15h45v-91h-45zM0 0v91h277q39 0 61 25.5t22 71.5v181q-4 9 -19.5 14.5t-42.5 5.5q-58 0 -87.5 -36t-29.5 -112q0 -72 29 -109.5t84 -40.5l-19 -90q-58 6 -104.5 33.5t-75 79t-28.5 127.5
q0 113 63 176t168 63q78 0 127 -31.5t49 -79.5v-181q0 -54 -25.5 -96.5t-69.5 -67t-102 -24.5h-277zM0 0q-11 0 -15.5 12.5t-4.5 33.5t4.5 33t15.5 12v-91zM594 0v91q11 0 15.5 -12t4.5 -33t-4.5 -33.5t-15.5 -12.5z" />
    <glyph glyph-name="uni066F.fina" unicode="&#x66f;" horiz-adv-x="940" 
d="M802 0v91h138v-91h-138zM468 -236q-87 0 -156 20.5t-117 57.5t-73.5 88t-25.5 112q0 30 7 64.5t21 66t37.5 51.5t56.5 20q20 0 34.5 -8t22.5 -18t10 -19q-24 -19 -41 -43t-25.5 -51.5t-8.5 -59.5q0 -63 30 -105.5t86 -63.5t132 -21q69 0 115 15t72.5 40.5t38 56.5
t11.5 62l24 -29h-101q-57 0 -104 28.5t-75 82.5t-28 130q0 113 63 176t168 63q78 0 127 -31.5t49 -79.5v-298q0 -80 -25.5 -138.5t-72 -96t-110.5 -55t-142 -17.5zM704 78v291q-4 9 -20 14.5t-39 5.5q-60 0 -90 -35.5t-30 -111.5q0 -73 29 -112t84 -39h74zM940 0v91
q12 0 16 -12t4 -33t-4 -33.5t-16 -12.5z" />
    <glyph glyph-name="uni06A1.init" unicode="&#x6a1;" horiz-adv-x="539" 
d="M0 0v91h277q39 0 61 25.5t22 71.5v181q-4 9 -19.5 14.5t-42.5 5.5q-58 0 -87.5 -36t-29.5 -112q0 -72 29 -109.5t84 -40.5l-19 -90q-58 6 -104.5 33.5t-75 79t-28.5 127.5q0 113 63 176t168 63q78 0 127 -31.5t49 -79.5v-181q0 -54 -25.5 -96.5t-69.5 -67t-102 -24.5
h-277zM0 0q-11 0 -15.5 12.5t-4.5 33.5t4.5 33t15.5 12v-91z" />
    <glyph glyph-name="uni06A1.medi" unicode="&#x6a1;" horiz-adv-x="594" 
d="M549 0q-54 0 -97 25t-67.5 68t-24.5 98h114q0 -23 8 -46.5t25 -38.5t42 -15h45v-91h-45zM0 0v91h277q39 0 61 25.5t22 71.5v181q-4 9 -19.5 14.5t-42.5 5.5q-58 0 -87.5 -36t-29.5 -112q0 -72 29 -109.5t84 -40.5l-19 -90q-58 6 -104.5 33.5t-75 79t-28.5 127.5
q0 113 63 176t168 63q78 0 127 -31.5t49 -79.5v-181q0 -54 -25.5 -96.5t-69.5 -67t-102 -24.5h-277zM0 0q-11 0 -15.5 12.5t-4.5 33.5t4.5 33t15.5 12v-91zM594 0v91q11 0 15.5 -12t4.5 -33t-4.5 -33.5t-15.5 -12.5z" />
    <glyph glyph-name="uni06A1.fina" unicode="&#x6a1;" horiz-adv-x="1029" 
d="M985 0q-55 0 -98 25t-67 68t-24 98h113q0 -23 8 -46.5t25 -38.5t43 -15h44v-91h-44zM264 0q-67 0 -111 26.5t-66 74.5t-22 112q0 59 16 98.5t42.5 58.5t56.5 19q28 0 44 -13t21 -28q-14 -9 -29.5 -28.5t-26 -50.5t-10.5 -73q0 -34 9 -55t23 -31.5t30 -14.5t32 -4h439
q39 0 61.5 25.5t22.5 71.5v181q-5 9 -20.5 14.5t-41.5 5.5q-58 0 -88 -36t-30 -112q0 -72 29.5 -109.5t84.5 -40.5l-20 -90q-57 6 -104 33.5t-75 79t-28 127.5q0 113 62.5 176t168.5 63q77 0 126 -31.5t49 -79.5v-181q0 -54 -25 -96.5t-69.5 -67t-102.5 -24.5h-448zM1029 0
v91q12 0 16 -12t4 -33t-4 -33.5t-16 -12.5z" />
    <glyph glyph-name="uni06BA.init" unicode="&#x6ba;" horiz-adv-x="346" 
d="M0 0v91h82q19 0 33.5 10t24.5 26t16.5 37t9 44.5t2.5 46.5q0 40 -7.5 72t-23.5 59t-44 50q2 8 10 18.5t22.5 18t34.5 7.5q32 0 55.5 -20t37.5 -53t21 -73t7 -81q0 -118 -52.5 -185.5t-146.5 -67.5h-82zM0 0q-11 0 -15.5 12.5t-4.5 33.5t4.5 33t15.5 12v-91z" />
    <glyph glyph-name="uni06BA.medi" unicode="&#x6ba;" horiz-adv-x="350" 
d="M0 0v91h40q27 0 43.5 15t24.5 38.5t8 46.5v232q0 24 13.5 40.5t43.5 16.5q29 0 42.5 -16.5t13.5 -40.5v-232q0 -55 -24.5 -98t-66.5 -68t-98 -25h-40zM305 0q-55 0 -97.5 25t-67 68t-24.5 98h113q0 -23 8 -46.5t25.5 -38.5t42.5 -15h45v-91h-45zM350 0v91q11 0 15.5 -12
t4.5 -33t-4.5 -33.5t-15.5 -12.5zM0 0q-11 0 -15.5 12.5t-4.5 33.5t4.5 33t15.5 12v-91z" />
    <glyph glyph-name="uni06C2.init" unicode="&#x6c2;" horiz-adv-x="346" 
d="M0 0v91h82q19 0 33.5 10t24.5 26t16.5 37t9 44.5t2.5 46.5q0 40 -7.5 72t-23.5 59t-44 50q2 8 10 18.5t22.5 18t34.5 7.5q32 0 55.5 -20t37.5 -53t21 -73t7 -81q0 -118 -52.5 -185.5t-146.5 -67.5h-82zM0 0q-11 0 -15.5 12.5t-4.5 33.5t4.5 33t15.5 12v-91zM97 -202
q-32 0 -49 21.5t-17 53.5q0 60 27 105.5t86 82.5l15 -21q-20 -13 -38.5 -32t-30.5 -43t-12 -54l21 6q27 0 43 -16.5t16 -41.5q0 -27 -16.5 -44t-44.5 -17zM78 545q-11 7 -15 18t-1 21t14.5 16.5t31.5 4.5q-12 8 -25 28t-13 46q0 23 11.5 45.5t35.5 36.5t60 14
q24 0 38.5 -6.5t20.5 -16.5t6 -24q0 -18 -9 -25.5t-20.5 -7t-21.5 4.5q1 15 -8 27t-24 13q-7 -5 -15.5 -18.5t-8.5 -33.5q0 -23 10.5 -38t27.5 -22.5t35 -7.5q12 0 21.5 2t15.5 3q15 0 19.5 -12t0.5 -23.5t-13 -12.5q-12 -1 -33 -2.5t-44.5 -4t-45.5 -6t-36.5 -8.5
t-14.5 -11z" />
    <glyph glyph-name="uni06C2.medi" unicode="&#x6c2;" horiz-adv-x="486" 
d="M386 -248q-53 0 -104.5 8.5t-95.5 28.5t-76 53t-47.5 81.5t-8.5 114.5l43 -38h-97v91h107q17 0 26.5 -11t10.5 -26q1 -19 3 -49t11 -61t31.5 -56t65 -36.5t110.5 -1.5l-55 -49v253q0 16 11 26.5t25 10.5h140v-91h-108l45 45v-256q0 -16 -10.5 -26.5t-26.5 -10.5zM0 0
q-11 0 -15.5 12.5t-4.5 33.5t4.5 33t15.5 12v-91zM486 0v91q12 0 16 -12t4 -33t-4 -33.5t-16 -12.5zM153 352q-11 7 -15 18t-1 21t14.5 16.5t31.5 4.5q-12 8 -25 28t-13 46q0 23 11.5 45.5t35.5 36.5t60 14q24 0 38.5 -6.5t20.5 -16.5t6 -24q0 -18 -9 -25.5t-20.5 -7
t-21.5 4.5q1 15 -8 27t-24 13q-7 -5 -15.5 -18.5t-8.5 -33.5q0 -23 10.5 -38t27.5 -22.5t35 -7.5q12 0 21.5 2t15.5 3q15 0 19.5 -12t0.5 -23.5t-13 -12.5q-12 -1 -33 -2.5t-44.5 -4t-45.5 -6t-36.5 -8.5t-14.5 -11z" />
    <glyph glyph-name="uni06C2.fina" unicode="&#x6c2;" horiz-adv-x="525" 
d="M269 0q-58 0 -105.5 28.5t-74.5 82.5t-27 130q0 113 62.5 176t168.5 63q78 0 126.5 -31.5t48.5 -79.5v-369h-113v369q-4 9 -20 14.5t-42 5.5q-58 0 -87.5 -36t-29.5 -112q0 -72 29 -111t84 -39h236v-91h-256zM525 0v91q12 0 16 -12t4 -33t-4 -33.5t-16 -12.5zM183 539
q-11 7 -15 18t-1 21t14.5 16.5t31.5 4.5q-12 8 -25 28t-13 46q0 23 11.5 45.5t35.5 36.5t60 14q24 0 38.5 -6.5t20.5 -16.5t6 -24q0 -18 -9 -25.5t-20.5 -7t-21.5 4.5q1 15 -8 27t-24 13q-7 -5 -15.5 -18.5t-8.5 -33.5q0 -23 10.5 -38t27.5 -22.5t35 -7.5q12 0 21.5 2
t15.5 3q15 0 19.5 -12t0.5 -23.5t-13 -12.5q-12 -1 -33 -2.5t-44.5 -4t-45.5 -6t-36.5 -8.5t-14.5 -11z" />
    <glyph glyph-name="uni06C3.fina" unicode="&#x6c3;" horiz-adv-x="664" 
d="M65 0q0 101 31 191t91 160t146.5 110t198.5 40q11 0 19 -8.5t8 -20.5v-381h104v-91h-218v472l87 -62q-81 0 -146 -30.5t-111.5 -85.5t-71 -130t-24.5 -164h-114zM663 0v91q11 0 15.5 -12t4.5 -33t-4.5 -33.5t-15.5 -12.5zM458 548q-25 0 -43.5 18t-18.5 43
q0 26 18.5 44.5t43.5 18.5q26 0 43.5 -18.5t17.5 -44.5q0 -25 -17.5 -43t-43.5 -18zM302 548q-24 0 -42.5 18t-18.5 43q0 26 18 44.5t43 18.5q26 0 44 -18.5t18 -44.5q0 -25 -18 -43t-44 -18z" />
    <glyph glyph-name="uniFB51" unicode="&#x671;" horiz-adv-x="317" arabic-form="final" 
d="M289 0q-55 0 -97.5 25t-67 68t-24.5 98v260q0 34 -9 53.5t-21 29.5t-20 15q2 7 10 19t24 21t40 9q25 0 45 -13t32 -38.5t12 -64.5v-291q0 -23 8 -46.5t25 -38.5t43 -15h28v-91h-28zM317 0v91q12 0 16 -12t4 -33t-4 -33.5t-16 -12.5zM23 639q-6 0 -8 11t0 21.5t8 10.5h23
q0 3 6 18t18.5 33t33.5 31.5t51 13.5q21 0 39 -8t28.5 -24.5t10.5 -43.5q0 -33 -17 -48t-39 -15h-154zM68 682h91q12 0 16.5 8.5t4.5 18.5q0 15 -9.5 25t-28.5 10q-20 0 -37 -11t-27 -25.5t-10 -25.5z" />
    <glyph glyph-name="uniFB57" unicode="&#x67e;" horiz-adv-x="833" arabic-form="final" 
d="M804 0q-54 0 -97 25t-67.5 68t-24.5 98h114q0 -23 8 -46.5t25 -38.5t42 -15h29v-91h-29zM264 0q-94 0 -146.5 67.5t-52.5 185.5q0 41 7 81t21 73t37.5 53t55.5 20q21 0 35 -7.5t22.5 -18t10.5 -18.5q-28 -23 -44.5 -50t-23.5 -59t-7 -72q0 -23 2.5 -46.5t8.5 -44.5
t16 -37t24.5 -26t33.5 -10h276q26 0 42.5 15t24.5 38.5t8 46.5v181q0 25 13.5 42t43.5 17q29 0 43 -17t14 -42v-181q0 -55 -24.5 -98t-67 -68t-97.5 -25h-276zM833 0v91q11 0 15.5 -12t4.5 -33t-4.5 -33.5t-15.5 -12.5zM475 -204q-25 0 -43.5 18.5t-18.5 43.5q0 26 18.5 44
t43.5 18q26 0 43.5 -18t17.5 -44q0 -25 -17.5 -43.5t-43.5 -18.5zM397 -335q-24 0 -40.5 16.5t-16.5 40.5t16.5 41t40.5 17t40.5 -17t16.5 -41t-16.5 -40.5t-40.5 -16.5zM319 -204q-24 0 -42.5 18.5t-18.5 43.5q0 26 18 44t43 18q26 0 44 -18t18 -44q0 -25 -18 -43.5
t-44 -18.5z" />
    <glyph glyph-name="uniFB58" unicode="&#x67e;" horiz-adv-x="346" arabic-form="initial" 
d="M0 0v91h82q19 0 33.5 10t24.5 26t16.5 37t9 44.5t2.5 46.5q0 40 -7.5 72t-23.5 59t-44 50q2 8 10 18.5t22.5 18t34.5 7.5q32 0 55.5 -20t37.5 -53t21 -73t7 -81q0 -118 -52.5 -185.5t-146.5 -67.5h-82zM0 0q-11 0 -15.5 12.5t-4.5 33.5t4.5 33t15.5 12v-91zM239 -204
q-25 0 -43.5 18.5t-18.5 43.5q0 26 18.5 44t43.5 18q26 0 43.5 -18t17.5 -44q0 -25 -17.5 -43.5t-43.5 -18.5zM161 -335q-24 0 -40.5 16.5t-16.5 40.5t16.5 41t40.5 17t40.5 -17t16.5 -41t-16.5 -40.5t-40.5 -16.5zM83 -204q-24 0 -42.5 18.5t-18.5 43.5q0 26 18 44t43 18
q26 0 44 -18t18 -44q0 -25 -18 -43.5t-44 -18.5z" />
    <glyph glyph-name="uniFB59" unicode="&#x67e;" horiz-adv-x="350" arabic-form="medial" 
d="M0 0v91h40q27 0 43.5 15t24.5 38.5t8 46.5v232q0 24 13.5 40.5t43.5 16.5q29 0 42.5 -16.5t13.5 -40.5v-232q0 -55 -24.5 -98t-66.5 -68t-98 -25h-40zM305 0q-55 0 -97.5 25t-67 68t-24.5 98h113q0 -23 8 -46.5t25.5 -38.5t42.5 -15h45v-91h-45zM350 0v91q11 0 15.5 -12
t4.5 -33t-4.5 -33.5t-15.5 -12.5zM0 0q-11 0 -15.5 12.5t-4.5 33.5t4.5 33t15.5 12v-91zM251 -204q-25 0 -43.5 18.5t-18.5 43.5q0 26 18.5 44t43.5 18q26 0 43.5 -18t17.5 -44q0 -25 -17.5 -43.5t-43.5 -18.5zM173 -335q-24 0 -40.5 16.5t-16.5 40.5t16.5 41t40.5 17
t40.5 -17t16.5 -41t-16.5 -40.5t-40.5 -16.5zM95 -204q-24 0 -42.5 18.5t-18.5 43.5q0 26 18 44t43 18q26 0 44 -18t18 -44q0 -25 -18 -43.5t-44 -18.5z" />
    <glyph glyph-name="uniFB67" unicode="&#x679;" horiz-adv-x="833" arabic-form="final" 
d="M804 0q-54 0 -97 25t-67.5 68t-24.5 98h114q0 -23 8 -46.5t25 -38.5t42 -15h29v-91h-29zM264 0q-94 0 -146.5 67.5t-52.5 185.5q0 41 7 81t21 73t37.5 53t55.5 20q21 0 35 -7.5t22.5 -18t10.5 -18.5q-28 -23 -44.5 -50t-23.5 -59t-7 -72q0 -23 2.5 -46.5t8.5 -44.5
t16 -37t24.5 -26t33.5 -10h276q26 0 42.5 15t24.5 38.5t8 46.5v181q0 25 13.5 42t43.5 17q29 0 43 -17t14 -42v-181q0 -55 -24.5 -98t-67 -68t-97.5 -25h-276zM833 0v91q11 0 15.5 -12t4.5 -33t-4.5 -33.5t-15.5 -12.5zM295 500q-5 0 -7 10.5t0 21t7 10.5h13v127q0 11 -5 17
t-7 7q-1 5 4 9t15 4q13 0 19 -8.5t6 -23.5v-86q12 19 33 35t55 16q21 0 38.5 -8.5t28.5 -25t11 -42.5q0 -33 -17 -48t-39 -15h-155zM340 542h92q12 0 16.5 9t4.5 19q0 14 -9.5 24t-28.5 10q-21 0 -38 -10.5t-27 -25t-10 -26.5z" />
    <glyph glyph-name="uniFB68" unicode="&#x679;" horiz-adv-x="346" arabic-form="initial" 
d="M0 0v91h82q19 0 33.5 10t24.5 26t16.5 37t9 44.5t2.5 46.5q0 40 -7.5 72t-23.5 59t-44 50q2 8 10 18.5t22.5 18t34.5 7.5q32 0 55.5 -20t37.5 -53t21 -73t7 -81q0 -118 -52.5 -185.5t-146.5 -67.5h-82zM0 0q-11 0 -15.5 12.5t-4.5 33.5t4.5 33t15.5 12v-91zM59 545
q-5 0 -7 10.5t0 21t7 10.5h13v127q0 11 -5 17t-7 7q-1 5 4 9t15 4q13 0 19 -8.5t6 -23.5v-86q12 19 33 35t55 16q21 0 38.5 -8.5t28.5 -25t11 -42.5q0 -33 -17 -48t-39 -15h-155zM104 587h92q12 0 16.5 9t4.5 19q0 14 -9.5 24t-28.5 10q-21 0 -38 -10.5t-27 -25t-10 -26.5z
" />
    <glyph glyph-name="uniFB69" unicode="&#x679;" horiz-adv-x="350" arabic-form="medial" 
d="M0 0v91h40q27 0 43.5 15t24.5 38.5t8 46.5v232q0 24 13.5 40.5t43.5 16.5q29 0 42.5 -16.5t13.5 -40.5v-232q0 -55 -24.5 -98t-66.5 -68t-98 -25h-40zM305 0q-55 0 -97.5 25t-67 68t-24.5 98h113q0 -23 8 -46.5t25.5 -38.5t42.5 -15h45v-91h-45zM350 0v91q11 0 15.5 -12
t4.5 -33t-4.5 -33.5t-15.5 -12.5zM0 0q-11 0 -15.5 12.5t-4.5 33.5t4.5 33t15.5 12v-91zM71 545q-5 0 -7 10.5t0 21t7 10.5h13v127q0 11 -5 17t-7 7q-1 5 4 9t15 4q13 0 19 -8.5t6 -23.5v-86q12 19 33 35t55 16q21 0 38.5 -8.5t28.5 -25t11 -42.5q0 -33 -17 -48t-39 -15
h-155zM116 587h92q12 0 16.5 9t4.5 19q0 14 -9.5 24t-28.5 10q-21 0 -38 -10.5t-27 -25t-10 -26.5z" />
    <glyph glyph-name="uniFB6B" unicode="&#x6a4;" horiz-adv-x="1029" arabic-form="final" 
d="M985 0q-55 0 -98 25t-67 68t-24 98h113q0 -23 8 -46.5t25 -38.5t43 -15h44v-91h-44zM264 0q-67 0 -111 26.5t-66 74.5t-22 112q0 59 16 98.5t42.5 58.5t56.5 19q28 0 44 -13t21 -28q-14 -9 -29.5 -28.5t-26 -50.5t-10.5 -73q0 -34 9 -55t23 -31.5t30 -14.5t32 -4h439
q39 0 61.5 25.5t22.5 71.5v181q-5 9 -20.5 14.5t-41.5 5.5q-58 0 -88 -36t-30 -112q0 -72 29.5 -109.5t84.5 -40.5l-20 -90q-57 6 -104 33.5t-75 79t-28 127.5q0 113 62.5 176t168.5 63q77 0 126 -31.5t49 -79.5v-181q0 -54 -25 -96.5t-69.5 -67t-102.5 -24.5h-448zM1029 0
v91q12 0 16 -12t4 -33t-4 -33.5t-16 -12.5zM813 545q-25 0 -43.5 18t-18.5 44q0 25 18.5 43.5t43.5 18.5q26 0 43.5 -18.5t17.5 -43.5q0 -26 -17.5 -44t-43.5 -18zM657 545q-24 0 -42.5 18t-18.5 44q0 25 18 43.5t43 18.5q26 0 44 -18.5t18 -43.5q0 -26 -18 -44t-44 -18z
M735 685q-24 0 -40.5 17t-16.5 41t16.5 40.5t40.5 16.5t40.5 -16.5t16.5 -40.5t-16.5 -41t-40.5 -17z" />
    <glyph glyph-name="uniFB6C" unicode="&#x6a4;" horiz-adv-x="539" arabic-form="initial" 
d="M0 0v91h277q39 0 61 25.5t22 71.5v181q-4 9 -19.5 14.5t-42.5 5.5q-58 0 -87.5 -36t-29.5 -112q0 -72 29 -109.5t84 -40.5l-19 -90q-58 6 -104.5 33.5t-75 79t-28.5 127.5q0 113 63 176t168 63q78 0 127 -31.5t49 -79.5v-181q0 -54 -25.5 -96.5t-69.5 -67t-102 -24.5
h-277zM0 0q-11 0 -15.5 12.5t-4.5 33.5t4.5 33t15.5 12v-91zM377 545q-25 0 -43.5 18t-18.5 44q0 25 18.5 43.5t43.5 18.5q26 0 43.5 -18.5t17.5 -43.5q0 -26 -17.5 -44t-43.5 -18zM221 545q-24 0 -42.5 18t-18.5 44q0 25 18 43.5t43 18.5q26 0 44 -18.5t18 -43.5
q0 -26 -18 -44t-44 -18zM299 685q-24 0 -40.5 17t-16.5 41t16.5 40.5t40.5 16.5t40.5 -16.5t16.5 -40.5t-16.5 -41t-40.5 -17z" />
    <glyph glyph-name="uniFB6D" unicode="&#x6a4;" horiz-adv-x="594" arabic-form="medial" 
d="M549 0q-54 0 -97 25t-67.5 68t-24.5 98h114q0 -23 8 -46.5t25 -38.5t42 -15h45v-91h-45zM0 0v91h277q39 0 61 25.5t22 71.5v181q-4 9 -19.5 14.5t-42.5 5.5q-58 0 -87.5 -36t-29.5 -112q0 -72 29 -109.5t84 -40.5l-19 -90q-58 6 -104.5 33.5t-75 79t-28.5 127.5
q0 113 63 176t168 63q78 0 127 -31.5t49 -79.5v-181q0 -54 -25.5 -96.5t-69.5 -67t-102 -24.5h-277zM0 0q-11 0 -15.5 12.5t-4.5 33.5t4.5 33t15.5 12v-91zM594 0v91q11 0 15.5 -12t4.5 -33t-4.5 -33.5t-15.5 -12.5zM377 545q-25 0 -43.5 18t-18.5 44q0 25 18.5 43.5
t43.5 18.5q26 0 43.5 -18.5t17.5 -43.5q0 -26 -17.5 -44t-43.5 -18zM221 545q-24 0 -42.5 18t-18.5 44q0 25 18 43.5t43 18.5q26 0 44 -18.5t18 -43.5q0 -26 -18 -44t-44 -18zM299 685q-24 0 -40.5 17t-16.5 41t16.5 40.5t40.5 16.5t40.5 -16.5t16.5 -40.5t-16.5 -41
t-40.5 -17z" />
    <glyph glyph-name="uniFB7B" unicode="&#x686;" horiz-adv-x="697" arabic-form="final" 
d="M652 0q-54 0 -97 25t-67.5 68t-24.5 98v21h114v-21q0 -23 8 -46.5t25 -38.5t42 -15h45v-91h-45zM174 -267q-31 0 -53.5 19t-36 50.5t-20 70t-6.5 76.5q0 75 33.5 108.5t96.5 33.5h200q36 0 55.5 27t19.5 92q0 95 -44 137t-131 42q-15 0 -33 -0.5t-34.5 -1.5t-28.5 -1
q-30 0 -48.5 12t-27.5 32.5t-11 42.5q-1 17 3.5 26.5t9.5 10.5q7 -12 26 -22.5t54 -10.5q10 0 26 1t33.5 1.5t29.5 0.5q77 0 132 -21t90 -58t51.5 -86t16.5 -104q0 -77 -27.5 -123.5t-70.5 -67t-91 -20.5h-259l50 34q-4 -19 -6 -38.5t-2 -38.5q0 -39 7 -71.5t23.5 -59
t44.5 -50.5q-1 -7 -11 -17.5t-25.5 -18t-35.5 -7.5zM697 0v91q12 0 16 -12t4 -33t-4 -33.5t-16 -12.5zM463 -179q-25 0 -43.5 18.5t-18.5 43.5q0 26 18.5 44t43.5 18q26 0 43.5 -18t17.5 -44q0 -25 -17.5 -43.5t-43.5 -18.5zM385 -310q-24 0 -40.5 16.5t-16.5 40.5t16.5 41
t40.5 17t40.5 -17t16.5 -41t-16.5 -40.5t-40.5 -16.5zM307 -179q-24 0 -42.5 18.5t-18.5 43.5q0 26 18 44t43 18q26 0 44 -18t18 -44q0 -25 -18 -43.5t-44 -18.5z" />
    <glyph glyph-name="uniFB7C" unicode="&#x686;" horiz-adv-x="559" arabic-form="initial" 
d="M0 0v91h311q36 0 55.5 27t19.5 92q0 95 -44 137t-131 42q-15 0 -33 -0.5t-34.5 -1.5t-29.5 -1q-29 0 -47.5 12t-27.5 32.5t-11 42.5q-1 17 3.5 26.5t9.5 10.5q7 -12 26 -22.5t54 -10.5q10 0 26 1t33.5 1.5t29.5 0.5q77 0 132 -21t90 -58t51.5 -86t16.5 -104
q0 -77 -27.5 -123.5t-70.5 -67t-91 -20.5h-311zM0 0q-11 0 -15.5 12.5t-4.5 33.5t4.5 33t15.5 12v-91zM304 -204q-25 0 -43.5 18.5t-18.5 43.5q0 26 18.5 44t43.5 18q26 0 43.5 -18t17.5 -44q0 -25 -17.5 -43.5t-43.5 -18.5zM226 -335q-24 0 -40.5 16.5t-16.5 40.5t16.5 41
t40.5 17t40.5 -17t16.5 -41t-16.5 -40.5t-40.5 -16.5zM148 -204q-24 0 -42.5 18.5t-18.5 43.5q0 26 18 44t43 18q26 0 44 -18t18 -44q0 -25 -18 -43.5t-44 -18.5z" />
    <glyph glyph-name="uniFB7D" unicode="&#x686;" horiz-adv-x="620" arabic-form="medial" 
d="M575 0q-54 0 -97 25t-67.5 68t-24.5 98v21h114v-21q0 -23 8 -46.5t25 -38.5t42 -15h45v-91h-45zM0 0v91h311q36 0 55.5 27t19.5 92q0 95 -44 137t-131 42q-15 0 -33 -0.5t-34.5 -1.5t-29.5 -1q-29 0 -47.5 12t-27.5 32.5t-11 42.5q-1 17 3.5 26.5t9.5 10.5
q7 -12 26 -22.5t54 -10.5q10 0 26 1t33.5 1.5t29.5 0.5q77 0 132 -21t90 -58t51.5 -86t16.5 -104q0 -77 -27.5 -123.5t-70.5 -67t-91 -20.5h-311zM0 0q-11 0 -15.5 12.5t-4.5 33.5t4.5 33t15.5 12v-91zM620 0v91q12 0 16 -12t4 -33t-4 -33.5t-16 -12.5zM304 -204
q-25 0 -43.5 18.5t-18.5 43.5q0 26 18.5 44t43.5 18q26 0 43.5 -18t17.5 -44q0 -25 -17.5 -43.5t-43.5 -18.5zM226 -335q-24 0 -40.5 16.5t-16.5 40.5t16.5 41t40.5 17t40.5 -17t16.5 -41t-16.5 -40.5t-40.5 -16.5zM148 -204q-24 0 -42.5 18.5t-18.5 43.5q0 26 18 44t43 18
q26 0 44 -18t18 -44q0 -25 -18 -43.5t-44 -18.5z" />
    <glyph glyph-name="uniFB89" unicode="&#x688;" horiz-adv-x="565" arabic-form="final" 
d="M520 0q-54 0 -97 25t-67.5 68t-24.5 98v47h114v-47q0 -23 8 -46.5t25 -38.5t42 -15h45v-91h-45zM106 0q-20 0 -33.5 11t-13.5 35q0 23 13.5 34t33.5 11h111q56 0 85 40t29 111q0 52 -14.5 85.5t-38.5 50.5t-52 18l34 2q-19 0 -38 -8.5t-32.5 -28t-13.5 -54.5
q-9 -3 -25.5 -5t-30.5 0q-20 2 -37.5 18t-17.5 48q0 30 16.5 52t42 35t53.5 19t51 6q35 0 72.5 -14t70.5 -44t53.5 -75t20.5 -109q0 -80 -32.5 -133t-84 -79t-111.5 -26h-111zM565 0v91q11 0 15.5 -12t4.5 -33t-4.5 -33.5t-15.5 -12.5zM127 545q-5 0 -7 10.5t0 21t7 10.5h13
v127q0 11 -5 17t-7 7q-1 5 4 9t15 4q13 0 19 -8.5t6 -23.5v-86q12 19 33 35t55 16q21 0 38.5 -8.5t28.5 -25t11 -42.5q0 -33 -17 -48t-39 -15h-155zM172 587h92q12 0 16.5 9t4.5 19q0 14 -9.5 24t-28.5 10q-21 0 -38 -10.5t-27 -25t-10 -26.5z" />
    <glyph glyph-name="uniFB8B" unicode="&#x698;" horiz-adv-x="320" arabic-form="final" 
d="M209 0v91h111v-91h-111zM87 -229q-21 0 -35 7.5t-22 18.5t-10 18q29 24 45 51t23 60.5t7 73.5v425q0 28 16 41.5t41 13.5t41 -13.5t16 -41.5v-425q0 -40 -7 -80.5t-21.5 -74.5t-37.5 -54t-56 -20zM320 0v91q12 0 16 -12t4 -33t-4 -33.5t-16 -12.5zM230 545
q-25 0 -43.5 18t-18.5 44q0 25 18.5 43.5t43.5 18.5q26 0 43.5 -18.5t17.5 -43.5q0 -26 -17.5 -44t-43.5 -18zM74 545q-24 0 -42.5 18t-18.5 44q0 25 18 43.5t43 18.5q26 0 44 -18.5t18 -43.5q0 -26 -18 -44t-44 -18zM152 685q-24 0 -40.5 17t-16.5 41t16.5 40.5t40.5 16.5
t40.5 -16.5t16.5 -40.5t-16.5 -41t-40.5 -17z" />
    <glyph glyph-name="uniFB8D" unicode="&#x691;" horiz-adv-x="320" arabic-form="final" 
d="M209 0v91h111v-91h-111zM87 -229q-21 0 -35 7.5t-22 18.5t-10 18q29 24 45 51t23 60.5t7 73.5v425q0 28 16 41.5t41 13.5t41 -13.5t16 -41.5v-425q0 -40 -7 -80.5t-21.5 -74.5t-37.5 -54t-56 -20zM320 0v91q12 0 16 -12t4 -33t-4 -33.5t-16 -12.5zM50 545q-5 0 -7 10.5
t0 21t7 10.5h13v127q0 11 -5 17t-7 7q-1 5 4 9t15 4q13 0 19 -8.5t6 -23.5v-86q12 19 33 35t55 16q21 0 38.5 -8.5t28.5 -25t11 -42.5q0 -33 -17 -48t-39 -15h-155zM95 587h92q12 0 16.5 9t4.5 19q0 14 -9.5 24t-28.5 10q-21 0 -38 -10.5t-27 -25t-10 -26.5z" />
    <glyph glyph-name="uniFB8F" unicode="&#x6a9;" horiz-adv-x="882" arabic-form="final" 
d="M837 0q-51 0 -91.5 21.5t-66 60t-30.5 87.5l113 11q2 -33 20 -61t54 -28h46v-91h-45zM195 0q-46 0 -74.5 21.5t-42 55.5t-13.5 75v108q0 23 13.5 40t43.5 17q29 0 43 -17t14 -42v-88q0 -41 13.5 -60t45.5 -19h355q24 0 40 17.5t16 53.5t-16 54t-40 18h-113
q-58 0 -105.5 22t-75.5 60t-28 86q0 49 28 87t75.5 60t105.5 22h171q37 0 58 11.5t32 19.5q3 -16 -1 -36.5t-15 -40.5t-29 -33t-45 -13h-171q-42 0 -68.5 -22t-26.5 -55t26.5 -55t68.5 -22h125q47 0 82.5 -21t55.5 -58t20 -84t-20 -83.5t-55.5 -57.5t-82.5 -21h-410zM882 0
v91q11 0 15.5 -12t4.5 -33t-4.5 -33.5t-15.5 -12.5z" />
    <glyph glyph-name="uniFB90" unicode="&#x6a9;" horiz-adv-x="631" arabic-form="initial" 
d="M0 0v91h384q24 0 40 17.5t16 53.5t-16 54t-40 18h-159q-58 0 -105.5 22t-75.5 60t-28 86q0 49 28 87t75.5 60t105.5 22h217q37 0 58 11.5t32 19.5q3 -16 -1 -36.5t-15 -40.5t-29 -33t-45 -13h-217q-42 0 -68.5 -22t-26.5 -55t26.5 -55t68.5 -22h171q47 0 82.5 -21
t55.5 -58t20 -84t-20 -83.5t-55.5 -57.5t-82.5 -21h-396zM0 0q-11 0 -15.5 12.5t-4.5 33.5t4.5 33t15.5 12v-91z" />
    <glyph glyph-name="uniFB91" unicode="&#x6a9;" horiz-adv-x="672" arabic-form="medial" 
d="M628 0q-51 0 -91.5 21.5t-66 60t-30.5 87.5l113 11q2 -33 20 -61t54 -28h45v-91h-44zM0 0v91h384q24 0 40 17.5t16 53.5t-16 54t-40 18h-159q-58 0 -105.5 22t-75.5 60t-28 86q0 49 28 87t75.5 60t105.5 22h217q37 0 58 11.5t32 19.5q3 -16 -1 -36.5t-15 -40.5t-29 -33
t-45 -13h-217q-42 0 -68.5 -22t-26.5 -55t26.5 -55t68.5 -22h171q47 0 82.5 -21t55.5 -58t20 -84t-20 -83.5t-55.5 -57.5t-82.5 -21h-396zM0 0q-11 0 -15.5 12.5t-4.5 33.5t4.5 33t15.5 12v-91zM672 0v91q12 0 16 -12t4 -33t-4 -33.5t-16 -12.5z" />
    <glyph glyph-name="uniFB93" unicode="&#x6af;" horiz-adv-x="915" arabic-form="final" 
d="M372 583q-4 2 -9 10.5t-4 27.5q2 20 11 39t27 32t45 13q18 0 42 -0.5t50 -1t48 -0.5h36q42 0 64.5 11.5t30.5 21.5q5 -2 9.5 -10t3.5 -28q-1 -19 -10.5 -38.5t-27.5 -32t-45 -12.5h-62t-65 0.5t-49 0.5q-42 0 -65 -11.5t-30 -21.5zM195 0q-46 0 -74.5 21.5t-42 55.5
t-13.5 75v108q0 23 13.5 40t43.5 17q29 0 43 -17t14 -42v-88q0 -41 13.5 -60t45.5 -19h355q24 0 40 17.5t16 53.5t-16 54t-40 18h-113q-58 0 -105.5 22t-75.5 60t-28 86q0 49 28 87t75.5 60t105.5 22h171q37 0 58 11.5t32 19.5q3 -16 -1 -36.5t-15 -40.5t-29 -33t-45 -13
h-171q-42 0 -68.5 -22t-26.5 -55t26.5 -55t68.5 -22h125q47 0 82.5 -21t55.5 -58t20 -84t-20 -83.5t-55.5 -57.5t-82.5 -21h-410zM882 0v91q11 0 15.5 -12t4.5 -33t-4.5 -33.5t-15.5 -12.5zM837 0q-51 0 -91.5 21.5t-66 60t-30.5 87.5l113 11q2 -33 20 -61t54 -28h46v-91
h-45z" />
    <glyph glyph-name="uniFB94" unicode="&#x6af;" horiz-adv-x="590" arabic-form="initial" 
d="M123 586q-4 2 -9 10.5t-4 27.5q2 20 11 39t27 31.5t45 12.5h42t50 -0.5t48 -0.5h36q42 0 64.5 11.5t30.5 21.5q5 -2 9.5 -10t3.5 -28q-1 -19 -10.5 -38.5t-27.5 -32.5t-46 -13q-27 0 -61 0.5t-65 1t-49 0.5q-42 0 -65 -11.5t-30 -21.5zM0 0q-11 0 -15.5 12.5t-4.5 33.5
t4.5 33t15.5 12v-91zM0 0v91h384q24 0 40 17.5t16 53.5t-16 54t-40 18h-159q-58 0 -105.5 22t-75.5 60t-28 86q0 49 28 87t75.5 60t105.5 22h217q37 0 58 11.5t32 19.5q3 -16 -1 -36.5t-15 -40.5t-29 -33t-45 -13h-217q-42 0 -68.5 -22t-26.5 -55t26.5 -55t68.5 -22h171
q47 0 82.5 -21t55.5 -58t20 -84t-20 -83.5t-55.5 -57.5t-82.5 -21h-396z" />
    <glyph glyph-name="uniFB95" unicode="&#x6af;" horiz-adv-x="672" arabic-form="medial" 
d="M143 588q-5 2 -10 10.5t-3 27.5q1 20 10.5 39t27.5 32t45 13q18 0 42 -0.5t49.5 -0.5t48 -0.5t35.5 -0.5q43 0 65.5 11.5t29.5 21.5q5 -2 10 -10t3 -28q-1 -19 -10 -38.5t-27 -32t-46 -12.5h-61.5t-65 1t-48.5 1q-43 0 -65.5 -11.5t-29.5 -22.5zM0 0q-11 0 -15.5 12.5
t-4.5 33.5t4.5 33t15.5 12v-91zM0 0v91h384q24 0 40 17.5t16 53.5t-16 54t-40 18h-159q-58 0 -105.5 22t-75.5 60t-28 86q0 49 28 87t75.5 60t105.5 22h217q37 0 58 11.5t32 19.5q3 -16 -1 -36.5t-15 -40.5t-29 -33t-45 -13h-217q-42 0 -68.5 -22t-26.5 -55t26.5 -55
t68.5 -22h171q47 0 82.5 -21t55.5 -58t20 -84t-20 -83.5t-55.5 -57.5t-82.5 -21h-396zM672 0v91q12 0 16 -12t4 -33t-4 -33.5t-16 -12.5zM628 0q-51 0 -91.5 21.5t-66 60t-30.5 87.5l113 11q2 -33 20 -61t54 -28h45v-91h-44z" />
    <glyph glyph-name="uniFB9F" unicode="&#x6ba;" horiz-adv-x="751" arabic-form="final" 
d="M706 0q-54 0 -97 25t-67.5 68t-24.5 98h114q0 -23 8 -46.5t25 -38.5t42 -15h45v-91h-45zM366 -236q-94 0 -161.5 31.5t-103.5 89.5t-36 136q0 31 6.5 67.5t21 69.5t37.5 54.5t56 21.5q21 0 35 -8t22.5 -18t10.5 -19q-27 -21 -43.5 -46.5t-24 -56.5t-7.5 -70
q0 -81 49.5 -121t138.5 -40q81 0 115.5 36.5t34.5 125.5v405q0 25 13.5 41.5t43.5 16.5t43.5 -16.5t13.5 -41.5v-405q0 -116 -63 -184.5t-202 -68.5zM751 0v91q11 0 15.5 -12t4.5 -33t-4.5 -33.5t-15.5 -12.5z" />
    <glyph glyph-name="uniFBA7" unicode="&#x6c1;" horiz-adv-x="664" arabic-form="final" 
d="M65 0q0 101 31 191t91 160t146.5 110t198.5 40q11 0 19 -8.5t8 -20.5v-381h104v-91h-218v472l87 -62q-81 0 -146 -30.5t-111.5 -85.5t-71 -130t-24.5 -164h-114zM663 0v91q11 0 15.5 -12t4.5 -33t-4.5 -33.5t-15.5 -12.5z" />
    <glyph glyph-name="uniFBA8" unicode="&#x6c1;" horiz-adv-x="346" arabic-form="initial" 
d="M0 0v91h82q19 0 33.5 10t24.5 26t16.5 37t9 44.5t2.5 46.5q0 40 -7.5 72t-23.5 59t-44 50q2 8 10 18.5t22.5 18t34.5 7.5q32 0 55.5 -20t37.5 -53t21 -73t7 -81q0 -118 -52.5 -185.5t-146.5 -67.5h-82zM0 0q-11 0 -15.5 12.5t-4.5 33.5t4.5 33t15.5 12v-91zM97 -202
q-32 0 -49 21.5t-17 53.5q0 60 27 105.5t86 82.5l15 -21q-20 -13 -38.5 -32t-30.5 -43t-12 -54l21 6q27 0 43 -16.5t16 -41.5q0 -27 -16.5 -44t-44.5 -17z" />
    <glyph glyph-name="uniFBA9" unicode="&#x6c1;" horiz-adv-x="486" arabic-form="medial" 
d="M386 -248q-53 0 -104.5 8.5t-95.5 28.5t-76 53t-47.5 81.5t-8.5 114.5l43 -38h-97v91h107q17 0 26.5 -11t10.5 -26q1 -19 3 -49t11 -61t31.5 -56t65 -36.5t110.5 -1.5l-55 -49v253q0 16 11 26.5t25 10.5h140v-91h-108l45 45v-256q0 -16 -10.5 -26.5t-26.5 -10.5zM0 0
q-11 0 -15.5 12.5t-4.5 33.5t4.5 33t15.5 12v-91zM486 0v91q12 0 16 -12t4 -33t-4 -33.5t-16 -12.5z" />
    <glyph glyph-name="uniFBAB" unicode="&#x6be;" horiz-adv-x="786" arabic-form="final" 
d="M741 0q-54 0 -97 25t-67.5 68t-24.5 98v47l114 43v-90q0 -23 8 -46.5t25 -38.5t42 -15h45v-91h-45zM40 0v91h70q99 0 139.5 37t40.5 119q0 47 -11.5 66.5t-32.5 19.5q-20 0 -32 -19.5t-12 -66.5q0 -82 41 -119t139 -37h52q56 0 87 52t31 143q0 76 -24.5 119.5t-80.5 62
t-150 18.5q-30 0 -48.5 -1.5t-30.5 -1.5q-33 0 -52.5 12.5t-28.5 32t-10 40.5q-1 19 2.5 28.5t10.5 10.5q7 -12 25.5 -22.5t56.5 -10.5q14 0 30 1.5t47 1.5q194 0 280.5 -74t86.5 -218q0 -95 -32.5 -158.5t-85 -95t-114.5 -31.5h-52q-81 0 -147.5 24t-106 77.5t-39.5 139.5
q0 52 16 93t51 65.5t90 24.5q56 0 90.5 -24.5t51 -65.5t16.5 -93q0 -86 -39.5 -139.5t-106.5 -77.5t-148 -24h-70zM786 0v91q12 0 16 -12t4 -33t-4 -33.5t-16 -12.5z" />
    <glyph glyph-name="uniFBAC" unicode="&#x6be;" horiz-adv-x="691" arabic-form="initial" 
d="M0 0v91h70q99 0 139.5 37t40.5 119q0 47 -11.5 66.5t-32.5 19.5q-20 0 -32 -19.5t-12 -66.5q0 -82 41 -119t139 -37h52q56 0 87 52t31 143q0 76 -24.5 119.5t-80.5 62t-150 18.5q-30 0 -48.5 -1.5t-30.5 -1.5q-33 0 -52.5 12.5t-28.5 32t-10 40.5q-1 19 2.5 28.5
t10.5 10.5q7 -12 25.5 -22.5t56.5 -10.5q14 0 30 1.5t47 1.5q194 0 280.5 -74t86.5 -218q0 -95 -32.5 -158.5t-85 -95t-114.5 -31.5h-52q-81 0 -147.5 24t-106 77.5t-39.5 139.5q0 52 16 93t51 65.5t90 24.5q56 0 90.5 -24.5t51 -65.5t16.5 -93q0 -86 -39.5 -139.5
t-106.5 -77.5t-148 -24h-70zM0 0q-11 0 -15.5 12.5t-4.5 33.5t4.5 33t15.5 12v-91z" />
    <glyph glyph-name="uniFBAD" unicode="&#x6be;" horiz-adv-x="746" arabic-form="medial" 
d="M701 0q-54 0 -97 25t-67.5 68t-24.5 98v47l114 43v-90q0 -23 8 -46.5t25 -38.5t42 -15h45v-91h-45zM0 0v91h70q99 0 139.5 37t40.5 119q0 47 -11.5 66.5t-32.5 19.5q-20 0 -32 -19.5t-12 -66.5q0 -82 41 -119t139 -37h52q56 0 87 52t31 143q0 76 -24.5 119.5t-80.5 62
t-150 18.5q-30 0 -48.5 -1.5t-30.5 -1.5q-33 0 -52.5 12.5t-28.5 32t-10 40.5q-1 19 2.5 28.5t10.5 10.5q7 -12 25.5 -22.5t56.5 -10.5q14 0 30 1.5t47 1.5q194 0 280.5 -74t86.5 -218q0 -95 -32.5 -158.5t-85 -95t-114.5 -31.5h-52q-81 0 -147.5 24t-106 77.5t-39.5 139.5
q0 52 16 93t51 65.5t90 24.5q56 0 90.5 -24.5t51 -65.5t16.5 -93q0 -86 -39.5 -139.5t-106.5 -77.5t-148 -24h-70zM0 0q-11 0 -15.5 12.5t-4.5 33.5t4.5 33t15.5 12v-91zM746 0v91q12 0 16 -12t4 -33t-4 -33.5t-16 -12.5z" />
    <glyph glyph-name="uniFBAF" unicode="&#x6d2;" horiz-adv-x="534" arabic-form="final" 
d="M619 -293q-8 13 -23.5 25.5t-40.5 21.5t-61 9h-198q-71 0 -123 19.5t-80 56.5t-28 88q0 78 60.5 121t164.5 43h244v-91h-244q-16 0 -35.5 -2t-36.5 -9t-28 -21.5t-11 -40.5q0 -43 32 -57.5t85 -14.5h236q44 0 68.5 -12.5t34 -31t9.5 -37.5q0 -24 -9 -42.5t-16 -24.5z
M534 0v91q11 0 15.5 -12t4.5 -33t-4.5 -33.5t-15.5 -12.5z" />
    <glyph glyph-name="uniFBB1" unicode="&#x6d3;" horiz-adv-x="534" arabic-form="final" 
d="M619 -293q-8 13 -23.5 25.5t-40.5 21.5t-61 9h-198q-71 0 -123 19.5t-80 56.5t-28 88q0 78 60.5 121t164.5 43h244v-91h-244q-16 0 -35.5 -2t-36.5 -9t-28 -21.5t-11 -40.5q0 -43 32 -57.5t85 -14.5h236q44 0 68.5 -12.5t34 -31t9.5 -37.5q0 -24 -9 -42.5t-16 -24.5z
M534 0v91q11 0 15.5 -12t4.5 -33t-4.5 -33.5t-15.5 -12.5zM110 152q-11 7 -15 18t-1 21t14.5 16.5t31.5 4.5q-12 8 -25 28t-13 46q0 23 11.5 45.5t35.5 36.5t60 14q24 0 38.5 -6.5t20.5 -16.5t6 -24q0 -18 -9 -25.5t-20.5 -7t-21.5 4.5q1 15 -8 27t-24 13q-7 -5 -15.5 -18.5
t-8.5 -33.5q0 -23 10.5 -38t27.5 -22.5t35 -7.5q12 0 21.5 2t15.5 3q15 0 19.5 -12t0.5 -23.5t-13 -12.5q-12 -1 -33 -2.5t-44.5 -4t-45.5 -6t-36.5 -8.5t-14.5 -11z" />
    <glyph glyph-name="uniFBE8" unicode="&#x649;" horiz-adv-x="346" arabic-form="initial" 
d="M0 0v91h82q19 0 33.5 10t24.5 26t16.5 37t9 44.5t2.5 46.5q0 40 -7.5 72t-23.5 59t-44 50q2 8 10 18.5t22.5 18t34.5 7.5q32 0 55.5 -20t37.5 -53t21 -73t7 -81q0 -118 -52.5 -185.5t-146.5 -67.5h-82zM0 0q-11 0 -15.5 12.5t-4.5 33.5t4.5 33t15.5 12v-91z" />
    <glyph glyph-name="uniFBE9" unicode="&#x649;" horiz-adv-x="350" arabic-form="medial" 
d="M0 0v91h40q27 0 43.5 15t24.5 38.5t8 46.5v232q0 24 13.5 40.5t43.5 16.5q29 0 42.5 -16.5t13.5 -40.5v-232q0 -55 -24.5 -98t-66.5 -68t-98 -25h-40zM305 0q-55 0 -97.5 25t-67 68t-24.5 98h113q0 -23 8 -46.5t25.5 -38.5t42.5 -15h45v-91h-45zM350 0v91q11 0 15.5 -12
t4.5 -33t-4.5 -33.5t-15.5 -12.5zM0 0q-11 0 -15.5 12.5t-4.5 33.5t4.5 33t15.5 12v-91z" />
    <glyph glyph-name="uniFBFD" unicode="&#x6cc;" horiz-adv-x="910" arabic-form="final" 
d="M428 -236q-113 0 -194 33t-125 96.5t-44 155.5q0 35 7 71t21 66.5t35.5 49.5t51.5 19q20 0 33.5 -8t21.5 -18t10 -19q-26 -21 -46 -59.5t-20 -102.5q0 -34 9.5 -68t36 -62t75.5 -45.5t129 -17.5q78 0 129 17t79.5 43t40 55t11.5 53l114 7q0 -83 -47.5 -142.5t-132 -91.5
t-195.5 -32zM655 0q-40 0 -62.5 12t-32 31t-8 40t9.5 39q11 -10 35 -20.5t57 -10.5h256v-91h-255zM910 0v91q12 0 16 -12t4 -33t-4 -33.5t-16 -12.5z" />
    <glyph glyph-name="uniFBFE" unicode="&#x6cc;" horiz-adv-x="346" arabic-form="initial" 
d="M0 0v91h82q19 0 33.5 10t24.5 26t16.5 37t9 44.5t2.5 46.5q0 40 -7.5 72t-23.5 59t-44 50q2 8 10 18.5t22.5 18t34.5 7.5q32 0 55.5 -20t37.5 -53t21 -73t7 -81q0 -118 -52.5 -185.5t-146.5 -67.5h-82zM0 0q-11 0 -15.5 12.5t-4.5 33.5t4.5 33t15.5 12v-91zM239 -207
q-25 0 -43.5 18.5t-18.5 43.5q0 26 18.5 44t43.5 18q26 0 43.5 -18t17.5 -44q0 -25 -17.5 -43.5t-43.5 -18.5zM83 -207q-24 0 -42.5 18.5t-18.5 43.5q0 26 18 44t43 18q26 0 44 -18t18 -44q0 -25 -18 -43.5t-44 -18.5z" />
    <glyph glyph-name="uniFBFF" unicode="&#x6cc;" horiz-adv-x="350" arabic-form="medial" 
d="M0 0v91h40q27 0 43.5 15t24.5 38.5t8 46.5v232q0 24 13.5 40.5t43.5 16.5q29 0 42.5 -16.5t13.5 -40.5v-232q0 -55 -24.5 -98t-66.5 -68t-98 -25h-40zM305 0q-55 0 -97.5 25t-67 68t-24.5 98h113q0 -23 8 -46.5t25.5 -38.5t42.5 -15h45v-91h-45zM350 0v91q11 0 15.5 -12
t4.5 -33t-4.5 -33.5t-15.5 -12.5zM0 0q-11 0 -15.5 12.5t-4.5 33.5t4.5 33t15.5 12v-91zM251 -207q-25 0 -43.5 18.5t-18.5 43.5q0 26 18.5 44t43.5 18q26 0 43.5 -18t17.5 -44q0 -25 -17.5 -43.5t-43.5 -18.5zM95 -207q-24 0 -42.5 18.5t-18.5 43.5q0 26 18 44t43 18
q26 0 44 -18t18 -44q0 -25 -18 -43.5t-44 -18.5z" />
    <glyph glyph-name="uniFC64" unicode="&#xfc64;" horiz-adv-x="652" arabic-form="final" 
d="M611 0q-54 0 -97 25t-67.5 68t-24.5 98v232q0 24 13.5 40.5t43.5 16.5t43.5 -16.5t13.5 -40.5v-232q0 -23 8 -46.5t25 -38.5t42 -15h41v-91h-41zM322 234q-38 0 -73.5 7t-67.5 21l30 94q28 -16 54 -23.5t57 -7.5t56.5 7.5t54.5 23.5l29 -94q-31 -14 -66 -21t-74 -7z
M101 -229q-20 0 -34.5 7.5t-22.5 18.5t-10 18q29 24 45 51t23 60.5t7 73.5v425q0 28 16.5 41.5t40.5 13.5q25 0 41 -13.5t16 -41.5v-425q0 -40 -7 -80.5t-21.5 -74.5t-37.5 -54t-56 -20zM652 0v91q11 0 15.5 -12t4.5 -33t-4.5 -33.5t-15.5 -12.5zM395 539q-11 7 -15 18
t-1 21t14.5 16.5t31.5 4.5q-12 8 -25 28t-13 46q0 23 11.5 45.5t35.5 36.5t60 14q24 0 38.5 -6.5t20.5 -16.5t6 -24q0 -18 -9 -25.5t-20.5 -7t-21.5 4.5q1 15 -8 27t-24 13q-7 -5 -15.5 -18.5t-8.5 -33.5q0 -23 10.5 -38t27.5 -22.5t35 -7.5q12 0 21.5 2t15.5 3
q15 0 19.5 -12t0.5 -23.5t-13 -12.5q-12 -1 -33 -2.5t-44.5 -4t-45.5 -6t-36.5 -8.5t-14.5 -11z" />
    <glyph glyph-name="uniFC65" unicode="&#xfc65;" horiz-adv-x="652" arabic-form="final" 
d="M611 0q-54 0 -97 25t-67.5 68t-24.5 98v232q0 24 13.5 40.5t43.5 16.5t43.5 -16.5t13.5 -40.5v-232q0 -23 8 -46.5t25 -38.5t42 -15h41v-91h-41zM322 234q-38 0 -73.5 7t-67.5 21l30 94q28 -16 54 -23.5t57 -7.5t56.5 7.5t54.5 23.5l29 -94q-31 -14 -66 -21t-74 -7z
M101 -229q-20 0 -34.5 7.5t-22.5 18.5t-10 18q29 24 45 51t23 60.5t7 73.5v425q0 28 16.5 41.5t40.5 13.5q25 0 41 -13.5t16 -41.5v-425q0 -40 -7 -80.5t-21.5 -74.5t-37.5 -54t-56 -20zM652 0v91q11 0 15.5 -12t4.5 -33t-4.5 -33.5t-15.5 -12.5zM395 539q-11 7 -15 18
t-1 21t14.5 16.5t31.5 4.5q-12 8 -25 28t-13 46q0 23 11.5 45.5t35.5 36.5t60 14q24 0 38.5 -6.5t20.5 -16.5t6 -24q0 -18 -9 -25.5t-20.5 -7t-21.5 4.5q1 15 -8 27t-24 13q-7 -5 -15.5 -18.5t-8.5 -33.5q0 -23 10.5 -38t27.5 -22.5t35 -7.5q12 0 21.5 2t15.5 3
q15 0 19.5 -12t0.5 -23.5t-13 -12.5q-12 -1 -33 -2.5t-44.5 -4t-45.5 -6t-36.5 -8.5t-14.5 -11zM166 545q-29 0 -48.5 19.5t-19.5 46.5t19.5 46.5t47.5 19.5q27 0 46.5 -19.5t19.5 -46.5t-19.5 -46.5t-45.5 -19.5z" />
    <glyph glyph-name="uniFC6A" unicode="&#xfc6a;" horiz-adv-x="652" arabic-form="final" 
d="M611 0q-54 0 -97 25t-67.5 68t-24.5 98v232q0 24 13.5 40.5t43.5 16.5t43.5 -16.5t13.5 -40.5v-232q0 -23 8 -46.5t25 -38.5t42 -15h41v-91h-41zM322 234q-38 0 -73.5 7t-67.5 21l30 94q28 -16 54 -23.5t57 -7.5t56.5 7.5t54.5 23.5l29 -94q-31 -14 -66 -21t-74 -7z
M101 -229q-20 0 -34.5 7.5t-22.5 18.5t-10 18q29 24 45 51t23 60.5t7 73.5v425q0 28 16.5 41.5t40.5 13.5q25 0 41 -13.5t16 -41.5v-425q0 -40 -7 -80.5t-21.5 -74.5t-37.5 -54t-56 -20zM652 0v91q11 0 15.5 -12t4.5 -33t-4.5 -33.5t-15.5 -12.5zM486 -213q-29 0 -48.5 19.5
t-19.5 46.5t19.5 46.5t47.5 19.5q27 0 46.5 -19.5t19.5 -46.5t-19.5 -46.5t-45.5 -19.5z" />
    <glyph glyph-name="uniFC6B" unicode="&#xfc6b;" horiz-adv-x="652" arabic-form="final" 
d="M611 0q-54 0 -97 25t-67.5 68t-24.5 98v232q0 24 13.5 40.5t43.5 16.5t43.5 -16.5t13.5 -40.5v-232q0 -23 8 -46.5t25 -38.5t42 -15h41v-91h-41zM322 234q-38 0 -73.5 7t-67.5 21l30 94q28 -16 54 -23.5t57 -7.5t56.5 7.5t54.5 23.5l29 -94q-31 -14 -66 -21t-74 -7z
M101 -229q-20 0 -34.5 7.5t-22.5 18.5t-10 18q29 24 45 51t23 60.5t7 73.5v425q0 28 16.5 41.5t40.5 13.5q25 0 41 -13.5t16 -41.5v-425q0 -40 -7 -80.5t-21.5 -74.5t-37.5 -54t-56 -20zM652 0v91q11 0 15.5 -12t4.5 -33t-4.5 -33.5t-15.5 -12.5zM486 -213q-29 0 -48.5 19.5
t-19.5 46.5t19.5 46.5t47.5 19.5q27 0 46.5 -19.5t19.5 -46.5t-19.5 -46.5t-45.5 -19.5zM166 545q-29 0 -48.5 19.5t-19.5 46.5t19.5 46.5t47.5 19.5q27 0 46.5 -19.5t19.5 -46.5t-19.5 -46.5t-45.5 -19.5z" />
    <glyph glyph-name="uniFC70" unicode="&#xfc70;" horiz-adv-x="652" arabic-form="final" 
d="M611 0q-54 0 -97 25t-67.5 68t-24.5 98v232q0 24 13.5 40.5t43.5 16.5t43.5 -16.5t13.5 -40.5v-232q0 -23 8 -46.5t25 -38.5t42 -15h41v-91h-41zM322 234q-38 0 -73.5 7t-67.5 21l30 94q28 -16 54 -23.5t57 -7.5t56.5 7.5t54.5 23.5l29 -94q-31 -14 -66 -21t-74 -7z
M101 -229q-20 0 -34.5 7.5t-22.5 18.5t-10 18q29 24 45 51t23 60.5t7 73.5v425q0 28 16.5 41.5t40.5 13.5q25 0 41 -13.5t16 -41.5v-425q0 -40 -7 -80.5t-21.5 -74.5t-37.5 -54t-56 -20zM652 0v91q11 0 15.5 -12t4.5 -33t-4.5 -33.5t-15.5 -12.5zM558 548q-25 0 -43.5 18
t-18.5 43q0 26 18.5 44.5t43.5 18.5q26 0 43.5 -18.5t17.5 -44.5q0 -25 -17.5 -43t-43.5 -18zM402 548q-24 0 -42.5 18t-18.5 43q0 26 18 44.5t43 18.5q26 0 44 -18.5t18 -44.5q0 -25 -18 -43t-44 -18z" />
    <glyph glyph-name="uniFC71" unicode="&#xfc71;" horiz-adv-x="652" arabic-form="final" 
d="M611 0q-54 0 -97 25t-67.5 68t-24.5 98v232q0 24 13.5 40.5t43.5 16.5t43.5 -16.5t13.5 -40.5v-232q0 -23 8 -46.5t25 -38.5t42 -15h41v-91h-41zM322 234q-38 0 -73.5 7t-67.5 21l30 94q28 -16 54 -23.5t57 -7.5t56.5 7.5t54.5 23.5l29 -94q-31 -14 -66 -21t-74 -7z
M101 -229q-20 0 -34.5 7.5t-22.5 18.5t-10 18q29 24 45 51t23 60.5t7 73.5v425q0 28 16.5 41.5t40.5 13.5q25 0 41 -13.5t16 -41.5v-425q0 -40 -7 -80.5t-21.5 -74.5t-37.5 -54t-56 -20zM652 0v91q11 0 15.5 -12t4.5 -33t-4.5 -33.5t-15.5 -12.5zM558 548q-25 0 -43.5 18
t-18.5 43q0 26 18.5 44.5t43.5 18.5q26 0 43.5 -18.5t17.5 -44.5q0 -25 -17.5 -43t-43.5 -18zM402 548q-24 0 -42.5 18t-18.5 43q0 26 18 44.5t43 18.5q26 0 44 -18.5t18 -44.5q0 -25 -18 -43t-44 -18zM166 545q-29 0 -48.5 19.5t-19.5 46.5t19.5 46.5t47.5 19.5
q27 0 46.5 -19.5t19.5 -46.5t-19.5 -46.5t-45.5 -19.5z" />
    <glyph glyph-name="uniFC76" unicode="&#xfc76;" horiz-adv-x="652" arabic-form="final" 
d="M611 0q-54 0 -97 25t-67.5 68t-24.5 98v232q0 24 13.5 40.5t43.5 16.5t43.5 -16.5t13.5 -40.5v-232q0 -23 8 -46.5t25 -38.5t42 -15h41v-91h-41zM322 234q-38 0 -73.5 7t-67.5 21l30 94q28 -16 54 -23.5t57 -7.5t56.5 7.5t54.5 23.5l29 -94q-31 -14 -66 -21t-74 -7z
M101 -229q-20 0 -34.5 7.5t-22.5 18.5t-10 18q29 24 45 51t23 60.5t7 73.5v425q0 28 16.5 41.5t40.5 13.5q25 0 41 -13.5t16 -41.5v-425q0 -40 -7 -80.5t-21.5 -74.5t-37.5 -54t-56 -20zM652 0v91q11 0 15.5 -12t4.5 -33t-4.5 -33.5t-15.5 -12.5zM558 545q-25 0 -43.5 18
t-18.5 44q0 25 18.5 43.5t43.5 18.5q26 0 43.5 -18.5t17.5 -43.5q0 -26 -17.5 -44t-43.5 -18zM402 545q-24 0 -42.5 18t-18.5 44q0 25 18 43.5t43 18.5q26 0 44 -18.5t18 -43.5q0 -26 -18 -44t-44 -18zM480 685q-24 0 -40.5 17t-16.5 41t16.5 40.5t40.5 16.5t40.5 -16.5
t16.5 -40.5t-16.5 -41t-40.5 -17z" />
    <glyph glyph-name="uniFC77" unicode="&#xfc77;" horiz-adv-x="652" arabic-form="final" 
d="M611 0q-54 0 -97 25t-67.5 68t-24.5 98v232q0 24 13.5 40.5t43.5 16.5t43.5 -16.5t13.5 -40.5v-232q0 -23 8 -46.5t25 -38.5t42 -15h41v-91h-41zM322 234q-38 0 -73.5 7t-67.5 21l30 94q28 -16 54 -23.5t57 -7.5t56.5 7.5t54.5 23.5l29 -94q-31 -14 -66 -21t-74 -7z
M101 -229q-20 0 -34.5 7.5t-22.5 18.5t-10 18q29 24 45 51t23 60.5t7 73.5v425q0 28 16.5 41.5t40.5 13.5q25 0 41 -13.5t16 -41.5v-425q0 -40 -7 -80.5t-21.5 -74.5t-37.5 -54t-56 -20zM652 0v91q11 0 15.5 -12t4.5 -33t-4.5 -33.5t-15.5 -12.5zM558 545q-25 0 -43.5 18
t-18.5 44q0 25 18.5 43.5t43.5 18.5q26 0 43.5 -18.5t17.5 -43.5q0 -26 -17.5 -44t-43.5 -18zM402 545q-24 0 -42.5 18t-18.5 44q0 25 18 43.5t43 18.5q26 0 44 -18.5t18 -43.5q0 -26 -18 -44t-44 -18zM480 685q-24 0 -40.5 17t-16.5 41t16.5 40.5t40.5 16.5t40.5 -16.5
t16.5 -40.5t-16.5 -41t-40.5 -17zM166 545q-29 0 -48.5 19.5t-19.5 46.5t19.5 46.5t47.5 19.5q27 0 46.5 -19.5t19.5 -46.5t-19.5 -46.5t-45.5 -19.5z" />
    <glyph glyph-name="uniFC8A" unicode="&#xfc8a;" horiz-adv-x="652" arabic-form="final" 
d="M611 0q-54 0 -97 25t-67.5 68t-24.5 98v232q0 24 13.5 40.5t43.5 16.5t43.5 -16.5t13.5 -40.5v-232q0 -23 8 -46.5t25 -38.5t42 -15h41v-91h-41zM322 234q-38 0 -73.5 7t-67.5 21l30 94q28 -16 54 -23.5t57 -7.5t56.5 7.5t54.5 23.5l29 -94q-31 -14 -66 -21t-74 -7z
M101 -229q-20 0 -34.5 7.5t-22.5 18.5t-10 18q29 24 45 51t23 60.5t7 73.5v425q0 28 16.5 41.5t40.5 13.5q25 0 41 -13.5t16 -41.5v-425q0 -40 -7 -80.5t-21.5 -74.5t-37.5 -54t-56 -20zM652 0v91q11 0 15.5 -12t4.5 -33t-4.5 -33.5t-15.5 -12.5zM481 545q-29 0 -48.5 19.5
t-19.5 46.5t19.5 46.5t47.5 19.5q27 0 46.5 -19.5t19.5 -46.5t-19.5 -46.5t-45.5 -19.5z" />
    <glyph glyph-name="uniFC8B" unicode="&#xfc8b;" horiz-adv-x="652" arabic-form="final" 
d="M611 0q-54 0 -97 25t-67.5 68t-24.5 98v232q0 24 13.5 40.5t43.5 16.5t43.5 -16.5t13.5 -40.5v-232q0 -23 8 -46.5t25 -38.5t42 -15h41v-91h-41zM322 234q-38 0 -73.5 7t-67.5 21l30 94q28 -16 54 -23.5t57 -7.5t56.5 7.5t54.5 23.5l29 -94q-31 -14 -66 -21t-74 -7z
M101 -229q-20 0 -34.5 7.5t-22.5 18.5t-10 18q29 24 45 51t23 60.5t7 73.5v425q0 28 16.5 41.5t40.5 13.5q25 0 41 -13.5t16 -41.5v-425q0 -40 -7 -80.5t-21.5 -74.5t-37.5 -54t-56 -20zM652 0v91q11 0 15.5 -12t4.5 -33t-4.5 -33.5t-15.5 -12.5zM481 545q-29 0 -48.5 19.5
t-19.5 46.5t19.5 46.5t47.5 19.5q27 0 46.5 -19.5t19.5 -46.5t-19.5 -46.5t-45.5 -19.5zM166 545q-29 0 -48.5 19.5t-19.5 46.5t19.5 46.5t47.5 19.5q27 0 46.5 -19.5t19.5 -46.5t-19.5 -46.5t-45.5 -19.5z" />
    <glyph glyph-name="uniFC91" unicode="&#xfc91;" horiz-adv-x="652" arabic-form="final" 
d="M611 0q-54 0 -97 25t-67.5 68t-24.5 98v232q0 24 13.5 40.5t43.5 16.5t43.5 -16.5t13.5 -40.5v-232q0 -23 8 -46.5t25 -38.5t42 -15h41v-91h-41zM322 234q-38 0 -73.5 7t-67.5 21l30 94q28 -16 54 -23.5t57 -7.5t56.5 7.5t54.5 23.5l29 -94q-31 -14 -66 -21t-74 -7z
M101 -229q-20 0 -34.5 7.5t-22.5 18.5t-10 18q29 24 45 51t23 60.5t7 73.5v425q0 28 16.5 41.5t40.5 13.5q25 0 41 -13.5t16 -41.5v-425q0 -40 -7 -80.5t-21.5 -74.5t-37.5 -54t-56 -20zM652 0v91q11 0 15.5 -12t4.5 -33t-4.5 -33.5t-15.5 -12.5zM563 -208q-25 0 -43.5 18.5
t-18.5 43.5q0 26 18.5 44t43.5 18q26 0 43.5 -18t17.5 -44q0 -25 -17.5 -43.5t-43.5 -18.5zM407 -208q-24 0 -42.5 18.5t-18.5 43.5q0 26 18 44t43 18q26 0 44 -18t18 -44q0 -25 -18 -43.5t-44 -18.5z" />
    <glyph glyph-name="uniFC92" unicode="&#xfc92;" horiz-adv-x="652" arabic-form="final" 
d="M611 0q-54 0 -97 25t-67.5 68t-24.5 98v232q0 24 13.5 40.5t43.5 16.5t43.5 -16.5t13.5 -40.5v-232q0 -23 8 -46.5t25 -38.5t42 -15h41v-91h-41zM322 234q-38 0 -73.5 7t-67.5 21l30 94q28 -16 54 -23.5t57 -7.5t56.5 7.5t54.5 23.5l29 -94q-31 -14 -66 -21t-74 -7z
M101 -229q-20 0 -34.5 7.5t-22.5 18.5t-10 18q29 24 45 51t23 60.5t7 73.5v425q0 28 16.5 41.5t40.5 13.5q25 0 41 -13.5t16 -41.5v-425q0 -40 -7 -80.5t-21.5 -74.5t-37.5 -54t-56 -20zM652 0v91q11 0 15.5 -12t4.5 -33t-4.5 -33.5t-15.5 -12.5zM563 -208q-25 0 -43.5 18.5
t-18.5 43.5q0 26 18.5 44t43.5 18q26 0 43.5 -18t17.5 -44q0 -25 -17.5 -43.5t-43.5 -18.5zM407 -208q-24 0 -42.5 18.5t-18.5 43.5q0 26 18 44t43 18q26 0 44 -18t18 -44q0 -25 -18 -43.5t-44 -18.5zM166 545q-29 0 -48.5 19.5t-19.5 46.5t19.5 46.5t47.5 19.5
q27 0 46.5 -19.5t19.5 -46.5t-19.5 -46.5t-45.5 -19.5z" />
    <glyph glyph-name="uniFD0D" unicode="&#xfd0d;" horiz-adv-x="1249" arabic-form="isolated" 
d="M957 0v91h27q20 0 34.5 10t24.5 26t16 37t8.5 44.5t2.5 46.5q0 40 -7 72t-23 59t-45 50q2 8 10 18.5t22.5 18t34.5 7.5q33 0 56 -20t37.5 -53t21.5 -73t7 -81q0 -118 -52.5 -185.5t-147.5 -67.5h-27zM322 234q-38 0 -73.5 7t-67.5 21l30 94q28 -16 54 -23.5t57 -7.5
t56.5 7.5t54.5 23.5l29 -94q-31 -14 -66 -21t-74 -7zM612 0q-54 0 -97 25t-67.5 68t-24.5 98v232q0 24 13.5 40.5t43.5 16.5q29 0 42.5 -16.5t13.5 -40.5v-232q0 -23 8.5 -46.5t25.5 -38.5t42 -15h19v-91h-19zM924 0q-54 0 -97 25t-67.5 68t-24.5 98h114q0 -23 8 -46.5
t25 -38.5t42 -15h33v-91h-33zM631 0v91h29q26 0 42.5 15t24.5 38.5t8 46.5v201q0 24 13.5 40.5t43.5 16.5q29 0 43 -16.5t14 -40.5v-201q0 -55 -24.5 -98t-67 -68t-97.5 -25h-29zM101 -229q-20 0 -34.5 7.5t-22.5 18.5t-10 18q29 24 45 51t23 60.5t7 73.5v425
q0 28 16.5 41.5t40.5 13.5q25 0 41 -13.5t16 -41.5v-425q0 -40 -7 -80.5t-21.5 -74.5t-37.5 -54t-56 -20zM870 545q-25 0 -43.5 18t-18.5 44q0 25 18.5 43.5t43.5 18.5q26 0 43.5 -18.5t17.5 -43.5q0 -26 -17.5 -44t-43.5 -18zM714 545q-24 0 -42.5 18t-18.5 44
q0 25 18 43.5t43 18.5q26 0 44 -18.5t18 -43.5q0 -26 -18 -44t-44 -18zM792 685q-24 0 -40.5 17t-16.5 41t16.5 40.5t40.5 16.5t40.5 -16.5t16.5 -40.5t-16.5 -41t-40.5 -17z" />
    <glyph glyph-name="uniFD0E" unicode="&#xfd0e;" horiz-adv-x="1249" arabic-form="isolated" 
d="M957 0v91h27q20 0 34.5 10t24.5 26t16 37t8.5 44.5t2.5 46.5q0 40 -7 72t-23 59t-45 50q2 8 10 18.5t22.5 18t34.5 7.5q33 0 56 -20t37.5 -53t21.5 -73t7 -81q0 -118 -52.5 -185.5t-147.5 -67.5h-27zM322 234q-38 0 -73.5 7t-67.5 21l30 94q28 -16 54 -23.5t57 -7.5
t56.5 7.5t54.5 23.5l29 -94q-31 -14 -66 -21t-74 -7zM612 0q-54 0 -97 25t-67.5 68t-24.5 98v232q0 24 13.5 40.5t43.5 16.5q29 0 42.5 -16.5t13.5 -40.5v-232q0 -23 8.5 -46.5t25.5 -38.5t42 -15h19v-91h-19zM924 0q-54 0 -97 25t-67.5 68t-24.5 98h114q0 -23 8 -46.5
t25 -38.5t42 -15h33v-91h-33zM631 0v91h29q26 0 42.5 15t24.5 38.5t8 46.5v201q0 24 13.5 40.5t43.5 16.5q29 0 43 -16.5t14 -40.5v-201q0 -55 -24.5 -98t-67 -68t-97.5 -25h-29zM101 -229q-20 0 -34.5 7.5t-22.5 18.5t-10 18q29 24 45 51t23 60.5t7 73.5v425
q0 28 16.5 41.5t40.5 13.5q25 0 41 -13.5t16 -41.5v-425q0 -40 -7 -80.5t-21.5 -74.5t-37.5 -54t-56 -20z" />
    <glyph glyph-name="uniFD0F" unicode="&#xfd0f;" horiz-adv-x="1118" arabic-form="isolated" 
d="M423 0v91h437q35 0 56.5 29t21.5 95q0 92 -43 133t-118 41q-60 0 -101 -21t-68 -54t-44 -71t-28 -73l-54 8q13 51 28.5 96.5t37 83t52 65t73 42.5t101.5 15q131 0 204.5 -70t73.5 -194q0 -101 -51 -158.5t-141 -57.5h-437zM322 234q-38 0 -73.5 7t-67.5 21l30 94
q28 -16 54 -23.5t57 -7.5t56.5 7.5t54.5 23.5l29 -94q-31 -14 -66 -21t-74 -7zM423 0v423q0 24 13.5 40.5t43.5 16.5q29 0 42.5 -16.5t13.5 -40.5v-423h-113zM101 -229q-20 0 -34.5 7.5t-22.5 18.5t-10 18q29 24 45 51t23 60.5t7 73.5v425q0 28 16.5 41.5t40.5 13.5
q25 0 41 -13.5t16 -41.5v-425q0 -40 -7 -80.5t-21.5 -74.5t-37.5 -54t-56 -20z" />
    <glyph glyph-name="uniFD10" unicode="&#xfd10;" horiz-adv-x="1118" arabic-form="isolated" 
d="M423 0v91h437q35 0 56.5 29t21.5 95q0 92 -43 133t-118 41q-60 0 -101 -21t-68 -54t-44 -71t-28 -73l-54 8q13 51 28.5 96.5t37 83t52 65t73 42.5t101.5 15q131 0 204.5 -70t73.5 -194q0 -101 -51 -158.5t-141 -57.5h-437zM322 234q-38 0 -73.5 7t-67.5 21l30 94
q28 -16 54 -23.5t57 -7.5t56.5 7.5t54.5 23.5l29 -94q-31 -14 -66 -21t-74 -7zM423 0v423q0 24 13.5 40.5t43.5 16.5q29 0 42.5 -16.5t13.5 -40.5v-423h-113zM101 -229q-20 0 -34.5 7.5t-22.5 18.5t-10 18q29 24 45 51t23 60.5t7 73.5v425q0 28 16.5 41.5t40.5 13.5
q25 0 41 -13.5t16 -41.5v-425q0 -40 -7 -80.5t-21.5 -74.5t-37.5 -54t-56 -20zM738 545q-29 0 -48.5 19.5t-19.5 46.5t19.5 46.5t47.5 19.5q27 0 46.5 -19.5t19.5 -46.5t-19.5 -46.5t-45.5 -19.5z" />
    <glyph glyph-name="uniFD29" unicode="&#xfd29;" horiz-adv-x="1281" arabic-form="final" 
d="M947 0v91h25q26 0 42.5 15t24.5 38.5t8 46.5v232q0 24 13.5 40.5t43.5 16.5t43.5 -16.5t13.5 -40.5v-232q0 -55 -24.5 -98t-67 -68t-97.5 -25h-25zM612 0q-54 0 -97 25t-67.5 68t-24.5 98v232q0 24 13.5 40.5t43.5 16.5q29 0 42.5 -16.5t13.5 -40.5v-232q0 -23 8.5 -46.5
t25.5 -38.5t42 -15h19v-91h-19zM322 234q-38 0 -73.5 7t-67.5 21l30 94q28 -16 54 -23.5t57 -7.5t56.5 7.5t54.5 23.5l29 -94q-31 -14 -66 -21t-74 -7zM924 0q-54 0 -97 25t-67.5 68t-24.5 98h114q0 -24 8 -47t25 -38t42 -15h23v-91h-23zM631 0v91h29q26 0 42.5 15
t24.5 38.5t8 46.5v201q0 24 13.5 40.5t43.5 16.5q29 0 43 -16.5t14 -40.5v-201q0 -55 -24.5 -98t-67 -68t-97.5 -25h-29zM1236 0q-54 0 -97 25t-67.5 68t-24.5 98h114q0 -23 8 -46.5t25 -38.5t42 -15h45v-91h-45zM101 -229q-20 0 -34.5 7.5t-22.5 18.5t-10 18q29 24 45 51
t23 60.5t7 73.5v425q0 28 16.5 41.5t40.5 13.5q25 0 41 -13.5t16 -41.5v-425q0 -40 -7 -80.5t-21.5 -74.5t-37.5 -54t-56 -20zM1281 0v91q11 0 15.5 -12t4.5 -33t-4.5 -33.5t-15.5 -12.5zM870 545q-25 0 -43.5 18t-18.5 44q0 25 18.5 43.5t43.5 18.5q26 0 43.5 -18.5
t17.5 -43.5q0 -26 -17.5 -44t-43.5 -18zM714 545q-24 0 -42.5 18t-18.5 44q0 25 18 43.5t43 18.5q26 0 44 -18.5t18 -43.5q0 -26 -18 -44t-44 -18zM792 685q-24 0 -40.5 17t-16.5 41t16.5 40.5t40.5 16.5t40.5 -16.5t16.5 -40.5t-16.5 -41t-40.5 -17z" />
    <glyph glyph-name="uniFD2A" unicode="&#xfd2a;" horiz-adv-x="1281" arabic-form="final" 
d="M947 0v91h25q26 0 42.5 15t24.5 38.5t8 46.5v232q0 24 13.5 40.5t43.5 16.5t43.5 -16.5t13.5 -40.5v-232q0 -55 -24.5 -98t-67 -68t-97.5 -25h-25zM612 0q-54 0 -97 25t-67.5 68t-24.5 98v232q0 24 13.5 40.5t43.5 16.5q29 0 42.5 -16.5t13.5 -40.5v-232q0 -23 8.5 -46.5
t25.5 -38.5t42 -15h19v-91h-19zM322 234q-38 0 -73.5 7t-67.5 21l30 94q28 -16 54 -23.5t57 -7.5t56.5 7.5t54.5 23.5l29 -94q-31 -14 -66 -21t-74 -7zM924 0q-54 0 -97 25t-67.5 68t-24.5 98h114q0 -24 8 -47t25 -38t42 -15h23v-91h-23zM631 0v91h29q26 0 42.5 15
t24.5 38.5t8 46.5v201q0 24 13.5 40.5t43.5 16.5q29 0 43 -16.5t14 -40.5v-201q0 -55 -24.5 -98t-67 -68t-97.5 -25h-29zM1236 0q-54 0 -97 25t-67.5 68t-24.5 98h114q0 -23 8 -46.5t25 -38.5t42 -15h45v-91h-45zM101 -229q-20 0 -34.5 7.5t-22.5 18.5t-10 18q29 24 45 51
t23 60.5t7 73.5v425q0 28 16.5 41.5t40.5 13.5q25 0 41 -13.5t16 -41.5v-425q0 -40 -7 -80.5t-21.5 -74.5t-37.5 -54t-56 -20zM1281 0v91q11 0 15.5 -12t4.5 -33t-4.5 -33.5t-15.5 -12.5z" />
    <glyph glyph-name="uniFD2B" unicode="&#xfd2b;" horiz-adv-x="1172" arabic-form="final" 
d="M1127 0q-54 0 -97 25t-67.5 68t-24.5 98l114 25v-25q0 -23 8 -46.5t25 -38.5t42 -15h45v-91h-45zM423 0v91h437q35 0 56.5 29t21.5 95q0 92 -43 133t-118 41q-60 0 -101 -21t-68 -54t-44 -71t-28 -73l-54 8q13 51 28.5 96.5t37 83t52 65t73 42.5t101.5 15
q131 0 204.5 -70t73.5 -194q0 -101 -51 -158.5t-141 -57.5h-437zM322 234q-38 0 -73.5 7t-67.5 21l30 94q28 -16 54 -23.5t57 -7.5t56.5 7.5t54.5 23.5l29 -94q-31 -14 -66 -21t-74 -7zM423 0v423q0 24 13.5 40.5t43.5 16.5q29 0 42.5 -16.5t13.5 -40.5v-423h-113zM101 -229
q-20 0 -34.5 7.5t-22.5 18.5t-10 18q29 24 45 51t23 60.5t7 73.5v425q0 28 16.5 41.5t40.5 13.5q25 0 41 -13.5t16 -41.5v-425q0 -40 -7 -80.5t-21.5 -74.5t-37.5 -54t-56 -20zM1172 0v91q11 0 15.5 -12t4.5 -33t-4.5 -33.5t-15.5 -12.5z" />
    <glyph glyph-name="uniFD2C" unicode="&#xfd2c;" horiz-adv-x="1172" arabic-form="final" 
d="M1127 0q-54 0 -97 25t-67.5 68t-24.5 98l114 25v-25q0 -23 8 -46.5t25 -38.5t42 -15h45v-91h-45zM423 0v91h437q35 0 56.5 29t21.5 95q0 92 -43 133t-118 41q-60 0 -101 -21t-68 -54t-44 -71t-28 -73l-54 8q13 51 28.5 96.5t37 83t52 65t73 42.5t101.5 15
q131 0 204.5 -70t73.5 -194q0 -101 -51 -158.5t-141 -57.5h-437zM322 234q-38 0 -73.5 7t-67.5 21l30 94q28 -16 54 -23.5t57 -7.5t56.5 7.5t54.5 23.5l29 -94q-31 -14 -66 -21t-74 -7zM423 0v423q0 24 13.5 40.5t43.5 16.5q29 0 42.5 -16.5t13.5 -40.5v-423h-113zM101 -229
q-20 0 -34.5 7.5t-22.5 18.5t-10 18q29 24 45 51t23 60.5t7 73.5v425q0 28 16.5 41.5t40.5 13.5q25 0 41 -13.5t16 -41.5v-425q0 -40 -7 -80.5t-21.5 -74.5t-37.5 -54t-56 -20zM1172 0v91q11 0 15.5 -12t4.5 -33t-4.5 -33.5t-15.5 -12.5zM738 545q-29 0 -48.5 19.5
t-19.5 46.5t19.5 46.5t47.5 19.5q27 0 46.5 -19.5t19.5 -46.5t-19.5 -46.5t-45.5 -19.5z" />
    <glyph glyph-name="uniFE82" unicode="&#x622;" horiz-adv-x="317" arabic-form="final" 
d="M289 0q-55 0 -97.5 25t-67 68t-24.5 98v260q0 34 -9 53.5t-21 29.5t-20 15q2 7 10 19t24 21t40 9q25 0 45 -13t32 -38.5t12 -64.5v-291q0 -23 8 -46.5t25 -38.5t43 -15h28v-91h-28zM317 0v91q12 0 16 -12t4 -33t-4 -33.5t-16 -12.5zM185 640q-32 0 -57 11t-48 21.5
t-48 10.5q-21 0 -29 -8t-19 -8q-8 0 -8.5 11.5t8.5 27t28 27t49 11.5q28 0 54 -9t50 -19t48 -10q17 0 26 5t14.5 9.5t12.5 4.5q7 -1 7.5 -13.5t-8 -29t-28 -29.5t-52.5 -13z" />
    <glyph glyph-name="uniFE84" unicode="&#x623;" horiz-adv-x="317" arabic-form="final" 
d="M289 0q-55 0 -97.5 25t-67 68t-24.5 98v260q0 34 -9 53.5t-21 29.5t-20 15q2 7 10 19t24 21t40 9q25 0 45 -13t32 -38.5t12 -64.5v-291q0 -23 8 -46.5t25 -38.5t43 -15h28v-91h-28zM317 0v91q12 0 16 -12t4 -33t-4 -33.5t-16 -12.5zM40 634q-11 7 -15 18t-1 21t14.5 16.5
t31.5 4.5q-12 8 -25 28t-13 46q0 23 11.5 45.5t35.5 36.5t60 14q24 0 38.5 -6.5t20.5 -16.5t6 -24q0 -18 -9 -25.5t-20.5 -7t-21.5 4.5q1 15 -8 27t-24 13q-7 -5 -15.5 -18.5t-8.5 -33.5q0 -23 10.5 -38t27.5 -22.5t35 -7.5q12 0 21.5 2t15.5 3q15 0 19.5 -12t0.5 -23.5
t-13 -12.5q-12 -1 -33 -2.5t-44.5 -4t-45.5 -6t-36.5 -8.5t-14.5 -11z" />
    <glyph glyph-name="uniFE86" unicode="&#x624;" horiz-adv-x="555" arabic-form="final" 
d="M468 0v91h87v-91h-87zM269 0q-58 0 -105.5 28.5t-74.5 82.5t-27 130q0 113 62.5 176t168.5 63q78 0 126.5 -31.5t48.5 -79.5v-369h-113v369q-4 9 -20 14.5t-42 5.5q-58 0 -87.5 -36t-29.5 -112q0 -72 29 -111t84 -39h179v-91h-199zM346 -229q-20 0 -34 7.5t-22 18.5
t-10 18q29 24 45 51t23 60.5t7 73.5v91h113v-91q0 -40 -6.5 -80.5t-21 -74.5t-37.5 -54t-57 -20zM555 0v91q11 0 15.5 -12t4.5 -33t-4.5 -33.5t-15.5 -12.5zM181 539q-11 7 -15 18t-1 21t14.5 16.5t31.5 4.5q-12 8 -25 28t-13 46q0 23 11.5 45.5t35.5 36.5t60 14
q24 0 38.5 -6.5t20.5 -16.5t6 -24q0 -18 -9 -25.5t-20.5 -7t-21.5 4.5q1 15 -8 27t-24 13q-7 -5 -15.5 -18.5t-8.5 -33.5q0 -23 10.5 -38t27.5 -22.5t35 -7.5q12 0 21.5 2t15.5 3q15 0 19.5 -12t0.5 -23.5t-13 -12.5q-12 -1 -33 -2.5t-44.5 -4t-45.5 -6t-36.5 -8.5
t-14.5 -11z" />
    <glyph glyph-name="uniFE88" unicode="&#x625;" horiz-adv-x="317" arabic-form="final" 
d="M289 0q-55 0 -97.5 25t-67 68t-24.5 98v322q0 34 -9 53.5t-21 29.5t-20 15q2 7 10 18.5t24 21t40 9.5q25 0 45 -13t32 -39t12 -64v-353q0 -23 8 -46.5t25 -38.5t43 -15h28v-91h-28zM317 0v91q12 0 16 -12t4 -33t-4 -33.5t-16 -12.5zM74 -279q-11 6 -15 17t-0.5 21.5
t14.5 16.5t31 5q-11 8 -24 27.5t-13 45.5q0 23 11.5 45.5t35.5 36.5t61 14q23 0 37.5 -6t21 -16.5t6.5 -23.5q0 -18 -9.5 -25.5t-21 -7.5t-21.5 5q1 15 -7.5 27t-24.5 13q-8 -5 -16 -18.5t-8 -34.5q0 -22 10.5 -37t27.5 -23t35 -8q12 0 21.5 2.5t15.5 2.5q15 0 19.5 -11.5
t0.5 -23.5t-13 -12q-12 -1 -33 -3t-44.5 -4.5t-45.5 -6t-36.5 -8t-15.5 -10.5z" />
    <glyph glyph-name="uniFE8A" unicode="&#x626;" horiz-adv-x="910" arabic-form="final" 
d="M428 -236q-113 0 -194 33t-125 96.5t-44 155.5q0 35 7 71t21 66.5t35.5 49.5t51.5 19q20 0 33.5 -8t21.5 -18t10 -19q-26 -21 -46 -59.5t-20 -102.5q0 -34 9.5 -68t36 -62t75.5 -45.5t129 -17.5q78 0 129 17t79.5 43t40 55t11.5 53l114 7q0 -83 -47.5 -142.5t-132 -91.5
t-195.5 -32zM655 0q-40 0 -62.5 12t-32 31t-8 40t9.5 39q11 -10 35 -20.5t57 -10.5h256v-91h-255zM910 0v91q12 0 16 -12t4 -33t-4 -33.5t-16 -12.5zM103 323q-11 7 -15 18t-1 21t14.5 16.5t31.5 4.5q-12 8 -25 28t-13 46q0 23 11.5 45.5t35.5 36.5t60 14q24 0 38.5 -6.5
t20.5 -16.5t6 -24q0 -18 -9 -25.5t-20.5 -7t-21.5 4.5q1 15 -8 27t-24 13q-7 -5 -15.5 -18.5t-8.5 -33.5q0 -23 10.5 -38t27.5 -22.5t35 -7.5q12 0 21.5 2t15.5 3q15 0 19.5 -12t0.5 -23.5t-13 -12.5q-12 -1 -33 -2.5t-44.5 -4t-45.5 -6t-36.5 -8.5t-14.5 -11z" />
    <glyph glyph-name="uniFE8B" unicode="&#x626;" horiz-adv-x="346" arabic-form="initial" 
d="M0 0v91h82q19 0 33.5 10t24.5 26t16.5 37t9 44.5t2.5 46.5q0 40 -7.5 72t-23.5 59t-44 50q2 8 10 18.5t22.5 18t34.5 7.5q32 0 55.5 -20t37.5 -53t21 -73t7 -81q0 -118 -52.5 -185.5t-146.5 -67.5h-82zM0 0q-11 0 -15.5 12.5t-4.5 33.5t4.5 33t15.5 12v-91zM76 539
q-11 7 -15 18t-1 21t14.5 16.5t31.5 4.5q-12 8 -25 28t-13 46q0 23 11.5 45.5t35.5 36.5t60 14q24 0 38.5 -6.5t20.5 -16.5t6 -24q0 -18 -9 -25.5t-20.5 -7t-21.5 4.5q1 15 -8 27t-24 13q-7 -5 -15.5 -18.5t-8.5 -33.5q0 -23 10.5 -38t27.5 -22.5t35 -7.5q12 0 21.5 2
t15.5 3q15 0 19.5 -12t0.5 -23.5t-13 -12.5q-12 -1 -33 -2.5t-44.5 -4t-45.5 -6t-36.5 -8.5t-14.5 -11z" />
    <glyph glyph-name="uniFE8C" unicode="&#x626;" horiz-adv-x="350" arabic-form="medial" 
d="M0 0v91h40q27 0 43.5 15t24.5 38.5t8 46.5v232q0 24 13.5 40.5t43.5 16.5q29 0 42.5 -16.5t13.5 -40.5v-232q0 -55 -24.5 -98t-66.5 -68t-98 -25h-40zM305 0q-55 0 -97.5 25t-67 68t-24.5 98h113q0 -23 8 -46.5t25.5 -38.5t42.5 -15h45v-91h-45zM350 0v91q11 0 15.5 -12
t4.5 -33t-4.5 -33.5t-15.5 -12.5zM0 0q-11 0 -15.5 12.5t-4.5 33.5t4.5 33t15.5 12v-91zM88 539q-11 7 -15 18t-1 21t14.5 16.5t31.5 4.5q-12 8 -25 28t-13 46q0 23 11.5 45.5t35.5 36.5t60 14q24 0 38.5 -6.5t20.5 -16.5t6 -24q0 -18 -9 -25.5t-20.5 -7t-21.5 4.5
q1 15 -8 27t-24 13q-7 -5 -15.5 -18.5t-8.5 -33.5q0 -23 10.5 -38t27.5 -22.5t35 -7.5q12 0 21.5 2t15.5 3q15 0 19.5 -12t0.5 -23.5t-13 -12.5q-12 -1 -33 -2.5t-44.5 -4t-45.5 -6t-36.5 -8.5t-14.5 -11z" />
    <glyph glyph-name="uniFE8E" unicode="&#x627;" horiz-adv-x="317" arabic-form="final" 
d="M289 0q-55 0 -97.5 25t-67 68t-24.5 98v322q0 34 -9 53.5t-21 29.5t-20 15q2 7 10 18.5t24 21t40 9.5q25 0 45 -13t32 -39t12 -64v-353q0 -23 8 -46.5t25 -38.5t43 -15h28v-91h-28zM317 0v91q12 0 16 -12t4 -33t-4 -33.5t-16 -12.5z" />
    <glyph glyph-name="uniFE90" unicode="&#x628;" horiz-adv-x="833" arabic-form="final" 
d="M804 0q-54 0 -97 25t-67.5 68t-24.5 98h114q0 -23 8 -46.5t25 -38.5t42 -15h29v-91h-29zM264 0q-94 0 -146.5 67.5t-52.5 185.5q0 41 7 81t21 73t37.5 53t55.5 20q21 0 35 -7.5t22.5 -18t10.5 -18.5q-28 -23 -44.5 -50t-23.5 -59t-7 -72q0 -23 2.5 -46.5t8.5 -44.5
t16 -37t24.5 -26t33.5 -10h276q26 0 42.5 15t24.5 38.5t8 46.5v181q0 25 13.5 42t43.5 17q29 0 43 -17t14 -42v-181q0 -55 -24.5 -98t-67 -68t-97.5 -25h-276zM833 0v91q11 0 15.5 -12t4.5 -33t-4.5 -33.5t-15.5 -12.5zM398 -212q-29 0 -48.5 19.5t-19.5 46.5t19.5 46.5
t47.5 19.5q27 0 46.5 -19.5t19.5 -46.5t-19.5 -46.5t-45.5 -19.5z" />
    <glyph glyph-name="uniFE91" unicode="&#x628;" horiz-adv-x="346" arabic-form="initial" 
d="M0 0v91h82q19 0 33.5 10t24.5 26t16.5 37t9 44.5t2.5 46.5q0 40 -7.5 72t-23.5 59t-44 50q2 8 10 18.5t22.5 18t34.5 7.5q32 0 55.5 -20t37.5 -53t21 -73t7 -81q0 -118 -52.5 -185.5t-146.5 -67.5h-82zM0 0q-11 0 -15.5 12.5t-4.5 33.5t4.5 33t15.5 12v-91zM162 -212
q-29 0 -48.5 19.5t-19.5 46.5t19.5 46.5t47.5 19.5q27 0 46.5 -19.5t19.5 -46.5t-19.5 -46.5t-45.5 -19.5z" />
    <glyph glyph-name="uniFE92" unicode="&#x628;" horiz-adv-x="350" arabic-form="medial" 
d="M0 0v91h40q27 0 43.5 15t24.5 38.5t8 46.5v232q0 24 13.5 40.5t43.5 16.5q29 0 42.5 -16.5t13.5 -40.5v-232q0 -55 -24.5 -98t-66.5 -68t-98 -25h-40zM305 0q-55 0 -97.5 25t-67 68t-24.5 98h113q0 -23 8 -46.5t25.5 -38.5t42.5 -15h45v-91h-45zM350 0v91q11 0 15.5 -12
t4.5 -33t-4.5 -33.5t-15.5 -12.5zM0 0q-11 0 -15.5 12.5t-4.5 33.5t4.5 33t15.5 12v-91zM174 -212q-29 0 -48.5 19.5t-19.5 46.5t19.5 46.5t47.5 19.5q27 0 46.5 -19.5t19.5 -46.5t-19.5 -46.5t-45.5 -19.5z" />
    <glyph glyph-name="uniFE94" unicode="&#x629;" horiz-adv-x="525" arabic-form="final" 
d="M269 0q-58 0 -105.5 28.5t-74.5 82.5t-27 130q0 113 62.5 176t168.5 63q78 0 126.5 -31.5t48.5 -79.5v-369h-113v369q-4 9 -20 14.5t-42 5.5q-58 0 -87.5 -36t-29.5 -112q0 -72 29 -111t84 -39h236v-91h-256zM525 0v91q12 0 16 -12t4 -33t-4 -33.5t-16 -12.5zM346 548
q-25 0 -43.5 18t-18.5 43q0 26 18.5 44.5t43.5 18.5q26 0 43.5 -18.5t17.5 -44.5q0 -25 -17.5 -43t-43.5 -18zM190 548q-24 0 -42.5 18t-18.5 43q0 26 18 44.5t43 18.5q26 0 44 -18.5t18 -44.5q0 -25 -18 -43t-44 -18z" />
    <glyph glyph-name="uniFE96" unicode="&#x62a;" horiz-adv-x="833" arabic-form="final" 
d="M804 0q-54 0 -97 25t-67.5 68t-24.5 98h114q0 -23 8 -46.5t25 -38.5t42 -15h29v-91h-29zM264 0q-94 0 -146.5 67.5t-52.5 185.5q0 41 7 81t21 73t37.5 53t55.5 20q21 0 35 -7.5t22.5 -18t10.5 -18.5q-28 -23 -44.5 -50t-23.5 -59t-7 -72q0 -23 2.5 -46.5t8.5 -44.5
t16 -37t24.5 -26t33.5 -10h276q26 0 42.5 15t24.5 38.5t8 46.5v181q0 25 13.5 42t43.5 17q29 0 43 -17t14 -42v-181q0 -55 -24.5 -98t-67 -68t-97.5 -25h-276zM833 0v91q11 0 15.5 -12t4.5 -33t-4.5 -33.5t-15.5 -12.5zM475 503q-25 0 -43.5 18t-18.5 43q0 26 18.5 44.5
t43.5 18.5q26 0 43.5 -18.5t17.5 -44.5q0 -25 -17.5 -43t-43.5 -18zM319 503q-24 0 -42.5 18t-18.5 43q0 26 18 44.5t43 18.5q26 0 44 -18.5t18 -44.5q0 -25 -18 -43t-44 -18z" />
    <glyph glyph-name="uniFE97" unicode="&#x62a;" horiz-adv-x="346" arabic-form="initial" 
d="M0 0v91h82q19 0 33.5 10t24.5 26t16.5 37t9 44.5t2.5 46.5q0 40 -7.5 72t-23.5 59t-44 50q2 8 10 18.5t22.5 18t34.5 7.5q32 0 55.5 -20t37.5 -53t21 -73t7 -81q0 -118 -52.5 -185.5t-146.5 -67.5h-82zM0 0q-11 0 -15.5 12.5t-4.5 33.5t4.5 33t15.5 12v-91zM239 548
q-25 0 -43.5 18t-18.5 43q0 26 18.5 44.5t43.5 18.5q26 0 43.5 -18.5t17.5 -44.5q0 -25 -17.5 -43t-43.5 -18zM83 548q-24 0 -42.5 18t-18.5 43q0 26 18 44.5t43 18.5q26 0 44 -18.5t18 -44.5q0 -25 -18 -43t-44 -18z" />
    <glyph glyph-name="uniFE98" unicode="&#x62a;" horiz-adv-x="350" arabic-form="medial" 
d="M0 0v91h40q27 0 43.5 15t24.5 38.5t8 46.5v232q0 24 13.5 40.5t43.5 16.5q29 0 42.5 -16.5t13.5 -40.5v-232q0 -55 -24.5 -98t-66.5 -68t-98 -25h-40zM305 0q-55 0 -97.5 25t-67 68t-24.5 98h113q0 -23 8 -46.5t25.5 -38.5t42.5 -15h45v-91h-45zM350 0v91q11 0 15.5 -12
t4.5 -33t-4.5 -33.5t-15.5 -12.5zM0 0q-11 0 -15.5 12.5t-4.5 33.5t4.5 33t15.5 12v-91zM251 548q-25 0 -43.5 18t-18.5 43q0 26 18.5 44.5t43.5 18.5q26 0 43.5 -18.5t17.5 -44.5q0 -25 -17.5 -43t-43.5 -18zM95 548q-24 0 -42.5 18t-18.5 43q0 26 18 44.5t43 18.5
q26 0 44 -18.5t18 -44.5q0 -25 -18 -43t-44 -18z" />
    <glyph glyph-name="uniFE9A" unicode="&#x62b;" horiz-adv-x="833" arabic-form="final" 
d="M804 0q-54 0 -97 25t-67.5 68t-24.5 98h114q0 -23 8 -46.5t25 -38.5t42 -15h29v-91h-29zM264 0q-94 0 -146.5 67.5t-52.5 185.5q0 41 7 81t21 73t37.5 53t55.5 20q21 0 35 -7.5t22.5 -18t10.5 -18.5q-28 -23 -44.5 -50t-23.5 -59t-7 -72q0 -23 2.5 -46.5t8.5 -44.5
t16 -37t24.5 -26t33.5 -10h276q26 0 42.5 15t24.5 38.5t8 46.5v181q0 25 13.5 42t43.5 17q29 0 43 -17t14 -42v-181q0 -55 -24.5 -98t-67 -68t-97.5 -25h-276zM833 0v91q11 0 15.5 -12t4.5 -33t-4.5 -33.5t-15.5 -12.5zM475 500q-25 0 -43.5 18t-18.5 44q0 25 18.5 43.5
t43.5 18.5q26 0 43.5 -18.5t17.5 -43.5q0 -26 -17.5 -44t-43.5 -18zM319 500q-24 0 -42.5 18t-18.5 44q0 25 18 43.5t43 18.5q26 0 44 -18.5t18 -43.5q0 -26 -18 -44t-44 -18zM397 640q-24 0 -40.5 17t-16.5 41t16.5 40.5t40.5 16.5t40.5 -16.5t16.5 -40.5t-16.5 -41
t-40.5 -17z" />
    <glyph glyph-name="uniFE9B" unicode="&#x62b;" horiz-adv-x="346" arabic-form="initial" 
d="M0 0v91h82q19 0 33.5 10t24.5 26t16.5 37t9 44.5t2.5 46.5q0 40 -7.5 72t-23.5 59t-44 50q2 8 10 18.5t22.5 18t34.5 7.5q32 0 55.5 -20t37.5 -53t21 -73t7 -81q0 -118 -52.5 -185.5t-146.5 -67.5h-82zM0 0q-11 0 -15.5 12.5t-4.5 33.5t4.5 33t15.5 12v-91zM239 545
q-25 0 -43.5 18t-18.5 44q0 25 18.5 43.5t43.5 18.5q26 0 43.5 -18.5t17.5 -43.5q0 -26 -17.5 -44t-43.5 -18zM83 545q-24 0 -42.5 18t-18.5 44q0 25 18 43.5t43 18.5q26 0 44 -18.5t18 -43.5q0 -26 -18 -44t-44 -18zM161 685q-24 0 -40.5 17t-16.5 41t16.5 40.5t40.5 16.5
t40.5 -16.5t16.5 -40.5t-16.5 -41t-40.5 -17z" />
    <glyph glyph-name="uniFE9C" unicode="&#x62b;" horiz-adv-x="350" arabic-form="medial" 
d="M0 0v91h40q27 0 43.5 15t24.5 38.5t8 46.5v232q0 24 13.5 40.5t43.5 16.5q29 0 42.5 -16.5t13.5 -40.5v-232q0 -55 -24.5 -98t-66.5 -68t-98 -25h-40zM305 0q-55 0 -97.5 25t-67 68t-24.5 98h113q0 -23 8 -46.5t25.5 -38.5t42.5 -15h45v-91h-45zM350 0v91q11 0 15.5 -12
t4.5 -33t-4.5 -33.5t-15.5 -12.5zM0 0q-11 0 -15.5 12.5t-4.5 33.5t4.5 33t15.5 12v-91zM251 545q-25 0 -43.5 18t-18.5 44q0 25 18.5 43.5t43.5 18.5q26 0 43.5 -18.5t17.5 -43.5q0 -26 -17.5 -44t-43.5 -18zM95 545q-24 0 -42.5 18t-18.5 44q0 25 18 43.5t43 18.5
q26 0 44 -18.5t18 -43.5q0 -26 -18 -44t-44 -18zM173 685q-24 0 -40.5 17t-16.5 41t16.5 40.5t40.5 16.5t40.5 -16.5t16.5 -40.5t-16.5 -41t-40.5 -17z" />
    <glyph glyph-name="uniFE9E" unicode="&#x62c;" horiz-adv-x="697" arabic-form="final" 
d="M652 0q-54 0 -97 25t-67.5 68t-24.5 98v21h114v-21q0 -23 8 -46.5t25 -38.5t42 -15h45v-91h-45zM174 -267q-31 0 -53.5 19t-36 50.5t-20 70t-6.5 76.5q0 75 33.5 108.5t96.5 33.5h200q36 0 55.5 27t19.5 92q0 95 -44 137t-131 42q-15 0 -33 -0.5t-34.5 -1.5t-28.5 -1
q-30 0 -48.5 12t-27.5 32.5t-11 42.5q-1 17 3.5 26.5t9.5 10.5q7 -12 26 -22.5t54 -10.5q10 0 26 1t33.5 1.5t29.5 0.5q77 0 132 -21t90 -58t51.5 -86t16.5 -104q0 -77 -27.5 -123.5t-70.5 -67t-91 -20.5h-259l50 34q-4 -19 -6 -38.5t-2 -38.5q0 -39 7 -71.5t23.5 -59
t44.5 -50.5q-1 -7 -11 -17.5t-25.5 -18t-35.5 -7.5zM697 0v91q12 0 16 -12t4 -33t-4 -33.5t-16 -12.5zM345 -182q-29 0 -48.5 19.5t-19.5 46.5t19.5 46.5t47.5 19.5q27 0 46.5 -19.5t19.5 -46.5t-19.5 -46.5t-45.5 -19.5z" />
    <glyph glyph-name="uniFE9F" unicode="&#x62c;" horiz-adv-x="559" arabic-form="initial" 
d="M0 0v91h311q36 0 55.5 27t19.5 92q0 95 -44 137t-131 42q-15 0 -33 -0.5t-34.5 -1.5t-29.5 -1q-29 0 -47.5 12t-27.5 32.5t-11 42.5q-1 17 3.5 26.5t9.5 10.5q7 -12 26 -22.5t54 -10.5q10 0 26 1t33.5 1.5t29.5 0.5q77 0 132 -21t90 -58t51.5 -86t16.5 -104
q0 -77 -27.5 -123.5t-70.5 -67t-91 -20.5h-311zM0 0q-11 0 -15.5 12.5t-4.5 33.5t4.5 33t15.5 12v-91zM228 -212q-29 0 -48.5 19.5t-19.5 46.5t19.5 46.5t47.5 19.5q27 0 46.5 -19.5t19.5 -46.5t-19.5 -46.5t-45.5 -19.5z" />
    <glyph glyph-name="uniFEA0" unicode="&#x62c;" horiz-adv-x="620" arabic-form="medial" 
d="M575 0q-54 0 -97 25t-67.5 68t-24.5 98v21h114v-21q0 -23 8 -46.5t25 -38.5t42 -15h45v-91h-45zM0 0v91h311q36 0 55.5 27t19.5 92q0 95 -44 137t-131 42q-15 0 -33 -0.5t-34.5 -1.5t-29.5 -1q-29 0 -47.5 12t-27.5 32.5t-11 42.5q-1 17 3.5 26.5t9.5 10.5
q7 -12 26 -22.5t54 -10.5q10 0 26 1t33.5 1.5t29.5 0.5q77 0 132 -21t90 -58t51.5 -86t16.5 -104q0 -77 -27.5 -123.5t-70.5 -67t-91 -20.5h-311zM0 0q-11 0 -15.5 12.5t-4.5 33.5t4.5 33t15.5 12v-91zM620 0v91q12 0 16 -12t4 -33t-4 -33.5t-16 -12.5zM228 -212
q-29 0 -48.5 19.5t-19.5 46.5t19.5 46.5t47.5 19.5q27 0 46.5 -19.5t19.5 -46.5t-19.5 -46.5t-45.5 -19.5z" />
    <glyph glyph-name="uniFEA2" unicode="&#x62d;" horiz-adv-x="697" arabic-form="final" 
d="M652 0q-54 0 -97 25t-67.5 68t-24.5 98v21h114v-21q0 -23 8 -46.5t25 -38.5t42 -15h45v-91h-45zM174 -267q-31 0 -53.5 19t-36 50.5t-20 70t-6.5 76.5q0 75 33.5 108.5t96.5 33.5h200q36 0 55.5 27t19.5 92q0 95 -44 137t-131 42q-15 0 -33 -0.5t-34.5 -1.5t-28.5 -1
q-30 0 -48.5 12t-27.5 32.5t-11 42.5q-1 17 3.5 26.5t9.5 10.5q7 -12 26 -22.5t54 -10.5q10 0 26 1t33.5 1.5t29.5 0.5q77 0 132 -21t90 -58t51.5 -86t16.5 -104q0 -77 -27.5 -123.5t-70.5 -67t-91 -20.5h-259l50 34q-4 -19 -6 -38.5t-2 -38.5q0 -39 7 -71.5t23.5 -59
t44.5 -50.5q-1 -7 -11 -17.5t-25.5 -18t-35.5 -7.5zM697 0v91q12 0 16 -12t4 -33t-4 -33.5t-16 -12.5z" />
    <glyph glyph-name="uniFEA3" unicode="&#x62d;" horiz-adv-x="559" arabic-form="initial" 
d="M0 0v91h311q36 0 55.5 27t19.5 92q0 95 -44 137t-131 42q-15 0 -33 -0.5t-34.5 -1.5t-29.5 -1q-29 0 -47.5 12t-27.5 32.5t-11 42.5q-1 17 3.5 26.5t9.5 10.5q7 -12 26 -22.5t54 -10.5q10 0 26 1t33.5 1.5t29.5 0.5q77 0 132 -21t90 -58t51.5 -86t16.5 -104
q0 -77 -27.5 -123.5t-70.5 -67t-91 -20.5h-311zM0 0q-11 0 -15.5 12.5t-4.5 33.5t4.5 33t15.5 12v-91z" />
    <glyph glyph-name="uniFEA4" unicode="&#x62d;" horiz-adv-x="620" arabic-form="medial" 
d="M575 0q-54 0 -97 25t-67.5 68t-24.5 98v21h114v-21q0 -23 8 -46.5t25 -38.5t42 -15h45v-91h-45zM0 0v91h311q36 0 55.5 27t19.5 92q0 95 -44 137t-131 42q-15 0 -33 -0.5t-34.5 -1.5t-29.5 -1q-29 0 -47.5 12t-27.5 32.5t-11 42.5q-1 17 3.5 26.5t9.5 10.5
q7 -12 26 -22.5t54 -10.5q10 0 26 1t33.5 1.5t29.5 0.5q77 0 132 -21t90 -58t51.5 -86t16.5 -104q0 -77 -27.5 -123.5t-70.5 -67t-91 -20.5h-311zM0 0q-11 0 -15.5 12.5t-4.5 33.5t4.5 33t15.5 12v-91zM620 0v91q12 0 16 -12t4 -33t-4 -33.5t-16 -12.5z" />
    <glyph glyph-name="uniFEA6" unicode="&#x62e;" horiz-adv-x="697" arabic-form="final" 
d="M652 0q-54 0 -97 25t-67.5 68t-24.5 98v21h114v-21q0 -23 8 -46.5t25 -38.5t42 -15h45v-91h-45zM174 -267q-31 0 -53.5 19t-36 50.5t-20 70t-6.5 76.5q0 75 33.5 108.5t96.5 33.5h200q36 0 55.5 27t19.5 92q0 95 -44 137t-131 42q-15 0 -33 -0.5t-34.5 -1.5t-28.5 -1
q-30 0 -48.5 12t-27.5 32.5t-11 42.5q-1 17 3.5 26.5t9.5 10.5q7 -12 26 -22.5t54 -10.5q10 0 26 1t33.5 1.5t29.5 0.5q77 0 132 -21t90 -58t51.5 -86t16.5 -104q0 -77 -27.5 -123.5t-70.5 -67t-91 -20.5h-259l50 34q-4 -19 -6 -38.5t-2 -38.5q0 -39 7 -71.5t23.5 -59
t44.5 -50.5q-1 -7 -11 -17.5t-25.5 -18t-35.5 -7.5zM697 0v91q12 0 16 -12t4 -33t-4 -33.5t-16 -12.5zM312 545q-29 0 -48.5 19.5t-19.5 46.5t19.5 46.5t47.5 19.5q27 0 46.5 -19.5t19.5 -46.5t-19.5 -46.5t-45.5 -19.5z" />
    <glyph glyph-name="uniFEA7" unicode="&#x62e;" horiz-adv-x="559" arabic-form="initial" 
d="M0 0v91h311q36 0 55.5 27t19.5 92q0 95 -44 137t-131 42q-15 0 -33 -0.5t-34.5 -1.5t-29.5 -1q-29 0 -47.5 12t-27.5 32.5t-11 42.5q-1 17 3.5 26.5t9.5 10.5q7 -12 26 -22.5t54 -10.5q10 0 26 1t33.5 1.5t29.5 0.5q77 0 132 -21t90 -58t51.5 -86t16.5 -104
q0 -77 -27.5 -123.5t-70.5 -67t-91 -20.5h-311zM0 0q-11 0 -15.5 12.5t-4.5 33.5t4.5 33t15.5 12v-91zM228 545q-29 0 -48.5 19.5t-19.5 46.5t19.5 46.5t47.5 19.5q27 0 46.5 -19.5t19.5 -46.5t-19.5 -46.5t-45.5 -19.5z" />
    <glyph glyph-name="uniFEA8" unicode="&#x62e;" horiz-adv-x="620" arabic-form="medial" 
d="M575 0q-54 0 -97 25t-67.5 68t-24.5 98v21h114v-21q0 -23 8 -46.5t25 -38.5t42 -15h45v-91h-45zM0 0v91h311q36 0 55.5 27t19.5 92q0 95 -44 137t-131 42q-15 0 -33 -0.5t-34.5 -1.5t-29.5 -1q-29 0 -47.5 12t-27.5 32.5t-11 42.5q-1 17 3.5 26.5t9.5 10.5
q7 -12 26 -22.5t54 -10.5q10 0 26 1t33.5 1.5t29.5 0.5q77 0 132 -21t90 -58t51.5 -86t16.5 -104q0 -77 -27.5 -123.5t-70.5 -67t-91 -20.5h-311zM0 0q-11 0 -15.5 12.5t-4.5 33.5t4.5 33t15.5 12v-91zM620 0v91q12 0 16 -12t4 -33t-4 -33.5t-16 -12.5zM228 545
q-29 0 -48.5 19.5t-19.5 46.5t19.5 46.5t47.5 19.5q27 0 46.5 -19.5t19.5 -46.5t-19.5 -46.5t-45.5 -19.5z" />
    <glyph glyph-name="uniFEAA" unicode="&#x62f;" horiz-adv-x="565" arabic-form="final" 
d="M520 0q-54 0 -97 25t-67.5 68t-24.5 98v47h114v-47q0 -23 8 -46.5t25 -38.5t42 -15h45v-91h-45zM106 0q-20 0 -33.5 11t-13.5 35q0 23 13.5 34t33.5 11h111q56 0 85 40t29 111q0 52 -14.5 85.5t-38.5 50.5t-52 18l34 2q-19 0 -38 -8.5t-32.5 -28t-13.5 -54.5
q-9 -3 -25.5 -5t-30.5 0q-20 2 -37.5 18t-17.5 48q0 30 16.5 52t42 35t53.5 19t51 6q35 0 72.5 -14t70.5 -44t53.5 -75t20.5 -109q0 -80 -32.5 -133t-84 -79t-111.5 -26h-111zM565 0v91q11 0 15.5 -12t4.5 -33t-4.5 -33.5t-15.5 -12.5z" />
    <glyph glyph-name="uniFEAC" unicode="&#x630;" horiz-adv-x="565" arabic-form="final" 
d="M520 0q-54 0 -97 25t-67.5 68t-24.5 98v47h114v-47q0 -23 8 -46.5t25 -38.5t42 -15h45v-91h-45zM106 0q-20 0 -33.5 11t-13.5 35q0 23 13.5 34t33.5 11h111q56 0 85 40t29 111q0 52 -14.5 85.5t-38.5 50.5t-52 18l34 2q-19 0 -38 -8.5t-32.5 -28t-13.5 -54.5
q-9 -3 -25.5 -5t-30.5 0q-20 2 -37.5 18t-17.5 48q0 30 16.5 52t42 35t53.5 19t51 6q35 0 72.5 -14t70.5 -44t53.5 -75t20.5 -109q0 -80 -32.5 -133t-84 -79t-111.5 -26h-111zM565 0v91q11 0 15.5 -12t4.5 -33t-4.5 -33.5t-15.5 -12.5zM230 545q-29 0 -48.5 19.5t-19.5 46.5
t19.5 46.5t47.5 19.5q27 0 46.5 -19.5t19.5 -46.5t-19.5 -46.5t-45.5 -19.5z" />
    <glyph glyph-name="uniFEAE" unicode="&#x631;" horiz-adv-x="320" arabic-form="final" 
d="M209 0v91h111v-91h-111zM87 -229q-21 0 -35 7.5t-22 18.5t-10 18q29 24 45 51t23 60.5t7 73.5v425q0 28 16 41.5t41 13.5t41 -13.5t16 -41.5v-425q0 -40 -7 -80.5t-21.5 -74.5t-37.5 -54t-56 -20zM320 0v91q12 0 16 -12t4 -33t-4 -33.5t-16 -12.5z" />
    <glyph glyph-name="uniFEB0" unicode="&#x632;" horiz-adv-x="320" arabic-form="final" 
d="M209 0v91h111v-91h-111zM87 -229q-21 0 -35 7.5t-22 18.5t-10 18q29 24 45 51t23 60.5t7 73.5v425q0 28 16 41.5t41 13.5t41 -13.5t16 -41.5v-425q0 -40 -7 -80.5t-21.5 -74.5t-37.5 -54t-56 -20zM320 0v91q12 0 16 -12t4 -33t-4 -33.5t-16 -12.5zM153 545
q-29 0 -48.5 19.5t-19.5 46.5t19.5 46.5t47.5 19.5q27 0 46.5 -19.5t19.5 -46.5t-19.5 -46.5t-45.5 -19.5z" />
    <glyph glyph-name="uniFEB2" unicode="&#x633;" horiz-adv-x="1375" arabic-form="final" 
d="M366 -243q-94 0 -161.5 31.5t-103.5 89.5t-36 135q0 32 6.5 68.5t21 69.5t37.5 54t56 21q21 0 35 -7.5t22.5 -17.5t10.5 -19q-27 -21 -43.5 -46.5t-24 -56.5t-7.5 -70q0 -81 49.5 -121t138.5 -40q81 0 115.5 36.5t34.5 124.5v358q0 25 13.5 41.5t43.5 16.5t43.5 -16.5
t13.5 -41.5v-358q0 -115 -63 -183.5t-202 -68.5zM706 0q-54 0 -97 25t-67.5 68t-24.5 98h114q0 -23 8 -46t25 -38.5t42 -15.5h19v-91h-19zM1018 0q-54 0 -97 25t-67.5 68t-24.5 98h114q0 -23 8 -46t25 -38.5t42 -15.5h23v-91h-23zM725 0v91h29q26 0 42.5 15t24.5 38.5
t8 46.5v201q0 24 13.5 40.5t43.5 16.5t43.5 -16.5t13.5 -40.5v-201q0 -55 -24.5 -98t-67 -68t-97.5 -25h-29zM1330 0q-54 0 -97 25t-67.5 68t-24.5 98h114q0 -23 8 -46.5t25 -38.5t42 -15h45v-91h-45zM1041 0v91h25q26 0 42.5 15t24.5 38.5t8 46.5v232q0 24 14 40.5t43 16.5
q30 0 43.5 -16.5t13.5 -40.5v-232q0 -55 -24.5 -98t-67 -68t-97.5 -25h-25zM1375 0v91q12 0 16 -12t4 -33t-4 -33.5t-16 -12.5z" />
    <glyph glyph-name="uniFEB3" unicode="&#x633;" horiz-adv-x="940" arabic-form="initial" 
d="M648 0v91h27q20 0 34.5 10t24.5 26t16 37t8.5 44.5t2.5 46.5q0 40 -7 72t-23 59t-45 50q2 8 10 18.5t22.5 18t34.5 7.5q33 0 56 -20t37.5 -53t21.5 -73t7 -81q0 -118 -52.5 -185.5t-147.5 -67.5h-27zM303 0q-55 0 -97.5 25t-67 68t-24.5 98h113q0 -23 8 -46.5t25.5 -38.5
t42.5 -15h19v-91h-19zM0 0v91h38q27 0 43.5 15t24.5 38.5t8 46.5v177q0 24 13.5 40.5t43.5 16.5q29 0 42.5 -16.5t13.5 -40.5v-177q0 -55 -24.5 -98t-66.5 -68t-98 -25h-38zM615 0q-54 0 -97 25t-67.5 68t-24.5 98h114q0 -23 8 -46.5t25 -38.5t42 -15h33v-91h-33zM322 0v91
h29q26 0 42.5 15t24.5 38.5t8 46.5v201q0 24 13.5 40.5t43.5 16.5q29 0 43 -16.5t14 -40.5v-201q0 -55 -24.5 -98t-67 -68t-97.5 -25h-29zM0 0q-11 0 -15.5 12.5t-4.5 33.5t4.5 33t15.5 12v-91z" />
    <glyph glyph-name="uniFEB4" unicode="&#x633;" horiz-adv-x="978" arabic-form="medial" 
d="M0 0v91h45q26 0 42.5 15t24.5 38.5t8 46.5v177q0 24 13.5 40.5t43.5 16.5t43.5 -16.5t13.5 -40.5v-177q0 -55 -24.5 -98t-67 -68t-97.5 -25h-45zM309 0q-54 0 -97 25t-67.5 68t-24.5 98h114q0 -23 8 -46t25 -38.5t42 -15.5h19v-91h-19zM644 0v91h25q26 0 43 15t25 38.5
t8 46.5v232q0 24 13.5 40.5t42.5 16.5q30 0 43.5 -16.5t13.5 -40.5v-232q0 -55 -24.5 -98t-66.5 -68t-98 -25h-25zM621 0q-54 0 -97 25t-67.5 68t-24.5 98h114q0 -24 8 -47t25 -38t42 -15h23v-91h-23zM328 0v91h29q26 0 42.5 15t24.5 38.5t8 46.5v201q0 24 14 40.5t43 16.5
q30 0 43.5 -16.5t13.5 -40.5v-201q0 -55 -24.5 -98t-67 -68t-97.5 -25h-29zM934 0q-55 0 -97.5 25t-67 68t-24.5 98h113q0 -23 8 -46.5t25 -38.5t43 -15h44v-91h-44zM978 0v91q12 0 16 -12t4 -33t-4 -33.5t-16 -12.5zM0 0q-11 0 -15.5 12.5t-4.5 33.5t4.5 33t15.5 12v-91z
" />
    <glyph glyph-name="uniFEB6" unicode="&#x634;" horiz-adv-x="1375" arabic-form="final" 
d="M366 -243q-94 0 -161.5 31.5t-103.5 89.5t-36 135q0 32 6.5 68.5t21 69.5t37.5 54t56 21q21 0 35 -7.5t22.5 -17.5t10.5 -19q-27 -21 -43.5 -46.5t-24 -56.5t-7.5 -70q0 -81 49.5 -121t138.5 -40q81 0 115.5 36.5t34.5 124.5v358q0 25 13.5 41.5t43.5 16.5t43.5 -16.5
t13.5 -41.5v-358q0 -115 -63 -183.5t-202 -68.5zM706 0q-54 0 -97 25t-67.5 68t-24.5 98h114q0 -23 8 -46t25 -38.5t42 -15.5h19v-91h-19zM1018 0q-54 0 -97 25t-67.5 68t-24.5 98h114q0 -23 8 -46t25 -38.5t42 -15.5h23v-91h-23zM725 0v91h29q26 0 42.5 15t24.5 38.5
t8 46.5v201q0 24 13.5 40.5t43.5 16.5t43.5 -16.5t13.5 -40.5v-201q0 -55 -24.5 -98t-67 -68t-97.5 -25h-29zM1330 0q-54 0 -97 25t-67.5 68t-24.5 98h114q0 -23 8 -46.5t25 -38.5t42 -15h45v-91h-45zM1041 0v91h25q26 0 42.5 15t24.5 38.5t8 46.5v232q0 24 14 40.5t43 16.5
q30 0 43.5 -16.5t13.5 -40.5v-232q0 -55 -24.5 -98t-67 -68t-97.5 -25h-25zM1375 0v91q12 0 16 -12t4 -33t-4 -33.5t-16 -12.5zM963 545q-25 0 -43.5 18t-18.5 44q0 25 18.5 43.5t43.5 18.5q26 0 43.5 -18.5t17.5 -43.5q0 -26 -17.5 -44t-43.5 -18zM807 545q-24 0 -42.5 18
t-18.5 44q0 25 18 43.5t43 18.5q26 0 44 -18.5t18 -43.5q0 -26 -18 -44t-44 -18zM885 685q-24 0 -40.5 17t-16.5 41t16.5 40.5t40.5 16.5t40.5 -16.5t16.5 -40.5t-16.5 -41t-40.5 -17z" />
    <glyph glyph-name="uniFEB7" unicode="&#x634;" horiz-adv-x="940" arabic-form="initial" 
d="M648 0v91h27q20 0 34.5 10t24.5 26t16 37t8.5 44.5t2.5 46.5q0 40 -7 72t-23 59t-45 50q2 8 10 18.5t22.5 18t34.5 7.5q33 0 56 -20t37.5 -53t21.5 -73t7 -81q0 -118 -52.5 -185.5t-147.5 -67.5h-27zM303 0q-55 0 -97.5 25t-67 68t-24.5 98h113q0 -23 8 -46.5t25.5 -38.5
t42.5 -15h19v-91h-19zM0 0v91h38q27 0 43.5 15t24.5 38.5t8 46.5v177q0 24 13.5 40.5t43.5 16.5q29 0 42.5 -16.5t13.5 -40.5v-177q0 -55 -24.5 -98t-66.5 -68t-98 -25h-38zM615 0q-54 0 -97 25t-67.5 68t-24.5 98h114q0 -23 8 -46.5t25 -38.5t42 -15h33v-91h-33zM322 0v91
h29q26 0 42.5 15t24.5 38.5t8 46.5v201q0 24 13.5 40.5t43.5 16.5q29 0 43 -16.5t14 -40.5v-201q0 -55 -24.5 -98t-67 -68t-97.5 -25h-29zM0 0q-11 0 -15.5 12.5t-4.5 33.5t4.5 33t15.5 12v-91zM561 545q-25 0 -43.5 18t-18.5 44q0 25 18.5 43.5t43.5 18.5q26 0 43.5 -18.5
t17.5 -43.5q0 -26 -17.5 -44t-43.5 -18zM405 545q-24 0 -42.5 18t-18.5 44q0 25 18 43.5t43 18.5q26 0 44 -18.5t18 -43.5q0 -26 -18 -44t-44 -18zM483 685q-24 0 -40.5 17t-16.5 41t16.5 40.5t40.5 16.5t40.5 -16.5t16.5 -40.5t-16.5 -41t-40.5 -17z" />
    <glyph glyph-name="uniFEB8" unicode="&#x634;" horiz-adv-x="978" arabic-form="medial" 
d="M0 0v91h45q26 0 42.5 15t24.5 38.5t8 46.5v177q0 24 13.5 40.5t43.5 16.5t43.5 -16.5t13.5 -40.5v-177q0 -55 -24.5 -98t-67 -68t-97.5 -25h-45zM309 0q-54 0 -97 25t-67.5 68t-24.5 98h114q0 -23 8 -46t25 -38.5t42 -15.5h19v-91h-19zM644 0v91h25q26 0 43 15t25 38.5
t8 46.5v232q0 24 13.5 40.5t42.5 16.5q30 0 43.5 -16.5t13.5 -40.5v-232q0 -55 -24.5 -98t-66.5 -68t-98 -25h-25zM621 0q-54 0 -97 25t-67.5 68t-24.5 98h114q0 -24 8 -47t25 -38t42 -15h23v-91h-23zM328 0v91h29q26 0 42.5 15t24.5 38.5t8 46.5v201q0 24 14 40.5t43 16.5
q30 0 43.5 -16.5t13.5 -40.5v-201q0 -55 -24.5 -98t-67 -68t-97.5 -25h-29zM934 0q-55 0 -97.5 25t-67 68t-24.5 98h113q0 -23 8 -46.5t25 -38.5t43 -15h44v-91h-44zM978 0v91q12 0 16 -12t4 -33t-4 -33.5t-16 -12.5zM0 0q-11 0 -15.5 12.5t-4.5 33.5t4.5 33t15.5 12v-91z
M567 545q-25 0 -43.5 18t-18.5 44q0 25 18.5 43.5t43.5 18.5q26 0 43.5 -18.5t17.5 -43.5q0 -26 -17.5 -44t-43.5 -18zM411 545q-24 0 -42.5 18t-18.5 44q0 25 18 43.5t43 18.5q26 0 44 -18.5t18 -43.5q0 -26 -18 -44t-44 -18zM489 685q-24 0 -40.5 17t-16.5 41t16.5 40.5
t40.5 16.5t40.5 -16.5t16.5 -40.5t-16.5 -41t-40.5 -17z" />
    <glyph glyph-name="uniFEBA" unicode="&#x635;" horiz-adv-x="1266" arabic-form="final" 
d="M1221 0q-54 0 -97 25t-67.5 68t-24.5 98l114 25v-25q0 -23 8 -46.5t25 -38.5t42 -15h45v-91h-45zM366 -243q-94 0 -161.5 31.5t-103.5 89.5t-36 135q0 32 6.5 68.5t21 69.5t37.5 54t56 21q21 0 35 -7.5t22.5 -17.5t10.5 -19q-25 -19 -41.5 -44.5t-25 -55.5t-8.5 -67
q0 -86 48 -126.5t138 -40.5q82 0 117 36t35 125v303q0 28 -15.5 48.5t-30.5 28.5q6 13 25 26.5t51 13.5q23 0 39 -8.5t26 -23t14.5 -33t4.5 -37.5v-318q0 -115 -63 -183.5t-202 -68.5zM630 0v91h324q36 0 57 29t21 95q0 92 -42.5 133t-118.5 41q-59 0 -100.5 -21t-68.5 -54
t-43.5 -71t-27.5 -73l-55 8q13 51 28.5 96.5t37 83t52 65t73.5 42.5t102 15q130 0 203.5 -70t73.5 -194q0 -101 -50.5 -158.5t-141.5 -57.5h-324zM1266 0v91q11 0 15.5 -12t4.5 -33t-4.5 -33.5t-15.5 -12.5z" />
    <glyph glyph-name="uniFEBB" unicode="&#x635;" horiz-adv-x="782" arabic-form="initial" 
d="M0 0v91h525q36 0 57 29t21 95q0 92 -42.5 133t-118.5 41q-59 0 -100.5 -21t-68.5 -54t-43.5 -71t-27.5 -73l-55 8q13 51 28.5 96.5t37 83t52 65t73.5 42.5t102 15q130 0 203.5 -70t73.5 -194q0 -101 -50.5 -158.5t-141.5 -57.5h-525zM88 0v314q0 28 -15 48.5t-31 28.5
q7 13 25.5 26.5t50.5 13.5q23 0 39 -8.5t26 -23t14.5 -33t4.5 -37.5v-329h-114zM0 0q-11 0 -15.5 12.5t-4.5 33.5t4.5 33t15.5 12v-91z" />
    <glyph glyph-name="uniFEBC" unicode="&#x635;" horiz-adv-x="837" arabic-form="medial" 
d="M792 0q-54 0 -97 25t-67.5 68t-24.5 98l114 25v-25q0 -23 8 -46.5t25 -38.5t42 -15h45v-91h-45zM0 0v91h525q36 0 57 29t21 95q0 92 -42.5 133t-118.5 41q-59 0 -100.5 -21t-68.5 -54t-43.5 -71t-27.5 -73l-55 8q13 51 28.5 96.5t37 83t52 65t73.5 42.5t102 15
q130 0 203.5 -70t73.5 -194q0 -101 -50.5 -158.5t-141.5 -57.5h-525zM88 0v314q0 28 -15 48.5t-31 28.5q7 13 25.5 26.5t50.5 13.5q23 0 39 -8.5t26 -23t14.5 -33t4.5 -37.5v-329h-114zM0 0q-11 0 -15.5 12.5t-4.5 33.5t4.5 33t15.5 12v-91zM837 0v91q12 0 16 -12t4 -33
t-4 -33.5t-16 -12.5z" />
    <glyph glyph-name="uniFEBE" unicode="&#x636;" horiz-adv-x="1266" arabic-form="final" 
d="M1221 0q-54 0 -97 25t-67.5 68t-24.5 98l114 25v-25q0 -23 8 -46.5t25 -38.5t42 -15h45v-91h-45zM366 -243q-94 0 -161.5 31.5t-103.5 89.5t-36 135q0 32 6.5 68.5t21 69.5t37.5 54t56 21q21 0 35 -7.5t22.5 -17.5t10.5 -19q-25 -19 -41.5 -44.5t-25 -55.5t-8.5 -67
q0 -86 48 -126.5t138 -40.5q82 0 117 36t35 125v303q0 28 -15.5 48.5t-30.5 28.5q6 13 25 26.5t51 13.5q23 0 39 -8.5t26 -23t14.5 -33t4.5 -37.5v-318q0 -115 -63 -183.5t-202 -68.5zM630 0v91h324q36 0 57 29t21 95q0 92 -42.5 133t-118.5 41q-59 0 -100.5 -21t-68.5 -54
t-43.5 -71t-27.5 -73l-55 8q13 51 28.5 96.5t37 83t52 65t73.5 42.5t102 15q130 0 203.5 -70t73.5 -194q0 -101 -50.5 -158.5t-141.5 -57.5h-324zM1266 0v91q11 0 15.5 -12t4.5 -33t-4.5 -33.5t-15.5 -12.5zM830 545q-29 0 -48.5 19.5t-19.5 46.5t19.5 46.5t47.5 19.5
q27 0 46.5 -19.5t19.5 -46.5t-19.5 -46.5t-45.5 -19.5z" />
    <glyph glyph-name="uniFEBF" unicode="&#x636;" horiz-adv-x="782" arabic-form="initial" 
d="M0 0v91h525q36 0 57 29t21 95q0 92 -42.5 133t-118.5 41q-59 0 -100.5 -21t-68.5 -54t-43.5 -71t-27.5 -73l-55 8q13 51 28.5 96.5t37 83t52 65t73.5 42.5t102 15q130 0 203.5 -70t73.5 -194q0 -101 -50.5 -158.5t-141.5 -57.5h-525zM88 0v314q0 28 -15 48.5t-31 28.5
q7 13 25.5 26.5t50.5 13.5q23 0 39 -8.5t26 -23t14.5 -33t4.5 -37.5v-329h-114zM0 0q-11 0 -15.5 12.5t-4.5 33.5t4.5 33t15.5 12v-91zM401 547q-29 0 -48.5 19.5t-19.5 46.5t19.5 46.5t47.5 19.5q27 0 46.5 -19.5t19.5 -46.5t-19.5 -46.5t-45.5 -19.5z" />
    <glyph glyph-name="uniFEC0" unicode="&#x636;" horiz-adv-x="837" arabic-form="medial" 
d="M792 0q-54 0 -97 25t-67.5 68t-24.5 98l114 25v-25q0 -23 8 -46.5t25 -38.5t42 -15h45v-91h-45zM0 0v91h525q36 0 57 29t21 95q0 92 -42.5 133t-118.5 41q-59 0 -100.5 -21t-68.5 -54t-43.5 -71t-27.5 -73l-55 8q13 51 28.5 96.5t37 83t52 65t73.5 42.5t102 15
q130 0 203.5 -70t73.5 -194q0 -101 -50.5 -158.5t-141.5 -57.5h-525zM88 0v314q0 28 -15 48.5t-31 28.5q7 13 25.5 26.5t50.5 13.5q23 0 39 -8.5t26 -23t14.5 -33t4.5 -37.5v-329h-114zM0 0q-11 0 -15.5 12.5t-4.5 33.5t4.5 33t15.5 12v-91zM837 0v91q12 0 16 -12t4 -33
t-4 -33.5t-16 -12.5zM401 547q-29 0 -48.5 19.5t-19.5 46.5t19.5 46.5t47.5 19.5q27 0 46.5 -19.5t19.5 -46.5t-19.5 -46.5t-45.5 -19.5z" />
    <glyph glyph-name="uniFEC2" unicode="&#x637;" horiz-adv-x="881" arabic-form="final" 
d="M837 0q-55 0 -97.5 25t-67 68t-24.5 98l113 24v-24q0 -23 8 -46.5t25 -38.5t43 -15h44v-91h-44zM51 0q-12 0 -19 8.5t-9.5 19.5t-2.5 18q0 6 2.5 17t9.5 19.5t19 8.5h460q47 0 77 18t45 49t15 68q0 56 -26.5 92t-67 53.5t-84.5 17.5q-47 0 -85 -18t-67 -46t-50 -59
t-33.5 -57.5t-16.5 -41.5l4 124q12 30 36 63t58.5 61.5t79.5 46.5t100 18q46 0 93 -15t86 -47t62.5 -81t23.5 -118q0 -40 -10 -79t-34 -70.5t-64.5 -50.5t-101.5 -19h-500zM111 62v451q0 34 -9 53.5t-21 29.5t-20 15q2 7 10 18.5t24 21t40 9.5q25 0 45 -13t32 -39t12 -64
v-482h-113zM881 0v91q12 0 16 -12t4 -33t-4 -33.5t-16 -12.5z" />
    <glyph glyph-name="uniFEC3" unicode="&#x637;" horiz-adv-x="829" arabic-form="initial" 
d="M0 0v91h514q46 0 76.5 18t45.5 49t15 68q0 56 -26.5 92t-67 53.5t-84.5 17.5q-47 0 -85 -18t-67 -46t-50 -59t-33.5 -57.5t-17.5 -41.5l4 124q12 30 36 63t59 61.5t80 46.5t100 18q46 0 93 -15t86 -47t62.5 -81t23.5 -118q0 -40 -10 -79t-34 -70.5t-64.5 -50.5
t-101.5 -19h-554zM113 62v451q0 34 -8.5 53.5t-20.5 29.5t-20 15q1 7 9.5 18.5t24.5 21t39 9.5q26 0 46 -13t32 -39t12 -64v-482h-114zM0 0q-11 0 -15.5 12.5t-4.5 33.5t4.5 33t15.5 12v-91z" />
    <glyph glyph-name="uniFEC4" unicode="&#x637;" horiz-adv-x="884" arabic-form="medial" 
d="M839 0q-54 0 -97 25t-67.5 68t-24.5 98l114 24v-24q0 -23 8 -46.5t25 -38.5t42 -15h45v-91h-45zM0 0v91h514q46 0 76.5 18t45.5 49t15 68q0 56 -26.5 92t-67 53.5t-84.5 17.5q-47 0 -85 -18t-67 -46t-50 -59t-33.5 -57.5t-17.5 -41.5l4 124q12 30 36 63t59 61.5t80 46.5
t100 18q46 0 93 -15t86 -47t62.5 -81t23.5 -118q0 -40 -10 -79t-34 -70.5t-64.5 -50.5t-101.5 -19h-554zM113 62v451q0 34 -8.5 53.5t-20.5 29.5t-20 15q1 7 9.5 18.5t24.5 21t39 9.5q26 0 46 -13t32 -39t12 -64v-482h-114zM0 0q-11 0 -15.5 12.5t-4.5 33.5t4.5 33t15.5 12
v-91zM884 0v91q12 0 16 -12t4 -33t-4 -33.5t-16 -12.5z" />
    <glyph glyph-name="uniFEC6" unicode="&#x638;" horiz-adv-x="881" arabic-form="final" 
d="M837 0q-55 0 -97.5 25t-67 68t-24.5 98l113 24v-24q0 -23 8 -46.5t25 -38.5t43 -15h44v-91h-44zM51 0q-12 0 -19 8.5t-9.5 19.5t-2.5 18q0 6 2.5 17t9.5 19.5t19 8.5h460q47 0 77 18t45 49t15 68q0 56 -26.5 92t-67 53.5t-84.5 17.5q-47 0 -85 -18t-67 -46t-50 -59
t-33.5 -57.5t-16.5 -41.5l4 124q12 30 36 63t58.5 61.5t79.5 46.5t100 18q46 0 93 -15t86 -47t62.5 -81t23.5 -118q0 -40 -10 -79t-34 -70.5t-64.5 -50.5t-101.5 -19h-500zM111 62v451q0 34 -9 53.5t-21 29.5t-20 15q2 7 10 18.5t24 21t40 9.5q25 0 45 -13t32 -39t12 -64
v-482h-113zM881 0v91q12 0 16 -12t4 -33t-4 -33.5t-16 -12.5zM419 545q-29 0 -48.5 19.5t-19.5 46.5t19.5 46.5t47.5 19.5q27 0 46.5 -19.5t19.5 -46.5t-19.5 -46.5t-45.5 -19.5z" />
    <glyph glyph-name="uniFEC7" unicode="&#x638;" horiz-adv-x="829" arabic-form="initial" 
d="M0 0v91h514q46 0 76.5 18t45.5 49t15 68q0 56 -26.5 92t-67 53.5t-84.5 17.5q-47 0 -85 -18t-67 -46t-50 -59t-33.5 -57.5t-17.5 -41.5l4 124q12 30 36 63t59 61.5t80 46.5t100 18q46 0 93 -15t86 -47t62.5 -81t23.5 -118q0 -40 -10 -79t-34 -70.5t-64.5 -50.5
t-101.5 -19h-554zM113 62v451q0 34 -8.5 53.5t-20.5 29.5t-20 15q1 7 9.5 18.5t24.5 21t39 9.5q26 0 46 -13t32 -39t12 -64v-482h-114zM0 0q-11 0 -15.5 12.5t-4.5 33.5t4.5 33t15.5 12v-91zM408 545q-29 0 -48.5 19.5t-19.5 46.5t19.5 46.5t47.5 19.5q27 0 46.5 -19.5
t19.5 -46.5t-19.5 -46.5t-45.5 -19.5z" />
    <glyph glyph-name="uniFEC8" unicode="&#x638;" horiz-adv-x="884" arabic-form="medial" 
d="M839 0q-54 0 -97 25t-67.5 68t-24.5 98l114 24v-24q0 -23 8 -46.5t25 -38.5t42 -15h45v-91h-45zM0 0v91h514q46 0 76.5 18t45.5 49t15 68q0 56 -26.5 92t-67 53.5t-84.5 17.5q-47 0 -85 -18t-67 -46t-50 -59t-33.5 -57.5t-17.5 -41.5l4 124q12 30 36 63t59 61.5t80 46.5
t100 18q46 0 93 -15t86 -47t62.5 -81t23.5 -118q0 -40 -10 -79t-34 -70.5t-64.5 -50.5t-101.5 -19h-554zM113 62v451q0 34 -8.5 53.5t-20.5 29.5t-20 15q1 7 9.5 18.5t24.5 21t39 9.5q26 0 46 -13t32 -39t12 -64v-482h-114zM0 0q-11 0 -15.5 12.5t-4.5 33.5t4.5 33t15.5 12
v-91zM884 0v91q12 0 16 -12t4 -33t-4 -33.5t-16 -12.5zM408 545q-29 0 -48.5 19.5t-19.5 46.5t19.5 46.5t47.5 19.5q27 0 46.5 -19.5t19.5 -46.5t-19.5 -46.5t-45.5 -19.5z" />
    <glyph glyph-name="uniFECA" unicode="&#x639;" horiz-adv-x="655" arabic-form="final" 
d="M185 -267q-31 0 -53.5 19t-36 50.5t-20 70t-6.5 76.5q0 74 34 108t96 34q56 0 107.5 17t92 45.5t64 65t23.5 74.5q0 46 -36 71t-109 25q-72 0 -108.5 -24.5t-36.5 -71.5q0 -38 23.5 -74.5t64 -65t92.5 -45.5t107 -17h172v-91h-172q-69 0 -140 22t-130 61.5t-95 93
t-36 116.5q0 50 23 85.5t61.5 58t84 33t90.5 10.5t90.5 -10.5t83.5 -32.5t61.5 -57.5t23.5 -86.5q0 -63 -35.5 -116.5t-94.5 -93t-130 -61.5t-141 -22h-48l39 34q-4 -19 -5.5 -38.5t-1.5 -38.5q0 -39 7 -71.5t23.5 -59t44.5 -50.5q-2 -7 -11.5 -17.5t-25.5 -18t-36 -7.5z
M655 0v91q11 0 15.5 -12t4.5 -33t-4.5 -33.5t-15.5 -12.5z" />
    <glyph glyph-name="uniFECB" unicode="&#x639;" horiz-adv-x="511" arabic-form="initial" 
d="M0 0v91h152l-24 -30q-31 29 -49.5 73.5t-18.5 103.5q0 64 20 109t53.5 75t71 44t72.5 14q23 0 51 -6t53.5 -19t42 -35t16.5 -52q0 -32 -17 -48t-39 -18q-13 -2 -29.5 0t-26.5 5q0 35 -13 54.5t-32 28t-38 8.5l34 -2q-28 -1 -52 -18t-38.5 -50.5t-14.5 -85.5
q0 -71 29 -111t84 -40h112q20 0 33.5 -11t13.5 -34q0 -24 -13.5 -35t-33.5 -11h-399zM0 0q-11 0 -15.5 12.5t-4.5 33.5t4.5 33t15.5 12v-91z" />
    <glyph glyph-name="uniFECC" unicode="&#x639;" horiz-adv-x="628" arabic-form="medial" 
d="M0 0v91h172q56 0 107.5 17t92.5 45.5t64 65t23 74.5q0 46 -36 71t-109 25q-72 0 -108.5 -24.5t-36.5 -71.5q0 -38 23.5 -74.5t64 -65t92.5 -45.5t107 -17h172v-91h-172q-69 0 -140 22t-130 61.5t-95 93t-36 116.5q0 50 23 85.5t61.5 58t84 33t90.5 10.5t90.5 -10.5
t83.5 -32.5t61.5 -57.5t23.5 -86.5q0 -63 -35.5 -116.5t-94.5 -93t-130 -61.5t-141 -22h-172zM0 0q-11 0 -15.5 12.5t-4.5 33.5t4.5 33t15.5 12v-91zM628 0v91q11 0 15.5 -12t4.5 -33t-4.5 -33.5t-15.5 -12.5z" />
    <glyph glyph-name="uniFECE" unicode="&#x63a;" horiz-adv-x="655" arabic-form="final" 
d="M185 -267q-31 0 -53.5 19t-36 50.5t-20 70t-6.5 76.5q0 74 34 108t96 34q56 0 107.5 17t92 45.5t64 65t23.5 74.5q0 46 -36 71t-109 25q-72 0 -108.5 -24.5t-36.5 -71.5q0 -38 23.5 -74.5t64 -65t92.5 -45.5t107 -17h172v-91h-172q-69 0 -140 22t-130 61.5t-95 93
t-36 116.5q0 50 23 85.5t61.5 58t84 33t90.5 10.5t90.5 -10.5t83.5 -32.5t61.5 -57.5t23.5 -86.5q0 -63 -35.5 -116.5t-94.5 -93t-130 -61.5t-141 -22h-48l39 34q-4 -19 -5.5 -38.5t-1.5 -38.5q0 -39 7 -71.5t23.5 -59t44.5 -50.5q-2 -7 -11.5 -17.5t-25.5 -18t-36 -7.5z
M655 0v91q11 0 15.5 -12t4.5 -33t-4.5 -33.5t-15.5 -12.5zM342 545q-29 0 -48.5 19.5t-19.5 46.5t19.5 46.5t47.5 19.5q27 0 46.5 -19.5t19.5 -46.5t-19.5 -46.5t-45.5 -19.5z" />
    <glyph glyph-name="uniFECF" unicode="&#x63a;" horiz-adv-x="511" arabic-form="initial" 
d="M0 0v91h152l-24 -30q-31 29 -49.5 73.5t-18.5 103.5q0 64 20 109t53.5 75t71 44t72.5 14q23 0 51 -6t53.5 -19t42 -35t16.5 -52q0 -32 -17 -48t-39 -18q-13 -2 -29.5 0t-26.5 5q0 35 -13 54.5t-32 28t-38 8.5l34 -2q-28 -1 -52 -18t-38.5 -50.5t-14.5 -85.5
q0 -71 29 -111t84 -40h112q20 0 33.5 -11t13.5 -34q0 -24 -13.5 -35t-33.5 -11h-399zM0 0q-11 0 -15.5 12.5t-4.5 33.5t4.5 33t15.5 12v-91zM278 545q-29 0 -48.5 19.5t-19.5 46.5t19.5 46.5t47.5 19.5q27 0 46.5 -19.5t19.5 -46.5t-19.5 -46.5t-45.5 -19.5z" />
    <glyph glyph-name="uniFED0" unicode="&#x63a;" horiz-adv-x="628" arabic-form="medial" 
d="M0 0v91h172q56 0 107.5 17t92.5 45.5t64 65t23 74.5q0 46 -36 71t-109 25q-72 0 -108.5 -24.5t-36.5 -71.5q0 -38 23.5 -74.5t64 -65t92.5 -45.5t107 -17h172v-91h-172q-69 0 -140 22t-130 61.5t-95 93t-36 116.5q0 50 23 85.5t61.5 58t84 33t90.5 10.5t90.5 -10.5
t83.5 -32.5t61.5 -57.5t23.5 -86.5q0 -63 -35.5 -116.5t-94.5 -93t-130 -61.5t-141 -22h-172zM0 0q-11 0 -15.5 12.5t-4.5 33.5t4.5 33t15.5 12v-91zM628 0v91q11 0 15.5 -12t4.5 -33t-4.5 -33.5t-15.5 -12.5zM315 545q-29 0 -48.5 19.5t-19.5 46.5t19.5 46.5t47.5 19.5
q27 0 46.5 -19.5t19.5 -46.5t-19.5 -46.5t-45.5 -19.5z" />
    <glyph glyph-name="uniFED2" unicode="&#x641;" horiz-adv-x="1029" arabic-form="final" 
d="M985 0q-55 0 -98 25t-67 68t-24 98h113q0 -23 8 -46.5t25 -38.5t43 -15h44v-91h-44zM264 0q-67 0 -111 26.5t-66 74.5t-22 112q0 59 16 98.5t42.5 58.5t56.5 19q28 0 44 -13t21 -28q-14 -9 -29.5 -28.5t-26 -50.5t-10.5 -73q0 -34 9 -55t23 -31.5t30 -14.5t32 -4h439
q39 0 61.5 25.5t22.5 71.5v181q-5 9 -20.5 14.5t-41.5 5.5q-58 0 -88 -36t-30 -112q0 -72 29.5 -109.5t84.5 -40.5l-20 -90q-57 6 -104 33.5t-75 79t-28 127.5q0 113 62.5 176t168.5 63q77 0 126 -31.5t49 -79.5v-181q0 -54 -25 -96.5t-69.5 -67t-102.5 -24.5h-448zM1029 0
v91q12 0 16 -12t4 -33t-4 -33.5t-16 -12.5zM736 545q-29 0 -48.5 19.5t-19.5 46.5t19.5 46.5t47.5 19.5q27 0 46.5 -19.5t19.5 -46.5t-19.5 -46.5t-45.5 -19.5z" />
    <glyph glyph-name="uniFED3" unicode="&#x641;" horiz-adv-x="539" arabic-form="initial" 
d="M0 0v91h277q39 0 61 25.5t22 71.5v181q-4 9 -19.5 14.5t-42.5 5.5q-58 0 -87.5 -36t-29.5 -112q0 -72 29 -109.5t84 -40.5l-19 -90q-58 6 -104.5 33.5t-75 79t-28.5 127.5q0 113 63 176t168 63q78 0 127 -31.5t49 -79.5v-181q0 -54 -25.5 -96.5t-69.5 -67t-102 -24.5
h-277zM0 0q-11 0 -15.5 12.5t-4.5 33.5t4.5 33t15.5 12v-91zM301 545q-29 0 -48.5 19.5t-19.5 46.5t19.5 46.5t47.5 19.5q27 0 46.5 -19.5t19.5 -46.5t-19.5 -46.5t-45.5 -19.5z" />
    <glyph glyph-name="uniFED4" unicode="&#x641;" horiz-adv-x="594" arabic-form="medial" 
d="M549 0q-54 0 -97 25t-67.5 68t-24.5 98h114q0 -23 8 -46.5t25 -38.5t42 -15h45v-91h-45zM0 0v91h277q39 0 61 25.5t22 71.5v181q-4 9 -19.5 14.5t-42.5 5.5q-58 0 -87.5 -36t-29.5 -112q0 -72 29 -109.5t84 -40.5l-19 -90q-58 6 -104.5 33.5t-75 79t-28.5 127.5
q0 113 63 176t168 63q78 0 127 -31.5t49 -79.5v-181q0 -54 -25.5 -96.5t-69.5 -67t-102 -24.5h-277zM0 0q-11 0 -15.5 12.5t-4.5 33.5t4.5 33t15.5 12v-91zM594 0v91q11 0 15.5 -12t4.5 -33t-4.5 -33.5t-15.5 -12.5zM301 545q-29 0 -48.5 19.5t-19.5 46.5t19.5 46.5
t47.5 19.5q27 0 46.5 -19.5t19.5 -46.5t-19.5 -46.5t-45.5 -19.5z" />
    <glyph glyph-name="uniFED6" unicode="&#x642;" horiz-adv-x="940" arabic-form="final" 
d="M802 0v91h138v-91h-138zM468 -236q-87 0 -156 20.5t-117 57.5t-73.5 88t-25.5 112q0 30 7 64.5t21 66t37.5 51.5t56.5 20q20 0 34.5 -8t22.5 -18t10 -19q-24 -19 -41 -43t-25.5 -51.5t-8.5 -59.5q0 -63 30 -105.5t86 -63.5t132 -21q69 0 115 15t72.5 40.5t38 56.5
t11.5 62l24 -29h-101q-57 0 -104 28.5t-75 82.5t-28 130q0 113 63 176t168 63q78 0 127 -31.5t49 -79.5v-298q0 -80 -25.5 -138.5t-72 -96t-110.5 -55t-142 -17.5zM704 78v291q-4 9 -20 14.5t-39 5.5q-60 0 -90 -35.5t-30 -111.5q0 -73 29 -112t84 -39h74zM940 0v91
q12 0 16 -12t4 -33t-4 -33.5t-16 -12.5zM720 548q-25 0 -43.5 18t-18.5 43q0 26 18.5 44.5t43.5 18.5q26 0 43.5 -18.5t17.5 -44.5q0 -25 -17.5 -43t-43.5 -18zM564 548q-24 0 -42.5 18t-18.5 43q0 26 18 44.5t43 18.5q26 0 44 -18.5t18 -44.5q0 -25 -18 -43t-44 -18z" />
    <glyph glyph-name="uniFED7" unicode="&#x642;" horiz-adv-x="539" arabic-form="initial" 
d="M0 0v91h277q39 0 61 25.5t22 71.5v181q-4 9 -19.5 14.5t-42.5 5.5q-58 0 -87.5 -36t-29.5 -112q0 -72 29 -109.5t84 -40.5l-19 -90q-58 6 -104.5 33.5t-75 79t-28.5 127.5q0 113 63 176t168 63q78 0 127 -31.5t49 -79.5v-181q0 -54 -25.5 -96.5t-69.5 -67t-102 -24.5
h-277zM0 0q-11 0 -15.5 12.5t-4.5 33.5t4.5 33t15.5 12v-91zM378 548q-25 0 -43.5 18t-18.5 43q0 26 18.5 44.5t43.5 18.5q26 0 43.5 -18.5t17.5 -44.5q0 -25 -17.5 -43t-43.5 -18zM222 548q-24 0 -42.5 18t-18.5 43q0 26 18 44.5t43 18.5q26 0 44 -18.5t18 -44.5
q0 -25 -18 -43t-44 -18z" />
    <glyph glyph-name="uniFED8" unicode="&#x642;" horiz-adv-x="594" arabic-form="medial" 
d="M549 0q-54 0 -97 25t-67.5 68t-24.5 98h114q0 -23 8 -46.5t25 -38.5t42 -15h45v-91h-45zM0 0v91h277q39 0 61 25.5t22 71.5v181q-4 9 -19.5 14.5t-42.5 5.5q-58 0 -87.5 -36t-29.5 -112q0 -72 29 -109.5t84 -40.5l-19 -90q-58 6 -104.5 33.5t-75 79t-28.5 127.5
q0 113 63 176t168 63q78 0 127 -31.5t49 -79.5v-181q0 -54 -25.5 -96.5t-69.5 -67t-102 -24.5h-277zM0 0q-11 0 -15.5 12.5t-4.5 33.5t4.5 33t15.5 12v-91zM594 0v91q11 0 15.5 -12t4.5 -33t-4.5 -33.5t-15.5 -12.5zM378 548q-25 0 -43.5 18t-18.5 43q0 26 18.5 44.5
t43.5 18.5q26 0 43.5 -18.5t17.5 -44.5q0 -25 -17.5 -43t-43.5 -18zM222 548q-24 0 -42.5 18t-18.5 43q0 26 18 44.5t43 18.5q26 0 44 -18.5t18 -44.5q0 -25 -18 -43t-44 -18z" />
    <glyph glyph-name="uniFEDA" unicode="&#x643;" horiz-adv-x="888" arabic-form="final" 
d="M843 0q-54 0 -97 25t-67.5 68t-24.5 98h114q0 -23 8 -46.5t25 -38.5t42 -15h45v-91h-45zM195 0q-46 0 -74.5 21.5t-42 55.5t-13.5 75v108q0 23 13.5 40t43.5 17q29 0 43 -17t14 -40v-90q0 -41 13.5 -60t45.5 -19h341q26 0 42.5 15t24.5 38.5t8 46.5v322q0 34 -9 53.5
t-20.5 29.5t-19.5 15q1 7 9.5 18.5t24.5 21t39 9.5q26 0 46 -13t32 -39t12 -64v-353q0 -55 -24.5 -98t-67 -68t-97.5 -25h-384zM888 0v91q12 0 16 -12t4 -33t-4 -33.5t-16 -12.5zM332 314q-11 7 -15 18t-1 21t14.5 16.5t31.5 4.5q-12 8 -25 28t-13 46q0 23 11.5 45.5
t35.5 36.5t60 14q24 0 38.5 -6.5t20.5 -16.5t6 -24q0 -18 -9 -25.5t-20.5 -7t-21.5 4.5q1 15 -8 27t-24 13q-7 -5 -15.5 -18.5t-8.5 -33.5q0 -23 10.5 -38t27.5 -22.5t35 -7.5q12 0 21.5 2t15.5 3q15 0 19.5 -12t0.5 -23.5t-13 -12.5q-12 -1 -33 -2.5t-44.5 -4t-45.5 -6
t-36.5 -8.5t-14.5 -11z" />
    <glyph glyph-name="uniFEDB" unicode="&#x643;" horiz-adv-x="631" arabic-form="initial" 
d="M0 0v91h384q24 0 40 17.5t16 53.5t-16 54t-40 18h-159q-58 0 -105.5 22t-75.5 60t-28 86q0 49 28 87t75.5 60t105.5 22h217q37 0 58 11.5t32 19.5q3 -16 -1 -36.5t-15 -40.5t-29 -33t-45 -13h-217q-42 0 -68.5 -22t-26.5 -55t26.5 -55t68.5 -22h171q47 0 82.5 -21
t55.5 -58t20 -84t-20 -83.5t-55.5 -57.5t-82.5 -21h-396zM0 0q-11 0 -15.5 12.5t-4.5 33.5t4.5 33t15.5 12v-91z" />
    <glyph glyph-name="uniFEDC" unicode="&#x643;" horiz-adv-x="672" arabic-form="medial" 
d="M628 0q-51 0 -91.5 21.5t-66 60t-30.5 87.5l113 11q2 -33 20 -61t54 -28h45v-91h-44zM0 0v91h384q24 0 40 17.5t16 53.5t-16 54t-40 18h-159q-58 0 -105.5 22t-75.5 60t-28 86q0 49 28 87t75.5 60t105.5 22h217q37 0 58 11.5t32 19.5q3 -16 -1 -36.5t-15 -40.5t-29 -33
t-45 -13h-217q-42 0 -68.5 -22t-26.5 -55t26.5 -55t68.5 -22h171q47 0 82.5 -21t55.5 -58t20 -84t-20 -83.5t-55.5 -57.5t-82.5 -21h-396zM0 0q-11 0 -15.5 12.5t-4.5 33.5t4.5 33t15.5 12v-91zM672 0v91q12 0 16 -12t4 -33t-4 -33.5t-16 -12.5z" />
    <glyph glyph-name="uniFEDE" unicode="&#x644;" horiz-adv-x="751" arabic-form="final" 
d="M706 0q-54 0 -97 25t-67.5 68t-24.5 98h114q0 -23 8 -46.5t25 -38.5t42 -15h45v-91h-45zM366 -236q-94 0 -161.5 31.5t-103.5 89.5t-36 136q0 31 6.5 67.5t21 69.5t37.5 54.5t56 21.5q21 0 35 -8t22.5 -18t10.5 -19q-27 -21 -43.5 -46.5t-24 -56.5t-7.5 -70
q0 -81 49.5 -121t138.5 -40q81 0 115.5 36.5t34.5 125.5v496q0 34 -8.5 53.5t-20.5 29.5t-21 15q2 7 10.5 18.5t24 21t39.5 9.5q25 0 45.5 -13t32.5 -39t12 -64v-527q0 -116 -63 -184.5t-202 -68.5zM751 0v91q11 0 15.5 -12t4.5 -33t-4.5 -33.5t-15.5 -12.5z" />
    <glyph glyph-name="uniFEDF" unicode="&#x644;" horiz-adv-x="290" arabic-form="initial" 
d="M0 0v91h40q27 0 43.5 15t24.5 38.5t8 46.5v322q0 34 -9 53.5t-20.5 29.5t-20.5 15q2 7 10 18.5t24 21t39 9.5q26 0 46 -13t32 -39t12 -64v-353q0 -55 -24.5 -98t-66.5 -68t-98 -25h-40zM0 0q-11 0 -15.5 12.5t-4.5 33.5t4.5 33t15.5 12v-91z" />
    <glyph glyph-name="uniFEE0" unicode="&#x644;" horiz-adv-x="350" arabic-form="medial" 
d="M305 0q-55 0 -97.5 25t-67 68t-24.5 98h113q0 -23 8 -46.5t25.5 -38.5t42.5 -15h45v-91h-45zM0 0v91h40q27 0 43.5 15t24.5 38.5t8 46.5v322q0 34 -9 53.5t-20.5 29.5t-20.5 15q2 7 10 18.5t24 21t39 9.5q26 0 46 -13t32 -39t12 -64v-353q0 -55 -24.5 -98t-66.5 -68
t-98 -25h-40zM0 0q-11 0 -15.5 12.5t-4.5 33.5t4.5 33t15.5 12v-91zM350 0v91q11 0 15.5 -12t4.5 -33t-4.5 -33.5t-15.5 -12.5z" />
    <glyph glyph-name="uniFEE2" unicode="&#x645;" horiz-adv-x="692" arabic-form="final" 
d="M647 0q-54 0 -97 25t-67.5 68t-24.5 98v47h113v-47q0 -23 8.5 -46.5t25.5 -38.5t42 -15h45v-91h-45zM107 -278q-21 0 -35 8.5t-21.5 19t-10.5 16.5q8 6 18 14.5t17.5 26t7.5 47.5v67q0 50 27 88.5t74 60t106 21.5h54q56 0 85 39t29 112q0 75 -29.5 111t-88.5 36
q-25 0 -41 -5.5t-20 -14.5v-355h-114v355q0 48 49 79.5t127 31.5q106 0 168 -63t62 -176q0 -76 -27 -130t-74 -82.5t-106 -28.5h-74q-33 0 -54 -11.5t-30 -29.5t-9 -38v-83q0 -38 -12 -64t-32 -39t-46 -13zM692 0v91q11 0 15.5 -12t4.5 -33t-4.5 -33.5t-15.5 -12.5z" />
    <glyph glyph-name="uniFEE3" unicode="&#x645;" horiz-adv-x="525" arabic-form="initial" 
d="M0 0v91h236q55 0 84.5 39t29.5 111q0 76 -30 112t-88 36q-26 0 -41.5 -5.5t-20.5 -14.5v-369h-113v369q0 48 49 79.5t126 31.5q106 0 168.5 -63t62.5 -176q0 -76 -27 -130t-74 -82.5t-106 -28.5h-256zM0 0q-11 0 -15.5 12.5t-4.5 33.5t4.5 33t15.5 12v-91z" />
    <glyph glyph-name="uniFEE4" unicode="&#x645;" horiz-adv-x="583" arabic-form="medial" 
d="M539 0q-55 0 -98 25t-67 68t-24 98v47h113v-47q0 -23 8 -46.5t25 -38.5t43 -15h44v-91h-44zM0 0v91h236q55 0 84.5 39t29.5 111q0 76 -30 112t-88 36q-26 0 -41.5 -5.5t-20.5 -14.5v-369h-113v369q0 48 49 79.5t126 31.5q106 0 168.5 -63t62.5 -176q0 -76 -27 -130
t-74 -82.5t-106 -28.5h-256zM0 0q-11 0 -15.5 12.5t-4.5 33.5t4.5 33t15.5 12v-91zM583 0v91q12 0 16 -12t4 -33t-4 -33.5t-16 -12.5z" />
    <glyph glyph-name="uniFEE6" unicode="&#x646;" horiz-adv-x="751" arabic-form="final" 
d="M706 0q-54 0 -97 25t-67.5 68t-24.5 98h114q0 -23 8 -46.5t25 -38.5t42 -15h45v-91h-45zM366 -236q-94 0 -161.5 31.5t-103.5 89.5t-36 136q0 31 6.5 67.5t21 69.5t37.5 54.5t56 21.5q21 0 35 -8t22.5 -18t10.5 -19q-27 -21 -43.5 -46.5t-24 -56.5t-7.5 -70
q0 -81 49.5 -121t138.5 -40q81 0 115.5 36.5t34.5 125.5v405q0 25 13.5 41.5t43.5 16.5t43.5 -16.5t13.5 -41.5v-405q0 -116 -63 -184.5t-202 -68.5zM751 0v91q11 0 15.5 -12t4.5 -33t-4.5 -33.5t-15.5 -12.5zM349 480q-29 0 -48.5 19.5t-19.5 46.5t19.5 46.5t47.5 19.5
q27 0 46.5 -19.5t19.5 -46.5t-19.5 -46.5t-45.5 -19.5z" />
    <glyph glyph-name="uniFEE7" unicode="&#x646;" horiz-adv-x="346" arabic-form="initial" 
d="M0 0v91h82q19 0 33.5 10t24.5 26t16.5 37t9 44.5t2.5 46.5q0 40 -7.5 72t-23.5 59t-44 50q2 8 10 18.5t22.5 18t34.5 7.5q32 0 55.5 -20t37.5 -53t21 -73t7 -81q0 -118 -52.5 -185.5t-146.5 -67.5h-82zM0 0q-11 0 -15.5 12.5t-4.5 33.5t4.5 33t15.5 12v-91zM162 545
q-29 0 -48.5 19.5t-19.5 46.5t19.5 46.5t47.5 19.5q27 0 46.5 -19.5t19.5 -46.5t-19.5 -46.5t-45.5 -19.5z" />
    <glyph glyph-name="uniFEE8" unicode="&#x646;" horiz-adv-x="350" arabic-form="medial" 
d="M0 0v91h40q27 0 43.5 15t24.5 38.5t8 46.5v232q0 24 13.5 40.5t43.5 16.5q29 0 42.5 -16.5t13.5 -40.5v-232q0 -55 -24.5 -98t-66.5 -68t-98 -25h-40zM305 0q-55 0 -97.5 25t-67 68t-24.5 98h113q0 -23 8 -46.5t25.5 -38.5t42.5 -15h45v-91h-45zM350 0v91q11 0 15.5 -12
t4.5 -33t-4.5 -33.5t-15.5 -12.5zM0 0q-11 0 -15.5 12.5t-4.5 33.5t4.5 33t15.5 12v-91zM174 545q-29 0 -48.5 19.5t-19.5 46.5t19.5 46.5t47.5 19.5q27 0 46.5 -19.5t19.5 -46.5t-19.5 -46.5t-45.5 -19.5z" />
    <glyph glyph-name="uniFEEA" unicode="&#x647;" horiz-adv-x="525" arabic-form="final" 
d="M269 0q-58 0 -105.5 28.5t-74.5 82.5t-27 130q0 113 62.5 176t168.5 63q78 0 126.5 -31.5t48.5 -79.5v-369h-113v369q-4 9 -20 14.5t-42 5.5q-58 0 -87.5 -36t-29.5 -112q0 -72 29 -111t84 -39h236v-91h-256zM525 0v91q12 0 16 -12t4 -33t-4 -33.5t-16 -12.5z" />
    <glyph glyph-name="uniFEEB" unicode="&#x647;" horiz-adv-x="691" arabic-form="initial" 
d="M0 0v91h70q99 0 139.5 37t40.5 119q0 47 -11.5 66.5t-32.5 19.5q-20 0 -32 -19.5t-12 -66.5q0 -82 41 -119t139 -37h52q56 0 87 52t31 143q0 76 -24.5 119.5t-80.5 62t-150 18.5q-30 0 -48.5 -1.5t-30.5 -1.5q-33 0 -52.5 12.5t-28.5 32t-10 40.5q-1 19 2.5 28.5
t10.5 10.5q7 -12 25.5 -22.5t56.5 -10.5q14 0 30 1.5t47 1.5q194 0 280.5 -74t86.5 -218q0 -95 -32.5 -158.5t-85 -95t-114.5 -31.5h-52q-81 0 -147.5 24t-106 77.5t-39.5 139.5q0 52 16 93t51 65.5t90 24.5q56 0 90.5 -24.5t51 -65.5t16.5 -93q0 -86 -39.5 -139.5
t-106.5 -77.5t-148 -24h-70zM0 0q-11 0 -15.5 12.5t-4.5 33.5t4.5 33t15.5 12v-91z" />
    <glyph glyph-name="uniFEEC" unicode="&#x647;" horiz-adv-x="746" arabic-form="medial" 
d="M701 0q-54 0 -97 25t-67.5 68t-24.5 98v47l114 43v-90q0 -23 8 -46.5t25 -38.5t42 -15h45v-91h-45zM0 0v91h70q99 0 139.5 37t40.5 119q0 47 -11.5 66.5t-32.5 19.5q-20 0 -32 -19.5t-12 -66.5q0 -82 41 -119t139 -37h52q56 0 87 52t31 143q0 76 -24.5 119.5t-80.5 62
t-150 18.5q-30 0 -48.5 -1.5t-30.5 -1.5q-33 0 -52.5 12.5t-28.5 32t-10 40.5q-1 19 2.5 28.5t10.5 10.5q7 -12 25.5 -22.5t56.5 -10.5q14 0 30 1.5t47 1.5q194 0 280.5 -74t86.5 -218q0 -95 -32.5 -158.5t-85 -95t-114.5 -31.5h-52q-81 0 -147.5 24t-106 77.5t-39.5 139.5
q0 52 16 93t51 65.5t90 24.5q56 0 90.5 -24.5t51 -65.5t16.5 -93q0 -86 -39.5 -139.5t-106.5 -77.5t-148 -24h-70zM0 0q-11 0 -15.5 12.5t-4.5 33.5t4.5 33t15.5 12v-91zM746 0v91q12 0 16 -12t4 -33t-4 -33.5t-16 -12.5z" />
    <glyph glyph-name="uniFEEE" unicode="&#x648;" horiz-adv-x="555" arabic-form="final" 
d="M468 0v91h87v-91h-87zM269 0q-58 0 -105.5 28.5t-74.5 82.5t-27 130q0 113 62.5 176t168.5 63q78 0 126.5 -31.5t48.5 -79.5v-369h-113v369q-4 9 -20 14.5t-42 5.5q-58 0 -87.5 -36t-29.5 -112q0 -72 29 -111t84 -39h179v-91h-199zM346 -229q-20 0 -34 7.5t-22 18.5
t-10 18q29 24 45 51t23 60.5t7 73.5v91h113v-91q0 -40 -6.5 -80.5t-21 -74.5t-37.5 -54t-57 -20zM555 0v91q11 0 15.5 -12t4.5 -33t-4.5 -33.5t-15.5 -12.5z" />
    <glyph glyph-name="uniFEF0" unicode="&#x649;" horiz-adv-x="910" arabic-form="final" 
d="M428 -236q-113 0 -194 33t-125 96.5t-44 155.5q0 35 7 71t21 66.5t35.5 49.5t51.5 19q20 0 33.5 -8t21.5 -18t10 -19q-26 -21 -46 -59.5t-20 -102.5q0 -34 9.5 -68t36 -62t75.5 -45.5t129 -17.5q78 0 129 17t79.5 43t40 55t11.5 53l114 7q0 -83 -47.5 -142.5t-132 -91.5
t-195.5 -32zM655 0q-40 0 -62.5 12t-32 31t-8 40t9.5 39q11 -10 35 -20.5t57 -10.5h256v-91h-255zM910 0v91q12 0 16 -12t4 -33t-4 -33.5t-16 -12.5z" />
    <glyph glyph-name="uniFEF2" unicode="&#x64a;" horiz-adv-x="910" arabic-form="final" 
d="M428 -236q-113 0 -194 33t-125 96.5t-44 155.5q0 35 7 71t21 66.5t35.5 49.5t51.5 19q20 0 33.5 -8t21.5 -18t10 -19q-26 -21 -46 -59.5t-20 -102.5q0 -34 9.5 -68t36 -62t75.5 -45.5t129 -17.5q78 0 129 17t79.5 43t40 55t11.5 53l114 7q0 -83 -47.5 -142.5t-132 -91.5
t-195.5 -32zM655 0q-40 0 -62.5 12t-32 31t-8 40t9.5 39q11 -10 35 -20.5t57 -10.5h256v-91h-255zM910 0v91q12 0 16 -12t4 -33t-4 -33.5t-16 -12.5zM507 -423q-25 0 -43.5 18.5t-18.5 43.5q0 26 18.5 44t43.5 18q26 0 43.5 -18t17.5 -44q0 -25 -17.5 -43.5t-43.5 -18.5z
M351 -423q-24 0 -42.5 18.5t-18.5 43.5q0 26 18 44t43 18q26 0 44 -18t18 -44q0 -25 -18 -43.5t-44 -18.5z" />
    <glyph glyph-name="uniFEF3" unicode="&#x64a;" horiz-adv-x="346" arabic-form="initial" 
d="M0 0v91h82q19 0 33.5 10t24.5 26t16.5 37t9 44.5t2.5 46.5q0 40 -7.5 72t-23.5 59t-44 50q2 8 10 18.5t22.5 18t34.5 7.5q32 0 55.5 -20t37.5 -53t21 -73t7 -81q0 -118 -52.5 -185.5t-146.5 -67.5h-82zM0 0q-11 0 -15.5 12.5t-4.5 33.5t4.5 33t15.5 12v-91zM239 -207
q-25 0 -43.5 18.5t-18.5 43.5q0 26 18.5 44t43.5 18q26 0 43.5 -18t17.5 -44q0 -25 -17.5 -43.5t-43.5 -18.5zM83 -207q-24 0 -42.5 18.5t-18.5 43.5q0 26 18 44t43 18q26 0 44 -18t18 -44q0 -25 -18 -43.5t-44 -18.5z" />
    <glyph glyph-name="uniFEF4" unicode="&#x64a;" horiz-adv-x="350" arabic-form="medial" 
d="M0 0v91h40q27 0 43.5 15t24.5 38.5t8 46.5v232q0 24 13.5 40.5t43.5 16.5q29 0 42.5 -16.5t13.5 -40.5v-232q0 -55 -24.5 -98t-66.5 -68t-98 -25h-40zM305 0q-55 0 -97.5 25t-67 68t-24.5 98h113q0 -23 8 -46.5t25.5 -38.5t42.5 -15h45v-91h-45zM350 0v91q11 0 15.5 -12
t4.5 -33t-4.5 -33.5t-15.5 -12.5zM0 0q-11 0 -15.5 12.5t-4.5 33.5t4.5 33t15.5 12v-91zM251 -207q-25 0 -43.5 18.5t-18.5 43.5q0 26 18.5 44t43.5 18q26 0 43.5 -18t17.5 -44q0 -25 -17.5 -43.5t-43.5 -18.5zM95 -207q-24 0 -42.5 18.5t-18.5 43.5q0 26 18 44t43 18
q26 0 44 -18t18 -44q0 -25 -18 -43.5t-44 -18.5z" />
    <glyph glyph-name=".notdef" horiz-adv-x="500" 
d="M50 0v700h398l2 -700h-400zM100 50h300v600h-300v-600z" />
    <glyph glyph-name=".null" 
 />
    <glyph glyph-name="nonmarkingreturn" horiz-adv-x="333" 
 />
    <glyph glyph-name="NULL" 
 />
    <glyph glyph-name="NULL" 
 />
    <glyph glyph-name="CR" unicode="&#xd;" horiz-adv-x="250" 
 />
    <glyph glyph-name="space" unicode=" " horiz-adv-x="250" 
 />
    <glyph glyph-name="exclam" unicode="!" horiz-adv-x="240" 
d="M80 155l-18 505h117l-19 -505h-80zM120 -14q-26 0 -42 16.5t-16 42.5q0 24 16 40.5t42 16.5t42 -16.5t16 -40.5q0 -26 -16 -42.5t-42 -16.5z" />
    <glyph glyph-name="quotedbl" unicode="&#x22;" horiz-adv-x="380" 
d="M244 390l-30 270h118l-30 -270h-58zM78 390l-30 270h118l-30 -270h-58z" />
    <glyph glyph-name="numbersign" unicode="#" horiz-adv-x="686" 
d="M120 0l36 173h-126v63h139l37 178h-116v63h129l42 198h85l-42 -198h135l41 198h85l-41 -198h131v-63h-145l-36 -178h121v-63h-135l-35 -173h-85l35 173h-134l-36 -173h-85zM254 236h135l36 178h-134z" />
    <glyph glyph-name="dollar" unicode="$" horiz-adv-x="540" 
d="M235 -80v65q-49 5 -92.5 20t-70.5 40t-27 59v113h24q15 -93 56 -137.5t110 -52.5v263l-68 41q-67 39 -94.5 80t-27.5 96q0 74 51.5 119.5t138.5 50.5v58h58v-59q47 -4 89.5 -19.5t69.5 -40.5t27 -58v-113h-24q-15 93 -55 137t-107 51v-246l84 -49q66 -39 97 -76.5
t31 -92.5q0 -82 -55.5 -131.5t-156.5 -53.5v-64h-58zM293 28q44 5 73 29.5t29 67.5q0 42 -25.5 71t-76.5 59v-227zM235 422v210q-38 -7 -63 -32t-25 -64t23 -63.5t65 -50.5z" />
    <glyph glyph-name="percent" unicode="%" horiz-adv-x="722" 
d="M78 0l473 660h93l-472 -660h-94zM539 -5q-72 0 -113 36t-41 101t41 101t113 36q71 0 112 -36t41 -101t-41 -101t-112 -36zM538 33q82 0 82 99t-82 99q-81 0 -81 -99t81 -99zM185 391q-72 0 -113 36t-41 101t41 101t113 36q71 0 111.5 -36t40.5 -101t-40.5 -101
t-111.5 -36zM184 429q82 0 82 99t-83 99q-80 0 -80 -99t81 -99z" />
    <glyph glyph-name="ampersand" unicode="&#x26;" horiz-adv-x="628" 
d="M268 -20q-83 0 -134 21.5t-74.5 57t-23.5 78.5q0 44 21 77.5t56 60.5t75 51q-12 11 -30 30t-36 45.5t-30 57.5t-12 65q0 73 51.5 114.5t140.5 41.5q86 0 131.5 -39.5t45.5 -100.5q0 -43 -21 -78.5t-55.5 -65t-74.5 -56.5l191 -208q19 21 35 43t28 39q7 11 13 20.5
t11 19.5l30 -20q-4 -10 -9.5 -21t-12.5 -22q-11 -19 -27.5 -42.5t-38.5 -47.5l93 -101h-125l-39 40q-9 -7 -34 -21.5t-62 -26.5t-83 -12zM281 18q44 0 79.5 15.5t60.5 36.5l-197 213q-30 -26 -51 -59.5t-21 -76.5q0 -61 32 -95t97 -34zM263 379q34 30 57 66t23 85
q0 42 -11 66.5t-27.5 35t-32.5 10.5q-21 0 -38.5 -11t-27.5 -36.5t-10 -70.5q0 -28 8 -52t19 -43t22 -31.5t18 -18.5z" />
    <glyph glyph-name="quotesingle" unicode="'" horiz-adv-x="214" 
d="M78 390l-30 270h118l-30 -270h-58z" />
    <glyph glyph-name="parenleft" unicode="(" horiz-adv-x="315" 
d="M292 -216q-86 61 -145 129t-89 149t-30 178q0 98 30 178.5t89 149t145 128.5l12 -18q-61 -54 -96.5 -123.5t-50.5 -149t-15 -165.5q0 -85 15 -165t50.5 -149.5t96.5 -123.5z" />
    <glyph glyph-name="parenright" unicode=")" horiz-adv-x="316" 
d="M24 -216l-12 18q62 54 97 123.5t50 149.5t15 165q0 86 -15 165.5t-50 149t-97 123.5l12 18q86 -60 145 -128.5t89 -149t30 -178.5q0 -97 -30 -178t-89 -149t-145 -129z" />
    <glyph glyph-name="asterisk" unicode="*" horiz-adv-x="430" 
d="M166 326l26 133l-105 -95l-45 79l144 50l-144 50l45 80l105 -96l-26 133h98l-26 -133l105 96l45 -80l-144 -50l144 -50l-45 -79l-106 96l27 -134h-98z" />
    <glyph glyph-name="plus" unicode="+" horiz-adv-x="539" 
d="M231 100v197h-198v66h198v197h78v-197h198v-66h-198v-197h-78z" />
    <glyph glyph-name="comma" unicode="," horiz-adv-x="232" 
d="M66 -158l-14 20q20 14 38.5 32.5t30.5 42.5t12 54q-4 -1 -10 -3t-11 -2q-27 0 -43 16.5t-16 41.5q0 27 16.5 44t44.5 17q31 0 48 -21.5t17 -53.5q0 -60 -26.5 -105.5t-86.5 -82.5z" />
    <glyph glyph-name="hyphen" unicode="-" horiz-adv-x="392" 
d="M61 222v85h269v-85h-269z" />
    <glyph glyph-name="period" unicode="." horiz-adv-x="222" 
d="M111 -14q-26 0 -42 16.5t-16 42.5q0 24 16 41t42 17q27 0 42.5 -17t15.5 -41q0 -26 -16 -42.5t-42 -16.5z" />
    <glyph glyph-name="slash" unicode="/" horiz-adv-x="461" 
d="M22 0l321 660h96l-321 -660h-96z" />
    <glyph glyph-name="zero" unicode="0" horiz-adv-x="597" 
d="M298 -20q-91 0 -147 44t-80 123t-24 183q0 105 24 183.5t80 122.5t147 44q93 0 148.5 -44t79.5 -122.5t24 -183.5q0 -104 -24 -183t-79.5 -123t-148.5 -44zM298 23q71 0 100 74.5t29 232.5t-29 232.5t-100 74.5q-70 0 -99 -74.5t-29 -232.5t29 -232.5t99 -74.5z" />
    <glyph glyph-name="one" unicode="1" horiz-adv-x="316" 
d="M123 0v549l-91 -58l-22 27l155 142h72v-660h-114z" />
    <glyph glyph-name="two" unicode="2" horiz-adv-x="535" 
d="M41 0v59q41 40 85 81.5t85 84t74 86t52.5 88t19.5 89.5q0 51 -17 84t-44 49t-58 16q-61 0 -105 -42.5t-59 -130.5h-29q0 38 3 75.5t21 60.5q27 33 79.5 56.5t113.5 23.5q33 0 70.5 -7.5t71.5 -27.5t55 -58t21 -99q0 -45 -18.5 -87.5t-49 -83t-69 -78t-79 -72t-78 -66
t-65.5 -58.5h214q60 0 92.5 27.5t32.5 80.5h26v-71q0 -20 -7 -38.5t-25 -30t-53 -11.5h-360z" />
    <glyph glyph-name="three" unicode="3" horiz-adv-x="538" 
d="M272 -20q-58 0 -101.5 13.5t-77 37.5t-61.5 57l23 24q41 -45 87 -67t94 -22q40 0 72.5 17t52 52.5t19.5 92.5q0 54 -18.5 88t-48 50.5t-62.5 16.5q-24 0 -40 -2t-31.5 -5.5t-39.5 -9.5l-25 39l272 255h-181q-60 0 -92.5 -27.5t-32.5 -80.5h-26v71q0 20 7 38.5t25.5 30
t52.5 11.5h330v-43l-257 -241q11 4 35.5 5.5t38.5 1.5q30 0 67 -9.5t71 -32t56 -60.5t22 -96q0 -64 -24.5 -104.5t-62 -62.5t-76.5 -30t-68 -8z" />
    <glyph glyph-name="four" unicode="4" horiz-adv-x="561" 
d="M333 0v170h-320v40l339 450h94v-447h90v-43h-90v-170h-113zM78 213h255v339z" />
    <glyph glyph-name="five" unicode="5" horiz-adv-x="539" 
d="M262 -20q-79 0 -130 28.5t-93 78.5l25 22q38 -45 84 -65.5t94 -20.5q39 0 71.5 17t52 53t19.5 95q0 78 -42 116t-117 38q-30 0 -62 -5.5t-63 -11.5l-40 39l11 296h383v-42h-281l-9 -237l31 2q13 1 29.5 2t32.5 1q38 0 82 -8.5t82 -30.5t62.5 -61t24.5 -98
q0 -63 -25.5 -104t-64.5 -63.5t-81 -31.5t-76 -9z" />
    <glyph glyph-name="six" unicode="6" horiz-adv-x="551" 
d="M289 -20q-123 0 -182.5 88t-59.5 262q0 178 66.5 264t201.5 86q47 0 89 -10.5t69 -21.5l-6 -25q-28 5 -50.5 8t-42 4.5t-39.5 1.5q-81 0 -125 -64.5t-44 -187.5q23 18 59.5 32.5t84.5 14.5q75 0 120 -28.5t65.5 -79.5t20.5 -119q0 -58 -25.5 -109.5t-75.5 -83.5t-126 -32
zM289 23q35 0 59 25.5t36.5 67t12.5 89.5q0 88 -27 136t-90 48q-28 0 -51.5 -9.5t-39.5 -21.5t-23 -20q0 -112 15 -182t43 -101.5t65 -31.5z" />
    <glyph glyph-name="seven" unicode="7" horiz-adv-x="473" 
d="M106 0l250 617h-182q-60 0 -92.5 -27.5t-32.5 -80.5h-26v71q0 20 7 38.5t25.5 30t52.5 11.5h357v-43l-250 -617h-109z" />
    <glyph glyph-name="eight" unicode="8" horiz-adv-x="568" 
d="M284 -20q-65 0 -120.5 17.5t-88.5 55.5t-33 98q0 49 23.5 83.5t61.5 58.5t79 42q-37 22 -68.5 45t-51 54t-19.5 75q0 65 30 102.5t79.5 53t107.5 15.5q59 0 108.5 -15t79 -50t29.5 -96q0 -39 -18 -69.5t-47.5 -53.5t-65.5 -39q40 -22 75.5 -48.5t58 -61.5t22.5 -86
q0 -65 -32.5 -105t-87.5 -58t-122 -18zM284 23q34 0 62 13t44.5 39.5t16.5 65.5q0 42 -21 72.5t-55 54.5t-75 45q-27 -14 -48.5 -34t-34 -50.5t-12.5 -77.5q0 -44 16.5 -72.5t44.5 -42t62 -13.5zM321 382q27 21 44 51t17 86q0 47 -15.5 72.5t-38 35.5t-44.5 10
q-21 0 -44 -9.5t-38.5 -33t-15.5 -65.5q0 -32 18.5 -58.5t50 -49t66.5 -39.5z" />
    <glyph glyph-name="nine" unicode="9" horiz-adv-x="550" 
d="M235 -20q-32 0 -62.5 5t-55 12.5t-40.5 14.5l6 25q31 -5 51.5 -8.5t39.5 -4.5t41 -1q81 0 125 64.5t44 187.5q-23 -18 -59.5 -32.5t-84.5 -14.5q-75 0 -120 28.5t-65.5 79.5t-20.5 119q0 59 25.5 110t76 83t125.5 32q123 0 182.5 -88.5t59.5 -261.5q0 -179 -66.5 -264.5
t-201.5 -85.5zM270 271q29 0 52 9.5t39 22t23 19.5q0 112 -15 182t-43 101.5t-65 31.5q-34 0 -58.5 -25.5t-37 -66.5t-12.5 -90q0 -88 27 -136t90 -48z" />
    <glyph glyph-name="colon" unicode=":" horiz-adv-x="239" 
d="M120 345q-26 0 -42 16.5t-16 41.5t16 41.5t42 16.5t42 -16.5t16 -41.5t-16 -41.5t-42 -16.5zM119 -14q-26 0 -42 16.5t-16 42.5q0 24 16 41t42 17q27 0 43 -17t16 -41q0 -26 -16 -42.5t-43 -16.5z" />
    <glyph glyph-name="semicolon" unicode=";" horiz-adv-x="253" 
d="M127 345q-26 0 -42 16.5t-16 42.5q0 24 16 41t42 17q27 0 42.5 -17t15.5 -41q0 -26 -16 -42.5t-42 -16.5zM77 -158l-14 20q20 14 38.5 32.5t30.5 42.5t12 54q-4 -1 -10 -3t-11 -2q-27 0 -43 16.5t-16 41.5q0 27 16.5 44t44.5 17q31 0 48 -21.5t17 -53.5
q0 -60 -26.5 -105.5t-86.5 -82.5z" />
    <glyph glyph-name="less" unicode="&#x3c;" horiz-adv-x="613" 
d="M549 83l-520 225v54l520 225v-78l-402 -174l402 -174v-78z" />
    <glyph glyph-name="equal" unicode="=" horiz-adv-x="662" 
d="M61 387v66h539v-66h-539zM61 207v66h539v-66h-539z" />
    <glyph glyph-name="greater" unicode="&#x3e;" horiz-adv-x="613" 
d="M64 83v78l402 174l-402 174v78l520 -225v-54z" />
    <glyph glyph-name="question" unicode="?" horiz-adv-x="490" 
d="M204 156q1 46 15 80t34 61t38.5 54t31.5 59.5t13 77.5q0 81 -33.5 115t-81.5 34q-59 0 -103.5 -43.5t-62.5 -137.5h-26q0 42 3 80.5t23 62.5q28 33 81.5 57t114.5 24q40 0 77 -10.5t67 -33.5t47.5 -59.5t17.5 -88.5q0 -50 -19.5 -86t-48.5 -63.5t-58 -54t-50 -56.5
t-24 -72h-56zM232 -14q-27 0 -42.5 17t-15.5 42t15.5 41.5t42.5 16.5q26 0 42 -16.5t16 -41.5t-16 -42t-42 -17z" />
    <glyph glyph-name="at" unicode="@" horiz-adv-x="868" 
d="M436 -180q-117 0 -207.5 48.5t-141.5 144.5t-51 237t51 237t141.5 144.5t207.5 48.5q118 0 208 -48t140.5 -139.5t50.5 -222.5q0 -126 -49 -195.5t-155 -69.5q-22 0 -45 4t-42.5 16.5t-29.5 34.5h-5q-14 -21 -45 -38t-80 -17q-34 0 -62.5 8.5t-50.5 25.5t-34.5 43
t-12.5 60q0 49 28 81t86.5 48t149.5 16h21q0 67 -12.5 103t-34 49t-50.5 13q-37 0 -65 -19.5t-39 -68.5h-51q0 31 6.5 56t25.5 43q16 17 57 24.5t86 7.5q43 0 78 -11t60 -35t39 -64.5t14 -99.5v-182q0 -22 10.5 -38t33.5 -16q32 0 57 22.5t39.5 71t14.5 127.5q0 119 -43 201
t-119.5 124t-179.5 42q-102 0 -179.5 -43t-120 -129t-42.5 -215t42.5 -215t120 -129t179.5 -43q96 0 173 23t141 68l24 -36q-62 -43 -144.5 -70.5t-193.5 -27.5zM420 53q35 0 56.5 20.5t32.5 42.5v127h-21q-79 0 -113.5 -25.5t-34.5 -75.5q0 -45 22 -67t58 -22z" />
    <glyph glyph-name="A" unicode="A" horiz-adv-x="642" 
d="M626 -4q-29 0 -63.5 8.5t-67 36t-55.5 85.5l-24 59h-272l-81 -185h-49l289 660h38l223 -534q20 -49 44.5 -73.5t61.5 -28.5v-23q-8 -2 -20.5 -3.5t-23.5 -1.5zM163 228h233l-114 273z" />
    <glyph glyph-name="B" unicode="B" horiz-adv-x="635" 
d="M100 0v534q0 45 -12.5 72.5t-57.5 27.5h-15v26h266q44 0 93.5 -5.5t93 -23t71 -52.5t27.5 -94q0 -44 -33 -84t-102 -60q65 -8 101.5 -31t51 -55.5t14.5 -72.5q0 -57 -25 -92.5t-67 -55t-93 -27t-102 -7.5h-211zM296 38q87 0 133 36t46 103q0 68 -45 103.5t-134 35.5h-83
v-266q16 -5 38 -8.5t45 -3.5zM213 359h83q41 0 74.5 13.5t54 42.5t20.5 75q0 49 -25 78t-63 41.5t-78 12.5q-14 0 -30.5 -2t-35.5 -6v-255z" />
    <glyph glyph-name="C" unicode="C" horiz-adv-x="673" 
d="M362 -20q-101 0 -173.5 45t-110.5 122.5t-38 172.5q0 76 24 141.5t68.5 114.5t103 76.5t126.5 27.5q89 0 147.5 -24t86.5 -57q19 -24 22 -65t3 -86h-26q-19 94 -69.5 141.5t-133.5 47.5q-63 0 -115 -29t-83 -98t-31 -190q0 -57 13 -110t40.5 -95.5t70.5 -67t105 -24.5
q71 0 128 36.5t95 105.5l29 -22q-47 -88 -115.5 -125.5t-166.5 -37.5z" />
    <glyph glyph-name="D" unicode="D" horiz-adv-x="727" 
d="M100 0v534q0 45 -12.5 72.5t-57.5 27.5h-15v26h268q203 0 304 -87.5t101 -238.5q0 -98 -43 -173.5t-127.5 -118t-208.5 -42.5h-209zM306 38q72 0 128 35.5t88.5 101t32.5 155.5q0 88 -32 153.5t-88.5 102t-130.5 36.5q-22 0 -41.5 -2t-48.5 -9v-564q22 -4 36.5 -6
t27.5 -2.5t28 -0.5z" />
    <glyph glyph-name="E" unicode="E" horiz-adv-x="596" 
d="M100 0v534q0 45 -12.5 72.5t-57.5 27.5h-15v26h435q35 0 53 -11.5t25 -30t7 -38.5v-81h-26q0 62 -32.5 90t-92.5 28h-171v-254h264v-43h-264v-277h173q60 0 99 24.5t64 87.5l24 -8l-32 -85q-9 -29 -27 -45.5t-55 -16.5h-359z" />
    <glyph glyph-name="F" unicode="F" horiz-adv-x="534" 
d="M100 0v534q0 45 -12.5 72.5t-57.5 27.5h-15v26h411q35 0 53 -11.5t25 -30t7 -38.5v-81h-26q0 63 -32.5 90.5t-92.5 27.5h-147v-259h223v-43h-223v-315h-113z" />
    <glyph glyph-name="G" unicode="G" horiz-adv-x="728" 
d="M390 -20q-76 0 -140.5 27.5t-111.5 76.5t-73 114.5t-26 141.5q0 96 39.5 173t112 122t169.5 45q93 0 153.5 -24t88.5 -57q19 -24 22 -63.5t3 -73.5h-26q-19 90 -70.5 132.5t-140.5 42.5q-61 0 -104 -24.5t-70.5 -67t-40.5 -95.5t-13 -110q0 -121 31 -191t83 -99.5
t114 -29.5q49 0 82.5 8t61.5 22v176q0 21 5.5 42t24.5 38.5t55 28.5t97 11v-23q-40 0 -54.5 -25t-14.5 -70v-183q-56 -34 -118.5 -49.5t-138.5 -15.5z" />
    <glyph glyph-name="H" unicode="H" horiz-adv-x="709" 
d="M100 0v534q0 45 -12.5 72.5t-57.5 27.5h-15v26h108q35 0 54.5 -11t27.5 -38t8 -77v-171h282v297h114v-534q0 -45 12.5 -72.5t57.5 -27.5h14v-26h-108q-35 0 -54.5 10.5t-27.5 38t-8 77.5v194h-282v-320h-113z" />
    <glyph glyph-name="I" unicode="I" horiz-adv-x="296" 
d="M173 0q-35 0 -54.5 10.5t-27.5 38t-8 77.5v534h114v-534q0 -45 12.5 -72.5t57.5 -27.5h14v-26h-108z" />
    <glyph glyph-name="J" unicode="J" horiz-adv-x="271" 
d="M-15 -137v26q31 2 52 22t31.5 61.5t10.5 108.5v579h114v-579q0 -82 -17.5 -129.5t-62.5 -68t-128 -20.5z" />
    <glyph glyph-name="K" unicode="K" horiz-adv-x="686" 
d="M627 -10q-33 0 -68.5 9t-75.5 35t-88 76l-181 189v-299h-114v534q0 45 -12.5 72.5t-57.5 27.5h-15v26h108q35 0 54.5 -11t28 -38t8.5 -77v-192l188 213q23 27 48 51t56 39t70 15h62v-31q-51 0 -91 -14.5t-77 -55.5l-167 -189l230 -240q26 -27 55.5 -51t58 -39t50.5 -18
v-22q-11 -4 -29 -7t-41 -3z" />
    <glyph glyph-name="L" unicode="L" horiz-adv-x="565" 
d="M100 0v534q0 45 -12.5 72.5t-57.5 27.5h-15v26h108q35 0 54.5 -11t27.5 -38t8 -77v-491h349v-43h-462z" />
    <glyph glyph-name="M" unicode="M" horiz-adv-x="862" 
d="M845 -45q-72 0 -115.5 22.5t-62 70t-18.5 122.5v367l-232 -537h-27l-265 553v-553h-46v660h111l241 -503l217 503h115v-490q0 -91 18.5 -139t63.5 -53v-23z" />
    <glyph glyph-name="N" unicode="N" horiz-adv-x="689" 
d="M575 -6l-426 513v-507h-46v540q0 41 -18.5 67.5t-71.5 26.5h-7v26h68q54 0 87.5 -15.5t56.5 -44.5l347 -414v474h46v-666h-36z" />
    <glyph glyph-name="O" unicode="O" horiz-adv-x="724" 
d="M362 -20q-97 0 -169.5 46.5t-112 125.5t-39.5 178t39.5 178t112 125.5t169.5 46.5q98 0 170 -46.5t112 -125.5t40 -178t-40 -178t-112 -125.5t-170 -46.5zM362 23q64 0 108 36.5t67.5 105.5t23.5 165q0 97 -23.5 165.5t-67.5 105t-108 36.5q-62 0 -106.5 -36.5t-68 -105
t-23.5 -165.5q0 -96 23.5 -165t68 -105.5t106.5 -36.5z" />
    <glyph glyph-name="P" unicode="P" horiz-adv-x="567" 
d="M100 0v534q0 45 -12.5 72.5t-57.5 27.5h-15v26h269q27 0 61 -3.5t69 -14.5t65 -33t48.5 -58.5t18.5 -91.5q0 -51 -18 -85.5t-47 -55.5t-60.5 -32t-60 -14.5t-46.5 -3.5h-101v-268h-113zM213 306h66q24 0 49 7.5t46.5 26t34.5 49t13 75.5q0 46 -13 76.5t-34.5 48.5
t-45.5 25.5t-47 7.5q-14 0 -31.5 -2t-37.5 -6v-308z" />
    <glyph glyph-name="Q" unicode="Q" horiz-adv-x="726" 
d="M686 -205q-74 0 -148 18.5t-142.5 62.5t-130.5 119q-68 21 -118.5 69t-77.5 116.5t-27 149.5q0 99 39.5 178t112 125.5t169.5 46.5q98 0 170 -46.5t112 -125.5t40 -178q0 -83 -28 -152.5t-80 -117.5t-124 -68q13 -36 39 -68t59 -55.5t68.5 -36.5t66.5 -13v-24zM363 23
q64 0 108 36.5t67.5 105.5t23.5 165q0 97 -23.5 165.5t-67.5 105t-108 36.5q-62 0 -106.5 -36.5t-68 -105t-23.5 -165.5q0 -96 23.5 -165t68 -105.5t106.5 -36.5z" />
    <glyph glyph-name="R" unicode="R" horiz-adv-x="607" 
d="M553 -10q-34 0 -64.5 14t-60 45.5t-62.5 85.5l-100 168h-52v-303h-114v534q0 45 -12.5 72.5t-57.5 27.5h-15v26h270q26 0 60.5 -3.5t69.5 -14t65 -30.5t48.5 -52t18.5 -80q0 -55 -24 -89t-61 -52.5t-77 -28.5l105 -175q38 -64 69.5 -86t59.5 -26v-23q-8 -4 -27 -7t-39 -3
zM214 341h65q23 0 48 7.5t47 23.5t35.5 43t13.5 66t-13.5 66t-35 43.5t-46.5 24t-48 7.5q-11 0 -29 -2t-37 -6v-273z" />
    <glyph glyph-name="S" unicode="S" horiz-adv-x="550" 
d="M277 -17q-41 0 -81 8t-73.5 24t-53 38.5t-19.5 50.5v113h24q16 -103 65 -147t133 -44q37 0 66 11t45.5 33.5t16.5 54.5q0 43 -27.5 72.5t-77.5 60.5l-123 73q-67 39 -94.5 80t-27.5 96q0 79 58 125t154 46q40 0 79 -8t71.5 -23.5t52 -37.5t19.5 -51v-113h-24
q-17 103 -64.5 146.5t-126.5 43.5q-33 0 -60 -12t-42 -34t-15 -53q0 -42 28.5 -69t78.5 -56l123 -73q66 -39 97 -76.5t31 -92.5q0 -86 -61.5 -136t-171.5 -50z" />
    <glyph glyph-name="T" unicode="T" horiz-adv-x="578" 
d="M242 0v617h-79q-56 0 -87.5 -27t-31.5 -91h-26v81q0 20 7 38.5t25.5 30t52.5 11.5h468v-43h-216v-617h-113z" />
    <glyph glyph-name="U" unicode="U" horiz-adv-x="691" 
d="M359 -10q-93 0 -151.5 33t-85.5 99t-27 165v247q0 44 -11.5 71t-53.5 29h-13v26h101q35 0 54.5 -11t27.5 -38t8 -77l1 -277q1 -105 40 -164.5t126 -59.5q72 0 115.5 27t63.5 83t20 144v373h46v-373q0 -96 -24 -162t-80.5 -100.5t-156.5 -34.5z" />
    <glyph glyph-name="V" unicode="V" horiz-adv-x="637" 
d="M305 -10l-233 553q-24 56 -46 78.5t-57 26.5v20q4 0 17.5 1t20.5 1q31 0 65.5 -8t67 -35t56.5 -84l163 -386l215 503h49l-287 -670h-31z" />
    <glyph glyph-name="W" unicode="W" horiz-adv-x="890" 
d="M275 -9l-207 552q-22 57 -44.5 79t-59.5 26v20q4 0 18 1t21 1q32 0 67 -7.5t66.5 -34.5t53.5 -85l135 -362l97 281l-31 81q-22 57 -46.5 79t-60.5 26v20q4 0 16.5 1t19.5 1q33 0 68 -8t66.5 -34.5t52.5 -84.5l140 -373l171 490h46l-234 -669h-32l-151 403l-140 -403h-32z
" />
    <glyph glyph-name="X" unicode="X" horiz-adv-x="655" 
d="M27 0l247 317l-141 213q-16 26 -38 50.5t-48 41t-58 18.5v20h114q36 0 64 -17t50.5 -42t38.5 -51l93 -141l196 251h58l-227 -291l158 -239q17 -26 39 -50.5t48 -40.5t52 -19v-20h-108q-35 0 -64 17t-51.5 42.5t-38.5 50.5l-109 166l-216 -276h-59z" />
    <glyph glyph-name="Y" unicode="Y" horiz-adv-x="634" 
d="M284 0v268l-175 262q-18 28 -39.5 51.5t-45.5 40t-53 18.5v20h102q37 0 66.5 -16.5t52 -41.5t38.5 -52l140 -213l200 323h57l-230 -374v-286h-113z" />
    <glyph glyph-name="Z" unicode="Z" horiz-adv-x="596" 
d="M28 0v27l390 591h-227q-56 0 -87.5 -27.5t-31.5 -91.5h-26v81q0 20 7 38.5t25.5 30t52.5 11.5h447l-405 -617h396v-43h-541z" />
    <glyph glyph-name="bracketleft" unicode="[" horiz-adv-x="325" 
d="M70 -200v880h232v-43h-129v-794h129v-43h-232z" />
    <glyph glyph-name="backslash" unicode="\" horiz-adv-x="461" 
d="M343 0l-321 660h96l321 -660h-96z" />
    <glyph glyph-name="bracketright" unicode="]" horiz-adv-x="325" 
d="M22 -200v43h130v794h-130v43h233v-880h-233z" />
    <glyph glyph-name="asciicircum" unicode="^" horiz-adv-x="504" 
d="M20 330l215 350h34l215 -350h-85l-147 239l-147 -239h-85z" />
    <glyph glyph-name="underscore" unicode="_" horiz-adv-x="434" 
d="M11 -66v66h412v-66h-412z" />
    <glyph glyph-name="grave" unicode="`" horiz-adv-x="216" 
d="M132 478l-112 202h115l61 -202h-64z" />
    <glyph glyph-name="a" unicode="a" horiz-adv-x="490" 
d="M193 -10q-34 0 -62.5 8.5t-50.5 25.5t-34.5 43t-12.5 60q0 51 28 83t86.5 47.5t149.5 15.5h21q0 64 -12 99.5t-34.5 50t-52.5 14.5q-37 0 -65 -17.5t-39 -70.5h-51q0 26 3.5 51t21.5 45t60.5 27.5t89.5 7.5q43 0 78.5 -11t61 -35t39.5 -64.5t14 -99.5v-270h-71l-35 45h-5
q-14 -20 -46 -37.5t-82 -17.5zM229 38q35 0 56.5 20.5t32.5 42.5v129h-21q-73 0 -109 -26.5t-36 -76.5q0 -45 22 -67t55 -22z" />
    <glyph glyph-name="b" unicode="b" horiz-adv-x="537" 
d="M299 -10q-49 0 -79.5 17.5t-43.5 37.5h-5l-35 -45h-71v534q0 45 -12.5 72.5t-57.5 27.5h-14v26h108q35 0 54.5 -11t27.5 -38t8 -77v-84q20 11 47.5 20.5t65.5 9.5q69 0 114.5 -32.5t67.5 -88t22 -124.5q0 -68 -22 -124t-65.5 -88.5t-109.5 -32.5zM275 33q37 0 59.5 26.5
t33 72.5t10.5 103q0 58 -11 103.5t-35 72t-64 26.5q-27 0 -49.5 -10t-39.5 -20v-311q12 -24 36 -43.5t60 -19.5z" />
    <glyph glyph-name="c" unicode="c" horiz-adv-x="491" 
d="M271 -10q-77 0 -128.5 33.5t-77 89.5t-25.5 122q0 67 25.5 122.5t77 89t128.5 33.5q56 0 94 -8t57 -27t22 -49t3 -87h-26q-4 64 -39.5 96t-92.5 32q-42 0 -71 -24t-44.5 -69t-15.5 -109q0 -62 15 -107.5t44 -70t74 -24.5q53 0 85.5 22.5t58.5 59.5l27 -20
q-17 -29 -42.5 -52.5t-61.5 -38t-87 -14.5z" />
    <glyph glyph-name="d" unicode="d" horiz-adv-x="538" 
d="M239 -10q-66 0 -110 32.5t-66 88.5t-22 124q0 69 22.5 124.5t68 88t114.5 32.5q37 0 65 -9.5t48 -20.5v84q0 45 -12.5 72.5t-57.5 27.5h-14v26h108q35 0 54.5 -11t27.5 -38t8 -77v-534h-71l-35 45h-5q-14 -20 -43.5 -37.5t-79.5 -17.5zM263 33q27 0 45.5 10t30.5 25
t20 28v311q-18 11 -41 20.5t-48 9.5q-40 0 -64.5 -26.5t-35 -72t-10.5 -103.5q0 -57 10 -103t33 -72.5t60 -26.5z" />
    <glyph glyph-name="e" unicode="e" horiz-adv-x="500" 
d="M262 -10q-70 0 -119.5 32.5t-76 88t-26.5 124.5q0 75 27 130t75 85t110 30q65 0 112.5 -25t73.5 -72t26 -111l-3 -54h-302q0 -92 32.5 -138.5t87.5 -46.5q51 0 83.5 22.5t58.5 59.5l26 -20q-17 -29 -42 -52.5t-60 -38t-83 -14.5zM159 261h186q0 94 -24.5 135t-68.5 41
q-25 0 -46 -19t-34 -58t-13 -99z" />
    <glyph glyph-name="f" unicode="f" horiz-adv-x="340" 
d="M80 0v427h-64v43h64v28q0 63 23 100.5t65.5 54.5t98.5 17q28 0 52 -4t36 -12t21 -19t16 -25l-35 -31q-15 23 -38 35.5t-52 12.5q-34 0 -54 -27.5t-20 -101.5v-28h134v-43h-134v-427h-113z" />
    <glyph glyph-name="g" unicode="g" horiz-adv-x="510" 
d="M254 -200q-67 0 -120.5 14.5t-84 48.5t-30.5 92q0 35 18 60.5t46.5 43t60.5 26.5q-18 7 -30.5 20.5t-12.5 36.5q0 20 10.5 32t27.5 20q-37 15 -63.5 50t-26.5 82q0 58 27.5 91.5t74 48t103.5 14.5h199v-26l-79 -11q36 -17 60 -48.5t24 -68.5q0 -57 -26 -90.5t-72 -47.5
t-106 -14q-48 0 -75 -6.5t-27 -25.5q0 -17 27 -23.5t75 -6.5q64 -1 117.5 -18t85 -51t31.5 -88q0 -58 -30.5 -92t-84 -48.5t-119.5 -14.5zM254 -157q53 0 85.5 27t32.5 85q0 47 -29 76t-81 37l-50 5q-35 -14 -56 -42t-21 -76q0 -58 33 -85t86 -27zM254 212q37 0 62.5 26
t25.5 88q0 59 -25 87.5t-63 28.5t-63.5 -26.5t-25.5 -89.5q0 -62 25.5 -88t63.5 -26z" />
    <glyph glyph-name="h" unicode="h" horiz-adv-x="538" 
d="M65 0v534q0 45 -12.5 72.5t-57.5 27.5h-14v26h108q35 0 54.5 -11t27.5 -38t8 -77v-97q17 16 48 29.5t70 13.5q33 0 65 -8t58.5 -28t42.5 -55.5t16 -90.5v-298h-114v295q0 51 -14 81t-36.5 43t-47.5 13q-28 0 -51 -14t-37 -28v-390h-114z" />
    <glyph glyph-name="i" unicode="i" horiz-adv-x="258" 
d="M82 0v344q0 45 -12.5 72.5t-57.5 27.5h-14v26h108q35 0 54.5 -11t27.5 -38t8 -77v-344h-114zM136 526q-32 0 -49.5 21.5t-17.5 50.5q0 23 14.5 37t36.5 14q32 0 50 -21.5t18 -49.5q0 -24 -15 -38t-37 -14z" />
    <glyph glyph-name="j" unicode="j" horiz-adv-x="258" 
d="M-9 -190v23q32 3 52 24t29.5 62t9.5 106v319q0 45 -12.5 72.5t-57.5 27.5h-14v26h108q35 0 54.5 -11t27.5 -38t8 -77v-319q0 -79 -18.5 -126.5t-63 -68t-123.5 -20.5zM136 526q-32 0 -49.5 21.5t-17.5 50.5q0 23 14.5 37t36.5 14q32 0 50 -21.5t18 -49.5q0 -24 -15 -38
t-37 -14z" />
    <glyph glyph-name="k" unicode="k" horiz-adv-x="497" 
d="M432 -10q-41 0 -77.5 17.5t-70.5 62.5l-105 140v-210h-114v534q0 45 -12.5 72.5t-57.5 27.5h-14v26h108q35 0 54.5 -11t27.5 -38t8 -77v-289l122 153q28 34 57.5 53t80.5 19h25v-26q-29 0 -53.5 -11.5t-44.5 -36.5l-103 -127l130 -169q27 -36 51 -54.5t49 -23.5v-22
q-8 -4 -26 -7t-35 -3z" />
    <glyph glyph-name="l" unicode="l" horiz-adv-x="251" 
d="M69 0v534q0 45 -12.5 72.5t-57.5 27.5h-14v26h108q35 0 54.5 -11t27.5 -38t8 -77v-534h-114z" />
    <glyph glyph-name="m" unicode="m" horiz-adv-x="809" 
d="M83 0v344q0 45 -12.5 72.5t-57.5 27.5h-14v26h96q33 0 54 -9.5t31 -29.5h4q18 17 50.5 33t77.5 16q33 0 58.5 -8.5t44 -23t27.5 -30.5q23 27 58.5 44.5t87.5 17.5q48 0 84 -17.5t56 -57t20 -107.5v-298h-113v298q0 74 -22.5 104t-57.5 30q-29 0 -55 -15t-39 -34
q6 -13 8.5 -37.5t2.5 -47.5v-298h-113v298q0 74 -22.5 104t-57.5 30q-24 0 -46 -12.5t-37 -28.5v-391h-113z" />
    <glyph glyph-name="n" unicode="n" horiz-adv-x="562" 
d="M83 0v344q0 45 -12.5 72.5t-57.5 27.5h-14v26h96q35 0 54.5 -9.5t29.5 -28.5q19 17 53 32.5t89 15.5q54 0 95 -17.5t63.5 -57t22.5 -107.5v-298h-113v298q0 50 -14 79t-36.5 42t-50.5 13q-29 0 -52 -10.5t-40 -25.5v-396h-113z" />
    <glyph glyph-name="o" unicode="o" horiz-adv-x="543" 
d="M271 -10q-72 0 -124 32.5t-79.5 88.5t-27.5 124q0 69 27.5 124.5t79.5 88t124 32.5q73 0 125 -32.5t79.5 -88t27.5 -124.5q0 -68 -27.5 -124t-79.5 -88.5t-125 -32.5zM271 33q37 0 62 26.5t38.5 72.5t13.5 103q0 58 -13.5 103.5t-38.5 72t-62 26.5q-35 0 -60.5 -26.5
t-39 -72t-13.5 -103.5q0 -57 13.5 -103t39 -72.5t60.5 -26.5z" />
    <glyph glyph-name="p" unicode="p" horiz-adv-x="555" 
d="M83 -190v534q0 45 -12.5 72.5t-57.5 27.5h-14v26h96q35 0 54.5 -10t29.5 -33q19 17 52.5 35t85.5 18q66 0 109.5 -32.5t65.5 -88t22 -124.5q0 -68 -22 -124t-67.5 -88.5t-114.5 -32.5q-37 0 -66 9.5t-48 20.5v-210h-113zM286 33q40 0 64 26.5t35 72.5t11 103
q0 58 -10.5 103.5t-33 72t-59.5 26.5t-60 -14t-37 -31v-329q17 -10 41 -20t49 -10z" />
    <glyph glyph-name="q" unicode="q" horiz-adv-x="538" 
d="M359 -190v210q-18 -11 -47.5 -20.5t-65.5 -9.5q-69 0 -114.5 32.5t-68 88.5t-22.5 124q0 69 22 124.5t66 88t110 32.5q49 0 79.5 -18.5t43.5 -36.5h5l35 45h71v-660h-114zM270 33q25 0 49 10t40 20v311q-14 21 -36.5 42t-59.5 21t-60 -26.5t-33 -72t-10 -103.5
q0 -57 10.5 -103t35 -72.5t64.5 -26.5z" />
    <glyph glyph-name="r" unicode="r" horiz-adv-x="409" 
d="M80 0v344q0 45 -12 72.5t-57 27.5h-10v26h91q35 0 54.5 -9.5t29.5 -30.5q18 16 50 33t76 17q19 0 36.5 -4.5t29.5 -13.5q15 -10 23 -24.5t12 -20.5l-47 -35q-10 14 -29 24.5t-44 10.5q-31 0 -54.5 -11t-37.5 -28q1 -12 2 -22.5t1 -17.5v-338h-114z" />
    <glyph glyph-name="s" unicode="s" horiz-adv-x="459" 
d="M229 -10q-61 0 -100 11t-59 30q-18 17 -21 46t-3 67h29q8 -49 40 -80t94 -31q56 0 80 19.5t24 49.5q0 29 -24.5 48t-65.5 36l-55 24q-59 24 -92 56.5t-33 81.5q0 64 51 98t129 34q60 0 98.5 -11t57.5 -30q19 -17 22 -46t3 -67h-29q-8 49 -40 80t-92 31q-47 0 -69 -19.5
t-22 -49.5q0 -26 19.5 -44.5t54.5 -33.5l60 -25q67 -28 101.5 -59.5t34.5 -83.5q0 -64 -55 -98t-138 -34z" />
    <glyph glyph-name="t" unicode="t" horiz-adv-x="347" 
d="M220 -10q-62 0 -98.5 34.5t-36.5 104.5v298h-64v43h64v90l50 60h64v-150h114v-43h-114v-301q0 -52 15 -72.5t44 -20.5q26 0 45 7.5t32 16.5l13 -25q-19 -15 -49 -28.5t-79 -13.5z" />
    <glyph glyph-name="u" unicode="u" horiz-adv-x="553" 
d="M250 -10q-54 0 -94.5 17.5t-62.5 57.5t-22 107v172q0 45 -12.5 72.5t-57.5 27.5h-10v26h104q35 0 54.5 -11t27.5 -38t8 -77v-172q0 -51 12.5 -81t34 -43t48.5 -13q22 0 40 9.5t32 23.5t22 27v375h114v-470h-71l-35 43h-5q-19 -20 -51 -36.5t-76 -16.5z" />
    <glyph glyph-name="v" unicode="v" horiz-adv-x="499" 
d="M249 -10l-163 365q-25 55 -45.5 78t-49.5 25v20q4 0 16.5 1t19.5 1q36 0 69 -9.5t61.5 -36.5t52.5 -79l88 -201l138 316h52l-209 -480h-30z" />
    <glyph glyph-name="w" unicode="w" horiz-adv-x="764" 
d="M243 -10l-155 365q-25 56 -46.5 79t-51.5 25v19q3 0 11 0.5t17.5 1t13.5 0.5q58 0 100.5 -25.5t74.5 -99.5l85 -199l75 183q-20 45 -36 70.5t-31 37t-34 12.5v19q4 0 16.5 1t19.5 1q58 0 103.5 -25.5t77.5 -99.5l89 -205l126 320h51l-188 -480h-35l-128 293l-120 -293
h-35z" />
    <glyph glyph-name="x" unicode="x" horiz-adv-x="493" 
d="M29 0l165 216l-92 154q-21 36 -46 56t-51 24v20h91q43 0 71.5 -21.5t50.5 -58.5l54 -91l130 171h60l-165 -215l93 -155q21 -36 46.5 -56t52.5 -24v-20h-93q-43 0 -71.5 21.5t-50.5 58.5l-54 91l-131 -171h-60z" />
    <glyph glyph-name="y" unicode="y" horiz-adv-x="511" 
d="M97 -200v33q50 0 84 20t57 80l20 55l-172 392q-15 37 -40.5 56.5t-59.5 23.5v20h87q45 0 77.5 -21.5t48.5 -58.5l115 -262l123 332h52l-199 -535q-20 -54 -43 -83.5t-51 -40.5t-63 -11h-36z" />
    <glyph glyph-name="z" unicode="z" horiz-adv-x="482" 
d="M41 0v26l262 401h-117q-64 0 -91.5 -23.5t-27.5 -69.5h-26v56q0 20 7 38.5t25.5 30t52.5 11.5h335l-278 -427h266v-43h-408z" />
    <glyph glyph-name="braceleft" unicode="{" horiz-adv-x="309" 
d="M286 -211q-66 10 -105 35t-57 63t-18 83v140q0 41 -22 73.5t-78 40.5v32q56 8 78 40.5t22 73.5v140q0 46 18 83t57 62.5t105 35.5v-33q-41 -10 -55.5 -35.5t-14.5 -71.5v-171q0 -58 -27.5 -91t-86.5 -49q59 -16 86.5 -49t27.5 -91v-171q0 -45 14.5 -71t55.5 -36v-33z" />
    <glyph glyph-name="bar" unicode="|" horiz-adv-x="253" 
d="M70 -190v870h113v-870h-113z" />
    <glyph glyph-name="braceright" unicode="}" horiz-adv-x="309" 
d="M23 -211v33q41 10 55.5 36t14.5 71v171q0 58 27.5 91t86.5 49q-59 16 -86.5 49t-27.5 91v171q0 46 -14.5 71.5t-55.5 35.5v33q66 -10 105 -35.5t56.5 -62.5t17.5 -83v-140q0 -41 22 -73.5t78 -40.5v-32q-56 -8 -78 -40.5t-22 -73.5v-140q0 -45 -17.5 -83t-56.5 -63
t-105 -35z" />
    <glyph glyph-name="asciitilde" unicode="~" horiz-adv-x="618" 
d="M445 172q-38 0 -74.5 12t-70.5 28t-65.5 28t-59.5 12q-41 0 -60.5 -17t-19.5 -47h-40q0 51 14.5 84.5t41.5 49.5t64 16q38 0 74 -12t70.5 -28t65.5 -28t60 -12q40 0 60 17t20 47h40q0 -51 -14.5 -84.5t-41.5 -49.5t-64 -16z" />
    <glyph glyph-name="uni00A0" unicode="&#xa0;" horiz-adv-x="250" 
 />
    <glyph glyph-name="exclamdown" unicode="&#xa1;" horiz-adv-x="231" 
d="M57 -194l19 505h79l19 -505h-117zM115 364q-26 0 -42 16.5t-16 40.5q0 26 16 42.5t42 16.5t42 -16.5t16 -42.5q0 -24 -16 -40.5t-42 -16.5z" />
    <glyph glyph-name="cent" unicode="&#xa2;" horiz-adv-x="491" 
d="M241 -50v41q-69 6 -115 40t-68.5 87.5t-22.5 116.5q0 64 22.5 117t68.5 87t115 40v41h51v-41q44 -1 76 -9.5t49 -24.5q19 -19 22 -49t3 -87h-26q-4 62 -37 93.5t-87 33.5v-403q50 1 81.5 23.5t56.5 58.5l27 -20q-16 -26 -38.5 -48.5t-53 -37.5t-73.5 -18v-41h-51zM241 41
v388q-42 -17 -65 -67t-23 -127q0 -76 22 -127t66 -67z" />
    <glyph glyph-name="sterling" unicode="&#xa3;" horiz-adv-x="532" 
d="M34 0v28q27 8 43 28t23.5 59.5t7.5 104.5v100h-65v43h65v97q0 66 17 107t45 63.5t62 31t68 8.5q45 0 88 -8t62 -27t22 -44.5t3 -51.5h-51q-11 49 -37.5 68.5t-66.5 19.5q-27 0 -49 -14t-36 -50t-14 -103v-97h134v-43h-134v-100q0 -71 -19 -113t-45 -64h188q60 0 89.5 29
t29.5 89h26v-81q0 -20 -7 -38.5t-25 -30t-53 -11.5h-371z" />
    <glyph glyph-name="currency" unicode="&#xa4;" horiz-adv-x="593" 
d="M119 0v194h-54v43h54v50h-54v43h54v207q0 43 -12.5 70t-57.5 27h-14v26h269q70 0 128.5 -18t94.5 -57.5t36 -104.5q0 -69 -36 -111.5t-95.5 -62t-130.5 -19.5h-68v-50h254v-43h-254v-194h-114zM233 330h68q37 1 68 15t50.5 47t19.5 88q0 50 -20.5 81.5t-51.5 46t-65 14.5
q-19 0 -36.5 -1.5t-32.5 -5.5v-285z" />
    <glyph glyph-name="yen" unicode="&#xa5;" horiz-adv-x="701" 
d="M334 0v139h-88v43h88v40h-88v43h88l-174 265q-18 28 -39.5 51.5t-45.5 40t-53 18.5v20h101q38 0 67.5 -16.5t52 -41.5t38.5 -52l140 -213l200 323h57l-230 -374v-21h90v-43h-90v-40h90v-43h-90v-139h-114z" />
    <glyph glyph-name="brokenbar" unicode="&#xa6;" horiz-adv-x="259" 
d="M73 328v352h113v-352h-113zM73 -190v352h113v-352h-113z" />
    <glyph glyph-name="section" unicode="&#xa7;" horiz-adv-x="443" 
d="M216 -200q-44 0 -80.5 10.5t-55.5 30.5q-21 20 -24.5 45t-3.5 63h28q8 -49 35.5 -77.5t70.5 -28.5q41 0 65 21t24 68q0 34 -16.5 59t-43 44.5t-55.5 38t-55.5 39t-43 48t-16.5 64.5q0 51 30 88t79 57q-40 26 -67 61.5t-27 86.5q0 54 23 87t61 49t82 16q45 0 81 -10.5
t56 -30.5q21 -20 24 -45t3 -63h-27q-8 49 -35.5 77.5t-71.5 28.5q-41 0 -64.5 -21t-23.5 -68q0 -34 16.5 -59t43 -44.5t55.5 -38t55.5 -39.5t43 -47.5t16.5 -64.5q0 -54 -30 -89.5t-81 -55.5q40 -27 68 -62t28 -86q0 -53 -23 -86.5t-61 -49.5t-83 -16zM249 124
q25 9 39.5 29.5t14.5 61.5t-31.5 72t-78.5 58q-24 -8 -38.5 -29t-14.5 -61q0 -41 31 -73t78 -58z" />
    <glyph glyph-name="dieresis" unicode="&#xa8;" horiz-adv-x="293" 
d="M232 690q-25 0 -39.5 15.5t-14.5 38.5t14.5 38t39.5 15t39 -15t14 -38t-14.5 -38.5t-38.5 -15.5zM62 690q-25 0 -39.5 15.5t-14.5 38.5t14.5 38t39.5 15t39 -15t14 -38t-14.5 -38.5t-38.5 -15.5z" />
    <glyph glyph-name="copyright" unicode="&#xa9;" horiz-adv-x="799" 
d="M400 -27q-79 0 -145.5 26.5t-115.5 74.5t-76 113t-27 143t27 143t76 113t115.5 74.5t145.5 26.5q78 0 144.5 -26.5t115.5 -74.5t76.5 -113t27.5 -143t-27.5 -143t-76.5 -113t-115.5 -74.5t-144.5 -26.5zM400 103q-64 0 -111 30t-72.5 81t-25.5 113q0 67 28.5 120t76 85
t104.5 32q60 0 99 -16t56 -37q15 -17 17.5 -44.5t2.5 -56.5h-24q-12 64 -44 94t-87 30q-40 0 -73.5 -19t-53.5 -64.5t-20 -123.5q0 -48 15.5 -92.5t48 -73t83.5 -28.5q45 0 80.5 23.5t64.5 70.5l20 -15q-32 -60 -77.5 -84.5t-107.5 -24.5zM400 16q90 0 159 40t108 111
t39 163t-39 163t-108 111t-159 40t-159 -40t-108 -111t-39 -163t39 -163t108 -111t159 -40z" />
    <glyph glyph-name="ordfeminine" unicode="&#xaa;" horiz-adv-x="323" 
d="M131 396q-21 0 -40.5 6t-32 21.5t-12.5 42.5q0 28 17 46t48 26.5t73 8.5h16q0 38 -7.5 57t-18.5 25.5t-24 6.5q-26 0 -40.5 -12t-19.5 -37h-27q0 14 1.5 28.5t12.5 25.5q10 11 33 15t50 4q28 0 51 -8t37.5 -32t14.5 -73v-146h-39l-19 25h-3q-9 -10 -26 -20t-45 -10z
M150 420q18 0 30.5 11.5t19.5 22.5v69h-16q-34 0 -54.5 -16t-20.5 -41q0 -26 12.5 -36t28.5 -10z" />
    <glyph glyph-name="guillemotleft" unicode="&#xab;" horiz-adv-x="403" 
d="M189 30l-156 195l156 195h55l-97 -194l97 -196h-55zM294 80l-101 145l101 145h55l-62 -145l62 -145h-55z" />
    <glyph glyph-name="logicalnot" unicode="&#xac;" horiz-adv-x="659" 
d="M519 121v103h-457v66h535v-169h-78z" />
    <glyph glyph-name="uni00AD" unicode="&#xad;" horiz-adv-x="392" 
d="M61 222v85h269v-85h-269z" />
    <glyph glyph-name="registered" unicode="&#xae;" horiz-adv-x="799" 
d="M400 -25q-79 0 -145.5 26t-115.5 73.5t-76 112.5t-27 143t27 143t76 112.5t115.5 73.5t145.5 26q78 0 144.5 -26t115.5 -73.5t76.5 -112.5t27.5 -143t-27.5 -143t-76.5 -112.5t-115.5 -73.5t-144.5 -26zM400 18q90 0 159 39.5t108 110t39 162.5t-39 162.5t-108 110
t-159 39.5t-159 -39.5t-108 -110t-39 -162.5t39 -162.5t108 -110t159 -39.5zM554 118q-35 0 -60.5 20.5t-57.5 73.5l-67 109h-32v-196h-76v351q0 28 -6 45.5t-30 17.5h-16v15h171q29 0 59 -5t55.5 -17.5t41 -36.5t15.5 -61q0 -35 -15.5 -57t-39.5 -33.5t-48 -17.5l70 -112
q23 -38 41.5 -55.5t42.5 -20.5v-13q-2 -2 -14 -4.5t-34 -2.5zM377 347q22 0 43 9t34.5 29.5t13.5 52.5q0 33 -13.5 52.5t-34.5 28.5t-43 9q-8 0 -19.5 -1.5t-20.5 -2.5v-173q6 -1 18.5 -2.5t21.5 -1.5z" />
    <glyph glyph-name="macron" unicode="&#xaf;" horiz-adv-x="307" 
d="M20 752h267v-52h-267v52z" />
    <glyph glyph-name="degree" unicode="&#xb0;" horiz-adv-x="414" 
d="M207 469q-31 0 -45 15t-14 36q0 22 14 36.5t45 14.5q32 0 45.5 -14.5t13.5 -36.5q0 -21 -13.5 -36t-45.5 -15zM207 527q-3 0 -6 -1.5t-4.5 -3t-1.5 -2.5t1.5 -2.5t4.5 -3t6 -1.5q4 0 7 1.5t4.5 3t1.5 2.5t-1.5 2.5t-4.5 3t-7 1.5z" />
    <glyph glyph-name="plusminus" unicode="&#xb1;" horiz-adv-x="579" 
d="M52 57v66h199v174h-199v66h199v197h77v-197h198v-66h-198v-174h198v-66h-474z" />
    <glyph glyph-name="uni00B2" unicode="&#xb2;" horiz-adv-x="319" 
d="M56 377v23q48 48 79 80t46.5 59.5t15.5 62.5t-13.5 48.5t-35.5 13.5q-30 0 -48 -19.5t-25 -57.5h-14q0 17 1.5 36t9.5 30q13 15 36.5 25.5t52.5 10.5q22 0 45 -7t39 -25.5t16 -54.5q0 -39 -21.5 -69t-56.5 -60.5t-77 -70.5h85q28 0 42.5 10t14.5 34h14v-33
q0 -14 -7.5 -25t-31.5 -11h-167z" />
    <glyph glyph-name="uni00B3" unicode="&#xb3;" horiz-adv-x="307" 
d="M153 367q-39 0 -63 13.5t-43 36.5l12 11q33 -36 84 -36q23 0 40.5 16.5t17.5 53.5q0 36 -18.5 50t-40.5 14q-11 0 -22 -1t-25 -5l-15 26l120 109h-81q-26 0 -39.5 -10.5t-13.5 -33.5h-11v32q0 14 7.5 25.5t31.5 11.5h152v-18l-128 -115q12 3 23.5 3.5t16.5 0.5
q24 0 48.5 -8.5t41.5 -28t17 -52.5q0 -39 -20 -59.5t-46.5 -28t-45.5 -7.5z" />
    <glyph glyph-name="acute" unicode="&#xb4;" horiz-adv-x="190" 
d="M20 700l41 136h109l-101 -136h-49z" />
    <glyph glyph-name="uni03BC" unicode="&#xb5;" horiz-adv-x="541" 
d="M68 -190v660h113v-235q0 -63 12 -108.5t34.5 -69.5t56.5 -24q37 0 59 19t35 44v374h113v-470h-71l-35 45h-5q-14 -19 -40 -37t-69 -18q-30 0 -54.5 11t-47.5 34v-225h-101z" />
    <glyph glyph-name="paragraph" unicode="&#xb6;" horiz-adv-x="620" 
d="M257 -190v468q-65 0 -117.5 24t-82.5 67t-30 100q0 58 30 100.5t82.5 66.5t117.5 24h323v-43h-55v-807h-107v807h-53v-807h-108z" />
    <glyph glyph-name="periodcentered" unicode="&#xb7;" horiz-adv-x="228" 
d="M114 272q-26 0 -42 17t-16 42t16 41.5t42 16.5t42 -16.5t16 -41.5t-16 -42t-42 -17z" />
    <glyph glyph-name="cedilla" unicode="&#xb8;" horiz-adv-x="192" 
d="M40 -202v44h50q19 0 29.5 9t10.5 23q0 15 -10.5 24t-29.5 9h-45v93h57v-50q43 0 66.5 -20t23.5 -56q0 -35 -23.5 -55.5t-62.5 -20.5h-66z" />
    <glyph glyph-name="uni00B9" unicode="&#xb9;" horiz-adv-x="213" 
d="M84 377v241l-37 -22l-14 20l67 64h48v-303h-64z" />
    <glyph glyph-name="ordmasculine" unicode="&#xba;" horiz-adv-x="336" 
d="M168 490q-18 0 -28.5 7.5t-15 16.5t-4.5 14q0 6 4.5 15t15.5 16t28 7q19 0 29.5 -7t14.5 -16t4 -15q0 -5 -4 -14t-14.5 -16.5t-29.5 -7.5zM168 514q-11 0 -13.5 -1.5t-2.5 15.5q0 12 1 14.5t4.5 1t10.5 -1.5t10.5 1.5t4.5 -1t1 -14.5q0 -17 -2.5 -15.5t-13.5 1.5z" />
    <glyph glyph-name="guillemotright" unicode="&#xbb;" horiz-adv-x="403" 
d="M160 30l96 196l-96 194h54l157 -195l-157 -195h-54zM55 80l61 145l-61 145h54l101 -145l-101 -145h-54z" />
    <glyph glyph-name="onequarter" unicode="&#xbc;" horiz-adv-x="608" 
d="M27 0l455 660h83l-455 -660h-83zM353 100h111v150zM464 0v75h-148v22l153 207h59v-204h37v-25h-37v-75h-64zM110 377v241l-37 -22l-14 20l67 64h48v-303h-64z" />
    <glyph glyph-name="onehalf" unicode="&#xbd;" horiz-adv-x="624" 
d="M27 0l455 660h83l-455 -660h-83zM368 0v23q48 48 79 80t46.5 59.5t15.5 62.5t-13.5 48.5t-35.5 13.5q-30 0 -48 -19.5t-25 -57.5h-14q0 17 1.5 36t9.5 30q13 15 36.5 25.5t52.5 10.5q22 0 45 -7t39 -25.5t16 -54.5q0 -39 -21.5 -69t-56.5 -60.5t-77 -70.5h85
q28 0 42.5 10t14.5 34h14v-33q0 -14 -7.5 -25t-31.5 -11h-167zM110 377v241l-37 -22l-14 20l67 64h48v-303h-64z" />
    <glyph glyph-name="threequarters" unicode="&#xbe;" horiz-adv-x="621" 
d="M50 0l455 660h83l-455 -660h-83zM366 100h111v150zM477 0v75h-148v22l153 207h59v-204h36v-25h-36v-75h-64zM145 367q-39 0 -63 13.5t-43 36.5l12 11q33 -36 84 -36q23 0 40.5 16.5t17.5 53.5q0 36 -18.5 50t-40.5 14q-11 0 -22 -1t-25 -5l-16 26l121 109h-81
q-26 0 -39.5 -10.5t-13.5 -33.5h-11v32q0 14 7.5 25.5t31.5 11.5h152v-18l-128 -115q12 3 23.5 3.5t16.5 0.5q24 0 48.5 -8.5t41.5 -28t17 -52.5q0 -39 -20 -59.5t-46.5 -28t-45.5 -7.5z" />
    <glyph glyph-name="questiondown" unicode="&#xbf;" horiz-adv-x="484" 
d="M235 -212q-39 0 -76 10.5t-67 33.5t-47.5 59.5t-17.5 88.5q0 50 20 86t49.5 63.5t59.5 54t51 56.5t24 72h56q-1 -46 -15.5 -79.5t-35 -61t-40 -54.5t-32.5 -59.5t-13 -77.5q0 -81 33.5 -115t80.5 -34q59 0 104.5 43.5t61.5 137.5h26q0 -42 -3 -80.5t-22 -62.5
q-28 -33 -81.5 -57t-115.5 -24zM259 365q-27 0 -43 16.5t-16 41.5t16.5 42t42.5 17q27 0 42.5 -17t15.5 -42t-15.5 -41.5t-42.5 -16.5z" />
    <glyph glyph-name="Agrave" unicode="&#xc0;" horiz-adv-x="642" 
d="M626 -4q-29 0 -63.5 8.5t-67 36t-55.5 85.5l-24 59h-272l-81 -185h-49l289 660h38l223 -534q20 -49 44.5 -73.5t61.5 -28.5v-23q-8 -2 -20.5 -3.5t-23.5 -1.5zM163 228h233l-114 273zM296 701l-101 136h109l41 -136h-49z" />
    <glyph glyph-name="Aacute" unicode="&#xc1;" horiz-adv-x="642" 
d="M626 -4q-29 0 -63.5 8.5t-67 36t-55.5 85.5l-24 59h-272l-81 -185h-49l289 660h38l223 -534q20 -49 44.5 -73.5t61.5 -28.5v-23q-8 -2 -20.5 -3.5t-23.5 -1.5zM163 228h233l-114 273zM301 700l41 136h109l-101 -136h-49z" />
    <glyph glyph-name="Acircumflex" unicode="&#xc2;" horiz-adv-x="642" 
d="M626 -4q-29 0 -63.5 8.5t-67 36t-55.5 85.5l-24 59h-272l-81 -185h-49l289 660h38l223 -534q20 -49 44.5 -73.5t61.5 -28.5v-23q-8 -2 -20.5 -3.5t-23.5 -1.5zM163 228h233l-114 273zM180 685l80 121h122l80 -121h-56l-85 80l-85 -80h-56z" />
    <glyph glyph-name="Atilde" unicode="&#xc3;" horiz-adv-x="642" 
d="M626 -4q-29 0 -63.5 8.5t-67 36t-55.5 85.5l-24 59h-272l-81 -185h-49l289 660h38l223 -534q20 -49 44.5 -73.5t61.5 -28.5v-23q-8 -2 -20.5 -3.5t-23.5 -1.5zM163 228h233l-114 273zM210 700q0 57 17.5 77.5t47.5 20.5q22 0 38 -10t30 -20t29 -10t24 13.5t9 26.5h36
q0 -57 -17 -77.5t-47 -20.5q-22 0 -38 10t-30 20t-30 10q-15 0 -24 -13.5t-9 -26.5h-36z" />
    <glyph glyph-name="Adieresis" unicode="&#xc4;" horiz-adv-x="642" 
d="M626 -4q-29 0 -63.5 8.5t-67 36t-55.5 85.5l-24 59h-272l-81 -185h-49l289 660h38l223 -534q20 -49 44.5 -73.5t61.5 -28.5v-23q-8 -2 -20.5 -3.5t-23.5 -1.5zM163 228h233l-114 273zM406 690q-25 0 -39.5 15.5t-14.5 38.5t14.5 38t39.5 15t39 -15t14 -38t-14.5 -38.5
t-38.5 -15.5zM236 690q-25 0 -39.5 15.5t-14.5 38.5t14.5 38t39.5 15t39 -15t14 -38t-14.5 -38.5t-38.5 -15.5z" />
    <glyph glyph-name="Aring" unicode="&#xc5;" horiz-adv-x="642" 
d="M626 -4q-29 0 -63.5 8.5t-67 36t-55.5 85.5l-24 59h-272l-81 -185h-49l271 621q-18 9 -36 30t-18 54q0 39 26 65t65 26q38 0 64.5 -26t26.5 -65q0 -33 -18.5 -54.5t-36.5 -29.5l206 -495q20 -49 44.5 -73.5t61.5 -28.5v-23q-8 -2 -20.5 -3.5t-23.5 -1.5zM163 228h233
l-114 273zM301 660h42q11 8 17.5 19t6.5 26q0 23 -13 36.5t-32 13.5t-32 -13.5t-13 -36.5q0 -15 6.5 -26t17.5 -19z" />
    <glyph glyph-name="AE" unicode="&#xc6;" horiz-adv-x="867" 
d="M-19 0l370 660h370q35 0 53 -11.5t25 -30t7 -38.5v-81h-26q0 62 -32.5 90t-92.5 28h-171v-254h264v-43h-264v-277h173q60 0 99 24.5t64 87.5l24 -8l-32 -85q-10 -29 -27.5 -45.5t-54.5 -16.5h-360v190h-227l-106 -190h-56zM168 233h202v361z" />
    <glyph glyph-name="Ccedilla" unicode="&#xc7;" horiz-adv-x="673" 
d="M362 -20q-101 0 -173.5 45t-110.5 122.5t-38 172.5q0 76 24 141.5t68.5 114.5t103 76.5t126.5 27.5q89 0 147.5 -24t86.5 -57q19 -24 22 -65t3 -86h-26q-19 94 -69.5 141.5t-133.5 47.5q-63 0 -115 -29t-83 -98t-31 -190q0 -57 13 -110t40.5 -95.5t70.5 -67t105 -24.5
q71 0 128 36.5t95 105.5l29 -22q-47 -88 -115.5 -125.5t-166.5 -37.5zM320 -202v44h50q19 0 29.5 9t10.5 23q0 15 -10.5 24t-29.5 9h-45v93h57v-50q43 0 66.5 -20t23.5 -56q0 -35 -23.5 -55.5t-62.5 -20.5h-66z" />
    <glyph glyph-name="Egrave" unicode="&#xc8;" horiz-adv-x="596" 
d="M100 0v534q0 45 -12.5 72.5t-57.5 27.5h-15v26h435q35 0 53 -11.5t25 -30t7 -38.5v-81h-26q0 62 -32.5 90t-92.5 28h-171v-254h264v-43h-264v-277h173q60 0 99 24.5t64 87.5l24 -8l-32 -85q-9 -29 -27 -45.5t-55 -16.5h-359zM295 701l-101 136h109l41 -136h-49z" />
    <glyph glyph-name="Eacute" unicode="&#xc9;" horiz-adv-x="596" 
d="M100 0v534q0 45 -12.5 72.5t-57.5 27.5h-15v26h435q35 0 53 -11.5t25 -30t7 -38.5v-81h-26q0 62 -32.5 90t-92.5 28h-171v-254h264v-43h-264v-277h173q60 0 99 24.5t64 87.5l24 -8l-32 -85q-9 -29 -27 -45.5t-55 -16.5h-359zM278 700l41 136h109l-101 -136h-49z" />
    <glyph glyph-name="Ecircumflex" unicode="&#xca;" horiz-adv-x="596" 
d="M100 0v534q0 45 -12.5 72.5t-57.5 27.5h-15v26h435q35 0 53 -11.5t25 -30t7 -38.5v-81h-26q0 62 -32.5 90t-92.5 28h-171v-254h264v-43h-264v-277h173q60 0 99 24.5t64 87.5l24 -8l-32 -85q-9 -29 -27 -45.5t-55 -16.5h-359zM162 722l80 121h122l80 -121h-56l-85 80
l-85 -80h-56z" />
    <glyph glyph-name="Edieresis" unicode="&#xcb;" horiz-adv-x="596" 
d="M100 0v534q0 45 -12.5 72.5t-57.5 27.5h-15v26h435q35 0 53 -11.5t25 -30t7 -38.5v-81h-26q0 62 -32.5 90t-92.5 28h-171v-254h264v-43h-264v-277h173q60 0 99 24.5t64 87.5l24 -8l-32 -85q-9 -29 -27 -45.5t-55 -16.5h-359zM393 730q-23 0 -37 15t-14 36q0 22 14 37
t37 15t37.5 -15t14.5 -37q0 -21 -14.5 -36t-37.5 -15zM217 730q-23 0 -37 15t-14 36q0 22 14 37t37 15t37.5 -15t14.5 -37q0 -21 -14.5 -36t-37.5 -15z" />
    <glyph glyph-name="Igrave" unicode="&#xcc;" horiz-adv-x="296" 
d="M173 0q-35 0 -54.5 10.5t-27.5 38t-8 77.5v534h114v-534q0 -45 12.5 -72.5t57.5 -27.5h14v-26h-108zM126 701l-101 136h109l41 -136h-49z" />
    <glyph glyph-name="Iacute" unicode="&#xcd;" horiz-adv-x="296" 
d="M173 0q-35 0 -54.5 10.5t-27.5 38t-8 77.5v534h114v-534q0 -45 12.5 -72.5t57.5 -27.5h14v-26h-108zM110 700l41 136h109l-101 -136h-49z" />
    <glyph glyph-name="Icircumflex" unicode="&#xce;" horiz-adv-x="296" 
d="M173 0q-35 0 -54.5 10.5t-27.5 38t-8 77.5v534h114v-534q0 -45 12.5 -72.5t57.5 -27.5h14v-26h-108zM-1 695l80 121h122l80 -121h-56l-85 80l-85 -80h-56z" />
    <glyph glyph-name="Idieresis" unicode="&#xcf;" horiz-adv-x="296" 
d="M173 0q-35 0 -54.5 10.5t-27.5 38t-8 77.5v534h114v-534q0 -45 12.5 -72.5t57.5 -27.5h14v-26h-108zM59 715q-24 0 -38.5 15.5t-14.5 38.5t14.5 38t38.5 15q25 0 39.5 -15t14.5 -38t-14.5 -38.5t-39.5 -15.5zM220 715q-24 0 -38.5 15.5t-14.5 38.5t14.5 38t39.5 15
q24 0 38.5 -15t14.5 -38t-14.5 -38.5t-39.5 -15.5z" />
    <glyph glyph-name="Eth" unicode="&#xd0;" horiz-adv-x="727" 
d="M100 0v307h-73v46h73v181q0 45 -12.5 72.5t-57.5 27.5h-15v26h268q203 0 304 -87.5t101 -238.5q0 -98 -43 -173.5t-127.5 -118t-208.5 -42.5h-209zM306 38q72 0 128 35.5t88.5 101t32.5 155.5q0 88 -32 153.5t-88.5 102t-130.5 36.5q-22 0 -41.5 -2t-48.5 -9v-258h80v-46
h-80v-260q22 -4 36.5 -6t27.5 -2.5t28 -0.5z" />
    <glyph glyph-name="Ntilde" unicode="&#xd1;" horiz-adv-x="689" 
d="M575 -6l-426 513v-507h-46v540q0 41 -18.5 67.5t-71.5 26.5h-7v26h68q54 0 87.5 -15.5t56.5 -44.5l347 -414v474h46v-666h-36zM236 694q0 57 17.5 77.5t47.5 20.5q22 0 38 -10t30 -20t29 -10t24 13.5t9 26.5h36q0 -57 -17 -77.5t-47 -20.5q-22 0 -38 10t-30 20t-30 10
q-15 0 -24 -13.5t-9 -26.5h-36z" />
    <glyph glyph-name="Ograve" unicode="&#xd2;" horiz-adv-x="724" 
d="M362 -20q-97 0 -169.5 46.5t-112 125.5t-39.5 178t39.5 178t112 125.5t169.5 46.5q98 0 170 -46.5t112 -125.5t40 -178t-40 -178t-112 -125.5t-170 -46.5zM362 23q64 0 108 36.5t67.5 105.5t23.5 165q0 97 -23.5 165.5t-67.5 105t-108 36.5q-62 0 -106.5 -36.5t-68 -105
t-23.5 -165.5q0 -96 23.5 -165t68 -105.5t106.5 -36.5zM342 723l-101 136h109l41 -136h-49z" />
    <glyph glyph-name="Oacute" unicode="&#xd3;" horiz-adv-x="724" 
d="M362 -20q-97 0 -169.5 46.5t-112 125.5t-39.5 178t39.5 178t112 125.5t169.5 46.5q98 0 170 -46.5t112 -125.5t40 -178t-40 -178t-112 -125.5t-170 -46.5zM362 23q64 0 108 36.5t67.5 105.5t23.5 165q0 97 -23.5 165.5t-67.5 105t-108 36.5q-62 0 -106.5 -36.5t-68 -105
t-23.5 -165.5q0 -96 23.5 -165t68 -105.5t106.5 -36.5zM337 722l41 136h109l-101 -136h-49z" />
    <glyph glyph-name="Ocircumflex" unicode="&#xd4;" horiz-adv-x="724" 
d="M362 -20q-97 0 -169.5 46.5t-112 125.5t-39.5 178t39.5 178t112 125.5t169.5 46.5q98 0 170 -46.5t112 -125.5t40 -178t-40 -178t-112 -125.5t-170 -46.5zM362 23q64 0 108 36.5t67.5 105.5t23.5 165q0 97 -23.5 165.5t-67.5 105t-108 36.5q-62 0 -106.5 -36.5t-68 -105
t-23.5 -165.5q0 -96 23.5 -165t68 -105.5t106.5 -36.5zM217 726l80 121h122l80 -121h-56l-85 80l-85 -80h-56z" />
    <glyph glyph-name="Otilde" unicode="&#xd5;" horiz-adv-x="724" 
d="M362 -20q-97 0 -169.5 46.5t-112 125.5t-39.5 178t39.5 178t112 125.5t169.5 46.5q98 0 170 -46.5t112 -125.5t40 -178t-40 -178t-112 -125.5t-170 -46.5zM362 23q64 0 108 36.5t67.5 105.5t23.5 165q0 97 -23.5 165.5t-67.5 105t-108 36.5q-62 0 -106.5 -36.5t-68 -105
t-23.5 -165.5q0 -96 23.5 -165t68 -105.5t106.5 -36.5zM246 738q0 57 17.5 77.5t47.5 20.5q22 0 38 -10t30 -20t29 -10t24 13.5t9 26.5h36q0 -57 -17 -77.5t-47 -20.5q-22 0 -38 10t-30 20t-30 10q-15 0 -24 -13.5t-9 -26.5h-36z" />
    <glyph glyph-name="Odieresis" unicode="&#xd6;" horiz-adv-x="724" 
d="M362 -20q-97 0 -169.5 46.5t-112 125.5t-39.5 178t39.5 178t112 125.5t169.5 46.5q98 0 170 -46.5t112 -125.5t40 -178t-40 -178t-112 -125.5t-170 -46.5zM362 23q64 0 108 36.5t67.5 105.5t23.5 165q0 97 -23.5 165.5t-67.5 105t-108 36.5q-62 0 -106.5 -36.5t-68 -105
t-23.5 -165.5q0 -96 23.5 -165t68 -105.5t106.5 -36.5zM457 735q-23 0 -37 15t-14 36q0 22 14 37t37 15t37.5 -15t14.5 -37q0 -21 -14.5 -36t-37.5 -15zM281 735q-23 0 -37 15t-14 36q0 22 14 37t37 15t37.5 -15t14.5 -37q0 -21 -14.5 -36t-37.5 -15z" />
    <glyph glyph-name="multiply" unicode="&#xd7;" horiz-adv-x="481" 
d="M100 139l-54 55l140 140l-140 139l55 55l140 -139l140 140l55 -55l-141 -140l140 -140l-55 -54l-140 139z" />
    <glyph glyph-name="Oslash" unicode="&#xd8;" horiz-adv-x="724" 
d="M115 -20l42 73q-56 48 -86 119.5t-30 157.5q0 99 39.5 178t112 125.5t169.5 46.5q39 0 74 -7.5t66 -23.5l17 31h85l-41 -70q57 -48 89 -120t32 -160q0 -99 -40 -178t-112 -125.5t-170 -46.5q-40 0 -76.5 8.5t-67.5 24.5l-19 -33h-84zM362 23q64 0 108 36.5t67.5 105.5
t23.5 165q0 64 -11 115t-31 90l-271 -470q48 -42 114 -42zM202 131l269 467q-46 39 -109 39q-62 0 -106.5 -36.5t-68 -105t-23.5 -165.5q0 -120 38 -199z" />
    <glyph glyph-name="Ugrave" unicode="&#xd9;" horiz-adv-x="691" 
d="M359 -10q-93 0 -151.5 33t-85.5 99t-27 165v247q0 44 -11.5 71t-53.5 29h-13v26h101q35 0 54.5 -11t27.5 -38t8 -77l1 -277q1 -105 40 -164.5t126 -59.5q72 0 115.5 27t63.5 83t20 144v373h46v-373q0 -96 -24 -162t-80.5 -100.5t-156.5 -34.5zM367 680l-101 136h109
l41 -136h-49z" />
    <glyph glyph-name="Uacute" unicode="&#xda;" horiz-adv-x="691" 
d="M359 -10q-93 0 -151.5 33t-85.5 99t-27 165v247q0 44 -11.5 71t-53.5 29h-13v26h101q35 0 54.5 -11t27.5 -38t8 -77l1 -277q1 -105 40 -164.5t126 -59.5q72 0 115.5 27t63.5 83t20 144v373h46v-373q0 -96 -24 -162t-80.5 -100.5t-156.5 -34.5zM334 680l41 136h109
l-101 -136h-49z" />
    <glyph glyph-name="Ucircumflex" unicode="&#xdb;" horiz-adv-x="691" 
d="M359 -10q-93 0 -151.5 33t-85.5 99t-27 165v247q0 44 -11.5 71t-53.5 29h-13v26h101q35 0 54.5 -11t27.5 -38t8 -77l1 -277q1 -105 40 -164.5t126 -59.5q72 0 115.5 27t63.5 83t20 144v373h46v-373q0 -96 -24 -162t-80.5 -100.5t-156.5 -34.5zM241 677l80 121h122
l80 -121h-56l-85 80l-85 -80h-56z" />
    <glyph glyph-name="Udieresis" unicode="&#xdc;" horiz-adv-x="691" 
d="M359 -10q-93 0 -151.5 33t-85.5 99t-27 165v247q0 44 -11.5 71t-53.5 29h-13v26h101q35 0 54.5 -11t27.5 -38t8 -77l1 -277q1 -105 40 -164.5t126 -59.5q72 0 115.5 27t63.5 83t20 144v373h46v-373q0 -96 -24 -162t-80.5 -100.5t-156.5 -34.5zM466 680q-23 0 -37 15
t-14 36q0 22 14 37t37 15t37.5 -15t14.5 -37q0 -21 -14.5 -36t-37.5 -15zM290 680q-23 0 -37 15t-14 36q0 22 14 37t37 15t37.5 -15t14.5 -37q0 -21 -14.5 -36t-37.5 -15z" />
    <glyph glyph-name="Yacute" unicode="&#xdd;" horiz-adv-x="634" 
d="M284 0v268l-175 262q-18 28 -39.5 51.5t-45.5 40t-53 18.5v20h102q37 0 66.5 -16.5t52 -41.5t38.5 -52l140 -213l200 323h57l-230 -374v-286h-113zM317 669l41 136h109l-101 -136h-49z" />
    <glyph glyph-name="Thorn" unicode="&#xde;" horiz-adv-x="547" 
d="M102 -30v606q0 43 -14 65.5t-56 22.5h-14v26h108q52 0 71 -24.5t19 -89.5v-26q153 -2 231.5 -61t78.5 -174q0 -116 -78.5 -174.5t-231.5 -60.5v-110h-114zM216 123q65 2 106 27t60.5 67.5t19.5 97.5q0 56 -20 98t-61 67t-105 26v-383z" />
    <glyph glyph-name="germandbls" unicode="&#xdf;" horiz-adv-x="565" 
d="M381 -10q-38 0 -72 10.5t-53 29.5t-22 43t-3 43h26q4 -30 31.5 -56.5t72.5 -26.5q35 0 54.5 19.5t19.5 47.5q0 33 -20 55.5t-49.5 41t-59.5 38.5t-50 47.5t-20 67.5q0 33 11 54.5t27 37t32.5 30t27.5 33t11 45.5q0 38 -21 57.5t-57 19.5q-40 0 -64 -27t-24 -100v-500
h-114v500q0 70 27.5 106.5t74.5 50t105 13.5q92 0 137 -27.5t45 -72.5q0 -33 -12.5 -55.5t-30 -39.5t-36 -32t-30.5 -32.5t-12 -40.5q0 -33 21 -55.5t53 -41t63 -38.5t52.5 -47t21.5 -68q0 -45 -23 -74t-60 -42.5t-80 -13.5z" />
    <glyph glyph-name="agrave" unicode="&#xe0;" horiz-adv-x="490" 
d="M193 -10q-34 0 -62.5 8.5t-50.5 25.5t-34.5 43t-12.5 60q0 51 28 83t86.5 47.5t149.5 15.5h21q0 64 -12 99.5t-34.5 50t-52.5 14.5q-37 0 -65 -17.5t-39 -70.5h-51q0 26 3.5 51t21.5 45t60.5 27.5t89.5 7.5q43 0 78.5 -11t61 -35t39.5 -64.5t14 -99.5v-270h-71l-35 45h-5
q-14 -20 -46 -37.5t-82 -17.5zM229 38q35 0 56.5 20.5t32.5 42.5v129h-21q-73 0 -109 -26.5t-36 -76.5q0 -45 22 -67t55 -22zM220 525l-101 136h109l41 -136h-49z" />
    <glyph glyph-name="aacute" unicode="&#xe1;" horiz-adv-x="490" 
d="M193 -10q-34 0 -62.5 8.5t-50.5 25.5t-34.5 43t-12.5 60q0 51 28 83t86.5 47.5t149.5 15.5h21q0 64 -12 99.5t-34.5 50t-52.5 14.5q-37 0 -65 -17.5t-39 -70.5h-51q0 26 3.5 51t21.5 45t60.5 27.5t89.5 7.5q43 0 78.5 -11t61 -35t39.5 -64.5t14 -99.5v-270h-71l-35 45h-5
q-14 -20 -46 -37.5t-82 -17.5zM229 38q35 0 56.5 20.5t32.5 42.5v129h-21q-73 0 -109 -26.5t-36 -76.5q0 -45 22 -67t55 -22zM201 525l41 136h109l-101 -136h-49z" />
    <glyph glyph-name="acircumflex" unicode="&#xe2;" horiz-adv-x="490" 
d="M193 -10q-34 0 -62.5 8.5t-50.5 25.5t-34.5 43t-12.5 60q0 51 28 83t86.5 47.5t149.5 15.5h21q0 64 -12 99.5t-34.5 50t-52.5 14.5q-37 0 -65 -17.5t-39 -70.5h-51q0 26 3.5 51t21.5 45t60.5 27.5t89.5 7.5q43 0 78.5 -11t61 -35t39.5 -64.5t14 -99.5v-270h-71l-35 45h-5
q-14 -20 -46 -37.5t-82 -17.5zM229 38q35 0 56.5 20.5t32.5 42.5v129h-21q-73 0 -109 -26.5t-36 -76.5q0 -45 22 -67t55 -22zM105 530l80 121h122l80 -121h-56l-85 80l-85 -80h-56z" />
    <glyph glyph-name="atilde" unicode="&#xe3;" horiz-adv-x="490" 
d="M193 -10q-34 0 -62.5 8.5t-50.5 25.5t-34.5 43t-12.5 60q0 51 28 83t86.5 47.5t149.5 15.5h21q0 64 -12 99.5t-34.5 50t-52.5 14.5q-37 0 -65 -17.5t-39 -70.5h-51q0 26 3.5 51t21.5 45t60.5 27.5t89.5 7.5q43 0 78.5 -11t61 -35t39.5 -64.5t14 -99.5v-270h-71l-35 45h-5
q-14 -20 -46 -37.5t-82 -17.5zM229 38q35 0 56.5 20.5t32.5 42.5v129h-21q-73 0 -109 -26.5t-36 -76.5q0 -45 22 -67t55 -22zM126 535q0 57 17.5 77.5t47.5 20.5q22 0 38 -10t30 -20t29 -10t24 13.5t9 26.5h36q0 -57 -17 -77.5t-47 -20.5q-22 0 -38 10t-30 20t-30 10
q-15 0 -24 -13.5t-9 -26.5h-36z" />
    <glyph glyph-name="adieresis" unicode="&#xe4;" horiz-adv-x="490" 
d="M193 -10q-34 0 -62.5 8.5t-50.5 25.5t-34.5 43t-12.5 60q0 51 28 83t86.5 47.5t149.5 15.5h21q0 64 -12 99.5t-34.5 50t-52.5 14.5q-37 0 -65 -17.5t-39 -70.5h-51q0 26 3.5 51t21.5 45t60.5 27.5t89.5 7.5q43 0 78.5 -11t61 -35t39.5 -64.5t14 -99.5v-270h-71l-35 45h-5
q-14 -20 -46 -37.5t-82 -17.5zM229 38q35 0 56.5 20.5t32.5 42.5v129h-21q-73 0 -109 -26.5t-36 -76.5q0 -45 22 -67t55 -22zM333 535q-23 0 -37 15t-14 36q0 22 14 37t37 15t37.5 -15t14.5 -37q0 -21 -14.5 -36t-37.5 -15zM157 535q-23 0 -37 15t-14 36q0 22 14 37t37 15
t37.5 -15t14.5 -37q0 -21 -14.5 -36t-37.5 -15z" />
    <glyph glyph-name="aring" unicode="&#xe5;" horiz-adv-x="490" 
d="M193 -10q-34 0 -62.5 8.5t-50.5 25.5t-34.5 43t-12.5 60q0 51 28 83t86.5 47.5t149.5 15.5h21q0 64 -12 99.5t-34.5 50t-52.5 14.5q-37 0 -65 -17.5t-39 -70.5h-51q0 26 3.5 51t21.5 45t60.5 27.5t89.5 7.5q43 0 78.5 -11t61 -35t39.5 -64.5t14 -99.5v-270h-71l-35 45h-5
q-14 -20 -46 -37.5t-82 -17.5zM229 38q35 0 56.5 20.5t32.5 42.5v129h-21q-73 0 -109 -26.5t-36 -76.5q0 -45 22 -67t55 -22zM240 524q-39 0 -65 26t-26 65t26 65t65 26q38 0 64.5 -26t26.5 -65t-26.5 -65t-64.5 -26zM240 565q19 0 32 13.5t13 36.5t-13 36.5t-32 13.5
t-32 -13.5t-13 -36.5t13 -36.5t32 -13.5z" />
    <glyph glyph-name="ae" unicode="&#xe6;" horiz-adv-x="780" 
d="M204 -10q-49 0 -88 15t-61 44.5t-22 72.5q0 47 28.5 77.5t87.5 46t150 15.5h21q0 67 -12.5 105.5t-35 54.5t-54.5 16q-37 0 -64.5 -17.5t-39.5 -70.5h-51q0 55 16.5 83t53 38t94.5 10q59 0 100 -25t60 -66q24 43 63 67t87 24q62 0 108.5 -25t72 -72t25.5 -111l-3 -54
h-300q1 -93 33 -139t87 -46q51 0 83.5 22.5t58.5 59.5l26 -20q-17 -29 -42 -52.5t-60 -38t-83 -14.5q-113 0 -170 88q-19 -37 -59.5 -62.5t-109.5 -25.5zM228 38q38 0 59 21t33 42v117h-21q-54 0 -86.5 -11.5t-47 -33.5t-14.5 -51q0 -38 22 -61t55 -23zM440 261h186
q0 88 -24.5 131t-68.5 43q-25 0 -46 -20t-34 -58.5t-13 -95.5z" />
    <glyph glyph-name="ccedilla" unicode="&#xe7;" horiz-adv-x="491" 
d="M271 -10q-77 0 -128.5 33.5t-77 89.5t-25.5 122q0 67 25.5 122.5t77 89t128.5 33.5q56 0 94 -8t57 -27t22 -49t3 -87h-26q-4 64 -39.5 96t-92.5 32q-42 0 -71 -24t-44.5 -69t-15.5 -109q0 -62 15 -107.5t44 -70t74 -24.5q53 0 85.5 22.5t58.5 59.5l27 -20
q-17 -29 -42.5 -52.5t-61.5 -38t-87 -14.5zM229 -191v44h50q19 0 29.5 9t10.5 23q0 15 -10.5 24t-29.5 9h-45v93h57v-50q43 0 66.5 -20t23.5 -56q0 -35 -23.5 -55.5t-62.5 -20.5h-66z" />
    <glyph glyph-name="egrave" unicode="&#xe8;" horiz-adv-x="500" 
d="M262 -10q-70 0 -119.5 32.5t-76 88t-26.5 124.5q0 75 27 130t75 85t110 30q65 0 112.5 -25t73.5 -72t26 -111l-3 -54h-302q0 -92 32.5 -138.5t87.5 -46.5q51 0 83.5 22.5t58.5 59.5l26 -20q-17 -29 -42 -52.5t-60 -38t-83 -14.5zM159 261h186q0 94 -24.5 135t-68.5 41
q-25 0 -46 -19t-34 -58t-13 -99zM233 525l-101 136h109l41 -136h-49z" />
    <glyph glyph-name="eacute" unicode="&#xe9;" horiz-adv-x="500" 
d="M262 -10q-70 0 -119.5 32.5t-76 88t-26.5 124.5q0 75 27 130t75 85t110 30q65 0 112.5 -25t73.5 -72t26 -111l-3 -54h-302q0 -92 32.5 -138.5t87.5 -46.5q51 0 83.5 22.5t58.5 59.5l26 -20q-17 -29 -42 -52.5t-60 -38t-83 -14.5zM159 261h186q0 94 -24.5 135t-68.5 41
q-25 0 -46 -19t-34 -58t-13 -99zM219 524l41 136h109l-101 -136h-49z" />
    <glyph glyph-name="ecircumflex" unicode="&#xea;" horiz-adv-x="500" 
d="M262 -10q-70 0 -119.5 32.5t-76 88t-26.5 124.5q0 75 27 130t75 85t110 30q65 0 112.5 -25t73.5 -72t26 -111l-3 -54h-302q0 -92 32.5 -138.5t87.5 -46.5q51 0 83.5 22.5t58.5 59.5l26 -20q-17 -29 -42 -52.5t-60 -38t-83 -14.5zM159 261h186q0 94 -24.5 135t-68.5 41
q-25 0 -46 -19t-34 -58t-13 -99zM113 530l80 121h122l80 -121h-56l-85 80l-85 -80h-56z" />
    <glyph glyph-name="edieresis" unicode="&#xeb;" horiz-adv-x="500" 
d="M262 -10q-70 0 -119.5 32.5t-76 88t-26.5 124.5q0 75 27 130t75 85t110 30q65 0 112.5 -25t73.5 -72t26 -111l-3 -54h-302q0 -92 32.5 -138.5t87.5 -46.5q51 0 83.5 22.5t58.5 59.5l26 -20q-17 -29 -42 -52.5t-60 -38t-83 -14.5zM159 261h186q0 94 -24.5 135t-68.5 41
q-25 0 -46 -19t-34 -58t-13 -99zM335 539q-23 0 -37 15t-14 36q0 22 14 37t37 15t37.5 -15t14.5 -37q0 -21 -14.5 -36t-37.5 -15zM159 539q-23 0 -37 15t-14 36q0 22 14 37t37 15t37.5 -15t14.5 -37q0 -21 -14.5 -36t-37.5 -15z" />
    <glyph glyph-name="igrave" unicode="&#xec;" horiz-adv-x="258" 
d="M82 0v344q0 45 -12.5 72.5t-57.5 27.5h-14v26h108q35 0 54.5 -11t27.5 -38t8 -77v-344h-114zM116 525l-101 136h109l41 -136h-49z" />
    <glyph glyph-name="iacute" unicode="&#xed;" horiz-adv-x="258" 
d="M82 0v344q0 45 -12.5 72.5t-57.5 27.5h-14v26h108q35 0 54.5 -11t27.5 -38t8 -77v-344h-114zM97 525l41 136h109l-101 -136h-49z" />
    <glyph glyph-name="icircumflex" unicode="&#xee;" horiz-adv-x="258" 
d="M82 0v344q0 45 -12.5 72.5t-57.5 27.5h-14v26h108q35 0 54.5 -11t27.5 -38t8 -77v-344h-114zM-11 531l80 121h122l80 -121h-56l-85 80l-85 -80h-56z" />
    <glyph glyph-name="idieresis" unicode="&#xef;" horiz-adv-x="258" 
d="M82 0v344q0 45 -12.5 72.5t-57.5 27.5h-14v26h108q35 0 54.5 -11t27.5 -38t8 -77v-344h-114zM53 536q-32 0 -49.5 21.5t-17.5 50.5q0 23 14.5 37t36.5 14q32 0 49.5 -21.5t17.5 -49.5q0 -24 -14.5 -38t-36.5 -14zM225 536q-31 0 -49 21.5t-18 50.5q0 23 14.5 37t37.5 14
q31 0 49 -21.5t18 -49.5q0 -24 -14.5 -38t-37.5 -14z" />
    <glyph glyph-name="eth" unicode="&#xf0;" horiz-adv-x="549" 
d="M271 -10q-76 0 -127.5 33t-78 89t-26.5 123q0 68 26.5 123.5t77 88.5t122.5 33q46 0 81.5 -21t54.5 -59q-11 52 -27 90t-41 67l-44 -44l-36 36l45 44q-22 21 -48.5 28.5t-58.5 7.5q-15 0 -28.5 -3t-20.5 -5l-12 27q19 12 43 17t46 5q38 0 68 -10t55 -28l40 44l36 -35
l-40 -39q55 -51 90 -135.5t35 -196.5q0 -127 -59 -203.5t-173 -76.5zM271 33q32 0 57.5 24t40.5 69.5t15 108.5q0 52 -12.5 98t-37.5 75t-63 29q-37 0 -62.5 -29t-38 -75t-12.5 -98q0 -63 15 -108.5t40.5 -69.5t57.5 -24z" />
    <glyph glyph-name="ntilde" unicode="&#xf1;" horiz-adv-x="562" 
d="M83 0v344q0 45 -12.5 72.5t-57.5 27.5h-14v26h96q35 0 54.5 -9.5t29.5 -28.5q19 17 53 32.5t89 15.5q54 0 95 -17.5t63.5 -57t22.5 -107.5v-298h-113v298q0 50 -14 79t-36.5 42t-50.5 13q-29 0 -52 -10.5t-40 -25.5v-396h-113zM174 544q0 57 17.5 77.5t47.5 20.5
q22 0 38 -10t30 -20t29 -10t24 13.5t9 26.5h36q0 -57 -17 -77.5t-47 -20.5q-22 0 -38 10t-30 20t-30 10q-15 0 -24 -13.5t-9 -26.5h-36z" />
    <glyph glyph-name="ograve" unicode="&#xf2;" horiz-adv-x="543" 
d="M271 -10q-72 0 -124 32.5t-79.5 88.5t-27.5 124q0 69 27.5 124.5t79.5 88t124 32.5q73 0 125 -32.5t79.5 -88t27.5 -124.5q0 -68 -27.5 -124t-79.5 -88.5t-125 -32.5zM271 33q37 0 62 26.5t38.5 72.5t13.5 103q0 58 -13.5 103.5t-38.5 72t-62 26.5q-35 0 -60.5 -26.5
t-39 -72t-13.5 -103.5q0 -57 13.5 -103t39 -72.5t60.5 -26.5zM257 525l-101 136h109l41 -136h-49z" />
    <glyph glyph-name="oacute" unicode="&#xf3;" horiz-adv-x="543" 
d="M271 -10q-72 0 -124 32.5t-79.5 88.5t-27.5 124q0 69 27.5 124.5t79.5 88t124 32.5q73 0 125 -32.5t79.5 -88t27.5 -124.5q0 -68 -27.5 -124t-79.5 -88.5t-125 -32.5zM271 33q37 0 62 26.5t38.5 72.5t13.5 103q0 58 -13.5 103.5t-38.5 72t-62 26.5q-35 0 -60.5 -26.5
t-39 -72t-13.5 -103.5q0 -57 13.5 -103t39 -72.5t60.5 -26.5zM233 524l41 136h109l-101 -136h-49z" />
    <glyph glyph-name="ocircumflex" unicode="&#xf4;" horiz-adv-x="543" 
d="M271 -10q-72 0 -124 32.5t-79.5 88.5t-27.5 124q0 69 27.5 124.5t79.5 88t124 32.5q73 0 125 -32.5t79.5 -88t27.5 -124.5q0 -68 -27.5 -124t-79.5 -88.5t-125 -32.5zM271 33q37 0 62 26.5t38.5 72.5t13.5 103q0 58 -13.5 103.5t-38.5 72t-62 26.5q-35 0 -60.5 -26.5
t-39 -72t-13.5 -103.5q0 -57 13.5 -103t39 -72.5t60.5 -26.5zM131 524l80 121h122l80 -121h-56l-85 80l-85 -80h-56z" />
    <glyph glyph-name="otilde" unicode="&#xf5;" horiz-adv-x="543" 
d="M271 -10q-72 0 -124 32.5t-79.5 88.5t-27.5 124q0 69 27.5 124.5t79.5 88t124 32.5q73 0 125 -32.5t79.5 -88t27.5 -124.5q0 -68 -27.5 -124t-79.5 -88.5t-125 -32.5zM271 33q37 0 62 26.5t38.5 72.5t13.5 103q0 58 -13.5 103.5t-38.5 72t-62 26.5q-35 0 -60.5 -26.5
t-39 -72t-13.5 -103.5q0 -57 13.5 -103t39 -72.5t60.5 -26.5zM156 535q0 57 17.5 77.5t47.5 20.5q22 0 38 -10t30 -20t29 -10t24 13.5t9 26.5h36q0 -57 -17 -77.5t-47 -20.5q-22 0 -38 10t-30 20t-30 10q-15 0 -24 -13.5t-9 -26.5h-36z" />
    <glyph glyph-name="odieresis" unicode="&#xf6;" horiz-adv-x="543" 
d="M271 -10q-72 0 -124 32.5t-79.5 88.5t-27.5 124q0 69 27.5 124.5t79.5 88t124 32.5q73 0 125 -32.5t79.5 -88t27.5 -124.5q0 -68 -27.5 -124t-79.5 -88.5t-125 -32.5zM271 33q37 0 62 26.5t38.5 72.5t13.5 103q0 58 -13.5 103.5t-38.5 72t-62 26.5q-35 0 -60.5 -26.5
t-39 -72t-13.5 -103.5q0 -57 13.5 -103t39 -72.5t60.5 -26.5zM359 535q-23 0 -37 15t-14 36q0 22 14 37t37 15t37.5 -15t14.5 -37q0 -21 -14.5 -36t-37.5 -15zM183 535q-23 0 -37 15t-14 36q0 22 14 37t37 15t37.5 -15t14.5 -37q0 -21 -14.5 -36t-37.5 -15z" />
    <glyph glyph-name="divide" unicode="&#xf7;" horiz-adv-x="555" 
d="M51 298v63h452v-63h-452zM277 132q-23 0 -37 15t-14 37q0 21 14 36t37 15t37.5 -15t14.5 -36q0 -22 -14.5 -37t-37.5 -15zM277 425q-23 0 -37 15t-14 36q0 22 14 37t37 15t37.5 -15t14.5 -37q0 -21 -14.5 -36t-37.5 -15z" />
    <glyph glyph-name="oslash" unicode="&#xf8;" horiz-adv-x="543" 
d="M271 -10q-33 0 -61.5 7.5t-53.5 20.5l-12 -18h-84l42 59q-62 69 -62 176q0 69 27.5 124.5t79.5 88t124 32.5q33 0 62 -7.5t53 -20.5l13 18h84l-43 -60q31 -33 47 -78t16 -97q0 -68 -27.5 -124t-79.5 -88.5t-125 -32.5zM271 33q37 0 62 26.5t38.5 72.5t13.5 103
q0 47 -10 85l-177 -245q28 -42 73 -42zM168 149l177 246q-14 20 -32.5 31t-41.5 11q-35 0 -60.5 -26.5t-39 -72t-13.5 -103.5q0 -24 2.5 -45t7.5 -41z" />
    <glyph glyph-name="ugrave" unicode="&#xf9;" horiz-adv-x="553" 
d="M250 -10q-54 0 -94.5 17.5t-62.5 57.5t-22 107v172q0 45 -12.5 72.5t-57.5 27.5h-10v26h104q35 0 54.5 -11t27.5 -38t8 -77v-172q0 -51 12.5 -81t34 -43t48.5 -13q22 0 40 9.5t32 23.5t22 27v375h114v-470h-71l-35 43h-5q-19 -20 -51 -36.5t-76 -16.5zM258 499l-101 136
h109l41 -136h-49z" />
    <glyph glyph-name="uacute" unicode="&#xfa;" horiz-adv-x="553" 
d="M250 -10q-54 0 -94.5 17.5t-62.5 57.5t-22 107v172q0 45 -12.5 72.5t-57.5 27.5h-10v26h104q35 0 54.5 -11t27.5 -38t8 -77v-172q0 -51 12.5 -81t34 -43t48.5 -13q22 0 40 9.5t32 23.5t22 27v375h114v-470h-71l-35 43h-5q-19 -20 -51 -36.5t-76 -16.5zM241 500l41 136
h109l-101 -136h-49z" />
    <glyph glyph-name="ucircumflex" unicode="&#xfb;" horiz-adv-x="553" 
d="M250 -10q-54 0 -94.5 17.5t-62.5 57.5t-22 107v172q0 45 -12.5 72.5t-57.5 27.5h-10v26h104q35 0 54.5 -11t27.5 -38t8 -77v-172q0 -51 12.5 -81t34 -43t48.5 -13q22 0 40 9.5t32 23.5t22 27v375h114v-470h-71l-35 43h-5q-19 -20 -51 -36.5t-76 -16.5zM135 530l80 121
h122l80 -121h-56l-85 80l-85 -80h-56z" />
    <glyph glyph-name="udieresis" unicode="&#xfc;" horiz-adv-x="553" 
d="M250 -10q-54 0 -94.5 17.5t-62.5 57.5t-22 107v172q0 45 -12.5 72.5t-57.5 27.5h-10v26h104q35 0 54.5 -11t27.5 -38t8 -77v-172q0 -51 12.5 -81t34 -43t48.5 -13q22 0 40 9.5t32 23.5t22 27v375h114v-470h-71l-35 43h-5q-19 -20 -51 -36.5t-76 -16.5zM356 516
q-23 0 -37 15t-14 36q0 22 14 37t37 15t37.5 -15t14.5 -37q0 -21 -14.5 -36t-37.5 -15zM180 516q-23 0 -37 15t-14 36q0 22 14 37t37 15t37.5 -15t14.5 -37q0 -21 -14.5 -36t-37.5 -15z" />
    <glyph glyph-name="yacute" unicode="&#xfd;" horiz-adv-x="511" 
d="M97 -200v33q50 0 84 20t57 80l20 55l-172 392q-15 37 -40.5 56.5t-59.5 23.5v20h87q45 0 77.5 -21.5t48.5 -58.5l115 -262l123 332h52l-199 -535q-20 -54 -43 -83.5t-51 -40.5t-63 -11h-36zM259 500l41 136h109l-101 -136h-49z" />
    <glyph glyph-name="thorn" unicode="&#xfe;" horiz-adv-x="534" 
d="M65 -190v724q0 45 -12.5 72.5t-57.5 27.5h-12v26h106q35 0 54.5 -11t27.5 -38t8 -77v-97q16 16 45 29.5t77 13.5q65 0 107.5 -32t63.5 -87t21 -126q0 -70 -21.5 -125.5t-66 -87.5t-114.5 -32q-36 0 -63.5 7.5t-48.5 16.5v-204h-114zM258 33q40 0 65.5 25.5t38 71
t12.5 105.5q0 61 -12 106t-36 70.5t-58 25.5q-32 0 -53.5 -12.5t-35.5 -29.5v-341q20 -9 40.5 -15t38.5 -6z" />
    <glyph glyph-name="ydieresis" unicode="&#xff;" horiz-adv-x="511" 
d="M97 -200v33q50 0 84 20t57 80l20 55l-172 392q-15 37 -40.5 56.5t-59.5 23.5v20h87q45 0 77.5 -21.5t48.5 -58.5l115 -262l123 332h52l-199 -535q-20 -54 -43 -83.5t-51 -40.5t-63 -11h-36zM375 519q-23 0 -37 15t-14 36q0 22 14 37t37 15t37.5 -15t14.5 -37
q0 -21 -14.5 -36t-37.5 -15zM199 519q-23 0 -37 15t-14 36q0 22 14 37t37 15t37.5 -15t14.5 -37q0 -21 -14.5 -36t-37.5 -15z" />
    <glyph glyph-name="Gbreve" unicode="&#x11e;" horiz-adv-x="728" 
d="M390 -20q-76 0 -140.5 27.5t-111.5 76.5t-73 114.5t-26 141.5q0 96 39.5 173t112 122t169.5 45q93 0 153.5 -24t88.5 -57q19 -24 22 -63.5t3 -73.5h-26q-19 90 -70.5 132.5t-140.5 42.5q-61 0 -104 -24.5t-70.5 -67t-40.5 -95.5t-13 -110q0 -121 31 -191t83 -99.5
t114 -29.5q49 0 82.5 8t61.5 22v176q0 21 5.5 42t24.5 38.5t55 28.5t97 11v-23q-40 0 -54.5 -25t-14.5 -70v-183q-56 -34 -118.5 -49.5t-138.5 -15.5zM363 730q-49 0 -83 25t-53 67l25 19q15 -19 42 -33.5t69 -14.5t69.5 14.5t42.5 33.5l25 -19q-19 -42 -53.5 -67t-83.5 -25
z" />
    <glyph glyph-name="gbreve" unicode="&#x11f;" horiz-adv-x="510" 
d="M254 -200q-67 0 -120.5 14.5t-84 48.5t-30.5 92q0 35 18 60.5t46.5 43t60.5 26.5q-18 7 -30.5 20.5t-12.5 36.5q0 20 10.5 32t27.5 20q-37 15 -63.5 50t-26.5 82q0 58 27.5 91.5t74 48t103.5 14.5h199v-26l-79 -11q36 -17 60 -48.5t24 -68.5q0 -57 -26 -90.5t-72 -47.5
t-106 -14q-48 0 -75 -6.5t-27 -25.5q0 -17 27 -23.5t75 -6.5q64 -1 117.5 -18t85 -51t31.5 -88q0 -58 -30.5 -92t-84 -48.5t-119.5 -14.5zM254 -157q53 0 85.5 27t32.5 85q0 47 -29 76t-81 37l-50 5q-35 -14 -56 -42t-21 -76q0 -58 33 -85t86 -27zM254 212q37 0 62.5 26
t25.5 88q0 59 -25 87.5t-63 28.5t-63.5 -26.5t-25.5 -89.5q0 -62 25.5 -88t63.5 -26zM245 531q-49 0 -83 25t-53 67l25 19q15 -19 42 -33.5t69 -14.5t69.5 14.5t42.5 33.5l25 -19q-19 -42 -53.5 -67t-83.5 -25z" />
    <glyph glyph-name="Idotaccent" unicode="&#x130;" horiz-adv-x="296" 
d="M173 0q-35 0 -54.5 10.5t-27.5 38t-8 77.5v534h114v-534q0 -45 12.5 -72.5t57.5 -27.5h14v-26h-108zM144 712q-32 0 -49.5 21.5t-17.5 49.5q0 24 14.5 38t36.5 14q32 0 49.5 -21.5t17.5 -49.5q0 -24 -14.5 -38t-36.5 -14z" />
    <glyph glyph-name="dotlessi" unicode="&#x131;" horiz-adv-x="258" 
d="M82 0v344q0 45 -12.5 72.5t-57.5 27.5h-14v26h108q35 0 54.5 -11t27.5 -38t8 -77v-344h-114z" />
    <glyph glyph-name="OE" unicode="&#x152;" horiz-adv-x="952" 
d="M362 -20q-97 0 -169.5 46.5t-112 125.5t-39.5 178t39.5 178t112 125.5t169.5 46.5q38 0 63.5 -5.5t49.5 -14.5h331q35 0 53 -11.5t25 -30t7 -38.5v-81h-25q0 62 -32.5 90t-92.5 28h-172v-254h264v-43h-264v-277h173q60 0 99 24.5t64 87.5l24 -8l-31 -85
q-10 -29 -28 -45.5t-55 -16.5h-340q-26 -11 -53 -15.5t-60 -4.5zM362 23q53 0 94 27v561q-41 26 -94 26q-62 0 -106.5 -36.5t-68 -105t-23.5 -165.5q0 -96 23.5 -165t68 -105.5t106.5 -36.5z" />
    <glyph glyph-name="oe" unicode="&#x153;" horiz-adv-x="847" 
d="M271 -10q-72 0 -124 32.5t-79.5 88.5t-27.5 124q0 69 27.5 124.5t79.5 88t124 32.5q73 0 125 -32.5t79.5 -88t27.5 -124.5q0 -68 -27.5 -124t-79.5 -88.5t-125 -32.5zM271 33q37 0 62 26.5t38.5 72.5t13.5 103q0 58 -13.5 103.5t-38.5 72t-62 26.5q-35 0 -60.5 -26.5
t-39 -72t-13.5 -103.5q0 -57 13.5 -103t39 -72.5t60.5 -26.5zM606 -10q-70 0 -119.5 32.5t-76 88t-26.5 124.5q0 75 27 130t75 85t110 30q65 0 112.5 -25t73.5 -72t26 -111l-3 -54h-302q0 -92 32.5 -138.5t87.5 -46.5q51 0 83.5 22.5t58.5 59.5l26 -20q-17 -29 -42 -52.5
t-60 -38t-83 -14.5zM503 261h186q0 94 -24.5 135t-68.5 41q-25 0 -46 -19t-34 -58t-13 -99z" />
    <glyph glyph-name="Scedilla" unicode="&#x15e;" horiz-adv-x="550" 
d="M277 -17q-41 0 -81 8t-73.5 24t-53 38.5t-19.5 50.5v113h24q16 -103 65 -147t133 -44q37 0 66 11t45.5 33.5t16.5 54.5q0 43 -27.5 72.5t-77.5 60.5l-123 73q-67 39 -94.5 80t-27.5 96q0 79 58 125t154 46q40 0 79 -8t71.5 -23.5t52 -37.5t19.5 -51v-113h-24
q-17 103 -64.5 146.5t-126.5 43.5q-33 0 -60 -12t-42 -34t-15 -53q0 -42 28.5 -69t78.5 -56l123 -73q66 -39 97 -76.5t31 -92.5q0 -86 -61.5 -136t-171.5 -50zM234 -198v44h50q19 0 29.5 9t10.5 23q0 15 -10.5 24t-29.5 9h-45v93h57v-50q43 0 66.5 -20t23.5 -56
q0 -35 -23.5 -55.5t-62.5 -20.5h-66z" />
    <glyph glyph-name="scedilla" unicode="&#x15f;" horiz-adv-x="459" 
d="M229 -10q-61 0 -100 11t-59 30q-18 17 -21 46t-3 67h29q8 -49 40 -80t94 -31q56 0 80 19.5t24 49.5q0 29 -24.5 48t-65.5 36l-55 24q-59 24 -92 56.5t-33 81.5q0 64 51 98t129 34q60 0 98.5 -11t57.5 -30q19 -17 22 -46t3 -67h-29q-8 49 -40 80t-92 31q-47 0 -69 -19.5
t-22 -49.5q0 -26 19.5 -44.5t54.5 -33.5l60 -25q67 -28 101.5 -59.5t34.5 -83.5q0 -64 -55 -98t-138 -34zM186 -182v44h50q19 0 29.5 9t10.5 23q0 15 -10.5 24t-29.5 9h-45v93h57v-50q43 0 66.5 -20t23.5 -56q0 -35 -23.5 -55.5t-62.5 -20.5h-66z" />
    <glyph glyph-name="Scaron" unicode="&#x160;" horiz-adv-x="550" 
d="M277 -17q-41 0 -81 8t-73.5 24t-53 38.5t-19.5 50.5v113h24q16 -103 65 -147t133 -44q37 0 66 11t45.5 33.5t16.5 54.5q0 43 -27.5 72.5t-77.5 60.5l-123 73q-67 39 -94.5 80t-27.5 96q0 79 58 125t154 46q40 0 79 -8t71.5 -23.5t52 -37.5t19.5 -51v-113h-24
q-17 103 -64.5 146.5t-126.5 43.5q-33 0 -60 -12t-42 -34t-15 -53q0 -42 28.5 -69t78.5 -56l123 -73q66 -39 97 -76.5t31 -92.5q0 -86 -61.5 -136t-171.5 -50zM201 721l-80 121h62l79 -80l79 80h62l-80 -121h-122z" />
    <glyph glyph-name="scaron" unicode="&#x161;" horiz-adv-x="459" 
d="M229 -10q-61 0 -100 11t-59 30q-18 17 -21 46t-3 67h29q8 -49 40 -80t94 -31q56 0 80 19.5t24 49.5q0 29 -24.5 48t-65.5 36l-55 24q-59 24 -92 56.5t-33 81.5q0 64 51 98t129 34q60 0 98.5 -11t57.5 -30q19 -17 22 -46t3 -67h-29q-8 49 -40 80t-92 31q-47 0 -69 -19.5
t-22 -49.5q0 -26 19.5 -44.5t54.5 -33.5l60 -25q67 -28 101.5 -59.5t34.5 -83.5q0 -64 -55 -98t-138 -34zM158 520l-80 121h62l79 -80l79 80h62l-80 -121h-122z" />
    <glyph glyph-name="Ydieresis" unicode="&#x178;" horiz-adv-x="634" 
d="M284 0v268l-175 262q-18 28 -39.5 51.5t-45.5 40t-53 18.5v20h102q37 0 66.5 -16.5t52 -41.5t38.5 -52l140 -213l200 323h57l-230 -374v-286h-113zM439 690q-25 0 -39.5 15.5t-14.5 38.5t14.5 38t39.5 15t39 -15t14 -38t-14.5 -38.5t-38.5 -15.5zM269 690
q-25 0 -39.5 15.5t-14.5 38.5t14.5 38t39.5 15t39 -15t14 -38t-14.5 -38.5t-38.5 -15.5z" />
    <glyph glyph-name="Zcaron" unicode="&#x17d;" horiz-adv-x="596" 
d="M28 0v27l390 591h-227q-56 0 -87.5 -27.5t-31.5 -91.5h-26v81q0 20 7 38.5t25.5 30t52.5 11.5h447l-405 -617h396v-43h-541zM251 711l-80 121h62l79 -80l79 80h62l-80 -121h-122z" />
    <glyph glyph-name="zcaron" unicode="&#x17e;" horiz-adv-x="482" 
d="M41 0v26l262 401h-117q-64 0 -91.5 -23.5t-27.5 -69.5h-26v56q0 20 7 38.5t25.5 30t52.5 11.5h335l-278 -427h266v-43h-408zM191 520l-80 121h62l79 -80l79 80h62l-80 -121h-122z" />
    <glyph glyph-name="florin" unicode="&#x192;" horiz-adv-x="491" 
d="M108 62v258h-65v43h65v97q0 66 17 107t45 63.5t62 31t68 8.5q45 0 88 -8t62 -27t22 -44.5t3 -51.5h-51q-11 49 -37.5 68.5t-66.5 19.5q-27 0 -49 -14t-36 -50t-14 -103v-97h134v-43h-134v-258q0 -79 -18.5 -126.5t-63 -68t-122.5 -20.5v23q31 3 51 24t30 62t10 106z" />
    <glyph glyph-name="circumflex" unicode="&#x2c6;" horiz-adv-x="322" 
d="M20 660l80 121h122l80 -121h-56l-85 80l-85 -80h-56z" />
    <glyph glyph-name="caron" unicode="&#x2c7;" horiz-adv-x="305" 
d="M92 520l-80 121h62l79 -80l79 80h62l-80 -121h-122z" />
    <glyph glyph-name="breve" unicode="&#x2d8;" horiz-adv-x="297" 
d="M148 515q-49 0 -83 24.5t-53 63.5l25 18q16 -19 42.5 -32.5t68.5 -13.5t68.5 13.5t43.5 32.5l25 -18q-19 -39 -53.5 -63.5t-83.5 -24.5z" />
    <glyph glyph-name="ring" unicode="&#x2da;" horiz-adv-x="205" 
d="M103 524q-39 0 -65 26t-26 65t26 65t65 26q38 0 64.5 -26t26.5 -65t-26.5 -65t-64.5 -26zM103 565q19 0 32 13.5t13 36.5t-13 36.5t-32 13.5t-32 -13.5t-13 -36.5t13 -36.5t32 -13.5z" />
    <glyph glyph-name="tilde" unicode="&#x2dc;" horiz-adv-x="271" 
d="M20 680q0 57 17.5 77.5t47.5 20.5q22 0 38 -10t30 -20t29 -10t24 13.5t9 26.5h36q0 -57 -17 -77.5t-47 -20.5q-22 0 -38 10t-30 20t-30 10q-15 0 -24 -13.5t-9 -26.5h-36z" />
    <glyph glyph-name="uni0401" unicode="&#x401;" horiz-adv-x="596" 
d="M100 0v534q0 45 -12.5 72.5t-57.5 27.5h-15v26h435q35 0 53 -11.5t25 -30t7 -38.5v-81h-26q0 62 -32.5 90t-92.5 28h-171v-254h264v-43h-264v-277h173q60 0 99 24.5t64 87.5l24 -8l-32 -85q-9 -29 -27 -45.5t-55 -16.5h-359zM376 730q-25 0 -39.5 15.5t-14.5 38.5
t14.5 38t39.5 15t39 -15t14 -38t-14.5 -38.5t-38.5 -15.5zM206 730q-25 0 -39.5 15.5t-14.5 38.5t14.5 38t39.5 15t39 -15t14 -38t-14.5 -38.5t-38.5 -15.5z" />
    <glyph glyph-name="uni0402" unicode="&#x402;" horiz-adv-x="632" 
d="M401 -40v23q43 0 66 53t23 164q0 72 -17.5 111.5t-45 55t-59.5 15.5q-38 0 -74.5 -11t-59.5 -26v-345h-114v617h-124v43h362v-43h-124v-227q23 15 66 27.5t92 12.5q44 0 82 -9.5t67 -34.5t46 -70t17 -116q0 -88 -21.5 -140.5t-66.5 -76t-115 -23.5z" />
    <glyph glyph-name="uni0403" unicode="&#x403;" horiz-adv-x="541" 
d="M100 0v534q0 45 -12.5 72.5t-57.5 27.5h-15v26h424q35 0 53 -11.5t25 -30t7 -38.5v-81h-26q0 63 -32.5 90.5t-92.5 27.5h-160v-617h-113zM235 702l41 136h109l-101 -136h-49z" />
    <glyph glyph-name="uni0404" unicode="&#x404;" horiz-adv-x="673" 
d="M362 -20q-101 0 -173.5 45t-110.5 122.5t-38 172.5q0 76 24 141.5t68.5 114.5t103 76.5t126.5 27.5q89 0 147.5 -24t86.5 -57q19 -24 22 -65t3 -86h-26q-19 94 -69.5 141.5t-133.5 47.5q-59 0 -109.5 -26t-82 -88t-36.5 -170h318v-43h-319q2 -55 15.5 -106.5t41 -92
t70 -64.5t102.5 -24q71 0 128 36.5t95 105.5l29 -22q-47 -88 -115.5 -125.5t-166.5 -37.5z" />
    <glyph glyph-name="uni0405" unicode="&#x405;" horiz-adv-x="550" 
d="M277 -17q-41 0 -81 8t-73.5 24t-53 38.5t-19.5 50.5v113h24q16 -103 65 -147t133 -44q37 0 66 11t45.5 33.5t16.5 54.5q0 43 -27.5 72.5t-77.5 60.5l-123 73q-67 39 -94.5 80t-27.5 96q0 79 58 125t154 46q40 0 79 -8t71.5 -23.5t52 -37.5t19.5 -51v-113h-24
q-17 103 -64.5 146.5t-126.5 43.5q-33 0 -60 -12t-42 -34t-15 -53q0 -42 28.5 -69t78.5 -56l123 -73q66 -39 97 -76.5t31 -92.5q0 -86 -61.5 -136t-171.5 -50z" />
    <glyph glyph-name="uni0406" unicode="&#x406;" horiz-adv-x="296" 
d="M173 0q-35 0 -54.5 10.5t-27.5 38t-8 77.5v534h114v-534q0 -45 12.5 -72.5t57.5 -27.5h14v-26h-108z" />
    <glyph glyph-name="uni0407" unicode="&#x407;" horiz-adv-x="296" 
d="M173 0q-35 0 -54.5 10.5t-27.5 38t-8 77.5v534h114v-534q0 -45 12.5 -72.5t57.5 -27.5h14v-26h-108zM59 715q-24 0 -38.5 15.5t-14.5 38.5t14.5 38t38.5 15q25 0 39.5 -15t14.5 -38t-14.5 -38.5t-39.5 -15.5zM220 715q-24 0 -38.5 15.5t-14.5 38.5t14.5 38t39.5 15
q24 0 38.5 -15t14.5 -38t-14.5 -38.5t-39.5 -15.5z" />
    <glyph glyph-name="uni0408" unicode="&#x408;" horiz-adv-x="271" 
d="M-15 -137v26q31 2 52 22t31.5 61.5t10.5 108.5v579h114v-579q0 -82 -17.5 -129.5t-62.5 -68t-128 -20.5z" />
    <glyph glyph-name="uni0409" unicode="&#x409;" horiz-adv-x="978" 
d="M49 -13q-16 0 -30.5 2.5t-25.5 6.5v29q25 3 49 17t44.5 46t35.5 88.5t23.5 144t8.5 213.5q0 45 -12.5 72.5t-57.5 27.5h-10v26h509v-274h98q48 0 96.5 -8t89.5 -29.5t66 -59t25 -96.5t-25 -96.5t-66 -59t-89.5 -29.5t-96.5 -8h-212v617h-220v-83q0 -131 -10 -225
t-28 -156.5t-43.5 -99t-55.5 -51.5t-63 -15zM666 38q83 0 125.5 39t42.5 116t-42.5 116t-125.5 39q-22 0 -41 -3t-42 -9v-286q18 -6 40 -9t43 -3z" />
    <glyph glyph-name="uni040A" unicode="&#x40a;" horiz-adv-x="992" 
d="M100 0v534q0 45 -12.5 72.5t-57.5 27.5h-15v26h108q35 0 54.5 -11t27.5 -38t8 -77v-171h267v297h114v-294h97q50 0 100 -8t91.5 -28.5t66.5 -56t25 -90.5t-25 -90.5t-66.5 -56t-91.5 -28.5t-100 -8h-211v320h-267v-320h-113zM676 38q87 0 130.5 37.5t43.5 107.5
t-43.5 107.5t-130.5 37.5q-27 0 -49 -4t-34 -8v-266q16 -5 38 -8.5t45 -3.5z" />
    <glyph glyph-name="uni040B" unicode="&#x40b;" horiz-adv-x="643" 
d="M120 0v617h-124v43h362v-43h-124v-227q23 15 66 27.5t92 12.5q39 0 76.5 -8t68 -27.5t49 -55t18.5 -89.5v-250h-114v250q0 50 -16 78.5t-43.5 41t-62.5 12.5q-38 0 -74.5 -11t-59.5 -26v-345h-114z" />
    <glyph glyph-name="uni040C" unicode="&#x40c;" horiz-adv-x="686" 
d="M627 -10q-33 0 -68.5 9t-75.5 35t-88 76l-181 189v-299h-114v534q0 45 -12.5 72.5t-57.5 27.5h-15v26h108q35 0 54.5 -11t28 -38t8.5 -77v-192l188 213q23 27 48 51t56 39t70 15h62v-31q-51 0 -91 -14.5t-77 -55.5l-167 -189l230 -240q26 -27 55.5 -51t58 -39t50.5 -18
v-22q-11 -4 -29 -7t-41 -3zM290 675l41 136h109l-101 -136h-49z" />
    <glyph glyph-name="uni040E" unicode="&#x40e;" horiz-adv-x="613" 
d="M138 -10v34q30 0 59.5 5.5t53.5 21t36 44.5l9 19l-197 416q-13 30 -30 54t-41 39t-58 17v20h108q36 0 64 -15t48.5 -40t33.5 -55l137 -289l178 399h63l-252 -565q-21 -49 -61.5 -77t-100.5 -28h-50zM346 697q-49 0 -83 25t-53 67l25 19q15 -19 42 -33.5t69 -14.5
t69.5 14.5t42.5 33.5l25 -19q-19 -42 -53.5 -67t-83.5 -25z" />
    <glyph glyph-name="uni040F" unicode="&#x40f;" horiz-adv-x="682" 
d="M320 -175l-15 175h-205v534q0 45 -12.5 72.5t-57.5 27.5h-15v26h108q35 0 54.5 -11t27.5 -38t8 -77v-491h277v617h113v-660h-206l-15 -175h-62z" />
    <glyph glyph-name="uni0410" unicode="&#x410;" horiz-adv-x="642" 
d="M626 -4q-29 0 -63.5 8.5t-67 36t-55.5 85.5l-24 59h-272l-81 -185h-49l289 660h38l223 -534q20 -49 44.5 -73.5t61.5 -28.5v-23q-8 -2 -20.5 -3.5t-23.5 -1.5zM163 228h233l-114 273z" />
    <glyph glyph-name="uni0411" unicode="&#x411;" horiz-adv-x="624" 
d="M100 0v534q0 45 -12.5 72.5t-57.5 27.5h-15v26h432q35 0 53 -11.5t25 -30t7 -38.5v-81h-26q0 63 -32.5 90.5t-92.5 27.5h-168v-237h98q50 0 100 -7.5t91.5 -27.5t66.5 -57.5t25 -97.5t-25 -97.5t-66.5 -57.5t-91.5 -27.5t-100 -7.5h-211zM296 38q87 0 130.5 36.5
t43.5 115.5t-43.5 115.5t-130.5 36.5q-22 0 -41 -3t-42 -9v-280q16 -5 38 -8.5t45 -3.5z" />
    <glyph glyph-name="uni0412" unicode="&#x412;" horiz-adv-x="635" 
d="M100 0v534q0 45 -12.5 72.5t-57.5 27.5h-15v26h266q44 0 93.5 -5.5t93 -23t71 -52.5t27.5 -94q0 -44 -33 -84t-102 -60q65 -8 101.5 -31t51 -55.5t14.5 -72.5q0 -57 -25 -92.5t-67 -55t-93 -27t-102 -7.5h-211zM296 38q87 0 133 36t46 103q0 68 -45 103.5t-134 35.5h-83
v-266q16 -5 38 -8.5t45 -3.5zM213 359h83q41 0 74.5 13.5t54 42.5t20.5 75q0 49 -25 78t-63 41.5t-78 12.5q-14 0 -30.5 -2t-35.5 -6v-255z" />
    <glyph glyph-name="uni0413" unicode="&#x413;" horiz-adv-x="541" 
d="M100 0v534q0 45 -12.5 72.5t-57.5 27.5h-15v26h424q35 0 53 -11.5t25 -30t7 -38.5v-81h-26q0 63 -32.5 90.5t-92.5 27.5h-160v-617h-113z" />
    <glyph glyph-name="uni0414" unicode="&#x414;" horiz-adv-x="691" 
d="M1 -182v190q0 15 10 25t25 10h37q49 106 67 229t18 262q0 45 -12.5 72.5t-57.5 27.5h-12v26h517v-617h43q15 0 25 -10t10 -25v-190h-48q-8 70 -23.5 110t-40.5 56t-61 16h-324q-36 0 -61 -16t-40.5 -56t-23.5 -110h-48zM163 43h316v574h-236q0 -136 -7.5 -239.5
t-25 -184.5t-47.5 -150z" />
    <glyph glyph-name="uni0415" unicode="&#x415;" horiz-adv-x="596" 
d="M100 0v534q0 45 -12.5 72.5t-57.5 27.5h-15v26h435q35 0 53 -11.5t25 -30t7 -38.5v-81h-26q0 62 -32.5 90t-92.5 28h-171v-254h264v-43h-264v-277h173q60 0 99 24.5t64 87.5l24 -8l-32 -85q-9 -29 -27 -45.5t-55 -16.5h-359z" />
    <glyph glyph-name="uni0416" unicode="&#x416;" horiz-adv-x="973" 
d="M55 -10q-23 0 -38.5 3t-26.5 7v22q32 5 75 34.5t80 73.5l196 240l-146 189q-34 41 -69.5 55.5t-87.5 14.5v31h56q57 0 97 -31.5t73 -73.5l166 -213v318h113v-318l166 213q32 42 72.5 73.5t97.5 31.5h56v-31q-52 0 -88 -14.5t-70 -55.5l-145 -189l196 -240
q37 -44 80 -73.5t74 -34.5v-22q-11 -4 -26.5 -7t-37.5 -3q-34 0 -71 9t-76 36.5t-81 80.5l-147 187v-303h-113v303l-147 -187q-42 -53 -81 -80.5t-75.5 -36.5t-71.5 -9z" />
    <glyph glyph-name="uni0417" unicode="&#x417;" horiz-adv-x="576" 
d="M276 -20q-85 0 -146 31t-106 100l25 21q23 -30 52 -54.5t67 -39.5t87 -15q70 0 116.5 37t46.5 105q0 72 -46.5 111t-132.5 39h-80v43h80q40 0 76.5 15.5t59.5 47.5t23 79q0 48 -21.5 78.5t-53 44.5t-63.5 14q-70 0 -117.5 -44t-66.5 -119h-27q0 45 3 79t22 57
q18 22 49.5 37.5t69 24t72.5 8.5q42 0 86 -6.5t81.5 -25.5t60.5 -54t23 -93q0 -32 -16.5 -63.5t-49.5 -56t-82 -38.5q65 -10 102.5 -35.5t54 -61.5t16.5 -76q0 -56 -24.5 -92.5t-64.5 -58t-86.5 -30.5t-89.5 -9z" />
    <glyph glyph-name="uni0418" unicode="&#x418;" horiz-adv-x="702" 
d="M100 0v534q0 45 -12.5 72.5t-57.5 27.5h-15v26h108q35 0 54.5 -11t27.5 -38t8 -77v-420l302 546h108v-660h-113v546l-303 -546h-107z" />
    <glyph glyph-name="uni0419" unicode="&#x419;" horiz-adv-x="702" 
d="M100 0v534q0 45 -12.5 72.5t-57.5 27.5h-15v26h108q35 0 54.5 -11t27.5 -38t8 -77v-420l302 546h108v-660h-113v546l-303 -546h-107zM363 704q-49 0 -83 25t-53 67l25 19q15 -19 42 -33.5t69 -14.5t69.5 14.5t42.5 33.5l25 -19q-19 -42 -53.5 -67t-83.5 -25z" />
    <glyph glyph-name="uni041A" unicode="&#x41a;" horiz-adv-x="686" 
d="M627 -10q-33 0 -68.5 9t-75.5 35t-88 76l-181 189v-299h-114v534q0 45 -12.5 72.5t-57.5 27.5h-15v26h108q35 0 54.5 -11t28 -38t8.5 -77v-192l188 213q23 27 48 51t56 39t70 15h62v-31q-51 0 -91 -14.5t-77 -55.5l-167 -189l230 -240q26 -27 55.5 -51t58 -39t50.5 -18
v-22q-11 -4 -29 -7t-41 -3z" />
    <glyph glyph-name="uni041B" unicode="&#x41b;" horiz-adv-x="671" 
d="M49 -13q-16 0 -30.5 2.5t-25.5 6.5v29q25 3 49 17t44.5 46t35.5 88.5t23.5 144t8.5 213.5q0 45 -12.5 72.5t-57.5 27.5h-10v26h518v-660h-113v617h-230v-83q0 -131 -10 -225t-28.5 -156.5t-43.5 -99t-55 -51.5t-63 -15z" />
    <glyph glyph-name="uni041C" unicode="&#x41c;" horiz-adv-x="862" 
d="M845 -45q-72 0 -115.5 22.5t-62 70t-18.5 122.5v367l-232 -537h-27l-265 553v-553h-46v660h111l241 -503l217 503h115v-490q0 -91 18.5 -139t63.5 -53v-23z" />
    <glyph glyph-name="uni041D" unicode="&#x41d;" horiz-adv-x="709" 
d="M100 0v534q0 45 -12.5 72.5t-57.5 27.5h-15v26h108q35 0 54.5 -11t27.5 -38t8 -77v-171h282v297h114v-534q0 -45 12.5 -72.5t57.5 -27.5h14v-26h-108q-35 0 -54.5 10.5t-27.5 38t-8 77.5v194h-282v-320h-113z" />
    <glyph glyph-name="uni041E" unicode="&#x41e;" horiz-adv-x="724" 
d="M362 -20q-97 0 -169.5 46.5t-112 125.5t-39.5 178t39.5 178t112 125.5t169.5 46.5q98 0 170 -46.5t112 -125.5t40 -178t-40 -178t-112 -125.5t-170 -46.5zM362 23q64 0 108 36.5t67.5 105.5t23.5 165q0 97 -23.5 165.5t-67.5 105t-108 36.5q-62 0 -106.5 -36.5t-68 -105
t-23.5 -165.5q0 -96 23.5 -165t68 -105.5t106.5 -36.5z" />
    <glyph glyph-name="uni041F" unicode="&#x41f;" horiz-adv-x="682" 
d="M100 0v534q0 45 -12.5 72.5t-57.5 27.5h-15v26h588v-660h-113v617h-277v-617h-113z" />
    <glyph glyph-name="uni0420" unicode="&#x420;" horiz-adv-x="567" 
d="M100 0v534q0 45 -12.5 72.5t-57.5 27.5h-15v26h269q27 0 61 -3.5t69 -14.5t65 -33t48.5 -58.5t18.5 -91.5q0 -51 -18 -85.5t-47 -55.5t-60.5 -32t-60 -14.5t-46.5 -3.5h-101v-268h-113zM213 306h66q24 0 49 7.5t46.5 26t34.5 49t13 75.5q0 46 -13 76.5t-34.5 48.5
t-45.5 25.5t-47 7.5q-14 0 -31.5 -2t-37.5 -6v-308z" />
    <glyph glyph-name="uni0421" unicode="&#x421;" horiz-adv-x="673" 
d="M362 -20q-101 0 -173.5 45t-110.5 122.5t-38 172.5q0 76 24 141.5t68.5 114.5t103 76.5t126.5 27.5q89 0 147.5 -24t86.5 -57q19 -24 22 -65t3 -86h-26q-19 94 -69.5 141.5t-133.5 47.5q-63 0 -115 -29t-83 -98t-31 -190q0 -57 13 -110t40.5 -95.5t70.5 -67t105 -24.5
q71 0 128 36.5t95 105.5l29 -22q-47 -88 -115.5 -125.5t-166.5 -37.5z" />
    <glyph glyph-name="uni0422" unicode="&#x422;" horiz-adv-x="578" 
d="M242 0v617h-79q-56 0 -87.5 -27t-31.5 -91h-26v81q0 20 7 38.5t25.5 30t52.5 11.5h468v-43h-216v-617h-113z" />
    <glyph glyph-name="uni0423" unicode="&#x423;" horiz-adv-x="613" 
d="M138 -10v34q30 0 59.5 5.5t53.5 21t36 44.5l9 19l-197 416q-13 30 -30 54t-41 39t-58 17v20h108q36 0 64 -15t48.5 -40t33.5 -55l137 -289l178 399h63l-252 -565q-21 -49 -61.5 -77t-100.5 -28h-50z" />
    <glyph glyph-name="uni0424" unicode="&#x424;" horiz-adv-x="804" 
d="M346 -36v71q-157 0 -236.5 76.5t-79.5 203.5q0 128 79.5 204t236.5 76q0 22 -6 39t-21 26.5t-43 9.5h-15v26h108q53 0 71.5 -22t18.5 -79q158 0 237 -76t79 -204q0 -127 -79 -203.5t-237 -76.5v-71h-113zM346 78v474q-69 0 -111.5 -32t-62 -85.5t-19.5 -119.5
t19.5 -119.5t62 -85.5t111.5 -32zM459 78q68 0 110.5 32t62 85.5t19.5 119.5t-19.5 119.5t-62 85.5t-110.5 32v-474z" />
    <glyph glyph-name="uni0425" unicode="&#x425;" horiz-adv-x="655" 
d="M27 0l247 317l-141 213q-16 26 -38 50.5t-48 41t-58 18.5v20h114q36 0 64 -17t50.5 -42t38.5 -51l93 -141l196 251h58l-227 -291l158 -239q17 -26 39 -50.5t48 -40.5t52 -19v-20h-108q-35 0 -64 17t-51.5 42.5t-38.5 50.5l-109 166l-216 -276h-59z" />
    <glyph glyph-name="uni0426" unicode="&#x426;" horiz-adv-x="701" 
d="M633 -183q-8 71 -23.5 111t-40 56t-61.5 16h-408v534q0 45 -12.5 72.5t-57.5 27.5h-15v26h108q35 0 54.5 -11t27.5 -38t8 -77v-491h277v617h113v-617h43q15 0 25 -10t10 -25v-191h-48z" />
    <glyph glyph-name="uni0427" unicode="&#x427;" horiz-adv-x="654" 
d="M461 0v264q-24 -11 -61 -15.5t-70 -4.5q-57 0 -102.5 11t-78.5 35.5t-50.5 66.5t-17.5 103v74q0 45 -12.5 72.5t-57.5 27.5h-10v26h108q35 0 54.5 -11t27.5 -38t8 -77v-84q0 -59 17.5 -95t50 -52t76.5 -16q30 0 62 5t56 15v353h114v-660h-114z" />
    <glyph glyph-name="uni0428" unicode="&#x428;" horiz-adv-x="942" 
d="M100 0v534q0 45 -12.5 72.5t-57.5 27.5h-15v26h108q35 0 54.5 -11t27.5 -38t8 -77v-491h212v617h113v-617h212v617h113v-660h-763z" />
    <glyph glyph-name="uni0429" unicode="&#x429;" horiz-adv-x="961" 
d="M893 -183q-8 71 -23.5 111t-40 56t-61.5 16h-668v534q0 45 -12.5 72.5t-57.5 27.5h-15v26h108q35 0 54.5 -11t27.5 -38t8 -77v-491h212v617h113v-617h212v617h113v-617h43q15 0 25 -10t10 -25v-191h-48z" />
    <glyph glyph-name="uni042A" unicode="&#x42a;" horiz-adv-x="715" 
d="M200 0v617h-19q-60 0 -87.5 -34.5t-31.5 -118.5h-36v161q0 15 10 25t25 10h252v-274h99q50 0 99.5 -8t91 -29.5t66.5 -59t25 -96.5t-25 -96.5t-66.5 -59t-91 -29.5t-99.5 -8h-212zM397 38q87 0 130.5 39t43.5 116t-43.5 116t-130.5 39q-23 0 -42 -3t-42 -9v-286
q16 -5 38 -8.5t46 -3.5z" />
    <glyph glyph-name="uni042B" unicode="&#x42b;" horiz-adv-x="869" 
d="M100 0v534q0 45 -12.5 72.5t-57.5 27.5h-15v26h108q35 0 54.5 -11t27.5 -38t8 -77v-148h92q48 0 96.5 -8t89.5 -29.5t66 -59t25 -96.5t-25 -96.5t-66 -59t-89.5 -29.5t-96.5 -8h-205zM290 38q83 0 125.5 39t42.5 116t-42.5 116t-125.5 39q-18 0 -36.5 -3t-40.5 -9v-286
q15 -6 37.5 -9t39.5 -3zM745 0q-35 0 -54.5 10.5t-27.5 38t-8 77.5v534h114v-534q0 -45 12.5 -72.5t57.5 -27.5h14v-26h-108z" />
    <glyph glyph-name="uni042C" unicode="&#x42c;" horiz-adv-x="614" 
d="M100 0v534q0 45 -12.5 72.5t-57.5 27.5h-15v26h108q35 0 54.5 -11t27.5 -38t8 -77v-148h98q50 0 100 -8t91.5 -29.5t66.5 -59t25 -96.5t-25 -96.5t-66.5 -59t-91.5 -29.5t-100 -8h-211zM296 38q87 0 130.5 39t43.5 116t-43.5 116t-130.5 39q-22 0 -41 -3t-42 -9v-286
q16 -5 38 -8.5t45 -3.5z" />
    <glyph glyph-name="uni042D" unicode="&#x42d;" horiz-adv-x="674" 
d="M312 -20q-99 0 -167 37.5t-116 125.5l29 22q38 -69 95 -105.5t129 -36.5q59 0 102 24t70 64.5t41 92t15 106.5h-319v43h318q-4 108 -36 170t-82 88t-109 26q-83 0 -134 -47.5t-70 -141.5h-26q0 45 3 86t23 65q27 33 85.5 57t148.5 24q68 0 126.5 -27.5t102.5 -76.5
t68.5 -114.5t24.5 -141.5q0 -95 -38.5 -172.5t-110.5 -122.5t-173 -45z" />
    <glyph glyph-name="uni042E" unicode="&#x42e;" horiz-adv-x="899" 
d="M566 -20q-81 0 -146.5 42.5t-104 119.5t-41.5 178h-61v-320h-113v534q0 45 -12.5 72.5t-57.5 27.5h-15v26h108q35 0 54.5 -11t27.5 -38t8 -77v-171h62q8 96 47.5 167t102.5 110.5t141 39.5q83 0 148.5 -44t104 -122.5t38.5 -183.5q0 -104 -38.5 -183t-104 -123
t-148.5 -44zM566 23q48 0 86 35t60.5 103t22.5 169t-22.5 169t-60.5 103t-86 35t-86 -35t-60 -103t-22 -169t22 -169t60 -103t86 -35z" />
    <glyph glyph-name="uni042F" unicode="&#x42f;" horiz-adv-x="619" 
d="M76 -14q-18 0 -37 3.5t-28 7.5v22q29 5 58 26.5t60 71.5l99 163q-35 8 -71 29.5t-60 58.5t-24 93q0 51 17.5 86t46.5 57t63.5 34.5t70 17t64.5 4.5h266v-26h-10q-45 0 -57.5 -27.5t-12.5 -72.5v-534h-115v271h-65l-97 -162q-42 -70 -81.5 -96.5t-86.5 -26.5zM340 309
q14 0 34.5 1.5t31.5 2.5v301q-21 4 -38.5 6t-30.5 2q-21 0 -45.5 -9t-46 -28t-35 -48.5t-13.5 -70.5q0 -42 13.5 -72t35.5 -49t46.5 -27.5t47.5 -8.5z" />
    <glyph glyph-name="uni0430" unicode="&#x430;" horiz-adv-x="490" 
d="M193 -10q-34 0 -62.5 8.5t-50.5 25.5t-34.5 43t-12.5 60q0 51 28 83t86.5 47.5t149.5 15.5h21q0 64 -12 99.5t-34.5 50t-52.5 14.5q-37 0 -65 -17.5t-39 -70.5h-51q0 26 3.5 51t21.5 45t60.5 27.5t89.5 7.5q43 0 78.5 -11t61 -35t39.5 -64.5t14 -99.5v-270h-71l-35 45h-5
q-14 -20 -46 -37.5t-82 -17.5zM229 38q35 0 56.5 20.5t32.5 42.5v129h-21q-73 0 -109 -26.5t-36 -76.5q0 -45 22 -67t55 -22z" />
    <glyph glyph-name="uni0431" unicode="&#x431;" horiz-adv-x="538" 
d="M273 -10q-66 0 -116 27t-78 82t-28 137v34q0 94 10.5 155.5t31.5 98t51.5 56t69.5 28.5l144 33q39 9 61 19t26 29h26v-74q0 -19 -10 -34.5t-38 -22.5l-169 -38q-41 -10 -72.5 -33t-50.5 -66.5t-23 -114.5h5q21 66 64 100t116 34q56 0 102 -24t73 -73.5t27 -127.5
q0 -77 -28 -127t-78 -74t-116 -24zM273 33q24 0 47.5 15.5t39.5 55t16 111.5q0 70 -16 109.5t-39.5 56t-47.5 16.5t-47.5 -16.5t-39.5 -56t-16 -109.5q0 -72 16 -111.5t39.5 -55t47.5 -15.5z" />
    <glyph glyph-name="uni0432" unicode="&#x432;" horiz-adv-x="515" 
d="M77 0v344q0 45 -12.5 72.5t-57.5 27.5h-7v26h259q56 0 100.5 -12.5t70.5 -39t26 -68.5q0 -44 -29.5 -70t-86.5 -35q61 -9 98.5 -38.5t37.5 -76.5t-26.5 -76t-75.5 -41.5t-115 -12.5h-182zM244 38q51 0 82 22.5t31 69.5q0 48 -32 71.5t-91 23.5h-43v-179q11 -4 26.5 -6
t26.5 -2zM191 268h43q44 0 73.5 21t29.5 61q0 42 -28.5 62t-64.5 20q-11 0 -26.5 -2t-26.5 -6v-156z" />
    <glyph glyph-name="uni0433" unicode="&#x433;" horiz-adv-x="438" 
d="M77 0v344q0 45 -12.5 72.5t-57.5 27.5h-7v26h339q45 0 60 -25t15 -55v-66h-26q0 54 -27 78.5t-72 24.5h-98v-427h-114z" />
    <glyph glyph-name="uni0434" unicode="&#x434;" horiz-adv-x="578" 
d="M12 -158v166q0 15 10 25t25 10h33q23 50 36 103.5t18.5 106t5.5 97.5q0 41 -12.5 67.5t-60.5 26.5v26h427v-427h34q15 0 25 -10t10 -25v-166h-46q-5 62 -18.5 96.5t-36 48t-54.5 13.5h-241q-32 0 -54.5 -13.5t-35.5 -48t-19 -96.5h-46zM170 43h210v384h-155
q0 -128 -12.5 -218.5t-42.5 -165.5z" />
    <glyph glyph-name="uni0435" unicode="&#x435;" horiz-adv-x="500" 
d="M262 -10q-70 0 -119.5 32.5t-76 88t-26.5 124.5q0 75 27 130t75 85t110 30q65 0 112.5 -25t73.5 -72t26 -111l-3 -54h-302q0 -92 32.5 -138.5t87.5 -46.5q51 0 83.5 22.5t58.5 59.5l26 -20q-17 -29 -42 -52.5t-60 -38t-83 -14.5zM159 261h186q0 94 -24.5 135t-68.5 41
q-25 0 -46 -19t-34 -58t-13 -99z" />
    <glyph glyph-name="uni0436" unicode="&#x436;" horiz-adv-x="718" 
d="M65 -10q-17 0 -35 3t-26 7v22q26 5 51 23.5t51 54.5l116 163l-91 133q-17 26 -42.5 37t-55.5 11v26h22q52 0 83 -18.5t56 -53.5l108 -159v231h114v-231l108 159q25 35 56 53.5t83 18.5h22v-26q-30 0 -55.5 -11t-42.5 -37l-91 -133l116 -163q25 -36 50.5 -54.5t51.5 -23.5
v-22q-8 -4 -26 -7t-35 -3q-41 0 -76 19.5t-67 66.5l-94 132v-208h-114v208l-94 -132q-33 -47 -68 -66.5t-75 -19.5z" />
    <glyph glyph-name="uni0437" unicode="&#x437;" horiz-adv-x="458" 
d="M213 -10q-69 0 -112 23t-69 57l26 21q16 -19 46 -38.5t83 -19.5q52 0 83 21.5t31 70.5q0 47 -29.5 71t-99.5 24h-47v43h47q60 0 87 21t27 66t-28.5 66t-65.5 21q-49 0 -82.5 -29.5t-36.5 -78.5h-26q0 42 3 69.5t22 46.5t56.5 27t83.5 8q54 0 97.5 -13t69 -41.5
t25.5 -75.5q0 -45 -30.5 -73t-81.5 -37q59 -9 93 -39.5t34 -75.5q0 -50 -26.5 -79.5t-72.5 -42.5t-107 -13z" />
    <glyph glyph-name="uni0438" unicode="&#x438;" horiz-adv-x="560" 
d="M82 0v344q0 45 -12.5 72.5t-57.5 27.5h-12v26h105q35 0 54.5 -11t27.5 -38t8 -77v-233l193 359h107v-470h-113v359l-192 -359h-108z" />
    <glyph glyph-name="uni0439" unicode="&#x439;" horiz-adv-x="560" 
d="M82 0v344q0 45 -12.5 72.5t-57.5 27.5h-12v26h105q35 0 54.5 -11t27.5 -38t8 -77v-233l193 359h107v-470h-113v359l-192 -359h-108zM283 515q-49 0 -83 24.5t-53 63.5l25 18q16 -19 42.5 -32.5t68.5 -13.5t68.5 13.5t43.5 32.5l25 -18q-19 -39 -53.5 -63.5t-83.5 -24.5z
" />
    <glyph glyph-name="uni043A" unicode="&#x43a;" horiz-adv-x="513" 
d="M448 -10q-41 0 -77.5 18t-70.5 62l-103 134v-204h-114v344q0 45 -12.5 72.5t-57.5 27.5h-14v26h108q35 0 54.5 -11t27.5 -38t8 -77v-105l122 159q28 34 57.5 53t81.5 19h22v-26q-27 0 -51 -11t-45 -37l-103 -133l126 -163q26 -35 51 -54t51 -24v-22q-8 -4 -26 -7t-35 -3z
" />
    <glyph glyph-name="uni043B" unicode="&#x43b;" horiz-adv-x="558" 
d="M63 -13q-13 0 -30.5 3t-25.5 6v27q25 3 48 17t41 49t28.5 98.5t10.5 162.5q0 41 -13 67.5t-60 26.5v26h431v-470h-113v427h-155v-77q0 -106 -12.5 -176t-35 -111t-51.5 -58.5t-63 -17.5z" />
    <glyph glyph-name="uni043C" unicode="&#x43c;" horiz-adv-x="659" 
d="M651 -23q-103 0 -145.5 47.5t-42.5 137.5v191l-152 -353h-28l-172 363v-362h-46v469h111l149 -313l138 319h114v-314q0 -48 8 -83.5t24.5 -55.5t41.5 -23v-23z" />
    <glyph glyph-name="uni043D" unicode="&#x43d;" horiz-adv-x="568" 
d="M82 0v344q0 45 -12.5 72.5t-57.5 27.5h-12v26h105q35 0 54.5 -11t27.5 -38t8 -77v-86h177v212h113v-344q0 -45 12.5 -72.5t57.5 -27.5h13v-26h-106q-35 0 -54.5 10.5t-27.5 38t-8 77.5v89h-177v-215h-113z" />
    <glyph glyph-name="uni043E" unicode="&#x43e;" horiz-adv-x="543" 
d="M271 -10q-72 0 -124 32.5t-79.5 88.5t-27.5 124q0 69 27.5 124.5t79.5 88t124 32.5q73 0 125 -32.5t79.5 -88t27.5 -124.5q0 -68 -27.5 -124t-79.5 -88.5t-125 -32.5zM271 33q37 0 62 26.5t38.5 72.5t13.5 103q0 58 -13.5 103.5t-38.5 72t-62 26.5q-35 0 -60.5 -26.5
t-39 -72t-13.5 -103.5q0 -57 13.5 -103t39 -72.5t60.5 -26.5z" />
    <glyph glyph-name="uni043F" unicode="&#x43f;" horiz-adv-x="546" 
d="M77 0v344q0 45 -12.5 72.5t-57.5 27.5h-7v26h481v-470h-114v427h-176v-427h-114z" />
    </font>
</defs>
</svg>
