<svg xmlns="http://www.w3.org/2000/svg" width="36.025" height="26.603" viewBox="0 0 36.025 26.603">
  <g id="Group_16093" data-name="Group 16093" transform="translate(-604.393 -175.487) rotate(-21)">
    <path id="Path_46208" data-name="Path 46208" d="M657.209,533.2a4,4,0,0,1,4.136,3.853v.187a3.5,3.5,0,0,0-1.866-4.66,4,4,0,0,0-5.159,1.683h.037A4.279,4.279,0,0,1,657.209,533.2Z" transform="translate(-129.538 -139.985)" fill="#ff002a" fill-rule="evenodd"/>
    <path id="Path_46209" data-name="Path 46209" d="M614.719,538.374a.7.7,0,0,1,.733.734,13,13,0,0,1-1.291,4.939,12.37,12.37,0,0,1-.645,1.169,11.285,11.285,0,0,1-.686,1.019c-.1.129-.2.26-.3.389l-.213.26a13.984,13.984,0,0,1-1.184,1.239,15.3,15.3,0,0,1-10.457,4.033,15.765,15.765,0,0,1-4.74-.733l-.675-.235a14.487,14.487,0,0,1-6.226-4.3c-.216-.26-.429-.528-.631-.8-.066-.092-.136-.183-.2-.275a13.747,13.747,0,0,1-1.305-2.379,13,13,0,0,1-1.008-4.327.712.712,0,0,1,.733-.734h0a.734.734,0,0,1,.733.6c.565,4.4,7.245,7.934,12.294,8.378.367.026.7.044,1.034.044a12.625,12.625,0,0,0,1.551-.1c4.961-.631,11.212-4.073,11.766-8.33a.712.712,0,0,1,.733-.6Z" transform="translate(-86.197 -143.876)" fill="#ff002a" fill-rule="evenodd"/>
    <path id="Path_46210" data-name="Path 46210" d="M582.523,533.2a4,4,0,0,0-4.136,3.854v.187a3.5,3.5,0,0,1,1.87-4.66,4,4,0,0,1,5.155,1.683h-.037A4.278,4.278,0,0,0,582.523,533.2Z" transform="translate(-81.254 -139.988)" fill="#ff002a" fill-rule="evenodd"/>
  </g>
</svg>
