<svg xmlns="http://www.w3.org/2000/svg" width="209.33" height="67.643" viewBox="0 0 209.33 67.643">
  <g id="Group_14858" data-name="Group 14858" transform="translate(-217.343 -383.77)">
    <path id="Path_44777" data-name="Path 44777" d="M318.172,1200.727a3.423,3.423,0,0,0-4.276,3.431v19.552c0,6.366-10.223,6.7-10.223-.114v-19.666c0-4.607-7.037-4.664-7.037,0v19.77c0,6.3-10.22,6.852-10.22-.2V1204.3c0-4.648-7.037-4.862-7.037,0v20.379a9.778,9.778,0,0,0,9.744,9.8h22.061a9.781,9.781,0,0,0,9.768-9.8v-20.775A3.2,3.2,0,0,0,318.172,1200.727Z" transform="translate(-4.806 -800.033)" fill="#fff" fill-rule="evenodd"/>
    <path id="Path_44778" data-name="Path 44778" d="M432.274,1200.8a15.47,15.47,0,0,0-15.444,15.48v14.589a3.5,3.5,0,0,0,3.495,3.5h.151a3.492,3.492,0,0,0,3.485-3.495v-14.341a8.46,8.46,0,0,1,6.45-8.377,8.337,8.337,0,0,1,10.176,8.119v14.6a3.488,3.488,0,0,0,3.485,3.495,3.652,3.652,0,0,0,3.642-3.642v-14.455a15.467,15.467,0,0,0-15.44-15.481Z" transform="translate(-96.2 -800.263)" fill="#fff" fill-rule="evenodd"/>
    <path id="Path_44779" data-name="Path 44779" d="M666.449,1215.681a16.844,16.844,0,1,1-16.854-16.9,16.844,16.844,0,0,1,16.854,16.9Zm-16.854-10.461a10.464,10.464,0,1,0,10.431,10.464A10.465,10.465,0,0,0,649.595,1205.22Z" transform="translate(-239.777 -798.92)" fill="#fff" fill-rule="evenodd"/>
    <path id="Path_44780" data-name="Path 44780" d="M281.746,1325.554a.59.59,0,0,1-.178-.456v-7.208a.6.6,0,0,1,.178-.459.779.779,0,0,1,.965.007.593.593,0,0,1,.181.452v2.972h4.517v-2.969a.593.593,0,0,1,.181-.452.67.67,0,0,1,.486-.171.694.694,0,0,1,.486.164.589.589,0,0,1,.181.459v7.208a.58.58,0,0,1-.181.456.794.794,0,0,1-.972,0,.593.593,0,0,1-.181-.452v-3.193h-4.517v3.193a.593.593,0,0,1-.174.449.7.7,0,0,1-.486.167A.67.67,0,0,1,281.746,1325.554Z" transform="translate(-6.26 -877.704)" fill="#fff"/>
    <path id="Path_44781" data-name="Path 44781" d="M307.2,1330.087a1.7,1.7,0,0,1-.67-1.411,1.629,1.629,0,0,1,.707-1.384,3.177,3.177,0,0,1,1.913-.516,2.8,2.8,0,0,1,1.826.539v-.446a1.113,1.113,0,0,0-.369-.9,1.636,1.636,0,0,0-1.082-.312,3.232,3.232,0,0,0-1.732.446.915.915,0,0,1-.446.141.523.523,0,0,1-.385-.188.446.446,0,0,1-.117-.3.513.513,0,0,1,.248-.446,3.159,3.159,0,0,1,1.062-.5,4.954,4.954,0,0,1,1.34-.181,3.234,3.234,0,0,1,2.071.6,2.01,2.01,0,0,1,.747,1.655v3.146a.543.543,0,0,1-.174.429.67.67,0,0,1-.479.157.694.694,0,0,1-.476-.151.543.543,0,0,1-.168-.422v-.224a2.56,2.56,0,0,1-2.047.8,2.791,2.791,0,0,1-1.769-.526Zm3.324-.7a.8.8,0,0,0,.466-.72.781.781,0,0,0-.456-.7,2.53,2.53,0,0,0-1.253-.258,1.873,1.873,0,0,0-1.069.258.875.875,0,0,0,0,1.438,1.866,1.866,0,0,0,1.059.251,2.555,2.555,0,0,0,1.253-.265Z" transform="translate(-22.857 -882.596)" fill="#fff"/>
    <path id="Path_44782" data-name="Path 44782" d="M327.589,1333.846a.607.607,0,0,1-.171-.459v-8.136a.6.6,0,0,1,.171-.456.644.644,0,0,1,.472-.164.67.67,0,0,1,.479.168.6.6,0,0,1,.178.452v.412a3.208,3.208,0,0,1,1.062-.781,3.273,3.273,0,0,1,1.324-.251,3.015,3.015,0,0,1,2.2.791,2.908,2.908,0,0,1,.818,2.185,3.27,3.27,0,0,1-.372,1.595,2.584,2.584,0,0,1-1.066,1.046,3.465,3.465,0,0,1-1.629.362,3.327,3.327,0,0,1-1.3-.238,3.013,3.013,0,0,1-1.042-.771v3.78a.593.593,0,0,1-.181.452.67.67,0,0,1-.486.171A.644.644,0,0,1,327.589,1333.846Zm4.691-4.8a1.936,1.936,0,0,0,.523-1.444,1.883,1.883,0,0,0-.516-1.414,2.01,2.01,0,0,0-1.461-.5,2.241,2.241,0,0,0-1.558.509,2.057,2.057,0,0,0,0,2.835,2.175,2.175,0,0,0,1.545.529,1.967,1.967,0,0,0,1.491-.516Z" transform="translate(-36.747 -882.598)" fill="#fff"/>
    <path id="Path_44783" data-name="Path 44783" d="M350.845,1333.846a.606.606,0,0,1-.168-.459v-8.136a.6.6,0,0,1,.168-.456.771.771,0,0,1,.955,0,.6.6,0,0,1,.174.452v.412a3.361,3.361,0,0,1,4.6-.235,2.912,2.912,0,0,1,.821,2.185,3.233,3.233,0,0,1-.375,1.595,2.543,2.543,0,0,1-1.066,1.045,3.451,3.451,0,0,1-1.625.362,3.351,3.351,0,0,1-1.3-.238,3.039,3.039,0,0,1-1.039-.771v3.78a.593.593,0,0,1-.181.452.686.686,0,0,1-.486.171A.67.67,0,0,1,350.845,1333.846Zm4.691-4.8a1.95,1.95,0,0,0,.519-1.444,1.883,1.883,0,0,0-.513-1.414,2.011,2.011,0,0,0-1.464-.5,2.235,2.235,0,0,0-1.555.509,2.054,2.054,0,0,0,0,2.835,2.177,2.177,0,0,0,1.545.529,1.98,1.98,0,0,0,1.481-.516Z" transform="translate(-52.212 -882.599)" fill="#fff"/>
    <path id="Path_44784" data-name="Path 44784" d="M374.811,1333.21a2.3,2.3,0,0,1-1.045-.72.614.614,0,0,1-.127-.335.583.583,0,0,1,.245-.459.563.563,0,0,1,.335-.1.694.694,0,0,1,.526.268,1.657,1.657,0,0,0,.67.436,2.683,2.683,0,0,0,.918.151,1.856,1.856,0,0,0,1.391-.5,1.97,1.97,0,0,0,.493-1.434v-.6a2.194,2.194,0,0,1-.784.54,2.52,2.52,0,0,1-.982.2,3.1,3.1,0,0,1-2.265-.791,2.946,2.946,0,0,1-.814-2.212v-2.372a.55.55,0,0,1,.188-.419.7.7,0,0,1,.479-.167.67.67,0,0,1,.456.167.54.54,0,0,1,.188.419v2.372a2.121,2.121,0,0,0,.469,1.461,1.652,1.652,0,0,0,1.3.523,1.588,1.588,0,0,0,1.257-.513,2.088,2.088,0,0,0,.449-1.437v-2.289a.724.724,0,0,1,.178-.516.737.737,0,0,1,.982,0,.723.723,0,0,1,.178.516v4.966a2.9,2.9,0,0,1-3.126,3.133,4.323,4.323,0,0,1-1.555-.281Z" transform="translate(-67.299 -882.639)" fill="#fff"/>
    <path id="Path_44785" data-name="Path 44785" d="M406.326,1325.326a4.6,4.6,0,0,1-1.655-1.082.442.442,0,0,1-.151-.335.573.573,0,0,1,.211-.436.469.469,0,0,1,.335-.151.741.741,0,0,1,.5.245,3.553,3.553,0,0,0,1.27.794,4.548,4.548,0,0,0,1.6.275,2.474,2.474,0,0,0,1.34-.3.969.969,0,0,0,.472-.858,1,1,0,0,0-.493-.875,5.152,5.152,0,0,0-1.675-.593,6.111,6.111,0,0,1-2.526-1.005,1.923,1.923,0,0,1-.784-1.588,1.733,1.733,0,0,1,.4-1.129,2.565,2.565,0,0,1,1.136-.761,5.361,5.361,0,0,1,3.626.094,2.641,2.641,0,0,1,1.27,1.005.671.671,0,0,1,.117.362.509.509,0,0,1-.258.436.556.556,0,0,1-.3.094.623.623,0,0,1-.281-.07.716.716,0,0,1-.235-.188,2.164,2.164,0,0,0-.932-.67,3.437,3.437,0,0,0-1.314-.241,2.876,2.876,0,0,0-1.4.278.875.875,0,0,0-.486.8.935.935,0,0,0,.469.8,5.49,5.49,0,0,0,1.649.58,6.716,6.716,0,0,1,2.577,1.045,1.97,1.97,0,0,1,.784,1.618,1.88,1.88,0,0,1-.392,1.179,2.472,2.472,0,0,1-1.106.787,4.6,4.6,0,0,1-1.675.275A5.75,5.75,0,0,1,406.326,1325.326Z" transform="translate(-88.014 -877.694)" fill="#fff"/>
    <path id="Path_44786" data-name="Path 44786" d="M429.416,1324.411a.59.59,0,0,1-.178-.456v-7.784a.6.6,0,0,1,.178-.459.781.781,0,0,1,.958,0,.6.6,0,0,1,.174.459v3.5a2.761,2.761,0,0,1,2.282-1.079,2.275,2.275,0,0,1,1.749.67,2.63,2.63,0,0,1,.637,1.876v2.808a.58.58,0,0,1-.181.456.781.781,0,0,1-.958,0,.6.6,0,0,1-.171-.456v-2.808a1.615,1.615,0,0,0-.335-1.112,1.277,1.277,0,0,0-1.005-.389,1.964,1.964,0,0,0-1.474.556,2.084,2.084,0,0,0-.539,1.511v2.242a.593.593,0,0,1-.181.452.789.789,0,0,1-.955.013Z" transform="translate(-104.45 -876.561)" fill="#fff"/>
    <path id="Path_44787" data-name="Path 44787" d="M451.242,1330.246a2.829,2.829,0,0,1-1.19-1.062,3.12,3.12,0,0,1,0-3.1,2.784,2.784,0,0,1,1.19-1.062,4.382,4.382,0,0,1,3.579,0,2.784,2.784,0,0,1,1.19,1.062,3.1,3.1,0,0,1,0,3.1,2.828,2.828,0,0,1-1.19,1.062A4.416,4.416,0,0,1,451.242,1330.246Zm3.3-1.193a2.084,2.084,0,0,0,0-2.841,2.476,2.476,0,0,0-3.016,0,2.091,2.091,0,0,0,0,2.841,2.476,2.476,0,0,0,3.016,0Z" transform="translate(-118.016 -882.607)" fill="#fff"/>
    <path id="Path_44788" data-name="Path 44788" d="M473.3,1333.846a.606.606,0,0,1-.171-.459v-8.136a.6.6,0,0,1,.171-.456.65.65,0,0,1,.472-.164.67.67,0,0,1,.483.168.6.6,0,0,1,.174.452v.412a3.361,3.361,0,0,1,4.6-.234,2.912,2.912,0,0,1,.821,2.185,3.234,3.234,0,0,1-.375,1.595,2.563,2.563,0,0,1-1.066,1.045,3.451,3.451,0,0,1-1.625.362,3.349,3.349,0,0,1-1.3-.238,3.038,3.038,0,0,1-1.039-.771v3.78a.6.6,0,0,1-.184.452.67.67,0,0,1-.486.171.65.65,0,0,1-.472-.164Zm4.691-4.8a1.95,1.95,0,0,0,.519-1.444,1.869,1.869,0,0,0-.516-1.414,2.01,2.01,0,0,0-1.461-.5,2.228,2.228,0,0,0-1.555.509,2.054,2.054,0,0,0,0,2.835,2.177,2.177,0,0,0,1.545.529,1.98,1.98,0,0,0,1.481-.516Z" transform="translate(-133.633 -882.598)" fill="#fff"/>
    <path id="Path_44789" data-name="Path 44789" d="M496.559,1333.845a.607.607,0,0,1-.171-.459v-8.136a.6.6,0,0,1,.171-.456.644.644,0,0,1,.472-.164.669.669,0,0,1,.479.167.6.6,0,0,1,.178.452v.412a3.208,3.208,0,0,1,1.062-.781,3.283,3.283,0,0,1,1.324-.251,3.016,3.016,0,0,1,2.215.791,2.908,2.908,0,0,1,.818,2.185,3.27,3.27,0,0,1-.372,1.595,2.584,2.584,0,0,1-1.066,1.046,3.465,3.465,0,0,1-1.628.362,3.328,3.328,0,0,1-1.3-.238,3.049,3.049,0,0,1-1.042-.771v3.78a.593.593,0,0,1-.181.452.67.67,0,0,1-.486.171A.643.643,0,0,1,496.559,1333.845Zm4.691-4.8a1.936,1.936,0,0,0,.523-1.444,1.869,1.869,0,0,0-.516-1.414,2.01,2.01,0,0,0-1.461-.5,2.241,2.241,0,0,0-1.558.509,2.057,2.057,0,0,0,0,2.835,2.174,2.174,0,0,0,1.545.529,1.967,1.967,0,0,0,1.478-.516Z" transform="translate(-149.099 -882.597)" fill="#fff"/>
    <path id="Path_44790" data-name="Path 44790" d="M519.889,1318.643a.774.774,0,0,1,0-1.116.885.885,0,0,1,.613-.218.9.9,0,0,1,.62.218.751.751,0,0,1,0,1.116.9.9,0,0,1-.62.218A.885.885,0,0,1,519.889,1318.643Zm.141,6.943a.6.6,0,0,1-.171-.456v-4.745a.6.6,0,0,1,.171-.456.651.651,0,0,1,.472-.164.687.687,0,0,1,.486.164.583.583,0,0,1,.184.456v4.745a.583.583,0,0,1-.184.456.687.687,0,0,1-.486.164.65.65,0,0,1-.472-.167Z" transform="translate(-164.568 -877.732)" fill="#fff"/>
    <path id="Path_44791" data-name="Path 44791" d="M528.722,1330.443a.59.59,0,0,1-.174-.456v-4.745a.6.6,0,0,1,.171-.456.623.623,0,0,1,.462-.164.651.651,0,0,1,.472.164.6.6,0,0,1,.171.456v.459a2.811,2.811,0,0,1,2.315-1.079,2.275,2.275,0,0,1,1.749.67,2.63,2.63,0,0,1,.637,1.876v2.808a.58.58,0,0,1-.181.456.687.687,0,0,1-.486.164.65.65,0,0,1-.469-.154.6.6,0,0,1-.171-.456v-2.808a1.6,1.6,0,0,0-.352-1.112,1.267,1.267,0,0,0-1.005-.389,1.96,1.96,0,0,0-1.474.556,2.084,2.084,0,0,0-.539,1.511v2.242a.593.593,0,0,1-.181.452.771.771,0,0,1-.955,0Z" transform="translate(-170.483 -882.593)" fill="#fff"/>
    <path id="Path_44792" data-name="Path 44792" d="M551.261,1333.219a2.721,2.721,0,0,1-1.156-.727.5.5,0,0,1-.141-.335.526.526,0,0,1,.245-.446.513.513,0,0,1,.335-.117.838.838,0,0,1,.56.281,1.886,1.886,0,0,0,.727.439,2.858,2.858,0,0,0,.982.157,2.044,2.044,0,0,0,1.535-.55,2.1,2.1,0,0,0,.526-1.551v-.67a2.855,2.855,0,0,1-2.346,1.005,3.069,3.069,0,0,1-2.258-.8,2.925,2.925,0,0,1-.807-2.181,2.983,2.983,0,0,1,.824-2.215,3.164,3.164,0,0,1,2.322-.814,2.973,2.973,0,0,1,1.243.268,3.207,3.207,0,0,1,1.029.764v-.412a.593.593,0,0,1,.181-.452.67.67,0,0,1,.472-.168.65.65,0,0,1,.469.164.59.59,0,0,1,.174.456v5.06a3.285,3.285,0,0,1-.4,1.629,2.748,2.748,0,0,1-1.143,1.1,3.665,3.665,0,0,1-1.736.392A4.855,4.855,0,0,1,551.261,1333.219Zm3.016-4.108a1.789,1.789,0,0,0,.583-1.431,1.866,1.866,0,0,0-.549-1.421,2.121,2.121,0,0,0-1.531-.529,2.011,2.011,0,0,0-1.474.516,1.947,1.947,0,0,0-.526,1.458,1.886,1.886,0,0,0,.513,1.407,2.01,2.01,0,0,0,1.464.506,2.258,2.258,0,0,0,1.515-.506Z" transform="translate(-184.386 -882.641)" fill="#fff"/>
    <path id="Path_44793" data-name="Path 44793" d="M656.96,1306.278a3.656,3.656,0,0,1,3.78,3.522v.171a3.2,3.2,0,0,0-1.706-4.262,3.656,3.656,0,0,0-4.715,1.538h.034A3.911,3.911,0,0,1,656.96,1306.278Z" transform="translate(-254.112 -869.797)" fill="#ff002a" fill-rule="evenodd"/>
    <path id="Path_44794" data-name="Path 44794" d="M612.223,1311.5a.644.644,0,0,1,.67.67,11.849,11.849,0,0,1-1.18,4.5,10.937,10.937,0,0,1-.59,1.069,10.276,10.276,0,0,1-.627.931c-.09.121-.181.238-.278.359l-.194.234a12.386,12.386,0,0,1-1.082,1.136,13.983,13.983,0,0,1-9.556,3.686,14.291,14.291,0,0,1-4.333-.67c-.2-.067-.412-.137-.617-.211a13.4,13.4,0,0,1-5.7-3.957c-.2-.235-.392-.483-.576-.731-.06-.087-.124-.167-.181-.255a12.546,12.546,0,0,1-1.193-2.171,11.9,11.9,0,0,1-.921-3.954.65.65,0,0,1,.67-.67h0a.65.65,0,0,1,.67.546c.516,4.021,6.621,7.251,11.235,7.66.335.023.643.04.945.04a11.586,11.586,0,0,0,1.417-.094c4.547-.57,10.263-3.729,10.769-7.6a.65.65,0,0,1,.67-.55Z" transform="translate(-208.598 -873.849)" fill="#ff002a" fill-rule="evenodd"/>
    <path id="Path_44795" data-name="Path 44795" d="M582.141,1306.276a3.656,3.656,0,0,0-3.78,3.522v.171a3.2,3.2,0,0,1,1.709-4.262,3.652,3.652,0,0,1,4.721,1.551h-.033A3.91,3.91,0,0,0,582.141,1306.276Z" transform="translate(-203.421 -869.796)" fill="#ff002a" fill-rule="evenodd"/>
    <path id="Path_44796" data-name="Path 44796" d="M552.666,1154.271v43.714a3.193,3.193,0,0,1-1.059,2.376c-.056.053-.117.1-.177.147a2.8,2.8,0,0,1-.258.191,3.511,3.511,0,0,1-5.525-2.681,16.683,16.683,0,0,1-9.824,3.2,16.9,16.9,0,1,1,0-33.8,16.681,16.681,0,0,1,9.8,3.19v-16.335C545.619,1149.56,552.666,1149.617,552.666,1154.271Zm-16.844,19.589a10.465,10.465,0,1,0,10.431,10.464A10.465,10.465,0,0,0,535.821,1173.86Z" transform="translate(-164.082 -766.99)" fill="#fff" fill-rule="evenodd"/>
    <rect id="Rectangle_5057" data-name="Rectangle 5057" width="49.085" height="55.425" transform="translate(217.343 395.987)" fill="#ff002a"/>
    <path id="Path_44797" data-name="Path 44797" d="M130.55,1296.5a3.585,3.585,0,0,1-1.032-2.728v-10.947a3.539,3.539,0,0,1,1.005-2.681,3.831,3.831,0,0,1,2.768-.965h3.656a10.8,10.8,0,0,1,5.056,1.109,7.818,7.818,0,0,1,3.277,3.173,10.987,10.987,0,0,1,0,9.758,7.624,7.624,0,0,1-3.277,3.146,11.014,11.014,0,0,1-5.07,1.1h-3.495A3.949,3.949,0,0,1,130.55,1296.5Zm6.125-1.34a6.737,6.737,0,0,0,5.026-1.712,8.532,8.532,0,0,0-.023-10.186,6.741,6.741,0,0,0-5.026-1.739H133.7a1.1,1.1,0,0,0-.888.369,1.457,1.457,0,0,0-.315,1.005v10.917a1.471,1.471,0,0,0,.315,1.005,1.109,1.109,0,0,0,.888.365Z" transform="translate(94.844 -852.379)" fill="#fff"/>
    <path id="Path_44798" data-name="Path 44798" d="M144.374,1217.28a.948.948,0,0,0-.952.948v10.743a5.368,5.368,0,0,1-.509,2.681,1.655,1.655,0,0,1-1.541.744,1.692,1.692,0,0,1-1.253-.506,4.243,4.243,0,0,1-.814-2.908v-10.743a.948.948,0,0,0-.952-.948h-.9a.945.945,0,0,0-.948.948v10.743a4.754,4.754,0,0,1-.59,2.577,1.859,1.859,0,0,1-3.042.094,5.494,5.494,0,0,1-.509-2.681v-10.743a.948.948,0,0,0-.948-.948h-.938a.948.948,0,0,0-.948.948v10.743a7.863,7.863,0,0,0,1.27,4.721,4.205,4.205,0,0,0,3.562,1.773,3.535,3.535,0,0,0,2.212-.814,5.413,5.413,0,0,0,1.31-1.535,5.2,5.2,0,0,0,1.307,1.548,3.6,3.6,0,0,0,2.255.8,4.182,4.182,0,0,0,3.565-1.776,7.947,7.947,0,0,0,1.247-4.718v-10.743a.945.945,0,0,0-.948-.948Z" transform="translate(94.833 -811.221)" fill="#fff"/>
    <path id="Path_44799" data-name="Path 44799" d="M133.905,1193.157a4.221,4.221,0,0,1-4.108-4.326v-.211a4.138,4.138,0,0,0,1.856,5.234,3.756,3.756,0,0,0,5.123-1.887l-.037-.02A3.984,3.984,0,0,1,133.905,1193.157Z" transform="translate(94.867 -792.164)" fill="#fff" fill-rule="evenodd"/>
    <path id="Path_44800" data-name="Path 44800" d="M138.739,1167.127a.754.754,0,0,1-.724-.814,16.1,16.1,0,0,1,1.283-5.552,14.448,14.448,0,0,1,.64-1.313q.335-.62.724-1.206c.084-.124.168-.248.258-.375l.214-.292a14.772,14.772,0,0,1,1.173-1.391,14.3,14.3,0,0,1,10.387-4.544,14.014,14.014,0,0,1,4.691.814l.67.261a14.72,14.72,0,0,1,5,3.468,15.572,15.572,0,0,1,1.173,1.391c.214.292.426.593.627.9.067.1.131.2.194.312a15.957,15.957,0,0,1,2.3,7.526.75.75,0,0,1-.724.814h0a.731.731,0,0,1-.71-.67c-.566-4.929-7.2-8.906-12.217-9.406-.352-.03-.7-.05-1.025-.05a11.21,11.21,0,0,0-1.541.114c-4.942.7-11.158,4.581-11.7,9.339a.737.737,0,0,1-.714.67Z" transform="translate(89.192 -767.575)" fill="#fff" fill-rule="evenodd"/>
    <path id="Path_44801" data-name="Path 44801" d="M215.3,1193.157a4.221,4.221,0,0,0,4.108-4.326v-.211a4.138,4.138,0,0,1-1.856,5.234,3.756,3.756,0,0,1-5.123-1.886l.037-.02A3.984,3.984,0,0,0,215.3,1193.157Z" transform="translate(39.711 -792.164)" fill="#fff" fill-rule="evenodd"/>
    <path id="Path_44802" data-name="Path 44802" d="M203.151,1280.219a4.026,4.026,0,0,0-2.885-.979h-7.4a3.8,3.8,0,0,0-2.768.965,3.538,3.538,0,0,0-1.005,2.681v10.947a3.578,3.578,0,0,0,1.032,2.728,4.043,4.043,0,0,0,2.888.982h7.4a3.855,3.855,0,0,0,2.771-.968,3.549,3.549,0,0,0,1.005-2.681v-10.944A3.644,3.644,0,0,0,203.151,1280.219Zm-2.768,14.335h-7.331a.978.978,0,0,1-.975-.985v-10.387a.978.978,0,0,1,.978-.978h7.331a.975.975,0,0,1,.975.978v10.387a.975.975,0,0,1-.978.985Z" transform="translate(55.228 -852.42)" fill="#fff"/>
    <path id="Path_44803" data-name="Path 44803" d="M192.079,1221.227a.978.978,0,0,1,.978-.978h7.331a.975.975,0,0,1,.975.978V1234.2a1.029,1.029,0,0,0,1.029,1.029h.767a1.025,1.025,0,0,0,1.029-1.029v-13.212a3.55,3.55,0,0,0-1.032-2.731,4.035,4.035,0,0,0-2.885-.978h-7.4a3.8,3.8,0,0,0-2.768.965,3.539,3.539,0,0,0-1.005,2.664V1234.2a1.029,1.029,0,0,0,1.029,1.029h.911a1.025,1.025,0,0,0,1.025-1.029Z" transform="translate(55.226 -811.221)" fill="#fff"/>
  </g>
</svg>
