<svg xmlns="http://www.w3.org/2000/svg" width="299.915" height="164.024" viewBox="0 0 299.915 164.024">
  <g id="Group_16078" data-name="Group 16078" transform="translate(-838 -197)">
    <path id="Path_46337" data-name="Path 46337" d="M130.842,528.2a4.6,4.6,0,0,1-1.322-3.5V510.692a4.548,4.548,0,0,1,1.287-3.433,4.905,4.905,0,0,1,3.544-1.236h4.681a13.831,13.831,0,0,1,6.475,1.42,10.009,10.009,0,0,1,4.2,4.063,14.07,14.07,0,0,1,0,12.5,9.8,9.8,0,0,1-4.2,4.033,14.1,14.1,0,0,1-6.492,1.4h-4.476A5.075,5.075,0,0,1,130.842,528.2Zm7.844-1.716q4.291,0,6.436-2.188t2.146-6.509q0-4.291-2.176-6.539t-6.436-2.223h-3.785a1.407,1.407,0,0,0-1.137.468,1.871,1.871,0,0,0-.4,1.287v13.984a1.87,1.87,0,0,0,.4,1.287,1.406,1.406,0,0,0,1.137.425Z" transform="translate(708.487 -282.454)" fill="#04043f" opacity="0.03"/>
    <path id="Path_46338" data-name="Path 46338" d="M148.539,444.11a1.219,1.219,0,0,0-1.219,1.214v13.757a6.875,6.875,0,0,1-.652,3.433,2.02,2.02,0,0,1-1.974.953,2.146,2.146,0,0,1-1.6-.644,5.484,5.484,0,0,1-1.043-3.742V445.324a1.219,1.219,0,0,0-1.219-1.214h-1.15a1.214,1.214,0,0,0-1.214,1.214v13.757a6.078,6.078,0,0,1-.755,3.3,2.38,2.38,0,0,1-3.9.12,7.047,7.047,0,0,1-.652-3.433V445.324a1.214,1.214,0,0,0-1.214-1.214h-1.2a1.214,1.214,0,0,0-1.214,1.214v13.757a10.069,10.069,0,0,0,1.626,6.046,5.385,5.385,0,0,0,4.583,2.27,4.526,4.526,0,0,0,2.832-1.043,6.865,6.865,0,0,0,1.678-1.965,6.735,6.735,0,0,0,1.673,1.987,4.6,4.6,0,0,0,2.888,1.021,5.347,5.347,0,0,0,4.566-2.274,10.167,10.167,0,0,0,1.6-6.042V445.324a1.214,1.214,0,0,0-1.214-1.214Z" transform="translate(708.477 -247.11)" fill="#04043f" opacity="0.03"/>
    <path id="Path_46339" data-name="Path 46339" d="M207.1,507.333a5.157,5.157,0,0,0-3.695-1.253h-9.47a4.86,4.86,0,0,0-3.544,1.236,4.548,4.548,0,0,0-1.287,3.433v14.014a4.6,4.6,0,0,0,1.322,3.5,5.137,5.137,0,0,0,3.7,1.253H203.6a4.938,4.938,0,0,0,3.549-1.24,4.544,4.544,0,0,0,1.287-3.433V510.826A4.634,4.634,0,0,0,207.1,507.333Zm-3.544,18.356h-9.389a1.249,1.249,0,0,1-1.253-1.249v-13.3a1.249,1.249,0,0,1,1.253-1.249h9.389a1.249,1.249,0,0,1,1.249,1.249v13.3a1.249,1.249,0,0,1-1.249,1.244Z" transform="translate(674.472 -282.489)" fill="#04043f" opacity="0.03"/>
    <path id="Path_46340" data-name="Path 46340" d="M192.915,449.165a1.249,1.249,0,0,1,1.253-1.249h9.389a1.249,1.249,0,0,1,1.249,1.249v16.619a1.322,1.322,0,0,0,1.317,1.318h.983a1.317,1.317,0,0,0,1.317-1.318V448.86a4.6,4.6,0,0,0-1.322-3.5,5.131,5.131,0,0,0-3.695-1.253h-9.474a4.86,4.86,0,0,0-3.544,1.236,4.548,4.548,0,0,0-1.287,3.433V465.8a1.322,1.322,0,0,0,1.317,1.317h1.167A1.317,1.317,0,0,0,192.9,465.8Z" transform="translate(674.472 -247.11)" fill="#04043f" opacity="0.03"/>
    <path id="Path_46337-2" data-name="Path 46337" d="M130.842,528.2a4.6,4.6,0,0,1-1.322-3.5V510.692a4.548,4.548,0,0,1,1.287-3.433,4.905,4.905,0,0,1,3.544-1.236h4.681a13.831,13.831,0,0,1,6.475,1.42,10.009,10.009,0,0,1,4.2,4.063,14.07,14.07,0,0,1,0,12.5,9.8,9.8,0,0,1-4.2,4.033,14.1,14.1,0,0,1-6.492,1.4h-4.476A5.075,5.075,0,0,1,130.842,528.2Zm7.844-1.716q4.291,0,6.436-2.188t2.146-6.509q0-4.291-2.176-6.539t-6.436-2.223h-3.785a1.407,1.407,0,0,0-1.137.468,1.871,1.871,0,0,0-.4,1.287v13.984a1.87,1.87,0,0,0,.4,1.287,1.406,1.406,0,0,0,1.137.425Z" transform="translate(759.487 -282.454)" fill="#04043f" opacity="0.03"/>
    <path id="Path_46338-2" data-name="Path 46338" d="M148.539,444.11a1.219,1.219,0,0,0-1.219,1.214v13.757a6.875,6.875,0,0,1-.652,3.433,2.02,2.02,0,0,1-1.974.953,2.146,2.146,0,0,1-1.6-.644,5.484,5.484,0,0,1-1.043-3.742V445.324a1.219,1.219,0,0,0-1.219-1.214h-1.15a1.214,1.214,0,0,0-1.214,1.214v13.757a6.078,6.078,0,0,1-.755,3.3,2.38,2.38,0,0,1-3.9.12,7.047,7.047,0,0,1-.652-3.433V445.324a1.214,1.214,0,0,0-1.214-1.214h-1.2a1.214,1.214,0,0,0-1.214,1.214v13.757a10.069,10.069,0,0,0,1.626,6.046,5.385,5.385,0,0,0,4.583,2.27,4.526,4.526,0,0,0,2.832-1.043,6.865,6.865,0,0,0,1.678-1.965,6.735,6.735,0,0,0,1.673,1.987,4.6,4.6,0,0,0,2.888,1.021,5.347,5.347,0,0,0,4.566-2.274,10.167,10.167,0,0,0,1.6-6.042V445.324a1.214,1.214,0,0,0-1.214-1.214Z" transform="translate(759.477 -247.11)" fill="#04043f" opacity="0.03"/>
    <path id="Path_46339-2" data-name="Path 46339" d="M207.1,507.333a5.157,5.157,0,0,0-3.695-1.253h-9.47a4.86,4.86,0,0,0-3.544,1.236,4.548,4.548,0,0,0-1.287,3.433v14.014a4.6,4.6,0,0,0,1.322,3.5,5.137,5.137,0,0,0,3.7,1.253H203.6a4.938,4.938,0,0,0,3.549-1.24,4.544,4.544,0,0,0,1.287-3.433V510.826A4.634,4.634,0,0,0,207.1,507.333Zm-3.544,18.356h-9.389a1.249,1.249,0,0,1-1.253-1.249v-13.3a1.249,1.249,0,0,1,1.253-1.249h9.389a1.249,1.249,0,0,1,1.249,1.249v13.3a1.249,1.249,0,0,1-1.249,1.244Z" transform="translate(725.472 -282.489)" fill="#04043f" opacity="0.03"/>
    <path id="Path_46340-2" data-name="Path 46340" d="M192.915,449.165a1.249,1.249,0,0,1,1.253-1.249h9.389a1.249,1.249,0,0,1,1.249,1.249v16.619a1.322,1.322,0,0,0,1.317,1.318h.983a1.317,1.317,0,0,0,1.317-1.318V448.86a4.6,4.6,0,0,0-1.322-3.5,5.131,5.131,0,0,0-3.695-1.253h-9.474a4.86,4.86,0,0,0-3.544,1.236,4.548,4.548,0,0,0-1.287,3.433V465.8a1.322,1.322,0,0,0,1.317,1.317h1.167A1.317,1.317,0,0,0,192.9,465.8Z" transform="translate(725.472 -247.11)" fill="#04043f" opacity="0.03"/>
    <path id="Path_46337-3" data-name="Path 46337" d="M130.842,528.2a4.6,4.6,0,0,1-1.322-3.5V510.692a4.548,4.548,0,0,1,1.287-3.433,4.905,4.905,0,0,1,3.544-1.236h4.681a13.831,13.831,0,0,1,6.475,1.42,10.009,10.009,0,0,1,4.2,4.063,14.07,14.07,0,0,1,0,12.5,9.8,9.8,0,0,1-4.2,4.033,14.1,14.1,0,0,1-6.492,1.4h-4.476A5.075,5.075,0,0,1,130.842,528.2Zm7.844-1.716q4.291,0,6.436-2.188t2.146-6.509q0-4.291-2.176-6.539t-6.436-2.223h-3.785a1.407,1.407,0,0,0-1.137.468,1.871,1.871,0,0,0-.4,1.287v13.984a1.87,1.87,0,0,0,.4,1.287,1.406,1.406,0,0,0,1.137.425Z" transform="translate(810.487 -282.454)" fill="#04043f" opacity="0.03"/>
    <path id="Path_46338-3" data-name="Path 46338" d="M148.539,444.11a1.219,1.219,0,0,0-1.219,1.214v13.757a6.875,6.875,0,0,1-.652,3.433,2.02,2.02,0,0,1-1.974.953,2.146,2.146,0,0,1-1.6-.644,5.484,5.484,0,0,1-1.043-3.742V445.324a1.219,1.219,0,0,0-1.219-1.214h-1.15a1.214,1.214,0,0,0-1.214,1.214v13.757a6.078,6.078,0,0,1-.755,3.3,2.38,2.38,0,0,1-3.9.12,7.047,7.047,0,0,1-.652-3.433V445.324a1.214,1.214,0,0,0-1.214-1.214h-1.2a1.214,1.214,0,0,0-1.214,1.214v13.757a10.069,10.069,0,0,0,1.626,6.046,5.385,5.385,0,0,0,4.583,2.27,4.526,4.526,0,0,0,2.832-1.043,6.865,6.865,0,0,0,1.678-1.965,6.735,6.735,0,0,0,1.673,1.987,4.6,4.6,0,0,0,2.888,1.021,5.347,5.347,0,0,0,4.566-2.274,10.167,10.167,0,0,0,1.6-6.042V445.324a1.214,1.214,0,0,0-1.214-1.214Z" transform="translate(810.477 -247.11)" fill="#04043f" opacity="0.03"/>
    <path id="Path_46339-3" data-name="Path 46339" d="M207.1,507.333a5.157,5.157,0,0,0-3.695-1.253h-9.47a4.86,4.86,0,0,0-3.544,1.236,4.548,4.548,0,0,0-1.287,3.433v14.014a4.6,4.6,0,0,0,1.322,3.5,5.137,5.137,0,0,0,3.7,1.253H203.6a4.938,4.938,0,0,0,3.549-1.24,4.544,4.544,0,0,0,1.287-3.433V510.826A4.634,4.634,0,0,0,207.1,507.333Zm-3.544,18.356h-9.389a1.249,1.249,0,0,1-1.253-1.249v-13.3a1.249,1.249,0,0,1,1.253-1.249h9.389a1.249,1.249,0,0,1,1.249,1.249v13.3a1.249,1.249,0,0,1-1.249,1.244Z" transform="translate(776.472 -282.489)" fill="#04043f" opacity="0.03"/>
    <path id="Path_46340-3" data-name="Path 46340" d="M192.915,449.165a1.249,1.249,0,0,1,1.253-1.249h9.389a1.249,1.249,0,0,1,1.249,1.249v16.619a1.322,1.322,0,0,0,1.317,1.318h.983a1.317,1.317,0,0,0,1.317-1.318V448.86a4.6,4.6,0,0,0-1.322-3.5,5.131,5.131,0,0,0-3.695-1.253h-9.474a4.86,4.86,0,0,0-3.544,1.236,4.548,4.548,0,0,0-1.287,3.433V465.8a1.322,1.322,0,0,0,1.317,1.317h1.167A1.317,1.317,0,0,0,192.9,465.8Z" transform="translate(776.472 -247.11)" fill="#04043f" opacity="0.03"/>
    <path id="Path_46337-4" data-name="Path 46337" d="M130.842,528.2a4.6,4.6,0,0,1-1.322-3.5V510.692a4.548,4.548,0,0,1,1.287-3.433,4.905,4.905,0,0,1,3.544-1.236h4.681a13.831,13.831,0,0,1,6.475,1.42,10.009,10.009,0,0,1,4.2,4.063,14.07,14.07,0,0,1,0,12.5,9.8,9.8,0,0,1-4.2,4.033,14.1,14.1,0,0,1-6.492,1.4h-4.476A5.075,5.075,0,0,1,130.842,528.2Zm7.844-1.716q4.291,0,6.436-2.188t2.146-6.509q0-4.291-2.176-6.539t-6.436-2.223h-3.785a1.407,1.407,0,0,0-1.137.468,1.871,1.871,0,0,0-.4,1.287v13.984a1.87,1.87,0,0,0,.4,1.287,1.406,1.406,0,0,0,1.137.425Z" transform="translate(861.487 -282.454)" fill="#04043f" opacity="0.03"/>
    <path id="Path_46338-4" data-name="Path 46338" d="M148.539,444.11a1.219,1.219,0,0,0-1.219,1.214v13.757a6.875,6.875,0,0,1-.652,3.433,2.02,2.02,0,0,1-1.974.953,2.146,2.146,0,0,1-1.6-.644,5.484,5.484,0,0,1-1.043-3.742V445.324a1.219,1.219,0,0,0-1.219-1.214h-1.15a1.214,1.214,0,0,0-1.214,1.214v13.757a6.078,6.078,0,0,1-.755,3.3,2.38,2.38,0,0,1-3.9.12,7.047,7.047,0,0,1-.652-3.433V445.324a1.214,1.214,0,0,0-1.214-1.214h-1.2a1.214,1.214,0,0,0-1.214,1.214v13.757a10.069,10.069,0,0,0,1.626,6.046,5.385,5.385,0,0,0,4.583,2.27,4.526,4.526,0,0,0,2.832-1.043,6.865,6.865,0,0,0,1.678-1.965,6.735,6.735,0,0,0,1.673,1.987,4.6,4.6,0,0,0,2.888,1.021,5.347,5.347,0,0,0,4.566-2.274,10.167,10.167,0,0,0,1.6-6.042V445.324a1.214,1.214,0,0,0-1.214-1.214Z" transform="translate(861.477 -247.11)" fill="#04043f" opacity="0.03"/>
    <path id="Path_46339-4" data-name="Path 46339" d="M207.1,507.333a5.157,5.157,0,0,0-3.695-1.253h-9.47a4.86,4.86,0,0,0-3.544,1.236,4.548,4.548,0,0,0-1.287,3.433v14.014a4.6,4.6,0,0,0,1.322,3.5,5.137,5.137,0,0,0,3.7,1.253H203.6a4.938,4.938,0,0,0,3.549-1.24,4.544,4.544,0,0,0,1.287-3.433V510.826A4.634,4.634,0,0,0,207.1,507.333Zm-3.544,18.356h-9.389a1.249,1.249,0,0,1-1.253-1.249v-13.3a1.249,1.249,0,0,1,1.253-1.249h9.389a1.249,1.249,0,0,1,1.249,1.249v13.3a1.249,1.249,0,0,1-1.249,1.244Z" transform="translate(827.472 -282.489)" fill="#04043f" opacity="0.03"/>
    <path id="Path_46340-4" data-name="Path 46340" d="M192.915,449.165a1.249,1.249,0,0,1,1.253-1.249h9.389a1.249,1.249,0,0,1,1.249,1.249v16.619a1.322,1.322,0,0,0,1.317,1.318h.983a1.317,1.317,0,0,0,1.317-1.318V448.86a4.6,4.6,0,0,0-1.322-3.5,5.131,5.131,0,0,0-3.695-1.253h-9.474a4.86,4.86,0,0,0-3.544,1.236,4.548,4.548,0,0,0-1.287,3.433V465.8a1.322,1.322,0,0,0,1.317,1.317h1.167A1.317,1.317,0,0,0,192.9,465.8Z" transform="translate(827.472 -247.11)" fill="#04043f" opacity="0.03"/>
    <path id="Path_46337-5" data-name="Path 46337" d="M130.842,528.2a4.6,4.6,0,0,1-1.322-3.5V510.692a4.548,4.548,0,0,1,1.287-3.433,4.905,4.905,0,0,1,3.544-1.236h4.681a13.831,13.831,0,0,1,6.475,1.42,10.009,10.009,0,0,1,4.2,4.063,14.07,14.07,0,0,1,0,12.5,9.8,9.8,0,0,1-4.2,4.033,14.1,14.1,0,0,1-6.492,1.4h-4.476A5.075,5.075,0,0,1,130.842,528.2Zm7.844-1.716q4.291,0,6.436-2.188t2.146-6.509q0-4.291-2.176-6.539t-6.436-2.223h-3.785a1.407,1.407,0,0,0-1.137.468,1.871,1.871,0,0,0-.4,1.287v13.984a1.87,1.87,0,0,0,.4,1.287,1.406,1.406,0,0,0,1.137.425Z" transform="translate(912.487 -282.454)" fill="#04043f" opacity="0.03"/>
    <path id="Path_46338-5" data-name="Path 46338" d="M148.539,444.11a1.219,1.219,0,0,0-1.219,1.214v13.757a6.875,6.875,0,0,1-.652,3.433,2.02,2.02,0,0,1-1.974.953,2.146,2.146,0,0,1-1.6-.644,5.484,5.484,0,0,1-1.043-3.742V445.324a1.219,1.219,0,0,0-1.219-1.214h-1.15a1.214,1.214,0,0,0-1.214,1.214v13.757a6.078,6.078,0,0,1-.755,3.3,2.38,2.38,0,0,1-3.9.12,7.047,7.047,0,0,1-.652-3.433V445.324a1.214,1.214,0,0,0-1.214-1.214h-1.2a1.214,1.214,0,0,0-1.214,1.214v13.757a10.069,10.069,0,0,0,1.626,6.046,5.385,5.385,0,0,0,4.583,2.27,4.526,4.526,0,0,0,2.832-1.043,6.865,6.865,0,0,0,1.678-1.965,6.735,6.735,0,0,0,1.673,1.987,4.6,4.6,0,0,0,2.888,1.021,5.347,5.347,0,0,0,4.566-2.274,10.167,10.167,0,0,0,1.6-6.042V445.324a1.214,1.214,0,0,0-1.214-1.214Z" transform="translate(912.477 -247.11)" fill="#04043f" opacity="0.03"/>
    <path id="Path_46339-5" data-name="Path 46339" d="M207.1,507.333a5.157,5.157,0,0,0-3.695-1.253h-9.47a4.86,4.86,0,0,0-3.544,1.236,4.548,4.548,0,0,0-1.287,3.433v14.014a4.6,4.6,0,0,0,1.322,3.5,5.137,5.137,0,0,0,3.7,1.253H203.6a4.938,4.938,0,0,0,3.549-1.24,4.544,4.544,0,0,0,1.287-3.433V510.826A4.634,4.634,0,0,0,207.1,507.333Zm-3.544,18.356h-9.389a1.249,1.249,0,0,1-1.253-1.249v-13.3a1.249,1.249,0,0,1,1.253-1.249h9.389a1.249,1.249,0,0,1,1.249,1.249v13.3a1.249,1.249,0,0,1-1.249,1.244Z" transform="translate(878.472 -282.489)" fill="#04043f" opacity="0.03"/>
    <path id="Path_46340-5" data-name="Path 46340" d="M192.915,449.165a1.249,1.249,0,0,1,1.253-1.249h9.389a1.249,1.249,0,0,1,1.249,1.249v16.619a1.322,1.322,0,0,0,1.317,1.318h.983a1.317,1.317,0,0,0,1.317-1.318V448.86a4.6,4.6,0,0,0-1.322-3.5,5.131,5.131,0,0,0-3.695-1.253h-9.474a4.86,4.86,0,0,0-3.544,1.236,4.548,4.548,0,0,0-1.287,3.433V465.8a1.322,1.322,0,0,0,1.317,1.317h1.167A1.317,1.317,0,0,0,192.9,465.8Z" transform="translate(878.472 -247.11)" fill="#04043f" opacity="0.03"/>
    <path id="Path_46337-6" data-name="Path 46337" d="M130.842,528.2a4.6,4.6,0,0,1-1.322-3.5V510.692a4.548,4.548,0,0,1,1.287-3.433,4.905,4.905,0,0,1,3.544-1.236h4.681a13.831,13.831,0,0,1,6.475,1.42,10.009,10.009,0,0,1,4.2,4.063,14.07,14.07,0,0,1,0,12.5,9.8,9.8,0,0,1-4.2,4.033,14.1,14.1,0,0,1-6.492,1.4h-4.476A5.075,5.075,0,0,1,130.842,528.2Zm7.844-1.716q4.291,0,6.436-2.188t2.146-6.509q0-4.291-2.176-6.539t-6.436-2.223h-3.785a1.407,1.407,0,0,0-1.137.468,1.871,1.871,0,0,0-.4,1.287v13.984a1.87,1.87,0,0,0,.4,1.287,1.406,1.406,0,0,0,1.137.425Z" transform="translate(963.487 -282.454)" fill="#04043f" opacity="0.03"/>
    <path id="Path_46338-6" data-name="Path 46338" d="M148.539,444.11a1.219,1.219,0,0,0-1.219,1.214v13.757a6.875,6.875,0,0,1-.652,3.433,2.02,2.02,0,0,1-1.974.953,2.146,2.146,0,0,1-1.6-.644,5.484,5.484,0,0,1-1.043-3.742V445.324a1.219,1.219,0,0,0-1.219-1.214h-1.15a1.214,1.214,0,0,0-1.214,1.214v13.757a6.078,6.078,0,0,1-.755,3.3,2.38,2.38,0,0,1-3.9.12,7.047,7.047,0,0,1-.652-3.433V445.324a1.214,1.214,0,0,0-1.214-1.214h-1.2a1.214,1.214,0,0,0-1.214,1.214v13.757a10.069,10.069,0,0,0,1.626,6.046,5.385,5.385,0,0,0,4.583,2.27,4.526,4.526,0,0,0,2.832-1.043,6.865,6.865,0,0,0,1.678-1.965,6.735,6.735,0,0,0,1.673,1.987,4.6,4.6,0,0,0,2.888,1.021,5.347,5.347,0,0,0,4.566-2.274,10.167,10.167,0,0,0,1.6-6.042V445.324a1.214,1.214,0,0,0-1.214-1.214Z" transform="translate(963.477 -247.11)" fill="#04043f" opacity="0.03"/>
    <path id="Path_46339-6" data-name="Path 46339" d="M207.1,507.333a5.157,5.157,0,0,0-3.695-1.253h-9.47a4.86,4.86,0,0,0-3.544,1.236,4.548,4.548,0,0,0-1.287,3.433v14.014a4.6,4.6,0,0,0,1.322,3.5,5.137,5.137,0,0,0,3.7,1.253H203.6a4.938,4.938,0,0,0,3.549-1.24,4.544,4.544,0,0,0,1.287-3.433V510.826A4.634,4.634,0,0,0,207.1,507.333Zm-3.544,18.356h-9.389a1.249,1.249,0,0,1-1.253-1.249v-13.3a1.249,1.249,0,0,1,1.253-1.249h9.389a1.249,1.249,0,0,1,1.249,1.249v13.3a1.249,1.249,0,0,1-1.249,1.244Z" transform="translate(929.472 -282.489)" fill="#04043f" opacity="0.03"/>
    <path id="Path_46340-6" data-name="Path 46340" d="M192.915,449.165a1.249,1.249,0,0,1,1.253-1.249h9.389a1.249,1.249,0,0,1,1.249,1.249v16.619a1.322,1.322,0,0,0,1.317,1.318h.983a1.317,1.317,0,0,0,1.317-1.318V448.86a4.6,4.6,0,0,0-1.322-3.5,5.131,5.131,0,0,0-3.695-1.253h-9.474a4.86,4.86,0,0,0-3.544,1.236,4.548,4.548,0,0,0-1.287,3.433V465.8a1.322,1.322,0,0,0,1.317,1.317h1.167A1.317,1.317,0,0,0,192.9,465.8Z" transform="translate(929.472 -247.11)" fill="#04043f" opacity="0.03"/>
    <path id="Path_46337-7" data-name="Path 46337" d="M130.842,528.2a4.6,4.6,0,0,1-1.322-3.5V510.692a4.548,4.548,0,0,1,1.287-3.433,4.905,4.905,0,0,1,3.544-1.236h4.681a13.831,13.831,0,0,1,6.475,1.42,10.009,10.009,0,0,1,4.2,4.063,14.07,14.07,0,0,1,0,12.5,9.8,9.8,0,0,1-4.2,4.033,14.1,14.1,0,0,1-6.492,1.4h-4.476A5.075,5.075,0,0,1,130.842,528.2Zm7.844-1.716q4.291,0,6.436-2.188t2.146-6.509q0-4.291-2.176-6.539t-6.436-2.223h-3.785a1.407,1.407,0,0,0-1.137.468,1.871,1.871,0,0,0-.4,1.287v13.984a1.87,1.87,0,0,0,.4,1.287,1.406,1.406,0,0,0,1.137.425Z" transform="translate(708.487 -225.454)" fill="#04043f" opacity="0.03"/>
    <path id="Path_46338-7" data-name="Path 46338" d="M148.539,444.11a1.219,1.219,0,0,0-1.219,1.214v13.757a6.875,6.875,0,0,1-.652,3.433,2.02,2.02,0,0,1-1.974.953,2.146,2.146,0,0,1-1.6-.644,5.484,5.484,0,0,1-1.043-3.742V445.324a1.219,1.219,0,0,0-1.219-1.214h-1.15a1.214,1.214,0,0,0-1.214,1.214v13.757a6.078,6.078,0,0,1-.755,3.3,2.38,2.38,0,0,1-3.9.12,7.047,7.047,0,0,1-.652-3.433V445.324a1.214,1.214,0,0,0-1.214-1.214h-1.2a1.214,1.214,0,0,0-1.214,1.214v13.757a10.069,10.069,0,0,0,1.626,6.046,5.385,5.385,0,0,0,4.583,2.27,4.526,4.526,0,0,0,2.832-1.043,6.865,6.865,0,0,0,1.678-1.965,6.735,6.735,0,0,0,1.673,1.987,4.6,4.6,0,0,0,2.888,1.021,5.347,5.347,0,0,0,4.566-2.274,10.167,10.167,0,0,0,1.6-6.042V445.324a1.214,1.214,0,0,0-1.214-1.214Z" transform="translate(708.477 -190.11)" fill="#04043f" opacity="0.03"/>
    <path id="Path_46339-7" data-name="Path 46339" d="M207.1,507.333a5.157,5.157,0,0,0-3.695-1.253h-9.47a4.86,4.86,0,0,0-3.544,1.236,4.548,4.548,0,0,0-1.287,3.433v14.014a4.6,4.6,0,0,0,1.322,3.5,5.137,5.137,0,0,0,3.7,1.253H203.6a4.938,4.938,0,0,0,3.549-1.24,4.544,4.544,0,0,0,1.287-3.433V510.826A4.634,4.634,0,0,0,207.1,507.333Zm-3.544,18.356h-9.389a1.249,1.249,0,0,1-1.253-1.249v-13.3a1.249,1.249,0,0,1,1.253-1.249h9.389a1.249,1.249,0,0,1,1.249,1.249v13.3a1.249,1.249,0,0,1-1.249,1.244Z" transform="translate(674.472 -225.489)" fill="#04043f" opacity="0.03"/>
    <path id="Path_46340-7" data-name="Path 46340" d="M192.915,449.165a1.249,1.249,0,0,1,1.253-1.249h9.389a1.249,1.249,0,0,1,1.249,1.249v16.619a1.322,1.322,0,0,0,1.317,1.318h.983a1.317,1.317,0,0,0,1.317-1.318V448.86a4.6,4.6,0,0,0-1.322-3.5,5.131,5.131,0,0,0-3.695-1.253h-9.474a4.86,4.86,0,0,0-3.544,1.236,4.548,4.548,0,0,0-1.287,3.433V465.8a1.322,1.322,0,0,0,1.317,1.317h1.167A1.317,1.317,0,0,0,192.9,465.8Z" transform="translate(674.472 -190.11)" fill="#04043f" opacity="0.03"/>
    <path id="Path_46337-8" data-name="Path 46337" d="M130.842,528.2a4.6,4.6,0,0,1-1.322-3.5V510.692a4.548,4.548,0,0,1,1.287-3.433,4.905,4.905,0,0,1,3.544-1.236h4.681a13.831,13.831,0,0,1,6.475,1.42,10.009,10.009,0,0,1,4.2,4.063,14.07,14.07,0,0,1,0,12.5,9.8,9.8,0,0,1-4.2,4.033,14.1,14.1,0,0,1-6.492,1.4h-4.476A5.075,5.075,0,0,1,130.842,528.2Zm7.844-1.716q4.291,0,6.436-2.188t2.146-6.509q0-4.291-2.176-6.539t-6.436-2.223h-3.785a1.407,1.407,0,0,0-1.137.468,1.871,1.871,0,0,0-.4,1.287v13.984a1.87,1.87,0,0,0,.4,1.287,1.406,1.406,0,0,0,1.137.425Z" transform="translate(759.487 -225.454)" fill="#04043f" opacity="0.03"/>
    <path id="Path_46338-8" data-name="Path 46338" d="M148.539,444.11a1.219,1.219,0,0,0-1.219,1.214v13.757a6.875,6.875,0,0,1-.652,3.433,2.02,2.02,0,0,1-1.974.953,2.146,2.146,0,0,1-1.6-.644,5.484,5.484,0,0,1-1.043-3.742V445.324a1.219,1.219,0,0,0-1.219-1.214h-1.15a1.214,1.214,0,0,0-1.214,1.214v13.757a6.078,6.078,0,0,1-.755,3.3,2.38,2.38,0,0,1-3.9.12,7.047,7.047,0,0,1-.652-3.433V445.324a1.214,1.214,0,0,0-1.214-1.214h-1.2a1.214,1.214,0,0,0-1.214,1.214v13.757a10.069,10.069,0,0,0,1.626,6.046,5.385,5.385,0,0,0,4.583,2.27,4.526,4.526,0,0,0,2.832-1.043,6.865,6.865,0,0,0,1.678-1.965,6.735,6.735,0,0,0,1.673,1.987,4.6,4.6,0,0,0,2.888,1.021,5.347,5.347,0,0,0,4.566-2.274,10.167,10.167,0,0,0,1.6-6.042V445.324a1.214,1.214,0,0,0-1.214-1.214Z" transform="translate(759.477 -190.11)" fill="#04043f" opacity="0.03"/>
    <path id="Path_46339-8" data-name="Path 46339" d="M207.1,507.333a5.157,5.157,0,0,0-3.695-1.253h-9.47a4.86,4.86,0,0,0-3.544,1.236,4.548,4.548,0,0,0-1.287,3.433v14.014a4.6,4.6,0,0,0,1.322,3.5,5.137,5.137,0,0,0,3.7,1.253H203.6a4.938,4.938,0,0,0,3.549-1.24,4.544,4.544,0,0,0,1.287-3.433V510.826A4.634,4.634,0,0,0,207.1,507.333Zm-3.544,18.356h-9.389a1.249,1.249,0,0,1-1.253-1.249v-13.3a1.249,1.249,0,0,1,1.253-1.249h9.389a1.249,1.249,0,0,1,1.249,1.249v13.3a1.249,1.249,0,0,1-1.249,1.244Z" transform="translate(725.472 -225.489)" fill="#04043f" opacity="0.03"/>
    <path id="Path_46340-8" data-name="Path 46340" d="M192.915,449.165a1.249,1.249,0,0,1,1.253-1.249h9.389a1.249,1.249,0,0,1,1.249,1.249v16.619a1.322,1.322,0,0,0,1.317,1.318h.983a1.317,1.317,0,0,0,1.317-1.318V448.86a4.6,4.6,0,0,0-1.322-3.5,5.131,5.131,0,0,0-3.695-1.253h-9.474a4.86,4.86,0,0,0-3.544,1.236,4.548,4.548,0,0,0-1.287,3.433V465.8a1.322,1.322,0,0,0,1.317,1.317h1.167A1.317,1.317,0,0,0,192.9,465.8Z" transform="translate(725.472 -190.11)" fill="#04043f" opacity="0.03"/>
    <path id="Path_46337-9" data-name="Path 46337" d="M130.842,528.2a4.6,4.6,0,0,1-1.322-3.5V510.692a4.548,4.548,0,0,1,1.287-3.433,4.905,4.905,0,0,1,3.544-1.236h4.681a13.831,13.831,0,0,1,6.475,1.42,10.009,10.009,0,0,1,4.2,4.063,14.07,14.07,0,0,1,0,12.5,9.8,9.8,0,0,1-4.2,4.033,14.1,14.1,0,0,1-6.492,1.4h-4.476A5.075,5.075,0,0,1,130.842,528.2Zm7.844-1.716q4.291,0,6.436-2.188t2.146-6.509q0-4.291-2.176-6.539t-6.436-2.223h-3.785a1.407,1.407,0,0,0-1.137.468,1.871,1.871,0,0,0-.4,1.287v13.984a1.87,1.87,0,0,0,.4,1.287,1.406,1.406,0,0,0,1.137.425Z" transform="translate(810.487 -225.454)" fill="#04043f" opacity="0.03"/>
    <path id="Path_46338-9" data-name="Path 46338" d="M148.539,444.11a1.219,1.219,0,0,0-1.219,1.214v13.757a6.875,6.875,0,0,1-.652,3.433,2.02,2.02,0,0,1-1.974.953,2.146,2.146,0,0,1-1.6-.644,5.484,5.484,0,0,1-1.043-3.742V445.324a1.219,1.219,0,0,0-1.219-1.214h-1.15a1.214,1.214,0,0,0-1.214,1.214v13.757a6.078,6.078,0,0,1-.755,3.3,2.38,2.38,0,0,1-3.9.12,7.047,7.047,0,0,1-.652-3.433V445.324a1.214,1.214,0,0,0-1.214-1.214h-1.2a1.214,1.214,0,0,0-1.214,1.214v13.757a10.069,10.069,0,0,0,1.626,6.046,5.385,5.385,0,0,0,4.583,2.27,4.526,4.526,0,0,0,2.832-1.043,6.865,6.865,0,0,0,1.678-1.965,6.735,6.735,0,0,0,1.673,1.987,4.6,4.6,0,0,0,2.888,1.021,5.347,5.347,0,0,0,4.566-2.274,10.167,10.167,0,0,0,1.6-6.042V445.324a1.214,1.214,0,0,0-1.214-1.214Z" transform="translate(810.477 -190.11)" fill="#04043f" opacity="0.03"/>
    <path id="Path_46339-9" data-name="Path 46339" d="M207.1,507.333a5.157,5.157,0,0,0-3.695-1.253h-9.47a4.86,4.86,0,0,0-3.544,1.236,4.548,4.548,0,0,0-1.287,3.433v14.014a4.6,4.6,0,0,0,1.322,3.5,5.137,5.137,0,0,0,3.7,1.253H203.6a4.938,4.938,0,0,0,3.549-1.24,4.544,4.544,0,0,0,1.287-3.433V510.826A4.634,4.634,0,0,0,207.1,507.333Zm-3.544,18.356h-9.389a1.249,1.249,0,0,1-1.253-1.249v-13.3a1.249,1.249,0,0,1,1.253-1.249h9.389a1.249,1.249,0,0,1,1.249,1.249v13.3a1.249,1.249,0,0,1-1.249,1.244Z" transform="translate(776.472 -225.489)" fill="#04043f" opacity="0.03"/>
    <path id="Path_46340-9" data-name="Path 46340" d="M192.915,449.165a1.249,1.249,0,0,1,1.253-1.249h9.389a1.249,1.249,0,0,1,1.249,1.249v16.619a1.322,1.322,0,0,0,1.317,1.318h.983a1.317,1.317,0,0,0,1.317-1.318V448.86a4.6,4.6,0,0,0-1.322-3.5,5.131,5.131,0,0,0-3.695-1.253h-9.474a4.86,4.86,0,0,0-3.544,1.236,4.548,4.548,0,0,0-1.287,3.433V465.8a1.322,1.322,0,0,0,1.317,1.317h1.167A1.317,1.317,0,0,0,192.9,465.8Z" transform="translate(776.472 -190.11)" fill="#04043f" opacity="0.03"/>
    <path id="Path_46337-10" data-name="Path 46337" d="M130.842,528.2a4.6,4.6,0,0,1-1.322-3.5V510.692a4.548,4.548,0,0,1,1.287-3.433,4.905,4.905,0,0,1,3.544-1.236h4.681a13.831,13.831,0,0,1,6.475,1.42,10.009,10.009,0,0,1,4.2,4.063,14.07,14.07,0,0,1,0,12.5,9.8,9.8,0,0,1-4.2,4.033,14.1,14.1,0,0,1-6.492,1.4h-4.476A5.075,5.075,0,0,1,130.842,528.2Zm7.844-1.716q4.291,0,6.436-2.188t2.146-6.509q0-4.291-2.176-6.539t-6.436-2.223h-3.785a1.407,1.407,0,0,0-1.137.468,1.871,1.871,0,0,0-.4,1.287v13.984a1.87,1.87,0,0,0,.4,1.287,1.406,1.406,0,0,0,1.137.425Z" transform="translate(861.487 -225.454)" fill="#04043f" opacity="0.03"/>
    <path id="Path_46338-10" data-name="Path 46338" d="M148.539,444.11a1.219,1.219,0,0,0-1.219,1.214v13.757a6.875,6.875,0,0,1-.652,3.433,2.02,2.02,0,0,1-1.974.953,2.146,2.146,0,0,1-1.6-.644,5.484,5.484,0,0,1-1.043-3.742V445.324a1.219,1.219,0,0,0-1.219-1.214h-1.15a1.214,1.214,0,0,0-1.214,1.214v13.757a6.078,6.078,0,0,1-.755,3.3,2.38,2.38,0,0,1-3.9.12,7.047,7.047,0,0,1-.652-3.433V445.324a1.214,1.214,0,0,0-1.214-1.214h-1.2a1.214,1.214,0,0,0-1.214,1.214v13.757a10.069,10.069,0,0,0,1.626,6.046,5.385,5.385,0,0,0,4.583,2.27,4.526,4.526,0,0,0,2.832-1.043,6.865,6.865,0,0,0,1.678-1.965,6.735,6.735,0,0,0,1.673,1.987,4.6,4.6,0,0,0,2.888,1.021,5.347,5.347,0,0,0,4.566-2.274,10.167,10.167,0,0,0,1.6-6.042V445.324a1.214,1.214,0,0,0-1.214-1.214Z" transform="translate(861.477 -190.11)" fill="#04043f" opacity="0.03"/>
    <path id="Path_46339-10" data-name="Path 46339" d="M207.1,507.333a5.157,5.157,0,0,0-3.695-1.253h-9.47a4.86,4.86,0,0,0-3.544,1.236,4.548,4.548,0,0,0-1.287,3.433v14.014a4.6,4.6,0,0,0,1.322,3.5,5.137,5.137,0,0,0,3.7,1.253H203.6a4.938,4.938,0,0,0,3.549-1.24,4.544,4.544,0,0,0,1.287-3.433V510.826A4.634,4.634,0,0,0,207.1,507.333Zm-3.544,18.356h-9.389a1.249,1.249,0,0,1-1.253-1.249v-13.3a1.249,1.249,0,0,1,1.253-1.249h9.389a1.249,1.249,0,0,1,1.249,1.249v13.3a1.249,1.249,0,0,1-1.249,1.244Z" transform="translate(827.472 -225.489)" fill="#04043f" opacity="0.03"/>
    <path id="Path_46340-10" data-name="Path 46340" d="M192.915,449.165a1.249,1.249,0,0,1,1.253-1.249h9.389a1.249,1.249,0,0,1,1.249,1.249v16.619a1.322,1.322,0,0,0,1.317,1.318h.983a1.317,1.317,0,0,0,1.317-1.318V448.86a4.6,4.6,0,0,0-1.322-3.5,5.131,5.131,0,0,0-3.695-1.253h-9.474a4.86,4.86,0,0,0-3.544,1.236,4.548,4.548,0,0,0-1.287,3.433V465.8a1.322,1.322,0,0,0,1.317,1.317h1.167A1.317,1.317,0,0,0,192.9,465.8Z" transform="translate(827.472 -190.11)" fill="#04043f" opacity="0.03"/>
    <path id="Path_46337-11" data-name="Path 46337" d="M130.842,528.2a4.6,4.6,0,0,1-1.322-3.5V510.692a4.548,4.548,0,0,1,1.287-3.433,4.905,4.905,0,0,1,3.544-1.236h4.681a13.831,13.831,0,0,1,6.475,1.42,10.009,10.009,0,0,1,4.2,4.063,14.07,14.07,0,0,1,0,12.5,9.8,9.8,0,0,1-4.2,4.033,14.1,14.1,0,0,1-6.492,1.4h-4.476A5.075,5.075,0,0,1,130.842,528.2Zm7.844-1.716q4.291,0,6.436-2.188t2.146-6.509q0-4.291-2.176-6.539t-6.436-2.223h-3.785a1.407,1.407,0,0,0-1.137.468,1.871,1.871,0,0,0-.4,1.287v13.984a1.87,1.87,0,0,0,.4,1.287,1.406,1.406,0,0,0,1.137.425Z" transform="translate(912.487 -225.454)" fill="#04043f" opacity="0.03"/>
    <path id="Path_46338-11" data-name="Path 46338" d="M148.539,444.11a1.219,1.219,0,0,0-1.219,1.214v13.757a6.875,6.875,0,0,1-.652,3.433,2.02,2.02,0,0,1-1.974.953,2.146,2.146,0,0,1-1.6-.644,5.484,5.484,0,0,1-1.043-3.742V445.324a1.219,1.219,0,0,0-1.219-1.214h-1.15a1.214,1.214,0,0,0-1.214,1.214v13.757a6.078,6.078,0,0,1-.755,3.3,2.38,2.38,0,0,1-3.9.12,7.047,7.047,0,0,1-.652-3.433V445.324a1.214,1.214,0,0,0-1.214-1.214h-1.2a1.214,1.214,0,0,0-1.214,1.214v13.757a10.069,10.069,0,0,0,1.626,6.046,5.385,5.385,0,0,0,4.583,2.27,4.526,4.526,0,0,0,2.832-1.043,6.865,6.865,0,0,0,1.678-1.965,6.735,6.735,0,0,0,1.673,1.987,4.6,4.6,0,0,0,2.888,1.021,5.347,5.347,0,0,0,4.566-2.274,10.167,10.167,0,0,0,1.6-6.042V445.324a1.214,1.214,0,0,0-1.214-1.214Z" transform="translate(912.477 -190.11)" fill="#04043f" opacity="0.03"/>
    <path id="Path_46339-11" data-name="Path 46339" d="M207.1,507.333a5.157,5.157,0,0,0-3.695-1.253h-9.47a4.86,4.86,0,0,0-3.544,1.236,4.548,4.548,0,0,0-1.287,3.433v14.014a4.6,4.6,0,0,0,1.322,3.5,5.137,5.137,0,0,0,3.7,1.253H203.6a4.938,4.938,0,0,0,3.549-1.24,4.544,4.544,0,0,0,1.287-3.433V510.826A4.634,4.634,0,0,0,207.1,507.333Zm-3.544,18.356h-9.389a1.249,1.249,0,0,1-1.253-1.249v-13.3a1.249,1.249,0,0,1,1.253-1.249h9.389a1.249,1.249,0,0,1,1.249,1.249v13.3a1.249,1.249,0,0,1-1.249,1.244Z" transform="translate(878.472 -225.489)" fill="#04043f" opacity="0.03"/>
    <path id="Path_46340-11" data-name="Path 46340" d="M192.915,449.165a1.249,1.249,0,0,1,1.253-1.249h9.389a1.249,1.249,0,0,1,1.249,1.249v16.619a1.322,1.322,0,0,0,1.317,1.318h.983a1.317,1.317,0,0,0,1.317-1.318V448.86a4.6,4.6,0,0,0-1.322-3.5,5.131,5.131,0,0,0-3.695-1.253h-9.474a4.86,4.86,0,0,0-3.544,1.236,4.548,4.548,0,0,0-1.287,3.433V465.8a1.322,1.322,0,0,0,1.317,1.317h1.167A1.317,1.317,0,0,0,192.9,465.8Z" transform="translate(878.472 -190.11)" fill="#04043f" opacity="0.03"/>
    <path id="Path_46337-12" data-name="Path 46337" d="M130.842,528.2a4.6,4.6,0,0,1-1.322-3.5V510.692a4.548,4.548,0,0,1,1.287-3.433,4.905,4.905,0,0,1,3.544-1.236h4.681a13.831,13.831,0,0,1,6.475,1.42,10.009,10.009,0,0,1,4.2,4.063,14.07,14.07,0,0,1,0,12.5,9.8,9.8,0,0,1-4.2,4.033,14.1,14.1,0,0,1-6.492,1.4h-4.476A5.075,5.075,0,0,1,130.842,528.2Zm7.844-1.716q4.291,0,6.436-2.188t2.146-6.509q0-4.291-2.176-6.539t-6.436-2.223h-3.785a1.407,1.407,0,0,0-1.137.468,1.871,1.871,0,0,0-.4,1.287v13.984a1.87,1.87,0,0,0,.4,1.287,1.406,1.406,0,0,0,1.137.425Z" transform="translate(963.487 -225.454)" fill="#04043f" opacity="0.03"/>
    <path id="Path_46338-12" data-name="Path 46338" d="M148.539,444.11a1.219,1.219,0,0,0-1.219,1.214v13.757a6.875,6.875,0,0,1-.652,3.433,2.02,2.02,0,0,1-1.974.953,2.146,2.146,0,0,1-1.6-.644,5.484,5.484,0,0,1-1.043-3.742V445.324a1.219,1.219,0,0,0-1.219-1.214h-1.15a1.214,1.214,0,0,0-1.214,1.214v13.757a6.078,6.078,0,0,1-.755,3.3,2.38,2.38,0,0,1-3.9.12,7.047,7.047,0,0,1-.652-3.433V445.324a1.214,1.214,0,0,0-1.214-1.214h-1.2a1.214,1.214,0,0,0-1.214,1.214v13.757a10.069,10.069,0,0,0,1.626,6.046,5.385,5.385,0,0,0,4.583,2.27,4.526,4.526,0,0,0,2.832-1.043,6.865,6.865,0,0,0,1.678-1.965,6.735,6.735,0,0,0,1.673,1.987,4.6,4.6,0,0,0,2.888,1.021,5.347,5.347,0,0,0,4.566-2.274,10.167,10.167,0,0,0,1.6-6.042V445.324a1.214,1.214,0,0,0-1.214-1.214Z" transform="translate(963.477 -190.11)" fill="#04043f" opacity="0.03"/>
    <path id="Path_46339-12" data-name="Path 46339" d="M207.1,507.333a5.157,5.157,0,0,0-3.695-1.253h-9.47a4.86,4.86,0,0,0-3.544,1.236,4.548,4.548,0,0,0-1.287,3.433v14.014a4.6,4.6,0,0,0,1.322,3.5,5.137,5.137,0,0,0,3.7,1.253H203.6a4.938,4.938,0,0,0,3.549-1.24,4.544,4.544,0,0,0,1.287-3.433V510.826A4.634,4.634,0,0,0,207.1,507.333Zm-3.544,18.356h-9.389a1.249,1.249,0,0,1-1.253-1.249v-13.3a1.249,1.249,0,0,1,1.253-1.249h9.389a1.249,1.249,0,0,1,1.249,1.249v13.3a1.249,1.249,0,0,1-1.249,1.244Z" transform="translate(929.472 -225.489)" fill="#04043f" opacity="0.03"/>
    <path id="Path_46340-12" data-name="Path 46340" d="M192.915,449.165a1.249,1.249,0,0,1,1.253-1.249h9.389a1.249,1.249,0,0,1,1.249,1.249v16.619a1.322,1.322,0,0,0,1.317,1.318h.983a1.317,1.317,0,0,0,1.317-1.318V448.86a4.6,4.6,0,0,0-1.322-3.5,5.131,5.131,0,0,0-3.695-1.253h-9.474a4.86,4.86,0,0,0-3.544,1.236,4.548,4.548,0,0,0-1.287,3.433V465.8a1.322,1.322,0,0,0,1.317,1.317h1.167A1.317,1.317,0,0,0,192.9,465.8Z" transform="translate(929.472 -190.11)" fill="#04043f" opacity="0.03"/>
    <path id="Path_46337-13" data-name="Path 46337" d="M130.842,528.2a4.6,4.6,0,0,1-1.322-3.5V510.692a4.548,4.548,0,0,1,1.287-3.433,4.905,4.905,0,0,1,3.544-1.236h4.681a13.831,13.831,0,0,1,6.475,1.42,10.009,10.009,0,0,1,4.2,4.063,14.07,14.07,0,0,1,0,12.5,9.8,9.8,0,0,1-4.2,4.033,14.1,14.1,0,0,1-6.492,1.4h-4.476A5.075,5.075,0,0,1,130.842,528.2Zm7.844-1.716q4.291,0,6.436-2.188t2.146-6.509q0-4.291-2.176-6.539t-6.436-2.223h-3.785a1.407,1.407,0,0,0-1.137.468,1.871,1.871,0,0,0-.4,1.287v13.984a1.87,1.87,0,0,0,.4,1.287,1.406,1.406,0,0,0,1.137.425Z" transform="translate(708.487 -168.454)" fill="#04043f" opacity="0.03"/>
    <path id="Path_46338-13" data-name="Path 46338" d="M148.539,444.11a1.219,1.219,0,0,0-1.219,1.214v13.757a6.875,6.875,0,0,1-.652,3.433,2.02,2.02,0,0,1-1.974.953,2.146,2.146,0,0,1-1.6-.644,5.484,5.484,0,0,1-1.043-3.742V445.324a1.219,1.219,0,0,0-1.219-1.214h-1.15a1.214,1.214,0,0,0-1.214,1.214v13.757a6.078,6.078,0,0,1-.755,3.3,2.38,2.38,0,0,1-3.9.12,7.047,7.047,0,0,1-.652-3.433V445.324a1.214,1.214,0,0,0-1.214-1.214h-1.2a1.214,1.214,0,0,0-1.214,1.214v13.757a10.069,10.069,0,0,0,1.626,6.046,5.385,5.385,0,0,0,4.583,2.27,4.526,4.526,0,0,0,2.832-1.043,6.865,6.865,0,0,0,1.678-1.965,6.735,6.735,0,0,0,1.673,1.987,4.6,4.6,0,0,0,2.888,1.021,5.347,5.347,0,0,0,4.566-2.274,10.167,10.167,0,0,0,1.6-6.042V445.324a1.214,1.214,0,0,0-1.214-1.214Z" transform="translate(708.477 -133.11)" fill="#04043f" opacity="0.03"/>
    <path id="Path_46339-13" data-name="Path 46339" d="M207.1,507.333a5.157,5.157,0,0,0-3.695-1.253h-9.47a4.86,4.86,0,0,0-3.544,1.236,4.548,4.548,0,0,0-1.287,3.433v14.014a4.6,4.6,0,0,0,1.322,3.5,5.137,5.137,0,0,0,3.7,1.253H203.6a4.938,4.938,0,0,0,3.549-1.24,4.544,4.544,0,0,0,1.287-3.433V510.826A4.634,4.634,0,0,0,207.1,507.333Zm-3.544,18.356h-9.389a1.249,1.249,0,0,1-1.253-1.249v-13.3a1.249,1.249,0,0,1,1.253-1.249h9.389a1.249,1.249,0,0,1,1.249,1.249v13.3a1.249,1.249,0,0,1-1.249,1.244Z" transform="translate(674.472 -168.489)" fill="#04043f" opacity="0.03"/>
    <path id="Path_46340-13" data-name="Path 46340" d="M192.915,449.165a1.249,1.249,0,0,1,1.253-1.249h9.389a1.249,1.249,0,0,1,1.249,1.249v16.619a1.322,1.322,0,0,0,1.317,1.318h.983a1.317,1.317,0,0,0,1.317-1.318V448.86a4.6,4.6,0,0,0-1.322-3.5,5.131,5.131,0,0,0-3.695-1.253h-9.474a4.86,4.86,0,0,0-3.544,1.236,4.548,4.548,0,0,0-1.287,3.433V465.8a1.322,1.322,0,0,0,1.317,1.317h1.167A1.317,1.317,0,0,0,192.9,465.8Z" transform="translate(674.472 -133.11)" fill="#04043f" opacity="0.03"/>
    <path id="Path_46337-14" data-name="Path 46337" d="M130.842,528.2a4.6,4.6,0,0,1-1.322-3.5V510.692a4.548,4.548,0,0,1,1.287-3.433,4.905,4.905,0,0,1,3.544-1.236h4.681a13.831,13.831,0,0,1,6.475,1.42,10.009,10.009,0,0,1,4.2,4.063,14.07,14.07,0,0,1,0,12.5,9.8,9.8,0,0,1-4.2,4.033,14.1,14.1,0,0,1-6.492,1.4h-4.476A5.075,5.075,0,0,1,130.842,528.2Zm7.844-1.716q4.291,0,6.436-2.188t2.146-6.509q0-4.291-2.176-6.539t-6.436-2.223h-3.785a1.407,1.407,0,0,0-1.137.468,1.871,1.871,0,0,0-.4,1.287v13.984a1.87,1.87,0,0,0,.4,1.287,1.406,1.406,0,0,0,1.137.425Z" transform="translate(759.487 -168.454)" fill="#04043f" opacity="0.03"/>
    <path id="Path_46338-14" data-name="Path 46338" d="M148.539,444.11a1.219,1.219,0,0,0-1.219,1.214v13.757a6.875,6.875,0,0,1-.652,3.433,2.02,2.02,0,0,1-1.974.953,2.146,2.146,0,0,1-1.6-.644,5.484,5.484,0,0,1-1.043-3.742V445.324a1.219,1.219,0,0,0-1.219-1.214h-1.15a1.214,1.214,0,0,0-1.214,1.214v13.757a6.078,6.078,0,0,1-.755,3.3,2.38,2.38,0,0,1-3.9.12,7.047,7.047,0,0,1-.652-3.433V445.324a1.214,1.214,0,0,0-1.214-1.214h-1.2a1.214,1.214,0,0,0-1.214,1.214v13.757a10.069,10.069,0,0,0,1.626,6.046,5.385,5.385,0,0,0,4.583,2.27,4.526,4.526,0,0,0,2.832-1.043,6.865,6.865,0,0,0,1.678-1.965,6.735,6.735,0,0,0,1.673,1.987,4.6,4.6,0,0,0,2.888,1.021,5.347,5.347,0,0,0,4.566-2.274,10.167,10.167,0,0,0,1.6-6.042V445.324a1.214,1.214,0,0,0-1.214-1.214Z" transform="translate(759.477 -133.11)" fill="#04043f" opacity="0.03"/>
    <path id="Path_46339-14" data-name="Path 46339" d="M207.1,507.333a5.157,5.157,0,0,0-3.695-1.253h-9.47a4.86,4.86,0,0,0-3.544,1.236,4.548,4.548,0,0,0-1.287,3.433v14.014a4.6,4.6,0,0,0,1.322,3.5,5.137,5.137,0,0,0,3.7,1.253H203.6a4.938,4.938,0,0,0,3.549-1.24,4.544,4.544,0,0,0,1.287-3.433V510.826A4.634,4.634,0,0,0,207.1,507.333Zm-3.544,18.356h-9.389a1.249,1.249,0,0,1-1.253-1.249v-13.3a1.249,1.249,0,0,1,1.253-1.249h9.389a1.249,1.249,0,0,1,1.249,1.249v13.3a1.249,1.249,0,0,1-1.249,1.244Z" transform="translate(725.472 -168.489)" fill="#04043f" opacity="0.03"/>
    <path id="Path_46340-14" data-name="Path 46340" d="M192.915,449.165a1.249,1.249,0,0,1,1.253-1.249h9.389a1.249,1.249,0,0,1,1.249,1.249v16.619a1.322,1.322,0,0,0,1.317,1.318h.983a1.317,1.317,0,0,0,1.317-1.318V448.86a4.6,4.6,0,0,0-1.322-3.5,5.131,5.131,0,0,0-3.695-1.253h-9.474a4.86,4.86,0,0,0-3.544,1.236,4.548,4.548,0,0,0-1.287,3.433V465.8a1.322,1.322,0,0,0,1.317,1.317h1.167A1.317,1.317,0,0,0,192.9,465.8Z" transform="translate(725.472 -133.11)" fill="#04043f" opacity="0.03"/>
    <path id="Path_46337-15" data-name="Path 46337" d="M130.842,528.2a4.6,4.6,0,0,1-1.322-3.5V510.692a4.548,4.548,0,0,1,1.287-3.433,4.905,4.905,0,0,1,3.544-1.236h4.681a13.831,13.831,0,0,1,6.475,1.42,10.009,10.009,0,0,1,4.2,4.063,14.07,14.07,0,0,1,0,12.5,9.8,9.8,0,0,1-4.2,4.033,14.1,14.1,0,0,1-6.492,1.4h-4.476A5.075,5.075,0,0,1,130.842,528.2Zm7.844-1.716q4.291,0,6.436-2.188t2.146-6.509q0-4.291-2.176-6.539t-6.436-2.223h-3.785a1.407,1.407,0,0,0-1.137.468,1.871,1.871,0,0,0-.4,1.287v13.984a1.87,1.87,0,0,0,.4,1.287,1.406,1.406,0,0,0,1.137.425Z" transform="translate(810.487 -168.454)" fill="#04043f" opacity="0.03"/>
    <path id="Path_46338-15" data-name="Path 46338" d="M148.539,444.11a1.219,1.219,0,0,0-1.219,1.214v13.757a6.875,6.875,0,0,1-.652,3.433,2.02,2.02,0,0,1-1.974.953,2.146,2.146,0,0,1-1.6-.644,5.484,5.484,0,0,1-1.043-3.742V445.324a1.219,1.219,0,0,0-1.219-1.214h-1.15a1.214,1.214,0,0,0-1.214,1.214v13.757a6.078,6.078,0,0,1-.755,3.3,2.38,2.38,0,0,1-3.9.12,7.047,7.047,0,0,1-.652-3.433V445.324a1.214,1.214,0,0,0-1.214-1.214h-1.2a1.214,1.214,0,0,0-1.214,1.214v13.757a10.069,10.069,0,0,0,1.626,6.046,5.385,5.385,0,0,0,4.583,2.27,4.526,4.526,0,0,0,2.832-1.043,6.865,6.865,0,0,0,1.678-1.965,6.735,6.735,0,0,0,1.673,1.987,4.6,4.6,0,0,0,2.888,1.021,5.347,5.347,0,0,0,4.566-2.274,10.167,10.167,0,0,0,1.6-6.042V445.324a1.214,1.214,0,0,0-1.214-1.214Z" transform="translate(810.477 -133.11)" fill="#04043f" opacity="0.03"/>
    <path id="Path_46339-15" data-name="Path 46339" d="M207.1,507.333a5.157,5.157,0,0,0-3.695-1.253h-9.47a4.86,4.86,0,0,0-3.544,1.236,4.548,4.548,0,0,0-1.287,3.433v14.014a4.6,4.6,0,0,0,1.322,3.5,5.137,5.137,0,0,0,3.7,1.253H203.6a4.938,4.938,0,0,0,3.549-1.24,4.544,4.544,0,0,0,1.287-3.433V510.826A4.634,4.634,0,0,0,207.1,507.333Zm-3.544,18.356h-9.389a1.249,1.249,0,0,1-1.253-1.249v-13.3a1.249,1.249,0,0,1,1.253-1.249h9.389a1.249,1.249,0,0,1,1.249,1.249v13.3a1.249,1.249,0,0,1-1.249,1.244Z" transform="translate(776.472 -168.489)" fill="#04043f" opacity="0.03"/>
    <path id="Path_46340-15" data-name="Path 46340" d="M192.915,449.165a1.249,1.249,0,0,1,1.253-1.249h9.389a1.249,1.249,0,0,1,1.249,1.249v16.619a1.322,1.322,0,0,0,1.317,1.318h.983a1.317,1.317,0,0,0,1.317-1.318V448.86a4.6,4.6,0,0,0-1.322-3.5,5.131,5.131,0,0,0-3.695-1.253h-9.474a4.86,4.86,0,0,0-3.544,1.236,4.548,4.548,0,0,0-1.287,3.433V465.8a1.322,1.322,0,0,0,1.317,1.317h1.167A1.317,1.317,0,0,0,192.9,465.8Z" transform="translate(776.472 -133.11)" fill="#04043f" opacity="0.03"/>
    <path id="Path_46337-16" data-name="Path 46337" d="M130.842,528.2a4.6,4.6,0,0,1-1.322-3.5V510.692a4.548,4.548,0,0,1,1.287-3.433,4.905,4.905,0,0,1,3.544-1.236h4.681a13.831,13.831,0,0,1,6.475,1.42,10.009,10.009,0,0,1,4.2,4.063,14.07,14.07,0,0,1,0,12.5,9.8,9.8,0,0,1-4.2,4.033,14.1,14.1,0,0,1-6.492,1.4h-4.476A5.075,5.075,0,0,1,130.842,528.2Zm7.844-1.716q4.291,0,6.436-2.188t2.146-6.509q0-4.291-2.176-6.539t-6.436-2.223h-3.785a1.407,1.407,0,0,0-1.137.468,1.871,1.871,0,0,0-.4,1.287v13.984a1.87,1.87,0,0,0,.4,1.287,1.406,1.406,0,0,0,1.137.425Z" transform="translate(861.487 -168.454)" fill="#04043f" opacity="0.03"/>
    <path id="Path_46338-16" data-name="Path 46338" d="M148.539,444.11a1.219,1.219,0,0,0-1.219,1.214v13.757a6.875,6.875,0,0,1-.652,3.433,2.02,2.02,0,0,1-1.974.953,2.146,2.146,0,0,1-1.6-.644,5.484,5.484,0,0,1-1.043-3.742V445.324a1.219,1.219,0,0,0-1.219-1.214h-1.15a1.214,1.214,0,0,0-1.214,1.214v13.757a6.078,6.078,0,0,1-.755,3.3,2.38,2.38,0,0,1-3.9.12,7.047,7.047,0,0,1-.652-3.433V445.324a1.214,1.214,0,0,0-1.214-1.214h-1.2a1.214,1.214,0,0,0-1.214,1.214v13.757a10.069,10.069,0,0,0,1.626,6.046,5.385,5.385,0,0,0,4.583,2.27,4.526,4.526,0,0,0,2.832-1.043,6.865,6.865,0,0,0,1.678-1.965,6.735,6.735,0,0,0,1.673,1.987,4.6,4.6,0,0,0,2.888,1.021,5.347,5.347,0,0,0,4.566-2.274,10.167,10.167,0,0,0,1.6-6.042V445.324a1.214,1.214,0,0,0-1.214-1.214Z" transform="translate(861.477 -133.11)" fill="#04043f" opacity="0.03"/>
    <path id="Path_46339-16" data-name="Path 46339" d="M207.1,507.333a5.157,5.157,0,0,0-3.695-1.253h-9.47a4.86,4.86,0,0,0-3.544,1.236,4.548,4.548,0,0,0-1.287,3.433v14.014a4.6,4.6,0,0,0,1.322,3.5,5.137,5.137,0,0,0,3.7,1.253H203.6a4.938,4.938,0,0,0,3.549-1.24,4.544,4.544,0,0,0,1.287-3.433V510.826A4.634,4.634,0,0,0,207.1,507.333Zm-3.544,18.356h-9.389a1.249,1.249,0,0,1-1.253-1.249v-13.3a1.249,1.249,0,0,1,1.253-1.249h9.389a1.249,1.249,0,0,1,1.249,1.249v13.3a1.249,1.249,0,0,1-1.249,1.244Z" transform="translate(827.472 -168.489)" fill="#04043f" opacity="0.03"/>
    <path id="Path_46340-16" data-name="Path 46340" d="M192.915,449.165a1.249,1.249,0,0,1,1.253-1.249h9.389a1.249,1.249,0,0,1,1.249,1.249v16.619a1.322,1.322,0,0,0,1.317,1.318h.983a1.317,1.317,0,0,0,1.317-1.318V448.86a4.6,4.6,0,0,0-1.322-3.5,5.131,5.131,0,0,0-3.695-1.253h-9.474a4.86,4.86,0,0,0-3.544,1.236,4.548,4.548,0,0,0-1.287,3.433V465.8a1.322,1.322,0,0,0,1.317,1.317h1.167A1.317,1.317,0,0,0,192.9,465.8Z" transform="translate(827.472 -133.11)" fill="#04043f" opacity="0.03"/>
    <path id="Path_46337-17" data-name="Path 46337" d="M130.842,528.2a4.6,4.6,0,0,1-1.322-3.5V510.692a4.548,4.548,0,0,1,1.287-3.433,4.905,4.905,0,0,1,3.544-1.236h4.681a13.831,13.831,0,0,1,6.475,1.42,10.009,10.009,0,0,1,4.2,4.063,14.07,14.07,0,0,1,0,12.5,9.8,9.8,0,0,1-4.2,4.033,14.1,14.1,0,0,1-6.492,1.4h-4.476A5.075,5.075,0,0,1,130.842,528.2Zm7.844-1.716q4.291,0,6.436-2.188t2.146-6.509q0-4.291-2.176-6.539t-6.436-2.223h-3.785a1.407,1.407,0,0,0-1.137.468,1.871,1.871,0,0,0-.4,1.287v13.984a1.87,1.87,0,0,0,.4,1.287,1.406,1.406,0,0,0,1.137.425Z" transform="translate(912.487 -168.454)" fill="#04043f" opacity="0.03"/>
    <path id="Path_46338-17" data-name="Path 46338" d="M148.539,444.11a1.219,1.219,0,0,0-1.219,1.214v13.757a6.875,6.875,0,0,1-.652,3.433,2.02,2.02,0,0,1-1.974.953,2.146,2.146,0,0,1-1.6-.644,5.484,5.484,0,0,1-1.043-3.742V445.324a1.219,1.219,0,0,0-1.219-1.214h-1.15a1.214,1.214,0,0,0-1.214,1.214v13.757a6.078,6.078,0,0,1-.755,3.3,2.38,2.38,0,0,1-3.9.12,7.047,7.047,0,0,1-.652-3.433V445.324a1.214,1.214,0,0,0-1.214-1.214h-1.2a1.214,1.214,0,0,0-1.214,1.214v13.757a10.069,10.069,0,0,0,1.626,6.046,5.385,5.385,0,0,0,4.583,2.27,4.526,4.526,0,0,0,2.832-1.043,6.865,6.865,0,0,0,1.678-1.965,6.735,6.735,0,0,0,1.673,1.987,4.6,4.6,0,0,0,2.888,1.021,5.347,5.347,0,0,0,4.566-2.274,10.167,10.167,0,0,0,1.6-6.042V445.324a1.214,1.214,0,0,0-1.214-1.214Z" transform="translate(912.477 -133.11)" fill="#04043f" opacity="0.03"/>
    <path id="Path_46339-17" data-name="Path 46339" d="M207.1,507.333a5.157,5.157,0,0,0-3.695-1.253h-9.47a4.86,4.86,0,0,0-3.544,1.236,4.548,4.548,0,0,0-1.287,3.433v14.014a4.6,4.6,0,0,0,1.322,3.5,5.137,5.137,0,0,0,3.7,1.253H203.6a4.938,4.938,0,0,0,3.549-1.24,4.544,4.544,0,0,0,1.287-3.433V510.826A4.634,4.634,0,0,0,207.1,507.333Zm-3.544,18.356h-9.389a1.249,1.249,0,0,1-1.253-1.249v-13.3a1.249,1.249,0,0,1,1.253-1.249h9.389a1.249,1.249,0,0,1,1.249,1.249v13.3a1.249,1.249,0,0,1-1.249,1.244Z" transform="translate(878.472 -168.489)" fill="#04043f" opacity="0.03"/>
    <path id="Path_46340-17" data-name="Path 46340" d="M192.915,449.165a1.249,1.249,0,0,1,1.253-1.249h9.389a1.249,1.249,0,0,1,1.249,1.249v16.619a1.322,1.322,0,0,0,1.317,1.318h.983a1.317,1.317,0,0,0,1.317-1.318V448.86a4.6,4.6,0,0,0-1.322-3.5,5.131,5.131,0,0,0-3.695-1.253h-9.474a4.86,4.86,0,0,0-3.544,1.236,4.548,4.548,0,0,0-1.287,3.433V465.8a1.322,1.322,0,0,0,1.317,1.317h1.167A1.317,1.317,0,0,0,192.9,465.8Z" transform="translate(878.472 -133.11)" fill="#04043f" opacity="0.03"/>
    <g id="Group_16080" data-name="Group 16080">
      <path id="Path_46337-18" data-name="Path 46337" d="M130.842,528.2a4.6,4.6,0,0,1-1.322-3.5V510.692a4.548,4.548,0,0,1,1.287-3.433,4.905,4.905,0,0,1,3.544-1.236h4.681a13.831,13.831,0,0,1,6.475,1.42,10.009,10.009,0,0,1,4.2,4.063,14.07,14.07,0,0,1,0,12.5,9.8,9.8,0,0,1-4.2,4.033,14.1,14.1,0,0,1-6.492,1.4h-4.476A5.075,5.075,0,0,1,130.842,528.2Zm7.844-1.716q4.291,0,6.436-2.188t2.146-6.509q0-4.291-2.176-6.539t-6.436-2.223h-3.785a1.407,1.407,0,0,0-1.137.468,1.871,1.871,0,0,0-.4,1.287v13.984a1.87,1.87,0,0,0,.4,1.287,1.406,1.406,0,0,0,1.137.425Z" transform="translate(963.487 -168.454)" fill="#04043f" opacity="0.03"/>
      <path id="Path_46338-18" data-name="Path 46338" d="M148.539,444.11a1.219,1.219,0,0,0-1.219,1.214v13.757a6.875,6.875,0,0,1-.652,3.433,2.02,2.02,0,0,1-1.974.953,2.146,2.146,0,0,1-1.6-.644,5.484,5.484,0,0,1-1.043-3.742V445.324a1.219,1.219,0,0,0-1.219-1.214h-1.15a1.214,1.214,0,0,0-1.214,1.214v13.757a6.078,6.078,0,0,1-.755,3.3,2.38,2.38,0,0,1-3.9.12,7.047,7.047,0,0,1-.652-3.433V445.324a1.214,1.214,0,0,0-1.214-1.214h-1.2a1.214,1.214,0,0,0-1.214,1.214v13.757a10.069,10.069,0,0,0,1.626,6.046,5.385,5.385,0,0,0,4.583,2.27,4.526,4.526,0,0,0,2.832-1.043,6.865,6.865,0,0,0,1.678-1.965,6.735,6.735,0,0,0,1.673,1.987,4.6,4.6,0,0,0,2.888,1.021,5.347,5.347,0,0,0,4.566-2.274,10.167,10.167,0,0,0,1.6-6.042V445.324a1.214,1.214,0,0,0-1.214-1.214Z" transform="translate(963.477 -133.11)" fill="#04043f" opacity="0.03"/>
      <path id="Path_46339-18" data-name="Path 46339" d="M207.1,507.333a5.157,5.157,0,0,0-3.695-1.253h-9.47a4.86,4.86,0,0,0-3.544,1.236,4.548,4.548,0,0,0-1.287,3.433v14.014a4.6,4.6,0,0,0,1.322,3.5,5.137,5.137,0,0,0,3.7,1.253H203.6a4.938,4.938,0,0,0,3.549-1.24,4.544,4.544,0,0,0,1.287-3.433V510.826A4.634,4.634,0,0,0,207.1,507.333Zm-3.544,18.356h-9.389a1.249,1.249,0,0,1-1.253-1.249v-13.3a1.249,1.249,0,0,1,1.253-1.249h9.389a1.249,1.249,0,0,1,1.249,1.249v13.3a1.249,1.249,0,0,1-1.249,1.244Z" transform="translate(929.472 -168.489)" fill="#04043f" opacity="0.03"/>
      <path id="Path_46340-18" data-name="Path 46340" d="M192.915,449.165a1.249,1.249,0,0,1,1.253-1.249h9.389a1.249,1.249,0,0,1,1.249,1.249v16.619a1.322,1.322,0,0,0,1.317,1.318h.983a1.317,1.317,0,0,0,1.317-1.318V448.86a4.6,4.6,0,0,0-1.322-3.5,5.131,5.131,0,0,0-3.695-1.253h-9.474a4.86,4.86,0,0,0-3.544,1.236,4.548,4.548,0,0,0-1.287,3.433V465.8a1.322,1.322,0,0,0,1.317,1.317h1.167A1.317,1.317,0,0,0,192.9,465.8Z" transform="translate(929.472 -133.11)" fill="#04043f" opacity="0.03"/>
    </g>
  </g>
</svg>
