<svg xmlns="http://www.w3.org/2000/svg" width="85" height="83" viewBox="0 0 85 83">
  <g id="svgexport-6_17_" data-name="svgexport-6 (17)" transform="translate(0 -0.538)" opacity="0.1">
    <g id="Group_15824" data-name="Group 15824" transform="translate(0 0.273)">
      <g id="Group_15804" data-name="Group 15804">
        <g id="Group_15803" data-name="Group 15803">
          <g id="Group_15802" data-name="Group 15802">
            <g id="Group_15801" data-name="Group 15801">
              <g id="Group_15800" data-name="Group 15800">
                <g id="Group_15799" data-name="Group 15799">
                  <g id="Group_15798" data-name="Group 15798">
                    <g id="Group_15797" data-name="Group 15797">
                      <ellipse id="Ellipse_1249" data-name="Ellipse 1249" cx="42.5" cy="41.5" rx="42.5" ry="41.5" transform="translate(0 0.265)" fill="#a3d4ff"/>
                    </g>
                  </g>
                </g>
              </g>
            </g>
          </g>
        </g>
      </g>
      <path id="Path_46168" data-name="Path 46168" d="M153.931,108.418q0-1.362-.086-2.7L127.62,79.488l-34.7,31.6,15.618,15.618-24.8,4.413,18,18a41.994,41.994,0,0,0,52.19-40.7Z" transform="translate(-70.016 -67.11)" fill="#65b1fc"/>
      <g id="Group_15811" data-name="Group 15811" transform="translate(13.725 29.868)">
        <g id="Group_15807" data-name="Group 15807" transform="translate(29.376)">
          <g id="Group_15805" data-name="Group 15805" transform="translate(5.816)">
            <circle id="Ellipse_1250" data-name="Ellipse 1250" cx="7.729" cy="7.729" r="7.729" fill="#27488f"/>
          </g>
          <g id="Group_15806" data-name="Group 15806" transform="translate(0 17.685)">
            <path id="Path_46169" data-name="Path 46169" d="M290.066,310.562H262.977V299.8a5.7,5.7,0,0,1,5.7-5.7h15.7a5.7,5.7,0,0,1,5.7,5.7v10.759Z" transform="translate(-262.977 -294.107)" fill="#27488f"/>
          </g>
        </g>
        <g id="Group_15810" data-name="Group 15810">
          <g id="Group_15808" data-name="Group 15808" transform="translate(5.816)">
            <circle id="Ellipse_1251" data-name="Ellipse 1251" cx="7.729" cy="7.729" r="7.729" fill="#4855b7"/>
          </g>
          <g id="Group_15809" data-name="Group 15809" transform="translate(0 17.685)">
            <path id="Path_46170" data-name="Path 46170" d="M110.83,310.562H83.741V299.8a5.7,5.7,0,0,1,5.7-5.7h15.7a5.7,5.7,0,0,1,5.7,5.7v10.759Z" transform="translate(-83.741 -294.107)" fill="#4855b7"/>
          </g>
        </g>
      </g>
      <g id="Group_15816" data-name="Group 15816" transform="translate(25.024 21.327)">
        <g id="Group_15812" data-name="Group 15812" transform="translate(7.271)">
          <circle id="Ellipse_1252" data-name="Ellipse 1252" cx="9.663" cy="9.663" r="9.663" fill="#7584f2"/>
        </g>
        <g id="Group_15813" data-name="Group 15813" transform="translate(16.953 0)">
          <path id="Path_46171" data-name="Path 46171" d="M265.764,143.753a9.662,9.662,0,0,0-9.643-9.662v19.324A9.662,9.662,0,0,0,265.764,143.753Z" transform="translate(-256.121 -134.091)" fill="#606aea"/>
        </g>
        <g id="Group_15814" data-name="Group 15814" transform="translate(0 22.11)">
          <path id="Path_46172" data-name="Path 46172" d="M186.55,289.561H152.683V276.11a7.121,7.121,0,0,1,7.121-7.121h19.625a7.121,7.121,0,0,1,7.121,7.121v13.451Z" transform="translate(-152.683 -268.989)" fill="#7584f2"/>
        </g>
        <g id="Group_15815" data-name="Group 15815" transform="translate(16.953 22.11)">
          <path id="Path_46173" data-name="Path 46173" d="M273.035,276.11a7.121,7.121,0,0,0-7.121-7.121h-9.793v20.572h16.914Z" transform="translate(-256.121 -268.989)" fill="#606aea"/>
        </g>
      </g>
      <g id="Group_15823" data-name="Group 15823" transform="translate(42.637 10.094)">
        <g id="Group_15817" data-name="Group 15817">
          <circle id="Ellipse_1253" data-name="Ellipse 1253" cx="8.983" cy="8.983" r="8.983" fill="#ff475a"/>
        </g>
        <g id="Group_15818" data-name="Group 15818" transform="translate(9.016 0.001)">
          <path id="Path_46174" data-name="Path 46174" d="M324.106,74.542a8.983,8.983,0,0,0-8.95-8.982V83.525A8.983,8.983,0,0,0,324.106,74.542Z" transform="translate(-315.156 -65.56)" fill="#f03049"/>
        </g>
        <g id="Group_15820" data-name="Group 15820" transform="translate(4.697 3.072)">
          <g id="Group_15819" data-name="Group 15819">
            <path id="Path_46175" data-name="Path 46175" d="M292.208,96.121V87.543l-1.967,2L288.8,88.039l3.722-3.74h2.2V96.121Z" transform="translate(-288.805 -84.299)" fill="#fff"/>
          </g>
        </g>
        <g id="Group_15822" data-name="Group 15822" transform="translate(9.016 3.072)">
          <g id="Group_15821" data-name="Group 15821">
            <path id="Path_46176" data-name="Path 46176" d="M315.157,84.3h1.6V96.121h-1.6Z" transform="translate(-315.157 -84.299)" fill="#e9edf5"/>
          </g>
        </g>
      </g>
    </g>
  </g>
</svg>
