<svg xmlns="http://www.w3.org/2000/svg" width="76.882" height="78.042" viewBox="0 0 76.882 78.042">
  <g id="svgexport-6_18_" data-name="svgexport-6 (18)" transform="translate(-3.806)" opacity="0.2">
    <g id="Group_15830" data-name="Group 15830" transform="translate(3.806 0)">
      <g id="Group_15826" data-name="Group 15826">
        <path id="Path_46177" data-name="Path 46177" d="M75.54,28.912H8.953a5.147,5.147,0,0,1-5.147-5.147V5.147A5.147,5.147,0,0,1,8.953,0H75.541a5.147,5.147,0,0,1,5.147,5.147V23.765A5.147,5.147,0,0,1,75.54,28.912Z" transform="translate(-3.806 0)" fill="#b3dafe"/>
        <path id="Path_46178" data-name="Path 46178" d="M448.621,0H443.98a5.147,5.147,0,0,1,5.147,5.147V23.765a5.147,5.147,0,0,1-5.147,5.147h4.641a5.147,5.147,0,0,0,5.147-5.147V5.147A5.147,5.147,0,0,0,448.621,0Z" transform="translate(-376.886 0)" fill="#8ac9fe"/>
        <g id="Group_15825" data-name="Group 15825" transform="translate(8.244 5.682)">
          <path id="Path_46179" data-name="Path 46179" d="M361.279,69.427a1.161,1.161,0,0,0-1.477.715l-2.462,7.082-2.419-7.151a1.165,1.165,0,0,0-2.193-.015l-2.546,7.2-2.42-7.1a1.16,1.16,0,0,0-2.2.748l3.5,10.266a1.161,1.161,0,0,0,1.092.786h.007a1.16,1.16,0,0,0,1.094-.774l2.542-7.192,2.428,7.177a1.16,1.16,0,0,0,1.094.788h0a1.16,1.16,0,0,0,1.1-.779L361.993,70.9A1.16,1.16,0,0,0,361.279,69.427Z" transform="translate(-301.665 -64.413)" fill="#fff"/>
          <path id="Path_46180" data-name="Path 46180" d="M107.836,70.184a6.266,6.266,0,1,0,6.223,6.266A6.252,6.252,0,0,0,107.836,70.184Zm0,10.212a3.946,3.946,0,1,1,3.9-3.946A3.929,3.929,0,0,1,107.836,80.4Z" transform="translate(-94.949 -65.169)" fill="#fff"/>
          <path id="Path_46181" data-name="Path 46181" d="M266.142,70.184a6.266,6.266,0,1,0,6.223,6.266A6.252,6.252,0,0,0,266.142,70.184Zm0,10.212a3.946,3.946,0,1,1,3.9-3.946A3.929,3.929,0,0,1,266.142,80.4Z" transform="translate(-229.125 -65.169)" fill="#fff"/>
          <path id="Path_46182" data-name="Path 46182" d="M198.817,37.28a1.16,1.16,0,0,0-1.16,1.16V53.667a1.16,1.16,0,1,0,2.32,0V38.44A1.16,1.16,0,0,0,198.817,37.28Z" transform="translate(-176.354 -37.28)" fill="#fff"/>
          <path id="Path_46183" data-name="Path 46183" d="M233.783,37.28a1.16,1.16,0,0,0-1.16,1.16V53.667a1.16,1.16,0,1,0,2.32,0V38.44A1.16,1.16,0,0,0,233.783,37.28Z" transform="translate(-205.99 -37.28)" fill="#fff"/>
          <path id="Path_46184" data-name="Path 46184" d="M63.467,37.377A3.63,3.63,0,0,0,60.6,37.9a2.784,2.784,0,0,0-1,2.3v2.328h-.55a1.16,1.16,0,1,0,0,2.32h.55v8.818a1.16,1.16,0,0,0,2.32,0V44.854h1.1a1.16,1.16,0,0,0,0-2.32h-1.1V40.206c0-.116.012-.4.122-.484a1.394,1.394,0,0,1,.9-.082,1.16,1.16,0,0,0,.516-2.262Z" transform="translate(-57.894 -37.284)" fill="#fff"/>
        </g>
      </g>
      <g id="Group_15829" data-name="Group 15829" transform="translate(23.844 26.244)">
        <path id="Path_46185" data-name="Path 46185" d="M188.581,193.663v-6.251a2.744,2.744,0,0,1,5.489,0c0,4.8,0,14.426,0,16.685a4.56,4.56,0,0,1-.1.955l-2.657,12.43-17.689-1.453-12.97-22.663a3.7,3.7,0,0,1,.487-4.13,2.191,2.191,0,0,1,3.241-.079l6.47,6.779a.73.73,0,0,0,1.259-.5V174.923a2.745,2.745,0,0,1,5.49,0v18.74Z" transform="translate(-160.238 -172.178)" fill="#ffcebf"/>
        <g id="Group_15827" data-name="Group 15827" transform="translate(0.938 0)">
          <path id="Path_46186" data-name="Path 46186" d="M166.389,279.843l6.039,6.327a2.852,2.852,0,0,0,3.638.408L169.6,279.8a2.189,2.189,0,0,0-3.207.043Z" transform="translate(-166.389 -262.822)" fill="#ffb09e"/>
          <path id="Path_46187" data-name="Path 46187" d="M246.609,174.923v17.116a1.624,1.624,0,1,0,3.249,0V174.99a2.789,2.789,0,0,0-2.5-2.8,2.73,2.73,0,0,0-1.871.525A2.738,2.738,0,0,1,246.609,174.923Z" transform="translate(-233.431 -172.178)" fill="#ffb09e"/>
          <path id="Path_46188" data-name="Path 46188" d="M349.118,256.863a2.741,2.741,0,0,0-4.368-2.208,2.736,2.736,0,0,1,1.12,2.208c0,5.46,0,17.168,0,17.168l-2.7,12.641,3.192.262,2.657-12.43a4.566,4.566,0,0,0,.1-.955C349.119,271.288,349.119,261.662,349.118,256.863Z" transform="translate(-316.222 -241.63)" fill="#ffb09e"/>
        </g>
        <path id="Path_46189" data-name="Path 46189" d="M274.154,263.114v-6.25a2.745,2.745,0,0,1,5.49,0v6.25Z" transform="translate(-256.79 -241.629)" fill="#ffcebf"/>
        <path id="Path_46190" data-name="Path 46190" d="M218.5,460.664a.619.619,0,0,1-.619-.619v-4.961a3.652,3.652,0,0,1,3.652-3.652h17.725a3.651,3.651,0,0,1,3.651,3.651v4.962a.619.619,0,0,1-.619.619H218.5Z" transform="translate(-209.099 -408.867)" fill="#aee49e"/>
        <path id="Path_46191" data-name="Path 46191" d="M263.215,455.083a3.65,3.65,0,0,0-3.651-3.651h-4.641a3.651,3.651,0,0,1,3.651,3.651v4.962a.619.619,0,0,1-.619.619H262.6a.619.619,0,0,0,.619-.619Z" transform="translate(-229.401 -408.867)" fill="#8bd8a5"/>
        <path id="Path_46192" data-name="Path 46192" d="M310.171,256.864a2.745,2.745,0,0,1,5.49,0v6.25h-5.49Z" transform="translate(-287.317 -241.629)" fill="#ffcebf"/>
        <g id="Group_15828" data-name="Group 15828" transform="translate(18.475 12.49)">
          <path id="Path_46193" data-name="Path 46193" d="M319.095,254.119a2.73,2.73,0,0,0-1.634.543,2.738,2.738,0,0,1,1.111,2.2v4.616a1.634,1.634,0,1,0,3.268,0v-4.616A2.745,2.745,0,0,0,319.095,254.119Z" transform="translate(-311.971 -254.119)" fill="#ffb09e"/>
          <path id="Path_46194" data-name="Path 46194" d="M283.077,254.119a2.73,2.73,0,0,0-1.634.543,2.738,2.738,0,0,1,1.111,2.2v4.616a1.634,1.634,0,0,0,3.268,0v-4.616A2.745,2.745,0,0,0,283.077,254.119Z" transform="translate(-281.443 -254.119)" fill="#ffb09e"/>
        </g>
      </g>
    </g>
  </g>
</svg>
