<svg xmlns="http://www.w3.org/2000/svg" width="66.749" height="69.024" viewBox="0 0 66.749 69.024">
  <g id="svgexport-6_19_" data-name="svgexport-6 (19)" transform="translate(-8.438 0)" opacity="0.2">
    <path id="Path_46195" data-name="Path 46195" d="M218.8,102.579H201.28a2.026,2.026,0,0,1-1.031-3.77c7.635-4.511,11.6-9.774,12.124-16.088a4.355,4.355,0,0,1,4.35-3.913,8.563,8.563,0,0,1,8.429,8.559h0v.681c0,5.527-1.637,9.052-4.658,13.622A2.026,2.026,0,0,1,218.8,102.579Z" transform="translate(-165.091 -68.183)" fill="#ffc380"/>
    <path id="Path_46196" data-name="Path 46196" d="M186.314,231.431a6.355,6.355,0,0,0-6.348-6.348H147.315a2.025,2.025,0,0,0-1.031.282c-2.292,1.355-4.606,2.471-6.466,3.367-.649.313-1.261.608-1.818.887a2.026,2.026,0,0,0-1.12,1.812v25.933a2.026,2.026,0,0,0,1.12,1.812c8.186,4.093,14.991,4.587,22.926,4.587,1.229,0,2.486-.012,3.778-.024,1.429-.013,2.907-.027,4.456-.027h6.4a6.346,6.346,0,0,0,5.466-9.574,6.343,6.343,0,0,0,2.161-8.644,6.342,6.342,0,0,0,1.382-9.7A6.3,6.3,0,0,0,186.314,231.431Z" transform="translate(-111.126 -194.739)" fill="#ffcf99"/>
    <g id="Group_15831" data-name="Group 15831" transform="translate(34.37 0)">
      <path id="Path_46197" data-name="Path 46197" d="M431.563,115.113h-4.322a2.026,2.026,0,0,1,0-4.052h4.322a2.026,2.026,0,0,1,0,4.052Z" transform="translate(-394.96 -96.089)" fill="#29ccb1"/>
      <path id="Path_46198" data-name="Path 46198" d="M207.144,115.113h-4.322a2.026,2.026,0,1,1,0-4.052h4.322a2.026,2.026,0,0,1,0,4.052Z" transform="translate(-200.796 -96.089)" fill="#29ccb1"/>
      <path id="Path_46199" data-name="Path 46199" d="M269.1,7.8a2.025,2.025,0,0,1-1.756-1.013L265.187,3.04A2.026,2.026,0,0,1,268.7,1.014l2.161,3.743A2.026,2.026,0,0,1,269.1,7.8Z" transform="translate(-256.271 -0.001)" fill="#29ccb1"/>
      <path id="Path_46200" data-name="Path 46200" d="M379.147,7.8a2.026,2.026,0,0,1-1.753-3.039l2.161-3.743a2.026,2.026,0,1,1,3.509,2.026L380.9,6.783A2.025,2.025,0,0,1,379.147,7.8Z" transform="translate(-353.352 0)" fill="#29ccb1"/>
    </g>
    <path id="SVGCleanerId_0" d="M76.609,419.658v10.67H72.557v-10.67a2.026,2.026,0,0,1,4.052,0Z" transform="translate(-55.475 -361.329)" fill="#73c3ff"/>
    <g id="Group_15832" data-name="Group 15832" transform="translate(34.37 0)">
      <path id="Path_46201" data-name="Path 46201" d="M431.563,115.113h-4.322a2.026,2.026,0,0,1,0-4.052h4.322a2.026,2.026,0,0,1,0,4.052Z" transform="translate(-394.96 -96.089)" fill="#29ccb1"/>
      <path id="Path_46202" data-name="Path 46202" d="M207.144,115.113h-4.322a2.026,2.026,0,1,1,0-4.052h4.322a2.026,2.026,0,0,1,0,4.052Z" transform="translate(-200.796 -96.089)" fill="#29ccb1"/>
      <path id="Path_46203" data-name="Path 46203" d="M269.1,7.8a2.025,2.025,0,0,1-1.756-1.013L265.187,3.04A2.026,2.026,0,0,1,268.7,1.014l2.161,3.743A2.026,2.026,0,0,1,269.1,7.8Z" transform="translate(-256.271 -0.001)" fill="#29ccb1"/>
      <path id="Path_46204" data-name="Path 46204" d="M379.147,7.8a2.026,2.026,0,0,1-1.753-3.039l2.161-3.743a2.026,2.026,0,1,1,3.509,2.026L380.9,6.783A2.025,2.025,0,0,1,379.147,7.8Z" transform="translate(-353.352 0)" fill="#29ccb1"/>
    </g>
    <g id="Group_15833" data-name="Group 15833" transform="translate(17.082 56.303)">
      <path id="SVGCleanerId_0_1_" d="M76.609,419.658v10.67H72.557v-10.67a2.026,2.026,0,0,1,4.052,0Z" transform="translate(-72.557 -417.632)" fill="#73c3ff"/>
    </g>
    <path id="Path_46205" data-name="Path 46205" d="M27.752,225.083H10.464a2.027,2.027,0,0,0-2.026,2.026v34.577a2.065,2.065,0,0,0,2.026,2.052H23.43a6.422,6.422,0,0,0,5.68-3.541,6.294,6.294,0,0,0,.669-2.832V227.109A2.027,2.027,0,0,0,27.752,225.083Z" transform="translate(0 -194.739)" fill="#44a4ec"/>
    <path id="Path_46206" data-name="Path 46206" d="M76.609,418.656v10.805H72.557V418.656a2.026,2.026,0,0,1,4.052,0Z" transform="translate(-55.475 -360.463)" fill="#73c3ff"/>
  </g>
</svg>
