<svg id="svgexport-6_14_" data-name="svgexport-6 (14)" xmlns="http://www.w3.org/2000/svg" width="12.886" height="12.886" viewBox="0 0 12.886 12.886">
  <circle id="Ellipse_1191" data-name="Ellipse 1191" cx="6.443" cy="6.443" r="6.443" transform="translate(0.001 0.001)" fill="#fff"/>
  <path id="Path_45801" data-name="Path 45801" d="M318.19,157.875h-3.97a17.813,17.813,0,0,1,0,4.271H318.2a6.449,6.449,0,0,0-.008-4.271Z" transform="translate(-305.672 -153.58)" fill="#efecec"/>
  <path id="Path_45802" data-name="Path 45802" d="M259.641,5.24h3.97l0-.006A6.447,6.447,0,0,0,258.115.972C259.1,1.513,259.389,3.225,259.641,5.24Z" transform="translate(-251.093 -0.946)" fill="#c42b27"/>
  <path id="Path_45803" data-name="Path 45803" d="M258.115,319.165a6.447,6.447,0,0,0,5.5-4.275l.006-.018h-3.975C259.395,316.9,259.105,318.622,258.115,319.165Z" transform="translate(-251.093 -306.305)" fill="#0b0b0b"/>
  <path id="Path_45804" data-name="Path 45804" d="M0,160.023a6.434,6.434,0,0,0,.36,2.123H8.883a17.815,17.815,0,0,0,0-4.271H.368A6.43,6.43,0,0,0,0,160.023Z" transform="translate(0 -153.58)" fill="#efefef"/>
  <path id="Path_45805" data-name="Path 45805" d="M13.535,4.289l0,.006h8.512C21.792,2.28,21.173.567,20.186.026,20,.01,19.8,0,19.608,0A6.444,6.444,0,0,0,13.535,4.289Z" transform="translate(-13.165 0)" fill="#cc3434"/>
  <path id="Path_45806" data-name="Path 45806" d="M21.742,314.871H13.219l.006.018a6.445,6.445,0,0,0,6.077,4.3c.2,0,.388-.01.579-.027C20.871,318.622,21.492,316.9,21.742,314.871Z" transform="translate(-12.859 -306.305)" fill="#151515"/>
  <g id="Group_15717" data-name="Group 15717" transform="translate(5.167 4.958)">
    <path id="Path_45807" data-name="Path 45807" d="M192.486,185.225a1.74,1.74,0,0,0-.287-.009c-.018.01-.015.041-.023.061.009.019.028.009.047.023s.049.066.094.08c-.038.04-.037.119-.094.141.01.092-.05.109-.141.127a5.523,5.523,0,0,1-1.57.033.784.784,0,0,1-.268-.07.088.088,0,0,1-.023-.08c-.054-.027-.055-.108-.1-.146.061-.021.073-.09.141-.1a.21.21,0,0,0-.014-.066,1.887,1.887,0,0,0-.3.009c.008-.105.01-.225.019-.348.012-.165.01-.358.023-.522.007-.084,0-.17.01-.254.01-.159,0-.316.014-.465s.007-.332.019-.484.056-.283.24-.268c.218.018.355.2.592.2a.62.62,0,0,0,.16-.531c-.014-.092-.111-.224-.207-.174-.014-.154.133-.134.23-.085.03-.019.038-.045.071-.052a.354.354,0,0,1,.221.042.3.3,0,0,1,.108.273c0,.066-.015.131-.01.2a.592.592,0,0,0,.118.324c.221.02.383-.176.6-.2a.216.216,0,0,1,.207.085,4.1,4.1,0,0,1,.061.728c.012.152,0,.31.014.465C192.46,184.513,192.471,184.865,192.486,185.225Zm-1.057-2.458a1.371,1.371,0,0,0-.019-.381c-.021-.02-.033-.049-.061-.061h-.07c-.035.019-.048.058-.085.066-.087.019-.094-.064-.16-.089-.017-.007-.04,0-.061-.01-.063-.019-.1-.042-.132.047.115-.007.218.03.244.127-.066-.018-.047.041-.042.08a.7.7,0,0,1-.085.456c-.031.051-.071.09-.094.136.068-.013.13-.009.164-.052s.036-.18.066-.249a.508.508,0,0,1-.113.334c.167-.024.2-.163.211-.334a.443.443,0,0,1-.038.235c.022.027.034.063.066.08a.229.229,0,0,0,.061-.085.357.357,0,0,1-.028-.23c0,.181.047.31.2.334a.468.468,0,0,1-.1-.338.76.76,0,0,0,.061.258.334.334,0,0,0,.165.047A.654.654,0,0,1,191.428,182.767Zm-.3-.428v.019c.011,0,.01.009.023,0a.029.029,0,0,0,0-.023A.023.023,0,0,0,191.133,182.34Zm-.907.559a.18.18,0,0,0-.16.2c.046-.016.089-.058.136-.056-.025.707-.056,1.35-.085,2.049a.557.557,0,0,0-.122.117h.254c.013-.112.139-.135.244-.1.05-.172.1-.344.146-.522-.047.029-.071.08-.118.108.017-.452.04-.892.056-1.353a.413.413,0,0,0,.305.042.938.938,0,0,0,.343-.15.767.767,0,0,0,.423.16.512.512,0,0,0,.216-.042c.01.461.043.911.052,1.349a1.319,1.319,0,0,0-.113-.108c.042.178.1.343.141.517.109-.035.23,0,.249.1.083,0,.178.006.254,0-.03-.053-.1-.068-.122-.122a.95.95,0,0,1-.009-.235c-.026-.568-.062-1.239-.075-1.809a1.434,1.434,0,0,1,.136.061c-.011-.113-.058-.19-.164-.2-.243-.016-.384.207-.63.2,0,.03.048.037.042.056a.715.715,0,0,1-.164-.023c0,.026.043.038.047.07a.419.419,0,0,1-.221-.108.435.435,0,0,1-.071.089.558.558,0,0,0-.071-.089.306.306,0,0,1-.216.1c.014-.024.042-.033.047-.066a.426.426,0,0,1-.165.019c.015-.017.039-.023.042-.052C190.622,183.107,190.459,182.881,190.226,182.9Zm.456.508a1.2,1.2,0,0,0,.545,1.085,1.226,1.226,0,0,0,.531-1.085.969.969,0,0,1-.385-.071c-.058-.025-.113-.071-.16-.085A.835.835,0,0,1,190.681,183.406Zm.009.343c0,.228-.041.507-.023.743a1.6,1.6,0,0,0,.042-.456.618.618,0,0,0-.014-.3A.022.022,0,0,1,190.691,183.749Zm1.043.423a.75.75,0,0,0,.047.324c0-.25-.027-.51-.028-.757-.006,0-.007-.006-.014,0A1.932,1.932,0,0,0,191.734,184.172Zm-.968.268c.04-.046.086-.087.122-.137a.363.363,0,0,0-.085-.239C190.789,184.185,190.673,184.341,190.766,184.44Zm.789-.132c.044.041.082.112.132.132.07-.114-.031-.237-.042-.367-.006,0-.007-.006-.014,0A.374.374,0,0,0,191.555,184.308Zm-.63.212a1.3,1.3,0,0,0,.117-.15c-.058-.046-.1-.109-.155-.16C190.9,184.314,190.907,184.422,190.926,184.52Zm.475-.146a.8.8,0,0,0,.122.146c.01-.1.017-.205.033-.3,0-.006,0-.011-.009-.01A1.61,1.61,0,0,1,191.4,184.374Zm-.649.094c-.006-.03-.022-.05-.028-.08a.644.644,0,0,0-.066.207c-.008.026-.026.048-.023.075.054-.023.076-.078.132-.1a1.168,1.168,0,0,0,.047.122c.044-.021.042-.087.08-.113.021.076.044.151.07.221.05-.042.107-.078.122-.155-.028-.064-.054-.131-.08-.2-.038.026-.062.091-.094.108a.727.727,0,0,0-.033-.226A.867.867,0,0,1,190.752,184.468Zm.78.094c-.034-.035-.058-.08-.094-.113-.014.031-.029.061-.042.094a.406.406,0,0,0-.038.1c0,.074.078.108.122.155a1.348,1.348,0,0,1,.061-.221c.029.037.042.089.085.113.022-.039.037-.085.056-.127a1.252,1.252,0,0,0,.122.1,1.651,1.651,0,0,0-.085-.287.369.369,0,0,1-.038.084,1.258,1.258,0,0,0-.127-.132A1.494,1.494,0,0,0,191.532,184.562Zm-.479-.178c-.076.054.008.164.038.226.013-.054.026-.109.038-.165C191.1,184.425,191.077,184.4,191.053,184.384Zm.263.066a.563.563,0,0,0,.042.16c.026-.055.046-.117.07-.174-.013-.019-.022-.044-.047-.052C191.37,184.416,191.329,184.419,191.316,184.449Zm-.569.141a.48.48,0,0,1-.122.1c-.033.095.035.175.066.249.043-.031.061-.086.1-.117a.71.71,0,0,0,.056.16c.046-.032.073-.109.117-.127a.354.354,0,0,0,.038.146c.017-.09.038-.175.056-.263-.038.008-.066.066-.1.089-.026-.068-.043-.145-.07-.212-.037.026-.042.083-.075.113A.438.438,0,0,0,190.747,184.59Zm.874.141c-.027-.039-.043-.089-.085-.113-.017.071-.036.139-.051.212-.039-.022-.065-.082-.1-.089a1.222,1.222,0,0,0,.066.268.864.864,0,0,1,.033-.155c.042.041.064.1.117.132.015-.056.035-.106.052-.16.04.034.059.089.1.117.026-.076.092-.146.066-.244-.049-.031-.085-.074-.132-.108C191.66,184.632,191.65,184.691,191.621,184.731Zm-.512.371c-.024.014-.041.034-.066.047-.01-.012-.039-.05-.047-.033s-.007.043-.014.061c.045,0,.134-.013.155.028.064-.009.115.012.164,0,.019,0,.033-.025.052-.028.035-.007.069.006.1,0-.006-.02,0-.052-.014-.066-.031,0-.025.034-.056.033-.016-.021-.045-.03-.061-.052-.018-.131-.029-.268-.056-.39-.011.13.019.26.014.4-.025.022-.037.057-.066.075-.011-.031-.053-.048-.061-.089-.02-.115.043-.293.014-.385C191.144,184.83,191.138,184.978,191.109,185.1Zm-.6,0a.116.116,0,0,0,.08.019.761.761,0,0,1,.089-.113,1.1,1.1,0,0,0,.057.146h.033c.025-.031.04-.073.066-.1.016.037.024.082.042.117a.321.321,0,0,0,.085,0,.364.364,0,0,0,0-.291c-.043.038-.069.094-.113.132a.474.474,0,0,0-.061-.16c-.033.037-.062.078-.094.117-.033-.059-.043-.142-.089-.188C190.572,184.9,190.54,185,190.508,185.107Zm1.245-.132a.54.54,0,0,0-.1-.117c-.028.046-.032.115-.061.16-.036-.041-.069-.109-.113-.127a.371.371,0,0,0,0,.287.284.284,0,0,0,.08,0c.022-.033.025-.084.047-.117.02.035.041.068.061.1h.038a1.48,1.48,0,0,1,.061-.15.689.689,0,0,0,.089.122c.026-.007.059-.006.07-.028-.032-.1-.058-.208-.089-.31h-.014C191.806,184.856,191.78,184.916,191.753,184.976Zm-1.151.16a.97.97,0,0,0,.113.019.264.264,0,0,0-.052-.113C190.647,185.077,190.614,185.1,190.6,185.136Zm1.128.019a.878.878,0,0,0,.108-.019c0-.028-.04-.063-.061-.089C191.747,185.068,191.741,185.114,191.729,185.154Zm-.945.01c.015.01.048,0,.07,0-.009-.027-.007-.065-.033-.075A.237.237,0,0,0,190.785,185.164Zm.8,0h.066a.088.088,0,0,0-.047-.075C191.606,185.121,191.582,185.148,191.588,185.169Zm.456-.066a3.544,3.544,0,0,1-.39.08,1.952,1.952,0,0,1-.3.009c-.028.03-.013.064,0,.094a1.092,1.092,0,0,0,.3,0c-.005-.1.113-.124.127-.019a1.252,1.252,0,0,0,.3-.075C192.078,185.148,192.078,185.108,192.044,185.1Zm-1.344.071c-.081-.012-.189-.05-.263-.066-.042-.009-.054,0-.07.019v.066a1.545,1.545,0,0,0,.3.071c.009-.106.128-.086.122.019a1.1,1.1,0,0,0,.3,0c.021-.033.035-.057.009-.094A2.168,2.168,0,0,1,190.7,185.173Zm-.428.056a.2.2,0,0,0,.08-.042c0-.023,0-.055,0-.071A.088.088,0,0,0,190.273,185.23Zm1.818-.038a.221.221,0,0,0,.08.038.092.092,0,0,0-.075-.113C192.086,185.134,192.093,185.168,192.091,185.192Zm-1.367.127a.2.2,0,0,1,.038-.028.1.1,0,0,0-.019-.084C190.66,185.195,190.663,185.31,190.724,185.319Zm.954-.033c.007.016.028.02.047.033.019-.011.028-.031.042-.047C191.765,185.169,191.646,185.211,191.678,185.286Zm-1.024-.009c-.125,0-.251-.092-.362-.038,0,.023-.02.033-.014.066-.053-.006-.114.065-.117.089-.007.053.046.092.075.127a.116.116,0,0,0,.014.075,4.217,4.217,0,0,0,1.546.08c.144-.016.374-.031.414-.113v-.056c.052-.014.06-.071.075-.122-.042-.027-.056-.082-.122-.084.013-.019-.009-.036-.009-.056-.059-.05-.129-.013-.211,0-.114.025-.188.025-.216.108-.012-.029-.04-.042-.061-.061a.976.976,0,0,1-.3,0c-.024.038-.078.047-.085.1a.235.235,0,0,1-.033-.113H191.2a.255.255,0,0,1-.038.113c0-.057-.06-.062-.08-.1a1.311,1.311,0,0,1-.3,0c-.032.01-.046.038-.07.056C190.706,185.315,190.672,185.3,190.653,185.277Zm.512-.057a.2.2,0,0,0,.033.057c.057.012.062-.028.08-.057A.282.282,0,0,0,191.165,185.22Zm-.066.08a.178.178,0,0,0,.071.052c.018-.049.006-.121-.047-.127C191.127,185.262,191.1,185.263,191.1,185.3Zm.2-.075c-.029.021-.066.1-.019.127.018-.023.05-.032.061-.061C191.324,185.274,191.329,185.234,191.3,185.225Z" transform="translate(-189.953 -182.241)" fill="#eebc31"/>
    <path id="Path_45808" data-name="Path 45808" d="M197.2,214.474a1.383,1.383,0,0,1-.16.136c.022-.641.063-1.3.085-1.964a.649.649,0,0,1,.146.122C197.25,213.342,197.223,213.868,197.2,214.474Z" transform="translate(-196.847 -211.819)" fill="#eebc31"/>
    <path id="Path_45809" data-name="Path 45809" d="M267.607,214.444c-.027.005-.053-.039-.08-.061a.406.406,0,0,1-.085-.075c-.03-.484-.022-.995-.061-1.457a1.226,1.226,0,0,1-.009-.24c.015-.057.112-.079.141-.131C267.549,213.069,267.573,213.809,267.607,214.444Z" transform="translate(-265.262 -211.657)" fill="#eebc31"/>
    <path id="Path_45810" data-name="Path 45810" d="M204.533,218.352a.956.956,0,0,1,.117.094c-.011.378-.035.83-.052,1.207a.774.774,0,0,1,0,.193c-.02.055-.1.084-.132.132C204.483,219.43,204.515,218.888,204.533,218.352Z" transform="translate(-204.067 -217.37)" fill="#eebc31"/>
    <path id="Path_45811" data-name="Path 45811" d="M262,220.123c-.006.007-.019-.01-.028-.019-.028-.027-.067-.07-.094-.1-.024-.46-.042-.939-.061-1.4a.5.5,0,0,1,.108-.1C261.953,219.006,261.977,219.593,262,220.123Z" transform="translate(-259.862 -217.524)" fill="#eebc31"/>
    <path id="Path_45812" data-name="Path 45812" d="M218.77,220.738a1.2,1.2,0,0,1-.493,1.029,1.258,1.258,0,0,1-.512-1.029.884.884,0,0,0,.512-.146A.811.811,0,0,0,218.77,220.738Zm-.663-.033c-.008.192,0,.451,0,.663a1.068,1.068,0,0,0,0,.226c.008.03.055.058.08.08a.538.538,0,0,0,.089.071c.046-.036.158-.091.174-.15a1.063,1.063,0,0,0,0-.221V220.7c-.061-.03-.118-.063-.179-.094C218.224,220.652,218.153,220.666,218.107,220.7Z" transform="translate(-217.007 -219.549)" fill="#eebc31"/>
    <path id="Path_45813" data-name="Path 45813" d="M206.542,288.477c.029.01.076,0,.08.038-.025.009-.045-.023-.08-.019Z" transform="translate(-206.091 -285.587)" fill="#eebc31"/>
    <path id="Path_45814" data-name="Path 45814" d="M263.8,288.6a.314.314,0,0,1-.08.033C263.715,288.6,263.779,288.586,263.8,288.6Z" transform="translate(-261.709 -285.703)" fill="#eebc31"/>
    <path id="Path_45815" data-name="Path 45815" d="M211.725,290.208a.161.161,0,0,1,.1.033C211.793,290.242,211.731,290.234,211.725,290.208Z" transform="translate(-211.133 -287.271)" fill="#eebc31"/>
    <path id="Path_45816" data-name="Path 45816" d="M257.77,290.295a.156.156,0,0,1-.1.028A.134.134,0,0,1,257.77,290.295Z" transform="translate(-255.824 -287.353)" fill="#eebc31"/>
    <path id="Path_45817" data-name="Path 45817" d="M248.268,291.809a.234.234,0,0,1-.1,0C248.172,291.777,248.257,291.78,248.268,291.809Z" transform="translate(-246.58 -288.806)" fill="#eebc31"/>
    <path id="Path_45818" data-name="Path 45818" d="M221.337,291.872c-.009.035-.075.013-.113.019C221.227,291.849,221.305,291.872,221.337,291.872Z" transform="translate(-220.373 -288.884)" fill="#eebc31"/>
    <path id="Path_45819" data-name="Path 45819" d="M227.014,292.237a.179.179,0,0,1-.1.014C226.924,292.225,226.987,292.228,227.014,292.237Z" transform="translate(-225.91 -289.238)" fill="#eebc31"/>
    <path id="Path_45820" data-name="Path 45820" d="M242.567,292.223a.983.983,0,0,1-.1-.014C242.486,292.192,242.567,292.191,242.567,292.223Z" transform="translate(-241.039 -289.206)" fill="#eebc31"/>
    <path id="Path_45821" data-name="Path 45821" d="M254.58,293.973c.021,0,.01-.034.033-.033,0,.014,0,.017,0,.028a.093.093,0,0,1-.084.009c-.037.02-.083.087-.132.038-.034.006-.029.049-.056.061-.038-.03-.07-.015-.127-.01-.017.019-.018.054-.052.056,0-.021.028-.019.028-.042s-.032-.009-.042-.019c-.009-.039.021-.038.033-.056.021.005.023.03.028.052a.107.107,0,0,0,.042-.01.111.111,0,0,1,.033-.061c0-.026-.017-.061-.014-.075.027.006.014.052.028.07.036,0,.058.008.066.033.037-.014.047-.056.094-.056.02,0,.031.018.052.014.006-.062-.011-.191-.089-.141,0-.025.038-.018.066-.019C254.54,293.847,254.493,293.978,254.58,293.973Zm-.165.038c.022.019.076.009.07-.028S254.407,293.969,254.416,294.011Zm-.094.023a.173.173,0,0,0,.033-.009C254.355,293.971,254.28,294,254.322,294.034Zm-.042.014c.012,0,.015-.007.023-.01s0-.033-.014-.033S254.267,294.033,254.28,294.048Zm-.113.01c.015.007.021,0,.033,0s-.008-.014,0-.028C254.176,294.026,254.163,294.034,254.167,294.058Zm.16,0a.02.02,0,0,0,.033-.019C254.345,294.042,254.326,294.04,254.327,294.058Z" transform="translate(-252.405 -290.778)" fill="#eebc31"/>
    <path id="Path_45822" data-name="Path 45822" d="M205.72,294.43v.023c-.007.007-.024,0-.038,0,0-.017,0-.012,0-.028A.033.033,0,0,1,205.72,294.43Z" transform="translate(-205.25 -291.371)" fill="#eebc31"/>
    <path id="Path_45823" data-name="Path 45823" d="M205.368,296.58c0,.008-.006.01,0,.019-.019,0-.037,0-.038-.019A.044.044,0,0,1,205.368,296.58Z" transform="translate(-204.908 -293.464)" fill="#eebc31"/>
    <path id="Path_45824" data-name="Path 45824" d="M242.975,298.155h.019a.036.036,0,0,1,0,.038h-.019A.037.037,0,0,1,242.975,298.155Z" transform="translate(-241.527 -295.002)" fill="#eebc31"/>
    <path id="Path_45825" data-name="Path 45825" d="M214.747,298.495c.015.061.025.193-.028.2s-.038-.072-.089-.075a.139.139,0,0,1-.1.01c-.023,0-.02.03-.042.033.03-.031.017-.071.014-.108.025,0,.029.028.028.057s.07.009.089,0c-.01-.02-.023-.037-.033-.057.029-.008.029-.034.056-.033a.049.049,0,0,1,.009.094c.031.012.035.05.061.066C214.772,298.67,214.726,298.55,214.747,298.495Zm-.141.075c0,.018.015.028.033.038C214.718,298.572,214.609,298.495,214.606,298.57Z" transform="translate(-213.817 -295.332)" fill="#eebc31"/>
    <path id="Path_45826" data-name="Path 45826" d="M225.879,298.495c.015.032-.005.107-.01.15A.391.391,0,0,1,225.879,298.495Z" transform="translate(-224.887 -295.332)" fill="#eebc31"/>
    <path id="Path_45827" data-name="Path 45827" d="M243.9,298.495c.031.031-.006.131.033.155.032-.01.054-.005.061-.033s-.027-.039-.009-.056c.042,0,.014.061.009.085a.321.321,0,0,1-.141.009c0-.024.028-.025.047-.033C243.913,298.581,243.885,298.528,243.9,298.495Z" transform="translate(-242.382 -295.332)" fill="#eebc31"/>
    <path id="Path_45828" data-name="Path 45828" d="M243.064,300.207c0,.027-.057.012-.038,0S243.063,300.193,243.064,300.207Z" transform="translate(-241.579 -296.989)" fill="#eebc31"/>
    <path id="Path_45829" data-name="Path 45829" d="M250.642,301.057a.255.255,0,0,1,.033-.061c-.013-.026-.065-.051-.028-.085C250.719,300.922,250.685,301.04,250.642,301.057Zm0-.122c0,.018.01.031.028.033C250.687,300.954,250.665,300.919,250.647,300.935Z" transform="translate(-248.984 -297.683)" fill="#eebc31"/>
    <path id="Path_45830" data-name="Path 45830" d="M268.431,301.3c0,.027-.034.018-.047.009C268.391,301.283,268.415,301.291,268.431,301.3Z" transform="translate(-266.25 -298.053)" fill="#eebc31"/>
    <path id="Path_45831" data-name="Path 45831" d="M227.706,301.434a.209.209,0,0,0,.178.023c.014.013.012.041.024.056a.04.04,0,0,1,.028,0c-.01-.056.068-.07.066-.009-.014.027-.056.025-.1.024-.019.011-.019.04-.038.051a.055.055,0,0,1-.042-.042.741.741,0,0,0-.15-.009c-.019.022-.037.068-.066.066.014-.024.04-.035.047-.066-.009-.018-.042-.032-.024-.061.045-.007.023.052.061.052C227.732,301.5,227.7,301.46,227.706,301.434Zm.014.08c.025,0,.069,0,.1,0,.015.012.016.037.038.042.015-.02.042-.059.019-.089C227.828,301.515,227.715,301.416,227.72,301.514Zm.235,0c.024,0,.033-.007.033-.028C227.97,301.457,227.938,301.485,227.955,301.509Z" transform="translate(-226.583 -298.192)" fill="#eebc31"/>
    <path id="Path_45832" data-name="Path 45832" d="M205.716,302.264c.015,0,.015.007.023.01a.077.077,0,0,1-.009.033C205.7,302.3,205.7,302.279,205.716,302.264Z" transform="translate(-205.279 -298.998)" fill="#eebc31"/>
    <path id="Path_45833" data-name="Path 45833" d="M207.444,302.954c.02.033-.028.05-.042.023C207.4,302.958,207.419,302.95,207.444,302.954Z" transform="translate(-206.927 -299.669)" fill="#eebc31"/>
    <path id="Path_45834" data-name="Path 45834" d="M210.027,303.424s0,.006,0,.01h-.033C209.967,303.395,210.029,303.381,210.027,303.424Z" transform="translate(-209.44 -300.101)" fill="#eebc31"/>
    <path id="Path_45835" data-name="Path 45835" d="M245.059,305.406c.025,0,.022.041,0,.047S245.046,305.414,245.059,305.406Z" transform="translate(-243.55 -302.055)" fill="#eebc31"/>
    <path id="Path_45836" data-name="Path 45836" d="M246.652,305.578c-.014-.005-.028-.01-.033-.023C246.633,305.51,246.691,305.55,246.652,305.578Z" transform="translate(-245.077 -302.181)" fill="#eebc31"/>
    <path id="Path_45837" data-name="Path 45837" d="M205.744,294.7h.014c0,.065-.1.175.014.183.018-.012.008-.051.033-.056,0,.025-.01.034-.014.052.021.06.13.026.085-.042.053,0,.011.057,0,.08a.108.108,0,0,1-.1-.019c-.052,0-.1-.015-.1-.066C205.725,294.812,205.735,294.756,205.744,294.7Z" transform="translate(-205.25 -291.64)" fill="#eebc31"/>
  </g>
</svg>
