<svg id="svgexport-6_13_" data-name="svgexport-6 (13)" xmlns="http://www.w3.org/2000/svg" width="12.742" height="12.742" viewBox="0 0 12.742 12.742">
  <g id="Group_15707" data-name="Group 15707" transform="translate(0.21 0.255)">
    <path id="Path_45764" data-name="Path 45764" d="M8.706,102.641a6.344,6.344,0,0,0-.912,1.986h2.9Z" transform="translate(-7.794 -100.135)" fill="#29337a"/>
    <path id="Path_45765" data-name="Path 45765" d="M97.71,9.48a6.348,6.348,0,0,0-2.013,1l2.013,2.013Z" transform="translate(-93.332 -9.48)" fill="#29337a"/>
    <path id="Path_45766" data-name="Path 45766" d="M101.261,363.606a6.339,6.339,0,0,0,1.863.893v-2.756Z" transform="translate(-98.747 -352.267)" fill="#29337a"/>
    <path id="Path_45767" data-name="Path 45767" d="M10.512,306.771a6.347,6.347,0,0,0,.946,1.879l1.879-1.879Z" transform="translate(-10.439 -298.774)" fill="#29337a"/>
  </g>
  <g id="Group_15708" data-name="Group 15708" transform="translate(0.093 0.121)">
    <path id="Path_45768" data-name="Path 45768" d="M4.582,97.144q-.053.073-.105.148l1.986,1.986h-2.9c-.047.179-.085.361-.117.546H7.262Z" transform="translate(-3.448 -94.652)" fill="#fff"/>
    <path id="Path_45769" data-name="Path 45769" d="M95.767,334.606c.048.036.1.07.148.105l1.863-1.863V335.6c.179.052.361.1.546.134V332.05Z" transform="translate(-93.284 -323.239)" fill="#fff"/>
    <path id="Path_45770" data-name="Path 45770" d="M5.25,286.487c.04.185.086.367.141.546H8.216l-1.879,1.879a6.415,6.415,0,0,0,.677.783l3.208-3.208Z" transform="translate(-5.202 -278.901)" fill="#fff"/>
    <path id="Path_45771" data-name="Path 45771" d="M69.6,4.64V7.652L67.585,5.64a6.408,6.408,0,0,0-.777.683l3.335,3.335V4.506C69.958,4.543,69.777,4.588,69.6,4.64Z" transform="translate(-65.104 -4.506)" fill="#fff"/>
  </g>
  <g id="Group_15709" data-name="Group 15709" transform="translate(4.568 4.728)">
    <path id="Path_45772" data-name="Path 45772" d="M169.819,306.056l-.019.019h.019Z" transform="translate(-169.8 -302.551)" fill="#d32030"/>
    <path id="Path_45773" data-name="Path 45773" d="M190.084,285.792h.019v-.019Z" transform="translate(-189.538 -282.813)" fill="#d32030"/>
    <path id="Path_45774" data-name="Path 45774" d="M280.563,196.737h-.018v.019Z" transform="translate(-277.566 -196.173)" fill="#d32030"/>
    <path id="Path_45775" data-name="Path 45775" d="M170.53,175.773l-.019-.019v.019Z" transform="translate(-170.492 -175.754)" fill="#d32030"/>
    <path id="Path_45776" data-name="Path 45776" d="M190.794,196.037v.019h.019Z" transform="translate(-190.229 -195.491)" fill="#d32030"/>
  </g>
  <g id="Group_15710" data-name="Group 15710" transform="translate(8.092 0.237)">
    <path id="Path_45777" data-name="Path 45777" d="M300.825,375.436v1.428a6.335,6.335,0,0,0,1.889-.885l-1.548-1.547A5.016,5.016,0,0,1,300.825,375.436Z" transform="translate(-300.825 -364.597)" fill="#252f6c"/>
    <path id="Path_45778" data-name="Path 45778" d="M301.173,11.5l1.689-1.689a6.347,6.347,0,0,0-2.039-.991v1.467A5.647,5.647,0,0,1,301.173,11.5Z" transform="translate(-300.824 -8.818)" fill="#252f6c"/>
    <path id="Path_45779" data-name="Path 45779" d="M357.732,308.687a6.353,6.353,0,0,0,.972-1.916h-2.888Z" transform="translate(-354.337 -298.756)" fill="#252f6c"/>
    <path id="Path_45780" data-name="Path 45780" d="M358.751,103.288a6.341,6.341,0,0,0-.939-2.023l-2.023,2.023Z" transform="translate(-354.31 -98.778)" fill="#252f6c"/>
  </g>
  <g id="Group_15711" data-name="Group 15711" transform="translate(7.547 0.11)">
    <path id="Path_45781" data-name="Path 45781" d="M327.638,286.6l.438.438,2.1,2.1c.048-.06.095-.119.14-.18l-1.916-1.916h2.888q.083-.268.141-.546h-3.746C327.673,286.568,327.645,286.522,327.638,286.6Z" transform="translate(-326.371 -278.894)" fill="#e7e7e7"/>
    <path id="Path_45782" data-name="Path 45782" d="M311.287,47.681l1.9-1.9c-.048-.037-.1-.074-.144-.109l-1.689,1.689C311.37,47.428,311.27,47.612,311.287,47.681Z" transform="translate(-310.458 -44.553)" fill="#e7e7e7"/>
    <path id="Path_45783" data-name="Path 45783" d="M281.087,5.564V4.214q-.268-.075-.546-.127v.658A3.525,3.525,0,0,1,281.087,5.564Z" transform="translate(-280.541 -4.087)" fill="#e7e7e7"/>
    <path id="Path_45784" data-name="Path 45784" d="M321.824,74.932H325.7c-.031-.185-.07-.367-.117-.546h-2.962l2.023-2.023a6.4,6.4,0,0,0-.661-.8l-2.279,2.278C321.768,74.257,321.8,74.5,321.824,74.932Z" transform="translate(-320.6 -69.75)" fill="#e7e7e7"/>
    <path id="Path_45785" data-name="Path 45785" d="M310.088,329.736l1.64,1.64a6.392,6.392,0,0,0,.769-.624l-2.157-2.157A11.066,11.066,0,0,1,310.088,329.736Z" transform="translate(-309.293 -319.865)" fill="#e7e7e7"/>
    <path id="Path_45786" data-name="Path 45786" d="M280.545,412.585v.734q.277-.052.546-.127v-1.428A3.545,3.545,0,0,1,280.545,412.585Z" transform="translate(-280.545 -400.796)" fill="#e7e7e7"/>
  </g>
  <path id="Path_45787" data-name="Path 45787" d="M315.575,52.6l2.278-2.278a6.37,6.37,0,0,0-.658-.587l-1.79,1.791C315.485,51.856,315.521,52.237,315.575,52.6Z" transform="translate(-306.92 -48.395)" fill="#d71f28"/>
  <g id="Group_15712" data-name="Group 15712" transform="translate(6.053)">
    <path id="Path_45788" data-name="Path 45788" d="M225.019.008q.159-.008.318-.008Q225.177,0,225.019.008Z" transform="translate(-225.019)" fill="#d32030"/>
    <path id="Path_45789" data-name="Path 45789" d="M225.344,473.389c-.106,0-.212,0-.318-.008Q225.184,473.389,225.344,473.389Z" transform="translate(-225.026 -460.647)" fill="#d32030"/>
    <path id="Path_45790" data-name="Path 45790" d="M236.836,443.145a6.384,6.384,0,0,0,1.176-.11V442.3C237.677,442.664,237.286,443.145,236.836,443.145Z" transform="translate(-236.518 -430.403)" fill="#d32030"/>
  </g>
  <g id="Group_15713" data-name="Group 15713" transform="translate(8.594 5.292)">
    <path id="Path_45791" data-name="Path 45791" d="M331.077,196.737h-3.829a17.123,17.123,0,0,1-.018,2.414h3.8a6.357,6.357,0,0,0,.048-2.414Z" transform="translate(-327.021 -196.737)" fill="#d71f28"/>
    <path id="Path_45792" data-name="Path 45792" d="M319.676,290.5c-.035.376-.159.67-.22,1.025l2.157,2.157a6.433,6.433,0,0,0,.6-.648l-2.1-2.1Z" transform="translate(-319.456 -287.978)" fill="#d71f28"/>
  </g>
  <path id="Path_45793" data-name="Path 45793" d="M238.012.816V.11A6.4,6.4,0,0,0,236.836,0C237.286,0,237.677.453,238.012.816Z" transform="translate(-230.465)" fill="#d32030"/>
  <g id="Group_15714" data-name="Group 15714" transform="translate(8.093 1.39)">
    <path id="Path_45794" data-name="Path 45794" d="M300.825,363.372a6.865,6.865,0,0,0,.444-1.177l-.444-.444Z" transform="translate(-300.825 -353.41)" fill="#29337a"/>
    <path id="Path_45795" data-name="Path 45795" d="M301.324,53.055a7.168,7.168,0,0,0-.5-1.378v1.877Z" transform="translate(-300.825 -51.677)" fill="#29337a"/>
  </g>
  <g id="Group_15715" data-name="Group 15715" transform="translate(7.547 0.572)">
    <path id="Path_45796" data-name="Path 45796" d="M323.86,286.718c.007-.077.014-.154.02-.231h-.251Z" transform="translate(-322.47 -279.352)" fill="#fff"/>
    <path id="Path_45797" data-name="Path 45797" d="M281.087,23.941V22.064a3.525,3.525,0,0,0-.546-.819V24.74l1.1-1.1c-.016-.068-.034-.135-.051-.2Z" transform="translate(-280.541 -21.245)" fill="#fff"/>
    <path id="Path_45798" data-name="Path 45798" d="M281.229,150.532h1.41c-.028-.436-.072-.864-.133-1.277Z" transform="translate(-281.211 -145.811)" fill="#fff"/>
    <path id="Path_45799" data-name="Path 45799" d="M280.545,294.059a3.528,3.528,0,0,0,.546-.819V291.62l.444.444a11,11,0,0,0,.256-1.137l-1.246-1.246v4.378Z" transform="translate(-280.545 -282.46)" fill="#fff"/>
  </g>
  <path id="Path_45800" data-name="Path 45800" d="M7.547,12.171V7.793L8.793,9.038c.061-.355.109-.724.145-1.1l-.231-.231h.251a17.129,17.129,0,0,0,.018-2.414H7.565L8.843,4.015c-.054-.362-.12-.712-.2-1.045l-1.1,1.1V.572A1.583,1.583,0,0,0,6.371,0q-.159,0-.318.008a6.414,6.414,0,0,0-.921.113V5.274L1.8,1.938a6.433,6.433,0,0,0-.57.675L3.361,4.747l.546.546H.093A6.356,6.356,0,0,0,.141,7.707H5.113L1.906,10.914a6.417,6.417,0,0,0,.67.574L5.132,8.932v3.689a6.419,6.419,0,0,0,.921.113c.106.005.212.008.318.008A1.583,1.583,0,0,0,7.547,12.171Z" fill="#e51d35"/>
</svg>
