<svg xmlns="http://www.w3.org/2000/svg" width="15.349" height="15.349" viewBox="0 0 15.349 15.349">
  <g id="Icon_feather-copy" data-name="Icon feather-copy" transform="translate(0.75 0.75)">
    <path id="Path_2856" data-name="Path 2856" d="M14.985,13.5h6.682a1.485,1.485,0,0,1,1.485,1.485v6.682a1.485,1.485,0,0,1-1.485,1.485H14.985A1.485,1.485,0,0,1,13.5,21.667V14.985A1.485,1.485,0,0,1,14.985,13.5Z" transform="translate(-9.303 -9.303)" fill="none" stroke="#ff002a" stroke-width="1.5"/>
    <path id="Path_2857" data-name="Path 2857" d="M5.227,12.652H4.485A1.485,1.485,0,0,1,3,11.167V4.485A1.485,1.485,0,0,1,4.485,3h6.682a1.485,1.485,0,0,1,1.485,1.485v.742" transform="translate(-3 -3)" fill="none" stroke="#ff002a" stroke-width="1.5"/>
  </g>
</svg>
