<svg id="Icon_MasterCard" xmlns="http://www.w3.org/2000/svg" width="31.5" height="22.5" viewBox="0 0 31.5 22.5">
  <path id="Path_68" data-name="Path 68" d="M34.5,28.5a3,3,0,0,1-3,3H6a3,3,0,0,1-3-3V12A3,3,0,0,1,6,9H31.5a3,3,0,0,1,3,3Z" transform="translate(-3 -9)" fill="rgba(13,24,99,0.1)"/>
  <g id="Group_14031" data-name="Group 14031">
    <path id="Path_69" data-name="Path 69" d="M35,21.5A7.5,7.5,0,1,1,27.5,14,7.5,7.5,0,0,1,35,21.5Z" transform="translate(-7.25 -10.25)" fill="#ffc107"/>
    <path id="Path_70" data-name="Path 70" d="M18.262,26a7.47,7.47,0,0,1-.882-1.5h3.993a7.46,7.46,0,0,0,.478-1.5H16.9a7.422,7.422,0,0,1-.152-1.5H22a7.638,7.638,0,0,0-.149-1.5H16.9a7.472,7.472,0,0,1,.48-1.5h3.993a7.47,7.47,0,0,0-.882-1.5h-2.23a7.525,7.525,0,0,1,1.11-1.2A7.5,7.5,0,1,0,20.488,26Z" transform="translate(-4 -10.25)" fill="#ff3d00"/>
  </g>
</svg>
