<svg id="Iconly_Bold_Wallet" data-name="Iconly/Bold/Wallet" xmlns="http://www.w3.org/2000/svg" width="20" height="18" viewBox="0 0 20 18">
  <g id="Wallet">
    <path id="Wallet-2" data-name="Wallet" d="M14.516,18H5.485a5.639,5.639,0,0,1-4.036-1.411A5.319,5.319,0,0,1,0,12.662V5.339A5.321,5.321,0,0,1,1.449,1.412,5.639,5.639,0,0,1,5.485,0h9.032a5.618,5.618,0,0,1,4.035,1.417A5.391,5.391,0,0,1,20,5.382H15.769v.035a3.515,3.515,0,0,0-3.555,3.466,3.516,3.516,0,0,0,3.555,3.467H20v.312a5.32,5.32,0,0,1-1.449,3.926A5.638,5.638,0,0,1,14.516,18ZM4.738,3.892a.757.757,0,0,0-.764.736.766.766,0,0,0,.764.754h5.645a.745.745,0,1,0,0-1.49Zm14.516,6.968H15.821A2.1,2.1,0,0,1,13.76,9.265a1.983,1.983,0,0,1,.433-1.652,2.092,2.092,0,0,1,1.576-.74h3.485A.738.738,0,0,1,20,7.6v2.531A.741.741,0,0,1,19.254,10.859ZM15.913,8.042a.764.764,0,0,0-.533.213.731.731,0,0,0-.224.524.767.767,0,0,0,.764.754h.329a.746.746,0,1,0,0-1.491h-.337Z" fill="#524c72"/>
  </g>
</svg>
