<svg xmlns="http://www.w3.org/2000/svg" width="27" height="27" viewBox="0 0 27 27">
  <path id="Fill_985" data-name="Fill 985" d="M5.523,0A5.523,5.523,0,0,0,3.272,10.566L9.6,13.5,3.272,16.433a5.522,5.522,0,1,0,5.129.329l4.123-1.91,12.733,5.9a1.211,1.211,0,0,0,.515.115,1.231,1.231,0,0,0,1.113-.712,1.224,1.224,0,0,0-.6-1.628L15.443,13.5,26.288,8.476a1.225,1.225,0,0,0,.6-1.628,1.232,1.232,0,0,0-1.114-.713,1.212,1.212,0,0,0-.514.114l-12.733,5.9L8.4,10.237A5.523,5.523,0,0,0,5.523,0Zm0,8.59A3.068,3.068,0,1,1,8.591,5.523,3.071,3.071,0,0,1,5.523,8.59Zm0,15.955a3.068,3.068,0,1,1,3.068-3.068A3.072,3.072,0,0,1,5.523,24.546Z" transform="translate(0 27) rotate(-90)" fill="#bfbfbf"/>
</svg>
