<svg xmlns="http://www.w3.org/2000/svg" width="20" height="19" viewBox="0 0 20 19">
  <g id="Iconly_Bold_Login" data-name="Iconly/Bold/Login" transform="translate(0 19) rotate(-90)">
    <g id="Login">
      <path id="Login-2" data-name="Login" d="M9.375,20a4.522,4.522,0,0,1-4.585-4.43v-4.8H.781a.77.77,0,1,1,0-1.54h4.01v1.54h6.4l-1.652,1.6a.756.756,0,0,0,0,1.09.831.831,0,0,0,1.126,0l3.015-2.911a.744.744,0,0,0,0-1.09L10.667,6.55a.817.817,0,0,0-1.126,0,.756.756,0,0,0,0,1.09l1.652,1.59h-6.4V4.451A4.535,4.535,0,0,1,9.386,0h5.039A4.521,4.521,0,0,1,19,4.441V15.56A4.519,4.519,0,0,1,14.4,20Z" fill="#02a707"/>
    </g>
  </g>
</svg>
