<svg xmlns="http://www.w3.org/2000/svg" width="300" height="263" viewBox="0 0 300 263">
  <g id="Group_11180" data-name="Group 11180" transform="translate(-17 -133)">
    <g id="Pattern_Success" data-name="Pattern Success" transform="translate(17 133)">
      <g id="Path_Pattern_Success_25" data-name="Path Pattern Success 25" transform="translate(283.715 221.157)">
        <ellipse id="Path_Pattern_Success_25-2" data-name="Path Pattern Success 25" cx="8" cy="8.5" rx="8" ry="8.5" transform="translate(0.285 -0.157)" fill="#04043f"/>
        <ellipse id="Path_Pattern_Success_25-3" data-name="Path Pattern Success 25" cx="8" cy="8.5" rx="8" ry="8.5" transform="translate(0.285 -0.157)" fill="none"/>
      </g>
      <g id="Path_Pattern_Success_24" data-name="Path Pattern Success 24" transform="translate(0 109.257)">
        <circle id="Path_Pattern_Success_24-2" data-name="Path Pattern Success 24" cx="8.5" cy="8.5" r="8.5" transform="translate(0 -0.257)" fill="#04043f"/>
        <circle id="Path_Pattern_Success_24-3" data-name="Path Pattern Success 24" cx="8.5" cy="8.5" r="8.5" transform="translate(0 -0.257)" fill="none"/>
      </g>
      <g id="Path_Pattern_Success_23" data-name="Path Pattern Success 23" transform="translate(233.492 213.227)">
        <circle id="Path_Pattern_Success_23-2" data-name="Path Pattern Success 23" cx="4" cy="4" r="4" transform="translate(-0.492 -0.227)" fill="#04043f"/>
        <circle id="Path_Pattern_Success_23-3" data-name="Path Pattern Success 23" cx="4" cy="4" r="4" transform="translate(-0.492 -0.227)" fill="none"/>
      </g>
      <g id="Path_Pattern_Success_22" data-name="Path Pattern Success 22" transform="translate(245.827 189.437)">
        <ellipse id="Path_Pattern_Success_22-2" data-name="Path Pattern Success 22" cx="3" cy="3.5" rx="3" ry="3.5" transform="translate(0.173 -0.437)" fill="#04043f"/>
        <ellipse id="Path_Pattern_Success_22-3" data-name="Path Pattern Success 22" cx="3" cy="3.5" rx="3" ry="3.5" transform="translate(0.173 -0.437)" fill="none"/>
      </g>
      <g id="Path_Pattern_Success_21" data-name="Path Pattern Success 21" transform="translate(239.66 151.55)">
        <circle id="Path_Pattern_Success_21-2" data-name="Path Pattern Success 21" cx="3" cy="3" r="3" transform="translate(0.34 0.451)" fill="#04043f"/>
        <circle id="Path_Pattern_Success_21-3" data-name="Path Pattern Success 21" cx="3" cy="3" r="3" transform="translate(0.34 0.451)" fill="none"/>
      </g>
      <g id="Path_Pattern_Success_20" data-name="Path Pattern Success 20" transform="translate(224.681 205.297)">
        <ellipse id="Path_Pattern_Success_20-2" data-name="Path Pattern Success 20" cx="2.5" cy="3" rx="2.5" ry="3" transform="translate(0.319 -0.297)" fill="#04043f"/>
        <ellipse id="Path_Pattern_Success_20-3" data-name="Path Pattern Success 20" cx="2.5" cy="3" rx="2.5" ry="3" transform="translate(0.319 -0.297)" fill="none"/>
      </g>
      <g id="Path_Pattern_Success_19" data-name="Path Pattern Success 19" transform="translate(211.465 244.946)">
        <ellipse id="Path_Pattern_Success_19-2" data-name="Path Pattern Success 19" cx="2" cy="1.5" rx="2" ry="1.5" transform="translate(-0.465 0.054)" fill="#04043f"/>
        <ellipse id="Path_Pattern_Success_19-3" data-name="Path Pattern Success 19" cx="2" cy="1.5" rx="2" ry="1.5" transform="translate(-0.465 0.054)" fill="none"/>
      </g>
      <g id="Path_Pattern_Success_18" data-name="Path Pattern Success 18" transform="translate(219.395 91.635)">
        <ellipse id="Path_Pattern_Success_18-2" data-name="Path Pattern Success 18" cx="2" cy="1.5" rx="2" ry="1.5" transform="translate(-0.396 0.365)" fill="#04043f"/>
        <ellipse id="Path_Pattern_Success_18-3" data-name="Path Pattern Success 18" cx="2" cy="1.5" rx="2" ry="1.5" transform="translate(-0.396 0.365)" fill="none"/>
      </g>
      <g id="Path_Pattern_Success_17" data-name="Path Pattern Success 17" transform="translate(277.547 120.711)">
        <circle id="Path_Pattern_Success_17-2" data-name="Path Pattern Success 17" cx="1.5" cy="1.5" r="1.5" transform="translate(0.453 0.289)" fill="#04043f"/>
        <circle id="Path_Pattern_Success_17-3" data-name="Path Pattern Success 17" cx="1.5" cy="1.5" r="1.5" transform="translate(0.453 0.289)" fill="none"/>
      </g>
      <g id="Path_Pattern_Success_16" data-name="Path Pattern Success 16" transform="translate(171.815 64.32)">
        <ellipse id="Path_Pattern_Success_16-2" data-name="Path Pattern Success 16" cx="1.5" cy="2" rx="1.5" ry="2" transform="translate(0.185 -0.32)" fill="#04043f"/>
        <ellipse id="Path_Pattern_Success_16-3" data-name="Path Pattern Success 16" cx="1.5" cy="2" rx="1.5" ry="2" transform="translate(0.185 -0.32)" fill="none"/>
      </g>
      <g id="Path_Pattern_Success_15" data-name="Path Pattern Success 15" transform="translate(112.782 63.439)">
        <ellipse id="Path_Pattern_Success_15-2" data-name="Path Pattern Success 15" cx="3" cy="3.5" rx="3" ry="3.5" transform="translate(0.219 -0.439)" fill="#04043f"/>
        <ellipse id="Path_Pattern_Success_15-3" data-name="Path Pattern Success 15" cx="3" cy="3.5" rx="3" ry="3.5" transform="translate(0.219 -0.439)" fill="none"/>
      </g>
      <g id="Path_Pattern_Success_14" data-name="Path Pattern Success 14" transform="translate(53.748 62.558)">
        <ellipse id="Path_Pattern_Success_14-2" data-name="Path Pattern Success 14" cx="4.5" cy="4" rx="4.5" ry="4" transform="translate(0.252 0.442)" fill="#04043f"/>
        <ellipse id="Path_Pattern_Success_14-3" data-name="Path Pattern Success 14" cx="4.5" cy="4" rx="4.5" ry="4" transform="translate(0.252 0.442)" fill="none"/>
      </g>
      <g id="Path_Pattern_Success_13" data-name="Path Pattern Success 13" transform="translate(83.705 48.461)">
        <ellipse id="Path_Pattern_Success_13-2" data-name="Path Pattern Success 13" cx="3" cy="3.5" rx="3" ry="3.5" transform="translate(0.295 -0.46)" fill="#04043f"/>
        <ellipse id="Path_Pattern_Success_13-3" data-name="Path Pattern Success 13" cx="3" cy="3.5" rx="3" ry="3.5" transform="translate(0.295 -0.46)" fill="none"/>
      </g>
      <g id="Path_Pattern_Success_12" data-name="Path Pattern Success 12" transform="translate(35.244 17.622)">
        <ellipse id="Path_Pattern_Success_12-2" data-name="Path Pattern Success 12" cx="3" cy="2.5" rx="3" ry="2.5" transform="translate(-0.244 0.378)" fill="#04043f"/>
        <ellipse id="Path_Pattern_Success_12-3" data-name="Path Pattern Success 12" cx="3" cy="2.5" rx="3" ry="2.5" transform="translate(-0.244 0.378)" fill="none"/>
      </g>
      <g id="Path_Pattern_Success_11" data-name="Path Pattern Success 11" transform="translate(46.698 148.906)">
        <circle id="Path_Pattern_Success_11-2" data-name="Path Pattern Success 11" cx="2.5" cy="2.5" r="2.5" transform="translate(0.302 0.094)" fill="#04043f"/>
        <circle id="Path_Pattern_Success_11-3" data-name="Path Pattern Success 11" cx="2.5" cy="2.5" r="2.5" transform="translate(0.302 0.094)" fill="none"/>
      </g>
      <g id="Path_Pattern_Success_10" data-name="Path Pattern Success 10" transform="translate(72.25 210.583)">
        <ellipse id="Path_Pattern_Success_10-2" data-name="Path Pattern Success 10" cx="3" cy="2.5" rx="3" ry="2.5" transform="translate(-0.25 0.417)" fill="#04043f"/>
        <ellipse id="Path_Pattern_Success_10-3" data-name="Path Pattern Success 10" cx="3" cy="2.5" rx="3" ry="2.5" transform="translate(-0.25 0.417)" fill="none"/>
      </g>
      <g id="Path_Pattern_Success_9" data-name="Path Pattern Success 9" transform="translate(42.293 253.757)">
        <circle id="Path_Pattern_Success_9-2" data-name="Path Pattern Success 9" cx="4.5" cy="4.5" r="4.5" transform="translate(-0.293 0.243)" fill="#04043f"/>
        <circle id="Path_Pattern_Success_9-3" data-name="Path Pattern Success 9" cx="4.5" cy="4.5" r="4.5" transform="translate(-0.293 0.243)" fill="none"/>
      </g>
      <g id="Path_Pattern_Success_8" data-name="Path Pattern Success 8" transform="translate(111.9 257.282)">
        <ellipse id="Path_Pattern_Success_8-2" data-name="Path Pattern Success 8" cx="2.5" cy="3" rx="2.5" ry="3" transform="translate(0.101 -0.282)" fill="#04043f"/>
        <ellipse id="Path_Pattern_Success_8-3" data-name="Path Pattern Success 8" cx="2.5" cy="3" rx="2.5" ry="3" transform="translate(0.101 -0.282)" fill="none"/>
      </g>
      <g id="Path_Pattern_Success_7" data-name="Path Pattern Success 7" transform="translate(53.747 194.724)">
        <circle id="Path_Pattern_Success_7-2" data-name="Path Pattern Success 7" cx="1.5" cy="1.5" r="1.5" transform="translate(0.253 0.276)" fill="#04043f"/>
        <circle id="Path_Pattern_Success_7-3" data-name="Path Pattern Success 7" cx="1.5" cy="1.5" r="1.5" transform="translate(0.253 0.276)" fill="none"/>
      </g>
      <g id="Path_Pattern_Success_6" data-name="Path Pattern Success 6" transform="translate(153.312 41.412)">
        <circle id="Path_Pattern_Success_6-2" data-name="Path Pattern Success 6" cx="4.5" cy="4.5" r="4.5" transform="translate(-0.313 -0.412)" fill="#04043f"/>
        <circle id="Path_Pattern_Success_6-3" data-name="Path Pattern Success 6" cx="4.5" cy="4.5" r="4.5" transform="translate(-0.313 -0.412)" fill="none"/>
      </g>
      <g id="Path_Pattern_Success_5" data-name="Path Pattern Success 5" transform="translate(146.263)">
        <circle id="Path_Pattern_Success_5-2" data-name="Path Pattern Success 5" cx="4.5" cy="4.5" r="4.5" transform="translate(-0.263)" fill="#04043f"/>
        <circle id="Path_Pattern_Success_5-3" data-name="Path Pattern Success 5" cx="4.5" cy="4.5" r="4.5" transform="translate(-0.263)" fill="none"/>
      </g>
      <g id="Path_Pattern_Success_4" data-name="Path Pattern Success 4" transform="translate(171.815 16.741)">
        <circle id="Path_Pattern_Success_4-2" data-name="Path Pattern Success 4" cx="3" cy="3" r="3" transform="translate(0.185 0.259)" fill="#04043f"/>
        <circle id="Path_Pattern_Success_4-3" data-name="Path Pattern Success 4" cx="3" cy="3" r="3" transform="translate(0.185 0.259)" fill="none"/>
      </g>
      <g id="Path_Pattern_Success_3" data-name="Path Pattern Success 3" transform="translate(237.897 38.768)">
        <circle id="Path_Pattern_Success_3-2" data-name="Path Pattern Success 3" cx="3" cy="3" r="3" transform="translate(0.103 0.231)" fill="#04043f"/>
        <circle id="Path_Pattern_Success_3-3" data-name="Path Pattern Success 3" cx="3" cy="3" r="3" transform="translate(0.103 0.231)" fill="none"/>
      </g>
      <g id="Path_Pattern_Success_2" data-name="Path Pattern Success 2" transform="translate(232.61 67.845)">
        <circle id="Path_Pattern_Success_2-2" data-name="Path Pattern Success 2" cx="2.5" cy="2.5" r="2.5" transform="translate(0.39 0.155)" fill="#04043f"/>
        <circle id="Path_Pattern_Success_2-3" data-name="Path Pattern Success 2" cx="2.5" cy="2.5" r="2.5" transform="translate(0.39 0.155)" fill="none"/>
      </g>
      <g id="Path_Pattern_Success_1" data-name="Path Pattern Success 1" transform="translate(274.023 103.97)">
        <circle id="Path_Pattern_Success_1-2" data-name="Path Pattern Success 1" cx="2.5" cy="2.5" r="2.5" transform="translate(-0.022 0.03)" fill="#04043f"/>
        <circle id="Path_Pattern_Success_1-3" data-name="Path Pattern Success 1" cx="2.5" cy="2.5" r="2.5" transform="translate(-0.022 0.03)" fill="none"/>
      </g>
    </g>
    <g id="svgexport-6_37_" data-name="svgexport-6 (37)" transform="translate(100 197)">
      <g id="Group_14850" data-name="Group 14850" transform="translate(0 0)">
        <g id="Group_14849" data-name="Group 14849">
          <path id="Path_44782" data-name="Path 44782" d="M120.566,42.084H98.151a9.731,9.731,0,0,0,7.55-10.62,9.758,9.758,0,0,0,6.279-12.272A9.733,9.733,0,0,0,109.68,0h-10.8A25.352,25.352,0,0,0,73.591,25.288v16.8H60.415c0-2.662.01-4.967.016-6.963.006-2.016.012-3.724.011-5.187,0-7.047-.15-8.693-1.041-11.74A25.429,25.429,0,0,0,35.127,0h-10.8A9.73,9.73,0,0,0,14.6,9.9a9.82,9.82,0,0,0,7.442,9.262,9.759,9.759,0,0,0,6.268,12.3,9.729,9.729,0,0,0,7.552,10.62H23.987a1.963,1.963,0,1,0,0,3.926h96.578a9.514,9.514,0,0,1,9.514,9.516v65.04a9.513,9.513,0,0,1-9.514,9.514H13.442a9.513,9.513,0,0,1-9.516-9.514V55.526a9.513,9.513,0,0,1,9.516-9.516h2.693a1.962,1.962,0,0,0,0-3.923s0,0,0,0H13.442A13.44,13.44,0,0,0,0,55.526v65.04a13.44,13.44,0,0,0,13.442,13.44H120.566a13.438,13.438,0,0,0,13.44-13.44V55.526a13.439,13.439,0,0,0-13.44-13.442Zm-43.048-16.8A21.421,21.421,0,0,1,98.879,3.927h10.8a5.807,5.807,0,0,1,0,11.613h-9.9a1.963,1.963,0,0,0,0,3.926h8.052a5.792,5.792,0,0,1-4.6,8.506H99.777a1.963,1.963,0,0,0,0,3.926h2.016a5.8,5.8,0,0,1-5.762,6.5H94.782a5.656,5.656,0,0,0-5.292,3.688H77.518ZM39.223,38.4H37.974a5.8,5.8,0,0,1-5.762-6.5h2.016a1.963,1.963,0,1,0,0-3.926H30.78a5.793,5.793,0,0,1-4.6-8.506h8.052a1.963,1.963,0,1,0,0-3.926H24.49A5.917,5.917,0,0,1,18.52,9.832a5.806,5.806,0,0,1,5.805-5.906h10.8A21.477,21.477,0,0,1,55.633,19.3c.724,2.474.88,3.662.884,10.639,0,1.46,0,3.163-.011,5.173s-.013,4.308-.016,6.975H44.516A5.657,5.657,0,0,0,39.223,38.4Z" transform="translate(0 0)" fill="#04043f"/>
          <path id="Path_44783" data-name="Path 44783" d="M128.674,30a1.963,1.963,0,1,0,0,3.926,13.589,13.589,0,0,1,12.971,9.724,1.963,1.963,0,1,0,3.768-1.1A17.537,17.537,0,0,0,128.674,30Z" transform="translate(-93.547 -22.148)" fill="#04043f"/>
          <path id="Path_44784" data-name="Path 44784" d="M321.807,41.757a1.963,1.963,0,0,0-1.988-3.385,17.53,17.53,0,0,0-8.645,15.045,1.963,1.963,0,0,0,3.926,0A13.59,13.59,0,0,1,321.807,41.757Z" transform="translate(-229.73 -28.129)" fill="#04043f"/>
          <path id="Path_44785" data-name="Path 44785" d="M153.561,246.549a1.962,1.962,0,0,0,1.811,3.481,11.406,11.406,0,0,1,5.3-1.29,1.965,1.965,0,0,0,1.963-1.963V217.12a1.966,1.966,0,0,0-1.963-1.963,11.5,11.5,0,0,1-11.5-11.5,1.967,1.967,0,0,0-1.963-1.963H118.449a7.105,7.105,0,0,0-14.2,0H75.494a1.963,1.963,0,0,0-1.963,1.963,11.512,11.512,0,0,1-11.5,11.5,1.963,1.963,0,0,0-1.963,1.963v29.658a1.963,1.963,0,0,0,1.963,1.963,11.511,11.511,0,0,1,11.5,11.5,1.963,1.963,0,0,0,1.963,1.963h28.759a7.105,7.105,0,0,0,14.2,0h28.759a1.966,1.966,0,0,0,1.963-1.963,11.354,11.354,0,0,1,1.453-5.6,1.963,1.963,0,1,0-3.426-1.916,15.335,15.335,0,0,0-1.829,5.554H123.944a19.092,19.092,0,0,0-12.593-33.455,4.893,4.893,0,1,1,4.2-7.4,7.106,7.106,0,1,0,12.181-7.322,18.6,18.6,0,0,0-3.776-4.477h21.411a15.434,15.434,0,0,0,13.338,13.34v25.979A15.3,15.3,0,0,0,153.561,246.549ZM64,244.939v-25.98A15.458,15.458,0,0,0,77.333,205.62H98.742a19.074,19.074,0,0,0,12.609,33.414,4.893,4.893,0,1,1-4.2,7.4,7.106,7.106,0,0,0-12.18,7.323,18.856,18.856,0,0,0,3.8,4.517H77.333A15.459,15.459,0,0,0,64,244.939Zm59.285-28.457a3.185,3.185,0,0,1-4.364-1.087,8.82,8.82,0,1,0-7.566,13.353,15.156,15.156,0,0,1,4.553,29.62l-.01,0a1.976,1.976,0,0,0-1.364,1.868s0,0,0,0v1.627a3.18,3.18,0,0,1-6.36,0V260.24a1.972,1.972,0,0,0-1.383-1.876,15.215,15.215,0,0,1-8.454-6.627,3.18,3.18,0,0,1,5.451-3.277,8.82,8.82,0,1,0,7.566-13.352,15.2,15.2,0,0,1-15.18-15.179,15.031,15.031,0,0,1,10.617-14.4,1.974,1.974,0,0,0,1.383-1.876v-1.631a3.18,3.18,0,0,1,6.36,0v1.625s0,0,0,0a1.979,1.979,0,0,0,1.369,1.872,15.179,15.179,0,0,1,8.468,6.59,3.183,3.183,0,0,1-1.086,4.363Z" transform="translate(-44.349 -143.904)" fill="#04043f"/>
        </g>
      </g>
    </g>
  </g>
</svg>
