<svg xmlns="http://www.w3.org/2000/svg" width="42" height="42" viewBox="0 0 42 42">
  <g id="Group_15728" data-name="Group 15728" transform="translate(-664 -594)">
    <path id="Ellipse" d="M0,21A21,21,0,1,1,21,42,21,21,0,0,1,0,21Z" transform="translate(664 594)" fill="#fff"/>
    <g id="Iconly_Bold_Arrow_-_Right_Square" data-name="Iconly/Bold/Arrow - Right Square" transform="translate(675 605)">
      <g id="Arrow_-_Right_Square" data-name="Arrow - Right Square">
        <path id="Arrow_-_Right_Square-2" data-name="Arrow - Right Square" d="M14.081,20H5.91C2.375,20,0,17.726,0,14.341V5.67C0,2.279,2.375,0,5.91,0h8.17C17.621,0,20,2.279,20,5.67v8.671C20,17.726,17.621,20,14.081,20ZM5.92,9.25a.751.751,0,0,0-.75.75.742.742,0,0,0,.75.751h6.35L9.79,13.22a.766.766,0,0,0-.221.53.792.792,0,0,0,.221.53.755.755,0,0,0,1.06,0l3.77-3.75a.77.77,0,0,0,0-1.06L10.851,5.72a.755.755,0,0,0-1.06,0,.767.767,0,0,0,0,1.07l2.48,2.46Z" transform="translate(0 0)" fill="#011447"/>
      </g>
    </g>
  </g>
</svg>
