<svg xmlns="http://www.w3.org/2000/svg" width="31.5" height="22.5" viewBox="0 0 31.5 22.5">
  <g id="Icon_MasterCard" transform="translate(-0.5)">
    <path id="Path_68" data-name="Path 68" d="M34.5,28.5a3,3,0,0,1-3,3H6a3,3,0,0,1-3-3V12A3,3,0,0,1,6,9H31.5a3,3,0,0,1,3,3Z" transform="translate(-2.5 -9)" fill="rgba(13,24,99,0.1)"/>
    <g id="Group" transform="translate(3.5 7)">
      <g id="Group-2" data-name="Group" transform="translate(2.242)">
        <g id="Group-3" data-name="Group">
          <path id="Vector" d="M7.568,0l-1.2,7.5H8.288L9.492,0Zm5.807,3.053c-.673-.332-1.085-.556-1.085-.9.008-.309.349-.625,1.109-.625a3.35,3.35,0,0,1,1.434.278l.175.078L15.269.319A4.859,4.859,0,0,0,13.541.01c-1.9,0-3.24.988-3.248,2.4-.016,1.043.958,1.622,1.688,1.97.745.356,1,.587,1,.9-.008.486-.6.71-1.156.71a3.915,3.915,0,0,1-1.807-.386l-.254-.115-.269,1.63a6.012,6.012,0,0,0,2.147.387c2.021,0,3.335-.974,3.352-2.48C15,4.2,14.485,3.571,13.375,3.053Zm6.83-3.03h-1.49a.954.954,0,0,0-1.007.6L14.849,7.5H16.87l.556-1.487h2.261L19.975,7.5h1.782ZM17.987,4.507c.039,0,.776-2.428.776-2.428l.587,2.428ZM4.754,0,2.868,5.093l-.205-1A5.6,5.6,0,0,0,0,1.045L1.727,7.488H3.764L6.791,0H4.754Z" fill="#2394bc"/>
        </g>
      </g>
      <path id="Vector-2" data-name="Vector" d="M4.271.965A1.258,1.258,0,0,0,3.018,0H.031L0,.139a7.333,7.333,0,0,1,4.921,4Z" transform="translate(0 0.002)" fill="#efc75e"/>
    </g>
  </g>
</svg>
