<svg xmlns="http://www.w3.org/2000/svg" width="24" height="16" viewBox="0 0 24 16">
  <path id="Fill_908" data-name="Fill 908" d="M22,16H2a2,2,0,0,1-2-2V12A2.328,2.328,0,0,1,1.655,9.89a2,2,0,0,0,0-3.78A2.328,2.328,0,0,1,0,4V2A2,2,0,0,1,2,0H22a2,2,0,0,1,2,2V4A2.328,2.328,0,0,1,22.345,6.11a2,2,0,0,0,0,3.78A2.328,2.328,0,0,1,24,12v2A2,2,0,0,1,22,16Zm-7-4a1,1,0,0,1,1,1v1h6V12l-.037-.05a.632.632,0,0,0-.272-.17,4,4,0,0,1,0-7.56.641.641,0,0,0,.272-.17L22,4V2H16V3a1,1,0,1,1-2,0V2H2V4l.037.05a.643.643,0,0,0,.273.17,4,4,0,0,1,0,7.56.634.634,0,0,0-.273.17L2,12v2H14V13A1,1,0,0,1,15,12Zm0-2a1,1,0,0,1-1-1V7a1,1,0,1,1,2,0V9A1,1,0,0,1,15,10Z" transform="translate(0)" fill="#cf2935"/>
</svg>
